<svg version="1.1" xmlns="http://www.w3.org/2000/svg" xmlns:xlink="http://www.w3.org/1999/xlink" width="55.25" height="108.27184" viewBox="0,0,55.25,108.27184"><g transform="translate(-363.99526,-125.05192)"><g data-paper-data="{&quot;isPaintingLayer&quot;:true}" fill-rule="nonzero" stroke-linejoin="miter" stroke-miterlimit="10" stroke-dasharray="" stroke-dashoffset="0" style="mix-blend-mode: normal"><g><path d="M390.45529,173.84256l2.53148,8.70819l-0.92234,8.83924l0.73519,2.80204" fill="#ff9f72" stroke="#000000" stroke-width="4.5" stroke-linecap="round"/><path d="M405.57924,194.22249l0.52075,-2.8497l-1.58952,-8.74392l1.8643,-8.87497" data-paper-data="{&quot;index&quot;:null}" fill="#ff9f72" stroke="#000000" stroke-width="4.5" stroke-linecap="round"/><g fill="none" stroke="none" stroke-width="1" stroke-linecap="butt" font-family="sans-serif" font-weight="normal" font-size="12" text-anchor="start"/><path d="M387.04265,231.07376c-18.64486,-0.0807 -16.50017,-16.62166 -16.6521,-26.1749c-0.15193,-9.55324 2.06434,-32.93297 2.06434,-32.93297l37.61175,-1.47358c0,0 0.05089,26.59896 1.0529,38.71374c1.002,12.11478 -4.63041,21.95188 -24.07688,21.86771z" fill="#ff9f72" stroke="#000000" stroke-width="4.5" stroke-linecap="butt"/></g><path d="M371.93072,227.42381v-43.24938h41.14606v43.24938z" fill="none" stroke="none" stroke-width="0" stroke-linecap="butt"/><path d="M365.74526,152.77693c0,-14.29037 11.58463,-25.875 25.875,-25.875c14.29037,0 25.875,11.58463 25.875,25.875c0,14.29037 -11.58463,25.875 -25.875,25.875c-14.29037,0 -25.875,-11.58463 -25.875,-25.875z" fill="#fff1bf" stroke="none" stroke-width="0" stroke-linecap="butt"/><path d="M365.74526,152.67692c0,-14.29037 11.58463,-25.875 25.875,-25.875c14.29037,0 25.875,11.58463 25.875,25.875c0,14.29037 -11.58463,25.875 -25.875,25.875c-14.29037,0 -25.875,-11.58463 -25.875,-25.875z" fill="none" stroke="#00021d" stroke-width="3.5" stroke-linecap="butt"/><path d="M376.84028,156.49843c0,-0.7732 0.6268,-1.4 1.4,-1.4c0.7732,0 1.4,0.6268 1.4,1.4c0,0.7732 -0.6268,1.4 -1.4,1.4c-0.7732,0 -1.4,-0.6268 -1.4,-1.4z" fill="#161830" stroke="#161830" stroke-width="2.5" stroke-linecap="butt"/><path d="M393.28349,157.10879c0,-0.7732 0.6268,-1.4 1.4,-1.4c0.7732,0 1.4,0.6268 1.4,1.4c0,0.7732 -0.6268,1.4 -1.4,1.4c-0.7732,0 -1.4,-0.6268 -1.4,-1.4z" fill="#161830" stroke="#161830" stroke-width="2.5" stroke-linecap="butt"/><path d="M382.2842,134.65142c1.27984,0.00786 6.6211,-5.83959 12.75802,-6.29316c2.68091,-0.19814 7.15865,8.21123 2.97797,9.89875c-3.85131,1.55456 -16.31781,-3.60916 -15.73598,-3.60559z" fill="#a26549" stroke="#00021d" stroke-width="3.5" stroke-linecap="butt"/></g></g></svg>