<svg version="1.1" xmlns="http://www.w3.org/2000/svg" xmlns:xlink="http://www.w3.org/1999/xlink" width="73.36078" height="207.52962" viewBox="0,0,73.36078,207.52962"><g transform="translate(-337.40157,-88.3602)"><g data-paper-data="{&quot;isPaintingLayer&quot;:true}" fill-rule="nonzero" stroke-linejoin="miter" stroke-miterlimit="10" stroke-dasharray="" stroke-dashoffset="0" style="mix-blend-mode: normal"><path d="M368.51892,233.12193l2.5039,-12.31083h7.51169v12.93681z" fill="none" stroke="#00021d" stroke-width="12" stroke-linecap="butt"/><path d="M386.17752,285.8001l-3.27155,-0.17628l-0.04233,-52.56233" fill="none" stroke="#00021d" stroke-width="12" stroke-linecap="round"/><g stroke-linecap="butt"><path d="M376.6939,161.90928c-0.15312,8.65181 -6.05156,15.52984 -13.17456,15.36252c-7.123,-0.16733 -12.7732,-7.31664 -12.62008,-15.96846c0.03103,-1.75333 0.33187,-3.026 0.85118,-3.93946c0.30706,-0.54012 0.93975,-1.27335 0.93975,-1.27335l21.91787,-0.02303c0,0 0.99495,0.69791 1.33422,1.31698c0.52544,0.95877 0.7893,2.39559 0.75162,4.52479z" fill="#3c2222" stroke="none" stroke-width="0"/><path d="M362.23778,177.13846c-5.76711,-0.5006 -9.85714,-9.28571 -9.85714,-9.28571l21.28571,1.57143c0,0 -3.22691,8.4262 -11.42857,7.71428z" fill-opacity="0.08443" fill="#ffffff" stroke="none" stroke-width="0"/><path d="M358.95205,176.13846l6.14286,-20l10.71428,0.28571c0,0 0.82593,9.90201 -2.57143,14.57143c-5.89564,8.10314 -14.28572,5.14286 -14.28572,5.14286z" fill-opacity="0.08443" fill="#ffffff" stroke="none" stroke-width="0"/><path d="M376.551,161.76639c-0.15311,8.65181 -6.05156,15.52985 -13.17455,15.36252c-7.123,-0.16733 -12.7732,-7.31665 -12.62008,-15.96846c0.03103,-1.75332 0.33187,-3.026 0.85118,-3.93946c0.30706,-0.54011 0.93974,-1.27334 0.93974,-1.27334l21.91788,-0.02303c0,0 0.99495,0.69791 1.33422,1.31698c0.52544,0.95876 0.7893,2.39558 0.75162,4.52479z" fill="none" stroke="#00021d" stroke-width="3.5"/><path d="M364.21576,176.99564c-9.74878,-0.17107 -13.26096,-8.31498 -13.46821,-14.39323c-0.12766,-3.74398 1.85649,-6.61844 1.85649,-6.61844h21.84107c0,0 2.31457,3.09367 1.87335,7.34868c-0.62338,6.01169 -4.81991,13.79078 -12.10271,13.66299z" fill="#fcaff0" stroke="none" stroke-width="0"/></g><g data-paper-data="{&quot;index&quot;:null}"><path d="M393.11529,237.53713c-0.11432,1.92962 -1.74824,3.40257 -3.64948,3.28993c-1.90124,-0.11263 -3.34983,-1.76819 -3.23552,-3.6978c0.11432,-1.92962 1.74824,-3.40257 3.64948,-3.28994c0,0 3.34984,1.76819 3.23552,3.69781z" fill="#00021d" stroke="#ffe5bf" stroke-width="12" stroke-linecap="butt"/><g><path d="M389.42259,239.88495l-11.35839,-4.86557l0.30557,-9.31914l2.35116,-1.70396l3.92069,-35.08825c0,0 0.93128,-4.13853 3.33204,-3.97939c3.20258,0.2123 4.50217,4.69351 4.50217,4.69351l7.04345,35.13671l2.92152,2.21742l-1.24836,8.71446z" fill="#5c2a2a" stroke="none" stroke-width="0" stroke-linecap="butt"/><path d="M389.5136,239.41539l-11.45325,-4.41512l23.75077,-8.6105l-0.7319,8.97242z" fill-opacity="0.08443" fill="#ffffff" stroke="none" stroke-width="0" stroke-linecap="butt"/><path d="M389.06854,239.85567l-4.285,-50.41658c0,0 -0.60171,-3.89762 3.3087,-3.98753c3.50881,-0.08067 3.88809,4.64052 3.88809,4.64052l7.52387,34.03061l3.36213,3.5109l-1.57876,7.76945z" fill-opacity="0.08443" fill="#ffffff" stroke="none" stroke-width="0" stroke-linecap="butt"/><path d="M389.58747,239.97861l-11.36075,-4.82552l-0.06703,-9.27089l2.71745,-1.64542l3.04468,-34.79522c0,0 0.54362,-4.38063 4.1827,-4.20678c3.64184,0.17398 4.79237,4.98848 4.79237,4.98848l6.7784,34.77945l2.9486,1.7604l-1.26931,9.06802z" fill="none" stroke="#00021d" stroke-width="3.5" stroke-linecap="butt"/><path d="M400.32532,224.71192l-10.51293,2.52916l-9.54642,-3.22911" fill="none" stroke="#00021d" stroke-width="1.5" stroke-linecap="round"/><path d="M389.14603,240.2395l-10.93272,-4.67369l0.01241,-9.21014l2.90774,-2.39937l2.72932,-34.19252c0,0 0.93331,-4.771 4.53875,-4.55042c3.00931,0.18411 4.66299,5.17907 4.66299,5.17907l6.51717,34.11408l2.80458,2.77663l-1.02122,8.50372z" fill="#fcaff0" stroke="none" stroke-width="0" stroke-linecap="butt"/></g><g stroke-linecap="butt"><g><path d="M393.56397,194.04238c-1.11981,0.16297 -10.11136,0.11395 -10.11136,0.11395l-0.01673,-34.75384c0,0 1.50462,-4.10456 3.46474,-3.97152c2.61477,0.17748 2.92945,4.60034 2.92945,4.60034z" fill="#6a3c3c" stroke="none" stroke-width="0"/><path d="" fill-opacity="0.08443" fill="#ffffff" stroke="none" stroke-width="0"/><path d="M393.64887,194.03009c-1.14808,0.16529 -3.97418,0.21401 -3.97418,0.21401l-3.87458,-37.55146c0,0 0.78124,-0.71026 0.70151,-0.76941c2.86819,-0.11862 2.51919,4.55942 2.51919,4.55942z" fill="#fcaff0" stroke="none" stroke-width="0"/><path d="M383.58601,194.71996l0.06037,-34.82905c0,0 -0.21892,-4.22544 2.75296,-4.09113c2.97413,0.13442 3.46287,4.90972 3.46287,4.90972l3.78694,33.4195" fill="none" stroke="#00021d" stroke-width="3.5"/></g><path d="M384.44166,194.77064l0.10229,-34.73115c0,0 -0.03474,-3.30818 1.32092,-3.26962c2.97414,0.13442 3.04384,3.93085 3.04384,3.93085l3.87357,33.56773" fill="none" stroke="#fcaff0" stroke-width="1.75"/></g></g><path d="M368.77799,151.23478v-3.1h6.9v3.1z" fill="#b1a785" stroke="#00021d" stroke-width="1.5" stroke-linecap="butt"/><path d="M363.69928,289.88982l-4.02673,-0.96843l2.24986,-56.21831" fill="none" stroke="#00021d" stroke-width="12" stroke-linecap="round"/><path d="M365.82437,154.80972l-2.35196,-1.64182l0.97141,-1.16246l-0.69556,-1.09336l2.07611,-0.5587h13.24523l1.94056,0.56943l-1.15023,1.0814l1.19027,1.16369l-1.98059,1.64182z" fill="#fcaff0" stroke="none" stroke-width="0" stroke-linecap="butt"/><g stroke-linecap="butt"><path d="M346.50306,121.90503c0,-14.29037 11.58463,-25.875 25.875,-25.875c14.29037,0 25.875,11.58463 25.875,25.875c0,14.29037 -11.58463,25.875 -25.875,25.875c-14.29037,0 -25.875,-11.58463 -25.875,-25.875z" fill="#ffe5bf" stroke="none" stroke-width="0"/><path d="M346.97091,128.73478c0,0 -4.68232,-32.65417 27.28572,-32.42857c14.87492,0.10498 23.02602,14.8374 23.8695,24.25904c0.51139,5.71218 -1.29807,7.74097 -1.29807,7.74097l0.14285,1.57143c0,0 -1.82509,2.21435 -10.1223,-0.21313c-6.22603,-1.82152 -15.08335,-9.8676 -23.44518,-9.81699c-10.28352,0.06224 -16.43252,8.88726 -16.43252,8.88726z" fill-opacity="0.28957" fill="#000000" stroke="none" stroke-width="0"/><path d="M346.50306,121.80502c0,-14.29037 11.58463,-25.875 25.875,-25.875c14.29037,0 25.875,11.58463 25.875,25.875c0,14.29037 -11.58463,25.875 -25.875,25.875c-14.29037,0 -25.875,-11.58463 -25.875,-25.875z" fill="none" stroke="#00021d" stroke-width="3.5"/></g><g fill="none" stroke="#161830" stroke-width="3.5" stroke-linecap="round"><path d="M371.39941,123.03834v13.28572"/><path d="M385.68516,123.46691v13.28571"/></g><g><path d="M383.06318,225.00914l-10.49814,3.11839l-8.72956,-2.81602" fill="none" stroke="#00021d" stroke-width="12" stroke-linecap="round"/><path d="M354.95223,223.57075l-0.05175,-9.53l1.75737,-6.46318l1.06503,-52.61219l29.1552,0.16667l2.1872,52.9638l3.44603,5.67413v10.83243l-20.03008,6.18996z" fill="#5c2a2a" stroke="none" stroke-width="0" stroke-linecap="butt"/><path d="M371.29141,157.35466l1.69581,6.78325l-0.96903,6.78325l0.48452,2.18033" fill="none" stroke="#c2c2c2" stroke-width="3.5" stroke-linecap="round"/><path d="M382.34783,173.49856l0.48452,-2.18033l-0.96903,-6.78324l1.69581,-6.78324" data-paper-data="{&quot;index&quot;:null}" fill="none" stroke="#c2c2c2" stroke-width="3.5" stroke-linecap="round"/><path d="M382.57867,227.32397l-20.10747,-71.70858l24.39072,0.72677l2.61091,51.81776l3.01719,6.96899l-0.221,8.80345z" fill-opacity="0.08443" fill="#ffffff" stroke="none" stroke-width="0" stroke-linecap="butt"/><path d="M354.73742,223.69011l-0.29821,-9.10644l34.92273,-19.96462l-0.14631,13.31464l3.10417,5.81397l-0.05076,9.94245l-19.86522,6.78324z" fill-opacity="0.08443" fill="#ffffff" stroke="none" stroke-width="0" stroke-linecap="butt"/><path d="M355.08769,223.55253l-0.19461,-9.58151l1.47165,-6.25839l1.39836,-52.10791h28.82187l2.1872,52.62123l3.44604,5.61974v10.7286l-20.03009,6.13063z" fill="none" stroke="#00021d" stroke-width="3.5" stroke-linecap="butt"/><g stroke-linecap="butt"><path d="M366.90763,219.32537v-4.79834l4.53286,-7.99722l16.73672,-0.12304l3.75332,7.08447l0.1984,5.83413l-13.15254,4.56744z" fill="#694646" stroke="none" stroke-width="0"/><path d="M366.78013,220.03126l25.22131,-7.47411l-0.2,6.6741l-12.006,4.44445z" fill-opacity="0.14806" fill="#ffffff" stroke="none" stroke-width="0"/><path d="M367.02378,219.81752l0.34868,-4.3062h24.17527l0.69736,3.87531l-12.785,4.4753z" fill-opacity="0.08443" fill="#ffffff" stroke="none" stroke-width="0"/><path d="M382.12442,206.99187l5.77301,0.22222l4.09766,6.9714l-1.0537,6.0286l-3.33363,0.77855z" fill-opacity="0.08443" fill="#ffffff" stroke="none" stroke-width="0"/><path d="M366.6332,219.40398v-4.79834l4.53287,-7.99722l16.73673,-0.12304l3.75332,7.08447l0.1984,5.83412l-12.75254,3.96744z" fill="none" stroke="#00021d" stroke-width="3.5"/></g><path d="M354.98483,223.29814l-0.16473,-9.61483l1.51762,-6.01712l1.1553,-52.44962l29.02113,-0.03577l2.37553,53.23432l3.69094,6.17511l-0.32395,10.4263l-19.93561,5.97105z" fill="#fcaff0" stroke="none" stroke-width="0" stroke-linecap="butt"/></g><path d="M358.15358,237.55781c0.11431,1.92962 -1.33428,3.58518 -3.23552,3.69781c-1.90124,0.11263 -3.53516,-1.36032 -3.64948,-3.28994c-0.11431,-1.92962 1.33428,-3.58518 3.23552,-3.69781c1.90124,-0.11263 3.53516,1.36032 3.64948,3.28994z" fill="#00021d" stroke="#ffe5bf" stroke-width="12" stroke-linecap="butt"/><g><path d="M343.1914,236.11928l-1.24836,-8.71446l2.92152,-2.21742l7.04345,-35.13671c0,0 1.29958,-4.48121 4.50216,-4.6935c2.40076,-0.15914 3.33204,3.97938 3.33204,3.97938l3.92069,35.08825l2.35116,1.70396l0.30557,9.31914l-11.35839,4.86557z" fill="#5c2a2a" stroke="none" stroke-width="0" stroke-linecap="butt"/><path d="M343.30466,235.79075l-0.73189,-8.97242l23.75077,8.61051l-11.45324,4.41512z" fill-opacity="0.08443" fill="#ffffff" stroke="none" stroke-width="0" stroke-linecap="butt"/><path d="M343.09627,235.83158l-1.57877,-7.76946l3.36213,-3.51089l7.52388,-34.03061c0,0 0.37928,-4.72118 3.88809,-4.64052c3.9104,0.08991 3.3087,3.98753 3.3087,3.98753l-4.28501,50.41658z" fill-opacity="0.08443" fill="#ffffff" stroke="none" stroke-width="0" stroke-linecap="butt"/><path d="M343.02931,236.25968l-1.26931,-9.06802l2.9486,-1.7604l6.7784,-34.77944c0,0 1.15053,-4.81451 4.79237,-4.98849c3.63908,-0.17384 4.1827,4.20679 4.1827,4.20679l3.04468,34.79522l2.71745,1.64542l-0.06703,9.2709l-11.36075,4.82552z" fill="none" stroke="#00021d" stroke-width="3.5" stroke-linecap="butt"/><path d="M364.11787,224.44052l-9.54642,3.22911l-10.51293,-2.52916" fill="none" stroke="#00021d" stroke-width="1.5" stroke-linecap="round"/><path d="M343.01882,236.21545l-1.02122,-8.50372l2.80457,-2.77663l6.51718,-34.11408c0,0 1.65368,-4.99496 4.66299,-5.17907c3.60543,-0.22059 4.53875,4.55041 4.53875,4.55041l2.72932,34.19252l2.90774,2.39938l0.0124,9.21014l-10.93272,4.67369z" fill="#fcaff0" stroke="none" stroke-width="0" stroke-linecap="butt"/></g><g stroke-linecap="butt"><g><path d="M354.55377,160.45987c0,0 0.31469,-4.42285 2.92945,-4.60034c1.96013,-0.13304 3.46474,3.97152 3.46474,3.97152l-0.01672,34.75384c0,0 -8.99155,0.04903 -10.11136,-0.11395z" fill="#fcaff0" stroke="none" stroke-width="0"/><path d="" fill-opacity="0.08443" fill="#ffffff" stroke="none" stroke-width="0"/><path d="M355.36303,160.91117c0,0 -0.349,-4.67805 2.51919,-4.55942c-0.07973,0.05916 0.70151,0.76941 0.70151,0.76941l-3.87459,37.55147c0,0 -2.82609,-0.04872 -3.97417,-0.21401z" fill="#fcaff0" stroke="none" stroke-width="0"/><path d="M350.7347,194.55758l3.78694,-33.41949c0,0 0.48874,-4.77531 3.46287,-4.90972c2.97188,-0.13431 2.75296,4.09113 2.75296,4.09113l0.06038,34.82904" fill="none" stroke="#00021d" stroke-width="3.5"/></g><path d="M351.60159,194.69704l3.87357,-33.56773c0,0 0.0697,-3.79643 3.04384,-3.93085c1.35567,-0.03856 1.32092,3.26962 1.32092,3.26962l0.10228,34.73115" fill="none" stroke="#fcaff0" stroke-width="1.75"/></g><path d="M367.54489,142.63456l-4.03144,-0.93643" fill="none" stroke="#161830" stroke-width="1.5" stroke-linecap="round"/><path d="M367.12907,213.68619l4.25,-6.75h16.5l4,7.5l-1,5.25l-12.75,3.5l-11.75,-4z" fill="none" stroke="#000000" stroke-width="3" stroke-linecap="round"/><path d="M364.16266,224.38326l-9,3.75l-10.5,-2.75" fill="none" stroke="#000000" stroke-width="1.5" stroke-linecap="round"/><path d="M389.24705,227.60369l11.75,-3" fill="none" stroke="#000000" stroke-width="1.5" stroke-linecap="round"/><path d="M339.15999,154.48335c0,0 5.09632,-45.53229 10.77591,-57.31963c1.58652,-3.29263 3.21854,-3.95218 4.79772,-0.25071c8.62602,-9.5311 29.33723,-8.82236 26.68751,0.71786c27.61158,9.95404 38.15639,46.23541 14.49228,36.06069c3.54457,-12.44091 -38.78672,-16.46322 -36.35638,-19.87003c-3.88605,-6.79224 -14.13939,40.60589 -16.73813,44.87263c-1.24771,2.04855 -1.01794,-1.4725 -2.10823,-0.40395c-1.1273,1.10482 -1.55068,-3.80686 -1.55068,-3.80686z" fill="#fcaff0" stroke="#00021d" stroke-width="3.5" stroke-linecap="butt"/><path d="M368.08267,168.95892c-0.7276,-0.1819 -0.5457,-0.90951 -0.5457,-0.90951l0.11614,-0.45471c0.47528,-2.85172 1.05284,-5.35226 0.88998,-8.29319c-0.07619,-1.37572 -0.64353,-2.56566 -0.64353,-4.03134c0,0 0,-0.75 0.75,-0.75c0.75,0 0.75,0.75 0.75,0.75c0,1.46355 0.53331,2.5171 0.63976,3.925c0.22974,3.03871 -0.41602,5.7026 -0.90661,8.64612l-0.14052,0.57192c0,0 -0.1819,0.72761 -0.90951,0.5457z" fill="#000000" stroke="none" stroke-width="0.5" stroke-linecap="butt"/><path d="M379.42911,168.468c-0.75,0 -0.75,-0.75 -0.75,-0.75l0.00256,-0.70811c-0.23648,-1.38935 -1.02769,-1.53071 -1.27615,-2.89327c-0.52225,-2.86396 0.64882,-5.89476 0.25451,-8.61205c0,0 -0.10607,-0.74247 0.63639,-0.84853c0.74246,-0.10607 0.84853,0.6364 0.84853,0.6364c0.38383,2.72504 -0.47925,5.70435 -0.2588,8.58391c0.06306,0.82379 1.09832,1.83555 1.29041,3.00982l0.00255,0.83183c0,0 0,0.75 -0.75,0.75z" fill="#000000" stroke="none" stroke-width="0.5" stroke-linecap="butt"/><g stroke-linecap="butt"><g><path d="M370.51578,189.73906c0,-1.10457 0.89543,-2 2,-2c1.10457,0 2,0.89543 2,2c0,1.10457 -0.89543,2 -2,2c-1.10457,0 -2,-0.89543 -2,-2z" fill="#fcd5f7" stroke="none" stroke-width="0.5"/><path d="M378.81276,189.73906c0,-1.10457 0.89543,-2 2,-2c1.10457,0 2,0.89543 2,2c0,1.10457 -0.89543,2 -2,2c-1.10457,0 -2,-0.89543 -2,-2z" fill="#fcd5f7" stroke="none" stroke-width="0.5"/><path d="M370.15769,194.80216c0,-3.11954 3.42815,-4.41197 6.54769,-4.41197c3.11955,0 6.09806,1.18001 6.09806,4.29955c0,3.11954 -3.09092,6.21048 -6.21047,6.21048c-3.11955,0 -6.43529,-2.97852 -6.43529,-6.09806z" fill="#ffffff" stroke="#000000" stroke-width="2.5"/><path d="M373.56674,194.43684c0,-0.41422 0.33578,-0.75 0.75,-0.75c0.41422,0 0.75,0.33578 0.75,0.75c0,0.41422 -0.33578,0.75 -0.75,0.75c-0.41422,0 -0.75,-0.33578 -0.75,-0.75z" fill="#000000" stroke="none" stroke-width="0.5"/><path d="M378.28782,194.54925c0,-0.41422 0.33578,-0.75 0.75,-0.75c0.41422,0 0.75,0.33578 0.75,0.75c0,0.41422 -0.33578,0.75 -0.75,0.75c-0.41422,0 -0.75,-0.33578 -0.75,-0.75z" fill="#000000" stroke="none" stroke-width="0.5"/><path d="M377.72604,197.37284c-0.00655,0.04509 -0.01543,0.08773 -0.02647,0.12801c0.08061,0.03934 0.16076,0.07838 0.23963,0.11773l0.07754,0.03877c0,0 0.00928,0.00465 0.02311,0.01393c0.03009,0.00236 0.05007,0.00807 0.05007,0.00807c0.09046,0.02585 0.18093,0.05169 0.2714,0.07754l0.1937,0.20612c0,0 0.1118,0.2236 -0.11181,0.33541c-0.17982,0.08991 -0.28734,-0.03709 -0.32255,-0.09028c-0.05604,-0.01601 -0.11207,-0.03202 -0.1681,-0.04803c0,0 -0.02913,-0.00832 -0.06421,-0.02931c-0.05493,-0.00609 -0.09522,-0.02623 -0.09522,-0.02623l-0.07754,-0.03877c-0.0978,-0.04899 -0.19666,-0.09757 -0.2956,-0.14668c-0.29351,0.21011 -0.73769,0.18314 -1.10676,0.00506c-0.03277,-0.00162 -0.06557,-0.00634 -0.09808,-0.01445c-0.40648,0.28695 -0.88647,0.48532 -1.33435,0.49264l-0.09445,0.03131c0,0 -0.24254,0.06063 -0.30317,-0.1819c-0.06063,-0.24254 0.1819,-0.30317 0.1819,-0.30317l0.21572,-0.04623c0.30077,0.00661 0.64334,-0.12798 0.94654,-0.32424c-0.00431,-0.00789 -0.00856,-0.01594 -0.01276,-0.02413c-0.01785,-0.03486 -0.03154,-0.06969 -0.04137,-0.10436c-0.03925,-0.06695 -0.06976,-0.13796 -0.08965,-0.21231c0,0 -0.01253,-0.05639 0.00156,-0.12098c-0.42825,-0.15475 -0.85769,-0.32079 -1.27154,-0.38447l-0.15464,-0.04826c0,0 -0.23717,-0.07906 -0.15812,-0.31623c0.07905,-0.23717 0.31623,-0.15812 0.31623,-0.15812l0.07798,0.02928c0.53131,0.09237 1.06663,0.32145 1.60418,0.49784c0.37983,-0.29041 0.98399,-0.42597 1.34428,-0.20385c0.06986,-0.03838 0.14126,-0.07474 0.21515,-0.10808c0.00083,-0.00118 0.00165,-0.00235 0.00248,-0.0035l-0.01051,0.00379c0,0 0.00772,-0.00772 0.02155,-0.01833c0.01721,-0.02141 0.0313,-0.03348 0.0313,-0.03348c0.08808,-0.07541 0.17615,-0.15083 0.26423,-0.22625l0.18694,-0.1872c0,0 0.17678,-0.17677 0.35355,0c0.17678,0.17677 0,0.35356 0,0.35356l-0.20077,0.20051c-0.09285,0.07967 -0.18571,0.15934 -0.27856,0.23901c0,0 -0.00278,0.00238 -0.00796,0.00624c-0.00977,0.01254 -0.01674,0.0195 -0.01674,0.0195l-0.11706,0.09178c-0.05631,0.02369 -0.11122,0.04969 -0.1651,0.07741c0.02495,0.11851 0.02814,0.2595 0.00404,0.42536z" fill="#000000" stroke="none" stroke-width="0.5"/><path d="M382.90994,192.97705c-0.73214,0.1627 -0.89484,-0.56944 -0.89484,-0.56944l-0.12568,-0.5857c-0.37611,-3.41501 -0.49332,-3.56446 -2.56008,-1.11586c0,0 -0.48446,0.57254 -1.057,0.08808c-0.57254,-0.48445 -0.08808,-1.057 -0.08808,-1.057c0.45535,-0.53668 1.05973,-1.78445 1.61041,-2.17166c2.79764,-1.96714 3.38617,2.31074 3.58558,4.09079l0.09913,0.42595c0,0 0.16269,0.73214 -0.56945,0.89484z" fill="#000000" stroke="none" stroke-width="0.5"/></g><path d="M375.63392,190.92053c-0.53033,0.53033 -1.06066,0 -1.06066,0l-0.40689,-0.41755c-1.87583,-2.50216 -2.82137,-2.93462 -2.80905,0.67406c0,0 0,0.75 -0.75,0.75c-0.75,0 -0.75,-0.75 -0.75,-0.75c0.00507,-1.70188 0.15806,-5.08837 2.79699,-4.41706c1.0177,0.25889 2.1095,2.03992 2.71206,2.843l0.26755,0.25689c0,0 0.53033,0.53033 0,1.06066z" fill="#000000" stroke="none" stroke-width="0.5"/></g></g></g></svg>