<svg version="1.1" xmlns="http://www.w3.org/2000/svg" xmlns:xlink="http://www.w3.org/1999/xlink" width="148.72559" height="114.08984" viewBox="0,0,148.72559,114.08984"><g transform="translate(-294.60028,-167.85049)"><g data-paper-data="{&quot;isPaintingLayer&quot;:true}" fill-rule="nonzero" stroke-linejoin="miter" stroke-miterlimit="10" stroke-dasharray="" stroke-dashoffset="0" style="mix-blend-mode: normal"><g data-paper-data="{&quot;index&quot;:null}" stroke-linecap="butt"><g data-paper-data="{&quot;index&quot;:null}"><g data-paper-data="{&quot;index&quot;:null}"><path d="M321.66073,244.3238l17.14169,30.86615c0,0 1.63974,3.9123 -0.40891,5.17405c-2.73286,1.68318 -6.38916,-1.21538 -6.38916,-1.21538l-26.10458,-24.55095z" fill="#5c2a2a" stroke="none" stroke-width="0"/><path d="M315.04883,247.97662l23.33012,26.86285c0,0 2.74935,2.82747 -0.38518,5.16715c-2.81261,2.0994 -5.85804,-1.5281 -5.85804,-1.5281l-25.85498,-23.37117z" fill-opacity="0.08443" fill="#ffffff" stroke="none" stroke-width="0"/><path d="M321.39401,244.21829l17.68574,30.11964c0,0 2.09596,3.88491 -0.97032,5.8524c-3.06862,1.969 -6.79662,-1.28757 -6.79662,-1.28757l-25.68151,-24.41344z" fill="none" stroke="#00021d" stroke-width="3.5"/><path d="M321.34777,244.59545l17.5934,29.44572c0,0 2.00462,4.42889 -1.06132,6.33878c-2.55903,1.59413 -6.80165,-1.51788 -6.80165,-1.51788l-25.083,-24.02263z" fill="#71521d" stroke="none" stroke-width="0"/></g><g data-paper-data="{&quot;index&quot;:null}"><g><path d="M339.19656,279.26698c-0.26744,-0.12952 -0.97609,-0.57563 -1.87579,-1.16311c-0.10387,-0.35997 -0.22796,-0.71447 -0.37191,-1.06164c0.0079,-0.41678 -0.01018,-0.83872 -0.05562,-1.26403c-0.27213,-2.5471 -1.47803,-4.7682 -3.24095,-6.35922l16.58949,-24.51048c0,0 3.54793,-2.5541 5.09605,-1.34452c2.06514,1.61361 -0.15517,5.45168 -0.15517,5.45168z" fill="#71521d" stroke="none" stroke-width="0"/><path d="" fill-opacity="0.08443" fill="#ffffff" stroke="none" stroke-width="0"/><path d="M339.27371,279.30443c-0.48151,-0.23408 -1.24509,-0.68927 -1.92773,-1.11158c-0.10881,-0.39056 -0.24133,-0.77488 -0.39712,-1.15063c0.0079,-0.41677 -0.01019,-0.83871 -0.05563,-1.264c-0.0129,-0.12077 -0.0279,-0.2408 -0.04496,-0.36007l16.87076,-31.42692c0,0 1.04516,-0.1498 1.01234,-0.24349c2.44105,1.51059 -0.47187,5.18768 -0.47187,5.18768z" fill="#71521d" stroke="none" stroke-width="0"/><path d="M333.76096,269.51847l16.38116,-24.08754c0,0 2.18888,-3.62094 4.57387,-1.84277c2.38682,1.77951 0.11289,6.00701 0.11289,6.00701l-15.61034,29.79127" fill="none" stroke="#00021d" stroke-width="3.5"/></g><path d="M334.37814,270.14461l16.42364,-24.08724c0,0 1.82682,-2.75823 2.92752,-1.96591c2.38682,1.77952 0.31506,4.96159 0.31506,4.96159l-15.62179,29.96259" fill="none" stroke="#71521d" stroke-width="1.75"/></g><g><path d="M303.22193,235.84194l13.39194,-3.02711l5.97597,9.32858l-7.76099,9.30461l-12.33161,3.35077l-5.81,-9.49592z" fill="#835c5c" stroke="#00021d" stroke-width="3.5"/><path d="M304.79933,237.78728l9.99014,-2.37519l-5.30536,6.68894l-9.98735,3.04184z" fill="#774d4d" stroke="#774d4d" stroke-width="1.5"/><path d="M303.22193,235.84187l13.39194,-3.02711l5.97598,9.32859l-7.761,9.30461l-12.33161,3.35078l-5.81001,-9.49594z" fill="none" stroke="#00021d" stroke-width="3.5"/><path d="M303.22127,235.67524l13.39192,-3.02711l5.97598,9.32859l-7.76099,9.30461l-12.33161,3.35078l-5.81,-9.49594z" fill="#71521d" stroke="none" stroke-width="0"/></g></g><path d="M304.81437,239.24597c-1.92822,0.13595 -3.59991,-1.294 -3.73385,-3.19385c-0.13394,-1.89986 1.32059,-3.55018 3.24881,-3.68615c1.92822,-0.13595 3.59993,1.29399 3.73386,3.19385c0.13394,1.89986 -1.32059,3.55018 -3.24881,3.68615z" fill="#00021d" stroke="#00021d" stroke-width="12"/></g><g data-paper-data="{&quot;index&quot;:null}" stroke-linecap="butt"><g data-paper-data="{&quot;index&quot;:null}"><g data-paper-data="{&quot;index&quot;:null}"><path d="M349.41359,194.79689l-32.85329,12.9313c0,0 -4.09402,1.11071 -5.07526,-1.08615c-1.30896,-2.93058 2.04549,-6.17369 2.04549,-6.17369l27.77231,-22.64721z" fill="#5c2a2a" stroke="none" stroke-width="0"/><path d="M346.66252,187.76184l-29.69905,19.59268c0,0 -3.16465,2.35341 -5.07155,-1.06171c-1.71107,-3.06439 2.28562,-5.60603 2.28562,-5.60603l26.56994,-22.55504z" fill-opacity="0.08443" fill="#ffffff" stroke="none" stroke-width="0"/><path d="M349.55328,194.54636l-32.18486,13.56885c0,0 -4.12691,1.56655 -5.67383,-1.73194c-1.54811,-3.30102 2.17066,-6.5681 2.17066,-6.5681l27.58033,-22.24594z" fill="none" stroke="#00021d" stroke-width="3.5"/><path d="M349.18548,194.45089l-31.50464,13.566c0,0 -4.65415,1.40443 -6.14402,-1.88615c-1.24356,-2.74653 2.39963,-6.54279 2.39963,-6.54279l27.11417,-21.70405z" fill="#71521d" stroke="none" stroke-width="0"/></g><g data-paper-data="{&quot;index&quot;:null}"><g><path d="M312.46687,207.58245c0.16357,-0.24808 0.69905,-0.89186 1.3998,-1.70644c0.3705,-0.0556 0.73825,-0.13197 1.10136,-0.22899c0.41213,0.06267 0.83276,0.10027 1.26036,0.11119c2.56075,0.06538 4.92123,-0.8378 6.73037,-2.37604l22.11455,19.67033c0,0 2.06508,3.85315 0.6623,5.22865c-1.87131,1.83487 -5.38385,-0.87115 -5.38385,-0.87115z" fill="#71521d" stroke="none" stroke-width="0"/><path d="" fill-opacity="0.08443" fill="#ffffff" stroke="none" stroke-width="0"/><path d="M312.41959,207.65401c0.29541,-0.44653 0.8471,-1.14357 1.35556,-1.76472c0.40148,-0.05648 0.79989,-0.13728 1.19287,-0.24228c0.4121,0.06267 0.83274,0.10026 1.26034,0.11118c0.12142,0.00311 0.24237,0.00403 0.36284,0.0028l28.93385,20.85921c0,0 0.01098,1.05578 0.10818,1.03558c-1.81865,2.22106 -5.08048,-1.15036 -5.08048,-1.15036z" fill="#71521d" stroke="none" stroke-width="0"/><path d="M322.84583,203.47682l21.7227,19.40816c0,0 3.30146,2.64629 1.22492,4.77658c-2.07808,2.13192 -5.96964,-0.67849 -5.96964,-0.67849l-27.47825,-19.39453" fill="none" stroke="#00021d" stroke-width="3.5"/></g><path d="M322.14394,204.00623l21.71679,19.45024c0,0 2.49389,2.17387 1.56362,3.16075c-2.0781,2.13192 -4.9599,-0.34052 -4.9599,-0.34052l-27.64659,-19.42841" fill="none" stroke="#71521d" stroke-width="1.75"/></g><g><path d="M360.24787,177.63443l1.23869,13.67381l-10.03379,4.69656l-8.20253,-8.9178l-1.69906,-12.6653l10.17784,-4.51002z" fill="#835c5c" stroke="#00021d" stroke-width="3.5"/><path d="M358.11189,178.94215l1.04005,10.21581l-5.9327,-6.13937l-1.70126,-10.30076z" fill="#774d4d" stroke="#774d4d" stroke-width="1.5"/><path d="M360.24795,177.63444l1.23868,13.67381l-10.03379,4.69657l-8.20253,-8.9178l-1.69906,-12.6653l10.17784,-4.51002z" fill="none" stroke="#00021d" stroke-width="3.5"/><path d="M360.4132,177.6557l1.2387,13.6738l-10.03379,4.69657l-8.20254,-8.91781l-1.69906,-12.6653l10.17785,-4.51003z" fill="#71521d" stroke="none" stroke-width="0"/></g></g><path d="M356.66391,178.76512c0.11895,-1.92935 1.75643,-3.39835 3.65738,-3.28115c1.90097,0.11721 3.34557,1.77624 3.22662,3.70559c-0.11895,1.92935 -1.75643,3.39836 -3.65739,3.28115c-1.90096,-0.11721 -3.34556,-1.77624 -3.22662,-3.70559z" fill="#00021d" stroke="#00021d" stroke-width="12"/></g><g data-paper-data="{&quot;index&quot;:null}" stroke-linecap="butt"><g data-paper-data="{&quot;index&quot;:null}"><g data-paper-data="{&quot;index&quot;:null}"><path d="M432.02639,249.59767l-26.10458,24.55096c0,0 -3.6563,2.89856 -6.38916,1.21538c-2.04864,-1.26175 -0.4089,-5.17405 -0.4089,-5.17405l17.14168,-30.86615z" fill="#5c2a2a" stroke="none" stroke-width="0"/><path d="M431.64542,250.10735l-25.85499,23.37116c0,0 -3.04543,3.6275 -5.85803,1.52811c-3.13452,-2.33968 -0.38518,-5.16715 -0.38518,-5.16715l23.33012,-26.86285z" fill-opacity="0.08443" fill="#ffffff" stroke="none" stroke-width="0"/><path d="M432.29486,249.48932l-25.68151,24.41344c0,0 -3.72799,3.25657 -6.79662,1.28757c-3.06628,-1.96749 -0.97032,-5.8524 -0.97032,-5.8524l17.68574,-30.11964z" fill="none" stroke="#00021d" stroke-width="3.5"/><path d="M431.93097,249.83946l-25.083,24.02263c0,0 -4.24261,3.112 -6.80165,1.51787c-3.06594,-1.90989 -1.06132,-6.33878 -1.06132,-6.33878l17.5934,-29.44572z" fill="#71521d" stroke="none" stroke-width="0"/></g><g data-paper-data="{&quot;index&quot;:null}"><g><path d="M382.74352,244.01566c0,0 -2.22032,-3.83807 -0.15518,-5.45167c1.54812,-1.20959 5.09605,1.34451 5.09605,1.34451l16.58949,24.51048c-1.76292,1.59101 -2.96883,3.81212 -3.24096,6.35922c-0.04544,0.42531 -0.06352,0.84725 -0.05562,1.26403c-0.14395,0.34718 -0.26804,0.70167 -0.37191,1.06164c-0.89969,0.58748 -1.60835,1.03359 -1.87579,1.1631z" fill="#71521d" stroke="none" stroke-width="0"/><path d="" fill-opacity="0.08443" fill="#ffffff" stroke="none" stroke-width="0"/><path d="M383.66666,243.93541c0,0 -2.91292,-3.67708 -0.47187,-5.18767c-0.03282,0.09369 1.01233,0.24349 1.01233,0.24349l16.87076,31.42692c-0.01706,0.11927 -0.03206,0.2393 -0.04496,0.36007c-0.04544,0.4253 -0.06352,0.84724 -0.05563,1.264c-0.15579,0.37575 -0.28832,0.76007 -0.39712,1.15063c-0.68264,0.4223 -1.44622,0.87749 -1.92772,1.11157z" fill="#71521d" stroke="none" stroke-width="0"/><path d="M398.70762,274.38645l-15.61034,-29.79127c0,0 -2.27393,-4.22751 0.11289,-6.00701c2.38499,-1.77817 4.57387,1.84277 4.57387,1.84277l16.38116,24.08755" fill="none" stroke="#00021d" stroke-width="3.5"/></g><path d="M399.50359,274.01564l-15.62178,-29.96259c0,0 -2.07177,-3.18207 0.31506,-4.96159c1.1007,-0.79232 2.92752,1.96591 2.92752,1.96591l16.42364,24.08723" fill="none" stroke="#71521d" stroke-width="1.75"/></g><g><path d="M441.23894,240.30288l-5.81,9.49593l-12.33161,-3.35078l-7.76099,-9.30461l5.97596,-9.32858l13.39194,3.0271z" fill="#835c5c" stroke="#00021d" stroke-width="3.5"/><path d="M438.42941,240.14287l-9.98735,-3.04184l-5.30537,-6.68894l9.99014,2.37519z" fill="#774d4d" stroke="#774d4d" stroke-width="1.5"/><path d="M441.23894,240.3028l-5.81001,9.49593l-12.33161,-3.35078l-7.761,-9.30461l5.97598,-9.32858l13.39194,3.0271z" fill="none" stroke="#00021d" stroke-width="3.5"/><path d="M441.2396,240.13618l-5.81001,9.49593l-12.33161,-3.35078l-7.76099,-9.30462l5.97598,-9.32858l13.39193,3.02711z" fill="#71521d" stroke="none" stroke-width="0"/></g></g><path d="M433.11178,234.24597c-1.92822,-0.13596 -3.38274,-1.78628 -3.24881,-3.68614c0.13393,-1.89986 1.80564,-3.32981 3.73386,-3.19385c1.92822,0.13596 3.38274,1.78628 3.24881,3.68614c-0.13394,1.89985 -1.80563,3.3298 -3.73385,3.19385z" fill="#00021d" stroke="#00021d" stroke-width="12"/></g><g data-paper-data="{&quot;index&quot;:null}" stroke-linecap="butt"><g data-paper-data="{&quot;index&quot;:null}"><g data-paper-data="{&quot;index&quot;:null}"><path d="M401.57713,178.07245l27.77231,22.64722c0,0 3.35446,3.2431 2.0455,6.17368c-0.98123,2.19686 -5.07526,1.08615 -5.07526,1.08615l-32.85329,-12.9313z" fill="#5c2a2a" stroke="none" stroke-width="0"/><path d="M402.13249,178.38305l26.56994,22.55504c0,0 3.99669,2.54164 2.28563,5.60603c-1.9069,3.41512 -5.07155,1.06171 -5.07155,1.06171l-29.69905,-19.59268z" fill-opacity="0.08443" fill="#ffffff" stroke="none" stroke-width="0"/><path d="M401.43438,177.82054l27.58033,22.24594c0,0 3.71877,3.26708 2.17066,6.5681c-1.54692,3.2985 -5.67383,1.73194 -5.67383,1.73194l-32.18485,-13.56885z" fill="none" stroke="#00021d" stroke-width="3.5"/><path d="M401.82936,178.13521l27.11416,21.70405c0,0 3.64318,3.79626 2.39963,6.54279c-1.48987,3.29059 -6.14402,1.88615 -6.14402,1.88615l-31.50464,-13.566z" fill="#71521d" stroke="none" stroke-width="0"/></g><g data-paper-data="{&quot;index&quot;:null}"><g><path d="M402.52822,227.66131c0,0 -3.51255,2.70602 -5.38386,0.87115c-1.40278,-1.3755 0.6623,-5.22865 0.6623,-5.22865l22.11455,-19.67033c1.80913,1.53824 4.16961,2.44142 6.73037,2.37604c0.42759,-0.01092 0.84824,-0.04851 1.26036,-0.11118c0.3631,0.09703 0.73085,0.17339 1.10135,0.22899c0.70075,0.81458 1.23623,1.45836 1.3998,1.70644z" fill="#71521d" stroke="none" stroke-width="0"/><path d="" fill-opacity="0.08443" fill="#ffffff" stroke="none" stroke-width="0"/><path d="M402.32722,226.75673c0,0 -3.26183,3.37142 -5.08048,1.15036c0.09719,0.0202 0.10817,-1.03558 0.10817,-1.03558l28.93385,-20.85922c0.12048,0.00122 0.24143,0.00031 0.36285,-0.0028c0.42759,-0.01092 0.84824,-0.04851 1.26034,-0.11118c0.39298,0.10499 0.7914,0.1858 1.19287,0.24228c0.50845,0.62115 1.06015,1.31819 1.35556,1.76472z" fill="#71521d" stroke="none" stroke-width="0"/><path d="M430.53441,207.83984l-27.47826,19.39453c0,0 -3.89155,2.81042 -5.96964,0.67849c-2.07653,-2.13029 1.22492,-4.77658 1.22492,-4.77658l21.7227,-19.40816" fill="none" stroke="#00021d" stroke-width="3.5"/></g><path d="M430.06211,207.09959l-27.64659,19.42841c0,0 -2.88179,2.47245 -4.9599,0.34052c-0.93027,-0.98688 1.56362,-3.16075 1.56362,-3.16075l21.71679,-19.45024" fill="none" stroke="#71521d" stroke-width="1.75"/></g><g><path d="M391.15095,170.16299l10.17784,4.51002l-1.69906,12.6653l-8.20253,8.9178l-10.03378,-4.69657l1.23868,-13.67381z" fill="#835c5c" stroke="#00021d" stroke-width="3.5"/><path d="M391.362,172.96914l-1.70127,10.30076l-5.9327,6.13937l1.04005,-10.21581z" fill="#774d4d" stroke="#774d4d" stroke-width="1.5"/><path d="M391.15088,170.16301l10.17784,4.51002l-1.69906,12.6653l-8.20253,8.9178l-10.03379,-4.69658l1.23868,-13.67381z" fill="none" stroke="#00021d" stroke-width="3.5"/><path d="M390.98562,170.18424l10.17785,4.51003l-1.69906,12.6653l-8.20254,8.91781l-10.03379,-4.69658l1.2387,-13.6738z" fill="#71521d" stroke="none" stroke-width="0"/></g></g><path d="M386.21608,179.01644c0.11894,1.92935 -1.32566,3.58838 -3.22662,3.70559c-1.90095,0.11721 -3.53843,-1.35181 -3.65738,-3.28115c-0.11895,-1.92934 1.32564,-3.58838 3.22661,-3.70558c1.90095,-0.1172 3.53843,1.3518 3.65738,3.28115z" fill="#00021d" stroke="#00021d" stroke-width="12"/></g><path d="M343.33072,231.79912c0,-14.29037 0,14.29037 0,0z" fill="#fff1bf" stroke="none" stroke-width="0" stroke-linecap="butt"/><path d="M344.30319,232.77304c0,-14.29037 11.58463,-25.875 25.875,-25.875c9.33832,0 15.52123,3.6969 20.07111,11.11307c2.41277,3.93275 5.80389,9.80988 5.80389,14.76193c0,14.29037 -11.58463,25.875 -25.875,25.875c-14.29037,0 -25.875,-11.58463 -25.875,-25.875z" fill="#fff1bf" stroke="none" stroke-width="0" stroke-linecap="butt"/><path d="M344.30319,232.67307c0,-14.29037 11.58463,-25.875 25.875,-25.875c8.98375,0 25.875,8.00882 25.875,25.875c0,14.29037 -11.58463,25.875 -25.875,25.875c-14.29037,0 -25.875,-11.58463 -25.875,-25.875z" fill="#71521d" stroke="#00021d" stroke-width="3.5" stroke-linecap="butt"/><path d="M350.14048,232.50979c0,-10.89928 8.83561,-19.73489 19.73489,-19.73489c6.85192,0 19.73489,6.10834 19.73489,19.73489c0,10.89928 -8.83561,19.73489 -19.73489,19.73489c-10.89928,0 -19.73489,-8.83561 -19.73489,-19.73489z" fill="#ae7f2d" stroke="#00021d" stroke-width="3.5" stroke-linecap="butt"/><path d="M365.777,246.54543l7.92714,0.04636" fill="none" stroke="#161830" stroke-width="2.5" stroke-linecap="round"/><path d="M362.90512,226.54618v9.78572" fill="none" stroke="#161830" stroke-width="3.5" stroke-linecap="round"/><path d="M377.19087,226.97476v9.78571" fill="none" stroke="#161830" stroke-width="3.5" stroke-linecap="round"/><path d="M367.94087,225.81207l-1,3l-9.5,-5.25" fill="none" stroke="#161830" stroke-width="3.5" stroke-linecap="round"/><path d="M372.94087,228.56207l9.5,-5.25" data-paper-data="{&quot;index&quot;:null}" fill="none" stroke="#161830" stroke-width="3.5" stroke-linecap="round"/></g></g></svg>