<svg version="1.1" xmlns="http://www.w3.org/2000/svg" xmlns:xlink="http://www.w3.org/1999/xlink" width="33.437" height="45.27907" viewBox="0,0,33.437,45.27907"><g transform="translate(-363.2815,-167.36046)"><g data-paper-data="{&quot;isPaintingLayer&quot;:true}" fill-rule="nonzero" stroke-linecap="butt" stroke-linejoin="miter" stroke-miterlimit="10" stroke-dasharray="" stroke-dashoffset="0" style="mix-blend-mode: normal"><path d="M363.7815,195.92104c0,-8.95723 7.26127,-28.06057 16.2185,-28.06057c8.95723,0 16.2185,19.10334 16.2185,28.06058c0,8.95723 -7.26127,16.2185 -16.2185,16.2185c-8.95723,0 -16.2185,-7.26127 -16.2185,-16.2185z" fill="#fdbbff" stroke="none" stroke-width="none"/><path d="M366.28087,183.91313c0,0 0.49874,-1.42884 0.7734,-2.13018c0.26799,-0.68433 0.85505,-2.02807 0.85505,-2.02807l24.38946,0.56692c0,0 0.61892,1.27311 0.84609,1.85975c0.20402,0.52686 0.69414,2.0075 0.69414,2.0075z" fill="#f5ffba" stroke="none" stroke-width="0"/><path d="M395.25488,201.4656c0,0 -0.68834,1.92324 -1.24704,2.82414c-0.51264,0.82662 -1.67625,2.07502 -1.67625,2.07502l-25.42738,-0.56586c0,0 -0.86599,-1.27597 -1.20683,-1.95658c-0.35287,-0.70464 -0.87555,-2.20167 -0.87555,-2.20167z" data-paper-data="{&quot;index&quot;:null}" fill="#f5ffba" stroke="none" stroke-width="0"/><path d="M363.93594,194.53547v-3.00122h32.3397v3.00122z" fill="#f5ffba" stroke="none" stroke-width="0"/><path d="M363.7815,195.92104c0,-8.95723 7.26127,-28.06058 16.2185,-28.06058c8.95723,0 16.2185,19.10335 16.2185,28.06058c0,8.95723 -7.26127,16.2185 -16.2185,16.2185c-8.95723,0 -16.2185,-7.26127 -16.2185,-16.2185z" fill="none" stroke="#000000" stroke-width="1"/></g></g></svg>