<svg version="1.1" xmlns="http://www.w3.org/2000/svg" xmlns:xlink="http://www.w3.org/1999/xlink" width="37.2238" height="52.3627" viewBox="0,0,37.2238,52.3627"><g transform="translate(-358.98425,-155.30674)"><g data-paper-data="{&quot;isPaintingLayer&quot;:true}" fill-rule="nonzero" stroke-linecap="butt" stroke-linejoin="miter" stroke-miterlimit="10" stroke-dasharray="" stroke-dashoffset="0" style="mix-blend-mode: normal"><path d="M366.30945,193.17728c0,0 -2.79662,-0.25923 -4.44277,-1.21379c-0.86781,-0.50322 -0.92175,-0.1408 -0.5718,-1.09439c0.59242,-1.61431 1.76309,-3.5889 1.76309,-3.5889c0,0 18.91998,0.69033 24.07779,0.87853c2.44198,0.0891 5.39722,0.19693 5.39722,0.19693c0,0 3.03908,1.3075 2.78403,2.36936c-0.25589,1.06536 0.23638,1.77361 0.23638,1.77361z" fill="#3ecf2a" stroke="none" stroke-width="0"/><path d="M366.46471,193.03374c0,0 -6.13899,0.34211 -5.44512,-2.36925c0.01474,-0.05759 2.01831,-2.74992 2.02355,-2.76419c0.59242,-1.61431 30.06866,0.87655 30.06866,0.87655c0,0 2.50002,2.52055 2.24497,3.58241c-0.25589,1.06536 -5.04842,0.68158 -5.04842,0.68158c0,0 -7.56119,-0.00226 -11.45416,-0.00342c-4.04879,-0.0012 -12.38948,-0.00369 -12.38948,-0.00369z" fill="none" stroke="#00021d" stroke-width="1"/><path d="M378.18326,188.00932c0.66212,0.27703 13.27276,0.6712 13.27276,0.6712c0,0 3.93903,2.32847 3.68399,3.39033c-0.25589,1.06537 -5.42856,1.50898 -5.42856,1.50898c0,0 -3.18096,-1.20814 -5.229,-2.92264c-2.74458,-2.2976 -7.87303,-3.30636 -6.29919,-2.64788z" fill-opacity="0.31452" fill="#000000" stroke="none" stroke-width="0"/><path d="M376.96624,156.81525c20.19273,0 17.62811,21.73328 17.62811,21.73328l-33.32436,-0.48296c0,0 -3.77203,-21.25032 15.69626,-21.25032z" data-paper-data="{&quot;index&quot;:null}" fill="#cfa900" stroke="none" stroke-width="0"/><g data-paper-data="{&quot;index&quot;:null}" fill="#6c5800" stroke="none" stroke-width="0.5"><path d="M366.67567,172.08031c0.32354,0 0.58582,0.27029 0.58582,0.6037c0,0.33341 -0.26228,0.6037 -0.58582,0.6037c-0.32354,0 -0.58582,-0.27029 -0.58582,-0.6037c0,-0.33341 0.26228,-0.6037 0.58582,-0.6037z"/><path d="M367.1778,165.69828c0.32354,0 0.58582,0.27029 0.58582,0.6037c0,0.33341 -0.26228,0.6037 -0.58582,0.6037c-0.32354,0 -0.58582,-0.27029 -0.58582,-0.6037c0,-0.33341 0.26228,-0.6037 0.58582,-0.6037z"/><path d="M370.02319,167.76816c0.32354,0 0.58582,0.27029 0.58582,0.6037c0,0.33341 -0.26228,0.6037 -0.58582,0.6037c-0.32354,0 -0.58581,-0.27029 -0.58581,-0.6037c0,-0.33341 0.26227,-0.6037 0.58581,-0.6037z"/><path d="M376.71818,162.9385c0.32354,0 0.58582,0.27029 0.58582,0.6037c0,0.33341 -0.26228,0.6037 -0.58582,0.6037c-0.32354,0 -0.58582,-0.27029 -0.58582,-0.6037c0,-0.33341 0.26228,-0.6037 0.58582,-0.6037z"/><path d="M376.21603,168.80307c0.32354,0 0.58582,0.27029 0.58582,0.6037c0,0.33341 -0.26228,0.6037 -0.58582,0.6037c-0.32354,0 -0.58582,-0.27029 -0.58582,-0.6037c0,-0.33341 0.26228,-0.6037 0.58582,-0.6037z"/><path d="M373.03594,163.11098c0.32354,0 0.58582,0.27029 0.58582,0.6037c0,0.33341 -0.26228,0.6037 -0.58582,0.6037c-0.32354,0 -0.58582,-0.27029 -0.58582,-0.6037c0,-0.33341 0.26228,-0.6037 0.58582,-0.6037z"/><path d="M387.43027,169.49298c0.32354,0 0.58582,0.27029 0.58582,0.6037c0,0.33341 -0.26228,0.6037 -0.58582,0.6037c-0.32354,0 -0.58582,-0.27029 -0.58582,-0.6037c0,-0.33341 0.26228,-0.6037 0.58582,-0.6037z"/><path d="M379.39624,164.14591c0.32354,0 0.58582,0.27029 0.58582,0.6037c0,0.33341 -0.26228,0.6037 -0.58582,0.6037c-0.32354,0 -0.58582,-0.27029 -0.58582,-0.6037c0,-0.33341 0.26228,-0.6037 0.58582,-0.6037z"/><path d="M382.74374,172.42527c0.32354,0 0.58582,0.27029 0.58582,0.6037c0,0.33341 -0.26228,0.6037 -0.58582,0.6037c-0.32354,0 -0.58582,-0.27029 -0.58582,-0.6037c0,-0.33341 0.26228,-0.6037 0.58582,-0.6037z"/><path d="M383.58062,167.07822c0.32354,0 0.58582,0.27029 0.58582,0.6037c0,0.33341 -0.26228,0.6037 -0.58582,0.6037c-0.32354,0 -0.58582,-0.27029 -0.58582,-0.6037c0,-0.33341 0.26228,-0.6037 0.58582,-0.6037z"/><path d="M376.55081,173.46019c0.32354,0 0.58582,0.27029 0.58582,0.6037c0,0.33341 -0.26228,0.6037 -0.58582,0.6037c-0.32354,0 -0.58582,-0.27029 -0.58582,-0.6037c0,-0.33341 0.26228,-0.6037 0.58582,-0.6037z"/><path d="M380.06569,170.01044c0.32354,0 0.58582,0.27029 0.58582,0.6037c0,0.33341 -0.26228,0.6037 -0.58582,0.6037c-0.32354,0 -0.58582,-0.27029 -0.58582,-0.6037c0,-0.33341 0.26228,-0.6037 0.58582,-0.6037z"/><path d="M371.69692,171.21789c0.32354,0 0.58582,0.27029 0.58582,0.6037c0,0.33341 -0.26228,0.6037 -0.58582,0.6037c-0.32354,0 -0.58582,-0.27029 -0.58582,-0.6037c0,-0.33341 0.26228,-0.6037 0.58582,-0.6037z"/><path d="M383.24588,162.42104c0.32354,0 0.58582,0.27029 0.58582,0.6037c0,0.33341 -0.26228,0.6037 -0.58582,0.6037c-0.32354,0 -0.58582,-0.27029 -0.58582,-0.6037c0,-0.33341 0.26228,-0.6037 0.58582,-0.6037z"/><path d="M388.09976,173.97765c0.32354,0 0.58582,0.27029 0.58582,0.6037c0,0.33341 -0.26228,0.6037 -0.58582,0.6037c-0.32354,0 -0.58582,-0.27029 -0.58582,-0.6037c0,-0.33341 0.26228,-0.6037 0.58582,-0.6037z"/></g><path d="M389.5577,161.37798c0,0 0.5588,0.58291 0.81368,0.88876c5.20945,6.251 3.72408,16.28178 3.72408,16.28178h-16.21372z" data-paper-data="{&quot;index&quot;:null}" fill-opacity="0.10181" fill="#000000" stroke="none" stroke-width="0"/><path d="M373.93796,156.98773c0.48622,-0.05195 1.43074,-0.0077 1.43074,-0.0077l15.12795,21.05105h-29.84013c0,0 -2.8607,-19.31849 13.28145,-21.04335z" data-paper-data="{&quot;index&quot;:null}" fill-opacity="0.10181" fill="#000000" stroke="none" stroke-width="0"/><path d="M376.72471,157.05674c20.19273,0 17.62811,21.73328 17.62811,21.73328l-33.32436,-0.48296c0,0 -3.77203,-21.25032 15.69626,-21.25032z" data-paper-data="{&quot;index&quot;:null}" fill="none" stroke="#00021d" stroke-width="3.5"/><path d="M376.99237,204.81478c-19.46829,0 -13.87001,-11.33641 -13.87001,-11.33641l27.45428,0.29972c0,0 6.60845,11.0367 -13.58428,11.0367z" data-paper-data="{&quot;index&quot;:null}" fill="#cfa900" stroke="none" stroke-width="0"/><path d="M364.05485,193.36732l28.23696,-0.35251c0,0 4.28593,12.54082 -15.35247,12.90464c-0.08929,0.00165 -9.06069,-0.12858 -12.43496,-3.44035c-2.99894,-2.94339 -0.44953,-9.11178 -0.44953,-9.11178z" data-paper-data="{&quot;index&quot;:null}" fill="none" stroke="#00021d" stroke-width="3.5"/><path d="M366.7961,187.07288c0,0 -5.94845,-0.50038 -4.9347,-3.26283c0.59242,-1.61431 7.25689,-1.6859 7.25689,-1.6859l22.0629,1.28723c0,0 1.81397,1.63804 1.55893,2.6999c-0.25589,1.06537 -3.14391,2.01222 -3.14391,2.01222z" fill="#93331d" stroke="none" stroke-width="0"/><path d="M366.11656,187.39892c0,0 -5.11364,-0.96996 -4.09989,-3.73241c0.59242,-1.61431 7.25689,-1.6859 7.25689,-1.6859l22.0629,1.28723c0,0 1.81398,1.63804 1.55893,2.6999c-0.25589,1.06536 -3.03955,2.53397 -3.03955,2.53397c0,0 -7.24814,-1.04577 -11.14111,-1.04693c-4.04879,-0.0012 -12.59818,-0.05587 -12.59818,-0.05587z" fill="none" stroke="#00021d" stroke-width="1"/><path d="M380.25181,179.02675c0,0 -13.80368,1.3528 -15.28354,1.57884c-1.18443,0.18092 -3.53258,1.63024 -3.25186,1.63211c1.89552,0.01266 10.82336,-0.41628 18.26281,-0.25985c6.99217,0.14702 13.10475,1.01222 13.10475,1.01222c0,0 -2.99474,-1.58432 -4.7994,-2.14171c-2.33472,-0.7211 -8.03277,-1.82162 -8.03277,-1.82162z" fill="#cfc929" stroke="none" stroke-width="0"/><path d="M366.03289,181.95119c0,0 -3.60558,1.49412 -4.78981,0.14668c-0.65783,-0.74849 8.92704,-3.34594 18.86397,-3.18939c4.496,0.07083 14.08469,3.68873 14.00524,4.01951c-0.25589,1.06536 -11.79695,-0.97196 -15.68992,-0.97312c-4.04879,-0.0012 -12.38948,-0.00369 -12.38948,-0.00369z" fill="none" stroke="#00021d" stroke-width="1"/><path d="M386.25241,203.95226l-15.24396,1.29744c0,0 -16.80815,-9.42553 -0.666,-11.15039z" data-paper-data="{&quot;index&quot;:null}" fill-opacity="0.10181" fill="#000000" stroke="none" stroke-width="0"/><path d="M390.66817,194.02639c5.20945,6.251 -3.57401,10.76767 -3.57401,10.76767l-12.80795,0.16218c0,0 16.12707,-11.2357 16.38195,-10.92985z" data-paper-data="{&quot;index&quot;:null}" fill-opacity="0.10181" fill="#000000" stroke="none" stroke-width="0"/></g></g></svg>