<svg version="1.1" xmlns="http://www.w3.org/2000/svg" xmlns:xlink="http://www.w3.org/1999/xlink" width="43.97684" height="32.69364" viewBox="0,0,43.97684,32.69364"><g transform="translate(-358.14839,-173.90744)"><g data-paper-data="{&quot;isPaintingLayer&quot;:true}" fill-rule="nonzero" stroke-linecap="butt" stroke-linejoin="miter" stroke-miterlimit="10" stroke-dasharray="" stroke-dashoffset="0" style="mix-blend-mode: normal"><g><path d="M388.89435,178.16743c0,1.80045 -1.5136,3.25999 -3.38073,3.25999c-1.86712,0 -3.38073,-1.45955 -3.38073,-3.25999c0,-1.80045 1.51361,-3.25999 3.38073,-3.25999c1.86712,0 3.38073,1.45955 3.38073,3.25999z" fill="#7a1818" stroke="#00021d" stroke-width="2"/><path d="M378.78665,204.36811c-19.46829,0 -12.07404,-22.94069 -12.07404,-22.94069l33.32436,-0.48296c0,0 4.73795,23.42365 -21.25032,23.42365z" fill="#00021d" stroke="#00021d" stroke-width="3.5"/><path d="M364.05633,186.25703c0,0 -3.8673,-6.35497 -1.2074,-8.93479c1.55439,-1.50759 9.15413,2.05372 9.15413,2.05372c0,0 3.14036,-3.59402 6.26026,-3.44464c2.79605,0.13386 8.0042,3.51373 8.0042,3.51373c0,0 6.69199,-5.65379 9.18133,-2.84724c0.59974,0.67616 1.56104,5.10337 1.56104,5.10337c0,0 2.33437,2.04381 2.39885,4.40025c0.08336,3.04674 -3.07965,6.79347 -3.07965,6.79347c0,0 1.16261,2.84973 0.2929,3.91498c-0.87258,1.06876 -5.51979,2.48711 -5.51979,2.48711z" fill="#3ecf2a" stroke="none" stroke-width="0"/><path d="M398.5881,187.58519c0,1.80045 -1.5136,3.25999 -3.38073,3.25999c-1.86713,0 -3.38073,-1.45955 -3.38073,-3.25999c0,-1.80045 1.5136,-3.25999 3.38073,-3.25999c1.86713,0 3.38073,1.45955 3.38073,3.25999z" fill="#cf2929" stroke="#00021d" stroke-width="2"/><path d="M364.05633,186.42952c0,0 -3.8673,-6.35497 -1.2074,-8.93479c1.55439,-1.50759 9.15413,2.05372 9.15413,2.05372c0,0 3.14036,-3.59402 6.26026,-3.44464c2.79605,0.13386 8.0042,3.51373 8.0042,3.51373c0,0 6.69199,-5.65379 9.18133,-2.84724c0.59974,0.67616 1.56104,5.10337 1.56104,5.10337c0,0 2.33437,2.04381 2.39885,4.40025c0.08336,3.04674 -3.07965,6.79347 -3.07965,6.79347c0,0 1.16261,2.84973 0.2929,3.91498c-0.87258,1.06876 -5.51979,2.48711 -5.51979,2.48711z" fill="none" stroke="#00021d" stroke-width="2.5"/><path d="M379.67022,176.58785c0.4611,0.14116 1.42678,0.52498 1.42678,0.52498l4.99804,2.67721c0,0 6.69199,-5.65379 9.18133,-2.84724c0.59974,0.67616 1.56104,5.10337 1.56104,5.10337c0,0 2.33437,2.04381 2.39885,4.40025c0.08336,3.04674 -3.07965,6.79347 -3.07965,6.79347c0,0 1.16261,2.84973 0.2929,3.91498c-0.87258,1.06876 -5.51979,2.48711 -5.51979,2.48711c0,0 -11.83003,-23.22881 -11.25949,-23.05415z" fill-opacity="0.31452" fill="#000000" stroke="none" stroke-width="0"/><path d="M376.13039,205.09256c-19.46829,0 -15.69626,-21.25032 -15.69626,-21.25032l33.32436,-0.48296c0,0 2.56462,21.73328 -17.62811,21.73328z" fill="#cfa900" stroke="none" stroke-width="0"/><g fill="#6c5800" stroke="none" stroke-width="0.5"><path d="M365.25399,189.2238c0,-0.33341 0.26228,-0.6037 0.58582,-0.6037c0.32354,0 0.58582,0.27029 0.58582,0.6037c0,0.33341 -0.26228,0.6037 -0.58582,0.6037c-0.32354,0 -0.58582,-0.27029 -0.58582,-0.6037z"/><path d="M365.75612,195.60583c0,-0.33341 0.26228,-0.6037 0.58582,-0.6037c0.32354,0 0.58582,0.27029 0.58582,0.6037c0,0.33341 -0.26228,0.6037 -0.58582,0.6037c-0.32354,0 -0.58582,-0.27029 -0.58582,-0.6037z"/><path d="M368.60152,193.53595c0,-0.33341 0.26227,-0.6037 0.58581,-0.6037c0.32354,0 0.58582,0.27029 0.58582,0.6037c0,0.33341 -0.26228,0.6037 -0.58582,0.6037c-0.32354,0 -0.58581,-0.27029 -0.58581,-0.6037z"/><path d="M375.2965,198.36561c0,-0.33341 0.26228,-0.6037 0.58582,-0.6037c0.32354,0 0.58582,0.27029 0.58582,0.6037c0,0.33341 -0.26228,0.6037 -0.58582,0.6037c-0.32354,0 -0.58582,-0.27029 -0.58582,-0.6037z"/><path d="M374.79435,192.50104c0,-0.33341 0.26228,-0.6037 0.58582,-0.6037c0.32354,0 0.58582,0.27029 0.58582,0.6037c0,0.33341 -0.26228,0.6037 -0.58582,0.6037c-0.32354,0 -0.58582,-0.27029 -0.58582,-0.6037z"/><path d="M371.61426,198.19313c0,-0.33341 0.26228,-0.6037 0.58582,-0.6037c0.32354,0 0.58582,0.27029 0.58582,0.6037c0,0.33341 -0.26228,0.6037 -0.58582,0.6037c-0.32354,0 -0.58582,-0.27029 -0.58582,-0.6037z"/><path d="M386.00859,191.81113c0,-0.33341 0.26228,-0.6037 0.58582,-0.6037c0.32354,0 0.58582,0.27029 0.58582,0.6037c0,0.33341 -0.26228,0.6037 -0.58582,0.6037c-0.32354,0 -0.58582,-0.27029 -0.58582,-0.6037z"/><path d="M377.97456,197.1582c0,-0.33341 0.26228,-0.6037 0.58582,-0.6037c0.32354,0 0.58582,0.27029 0.58582,0.6037c0,0.33341 -0.26228,0.6037 -0.58582,0.6037c-0.32354,0 -0.58582,-0.27029 -0.58582,-0.6037z"/><path d="M381.32206,188.87884c0,-0.33341 0.26228,-0.6037 0.58582,-0.6037c0.32354,0 0.58582,0.27029 0.58582,0.6037c0,0.33341 -0.26228,0.6037 -0.58582,0.6037c-0.32354,0 -0.58582,-0.27029 -0.58582,-0.6037z"/><path d="M382.15894,194.22589c0,-0.33341 0.26228,-0.6037 0.58582,-0.6037c0.32354,0 0.58582,0.27029 0.58582,0.6037c0,0.33341 -0.26228,0.6037 -0.58582,0.6037c-0.32354,0 -0.58582,-0.27029 -0.58582,-0.6037z"/><path d="M375.12913,187.84392c0,-0.33341 0.26228,-0.6037 0.58582,-0.6037c0.32354,0 0.58582,0.27029 0.58582,0.6037c0,0.33341 -0.26228,0.6037 -0.58582,0.6037c-0.32354,0 -0.58582,-0.27029 -0.58582,-0.6037z"/><path d="M378.64401,191.29367c0,-0.33341 0.26228,-0.6037 0.58582,-0.6037c0.32354,0 0.58582,0.27029 0.58582,0.6037c0,0.33341 -0.26228,0.6037 -0.58582,0.6037c-0.32354,0 -0.58582,-0.27029 -0.58582,-0.6037z"/><path d="M370.27524,190.08622c0,-0.33341 0.26228,-0.6037 0.58582,-0.6037c0.32354,0 0.58582,0.27029 0.58582,0.6037c0,0.33341 -0.26228,0.6037 -0.58582,0.6037c-0.32354,0 -0.58582,-0.27029 -0.58582,-0.6037z"/><path d="M381.8242,198.88307c0,-0.33341 0.26228,-0.6037 0.58582,-0.6037c0.32354,0 0.58582,0.27029 0.58582,0.6037c0,0.33341 -0.26228,0.6037 -0.58582,0.6037c-0.32354,0 -0.58582,-0.27029 -0.58582,-0.6037z"/><path d="M386.67808,187.32646c0,-0.33341 0.26228,-0.6037 0.58582,-0.6037c0.32354,0 0.58582,0.27029 0.58582,0.6037c0,0.33341 -0.26228,0.6037 -0.58582,0.6037c-0.32354,0 -0.58582,-0.27029 -0.58582,-0.6037z"/></g><path d="M377.04588,183.35929h16.21372c0,0 1.48537,10.03078 -3.72408,16.28178c-0.25488,0.30585 -0.81368,0.88876 -0.81368,0.88876z" data-paper-data="{&quot;index&quot;:null}" fill-opacity="0.10181" fill="#000000" stroke="none" stroke-width="0"/><path d="M373.10211,204.92008c-16.14215,-1.72486 -13.28145,-21.04335 -13.28145,-21.04335h29.84013l-15.12795,21.05105c0,0 -0.94452,0.04425 -1.43074,-0.0077z" fill-opacity="0.10181" fill="#000000" stroke="none" stroke-width="0"/><path d="M375.88886,204.85107c-19.46829,0 -15.69626,-21.25032 -15.69626,-21.25032l33.32436,-0.48296c0,0 2.56462,21.73328 -17.62811,21.73328z" fill="none" stroke="#00021d" stroke-width="3.5"/><path d="M373.92255,182.75559c0,1.80045 -1.5136,3.25999 -3.38073,3.25999c-1.86713,0 -3.38073,-1.45955 -3.38073,-3.25999c0,-1.80045 1.5136,-3.25999 3.38073,-3.25999c1.86713,0 3.38073,1.45955 3.38073,3.25999z" fill="#cf2929" stroke="#00021d" stroke-width="2"/></g></g></g></svg>