<svg version="1.1" xmlns="http://www.w3.org/2000/svg" xmlns:xlink="http://www.w3.org/1999/xlink" width="147.01713" height="105.77548" viewBox="0,0,147.01713,105.77548"><g transform="translate(-158.24505,-156.20887)"><g data-paper-data="{&quot;isPaintingLayer&quot;:true}" fill-rule="nonzero" stroke-linejoin="miter" stroke-miterlimit="10" stroke-dasharray="" stroke-dashoffset="0" style="mix-blend-mode: normal"><g stroke-linecap="butt"><g data-paper-data="{&quot;index&quot;:null}"><g data-paper-data="{&quot;index&quot;:null}"><path d="M165.40915,209.30374l15.48859,-32.31566c0,0 2.36425,-4.0225 5.52032,-3.43868c2.36589,0.43765 2.24812,4.67803 2.24812,4.67803l-4.85091,34.97178z" fill="#5c2a2a" stroke="none" stroke-width="0"/><path d="M165.58058,208.69092l15.68147,-31.12528c0,0 1.53153,-4.48194 4.91215,-3.53871c3.76754,1.0512 2.2235,4.68017 2.2235,4.68017l-12.06689,33.47084z" fill-opacity="0.08443" fill="#ffffff" stroke="none" stroke-width="0"/><path d="M165.19785,209.50164l15.14363,-32.03477c0,0 2.30196,-4.38225 5.8743,-3.653c3.56961,0.72869 3.01646,5.10814 3.01646,5.10814l-5.62766,34.47184z" fill="none" stroke="#00021d" stroke-width="3.5"/><path d="M165.4109,209.0438l14.72645,-31.45434c0,0 2.83407,-4.4331 5.7959,-3.86961c3.54852,0.67509 3.27681,5.52893 3.27681,5.52893l-5.78468,33.81z" fill="#71521d" stroke="none" stroke-width="0"/></g><g data-paper-data="{&quot;index&quot;:null}"><g><path d="M213.38659,196.72897c0,0 3.45551,2.77849 2.11163,5.0285c-1.00743,1.68668 -5.23789,0.58465 -5.23789,0.58465l-24.3153,-16.87429c1.07016,-2.1199 1.3935,-4.62649 0.72833,-7.10021c-0.11106,-0.41306 -0.24644,-0.8131 -0.40418,-1.19896c0.009,-0.37573 -0.00317,-0.75113 -0.03617,-1.12433c0.62714,-0.87251 1.12711,-1.54424 1.32981,-1.76152z" fill="#71521d" stroke="none" stroke-width="0"/><path d="" fill-opacity="0.08443" fill="#ffffff" stroke="none" stroke-width="0"/><path d="M212.55458,197.13688c0,0 4.04338,2.37847 2.31175,4.66802c-0.0032,-0.09922 -1.032,0.13815 -1.032,0.13815l-27.073,-23.22341c-0.02712,-0.11739 -0.05643,-0.23475 -0.08798,-0.35204c-0.11106,-0.41306 -0.24644,-0.81309 -0.40417,-1.19894c0.00974,-0.40665 -0.00532,-0.8129 -0.04476,-1.21641c0.4843,-0.64015 1.03222,-1.34017 1.39685,-1.73221z" fill="#71521d" stroke="none" stroke-width="0"/><path d="M187.54024,174.16347l25.30735,22.15267c0,0 3.64602,3.12236 2.06199,5.64315c-1.58282,2.51889 -4.93066,-0.06844 -4.93066,-0.06844l-23.9684,-16.555" fill="none" stroke="#00021d" stroke-width="3.5"/></g><path d="M186.93166,174.79646l25.37982,22.30832c0,0 3.08029,2.22026 1.49626,4.74107c-0.7407,1.13609 -3.43963,-0.77728 -3.43963,-0.77728l-24.00791,-16.53938" fill="none" stroke="#71521d" stroke-width="1.75"/></g><g><path d="M160.17057,221.2963l1.99264,-10.95255l12.70997,-1.32404l10.59529,5.87782l-2.20781,10.85634l-13.5821,2.00847z" fill="#835c5c" stroke="#00021d" stroke-width="3.5"/><path d="M162.84859,220.43187l10.41214,-0.76638l7.36134,4.32429l-10.17422,1.38914z" fill="#774d4d" stroke="#774d4d" stroke-width="1.5"/><path d="M160.1706,221.29636l1.99264,-10.95254l12.70998,-1.32404l10.59528,5.87782l-2.20781,10.85635l-13.5821,2.00848z" fill="none" stroke="#00021d" stroke-width="3.5"/><path d="M160.23009,221.45201l1.99264,-10.95255l12.70998,-1.32404l10.59528,5.87783l-2.20782,10.85635l-13.58209,2.00846z" fill="#71521d" stroke="none" stroke-width="0"/></g></g><path d="M169.93561,224.01304c1.8474,-0.56888 3.79939,0.44551 4.35993,2.26573c0.56053,1.82022 -0.48266,3.75698 -2.33006,4.32588c-1.8474,0.56888 -3.79939,-0.4455 -4.35992,-2.26573c-0.56053,-1.82021 0.48265,-3.75698 2.33005,-4.32587z" data-paper-data="{&quot;index&quot;:null}" fill="#00021d" stroke="#00021d" stroke-width="12"/></g><g stroke-linecap="butt"><g data-paper-data="{&quot;index&quot;:null}"><g data-paper-data="{&quot;index&quot;:null}"><path d="M279.69196,215.94215l-4.85091,-34.97178c0,0 -0.11778,-4.24039 2.24811,-4.67803c3.15607,-0.58382 5.52033,3.43867 5.52033,3.43867l15.48859,32.31566z" fill="#5c2a2a" stroke="none" stroke-width="0"/><path d="M287.17643,214.92088l-12.06689,-33.47084c0,0 -1.54404,-3.62897 2.2235,-4.68016c3.38061,-0.94323 4.91215,3.53871 4.91215,3.53871l15.68147,31.12528z" fill-opacity="0.08443" fill="#ffffff" stroke="none" stroke-width="0"/><path d="M279.90265,216.13679l-5.62766,-34.47184c0,0 -0.55315,-4.37945 3.01646,-5.10814c3.57234,-0.72925 5.8743,3.653 5.8743,3.653l15.14363,32.03477z" fill="none" stroke="#00021d" stroke-width="3.5"/><path d="M280.08185,215.80171l-5.78468,-33.80999c0,0 -0.2717,-4.85384 3.27681,-5.52893c2.96182,-0.56348 5.7959,3.86961 5.7959,3.86961l14.72644,31.45434z" fill="#71521d" stroke="none" stroke-width="0"/></g><g data-paper-data="{&quot;index&quot;:null}"><g><path d="M275.9444,177.02575c0.2027,0.21728 0.70267,0.88902 1.32981,1.76153c-0.033,0.3732 -0.04517,0.74859 -0.03617,1.12432c-0.15774,0.38586 -0.29311,0.7859 -0.40418,1.19896c-0.66517,2.47372 -0.34184,4.98031 0.72832,7.10021l-24.31529,16.87429c0,0 -4.23046,1.10202 -5.2379,-0.58465c-1.34387,-2.25001 2.11164,-5.0285 2.11164,-5.0285z" fill="#71521d" stroke="none" stroke-width="0"/><path d="" fill-opacity="0.08443" fill="#ffffff" stroke="none" stroke-width="0"/><path d="M275.88596,176.96298c0.36462,0.39204 0.91254,1.09206 1.39684,1.73221c-0.03943,0.40351 -0.05449,0.80976 -0.04476,1.21641c-0.15773,0.38585 -0.2931,0.78589 -0.40416,1.19894c-0.03154,0.11729 -0.06086,0.23465 -0.08798,0.35204l-27.073,23.2234c0,0 -1.02881,-0.23737 -1.032,-0.13815c-1.73163,-2.28956 2.31175,-4.66802 2.31175,-4.66802z" fill="#71521d" stroke="none" stroke-width="0"/><path d="M277.49672,188.07877l-23.9684,16.555c0,0 -3.34785,2.58733 -4.93066,0.06844c-1.58403,-2.52079 2.06199,-5.64315 2.06199,-5.64315l25.30735,-22.15267" fill="none" stroke="#00021d" stroke-width="3.5"/></g><path d="M277.14702,187.27214l-24.00791,16.53938c0,0 -2.69892,1.91336 -3.43962,0.77728c-1.58403,-2.52081 1.49626,-4.74108 1.49626,-4.74108l25.37983,-22.30832" fill="none" stroke="#71521d" stroke-width="1.75"/></g><g><path d="M293.82867,230.50528l-13.5821,-2.00847l-2.2078,-10.85634l10.59528,-5.87782l12.70997,1.32404l1.99264,10.95254z" fill="#835c5c" stroke="#00021d" stroke-width="3.5"/><path d="M293.05937,228.12186l-10.17422,-1.38914l7.36134,-4.32429l10.41214,0.76638z" fill="#774d4d" stroke="#774d4d" stroke-width="1.5"/><path d="M293.82864,230.50535l-13.5821,-2.00847l-2.20781,-10.85635l10.59529,-5.87782l12.70997,1.32404l1.99264,10.95255z" fill="none" stroke="#00021d" stroke-width="3.5"/><path d="M293.76914,230.66099l-13.58209,-2.00846l-2.20781,-10.85635l10.59528,-5.87783l12.70997,1.32404l1.99264,10.95255z" fill="#71521d" stroke="none" stroke-width="0"/></g></g><path d="M293.57163,226.75599c1.8474,0.56889 2.89058,2.50566 2.33005,4.32587c-0.56054,1.82022 -2.51252,2.83461 -4.35992,2.26573c-1.8474,-0.56889 -2.8906,-2.50566 -2.33006,-4.32588c0.56054,-1.82022 2.51252,-2.83461 4.35992,-2.26573z" fill="#00021d" stroke="#00021d" stroke-width="12"/></g><g stroke-linecap="butt"><g data-paper-data="{&quot;index&quot;:null}"><g data-paper-data="{&quot;index&quot;:null}"><path d="M256.91041,234.4762l18.09139,-30.31928c0,0 2.56061,-3.38201 4.68024,-2.24351c2.82756,1.51874 2.15593,6.13599 2.15593,6.13599l-8.1304,34.90121z" fill="#5c2a2a" stroke="none" stroke-width="0"/><path d="M263.38861,238.3612l11.52261,-33.66209c0,0 1.06539,-3.79717 4.66236,-2.26058c3.22757,1.37878 1.61885,5.83361 1.61885,5.83361l-7.23529,34.09314z" fill-opacity="0.08443" fill="#ffffff" stroke="none" stroke-width="0"/><path d="M256.95304,234.75986l17.17264,-30.41511c0,0 2.30793,-3.76284 5.54874,-2.09845c3.24329,1.66566 2.29803,6.52463 2.29803,6.52463l-8.22382,34.46629z" fill="none" stroke="#00021d" stroke-width="3.5"/><path d="M257.30246,234.61053l16.63612,-29.99697c0,0 2.82426,-3.9569 6.01509,-2.26389c2.66328,1.41309 2.10137,6.64459 2.10137,6.64459l-8.18624,33.75247z" fill="#71521d" stroke="none" stroke-width="0"/></g><g data-paper-data="{&quot;index&quot;:null}"><g><path d="M278.33012,201.76953c0.02224,0.29632 -0.00789,1.13315 -0.06438,2.20618c-0.25919,0.27052 -0.50351,0.55579 -0.73152,0.85457c-0.36444,0.20238 -0.72029,0.42981 -1.06533,0.6826c-2.06636,1.5139 -3.38206,3.6718 -3.87319,5.99515l-29.52616,-2.04478c0,0 -3.98995,-1.7865 -3.72088,-3.73262c0.35897,-2.59609 4.79299,-2.60232 4.79299,-2.60232z" fill="#71521d" stroke="none" stroke-width="0"/><path d="" fill-opacity="0.08443" fill="#ffffff" stroke="none" stroke-width="0"/><path d="M278.32379,201.684c0.03924,0.53396 0.02884,1.42285 0.00626,2.22525c-0.28317,0.29015 -0.54904,0.59769 -0.79582,0.92104c-0.36442,0.20237 -0.72027,0.4298 -1.06531,0.68259c-0.09798,0.07178 -0.19425,0.145 -0.28884,0.21963l-35.64931,1.18373c0,0 -0.65419,-0.82875 -0.71875,-0.75334c0.08119,-2.8695 4.72363,-2.19589 4.72363,-2.19589z" fill="#71521d" stroke="none" stroke-width="0"/><path d="M272.62719,211.36409l-29.05579,-2.0769c0,0 -4.23045,-0.07556 -3.8897,-3.0309c0.34098,-2.95758 5.13874,-3.11292 5.13874,-3.11292l33.60196,-1.45282" fill="none" stroke="#00021d" stroke-width="3.5"/></g><path d="M272.85893,210.51602l-29.07684,-2.11381c0,0 -3.30257,-0.19547 -3.1698,-1.54518c0.341,-2.95759 4.13308,-2.76301 4.13308,-2.76301l33.75588,-1.52893" fill="none" stroke="#71521d" stroke-width="1.75"/></g><g><path d="M258.83009,254.68131l-9.34034,-10.06307l5.06849,-9.85114l11.94318,2.04185l9.08805,8.98354l-5.29654,9.7916z" fill="#835c5c" stroke="#00021d" stroke-width="3.5"/><path d="M259.7208,252.34055l-7.06894,-7.44812l8.44828,1.23098l7.64412,7.11108z" fill="#774d4d" stroke="#774d4d" stroke-width="1.5"/><path d="M258.83002,254.68135l-9.34034,-10.06307l5.06849,-9.85115l11.94318,2.04185l9.08805,8.98354l-5.29654,9.7916z" fill="none" stroke="#00021d" stroke-width="3.5"/><path d="M258.68626,254.76556l-9.34035,-10.06305l5.06849,-9.85115l11.94319,2.04185l9.08805,8.98354l-5.29654,9.79161z" fill="#71521d" stroke="none" stroke-width="0"/></g></g><path d="M260.97486,251.59534c1.08547,1.59946 0.68784,3.76307 -0.88808,4.83256c-1.57594,1.0695 -3.73341,0.63989 -4.81888,-0.95957c-1.08547,-1.59946 -0.68785,-3.76308 0.88808,-4.83257c1.57594,-1.06949 3.73341,-0.63989 4.81889,0.95957z" fill="#00021d" stroke="#00021d" stroke-width="12"/></g><g stroke-linecap="butt"><g data-paper-data="{&quot;index&quot;:null}"><g data-paper-data="{&quot;index&quot;:null}"><path d="M190.0394,242.84761l-6.94035,-35.15721c0,0 -0.51442,-4.63741 2.36309,-6.05924c2.15707,-1.06585 4.60135,2.40117 4.60135,2.40117l17.0512,30.91623z" fill="#5c2a2a" stroke="none" stroke-width="0"/><path d="M189.80984,242.25412l-6.07321,-34.31921c0,0 -1.45648,-4.50688 1.81606,-5.77525c3.64709,-1.41353 4.5829,2.41762 4.5829,2.41762l10.37268,34.03403z" fill-opacity="0.08443" fill="#ffffff" stroke="none" stroke-width="0"/><path d="M189.98863,243.13264l-7.0485,-34.72571c0,0 -0.77969,-4.88828 2.5183,-6.44282c3.29548,-1.55336 5.47427,2.2857 5.47427,2.2857l16.12973,30.98081z" fill="none" stroke="#00021d" stroke-width="3.5"/><path d="M189.88518,242.63836l-7.03517,-34.01103c0,0 -0.38391,-5.24757 2.32583,-6.56939c3.2465,-1.58367 5.93474,2.46688 5.93474,2.46688l15.60772,30.54468z" fill="#71521d" stroke="none" stroke-width="0"/></g><g data-paper-data="{&quot;index&quot;:null}"><g><path d="M220.94074,204.05242c0,0 4.43126,0.15682 4.70185,2.76361c0.20282,1.95414 -3.84549,3.6041 -3.84549,3.6041l-29.57857,1.0408c-0.41194,-2.3387 -1.65359,-4.54003 -3.66734,-6.12324c-0.33625,-0.26436 -0.68418,-0.50375 -1.04153,-0.71839c-0.21774,-0.30635 -0.45221,-0.59974 -0.70208,-0.87892c-0.02002,-1.07432 -0.0217,-1.9117 0.01058,-2.20709z" fill="#71521d" stroke="none" stroke-width="0"/><path d="" fill-opacity="0.08443" fill="#ffffff" stroke="none" stroke-width="0"/><path d="M220.51851,204.87726c0,0 4.66264,-0.51554 4.64632,2.35506c-0.06196,-0.07756 -0.74392,0.7285 -0.74392,0.7285l-35.58853,-2.39382c-0.092,-0.07779 -0.18574,-0.15425 -0.28122,-0.22931c-0.33625,-0.26436 -0.68417,-0.50373 -1.04151,-0.71837c-0.23566,-0.33155 -0.49093,-0.64795 -0.76408,-0.94755c0.00467,-0.80269 0.02447,-1.69143 0.08183,-2.22374z" fill="#71521d" stroke="none" stroke-width="0"/><path d="M186.72861,201.45121l33.53323,2.59322c0,0 4.78972,0.3182 5.03005,3.28565c0.24017,2.9652 -3.9904,2.89704 -3.9904,2.89704l-29.10957,1.08886" fill="none" stroke="#00021d" stroke-width="3.5"/></g><path d="M186.6201,202.32258l33.68447,2.67451c0,0 3.7965,-0.06568 4.03686,2.90179c0.08685,1.35343 -3.22045,1.43663 -3.22045,1.43663l-29.13185,1.12503" fill="none" stroke="#71521d" stroke-width="1.75"/></g><g><path d="M193.02299,255.58977l-4.96094,-9.96585l9.38792,-8.66969l12.00564,-1.63505l4.73099,10.0176l-9.67673,9.74004z" fill="#835c5c" stroke="#00021d" stroke-width="3.5"/><path d="M194.65055,253.2941l7.88123,-6.84735l8.48522,-0.94333l-7.31782,7.20374z" fill="#774d4d" stroke="#774d4d" stroke-width="1.5"/><path d="M193.02305,255.5898l-4.96094,-9.96584l9.38792,-8.6697l12.00564,-1.63504l4.73099,10.0176l-9.67672,9.74004z" fill="none" stroke="#00021d" stroke-width="3.5"/><path d="M193.16388,255.67886l-4.96094,-9.96585l9.38792,-8.66969l12.00564,-1.63504l4.73098,10.01761l-9.67673,9.74002z" fill="#71521d" stroke="none" stroke-width="0"/></g></g><path d="M202.47115,251.91977c1.13917,-1.56167 3.30999,-1.91775 4.8487,-0.79535c1.5387,1.1224 1.86261,3.29827 0.72344,4.85994c-1.13917,1.56167 -3.30999,1.91775 -4.84869,0.79535c-1.53869,-1.1224 -1.86261,-3.29826 -0.72344,-4.85993z" data-paper-data="{&quot;index&quot;:null}" fill="#00021d" stroke="#00021d" stroke-width="12"/></g><path d="M205.69956,182.95993c0,-14.29037 0,14.29037 0,0z" fill="#fff1bf" stroke="none" stroke-width="0" stroke-linecap="butt"/><path d="M206.67203,183.93385c0,-14.29037 11.58463,-25.875 25.875,-25.875c9.33832,0 15.52123,3.6969 20.07111,11.11307c2.41277,3.93275 5.80389,9.80988 5.80389,14.76193c0,14.29037 -11.58463,25.875 -25.875,25.875c-14.29037,0 -25.875,-11.58463 -25.875,-25.875z" fill="#fff1bf" stroke="none" stroke-width="0" stroke-linecap="butt"/><path d="M206.67203,183.83388c0,-14.29037 11.58463,-25.875 25.875,-25.875c8.98375,0 25.875,8.00882 25.875,25.875c0,14.29037 -11.58463,25.875 -25.875,25.875c-14.29037,0 -25.875,-11.58463 -25.875,-25.875z" fill="#71521d" stroke="#00021d" stroke-width="3.5" stroke-linecap="butt"/><path d="M212.50932,183.6706c0,-10.89928 8.83561,-19.73489 19.73489,-19.73489c6.85192,0 19.73489,6.10834 19.73489,19.73489c0,10.89928 -8.83561,19.73489 -19.73489,19.73489c-10.89928,0 -19.73489,-8.83561 -19.73489,-19.73489z" fill="#ae7f2d" stroke="#00021d" stroke-width="3.5" stroke-linecap="butt"/><path d="M228.14584,197.70624l7.92714,0.04636" fill="none" stroke="#161830" stroke-width="2.5" stroke-linecap="round"/><path d="M225.27396,187.49271v-9.78572" fill="none" stroke="#161830" stroke-width="3.5" stroke-linecap="round"/><path d="M239.55971,178.13557v9.78571" fill="none" stroke="#161830" stroke-width="3.5" stroke-linecap="round"/><path d="M230.30971,176.97288l-1,3l-9.5,-5.25" fill="none" stroke="#161830" stroke-width="3.5" stroke-linecap="round"/><path d="M235.30971,179.72288l9.5,-5.25" data-paper-data="{&quot;index&quot;:null}" fill="none" stroke="#161830" stroke-width="3.5" stroke-linecap="round"/></g></g></svg>