<svg version="1.1" xmlns="http://www.w3.org/2000/svg" xmlns:xlink="http://www.w3.org/1999/xlink" width="142.84784" height="215.91628" viewBox="0,0,142.84784,215.91628"><g transform="translate(-308.60163,-79.97354)"><g data-paper-data="{&quot;isPaintingLayer&quot;:true}" fill-rule="nonzero" stroke-linejoin="miter" stroke-miterlimit="10" stroke-dasharray="" stroke-dashoffset="0" style="mix-blend-mode: normal"><g><g data-paper-data="{&quot;index&quot;:null}"><path d="M438.7666,96.44066c1.23397,-1.48789 3.42272,-1.70846 4.88873,-0.49265c1.46602,1.21581 1.65414,3.40759 0.42019,4.89549c-1.23397,1.48789 -3.42272,1.70847 -4.88873,0.49265c0,0 -1.65415,-3.4076 -0.42019,-4.89549z" fill="#00021d" stroke="#fff1bf" stroke-width="12" stroke-linecap="butt"/><g><path d="M443.13269,96.73307l6.27736,10.64339l-5.76072,7.33171l-2.90364,-0.01762l-23.92326,25.96603c0,0 -3.19962,2.78517 -5.0408,1.23629c-2.4561,-2.06619 -0.8521,-6.44768 -0.8521,-6.44768l15.11333,-32.49286l-1.04305,-3.51629l6.16293,-6.28637z" fill="#5c2a2a" stroke="none" stroke-width="0" stroke-linecap="butt"/><path d="M442.78146,97.05774l6.62037,10.33639l-24.24148,-7.1127l5.89923,-6.79994z" fill-opacity="0.08443" fill="#ffffff" stroke="none" stroke-width="0" stroke-linecap="butt"/><path d="M443.40078,96.96617l-26.37852,43.17831c0,0 -1.82126,3.49807 -5.0268,1.25665c-2.87633,-2.01122 -0.38842,-6.04159 -0.38842,-6.04159l14.07153,-31.88547l-0.63285,-4.81973l5.87009,-5.32906z" fill-opacity="0.08443" fill="#ffffff" stroke="none" stroke-width="0" stroke-linecap="butt"/><path d="M443.05519,96.56l6.30295,10.61249l-5.43179,7.51329l-3.16428,-0.28155l-23.04369,26.24816c0,0 -3.03037,3.20972 -5.8611,0.91624c-2.83288,-2.29522 -0.9115,-6.85718 -0.9115,-6.85718l15.11559,-32.04802l-1.33531,-3.16389l6.38903,-6.559z" fill="none" stroke="#00021d" stroke-width="3.5" stroke-linecap="butt"/><path d="M425.3653,102.51319l9.97145,4.18192l5.78499,8.25198" fill="none" stroke="#00021d" stroke-width="1.5" stroke-linecap="round"/><path d="M443.56544,96.61089l6.04774,10.23682l-5.45989,7.41731l-3.76381,0.21364l-22.43282,25.94891c0,0 -3.57551,3.29382 -6.35147,0.98257c-2.31698,-1.9291 -0.69443,-6.93426 -0.69443,-6.93426l14.93246,-31.35707l-0.61787,-3.89789l5.85512,-6.2509z" fill="#fcaff0" stroke="none" stroke-width="0" stroke-linecap="butt"/></g><g stroke-linecap="butt"><g><path d="M412.6679,131.23798c0.99915,0.53124 8.21859,5.8913 8.21859,5.8913l-20.55128,28.02632c0,0 -3.64171,2.41852 -5.14311,1.15142c-2.00285,-1.6903 0.3606,-5.44195 0.3606,-5.44195z" fill="#fcaff0" stroke="none" stroke-width="0"/><path d="" fill-opacity="0.08443" fill="#ffffff" stroke="none" stroke-width="0"/><path d="M412.59219,131.19764c1.02332,0.5461 3.33038,2.1791 3.33038,2.1791l-19.09675,32.56438c0,0 -1.05007,0.11029 -1.02079,0.20515c-2.38235,-1.60156 0.66711,-5.16619 0.66711,-5.16619z" fill="#fcaff0" stroke="none" stroke-width="0"/><path d="M421.11246,136.59598l-20.65794,28.04133c0,0 -2.32382,3.53583 -4.6401,1.66902c-2.31802,-1.86823 0.11365,-6.00698 0.11365,-6.00698l16.72241,-29.18159" fill="none" stroke="#00021d" stroke-width="3.5"/></g><path d="M420.45268,136.0488l-20.6338,27.9376c0,0 -1.92953,2.68741 -2.99956,1.85414c-2.31803,-1.86824 -0.12777,-4.96993 -0.12777,-4.96993l16.74028,-29.35234" fill="none" stroke="#fcaff0" stroke-width="1.75"/></g></g><path d="M424.75975,102.20296l11.24731,4.53437" fill="none" stroke="#000000" stroke-width="1.5" stroke-linecap="round"/></g><path d="M397.46816,286.00878l-3.27155,-0.17628l-0.04233,-52.56233" fill="none" stroke="#00021d" stroke-width="12" stroke-linecap="round"/><g stroke-linecap="butt"><path d="M387.98454,161.90929c-0.15312,8.65181 -6.05156,15.52984 -13.17456,15.36252c-7.123,-0.16733 -12.7732,-7.31664 -12.62008,-15.96846c0.03103,-1.75333 0.33187,-3.026 0.85118,-3.93946c0.30706,-0.54012 0.93975,-1.27335 0.93975,-1.27335l21.91787,-0.02303c0,0 0.99495,0.69791 1.33422,1.31698c0.52544,0.95877 0.7893,2.39559 0.75162,4.52479z" fill="#3c2222" stroke="none" stroke-width="0"/><path d="M373.52842,177.13845c-5.76711,-0.5006 -9.85714,-9.28571 -9.85714,-9.28571l21.28571,1.57143c0,0 -3.22691,8.4262 -11.42857,7.71428z" fill-opacity="0.08443" fill="#ffffff" stroke="none" stroke-width="0"/><path d="M370.24269,176.13845l6.14286,-20l10.71428,0.28571c0,0 0.82593,9.90201 -2.57143,14.57143c-5.89564,8.10314 -14.28572,5.14286 -14.28572,5.14286z" fill-opacity="0.08443" fill="#ffffff" stroke="none" stroke-width="0"/><path d="M387.84164,161.76639c-0.15311,8.65181 -6.05156,15.52985 -13.17455,15.36252c-7.123,-0.16733 -12.7732,-7.31665 -12.62008,-15.96846c0.03103,-1.75332 0.33187,-3.026 0.85118,-3.93946c0.30706,-0.54011 0.93974,-1.27334 0.93974,-1.27334l21.91788,-0.02303c0,0 0.99495,0.69791 1.33422,1.31698c0.52544,0.95876 0.7893,2.39558 0.75162,4.52479z" fill="none" stroke="#00021d" stroke-width="3.5"/><path d="M375.5064,176.99563c-9.74878,-0.17107 -13.26096,-8.31498 -13.46821,-14.39323c-0.12766,-3.74398 1.85649,-6.61844 1.85649,-6.61844h21.84107c0,0 2.31457,3.09367 1.87335,7.34868c-0.62338,6.01169 -4.81991,13.79078 -12.10271,13.66299z" fill="#fcaff0" stroke="none" stroke-width="0"/></g><path d="M380.06863,151.23478v-3.1h6.9v3.1z" fill="#b1a785" stroke="#00021d" stroke-width="1.5" stroke-linecap="butt"/><path d="M374.98992,289.88982l-4.02673,-0.96843l2.24986,-56.21831" fill="none" stroke="#00021d" stroke-width="12" stroke-linecap="round"/><path d="M377.11501,154.80972l-2.35196,-1.64182l0.97141,-1.16246l-0.69556,-1.09336l2.07611,-0.5587h13.24523l1.94056,0.56943l-1.15023,1.0814l1.19027,1.16369l-1.98059,1.64182z" fill="#fcaff0" stroke="none" stroke-width="0" stroke-linecap="butt"/><g stroke-linecap="butt"><path d="M357.7937,121.90503c0,-14.29037 11.58463,-25.875 25.875,-25.875c14.29037,0 25.875,11.58463 25.875,25.875c0,14.29037 -11.58463,25.875 -25.875,25.875c-14.29037,0 -25.875,-11.58463 -25.875,-25.875z" fill="#fff1bf" stroke="none" stroke-width="0"/><path d="M358.26155,128.7348c0,0 -4.68232,-32.65417 27.28572,-32.42857c14.87492,0.10498 23.02602,14.8374 23.8695,24.25904c0.51139,5.71218 -1.29807,7.74097 -1.29807,7.74097l0.14285,1.57143c0,0 -1.82509,2.21435 -10.1223,-0.21313c-6.22603,-1.82152 -15.08335,-9.8676 -23.44518,-9.81699c-10.28352,0.06224 -16.43252,8.88726 -16.43252,8.88726z" fill-opacity="0.28957" fill="#000000" stroke="none" stroke-width="0"/><path d="M357.7937,121.80502c0,-14.29037 11.58463,-25.875 25.875,-25.875c14.29037,0 25.875,11.58463 25.875,25.875c0,14.29037 -11.58463,25.875 -25.875,25.875c-14.29037,0 -25.875,-11.58463 -25.875,-25.875z" fill="none" stroke="#00021d" stroke-width="3.5"/></g><g><path d="M394.35382,225.00914l-10.49814,3.11839l-8.72956,-2.81602" fill="none" stroke="#00021d" stroke-width="12" stroke-linecap="round"/><path d="M366.24287,223.57075l-0.05175,-9.53l1.75737,-6.46318l1.06503,-52.61219l29.1552,0.16667l2.1872,52.9638l3.44603,5.67413v10.83243l-20.03008,6.18996z" fill="#5c2a2a" stroke="none" stroke-width="0" stroke-linecap="butt"/><path d="M382.58205,157.35467l1.69581,6.78325l-0.96903,6.78325l0.48452,2.18033" fill="none" stroke="#c2c2c2" stroke-width="3.5" stroke-linecap="round"/><path d="M393.63847,173.49857l0.48452,-2.18033l-0.96903,-6.78324l1.69581,-6.78324" data-paper-data="{&quot;index&quot;:null}" fill="none" stroke="#c2c2c2" stroke-width="3.5" stroke-linecap="round"/><path d="M393.86931,227.32397l-20.10747,-71.70858l24.39072,0.72677l2.61091,51.81776l3.01719,6.96899l-0.221,8.80345z" fill-opacity="0.08443" fill="#ffffff" stroke="none" stroke-width="0" stroke-linecap="butt"/><path d="M366.02806,223.69011l-0.29821,-9.10644l34.92273,-19.96462l-0.14631,13.31464l3.10417,5.81397l-0.05076,9.94245l-19.86522,6.78324z" fill-opacity="0.08443" fill="#ffffff" stroke="none" stroke-width="0" stroke-linecap="butt"/><path d="M366.37833,223.55254l-0.19461,-9.58151l1.47165,-6.25839l1.39836,-52.10791h28.82187l2.1872,52.62123l3.44604,5.61974v10.7286l-20.03009,6.13063z" fill="none" stroke="#00021d" stroke-width="3.5" stroke-linecap="butt"/><g stroke-linecap="butt"><path d="M378.19827,219.32538v-4.79834l4.53286,-7.99722l16.73672,-0.12304l3.75332,7.08447l0.1984,5.83413l-13.15254,4.56744z" fill="#694646" stroke="none" stroke-width="0"/><path d="M378.07077,220.03126l25.22131,-7.47411l-0.2,6.6741l-12.006,4.44445z" fill-opacity="0.14806" fill="#ffffff" stroke="none" stroke-width="0"/><path d="M378.31442,219.81752l0.34868,-4.3062h24.17527l0.69736,3.87531l-12.785,4.4753z" fill-opacity="0.08443" fill="#ffffff" stroke="none" stroke-width="0"/><path d="M393.41506,206.99187l5.77301,0.22222l4.09766,6.9714l-1.0537,6.0286l-3.33363,0.77855z" fill-opacity="0.08443" fill="#ffffff" stroke="none" stroke-width="0"/><path d="M377.92384,219.40399v-4.79834l4.53287,-7.99722l16.73673,-0.12304l3.75332,7.08447l0.1984,5.83412l-12.75254,3.96744z" fill="none" stroke="#00021d" stroke-width="3.5"/></g><path d="M366.27547,223.29815l-0.16473,-9.61483l1.51762,-6.01712l1.1553,-52.44962l29.02113,-0.03577l2.37553,53.23432l3.69094,6.17511l-0.32395,10.4263l-19.93561,5.97105z" fill="#fcaff0" stroke="none" stroke-width="0" stroke-linecap="butt"/></g><path d="M378.41971,213.68619l4.25,-6.75h16.5l4,7.5l-1,5.25l-12.75,3.5l-11.75,-4z" fill="none" stroke="#000000" stroke-width="3" stroke-linecap="round"/><path d="M315.29625,100.90936c-1.37658,-1.35703 -1.4086,-3.55664 -0.07152,-4.91297c1.33707,-1.35633 3.53691,-1.35577 4.91349,0.00126c1.37658,1.35703 1.4086,3.55664 0.07152,4.91297c-1.33707,1.35633 -3.53691,1.35577 -4.91349,-0.00126z" fill="#00021d" stroke="#fff1bf" stroke-width="12" stroke-linecap="butt"/><g><path d="M327.37486,91.96265l6.76074,5.6385l-0.68615,3.60298l18.28719,30.81845c0,0 2.03416,4.19909 -0.20299,6.50055c-1.67704,1.72525 -5.13916,-0.72594 -5.13916,-0.72594l-26.40021,-23.44325l-2.88732,0.30792l-6.46508,-6.71881l5.18142,-11.21783z" fill="#5c2a2a" stroke="none" stroke-width="0" stroke-linecap="butt"/><path d="M327.51063,92.28254l6.54972,6.17586l-23.4086,9.50145l5.55341,-10.94667z" fill-opacity="0.08443" fill="#ffffff" stroke="none" stroke-width="0" stroke-linecap="butt"/><path d="M327.63811,92.11271l6.37364,4.71527l-0.14766,4.85885l17.18987,30.3183c0,0 2.8785,3.76133 0.21775,6.05014c-2.96529,2.55076 -5.12728,-0.74762 -5.12728,-0.74762l-30.56457,-40.32369z" fill-opacity="0.08443" fill="#ffffff" stroke="none" stroke-width="0" stroke-linecap="butt"/><path d="M327.4013,91.74985l7.01297,5.88714l-1.01219,3.28157l18.24495,30.37561c0,0 2.368,4.34693 -0.22113,6.91397c-2.58717,2.56509 -5.92335,-0.32547 -5.92335,-0.32547l-25.55326,-23.81194l-3.12026,0.5966l-6.15598,-6.93239l5.20999,-11.18965z" fill="none" stroke="#00021d" stroke-width="3.5" stroke-linecap="butt"/><path d="M319.64576,114.64682l4.9307,-8.78917l9.50322,-5.15821" fill="none" stroke="#00021d" stroke-width="1.5" stroke-linecap="round"/><path d="M327.4387,91.77569l6.45092,5.63398l-0.22494,3.94014l17.99364,29.70645c0,0 2.11499,4.81779 0.00256,6.96895c-2.53088,2.57729 -6.41788,-0.34242 -6.41788,-0.34242l-24.91554,-23.57528l-3.76632,0.16385l-6.17432,-6.83408l4.99363,-10.79034z" fill="#fcaff0" stroke="none" stroke-width="0" stroke-linecap="butt"/></g><g stroke-linecap="butt"><g><path d="M369.57863,155.77714c0,0 2.72679,3.49646 0.90305,5.3786c-1.36716,1.41091 -5.23248,-0.63128 -5.23248,-0.63128l-23.25119,-25.83044c0,0 6.64716,-6.05521 7.58819,-6.68371z" fill="#fcaff0" stroke="none" stroke-width="0"/><path d="" fill-opacity="0.08443" fill="#ffffff" stroke="none" stroke-width="0"/><path d="M368.67532,155.98357c0,0 3.39068,3.24179 1.18044,5.07358c0.01963,-0.09732 -1.03619,-0.10203 -1.03619,-0.10203l-22.2578,-30.49124c0,0 2.13217,-1.85554 3.09574,-2.50125z" fill="#fcaff0" stroke="none" stroke-width="0"/><path d="M349.59148,127.88894l19.55704,27.36285c0,0 2.83342,3.87482 0.71385,5.9655c-2.11796,2.08911 -4.78375,-1.19659 -4.78375,-1.19659l-23.35881,-25.8347" fill="none" stroke="#00021d" stroke-width="3.5"/></g><path d="M348.8541,128.3656l19.59191,27.53097c0,0 2.48948,2.86709 0.36992,4.95779c-0.98134,0.93611 -3.16996,-1.54486 -3.16996,-1.54486l-23.32441,-25.73393" fill="none" stroke="#fcaff0" stroke-width="1.75"/></g><path d="M319.65082,114.71935l4.17608,-8.81038l9.64144,-4.98549" fill="none" stroke="#000000" stroke-width="1.5" stroke-linecap="round"/><g fill="none" stroke-linecap="round"><g stroke="#161830" stroke-width="5.5"><path d="M383.72093,136.08792v-15.09201"/><path d="M395.84918,121.4827v15.09199"/></g><g stroke="#ffffff" stroke-width="3.5"><path d="M383.72093,136.08792v-15.09201"/><path d="M395.84918,121.4827v15.09199"/></g></g><g stroke-linecap="butt"><g><path d="M382.5693,190.4202c0,-1.10457 0.89543,-2 2,-2c1.10457,0 2,0.89543 2,2c0,1.10457 -0.89543,2 -2,2c-1.10457,0 -2,-0.89543 -2,-2z" fill="#fcd5f7" stroke="none" stroke-width="0.5"/><path d="M390.86628,190.4202c0,-1.10457 0.89543,-2 2,-2c1.10457,0 2,0.89543 2,2c0,1.10457 -0.89543,2 -2,2c-1.10457,0 -2,-0.89543 -2,-2z" fill="#fcd5f7" stroke="none" stroke-width="0.5"/><path d="M382.21121,195.48329c0,-3.11954 3.42815,-4.41197 6.54769,-4.41197c3.11955,0 6.09806,1.18001 6.09806,4.29955c0,3.11954 -3.09092,6.21048 -6.21047,6.21048c-3.11955,0 -6.43529,-2.97852 -6.43529,-6.09806z" fill="#ffffff" stroke="#000000" stroke-width="2.5"/><path d="M385.62026,195.11797c0,-0.41422 0.33578,-0.75 0.75,-0.75c0.41422,0 0.75,0.33578 0.75,0.75c0,0.41422 -0.33578,0.75 -0.75,0.75c-0.41422,0 -0.75,-0.33578 -0.75,-0.75z" fill="#000000" stroke="none" stroke-width="0.5"/><path d="M390.34134,195.23038c0,-0.41422 0.33578,-0.75 0.75,-0.75c0.41422,0 0.75,0.33578 0.75,0.75c0,0.41422 -0.33578,0.75 -0.75,0.75c-0.41422,0 -0.75,-0.33578 -0.75,-0.75z" fill="#000000" stroke="none" stroke-width="0.5"/><path d="M389.77956,198.05397c-0.00655,0.04509 -0.01543,0.08773 -0.02647,0.12801c0.08061,0.03934 0.16076,0.07838 0.23963,0.11773l0.07754,0.03877c0,0 0.00928,0.00465 0.02311,0.01393c0.03009,0.00236 0.05007,0.00807 0.05007,0.00807c0.09046,0.02585 0.18093,0.05169 0.2714,0.07754l0.1937,0.20612c0,0 0.1118,0.2236 -0.11181,0.33541c-0.17982,0.08991 -0.28734,-0.03709 -0.32255,-0.09028c-0.05604,-0.01601 -0.11207,-0.03202 -0.1681,-0.04803c0,0 -0.02913,-0.00832 -0.06421,-0.02931c-0.05493,-0.00609 -0.09522,-0.02623 -0.09522,-0.02623l-0.07754,-0.03877c-0.0978,-0.04899 -0.19666,-0.09757 -0.2956,-0.14668c-0.29351,0.21011 -0.73769,0.18314 -1.10676,0.00506c-0.03277,-0.00162 -0.06557,-0.00634 -0.09808,-0.01445c-0.40648,0.28695 -0.88647,0.48532 -1.33435,0.49264l-0.09445,0.03131c0,0 -0.24254,0.06063 -0.30317,-0.1819c-0.06063,-0.24254 0.1819,-0.30317 0.1819,-0.30317l0.21572,-0.04623c0.30077,0.00661 0.64334,-0.12798 0.94654,-0.32424c-0.00431,-0.00789 -0.00856,-0.01594 -0.01276,-0.02413c-0.01785,-0.03486 -0.03154,-0.06969 -0.04137,-0.10436c-0.03925,-0.06695 -0.06976,-0.13796 -0.08965,-0.21231c0,0 -0.01253,-0.05639 0.00156,-0.12098c-0.42825,-0.15475 -0.85769,-0.32079 -1.27154,-0.38447l-0.15464,-0.04826c0,0 -0.23717,-0.07906 -0.15812,-0.31623c0.07905,-0.23717 0.31623,-0.15812 0.31623,-0.15812l0.07798,0.02928c0.53131,0.09237 1.06663,0.32145 1.60418,0.49784c0.37983,-0.29041 0.98399,-0.42597 1.34428,-0.20385c0.06986,-0.03838 0.14126,-0.07474 0.21515,-0.10808c0.00083,-0.00118 0.00165,-0.00235 0.00248,-0.0035l-0.01051,0.00379c0,0 0.00772,-0.00772 0.02155,-0.01833c0.01721,-0.02141 0.0313,-0.03348 0.0313,-0.03348c0.08808,-0.07541 0.17615,-0.15083 0.26423,-0.22625l0.18694,-0.1872c0,0 0.17678,-0.17677 0.35355,0c0.17678,0.17677 0,0.35356 0,0.35356l-0.20077,0.20051c-0.09285,0.07967 -0.18571,0.15934 -0.27856,0.23901c0,0 -0.00278,0.00238 -0.00796,0.00624c-0.00977,0.01254 -0.01674,0.0195 -0.01674,0.0195l-0.11706,0.09178c-0.05631,0.02369 -0.11122,0.04969 -0.1651,0.07741c0.02495,0.11851 0.02814,0.2595 0.00404,0.42536z" fill="#000000" stroke="none" stroke-width="0.5"/><path d="M394.96346,193.65818c-0.73214,0.1627 -0.89484,-0.56944 -0.89484,-0.56944l-0.12568,-0.5857c-0.37611,-3.41501 -0.49332,-3.56446 -2.56008,-1.11586c0,0 -0.48446,0.57254 -1.057,0.08808c-0.57254,-0.48445 -0.08808,-1.057 -0.08808,-1.057c0.45535,-0.53668 1.05973,-1.78445 1.61041,-2.17166c2.79764,-1.96714 3.38617,2.31074 3.58558,4.09079l0.09913,0.42595c0,0 0.16269,0.73214 -0.56945,0.89484z" fill="#000000" stroke="none" stroke-width="0.5"/></g><path d="M387.68744,191.60166c-0.53033,0.53033 -1.06066,0 -1.06066,0l-0.40689,-0.41755c-1.87583,-2.50216 -2.82137,-2.93462 -2.80905,0.67406c0,0 0,0.75 -0.75,0.75c-0.75,0 -0.75,-0.75 -0.75,-0.75c0.00507,-1.70188 0.15806,-5.08837 2.79699,-4.41706c1.0177,0.25889 2.1095,2.03992 2.71206,2.843l0.26755,0.25689c0,0 0.53033,0.53033 0,1.06066z" fill="#000000" stroke="none" stroke-width="0.5"/></g><path d="M349.41036,146.0967c0,0 5.09632,-45.53229 10.77591,-57.31963c1.58652,-3.29263 3.21854,-3.95218 4.79772,-0.25071c8.62602,-9.5311 29.33723,-8.82236 26.68751,0.71786c27.61158,9.95404 38.15639,46.23541 14.49228,36.06069c3.54457,-12.44091 -38.78672,-16.46322 -36.35638,-19.87003c-3.88605,-6.79224 -14.13939,40.60589 -16.73813,44.87263c-1.24771,2.04855 -1.01794,-1.4725 -2.10823,-0.40395c-1.1273,1.10482 -1.55068,-3.80686 -1.55068,-3.80686z" fill="#fcaff0" stroke="#00021d" stroke-width="3.5" stroke-linecap="butt"/><path d="M392.69218,140.07356c0,0 0.04203,1.98632 -0.93854,2.24211c-0.69243,0.18063 -1.63932,-0.4993 -2.38002,-1.99873c-0.03102,-0.0628 -0.02296,-0.08088 -0.02654,-0.07987c-0.00674,0.00191 -0.00145,0.07581 -0.00145,0.07581c0,0 0.18138,2.15889 -1.1909,2.08989c-1.37229,-0.06899 -1.71577,-1.71003 -1.71577,-1.71003" fill="none" stroke="#161830" stroke-width="1.5" stroke-linecap="round"/><path d="M378.78653,168.79676c-0.7276,-0.1819 -0.5457,-0.90951 -0.5457,-0.90951l0.11614,-0.45471c0.47528,-2.85172 1.05284,-5.35226 0.88998,-8.29319c-0.07619,-1.37572 -0.64353,-2.56566 -0.64353,-4.03134c0,0 0,-0.75 0.75,-0.75c0.75,0 0.75,0.75 0.75,0.75c0,1.46355 0.53331,2.5171 0.63976,3.925c0.22974,3.03871 -0.41602,5.7026 -0.90661,8.64612l-0.14052,0.57192c0,0 -0.1819,0.72761 -0.90951,0.5457z" fill="#000000" stroke="none" stroke-width="0.5" stroke-linecap="butt"/><path d="M390.13297,168.30584c-0.75,0 -0.75,-0.75 -0.75,-0.75l0.00256,-0.70811c-0.23648,-1.38935 -1.02769,-1.53071 -1.27615,-2.89327c-0.52225,-2.86396 0.64882,-5.89476 0.25451,-8.61205c0,0 -0.10607,-0.74247 0.63639,-0.84853c0.74246,-0.10607 0.84853,0.6364 0.84853,0.6364c0.38383,2.72504 -0.47925,5.70435 -0.2588,8.58391c0.06306,0.82379 1.09832,1.83555 1.29041,3.00982l0.00255,0.83183c0,0 0,0.75 -0.75,0.75z" fill="#000000" stroke="none" stroke-width="0.5" stroke-linecap="butt"/></g></g></svg>