<svg version="1.1" xmlns="http://www.w3.org/2000/svg" xmlns:xlink="http://www.w3.org/1999/xlink" width="177.76326" height="256.82696" viewBox="0,0,177.76326,256.82696"><g transform="translate(-170.19655,-46.70037)"><g data-paper-data="{&quot;isPaintingLayer&quot;:true}" fill-rule="nonzero" stroke="#ffffff" stroke-width="0" stroke-linecap="butt" stroke-linejoin="miter" stroke-miterlimit="10" stroke-dasharray="" stroke-dashoffset="0" style="mix-blend-mode: normal"><path d="M186.12,260.81904l4,-165.6l125.2,120c0,0 -22.80926,8.05033 -38.28923,13.51385c-3.71569,1.31142 2.73259,30.65419 -0.50474,44.88752c-1.58378,6.96326 -14.30937,4.52922 -14.58449,4.62632c-8.55835,3.0206 -27.46285,-34.49547 -36.31877,-31.36985c-21.01427,7.4168 -39.50277,13.94215 -39.50277,13.94215z" fill="#ffffff"/><path d="M170.20825,302.96938l-0.0117,-256.269l177.76326,177.22525c0,0 -63.27348,8.28605 -69.25869,9.06246c-0.90814,0.11781 22.43111,46.20351 22.43111,46.20351l-48.96404,24.33574c0,0 -25.90466,-49.85318 -26.00357,-49.76798c-5.20154,4.48096 -55.95637,49.21002 -55.95637,49.21002zM258.9217,276.30877l14.94013,-6.20105l-27.00241,-52.50897c0,0 60.06228,-8.23173 60.06228,-7.5122c0,1.27284 -116.40202,-113.98637 -116.40202,-113.98637l-1.40556,162.59911c0,0 43.47141,-40.87943 44.37668,-38.86898c3.49105,7.75314 25.4309,56.47847 25.4309,56.47847z" fill="#000000"/></g></g></svg>