<svg version="1.1" xmlns="http://www.w3.org/2000/svg" xmlns:xlink="http://www.w3.org/1999/xlink" width="145.05756" height="224.57157" viewBox="0,0,145.05756,224.57157"><defs><radialGradient cx="239.85291" cy="176.0974" r="21.52948" gradientUnits="userSpaceOnUse" id="color-1"><stop offset="0" stop-color="#b97500"/><stop offset="1" stop-color="#6d4401"/></radialGradient></defs><g transform="translate(-164.53151,-75.51168)"><g data-paper-data="{&quot;isPaintingLayer&quot;:true}" fill-rule="nonzero" stroke-linejoin="miter" stroke-miterlimit="10" stroke-dasharray="" stroke-dashoffset="0" style="mix-blend-mode: normal"><g data-paper-data="{&quot;index&quot;:null}" stroke-linecap="butt"><path d="M243.3061,151.90926c-0.03768,-2.1292 0.22618,-3.56602 0.75162,-4.52479c0.33927,-0.61907 1.33422,-1.31698 1.33422,-1.31698l21.91787,0.02303c0,0 0.63269,0.73323 0.93975,1.27335c0.51931,0.91346 0.82015,2.18613 0.85118,3.93946c0.15312,8.65182 -5.49708,15.80113 -12.62008,15.96846c-7.123,0.16732 -13.02144,-6.71071 -13.17456,-15.36252z" fill="#3c2222" stroke="none" stroke-width="0"/><path d="M246.33365,159.42417l21.28571,-1.57143c0,0 -4.09003,8.78511 -9.85714,9.28571c-8.20166,0.71192 -11.42857,-7.71428 -11.42857,-7.71428z" fill-opacity="0.08443" fill="#ffffff" stroke="none" stroke-width="0"/><path d="M261.04796,166.13845c0,0 -8.39008,2.96028 -14.28572,-5.14286c-3.39736,-4.66942 -2.57143,-14.57143 -2.57143,-14.57143l10.71428,-0.28571l6.14286,20z" fill-opacity="0.08443" fill="#ffffff" stroke="none" stroke-width="0"/><path d="M243.44899,151.76639c-0.03768,-2.12921 0.22618,-3.56603 0.75162,-4.52479c0.33927,-0.61907 1.33422,-1.31698 1.33422,-1.31698l21.91788,0.02303c0,0 0.63268,0.73323 0.93974,1.27334c0.51931,0.91346 0.82015,2.18614 0.85118,3.93946c0.15312,8.65181 -5.49708,15.80113 -12.62008,15.96846c-7.12299,0.16733 -13.02144,-6.71071 -13.17455,-15.36252z" fill="none" stroke="#00021d" stroke-width="3.5"/><path d="M255.78425,166.99563c-7.2828,0.12779 -11.47933,-7.6513 -12.10271,-13.66299c-0.44122,-4.25501 1.87335,-7.34868 1.87335,-7.34868h21.84107c0,0 1.98415,2.87446 1.85649,6.61844c-0.20725,6.07825 -3.71943,14.22216 -13.46821,14.39323z" fill="#71521d" stroke="none" stroke-width="0"/></g><g data-paper-data="{&quot;index&quot;:null}"><path d="M298.57547,204.45695c4.51149,-0.02209 9.20924,9.87171 7.73659,14.83674c-0.30239,1.01949 -3.08798,0.43434 -3.08798,0.43434c0,0 -1.67784,1.44225 -2.11817,1.43399c-1.27123,-0.02384 -3.75203,-1.99758 -3.75203,-1.99758c0,0 0.34083,11.49016 -3.13397,11.38608c-1.37254,-0.04111 -1.34,-13.95386 -2.19906,-13.75682c-4.55973,1.04583 -9.9343,-2.31679 -7.50053,-4.49146c7.29553,0.24701 7.75053,-3.8676 7.75053,-3.8676c0,0 2.09622,-3.95706 6.30462,-3.97768z" data-paper-data="{&quot;index&quot;:null}" fill="#161830" stroke="#00021d" stroke-width="2.5" stroke-linecap="butt"/><g><g><g><path d="M295.17138,213.4671l-11.57497,-4.32511l-0.13376,-9.32319l2.26828,-1.81283l2.26348,-35.23398c0,0 0.73529,-4.17781 3.14088,-4.13193c3.20904,0.06119 4.71827,4.47621 4.71827,4.47621l8.69078,34.76592l3.02274,2.07735l-0.83647,8.76359z" fill="#5c2a2a" stroke="none" stroke-width="0" stroke-linecap="butt"/><path d="M295.24008,212.99377l-11.64849,-3.8707l23.31879,-9.71976l-0.30841,8.99694z" fill-opacity="0.08443" fill="#ffffff" stroke="none" stroke-width="0" stroke-linecap="butt"/><path d="M294.81635,213.45453l-6.65517,-50.15877c0,0 -0.78465,-3.86494 3.11719,-4.13895c3.50111,-0.24585 4.10237,4.45221 4.10237,4.45221l9.11856,33.63842l3.52379,3.34861l-1.21104,7.83521z" fill-opacity="0.08443" fill="#ffffff" stroke="none" stroke-width="0" stroke-linecap="butt"/><path d="M295.34044,213.55291l-11.57545,-4.285l-0.50366,-9.25745l2.63692,-1.7716l1.40223,-34.90003c0,0 0.33666,-4.40139 3.97989,-4.39916c3.646,0.00223 5.02204,4.75721 5.02204,4.75721l8.4092,34.42153l3.02824,1.61955l-0.84074,9.11775z" fill="none" stroke="#00021d" stroke-width="3.5" stroke-linecap="butt"/><path d="M305.34723,197.79733l-10.38213,3.02158l-9.68793,-2.77584" fill="none" stroke="#00021d" stroke-width="1.5" stroke-linecap="round"/><path d="M294.91176,213.83432l-11.14075,-4.1535l-0.42147,-9.20051l2.79149,-2.53367l1.11561,-34.28314c0,0 0.70756,-4.80966 4.31938,-4.75916c3.01465,0.04215 4.90178,4.95367 4.90178,4.95367l8.11692,33.7692l2.93225,2.64145l-0.61951,8.54238z" fill="#71521d" stroke="none" stroke-width="0" stroke-linecap="butt"/></g><path d="M305.18297,197.13654l-9.65386,3.62369l-10.31776,-3.32792" fill="none" stroke="#00021d" stroke-width="1.5" stroke-linecap="round"/></g><g stroke-linecap="butt"><g><path d="M293.84051,159.96251c-0.11292,0.27487 -0.51488,1.00947 -1.04628,1.94338c-2.12523,0.7567 -4.00794,2.23317 -5.24663,4.3264c-0.26171,0.44227 -0.48546,0.8965 -0.67221,1.3589l-28.00414,-16.55339c0,0 -2.76618,-3.38521 -1.65345,-5.00436c1.48436,-2.1599 5.45096,-0.1783 5.45096,-0.1783z" fill="#71521d" stroke="none" stroke-width="0"/><path d="" fill-opacity="0.08443" fill="#ffffff" stroke="none" stroke-width="0"/><path d="M293.87316,159.88317c-0.20422,0.49493 -0.61188,1.28489 -0.99168,1.99207c-0.71589,0.2475 -1.40508,0.57634 -2.05231,0.98261l-33.08603,-15.23478c0,0 -0.21339,-1.03405 -0.3049,-0.99556c1.35858,-2.52881 5.20681,0.15394 5.20681,0.15394z" fill="#71521d" stroke="none" stroke-width="0"/><path d="M286.92898,167.46102l-27.5302,-16.35564c0,0 -3.74794,-1.96347 -2.11886,-4.4527c1.6303,-2.49111 5.98888,-0.4798 5.98888,-0.4798l30.68963,13.76043" fill="none" stroke="#00021d" stroke-width="3.5"/></g><path d="M287.29742,166.68042l-27.31366,-16.27179c0,0 -2.86474,-1.65485 -2.14115,-2.80191c1.63032,-2.49111 4.93306,-0.61769 4.93306,-0.61769l30.86132,13.76138" fill="none" stroke="#71521d" stroke-width="1.75"/></g></g></g><g><path d="M195.30668,203.29758c4.2084,0.02062 6.30462,3.97768 6.30462,3.97768c0,0 0.455,4.11461 7.75053,3.8676c2.43377,2.17467 -2.9408,5.53729 -7.50053,4.49146c-0.85906,-0.19704 -0.82652,13.71571 -2.19906,13.75682c-3.4748,0.10408 -3.13397,-11.38608 -3.13397,-11.38608c0,0 -2.4808,1.97374 -3.75203,1.99758c-0.44033,0.00826 -2.11817,-1.43399 -2.11817,-1.43399c0,0 -2.78559,0.58515 -3.08798,-0.43434c-1.47265,-4.96503 3.2251,-14.85883 7.73659,-14.83674z" data-paper-data="{&quot;index&quot;:null}" fill="#161830" stroke="#00021d" stroke-width="2.5" stroke-linecap="butt"/><g><g><g><path d="M187.15155,207.56375l-0.83647,-8.76359l3.02274,-2.07735l8.69078,-34.76592c0,0 1.50923,-4.41502 4.71827,-4.47621c2.40559,-0.04588 3.14088,4.13193 3.14088,4.13193l2.26348,35.23398l2.26828,1.81283l-0.13376,9.32319l-11.57497,4.32511z" fill="#5c2a2a" stroke="none" stroke-width="0" stroke-linecap="butt"/><path d="M187.28019,207.24087l-0.30841,-8.99694l23.31879,9.71976l-11.64849,3.8707z" fill-opacity="0.08443" fill="#ffffff" stroke="none" stroke-width="0" stroke-linecap="butt"/><path d="M187.07011,207.27188l-1.21104,-7.83521l3.52379,-3.34861l9.11856,-33.63842c0,0 0.60126,-4.69806 4.10237,-4.45221c3.90184,0.27401 3.11719,4.13895 3.11719,4.13895l-6.65517,50.15877z" fill-opacity="0.08443" fill="#ffffff" stroke="none" stroke-width="0" stroke-linecap="butt"/><path d="M186.98305,207.69633l-0.84074,-9.11775l3.02824,-1.61955l8.4092,-34.42153c0,0 1.37604,-4.75498 5.02204,-4.75721c3.64323,-0.00223 3.97989,4.39916 3.97989,4.39916l1.40223,34.90003l2.63692,1.7716l-0.50366,9.25745l-11.57545,4.285z" fill="none" stroke="#00021d" stroke-width="3.5" stroke-linecap="butt"/><path d="M208.60499,196.88369l-9.68793,2.77584l-10.38213,-3.02158" fill="none" stroke="#00021d" stroke-width="1.5" stroke-linecap="round"/><path d="M186.9747,207.65166l-0.61951,-8.54238l2.93225,-2.64145l8.11692,-33.7692c0,0 1.88713,-4.91152 4.90178,-4.95367c3.61182,-0.0505 4.31938,4.75916 4.31938,4.75916l1.11561,34.28314l2.79149,2.53367l-0.42147,9.20051l-11.14075,4.1535z" fill="#71521d" stroke="none" stroke-width="0" stroke-linecap="butt"/></g><path d="M208.67081,196.27293l-10.31776,3.32792l-9.65386,-3.62369" fill="none" stroke="#00021d" stroke-width="1.5" stroke-linecap="round"/></g><g stroke-linecap="butt"><g><path d="M231.2134,144.69576c0,0 3.9666,-1.9816 5.45096,0.1783c1.11273,1.61915 -1.65345,5.00436 -1.65345,5.00436l-28.00414,16.55339c-0.18675,-0.4624 -0.4105,-0.91663 -0.67221,-1.3589c-1.23869,-2.09323 -3.1214,-3.5697 -5.24663,-4.3264c-0.5314,-0.93391 -0.93336,-1.66851 -1.04628,-1.94338z" fill="#71521d" stroke="none" stroke-width="0"/><path d="" fill-opacity="0.08443" fill="#ffffff" stroke="none" stroke-width="0"/><path d="M231.23711,145.62207c0,0 3.84823,-2.68275 5.20681,-0.15394c-0.09151,-0.03849 -0.3049,0.99556 -0.3049,0.99556l-33.08603,15.23478c-0.64723,-0.40627 -1.33642,-0.73511 -2.05231,-0.98261c-0.3798,-0.70718 -0.78746,-1.49714 -0.99168,-1.99207z" fill="#71521d" stroke="none" stroke-width="0"/><path d="M199.92373,158.77393l30.68963,-13.76043c0,0 4.35858,-2.01131 5.98888,0.4798c1.62908,2.48923 -2.11886,4.4527 -2.11886,4.4527l-27.5302,16.35564" fill="none" stroke="#00021d" stroke-width="3.5"/></g><path d="M200.24517,159.59103l30.86132,-13.76138c0,0 3.30274,-1.87342 4.93306,0.61769c0.72359,1.14706 -2.14115,2.80191 -2.14115,2.80191l-27.31366,16.27179" fill="none" stroke="#71521d" stroke-width="1.75"/></g></g></g><path d="M237.13636,223.27016l-0.04233,52.56233l-3.27155,0.17628" data-paper-data="{&quot;index&quot;:null}" fill="none" stroke="#00021d" stroke-width="12" stroke-linecap="round"/><path d="M244.32201,141.23478v-3.1h6.9v3.1z" data-paper-data="{&quot;index&quot;:null}" fill="#b1a785" stroke="#00021d" stroke-width="1.5" stroke-linecap="butt"/><path d="M258.07759,222.70307l2.24986,56.21831l-4.02673,0.96843" data-paper-data="{&quot;index&quot;:null}" fill="none" stroke="#00021d" stroke-width="12" stroke-linecap="round"/><path d="M240.93039,144.80973l-1.98059,-1.64182l1.19027,-1.16369l-1.15023,-1.0814l1.94056,-0.56943h13.24523l2.07611,0.5587l-0.69556,1.09336l0.97141,1.16246l-2.35196,1.64182z" data-paper-data="{&quot;index&quot;:null}" fill="#71521d" stroke="none" stroke-width="0" stroke-linecap="butt"/><g data-paper-data="{&quot;index&quot;:null}" stroke-linecap="butt"><path d="M248.02799,136.45014c-13.78872,3.75312 -28.00918,-4.38234 -31.7623,-18.17106c-3.75312,-13.78872 4.38234,-28.00918 18.17106,-31.7623c13.78872,-3.75312 28.00918,4.38234 31.7623,18.17106c3.75312,13.78872 -4.38234,28.00918 -18.17106,31.7623z" fill="#fff1bf" stroke="none" stroke-width="0"/><path d="M267.54134,111.40074c0,0 -8.25088,-6.9003 -18.18976,-4.25957c-8.08159,2.14726 -14.51482,12.23711 -20.0439,15.62984c-7.36841,4.52138 -9.71099,2.86409 -9.71099,2.86409l-0.27487,-1.55378c0,0 -2.27877,-1.48235 -3.28553,-7.12831c-1.66056,-9.31243 2.33519,-25.66842 16.66037,-29.67636c30.78658,-8.61353 34.84468,24.12407 34.84468,24.12407z" fill-opacity="0.28957" fill="#000000" stroke="none" stroke-width="0"/><path d="M248.00172,136.35364c-13.78872,3.75312 -28.00918,-4.38234 -31.7623,-18.17106c-3.75312,-13.78872 4.38234,-28.00918 18.17106,-31.7623c13.78872,-3.75312 28.00918,4.38234 31.7623,18.17106c3.75312,13.78872 -4.38234,28.00918 -18.17106,31.7623z" fill="none" stroke="#00021d" stroke-width="3.5"/></g><g data-paper-data="{&quot;index&quot;:null}" fill="none" stroke="#161830" stroke-width="3.5" stroke-linecap="round"><path d="M242.47431,112.31997l3.48926,12.81934"/><path d="M228.8026,116.48539l3.48926,12.81933"/></g><g data-paper-data="{&quot;index&quot;:null}"><path d="M256.16452,215.3115l-8.72956,2.81602l-10.49814,-3.11839" fill="none" stroke="#00021d" stroke-width="12" stroke-linecap="round"/><path d="M247.51877,220.79236l-20.03008,-6.18996v-10.83243l3.44603,-5.67413l2.1872,-52.9638l29.1552,-0.16667l1.06503,52.61219l1.75737,6.46318l-0.05175,9.53z" fill="#5c2a2a" stroke="none" stroke-width="0" stroke-linecap="butt"/><path d="M247.49729,163.10148l0.48452,-2.18033l-0.96903,-6.78325l1.69581,-6.78325" fill="none" stroke="#c2c2c2" stroke-width="3.5" stroke-linecap="round"/><path d="M236.44087,147.75174l1.69581,6.78324l-0.96903,6.78324l0.48452,2.18033" data-paper-data="{&quot;index&quot;:null}" fill="none" stroke="#c2c2c2" stroke-width="3.5" stroke-linecap="round"/><path d="M227.73098,213.93235l-0.221,-8.80345l3.01719,-6.96899l2.61091,-51.81776l24.39072,-0.72677l-20.10747,71.70858z" fill-opacity="0.08443" fill="#ffffff" stroke="none" stroke-width="0" stroke-linecap="butt"/><path d="M247.59618,220.47334l-19.86522,-6.78324l-0.05076,-9.94245l3.10417,-5.81397l-0.14631,-13.31464l34.92273,19.96462l-0.29821,9.10644z" fill-opacity="0.08443" fill="#ffffff" stroke="none" stroke-width="0" stroke-linecap="butt"/><path d="M247.81189,220.70491l-20.03009,-6.13063v-10.7286l3.44604,-5.61974l2.1872,-52.62123h28.82187l1.39836,52.10791l1.47165,6.25839l-0.19461,9.58151z" fill="none" stroke="#00021d" stroke-width="3.5" stroke-linecap="butt"/><g stroke-linecap="butt"><path d="M241.02361,213.8928l-13.15254,-4.56744l0.1984,-5.83413l3.75332,-7.08447l16.73672,0.12304l4.53286,7.99722v4.79834z" fill="#694646" stroke="none" stroke-width="0"/><path d="M240.20456,213.67569l-12.006,-4.44445l-0.2,-6.6741l25.22131,7.47411z" fill-opacity="0.14806" fill="#ffffff" stroke="none" stroke-width="0"/><path d="M240.53991,213.86192l-12.785,-4.4753l0.69736,-3.87531h24.17527l0.34868,4.3062z" fill-opacity="0.08443" fill="#ffffff" stroke="none" stroke-width="0"/><path d="M232.39224,210.99263l-3.33363,-0.77855l-1.0537,-6.0286l4.09766,-6.9714l5.77301,-0.22222z" fill-opacity="0.08443" fill="#ffffff" stroke="none" stroke-width="0"/><path d="M240.89802,213.3714l-12.75254,-3.96744l0.1984,-5.83412l3.75332,-7.08447l16.73673,0.12304l4.53287,7.99722v4.79834z" fill="none" stroke="#00021d" stroke-width="3.5"/></g><path d="M247.67894,220.98757l-19.93561,-5.97105l-0.32395,-10.4263l3.69094,-6.17511l2.37553,-53.23432l29.02113,0.03577l1.1553,52.44962l1.51762,6.01712l-0.16473,9.61483z" fill="#71521d" stroke="none" stroke-width="0" stroke-linecap="butt"/></g><path d="M253.62093,209.18618l-11.75,4l-12.75,-3.5l-1,-5.25l4,-7.5h16.5l4.25,6.75z" data-paper-data="{&quot;index&quot;:null}" fill="none" stroke="#000000" stroke-width="3" stroke-linecap="round"/><path d="M249.17432,146.26076c1.6602,0.5534 1.1068,2.2136 1.1068,2.2136l-0.7041,1.91732c-1.35819,1.80192 -0.36355,3.51179 -0.2105,5.65522c0.17308,2.42387 0.07367,4.97378 -0.26318,7.37154c0,0 -0.24748,1.7324 -1.97989,1.48492c-1.73241,-0.24748 -1.48493,-1.97989 -1.48493,-1.97989c0.68797,-4.72534 -1.49902,-10.40475 1.02632,-14.47324l0.2959,-1.08267c0,0 0.5534,-1.6602 2.21359,-1.1068z" data-paper-data="{&quot;index&quot;:null}" fill="#cccccc" stroke="none" stroke-width="0.5" stroke-linecap="butt"/><path d="M234.71075,147.36757c0.5534,-1.6602 2.21359,-1.1068 2.21359,-1.1068l1.92901,1.66271c0.25249,1.79913 1.28609,3.55609 1.50248,5.26803c0.27917,2.20862 -1.12725,3.74729 -1.5,5.70892c-0.23286,1.22545 1.0549,3.49388 1.24752,4.77305c0,0 0.24748,1.73241 -1.48493,1.97989c-1.7324,0.24749 -1.97989,-1.48492 -1.97989,-1.48492c-0.25926,-1.9515 -1.49151,-3.69444 -1.25248,-5.72695c0.16712,-1.42109 1.76779,-3.23051 1.5,-4.79108c-0.23657,-1.37859 -0.88482,-2.7316 -1.26981,-4.15625c-0.42419,-0.21153 -1.33665,-0.83317 -0.9055,-2.12661z" data-paper-data="{&quot;index&quot;:null}" fill="#cccccc" stroke="none" stroke-width="0.5" stroke-linecap="butt"/><path d="M243.89144,194.37259c-7.20447,0 -13.04485,-5.84038 -13.04485,-13.04485c0,-7.20447 5.84038,-13.04485 13.04485,-13.04485c7.20447,0 13.04486,5.84038 13.04486,13.04485c0,7.20447 -5.84039,13.04485 -13.04486,13.04485z" data-paper-data="{&quot;index&quot;:null}" fill="#000000" stroke="#000000" stroke-width="1.5" stroke-linecap="butt"/><path d="M256.46382,181.32775c0,6.94353 -5.62885,12.57239 -12.57239,12.57239c-6.94354,0 -12.57239,-5.62886 -12.57239,-12.5724c0,-6.94354 5.62886,-12.5724 12.5724,-12.5724c6.94355,0 12.5724,5.62886 12.5724,12.5724z" data-paper-data="{&quot;index&quot;:null}" fill="url(#color-1)" stroke="#6d4500" stroke-width="1.5" stroke-linecap="butt"/><path d="M247.18462,171.27399c0,-0.57838 0.18931,-1.20692 0.50935,-1.63826c0.1346,-0.18141 1.4001,0.32633 2.51555,0.98006c1.08378,0.63517 2.02065,1.46065 1.99767,1.52188c-0.3688,0.98302 -1.31722,1.72983 -2.42905,1.72983c-1.43235,0 -2.59352,-1.16115 -2.59352,-2.59352z" data-paper-data="{&quot;index&quot;:null}" fill="#000000" stroke="#6d4500" stroke-width="1.5" stroke-linecap="butt"/><path d="M242.64225,171.73905c1.51662,0 2.74609,1.14409 2.74609,2.55539c0,1.4113 -1.22946,2.55539 -2.74609,2.55539c-1.51662,0 -2.74608,-1.14409 -2.74608,-2.55539c0,-1.4113 1.22945,-2.55539 2.74608,-2.55539z" data-paper-data="{&quot;index&quot;:null}" fill="#000000" stroke="#6d4500" stroke-width="1.5" stroke-linecap="butt"/><path d="M249.39305,175.47676c1.53768,0 2.78422,1.19531 2.78422,2.66981c0,1.47449 -1.24653,2.6698 -2.78422,2.6698c-1.53769,0 -2.78423,-1.1953 -2.78423,-2.6698c0,-1.4745 1.24654,-2.66981 2.78423,-2.66981z" data-paper-data="{&quot;index&quot;:null}" fill="#000000" stroke="#6d4500" stroke-width="1.5" stroke-linecap="butt"/><path d="M270.28826,106.84719c0,0 0.88146,4.85045 -0.49643,4.08048c-1.33265,-0.74469 -0.18621,2.59241 -1.92813,0.94346c-3.62811,-3.43444 -18.8624,-23.5417 -16.56683,-10.6397c3.23977,2.64893 -36.36567,16.73268 -29.67814,27.80595c-20.16119,16.03251 -33.11138,-35.74561 -33.11138,-35.74561c0,0 13.59616,14.00097 37.62421,-2.85535c-5.06228,-8.50942 14.73575,-14.63272 25.56214,-7.70167c2.86874,-20.73121 18.59458,24.11243 18.59458,24.11243z" data-paper-data="{&quot;index&quot;:null}" fill="#fdfd96" stroke="#00021d" stroke-width="3.5" stroke-linecap="butt"/><g stroke="none" stroke-width="1" stroke-linecap="butt"><path d="M171.91574,276.30459c0.25178,0.28123 0.50357,0.56246 0.78792,0.83479c0.25473,0.22793 0.68114,0.25148 0.81454,0.74003c-0.70487,-0.40249 -1.40969,-0.61252 -2.11451,-0.82253c-0.16886,-0.23387 -0.34662,-0.50033 -0.41481,-0.81419c0.06514,-0.01779 0.09771,-0.02668 0.13027,-0.03557c0.2665,0.01472 0.52117,0.05018 0.79657,0.09747z" fill="#c6dede"/><path d="M169.39021,277.30921c0.1748,0.31975 0.36145,0.61876 0.53625,0.93851c-0.15691,0.13034 -0.32276,0.03564 -0.48266,0.02681c-0.1599,-0.00883 -0.3287,-0.05024 -0.50934,-0.0709c-0.18959,-0.24571 -0.23706,-0.54774 -0.34968,-0.83197c0.27533,-0.14518 0.53001,-0.10972 0.80541,-0.06243z" fill="#c8e0e1"/><path d="M165.79072,281.30193c-0.1185,-0.17762 -0.18369,-0.35232 -0.1956,-0.52406c0.07397,-0.17769 0.24571,-0.18959 0.36711,-0.25774c0.12138,-0.06814 0.21314,-0.18069 0.39378,-0.16003c0.18364,0.15985 0.28737,0.41151 0.43255,0.68685c-0.16285,0.04447 -0.3257,0.08893 -0.46781,0.14524c-0.18358,0.03263 -0.36716,0.06526 -0.53001,0.10972z" fill="#c5ddde"/><path d="M167.14187,284.13531c-0.10954,0.04742 -0.17467,0.0652 -0.23982,0.08299c-0.15101,0.02374 -0.32275,0.03563 -0.50633,0.06826c-0.20738,-0.31085 -0.45027,-0.55951 -0.5481,-0.91778c0.12433,-0.12145 0.2635,-0.12445 0.45597,-0.1245c0.26363,0.26051 0.55687,0.5654 0.83828,0.89103z" fill="#c7dfe0"/><path d="M170.38773,276.09187c0.12445,0.2635 0.21928,0.48261 0.33189,0.76683c-0.34055,-0.02951 -0.66035,-0.04717 -0.98905,-0.09741c-0.10667,-0.19836 -0.1926,-0.3849 -0.23411,-0.60103c0.30496,-0.10078 0.57148,-0.08606 0.89128,-0.06838z" fill="#c2dada"/><path d="M168.36889,278.18305c-0.31386,0.06821 -0.55074,0.09789 -0.79946,0.1483c-0.1718,-0.18057 -0.22222,-0.42929 -0.27264,-0.67802c0.2102,-0.12739 0.42929,-0.22222 0.70764,-0.22823c0.21327,0.20425 0.19855,0.47076 0.36446,0.75794z" fill="#c6dedf"/><path d="M166.22415,284.87587c0.18069,0.21314 0.41763,0.37593 0.51841,0.6809c-0.21616,0.04153 -0.41157,0.09489 -0.60699,0.14825c-0.24878,-0.14206 -0.3969,-0.3641 -0.46805,-0.62465c0.15691,-0.13034 0.31975,-0.17481 0.55663,-0.20449z" fill="#c3dadb"/><path d="M172.49286,275.34206c0.18959,0.24571 0.35845,0.47959 0.54804,0.72531c-0.55374,-0.04129 -1.00683,-0.16255 -1.12251,-0.77843c0.17468,-0.06519 0.35237,0.00878 0.57447,0.05312z" fill="#bbd2d3"/><path d="M176.95869,276.76496c0.24872,-0.05042 0.45597,-0.12451 0.70471,-0.17493c0.09183,0.07991 0.20143,0.22499 0.32288,0.34932c-0.31674,0.31398 -0.33747,0.30214 -0.59514,0.12751c-0.14513,-0.08286 -0.27841,-0.18646 -0.43242,-0.3019z" fill="#b5cbcc"/><path d="M166.23985,278.20444c0.18057,-0.1718 0.35527,-0.237 0.52994,-0.3022c0.15108,0.16874 0.13929,0.38195 0.18081,0.59808c-0.18653,0.08593 -0.36121,0.15113 -0.54774,0.23706c-0.17475,-0.12728 -0.10967,-0.33752 -0.16304,-0.53295z" fill="#c0d7d8"/><path d="M170.17736,275.64184c-0.25761,0.01785 -0.52411,0.00313 -0.78173,0.02098c-0.0563,-0.14211 -0.03858,-0.26945 0.03244,-0.39384c0.11249,-0.10072 0.23982,-0.08299 0.37901,-0.08599c0.1066,0.00589 0.21321,0.01177 0.31981,0.01767c0.08888,0.13322 0.12444,0.26351 0.05047,0.44119z" fill="#b6cccc"/><path d="M171.29355,275.17956c0.1185,0.17762 0.19554,0.33158 0.21633,0.53589c-0.24872,0.05042 -0.47971,-0.0265 -0.68107,-0.05901c-0.14218,-0.13617 -0.11262,-0.28424 -0.11562,-0.42341c0.05625,-0.05036 0.07992,-0.09182 0.10066,-0.07999c0.1599,0.00883 0.31981,0.01767 0.47971,0.0265z" fill="#b7cdce"/><path d="M173.70389,275.09886c-0.32275,0.03563 -0.50934,-0.0709 -0.7196,-0.13599c-0.24284,-0.05618 -0.25473,-0.22793 -0.27552,-0.43224c0.24872,-0.05042 0.45897,0.01466 0.67218,0.02645c0.18364,0.15985 0.12746,0.40267 0.32294,0.54178z" fill="#b6cccc"/><path d="M165.99743,279.49558c0.10961,0.14506 0.13628,0.24276 0.11856,0.3701c-0.0503,0.13623 -0.18057,0.1718 -0.30196,0.23994c-0.10954,0.04742 -0.21314,0.18069 -0.3701,0.11856c-0.06519,-0.17468 -0.09783,-0.35827 -0.03275,-0.56853c0.20725,-0.07409 0.39083,-0.10672 0.58626,-0.16008z" fill="#bbd2d3"/><path d="M177.25759,276.19337c-0.3701,0.11856 -0.3701,0.11856 -0.78173,0.02098c-0.10667,-0.19836 -0.03269,-0.37606 0.01165,-0.59816c0.32575,0.10354 0.53608,0.36109 0.77007,0.57718z" fill="#adc2c3"/><path d="M168.94865,276.20484c0.08593,0.18653 0.14224,0.32865 0.16304,0.53295c-0.19836,0.10667 -0.42046,0.06232 -0.65733,0.092c-0.03852,-0.07697 -0.05631,-0.14211 -0.0741,-0.20725c-0.01779,-0.06514 -0.00301,-0.13916 -0.00895,-0.22504c0.16874,-0.15108 0.35232,-0.18369 0.57737,-0.19266z" fill="#bbd1d2"/><path d="M165.34723,283.52292c0.18664,0.29902 0.34072,0.60693 0.50663,0.8941c-0.1036,0.13328 -0.21314,0.18069 -0.40562,0.18076c-0.10967,-0.33753 -0.21933,-0.67508 -0.23129,-1.03929c0.06514,-0.01779 0.09771,-0.02668 0.13027,-0.03557z" fill="#acc1c2"/><path d="M167.8324,276.47466c0.10072,0.11249 0.10373,0.25167 0.09489,0.41157c-0.20725,0.07409 -0.41452,0.14818 -0.62177,0.22228c-0.1185,-0.17762 -0.0682,-0.31387 0.01466,-0.45897c0.13322,-0.08888 0.32864,-0.14223 0.51223,-0.17486z" fill="#b7cdcd"/><path d="M165.96588,282.77651c-0.13322,0.08888 -0.23094,0.11556 -0.35827,0.09783c-0.12445,-0.2635 -0.26962,-0.53885 -0.26975,-0.92379c0.36428,0.18052 0.46505,0.48548 0.62801,0.82596z" fill="#b2c8c9"/><path d="M173.68677,277.15093c-0.28135,-0.13317 -0.5094,-0.26338 -0.72266,-0.46763c0.03846,-0.1155 0.12433,-0.12145 0.18653,-0.08593c0.15696,0.06214 0.32575,0.10354 0.48272,0.16567c0.16585,0.09471 0.15996,0.20131 0.05342,0.3879z" fill="#91a3a3"/><path d="M166.76961,277.32482c-0.16874,0.15108 -0.3227,0.22812 -0.52995,0.3022c0.07097,-0.31686 0.26339,-0.50939 0.40544,-0.75817c0.05036,0.05625 0.09183,0.07991 0.10072,0.11249c0.01484,0.11845 0.00895,0.22505 0.02379,0.34348z" fill="#a9bebf"/><path d="M173.2865,275.49282c0.31098,0.17757 0.5183,0.29595 0.7256,0.41433c0.04146,0.02368 0.05925,0.08882 0.02374,0.15101c-0.01184,0.02074 -0.05625,0.05036 -0.08882,0.05925c-0.27246,-0.1006 -0.5005,-0.23081 -0.66052,-0.62458z" fill="#94a5a6"/><path d="M176.14156,277.23307c-0.0119,-0.17174 0.00288,-0.24577 0.14499,-0.30208c0.17769,0.07397 0.37611,0.15978 0.54792,0.34036c-0.2635,0.12445 -0.47082,0.00607 -0.69292,-0.03828z" fill="#abbfc0"/><path d="M172.27053,274.52781c-0.01772,0.12734 -0.02067,0.18064 -0.04435,0.2221c-0.42046,0.06232 -0.42046,0.06232 -0.67519,-0.16561c0.24276,-0.13628 0.45009,-0.01791 0.71953,-0.05649z" fill="#acc0c1"/><path d="M168.85672,275.73997c-0.14211,0.0563 -0.23982,0.08299 -0.36716,0.06526c-0.05925,-0.08882 -0.06519,-0.17468 -0.02674,-0.29019c0.09176,-0.11255 0.24276,-0.13628 0.39378,-0.16003c0.10072,0.11249 0.05042,0.24872 0.00013,0.38495z" fill="#aec2c3"/><path d="M165.71584,278.59251c0.22222,0.42929 0.23111,0.46187 -0.21302,0.56564c0.05323,-0.18953 0.03244,-0.39384 0.21302,-0.56564z" fill="#869696"/><path d="M173.94954,274.71679c0.36716,-0.06527 0.39677,-0.02085 0.26957,0.34637c-0.16879,-0.0414 -0.2251,-0.18352 -0.26957,-0.34637z" fill="#8b9b9c"/><path d="M167.25244,287.35995c0.24284,0.05618 0.39685,0.17163 0.55086,0.28706c-0.00883,0.1599 -0.08581,0.19843 -0.16873,0.15107c-0.16585,-0.09471 -0.31987,-0.21014 -0.38213,-0.43813z" fill="#9aacad"/><path d="M170.70412,274.62305c0.17468,-0.06519 0.30791,-0.15407 0.46192,-0.03864c0.02074,0.01184 0.02963,0.0444 0.01779,0.06514c-0.148,0.16291 -0.29607,0.13335 -0.47971,-0.0265z" fill="#5f6a6b"/><path d="M167.68422,276.06014c0.02067,-0.18064 0.10059,-0.27245 0.31379,-0.26068c-0.01177,0.21321 -0.12132,0.26062 -0.31379,0.26068z" fill="#4a5354"/><g><path d="M177.50755,289.6694c-0.19242,0.19253 -0.39378,0.16003 -0.62477,0.08311c-0.35538,-0.14794 -0.67525,-0.35809 -1.01879,-0.52676c-0.09771,0.02668 -0.19542,0.05336 -0.2724,0.09188c-1.68762,0.74082 -3.41693,0.68804 -5.17299,0.3451c-0.37016,-0.07392 -0.75217,-0.1271 -1.08387,-0.3165c-0.0622,-0.03551 -0.15696,-0.06214 -0.2221,-0.04435c-0.35827,0.09783 -0.62778,-0.05607 -0.92985,-0.20107c-0.26062,-0.12132 -0.49755,-0.28411 -0.74634,-0.42617c-0.14513,-0.08286 -0.26658,-0.2072 -0.29919,-0.39078c-0.03263,-0.18358 -0.16297,-0.34048 -0.27257,-0.48554c-0.71683,-0.76671 -1.2886,-1.64302 -1.72715,-2.60822c-0.23706,-0.54774 -0.35568,-1.11031 -0.46247,-1.69362c-0.31145,-1.71736 -0.10173,-3.38454 0.49,-4.99854c0.27516,-0.7226 0.66582,-1.40674 1.1394,-2.04353c0.35814,-0.48278 0.83774,-0.84122 1.32623,-1.16709c1.55427,-1.03689 3.29825,-1.4431 5.15491,-1.37261c0.35237,0.00878 0.7107,0.10341 1.06903,0.19807c0.24284,0.05618 0.47677,0.0798 0.71953,-0.05649c0.2102,-0.12739 0.44414,-0.10378 0.67513,-0.02686c0.35538,0.14794 0.68709,0.33735 1.01879,0.52676c0.10365,0.05919 0.16291,0.148 0.22216,0.23682c0.18369,0.35232 0.45916,0.59209 0.77903,0.80223c0.69303,0.42322 1.22623,1.03008 1.77126,1.61623c0.20143,0.22498 0.39102,0.4707 0.5362,0.74604c0.4859,0.88227 0.91849,1.76159 1.12016,2.75646c0.31098,0.17757 0.63084,0.38771 0.96256,0.57712c0.12439,0.07102 0.26951,0.15389 0.2814,0.32564c0.02374,0.15101 0.15996,0.20131 0.28436,0.27233c0.81742,0.49425 1.64669,0.96779 2.46412,1.46203c1.83327,1.07432 3.68728,2.16047 5.49687,3.27626c1.76814,1.0921 3.57179,2.12202 5.3636,3.17266c0.29024,0.16573 0.53608,0.36109 0.82632,0.52682c1.40975,0.80499 2.8195,1.60998 4.2174,2.4357c0.24878,0.14206 0.52124,0.24265 0.67826,0.49725c0.05925,0.08882 0.17475,0.12728 0.2784,0.18647c1.03658,0.5919 2.08205,1.21638 3.11863,1.80829c0.04146,0.02368 0.10365,0.05919 0.14513,0.08286c0.34354,0.16868 0.42653,0.4085 0.40592,0.78161c-0.07956,1.24666 -0.53524,2.33355 -1.36703,3.26063c-0.21608,0.234 -0.47364,0.44432 -0.76082,0.61023c-0.2102,0.12739 -0.42341,0.11561 -0.64256,0.01797c-0.65746,-0.29295 -1.32677,-0.56516 -2.00496,-0.86994c-0.47977,-0.21897 -0.9566,-0.49125 -1.47188,-0.64803c-1.12534,-0.34018 -2.12934,-0.94098 -3.21916,-1.34335c-0.6071,-0.2367 -1.21716,-0.4201 -1.81243,-0.67754c-0.63673,-0.28111 -1.27641,-0.50892 -1.90424,-0.75746c-1.14018,-0.45862 -2.27741,-0.97054 -3.42942,-1.40843c-1.53108,-0.54438 -3.01479,-1.17167 -4.49851,-1.79896c-0.51234,-0.21009 -1.02469,-0.42017 -1.53703,-0.63024c-0.79369,-0.34323 -1.60811,-0.69832 -2.4018,-1.04157c-0.43831,-0.19529 -0.87956,-0.33729 -1.31787,-0.53259c-0.47088,-0.1864 -0.86478,-0.41133 -1.34455,-0.63031zM177.51326,288.98538c0.26645,-0.17775 0.49144,-0.37918 0.66606,-0.63685c0.49437,-0.43247 0.85546,-0.96856 1.21656,-1.50464c0.46469,-0.66937 0.85829,-1.4068 1.24006,-2.12351c0.44095,-0.82037 0.63908,-1.69693 0.82831,-2.60605c0.00589,-0.1066 0.01177,-0.21321 0.02062,-0.37311c-0.16585,-0.09471 -0.33171,-0.18941 -0.49755,-0.28411c-0.04146,-0.02368 -0.09476,-0.02662 -0.1688,-0.04141c-0.08286,0.14513 -0.14499,0.30208 -0.1864,0.47088c-0.07986,0.2843 -0.18935,0.52419 -0.26921,0.80848c-0.23075,0.69298 -0.65993,1.30014 -0.95288,1.95761c-0.16868,0.34354 -0.2959,0.71076 -0.50603,1.03063c-0.47653,0.69009 -0.84939,1.43937 -1.40885,2.08212c-0.148,0.16291 -0.30785,0.34654 -0.45586,0.50945c-0.17174,0.0119 -0.22499,0.20143 -0.32564,0.2814c-0.13322,0.08888 -0.26644,0.17774 -0.37593,0.41763c0.35237,0.00878 0.58638,0.22486 0.8825,0.284c0.07991,-0.09183 0.25167,-0.10372 0.29307,-0.27252zM178.69166,288.55861c-0.45886,0.37028 -0.55062,0.48283 -0.66304,0.77602c0.26062,0.12132 0.5005,0.2308 0.76111,0.35214c0.14513,0.08286 0.29613,0.05913 0.42935,-0.02975c0.08882,-0.05925 0.148,-0.16291 0.23682,-0.22216c0.3227,-0.22812 0.58614,-0.54503 0.75481,-0.88857c0.18653,-0.08593 0.28122,-0.25178 0.37593,-0.41763c0.55345,-0.92109 1.11578,-1.8096 1.56557,-2.78987c0.19529,-0.43831 0.36987,-0.88845 0.51186,-1.3297c0.09464,-0.35833 0.20112,-0.73738 0.0944,-1.12822c-0.26951,-0.15389 -0.53902,-0.30779 -0.80853,-0.46168c-0.05323,0.18953 -0.09464,0.35833 -0.12421,0.5064c-0.16561,0.67519 -0.37269,1.3267 -0.66269,1.93085c-0.36397,0.78185 -0.83161,1.50451 -1.27852,2.23901c-0.20125,0.35244 -0.51505,0.61311 -0.69556,0.97739c-0.25167,0.10372 -0.39078,0.29919 -0.49732,0.48578zM203.23386,299.16367c0.29013,-0.21921 0.47659,-0.49762 0.62158,-0.7997c0.03257,-0.00889 0.07697,-0.03852 0.08882,-0.05925c0.26339,-0.50939 0.4853,-1.04247 0.55915,-1.6051c0.05024,-0.3287 0.12121,-0.64556 0.01154,-0.98309c-1.16097,-0.66293 -2.32195,-1.32587 -3.54511,-2.02432c-0.05607,0.62778 -0.23652,1.18452 -0.43771,1.72944c-0.16567,0.48272 -0.46463,0.86184 -0.67177,1.32087c-0.09471,0.16585 -0.19831,0.29914 -0.293,0.46499c-0.24571,0.18959 -0.46181,0.42358 -0.66012,0.72272c0.62195,0.35514 1.29713,0.52076 1.9013,0.81076c0.63673,0.28111 1.2853,0.54149 1.9013,0.81076c0.25167,-0.10372 0.38784,-0.24589 0.524,-0.38807zM198.77085,297.3025c0.18653,-0.08593 0.30196,-0.23994 0.39666,-0.40579c0.17762,-0.1185 0.26344,-0.31693 0.39071,-0.49167c0.3522,-0.56864 0.60073,-1.19648 0.79597,-1.82726c0.10648,-0.37906 0.1715,-0.7818 0.12991,-1.19041c-0.08294,-0.04735 -0.15401,-0.11543 -0.23695,-0.1628c-1.01585,-0.58008 -2.01096,-1.14829 -3.01498,-1.74909c-1.06621,-0.63631 -2.11169,-1.26079 -3.17789,-1.89709c-1.56376,-0.92042 -3.09495,-1.84974 -4.65872,-2.77017c-1.73851,-1.0477 -3.49181,-2.02137 -5.20663,-3.11053c-0.2784,-0.18646 -0.60121,-0.34331 -0.91219,-0.52088c-0.04729,0.2754 -0.04129,0.55374 -0.13004,0.80546c-0.22776,0.83215 -0.59173,1.614 -0.99717,2.37218c-0.37882,0.6634 -0.77837,1.31498 -1.17792,1.96655c-0.19536,0.24584 -0.35814,0.48278 -0.55351,0.72862c-0.21909,0.09482 -0.28418,0.30508 -0.42034,0.44727c-0.148,0.16291 -0.32564,0.2814 -0.4233,0.50055c0.18364,0.15985 0.37317,0.21308 0.53013,0.27522c1.35339,0.47041 2.63279,1.11849 3.95067,1.65108c0.84699,0.34619 1.69398,0.69237 2.55281,1.01784c1.14018,0.45862 2.27147,0.88466 3.39091,1.33145c0.92101,0.36098 1.84205,0.72195 2.75123,1.10364c0.98321,0.39649 1.93388,0.80187 2.90525,1.21908c0.88845,0.36987 1.79763,0.75157 2.71867,1.11255c0.12728,-0.17475 0.3227,-0.22812 0.39666,-0.40579zM174.94442,274.51513c-0.07386,0.56263 -0.23953,1.04535 -0.38447,1.53991c-0.15678,0.51529 -0.28099,1.02168 -0.4585,1.52512c-0.16567,0.48272 -0.38465,0.96249 -0.57105,1.43337c-0.19824,0.49161 -0.39649,0.98321 -0.62729,1.48372c-0.20714,0.45904 -0.44685,0.92697 -0.65398,1.38601c-0.2397,0.46793 -0.56233,0.88851 -0.71912,1.4038c-0.37299,0.36433 -0.55051,0.86779 -0.81982,1.29131c-0.3019,0.43242 -0.57418,0.90924 -0.87608,1.34166c-0.29006,0.41169 -0.6127,0.83227 -0.9235,1.23212c-0.32263,0.42059 -0.71635,0.77307 -0.97679,1.22917c0.47388,0.32558 0.619,0.40845 1.08688,0.45569c0.24571,-0.18959 0.49143,-0.37917 0.71935,-0.63391c0.26344,-0.31692 0.52689,-0.63385 0.8229,-0.95966c0.54761,-0.62201 1.06266,-1.23512 1.47699,-1.96072c0.28411,-0.49755 0.54749,-1.00696 0.91454,-1.45716c0.07991,-0.09183 0.15095,-0.21621 0.18052,-0.36428c0.07986,-0.2843 0.25449,-0.54197 0.39654,-0.79074c0.52088,-0.91219 0.91737,-1.89542 1.28128,-2.86973c0.50892,-1.27641 0.84904,-2.59421 1.12696,-3.94754c0.06803,-0.26356 0.13605,-0.52712 0.04417,-0.79952c-0.28729,-0.21903 -0.61012,-0.37587 -1.03952,-0.5386zM167.69478,281.48196c0.1748,0.31975 0.39696,0.55657 0.60729,0.81412c0.16886,0.23387 0.40579,0.39666 0.70194,0.4558c0.54785,0.14789 1.08093,0.3698 1.56664,0.67465c0.04146,0.02368 0.1155,0.03846 0.13623,0.0503c0.12138,-0.06814 0.16873,-0.15107 0.16573,-0.29024c-0.00889,-0.03257 -0.03852,-0.07697 -0.05925,-0.08882c-0.56569,-0.4055 -1.10772,-0.85246 -1.62608,-1.34089c-0.07109,-0.06809 -0.18364,-0.15985 -0.29024,-0.16573c-0.37906,-0.10648 -0.75811,-0.21297 -1.20225,-0.1092zM170.11497,284.5134c-0.52424,-0.38183 -1.00406,-0.79326 -1.45133,-1.21361c-0.14218,-0.13617 -0.29914,-0.19831 -0.5005,-0.2308c-0.30797,-0.03841 -0.59816,-0.01165 -0.90907,0.00323c-0.1066,-0.00589 -0.23394,-0.02361 -0.2635,0.12445c0.29325,0.30491 0.55392,0.6187 0.87084,0.88214c1.07198,0.14477 1.07198,0.14477 2.07893,0.69226c0.09771,-0.02668 0.1658,-0.09777 0.17463,-0.25767zM175.07956,280.5854c0.32582,0.29602 0.66347,0.57129 1.00113,0.84658c0.07109,0.06809 0.14218,0.13617 0.23694,0.16279c0.41457,0.04429 0.81731,0.10931 1.22887,0.01442c-0.10672,-0.39083 -0.38218,-0.6306 -0.60139,-0.92072c-0.10961,-0.14506 -0.24584,-0.19537 -0.42648,-0.21603c-0.42641,-0.02355 -0.82915,-0.08857 -1.24077,-0.18616c-0.02074,-0.01184 -0.06514,0.01779 -0.13027,0.03557c-0.01477,0.07403 -0.0414,0.16879 -0.06803,0.26356zM170.00021,277.30013c0.17781,0.45892 0.41775,0.76087 0.64587,1.08358c0.10072,0.11249 0.21621,0.15095 0.33171,0.18941c0.56859,0.15973 1.10166,0.38164 1.60811,0.69832c0.0622,0.03551 0.13623,0.0503 0.19842,0.08581c0.15095,-0.21621 0.15389,-0.26951 -0.01196,-0.36421c-0.53902,-0.30779 -0.99812,-0.7074 -1.35657,-1.18699c-0.21921,-0.29013 -0.47984,-0.41145 -0.80853,-0.46168c-0.19247,0.00006 -0.35237,-0.00878 -0.60705,-0.04423zM171.53259,282.07892c0.05919,-0.10365 -0.0119,-0.17174 -0.09482,-0.21909c-0.58049,-0.33146 -1.04553,-0.81695 -1.51058,-1.30242c-0.38507,-0.38483 -0.90924,-0.57418 -1.54291,-0.52364c0.10372,0.25167 0.29919,0.39078 0.42659,0.60097c0.27552,0.43224 0.66942,0.65716 1.13141,0.81101c0.50345,0.17751 1.01873,0.33429 1.45115,0.63619c0.07403,0.01477 0.1066,0.00589 0.13916,-0.00301zM169.19226,278.76318c0.17775,0.26645 0.28441,0.4648 0.40291,0.64245c0.18664,0.29902 0.42359,0.4618 0.76117,0.54461c0.46494,0.10053 0.90324,0.29583 1.3297,0.51186c0.15696,0.06214 0.32282,0.15683 0.46793,0.2397c0.07991,-0.09183 0.02957,-0.14807 -0.0119,-0.17174c-0.54203,-0.44696 -1.07221,-0.91466 -1.53432,-1.45344c-0.09183,-0.07991 -0.16291,-0.148 -0.2784,-0.18646c-0.34944,-0.06207 -0.68702,-0.14488 -1.13712,-0.12698zM175.61805,279.16094c0.44125,0.142 0.7789,0.41728 1.1284,0.67182c0.10365,0.05919 0.15107,0.16873 0.2784,0.18646c0.20136,0.03251 0.67513,-0.02686 0.99193,-0.14837c-0.12445,-0.2635 -0.34956,-0.44702 -0.53025,-0.66017c-0.15108,-0.16874 -0.32877,-0.24271 -0.55381,-0.23375c-0.38495,0.00012 -0.74621,-0.04122 -1.11344,-0.16844c-0.02074,-0.01184 -0.08587,0.00594 -0.11845,0.01484c-0.06809,0.07109 -0.11543,0.15401 -0.08281,0.3376zM172.93771,287.03245c0.36126,0.04134 0.70187,0.26332 1.07792,0.23064c0.06214,-0.15696 -0.00602,-0.27835 -0.04158,-0.40862c-0.08299,-0.23982 -0.11267,-0.47672 -0.28152,-0.71059c-0.4442,-0.08869 -0.83515,-0.36692 -1.28824,-0.48818c-0.12138,0.06814 -0.18057,0.1718 -0.19831,0.29914c0.2814,0.32564 0.51841,0.6809 0.73173,1.07762zM173.85741,283.15901c0.18364,0.15985 0.36728,0.31968 0.45321,0.50621c0.21038,0.45003 0.57466,0.63055 1.0218,0.66594c0.1599,0.00883 0.2843,0.07986 0.47971,0.0265c-0.08893,-0.3257 -0.23411,-0.60103 -0.37929,-0.87637c-0.03852,-0.07697 -0.12145,-0.12433 -0.23695,-0.1628c-0.35833,-0.09464 -0.68408,-0.19817 -1.04241,-0.29283c-0.0622,-0.03551 -0.16879,-0.0414 -0.29607,0.13334zM173.11162,284.4651c0.40874,0.34336 0.75235,0.70452 0.93016,1.16344c0.02668,0.09771 0.12144,0.12433 0.20438,0.17168c0.19842,0.08581 0.40869,0.15089 0.6663,0.13304c-0.12451,-0.45597 -0.30821,-0.80829 -0.51265,-1.17245c-0.06814,-0.12138 -0.15996,-0.20131 -0.29619,-0.2516c-0.25172,-0.08876 -0.49161,-0.19824 -0.74334,-0.287c-0.02074,-0.01184 -0.08587,0.00594 -0.11845,0.01485c-0.03551,0.0622 -0.07102,0.12439 -0.13022,0.22804zM171.91574,276.30459c-0.25467,-0.03546 -0.53007,-0.08275 -0.78473,-0.11821c-0.03257,0.00889 -0.06514,0.01779 -0.13028,0.03557c0.05637,0.33459 0.23411,0.60103 0.41481,0.81419c0.72555,0.22186 1.40964,0.42005 2.11451,0.82253c-0.16597,-0.47965 -0.58055,-0.52394 -0.81454,-0.74003c-0.29619,-0.2516 -0.54798,-0.53284 -0.79976,-0.81407zM167.0315,281.48809c-0.36716,0.06527 -0.71064,0.08905 -1.02149,0.29643c0.09777,0.1658 0.14223,0.32864 0.23111,0.46187c0.08888,0.13322 0.16592,0.28718 0.31103,0.37004c0.2221,0.04435 0.42935,-0.02975 0.63367,-0.05054c0.20431,-0.02079 0.40568,0.01172 0.60405,-0.09495c-0.24884,-0.33453 -0.48877,-0.63649 -0.75835,-0.98286zM169.3988,285.8639c-0.5746,-0.43807 -1.05737,-0.79621 -1.54015,-1.15436c-0.04146,-0.02368 -0.09181,-0.07992 -0.15696,-0.06214c-0.31092,0.0149 -0.63962,-0.03534 -0.93863,0.15131c0.24289,0.24866 0.46505,0.48548 0.69905,0.70157c0.63072,0.00276 1.23188,0.1536 1.9367,0.36361zM176.61418,283.00121c-0.03858,-0.26945 -0.22222,-0.42929 -0.34072,-0.60693c-0.12739,-0.2102 -0.2903,-0.3582 -0.56569,-0.4055c-0.37016,-0.07392 -0.74032,-0.14783 -1.04835,-0.3787c-0.12433,0.12145 -0.15095,0.21621 -0.02656,0.28724c0.29914,0.19831 0.619,0.40845 0.81748,0.68673c0.29919,0.39078 0.70487,0.40249 1.16385,0.41715zM174.98612,284.7932c0.19855,0.47076 0.33784,0.8527 0.48896,1.21391c0.14513,0.08286 0.26356,0.06803 0.37016,0.07392c0.11845,-0.01484 0.2665,0.01472 0.39083,-0.10672c-0.03563,-0.32275 -0.12457,-0.64846 -0.24607,-0.96526c-0.30503,-0.09169 -0.60116,-0.15083 -1.00389,-0.21584zM177.86053,282.11841c-0.41752,0.00901 -0.78173,0.02098 -1.16668,0.0211c0.18664,0.29902 0.35256,0.5862 0.51848,0.87337c0.35237,0.00878 0.66035,0.04717 0.98899,-0.09506c-0.08004,-0.29312 -0.21633,-0.53589 -0.34078,-0.7994zM166.9363,280.11417c-0.01767,0.31981 0.21633,0.53589 0.35261,0.77867c0.03852,0.07697 0.15401,0.11543 0.23989,0.10948c0.27835,-0.00602 0.52411,-0.00313 0.78173,-0.02098c0.02074,0.01184 0.0444,-0.02963 0.06808,-0.07108c-0.20738,-0.31085 -0.44732,-0.61281 -0.6547,-0.92367c-0.2665,-0.01472 -0.52706,0.05643 -0.78762,0.12758zM169.39021,277.30921c-0.2754,-0.04729 -0.53007,-0.08275 -0.80541,0.06243c0.09188,0.27239 0.16008,0.58626 0.34968,0.83197c0.18064,0.02067 0.3376,0.08281 0.50934,0.0709c0.1599,0.00883 0.31392,0.12427 0.48266,-0.02681c-0.1748,-0.31975 -0.34961,-0.63949 -0.53625,-0.93851zM178.08836,281.47873c0.23394,0.02361 0.44414,-0.10377 0.67508,-0.21933c-0.15407,-0.30791 -0.22228,-0.62177 -0.46516,-0.87043c-0.26056,0.07115 -0.5478,0.04459 -0.84387,0.17793c0.20738,0.31085 0.42659,0.60097 0.63397,0.91182zM176.02029,277.68616c0.36134,0.23382 0.79074,0.39654 1.1284,0.67182c0.28729,0.21903 0.53601,0.16862 0.84392,0.01454c-0.14518,-0.27533 -0.34956,-0.44702 -0.56282,-0.65127c-0.4856,0.0801 -0.93868,-0.04117 -1.40951,-0.0351zM168.44562,286.85915c0.02662,-0.09476 -0.03557,-0.13027 -0.09777,-0.1658c-0.25767,-0.17462 -0.54792,-0.34036 -0.79375,-0.53572c-0.34655,-0.30784 -0.67224,-0.21892 -1.05418,-0.07963c0.12145,0.12433 0.20143,0.22499 0.29325,0.30491c0.21327,0.20425 0.42948,0.3552 0.76407,0.29883c0.20431,-0.02079 0.41457,0.04429 0.6041,0.09753c0.07109,0.06809 0.15108,0.16874 0.2843,0.07986zM172.89072,288.27022c-0.02374,-0.15101 -0.07115,-0.26056 -0.09782,-0.35826c-0.04747,-0.30201 -0.19855,-0.47076 -0.47101,-0.57135c-0.23099,-0.07692 -0.4472,-0.22787 -0.66635,-0.32552c-0.0622,-0.03551 -0.11255,-0.09176 -0.21615,0.04152c0.23105,0.26939 0.43843,0.58024 0.60139,0.92072c0.03852,0.07697 0.14218,0.13617 0.2251,0.18352c0.18953,0.05323 0.35833,0.09464 0.62484,0.10936zM176.87198,283.56079c-0.25467,-0.03546 -0.51823,-0.10348 -0.78768,-0.06491c0.10967,0.33753 0.16603,0.67213 0.35268,0.97115c0.27835,-0.00602 0.52117,0.05018 0.77578,-0.10684c-0.09188,-0.27239 -0.15119,-0.55368 -0.34078,-0.7994zM169.06223,279.56864c-0.10967,-0.33753 -0.28742,-0.60398 -0.48884,-0.82896c-0.27835,0.00602 -0.52411,0.00313 -0.81724,0.08317c0.02968,0.23687 0.13635,0.43523 0.27558,0.62472c0.34055,0.02951 0.66925,0.07974 1.03051,0.12108zM176.77203,285.95045c0.21616,-0.04153 0.35532,-0.04453 0.49743,-0.10084c0.09771,-0.02668 0.17468,-0.06519 0.25167,-0.10372c0.01472,-0.2665 -0.02386,-0.53596 -0.16014,-0.77873c-0.2665,-0.01472 -0.53302,-0.02945 -0.79652,0.095c0.08004,0.29312 0.11861,0.56257 0.20756,0.88827zM170.74081,287.89483c0.11856,0.3701 0.18971,0.63066 0.29048,0.93563c0.07109,0.06809 0.22805,0.13022 0.38795,0.13905c0.14807,0.02957 0.26951,0.15389 0.4442,0.08869c0.04435,-0.2221 0.01172,-0.40568 -0.07421,-0.5922c-0.34354,-0.16868 -0.65452,-0.34625 -1.04841,-0.57116zM165.79072,281.30193c0.16285,-0.04447 0.3257,-0.08893 0.48854,-0.1334c0.16285,-0.04447 0.30496,-0.10078 0.46781,-0.14524c-0.14518,-0.27533 -0.22817,-0.51517 -0.43255,-0.68685c-0.1599,-0.00883 -0.27239,0.09188 -0.39378,0.16003c-0.12138,0.06814 -0.30496,0.10078 -0.36709,0.25773c0.07409,0.20725 0.10672,0.39083 0.23706,0.54774zM178.35251,283.47149c-0.30201,0.04747 -0.61,0.00907 -0.91789,0.16315c0.08299,0.23982 0.17781,0.45892 0.2608,0.69874c0.30201,-0.04747 0.55963,-0.06532 0.80535,-0.2549c-0.02079,-0.20431 -0.00012,-0.38495 -0.14825,-0.60699zM167.14187,284.13531c-0.30214,-0.33747 -0.57466,-0.63055 -0.84718,-0.92361c-0.17174,0.0119 -0.33164,0.00306 -0.45597,0.12451c0.09783,0.35827 0.32888,0.62765 0.5481,0.91778c0.17174,-0.0119 0.34348,-0.02379 0.50633,-0.06826c0.09476,0.02662 0.13916,-0.00301 0.24872,-0.05042zM175.16729,286.54614c-0.29907,-0.00583 -0.54785,-0.14789 -0.80841,-0.07673c0.07709,0.34643 0.1453,0.66028 0.29938,0.9682c0.22799,-0.06226 0.43531,0.05613 0.67808,-0.08016c0.01472,-0.2665 -0.10084,-0.49743 -0.16904,-0.8113zM170.38773,276.09187c-0.31981,-0.01767 -0.60705,-0.04423 -0.85871,0.05949c0.04153,0.21616 0.11561,0.42341 0.23411,0.60103c0.31981,0.01767 0.62778,0.05607 0.98905,0.09741c-0.15702,-0.25461 -0.25184,-0.47369 -0.36446,-0.75794zM173.406,288.42699c0.31686,0.07097 0.58043,0.13899 0.86466,0.02638c-0.00895,-0.22505 -0.00901,-0.41752 -0.12751,-0.59514c-0.29613,-0.05913 -0.58043,-0.13899 -0.92985,-0.20107c0.03858,0.26945 0.089,0.51817 0.19271,0.76984zM168.36889,278.18305c-0.16592,-0.28718 -0.16008,-0.58626 -0.36446,-0.75794c-0.27835,0.00602 -0.49743,0.10084 -0.70764,0.22823c0.05042,0.24872 0.0801,0.4856 0.27264,0.67802c0.24872,-0.05042 0.48561,-0.0801 0.79946,-0.1483zM178.95901,281.78346c-0.22799,0.06226 -0.4323,0.08305 -0.62177,0.22228c0.14518,0.27533 0.16008,0.58626 0.38224,0.82307c0.21616,-0.04153 0.3701,-0.11856 0.49738,-0.29331c-0.07115,-0.26056 -0.17486,-0.51223 -0.25785,-0.75205zM166.22415,284.87587c-0.23687,0.02968 -0.37901,0.08599 -0.52406,0.1956c0.08299,0.23982 0.21927,0.48259 0.46805,0.62465c0.19542,-0.05336 0.39083,-0.10672 0.60699,-0.14825c-0.13334,-0.29607 -0.37028,-0.45886 -0.55098,-0.672zM178.39206,277.33602c-0.17468,0.06519 -0.31681,0.1215 -0.40856,0.23406c0.13628,0.24276 0.29626,0.44407 0.50063,0.61576c0.18358,-0.03263 0.3257,-0.08893 0.45003,-0.21038c-0.12445,-0.2635 -0.36139,-0.4263 -0.54209,-0.63944zM178.01557,285.50589c0.31981,0.01767 0.43524,-0.13635 0.52106,-0.33477c0.08286,-0.14513 0.12427,-0.31392 -0.00607,-0.47082c-0.23687,0.02968 -0.45302,0.07121 -0.66322,0.1986c0.04153,0.21616 0.09488,0.41157 0.14825,0.60699zM172.49286,275.34206c-0.2221,-0.04435 -0.38795,-0.13905 -0.57447,-0.05312c0.11568,0.61588 0.56877,0.73715 1.12251,0.77843c-0.18959,-0.24571 -0.35845,-0.47959 -0.54804,-0.72531zM176.43781,287.16165c0.02361,-0.23394 -0.00902,-0.41752 -0.12457,-0.64846c-0.18653,0.08593 -0.40568,-0.01172 -0.58331,0.10678c-0.0503,0.13623 0.00895,0.22505 0.02379,0.34348c0.03557,0.13027 0.01784,0.25761 0.16297,0.34047c0.17174,-0.0119 0.34348,-0.02379 0.52112,-0.1423zM171.72194,281.55474c0.25461,-0.15702 0.28418,-0.30508 0.10943,-0.43236c-0.25767,-0.17462 -0.53902,-0.30779 -0.79963,-0.42911c-0.08294,-0.04735 -0.19842,-0.08581 -0.31092,0.0149c0.31398,0.31674 0.65163,0.59202 1.00113,0.84658zM179.67525,280.62543c0.14807,0.02957 0.25761,-0.01785 0.34938,-0.1304c-0.06821,-0.31386 -0.092,-0.65733 -0.31122,-0.94746c-0.26645,0.17775 -0.33153,0.38802 -0.20708,0.65151c0.03557,0.13027 0.02673,0.29018 0.16892,0.42636zM173.10093,278.65833c0.16573,-0.29024 0.15978,-0.37611 -0.02681,-0.48266c-0.30208,-0.14499 -0.62489,-0.30185 -0.97433,-0.36392c0.27847,0.37893 0.54804,0.72531 1.00113,0.84658zM176.95869,276.76496c0.15401,0.11543 0.29914,0.19831 0.43242,0.3019c0.2784,0.18646 0.2784,0.18646 0.59514,-0.12751c-0.12145,-0.12433 -0.25178,-0.28123 -0.32288,-0.34932c-0.26056,0.07115 -0.47671,0.11267 -0.70471,0.17493zM166.23985,278.20444c0.03263,0.18358 -0.03244,0.39384 0.1956,0.52406c0.17468,-0.06519 0.34047,-0.16297 0.54774,-0.23706c-0.04153,-0.21616 -0.05047,-0.44119 -0.18081,-0.59808c-0.18653,0.08593 -0.38195,0.13929 -0.56252,0.3111zM177.87437,278.96479c0.21032,0.25755 0.40881,0.53584 0.61912,0.79339c0.12734,0.01772 0.24577,0.00288 0.27533,-0.14518c-0.08004,-0.29312 -0.22522,-0.56847 -0.45922,-0.78456c-0.17174,0.0119 -0.30202,0.04747 -0.43524,0.13635zM170.17736,275.64184c0.06214,-0.15696 0.03841,-0.30797 -0.03864,-0.46192c-0.1066,-0.00589 -0.21321,-0.01177 -0.31981,-0.01767c-0.13916,0.00301 -0.2665,-0.01472 -0.37901,0.08599c-0.07102,0.12439 -0.08876,0.25172 -0.03244,0.39384c0.24577,0.00288 0.52411,-0.00313 0.7699,-0.00024zM167.43061,279.48921c-0.04153,-0.21616 -0.13929,-0.38195 -0.26962,-0.53885c-0.21909,0.09482 -0.42635,0.16892 -0.61288,0.25485c-0.03251,0.20136 0.04453,0.35532 0.15708,0.44708c0.24872,-0.05042 0.49743,-0.10084 0.72542,-0.16309zM171.29355,275.17956c-0.1599,-0.00883 -0.31981,-0.01767 -0.49155,-0.00577c-0.03257,0.00889 -0.05625,0.05036 -0.10066,0.07999c0.01484,0.11845 -0.01472,0.2665 0.11562,0.42341c0.20136,0.03251 0.43236,0.10943 0.68107,0.05901c-0.00895,-0.22505 -0.08599,-0.37901 -0.20449,-0.55663zM173.70389,275.09886c-0.21621,-0.15095 -0.12746,-0.40267 -0.33477,-0.52105c-0.21321,-0.01177 -0.41162,-0.09759 -0.67218,-0.02645c0.02079,0.20431 0.05342,0.3879 0.27552,0.43224c0.2221,0.04435 0.39685,0.17163 0.73144,0.11525zM179.49113,278.92581c-0.09777,-0.1658 -0.18369,-0.35232 -0.26074,-0.50627c-0.00889,-0.03257 -0.0622,-0.03551 -0.10365,-0.05919c-0.10065,0.07999 -0.2635,0.12445 -0.30784,0.34655c0.10667,0.19836 0.23406,0.40856 0.34961,0.63949c0.1658,-0.09777 0.25755,-0.21032 0.32263,-0.42059zM165.99743,279.49558c-0.19542,0.05336 -0.41157,0.09488 -0.57442,0.13935c-0.04435,0.2221 -0.01172,0.40568 0.03275,0.56853c0.15696,0.06214 0.26056,-0.07115 0.3701,-0.11856c0.10954,-0.04742 0.23982,-0.08299 0.30196,-0.23994c0.00589,-0.1066 -0.00895,-0.22504 -0.1304,-0.34937zM174.77111,288.49171c0.20431,-0.02079 0.35532,-0.04453 0.50633,-0.06826c0.05331,0.00295 0.10954,-0.04742 0.14211,-0.0563c0.08286,-0.14513 0.05913,-0.29613 -0.01791,-0.45009c-0.22505,0.00895 -0.43825,-0.00283 -0.66624,0.05943c-0.00883,0.1599 0.01491,0.31091 0.0357,0.51522zM177.25759,276.19337c-0.22216,-0.23682 -0.44432,-0.47364 -0.77007,-0.57718c-0.04435,0.2221 -0.11833,0.39979 -0.01165,0.59816c0.41162,0.09759 0.41162,0.09759 0.78173,-0.02098zM176.9293,286.97495c0.59514,-0.12751 0.60699,-0.14825 0.61276,-0.6398c-0.21616,0.04153 -0.42341,0.11561 -0.63956,0.15714c-0.06214,0.15696 -0.03841,0.30797 0.02681,0.48266zM168.94865,276.20484c-0.22505,0.00895 -0.40862,0.04158 -0.58626,0.16008c-0.00295,0.05331 0.00301,0.13916 0.00895,0.22504c0.01779,0.06514 0.05631,0.14211 0.0741,0.20725c0.22505,-0.00895 0.45897,0.01466 0.65733,-0.092c0.00883,-0.1599 -0.05637,-0.33459 -0.15414,-0.50038zM173.08643,289.17923c-0.00594,-0.08587 -0.02079,-0.2043 -0.07115,-0.26056c-0.19253,-0.19242 -0.42353,-0.26934 -0.73444,-0.25443c0.0119,0.17174 -0.04134,0.36126 0.04754,0.49449c0.25467,0.03546 0.49456,0.14494 0.75806,0.0205zM165.34723,283.52292c-0.03257,0.00889 -0.06514,0.01779 -0.13027,0.03557c0.01196,0.36421 0.12162,0.70175 0.23129,1.03929c0.18064,0.02067 0.29019,-0.02674 0.40562,-0.18076c-0.16592,-0.28718 -0.31999,-0.59509 -0.50663,-0.8941zM171.5969,279.36651c0.23994,0.30196 0.44732,0.61281 0.8116,0.79334c0.02074,0.01184 0.10954,-0.04742 0.13322,-0.08888c0.05919,-0.10365 0.02361,-0.23394 -0.08004,-0.29312c-0.234,-0.21608 -0.52718,-0.32852 -0.86478,-0.41134zM167.8324,276.47466c-0.18358,0.03263 -0.36716,0.06526 -0.53295,0.16302c-0.08286,0.14513 -0.1006,0.27246 -0.01466,0.45897c0.20725,-0.07409 0.43524,-0.13635 0.62177,-0.22228c0.02957,-0.14807 0.01472,-0.2665 -0.07416,-0.39972zM179.06039,284.01315c0.18646,-0.2784 0.34925,-0.51535 0.34619,-0.84699c-0.2221,-0.04435 -0.3879,0.05342 -0.54479,0.18376c0.02968,0.23687 0.05047,0.44119 0.1986,0.66323zM170.55766,289.27477c-0.01785,-0.25761 -0.02673,-0.29018 -0.08893,-0.3257c-0.19548,-0.13911 -0.44125,-0.142 -0.6663,-0.13304c-0.08587,0.00594 -0.1658,0.09777 -0.07692,0.23099c0.25761,-0.01785 0.47977,0.21897 0.83215,0.22775zM165.96588,282.77651c-0.15407,-0.30791 -0.27558,-0.62472 -0.61618,-0.84668c-0.02062,0.37311 0.1453,0.66028 0.26975,0.92379c0.1155,0.03846 0.19247,-0.00006 0.34643,-0.07709zM175.89614,287.86953c0.00301,0.13916 -0.01472,0.2665 -0.01172,0.40568c0.24577,0.00288 0.46192,-0.03864 0.52995,-0.3022c0.01477,-0.07403 0.02957,-0.14807 -0.04152,-0.21615c-0.14807,-0.02957 -0.29018,0.02673 -0.47671,0.11267zM173.68677,277.15093c0.10655,-0.18659 0.11243,-0.29319 -0.06527,-0.36716c-0.15696,-0.06214 -0.31392,-0.12427 -0.48272,-0.16567c-0.07403,-0.01477 -0.1599,-0.00883 -0.18653,0.08594c0.21327,0.20425 0.44131,0.33446 0.7345,0.44691zM168.77366,284.79218c0.22216,0.23682 0.46799,0.43218 0.77302,0.52388c0.02074,0.01184 0.10954,-0.04742 0.12138,-0.06814c0.02368,-0.04146 -0.01484,-0.11845 -0.0563,-0.14211c-0.28135,-0.13317 -0.50646,-0.31668 -0.83809,-0.31362zM168.91031,286.18978c-0.24284,-0.05618 -0.47088,-0.1864 -0.76995,-0.19223c0.21032,0.25755 0.41469,0.42924 0.5746,0.43807c0.14807,0.02957 0.19542,-0.05336 0.19536,-0.24584zM179.9599,281.86014c0.07986,-0.2843 0.2456,-0.57453 0.07968,-0.86171c-0.37893,0.27847 -0.21302,0.56564 -0.07968,0.86171zM176.02102,279.99585c0.02368,-0.04146 0.01477,-0.07403 0.03846,-0.1155c-0.21915,-0.09765 -0.35839,-0.28712 -0.60416,-0.29c-0.09176,0.11255 -0.10655,0.18659 -0.03841,0.30797c0.18064,0.02067 0.382,0.05318 0.6041,0.09753zM170.36003,282.20661c0.25473,0.22793 0.4591,0.39961 0.71972,0.52093c0.04146,0.02368 0.1066,0.00589 0.14211,-0.0563c0.01184,-0.02074 0.01477,-0.07403 0.00589,-0.1066c-0.22216,-0.23682 -0.47093,-0.37887 -0.86773,-0.35803zM173.53646,288.96885c-0.02957,0.14807 -0.02361,0.23394 0.06226,0.22799c0.18064,0.02067 0.37311,0.02062 0.56558,0.02055c0.11845,-0.01484 0.15396,-0.07704 0.10655,-0.18659c-0.26356,-0.06803 -0.48566,-0.11238 -0.73438,-0.06196zM166.76961,277.32482c-0.01484,-0.11845 -0.00895,-0.22505 -0.02379,-0.34348c-0.00889,-0.03257 -0.05036,-0.05625 -0.10072,-0.11249c-0.14206,0.24878 -0.33447,0.4413 -0.40544,0.75817c0.20725,-0.07409 0.34938,-0.1304 0.52995,-0.3022zM172.68545,285.21144c0.21915,0.09765 0.41758,0.18346 0.6782,0.30479c-0.08893,-0.3257 -0.24001,-0.49443 -0.45916,-0.59209c-0.12138,0.06814 -0.17762,0.1185 -0.21903,0.28729zM175.88431,278.40577c0.19247,-0.00006 0.39685,0.17163 0.65145,0.01461c-0.46204,-0.34631 -0.5657,-0.4055 -0.66635,-0.32552c-0.05919,0.10365 -0.05324,0.18954 0.0149,0.31092zM169.69121,283.47418c0.16892,0.42635 0.4177,0.5684 0.77602,0.66304c-0.08305,-0.4323 -0.46799,-0.43219 -0.77602,-0.66304zM173.2865,275.49282c0.16003,0.39378 0.38807,0.524 0.66052,0.62458c0.02074,0.01184 0.06514,-0.01779 0.08882,-0.05925c0.03551,-0.0622 0.01772,-0.12734 -0.02374,-0.15101c-0.19548,-0.13911 -0.41463,-0.23676 -0.7256,-0.41433zM176.14156,277.23307c0.2221,0.04435 0.44125,0.142 0.70476,0.01754c-0.1718,-0.18057 -0.37023,-0.26639 -0.54792,-0.34036c-0.13322,0.08888 -0.15985,0.18364 -0.15683,0.32282zM172.27053,274.52781c-0.26945,0.03858 -0.4975,-0.09164 -0.6988,0.06832c0.25473,0.22793 0.25473,0.22793 0.67519,0.16561c0.00295,-0.05331 0.00589,-0.1066 0.02361,-0.23394zM179.11868,281.0224c0.10354,-0.32575 -0.00018,-0.57742 -0.13646,-0.82019c-0.1599,-0.00883 -0.20725,0.07409 -0.18057,0.1718c0.10667,0.19836 0.20148,0.41746 0.31705,0.64839zM168.85672,275.73997c0.0503,-0.13623 0.08875,-0.25173 -0.00013,-0.38495c-0.15101,0.02374 -0.30201,0.04747 -0.39378,0.16003c-0.03846,0.1155 -0.03251,0.20136 0.02674,0.29019c0.12734,0.01772 0.22505,-0.00895 0.36716,-0.06526zM174.75446,282.59907c-0.13034,-0.15691 -0.23105,-0.26939 -0.37912,-0.29895c-0.05331,-0.00295 -0.09771,0.02668 -0.14211,0.0563c-0.03551,0.0622 -0.04141,0.16879 0.03263,0.18358c0.12439,0.07102 0.26951,0.15389 0.4886,0.05906zM165.71584,278.59251c-0.16874,0.15108 -0.15978,0.37611 -0.21302,0.56564c0.41157,-0.09489 0.43523,-0.13635 0.21302,-0.56564zM168.22664,287.33891c-0.26363,-0.26051 -0.26363,-0.26051 -0.49456,-0.14494c0.10072,0.11249 0.22216,0.23682 0.49456,0.14494zM174.91684,281.01483c-0.10954,0.04742 -0.14506,0.10961 -0.11543,0.15401c0.10667,0.19836 0.18069,0.21314 0.47382,0.1331c-0.10961,-0.14506 -0.234,-0.21609 -0.35839,-0.28712zM173.94954,274.71679c0.04447,0.16285 0.10078,0.30496 0.26957,0.34637c0.12721,-0.36723 0.09759,-0.41163 -0.26957,-0.34637zM167.25244,287.35995c0.07409,0.20725 0.22812,0.3227 0.36139,0.42629c0.08294,0.04735 0.18064,0.02067 0.16873,-0.15107c-0.13328,-0.1036 -0.28729,-0.21903 -0.53013,-0.27522zM170.70412,274.62305c0.18364,0.15985 0.3228,0.15684 0.45897,0.01466c0,0 0.00295,-0.0533 -0.01779,-0.06514c-0.11255,-0.09176 -0.2665,-0.01472 -0.44119,0.05047zM173.79546,283.89338c0.02957,-0.14807 -0.02968,-0.23687 -0.12445,-0.2635c-0.04146,-0.02368 -0.1066,-0.00589 -0.15101,0.02374c-0.0444,0.02963 -0.03846,0.1155 0.00301,0.13916c0.05036,0.05625 0.13328,0.1036 0.27246,0.1006zM167.68422,276.06014c0.19247,-0.00006 0.30201,-0.04747 0.31379,-0.26068c-0.22505,0.00895 -0.31386,0.06821 -0.31379,0.26068z" fill="#000000"/><path d="M180.95093,288.30917c0.39955,-0.65158 0.79911,-1.30314 1.17792,-1.96655c0.42617,-0.74634 0.76941,-1.54002 0.99717,-2.37218c0.06803,-0.26356 0.0709,-0.50934 0.13005,-0.80547c0.33171,0.18941 0.63379,0.33441 0.91219,0.52088c1.6941,1.07732 3.46812,2.06283 5.20663,3.11053c1.55192,0.94116 3.09495,1.84974 4.65872,2.77017c1.06621,0.63631 2.11169,1.26079 3.17789,1.89709c1.00401,0.60079 2.01096,1.14829 3.01498,1.74909c0.08294,0.04735 0.16585,0.09471 0.23694,0.16279c0.06232,0.42046 -0.0116,0.79063 -0.12991,1.19041c-0.19524,0.63078 -0.44378,1.25861 -0.79597,1.82726c-0.10655,0.18659 -0.19235,0.385 -0.39071,0.49167c0.06508,-0.21026 0.24565,-0.38206 0.27221,-0.6693c-0.41457,-0.04429 -0.73149,-0.30773 -1.07504,-0.4764c-0.02074,-0.01184 -0.04145,-0.02368 -0.0533,-0.00295c-0.65446,-0.15377 -1.25568,-0.49708 -1.89534,-0.72489c-0.23099,-0.07692 -0.4975,-0.09164 -0.68114,-0.25148c-0.39096,-0.27822 -0.89139,-0.31656 -1.28235,-0.59479c-0.02074,-0.01184 -0.07403,-0.01477 -0.1155,-0.03846c-0.42941,-0.16274 -0.84994,-0.29289 -1.25568,-0.49708c-0.4561,-0.26043 -0.96544,-0.33135 -1.39785,-0.63325c-0.34055,-0.02951 -0.58638,-0.22486 -0.88845,-0.36987c-0.04146,-0.02368 -0.0622,-0.03551 -0.10365,-0.05919c-0.50934,-0.0709 -0.89735,-0.40243 -1.35933,-0.55627c-0.46199,-0.15384 -0.87368,-0.4439 -1.32382,-0.61846c-0.51234,-0.21009 -1.03946,-0.34613 -1.50151,-0.69243c-0.04146,-0.02368 -0.10365,-0.05919 -0.15696,-0.06214c-0.29907,-0.00583 -0.51234,-0.21009 -0.77296,-0.33141c-0.12439,-0.07102 -0.25767,-0.17462 -0.40574,-0.20419c-0.23394,-0.02361 -0.38795,-0.13905 -0.57454,-0.2456c-0.10365,-0.05919 -0.19548,-0.13911 -0.30208,-0.145c-0.34055,-0.02951 -0.6071,-0.2367 -0.87661,-0.3906c-0.10365,-0.05919 -0.19548,-0.13911 -0.30208,-0.14499c-0.28724,-0.02656 -0.50345,-0.17751 -0.73149,-0.30773c-0.37317,-0.21308 -0.8292,-0.28105 -1.19054,-0.51486c-0.05036,-0.05625 -0.14807,-0.02957 -0.2221,-0.04435z" fill="#87d7dc"/><path d="M180.95093,288.30917c0.07403,0.01477 0.17174,-0.0119 0.23395,0.02362c0.36134,0.23382 0.80554,0.32252 1.19054,0.51486c0.22804,0.13022 0.44426,0.28116 0.73149,0.30773c0.1066,0.00589 0.19842,0.08581 0.30209,0.14501c0.26951,0.15389 0.54792,0.34036 0.87662,0.39059c0.1066,0.00589 0.18659,0.10655 0.30209,0.14501c0.18659,0.10655 0.35244,0.20125 0.57454,0.2456c0.14807,0.02957 0.28135,0.13317 0.40574,0.20419c0.26062,0.12132 0.47388,0.32558 0.77296,0.33141c0.05331,0.00295 0.1155,0.03846 0.15696,0.06214c0.44131,0.33448 0.98917,0.48236 1.50151,0.69243c0.47088,0.1864 0.88257,0.47646 1.32382,0.61846c0.46199,0.15384 0.84999,0.48537 1.35933,0.55627c0.03257,-0.00889 0.0622,0.03551 0.10365,0.05919c0.26951,0.15389 0.54792,0.34036 0.88845,0.36987c0.42059,0.32263 0.92993,0.39354 1.39785,0.63325c0.3939,0.22492 0.82626,0.33434 1.25568,0.49708c0.04146,0.02368 0.07403,0.01477 0.1155,0.03846c0.39096,0.27822 0.89139,0.31656 1.28235,0.59479c0.21621,0.15095 0.46199,0.15383 0.68115,0.25149c0.62784,0.24855 1.24089,0.57111 1.89534,0.72489c0.02074,0.01184 0.05331,0.00295 0.05331,0.00295c0.34354,0.16868 0.66047,0.43211 1.07504,0.4764c-0.01472,0.2665 -0.21603,0.42648 -0.27221,0.6693c-0.09471,0.16585 -0.18941,0.33171 -0.39666,0.40579c-0.12439,-0.07102 -0.25767,-0.17463 -0.40574,-0.20419c-0.51823,-0.10348 -0.94175,-0.3728 -1.4008,-0.57995c-0.45904,-0.20714 -0.97727,-0.31062 -1.39785,-0.63325c-0.34055,-0.02951 -0.58638,-0.22486 -0.88845,-0.36987c-0.04146,-0.02368 -0.10365,-0.05919 -0.15696,-0.06214c-0.24577,-0.00288 -0.42942,-0.16273 -0.62784,-0.24854c-0.10365,-0.05919 -0.20731,-0.11838 -0.30208,-0.145c-0.51529,-0.15678 -1.03946,-0.34613 -1.51629,-0.6184c-0.0622,-0.03551 -0.13328,-0.1036 -0.19842,-0.08581c-0.2665,-0.01472 -0.46199,-0.15384 -0.6693,-0.27221c-0.21621,-0.15095 -0.5064,-0.12421 -0.74334,-0.287c-0.31987,-0.21014 -0.69003,-0.28406 -1.04541,-0.432c-0.47977,-0.21897 -0.98617,-0.34318 -1.46299,-0.61547c-0.08294,-0.04735 -0.17474,-0.12727 -0.26062,-0.12132c-0.21321,-0.01177 -0.38795,-0.13905 -0.58638,-0.22486c-0.16585,-0.09471 -0.34354,-0.16868 -0.51234,-0.21008c-0.31686,-0.07097 -0.61005,-0.1834 -0.9003,-0.34913c-0.4472,-0.22787 -0.96544,-0.33135 -1.38602,-0.65398c-0.04146,-0.02368 -0.1155,-0.03846 -0.15696,-0.06214c-0.47088,-0.1864 -0.95359,-0.35208 -1.4008,-0.57995c-0.4561,-0.26043 -1.00689,-0.35502 -1.43932,-0.65692c-0.0622,-0.03551 -0.14807,-0.02957 -0.2221,-0.04435c-0.29319,-0.11243 -0.59526,-0.25744 -0.82926,-0.47353c0.03846,-0.1155 0.08581,-0.19842 0.11243,-0.29319c0.22793,-0.25473 0.41145,-0.47984 0.58607,-0.73751z" fill="#b0eef2"/><path d="M174.94442,274.51513c0.42941,0.16274 0.75223,0.31957 1.01585,0.58008c0.07115,0.26056 0.00313,0.52411 -0.04416,0.79952c-0.29866,1.34149 -0.61804,2.67113 -1.12696,3.94754c-0.38465,0.96249 -0.78113,1.94571 -1.28128,2.86973c-0.14206,0.24878 -0.31669,0.50645 -0.39654,0.79074c-0.03846,0.1155 -0.10948,0.23989 -0.18052,0.36428c-0.36704,0.45021 -0.6097,0.97143 -0.91453,1.45716c-0.42322,0.69303 -0.92938,1.33872 -1.47699,1.96072c-0.28418,0.30508 -0.54761,0.62201 -0.82289,0.95966c-0.20719,0.26657 -0.47364,0.44432 -0.71936,0.63391c-0.45604,-0.06796 -0.61299,-0.1301 -1.08688,-0.45569c0.28116,-0.44426 0.65415,-0.80859 0.97679,-1.22917c0.31079,-0.39985 0.63343,-0.82043 0.9235,-1.23212c0.3019,-0.43242 0.5949,-0.89741 0.87608,-1.34166c0.29006,-0.41169 0.46757,-0.91513 0.81982,-1.29131c0.15678,-0.51529 0.47942,-0.93587 0.71912,-1.4038c0.22787,-0.4472 0.44684,-0.92697 0.65398,-1.38602c0.21897,-0.47977 0.41722,-0.97138 0.62729,-1.48372c0.1864,-0.47088 0.40538,-0.95064 0.57105,-1.43337c0.17751,-0.50345 0.30172,-1.00984 0.4585,-1.52512c0.16862,-0.53601 0.33429,-1.01873 0.40814,-1.58137z" fill="#d1eaeb"/><path d="M180.39742,289.03778c-0.02662,0.09476 -0.07397,0.1777 -0.11243,0.29319c0.234,0.21608 0.5035,0.36999 0.82926,0.47353c0.07403,0.01477 0.1599,0.00883 0.2221,0.04435c0.43242,0.3019 0.97139,0.41722 1.43932,0.65692c0.43536,0.2486 0.92993,0.39354 1.4008,0.57995c0.04146,0.02368 0.1155,0.03846 0.15696,0.06214c0.42059,0.32263 0.92993,0.39354 1.38602,0.65398c0.26951,0.15389 0.58343,0.27817 0.9003,0.34913c0.18953,0.05323 0.36723,0.12721 0.51234,0.21008c0.18659,0.10655 0.3406,0.22198 0.58638,0.22486c0.08587,-0.00594 0.17769,0.07397 0.26062,0.12132c0.4561,0.26043 0.98321,0.39649 1.46299,0.61547c0.35538,0.14794 0.72555,0.22186 1.04541,0.432c0.21621,0.15095 0.50639,0.12421 0.74334,0.287c0.19548,0.13911 0.41169,0.29007 0.6693,0.27221c0.07403,0.01477 0.13623,0.0503 0.19842,0.08581c0.47683,0.27228 0.98027,0.44979 1.51629,0.6184c0.1155,0.03846 0.20731,0.11838 0.30208,0.14499c0.18659,0.10655 0.38206,0.24565 0.62784,0.24854c0.05331,0.00295 0.1155,0.03846 0.15696,0.06214c0.26951,0.15389 0.54792,0.34036 0.88845,0.36987c0.42059,0.32263 0.93881,0.42612 1.39785,0.63325c0.45904,0.20714 0.9033,0.48831 1.4008,0.57995c0.14807,0.02957 0.28135,0.13317 0.40574,0.20419c-0.08581,0.19842 -0.28123,0.25178 -0.38483,0.38507c-0.92993,-0.39354 -1.83021,-0.74267 -2.71867,-1.11255c-0.98321,-0.39649 -1.93387,-0.80187 -2.90525,-1.21908c-0.90919,-0.38171 -1.83021,-0.74266 -2.75123,-1.10364c-1.14018,-0.45862 -2.27146,-0.88467 -3.39091,-1.33145c-0.84699,-0.34619 -1.69399,-0.69238 -2.55281,-1.01784c-1.31787,-0.53259 -2.60911,-1.15994 -3.95066,-1.65108c-0.17769,-0.07397 -0.37906,-0.10649 -0.53013,-0.27522c0.10655,-0.18659 0.27528,-0.33765 0.42329,-0.50056c0.10065,-0.07999 0.16573,-0.29024 0.3641,-0.3969z" fill="#87d7dc"/><path d="M199.90183,296.76618c0.20714,-0.45904 0.48537,-0.84999 0.67177,-1.32087c0.20118,-0.54492 0.38164,-1.10166 0.43771,-1.72944c1.20242,0.68661 2.38413,1.36138 3.54511,2.02432c0.09783,0.35827 0.02686,0.67513 -0.01154,0.9831c-0.0857,0.58336 -0.3165,1.08387 -0.55915,1.6051c-0.01184,0.02074 -0.05625,0.05036 -0.08882,0.05925c-0.01785,-0.25761 -0.21921,-0.29013 -0.40874,-0.34336c-0.47382,-0.1331 -0.93581,-0.28694 -1.3386,-0.54443c-0.08294,-0.04735 -0.16585,-0.09471 -0.26062,-0.12132c-0.46494,-0.10053 -0.86773,-0.35803 -1.29714,-0.52076c-0.25172,-0.08876 -0.44125,-0.142 -0.68997,-0.09158z" fill="#61afb4"/><path d="M177.46255,287.7743c0.53872,-0.65457 0.93232,-1.39202 1.40885,-2.08212c0.21014,-0.31987 0.35809,-0.67525 0.50603,-1.03063c0.31368,-0.64563 0.72213,-1.26463 0.95288,-1.95761c0.1006,-0.27246 0.20118,-0.54492 0.26921,-0.80848c0.0414,-0.16879 0.10354,-0.32575 0.1864,-0.47088c0.07403,0.01477 0.12734,0.01772 0.16879,0.04141c0.16585,0.09471 0.33171,0.18941 0.49755,0.28411c0.00301,0.13916 -0.00288,0.24577 -0.02062,0.37311c-0.17739,0.8884 -0.36662,1.79752 -0.82831,2.60605c-0.38177,0.71671 -0.77537,1.45416 -1.24006,2.12351c-0.36109,0.53608 -0.70145,1.084 -1.21656,1.50464c0.01772,-0.12734 0.15095,-0.21621 0.07392,-0.37016c-0.20438,-0.17168 -0.43837,-0.38777 -0.75811,-0.21297z" fill="#61aeb3"/><path d="M179.13567,288.06989c0.15978,-0.37611 0.47358,-0.63679 0.69556,-0.97739c0.44691,-0.7345 0.8938,-1.469 1.27852,-2.23901c0.30185,-0.62489 0.50892,-1.2764 0.66269,-1.93085c0.0414,-0.16879 0.08281,-0.3376 0.12421,-0.5064c0.29024,0.16573 0.53902,0.30779 0.80853,0.46168c0.10672,0.39083 0.0328,0.761 -0.0944,1.12822c-0.142,0.44125 -0.29583,0.90324 -0.51186,1.3297c-0.44979,0.98027 -1.01213,1.86878 -1.56557,2.78987c-0.09471,0.16585 -0.18941,0.3317 -0.37594,0.41764c-0.10365,-0.05919 -0.19548,-0.13911 -0.30208,-0.14499c-0.25467,-0.03546 -0.49161,-0.19824 -0.71965,-0.32846z" fill="#61aeb3"/><path d="M199.90183,296.76618c0.21616,-0.04153 0.41752,-0.00901 0.63667,0.08864c0.42941,0.16274 0.83221,0.42023 1.29713,0.52076c0.09476,0.02662 0.17769,0.07397 0.26062,0.12132c0.43536,0.2486 0.87662,0.39059 1.3386,0.54443c0.16879,0.0414 0.39089,0.08575 0.40874,0.34336c-0.15683,0.32282 -0.36403,0.58938 -0.62158,0.7997c-0.32575,-0.10354 -0.66335,-0.18635 -0.92993,-0.39354c-0.04146,-0.02368 -0.1155,-0.03846 -0.15696,-0.06214c-0.45014,-0.17456 -0.92102,-0.36097 -1.35933,-0.55627c-0.19842,-0.08581 -0.36428,-0.18052 -0.57454,-0.2456c-0.26356,-0.06803 -0.52418,-0.18935 -0.69303,-0.42322c0.03846,-0.1155 0.08581,-0.19842 0.11243,-0.29319c0.08286,-0.14513 0.19831,-0.29914 0.28116,-0.44426z" fill="#87d7dc"/><path d="M167.69478,281.48196c0.4323,-0.08305 0.82319,0.00271 1.20225,0.1092c0.09476,0.02662 0.21915,0.09765 0.29024,0.16573c0.50651,0.50915 1.06039,0.93539 1.62608,1.34089c0.02074,0.01184 0.05036,0.05625 0.05925,0.08882c0.01484,0.11845 -0.04435,0.2221 -0.16573,0.29024c-0.04146,-0.02368 -0.09476,-0.02662 -0.13623,-0.0503c-0.48573,-0.30485 -1.00696,-0.54749 -1.56664,-0.67465c-0.2843,-0.07986 -0.51234,-0.21009 -0.70194,-0.4558c-0.19849,-0.27828 -0.43247,-0.49437 -0.60729,-0.81412z" fill="#cce5e6"/><path d="M170.11497,284.5134c-0.00883,0.1599 -0.07692,0.23099 -0.17463,0.25767c-1.01879,-0.52676 -1.01879,-0.52676 -2.07893,-0.69226c-0.32877,-0.24271 -0.59833,-0.58908 -0.87084,-0.88214c0.0414,-0.16879 0.17762,-0.1185 0.2635,-0.12445c0.31092,-0.0149 0.60109,-0.04164 0.90907,-0.00323c0.20136,0.03251 0.35833,0.09464 0.5005,0.2308c0.44727,0.42034 0.92709,0.83179 1.45133,1.21361z" fill="#cce5e6"/><path d="M199.60883,297.23117c-0.02662,0.09476 -0.07397,0.1777 -0.11243,0.29319c0.16886,0.23387 0.42947,0.3552 0.69303,0.42322c0.21026,0.06508 0.37611,0.15978 0.57454,0.2456c0.43831,0.19529 0.90919,0.3817 1.35933,0.55627c0.04146,0.02368 0.1155,0.03846 0.15696,0.06214c0.29914,0.19831 0.616,0.26927 0.92993,0.39354c-0.13617,0.14218 -0.26051,0.26363 -0.47959,0.35845c-0.616,-0.26927 -1.2764,-0.50892 -1.9013,-0.81076c-0.616,-0.26927 -1.27935,-0.45561 -1.9013,-0.81076c0.21014,-0.31987 0.43512,-0.52129 0.68084,-0.71088z" fill="#60adb2"/><path d="M175.07956,280.5854c0.02662,-0.09476 0.0414,-0.16879 0.06803,-0.26356c0.06514,-0.01779 0.09771,-0.02668 0.13027,-0.03557c0.39979,0.11832 0.81436,0.16261 1.24077,0.18616c0.18064,0.02067 0.31686,0.07097 0.42648,0.21603c0.23105,0.26939 0.50651,0.50915 0.60139,0.92072c-0.41157,0.09489 -0.82615,0.0506 -1.22887,-0.01442c-0.07403,-0.01477 -0.16585,-0.09471 -0.23694,-0.16279c-0.33765,-0.27528 -0.67531,-0.55056 -1.00113,-0.84658z" fill="#cce5e6"/><path d="M170.00021,277.30013c0.25467,0.03546 0.41457,0.04429 0.59521,0.06496c0.3287,0.05024 0.58932,0.17156 0.80853,0.46168c0.39102,0.47069 0.83828,0.89103 1.35657,1.18699c0.16585,0.09471 0.17475,0.12728 0.01196,0.36421c-0.0622,-0.03551 -0.13623,-0.05029 -0.19843,-0.08581c-0.50645,-0.31669 -1.03952,-0.5386 -1.60811,-0.69832c-0.13623,-0.0503 -0.25172,-0.08876 -0.33171,-0.18941c-0.21627,-0.34342 -0.45621,-0.64539 -0.63403,-1.10431z" fill="#cae2e3"/><path d="M171.53259,282.07892c-0.03257,0.00889 -0.08587,0.00594 -0.1066,-0.00589c-0.45315,-0.31374 -0.9566,-0.49125 -1.45115,-0.63619c-0.46199,-0.15384 -0.85588,-0.37876 -1.1314,-0.811c-0.12739,-0.2102 -0.3436,-0.36115 -0.42659,-0.60097c0.62477,-0.08311 1.16969,0.11808 1.54291,0.52364c0.46505,0.48548 0.89752,0.97985 1.51058,1.30242c0.05036,0.05625 0.13328,0.1036 0.06226,0.22799z" fill="#c9e1e2"/><path d="M169.19226,278.76318c0.45009,-0.01791 0.78768,0.0649 1.14601,0.15954c0.1155,0.03846 0.21915,0.09765 0.2784,0.18646c0.47394,0.51805 0.99229,1.00647 1.53432,1.45344c0.04146,0.02368 0.09181,0.07992 0.0119,0.17174c-0.14513,-0.08286 -0.31098,-0.17757 -0.46793,-0.2397c-0.42648,-0.21603 -0.86478,-0.41134 -1.3297,-0.51186c-0.3376,-0.08281 -0.59526,-0.25744 -0.76118,-0.54462c-0.12739,-0.2102 -0.23406,-0.40856 -0.41181,-0.675z" fill="#c9e1e2"/><path d="M175.61805,279.16094c-0.03263,-0.18358 0.02656,-0.28724 0.08575,-0.39089c0.03257,-0.00889 0.08587,-0.00594 0.11845,-0.01485c0.35538,0.14794 0.73738,0.20112 1.11344,0.16844c0.22505,-0.00895 0.40274,0.06502 0.55381,0.23375c0.18069,0.21314 0.39396,0.4174 0.53025,0.66017c-0.31681,0.1215 -0.8024,0.2016 -0.99193,0.14837c-0.12734,-0.01772 -0.18659,-0.10655 -0.2784,-0.18646c-0.36428,-0.18052 -0.69009,-0.47653 -1.13134,-0.61853z" fill="#cae3e4"/><path d="M172.93771,287.03245c-0.21332,-0.39672 -0.46216,-0.73125 -0.74358,-1.05689c0.02957,-0.14807 0.07692,-0.23099 0.19831,-0.29914c0.43236,0.10943 0.84404,0.39949 1.28824,0.48818c0.16886,0.23387 0.19855,0.47076 0.28153,0.71059c0.03557,0.13027 0.10372,0.25167 0.04158,0.40863c-0.36421,0.01196 -0.68409,-0.19819 -1.06609,-0.25136z" fill="#c8e0e1"/><path d="M173.85741,283.15901c0.12728,-0.17475 0.22204,-0.14813 0.31681,-0.1215c0.35833,0.09464 0.69592,0.17745 1.04241,0.29283c0.09476,0.02662 0.1777,0.07397 0.23694,0.16279c0.14518,0.27533 0.27852,0.57141 0.3793,0.87638c-0.18358,0.03263 -0.31981,-0.01766 -0.47971,-0.0265c-0.47971,-0.0265 -0.84399,-0.20702 -1.0218,-0.66594c-0.09482,-0.21909 -0.27847,-0.37893 -0.47394,-0.51805z" fill="#cbe4e5"/><path d="M173.11162,284.4651c0.05919,-0.10365 0.09471,-0.16585 0.13022,-0.22804c0.05331,0.00295 0.09771,-0.02668 0.11845,-0.01485c0.25172,0.08876 0.49161,0.19824 0.74334,0.287c0.13623,0.0503 0.22805,0.13022 0.29619,0.2516c0.20443,0.36416 0.3763,0.7372 0.51265,1.17245c-0.26945,0.03858 -0.46787,-0.04723 -0.6663,-0.13304c-0.08294,-0.04735 -0.16585,-0.09471 -0.20438,-0.17168c-0.17781,-0.45892 -0.5214,-0.82007 -0.93016,-1.16344z" fill="#c8e0e1"/><path d="M179.13567,288.06989c0.22804,0.13022 0.46499,0.293 0.75223,0.31957c0.1066,0.00589 0.19842,0.08581 0.30208,0.14499c-0.18052,0.36428 -0.43211,0.66047 -0.75481,0.88857c-0.26657,-0.20719 -0.60416,-0.29 -0.87661,-0.3906c-0.02079,-0.20431 0.12427,-0.31392 0.15384,-0.46199c0.08581,-0.19842 0.22492,-0.3939 0.42329,-0.50056z" fill="#85d5d9"/><path d="M167.0315,281.48809c0.26957,0.34637 0.50951,0.64833 0.77909,0.9947c-0.21909,0.09482 -0.42046,0.06232 -0.60405,0.09495c-0.20431,0.02079 -0.41157,0.09488 -0.63367,0.05054c-0.14513,-0.08286 -0.22216,-0.23682 -0.31103,-0.37004c-0.08888,-0.13322 -0.16592,-0.28718 -0.23111,-0.46187c0.29013,-0.21921 0.6336,-0.24301 1.00077,-0.30827z" fill="#cae3e3"/><path d="M169.3988,285.8639c-0.70482,-0.21001 -1.30597,-0.36085 -1.95743,-0.37546c-0.22216,-0.23682 -0.45616,-0.45291 -0.69905,-0.70157c0.31975,-0.1748 0.62772,-0.1364 0.93863,-0.15131c0.05331,0.00295 0.1155,0.03846 0.15696,0.06214c0.48278,0.35814 0.96555,0.7163 1.56088,1.1662z" fill="#cae3e4"/><path d="M176.61418,283.00121c-0.45009,0.01791 -0.85577,0.00619 -1.16385,-0.41715c-0.21921,-0.29013 -0.51834,-0.48843 -0.81748,-0.68673c-0.12439,-0.07102 -0.08593,-0.18652 0.02656,-0.28724c0.30803,0.23088 0.67819,0.30477 1.04835,0.3787c0.2754,0.04729 0.4383,0.1953 0.56569,0.4055c0.1185,0.17762 0.2814,0.32564 0.34072,0.60693z" fill="#c8e0e1"/><path d="M177.46255,287.7743c0.34047,-0.16297 0.55375,0.04128 0.79069,0.20407c0.07704,0.15396 -0.03546,0.25467 -0.07392,0.37017c-0.17462,0.25767 -0.39961,0.45909 -0.66606,0.63685c-0.21621,-0.15095 -0.49161,-0.19824 -0.63974,-0.42029c0.03846,-0.1155 0.07397,-0.17769 0.12132,-0.26062c0.15985,-0.18364 0.31968,-0.36728 0.4677,-0.53018z" fill="#85d4d9"/><path d="M174.98612,284.7932c0.382,0.05318 0.69887,0.12415 1.02756,0.17439c0.1215,0.31681 0.21045,0.64251 0.24607,0.96526c-0.12433,0.12145 -0.2724,0.09188 -0.39083,0.10672c-0.11845,0.01484 -0.23687,0.02968 -0.37016,-0.07392c-0.15407,-0.30791 -0.3141,-0.70169 -0.51264,-1.17246z" fill="#c7dfe0"/><path d="M177.86053,282.11841c0.12445,0.2635 0.26075,0.50627 0.32894,0.82013c-0.32864,0.14223 -0.63662,0.10384 -0.98899,0.09506c-0.16592,-0.28718 -0.33182,-0.57435 -0.51848,-0.87337c0.40862,-0.04158 0.761,-0.0328 1.17852,-0.04182z" fill="#c8e0e1"/><path d="M166.9363,280.11417c0.26056,-0.07115 0.52112,-0.1423 0.80836,-0.11574c0.21921,0.29013 0.42659,0.60097 0.6547,0.92367c-0.02368,0.04146 -0.04735,0.08294 -0.06809,0.07109c-0.25761,0.01785 -0.53596,0.02386 -0.78172,0.02098c-0.1066,-0.00589 -0.20136,-0.03252 -0.23989,-0.10948c-0.17775,-0.26645 -0.39102,-0.47069 -0.37335,-0.7905z" fill="#c4dcdd"/><path d="M178.08836,281.47873c-0.20738,-0.31085 -0.40585,-0.58914 -0.63397,-0.91182c0.28423,-0.11261 0.57148,-0.08606 0.84387,-0.17793c0.24289,0.24866 0.3111,0.56252 0.46516,0.87043c-0.24276,0.13628 -0.44113,0.24295 -0.67508,0.21933z" fill="#c6ddde"/><path d="M176.02029,277.68616c0.47082,-0.00607 0.92391,0.11519 1.38878,0.02325c0.21327,0.20425 0.41764,0.37594 0.56282,0.65127c-0.28718,0.16592 -0.55663,0.20449 -0.84392,-0.01453c-0.33765,-0.27528 -0.7345,-0.44691 -1.10767,-0.65999z" fill="#b9cfd0"/><path d="M168.44562,286.85915c-0.13322,0.08888 -0.20136,-0.03251 -0.29613,-0.05913c-0.21026,-0.06508 -0.40869,-0.15089 -0.6041,-0.09753c-0.32275,0.03563 -0.53896,-0.11531 -0.76407,-0.29883c-0.09183,-0.07991 -0.1718,-0.18057 -0.29325,-0.30491c0.38195,-0.13929 0.70764,-0.22823 1.05418,0.07963c0.234,0.21608 0.53608,0.36109 0.79375,0.53572c0.0622,0.03551 0.12439,0.07102 0.10961,0.14506z" fill="#c0d8d8"/><path d="M172.89072,288.27022c-0.24577,-0.00288 -0.43531,-0.05613 -0.60115,-0.15083c-0.08294,-0.04735 -0.18659,-0.10655 -0.2251,-0.18352c-0.16297,-0.34047 -0.38218,-0.6306 -0.60139,-0.92072c0.08286,-0.14513 0.15396,-0.07704 0.21616,-0.04153c0.20731,0.11839 0.43536,0.2486 0.66636,0.32551c0.29319,0.11243 0.44425,0.28117 0.47101,0.57135c0.00301,0.13916 0.02968,0.23687 0.07416,0.39972z" fill="#c1d9d9"/><path d="M176.87198,283.56079c0.15702,0.25461 0.22817,0.51517 0.34078,0.7994c-0.25461,0.15702 -0.51817,0.089 -0.77578,0.10684c-0.18664,-0.29902 -0.24301,-0.6336 -0.35268,-0.97115c0.29019,-0.02674 0.53302,0.02945 0.78768,0.06491z" fill="#c3dbdc"/><path d="M169.06223,279.56864c-0.36126,-0.04134 -0.68997,-0.09158 -1.03051,-0.12108c-0.13924,-0.18947 -0.25772,-0.36709 -0.27558,-0.62472c0.27239,-0.09188 0.5389,-0.07715 0.81724,-0.08317c0.22216,0.23682 0.37917,0.49143 0.48884,0.82896z" fill="#c3dadb"/><path d="M176.77203,285.95045c-0.06821,-0.31386 -0.12751,-0.59514 -0.18682,-0.87644c0.2635,-0.12445 0.53001,-0.10972 0.79652,-0.095c0.10372,0.25167 0.15414,0.50037 0.16014,0.77873c-0.07697,0.03852 -0.18653,0.08593 -0.25167,0.10372c-0.18358,0.03263 -0.32275,0.03563 -0.51817,0.089z" fill="#c4dbdc"/><path d="M170.74081,287.89483c0.3939,0.22492 0.70487,0.40249 1.03658,0.5919c0.08593,0.18653 0.11856,0.3701 0.07421,0.5922c-0.17468,0.06519 -0.29613,-0.05913 -0.4442,-0.08869c-0.14807,-0.02957 -0.2843,-0.07987 -0.38795,-0.13905c-0.08893,-0.3257 -0.16008,-0.58626 -0.27864,-0.95635z" fill="#c2d9da"/><path d="M178.35251,283.47149c0.14813,0.22204 0.11561,0.42341 0.16898,0.61882c-0.23387,0.16886 -0.50332,0.20744 -0.80535,0.2549c-0.08299,-0.23982 -0.16597,-0.47965 -0.2608,-0.69874c0.28718,-0.16592 0.59514,-0.12751 0.89717,-0.17499z" fill="#c3dbdc"/><path d="M175.16729,286.54614c0.04747,0.30201 0.18377,0.5448 0.1572,0.83203c-0.23093,0.11555 -0.47082,0.00607 -0.67808,0.08016c-0.16297,-0.34047 -0.21045,-0.64251 -0.29938,-0.9682c0.30496,-0.10078 0.53301,0.02944 0.82026,0.056z" fill="#c7dee0"/><path d="M178.69166,288.55861c-0.02957,0.14807 -0.17462,0.25767 -0.15384,0.46199c0.29319,0.11243 0.61895,0.21597 0.87661,0.3906c-0.06809,0.07109 -0.14801,0.1629 -0.23682,0.22216c-0.13322,0.08888 -0.28423,0.11261 -0.42935,0.02975c-0.26062,-0.12132 -0.5005,-0.2308 -0.76111,-0.35214c0.15389,-0.26951 0.24565,-0.38206 0.70452,-0.75235z" fill="#61acb1"/><path d="M173.406,288.42699c-0.12445,-0.2635 -0.15414,-0.50038 -0.21345,-0.78167c0.3376,0.08281 0.63372,0.14194 0.92985,0.20107c0.13924,0.18947 0.11856,0.3701 0.12751,0.59514c-0.25167,0.10372 -0.51522,0.0357 -0.84392,-0.01454z" fill="#c1d9d9"/><path d="M178.95901,281.78346c0.10372,0.25167 0.17486,0.51223 0.25785,0.75205c-0.12728,0.17475 -0.28123,0.25178 -0.49738,0.29331c-0.22216,-0.23682 -0.23706,-0.54774 -0.38224,-0.82307c0.18947,-0.13924 0.39378,-0.16003 0.62177,-0.22228z" fill="#c0d7d7"/><path d="M177.00669,288.28374c-0.04735,0.08294 -0.07397,0.17769 -0.12132,0.26062c0.14813,0.22204 0.42352,0.26933 0.63974,0.42029c-0.06214,0.15696 -0.23387,0.16886 -0.33747,0.30214c-0.31686,-0.07097 -0.53013,-0.27522 -0.8825,-0.284c0.09765,-0.21915 0.23088,-0.30803 0.37594,-0.41764c0.10065,-0.07999 0.14206,-0.24878 0.32564,-0.2814z" fill="#5aa0a4"/><path d="M178.39206,277.33602c0.18069,0.21314 0.41764,0.37594 0.50952,0.64833c-0.12433,0.12145 -0.25461,0.15702 -0.45003,0.21038c-0.20438,-0.17168 -0.38507,-0.38483 -0.50063,-0.61576c0.12433,-0.12145 0.23387,-0.16886 0.44113,-0.24295z" fill="#bdd3d4"/><path d="M178.01557,285.50589c-0.04153,-0.21616 -0.09488,-0.41157 -0.14825,-0.60699c0.2102,-0.12739 0.42635,-0.16892 0.66322,-0.1986c0.13034,0.15691 0.08893,0.3257 0.00607,0.47082c-0.10655,0.18659 -0.21309,0.37316 -0.52106,0.33477z" fill="#bdd4d5"/><path d="M176.43781,287.16165c-0.17762,0.1185 -0.34938,0.1304 -0.52112,0.1423c-0.14513,-0.08286 -0.12739,-0.2102 -0.16297,-0.34047c-0.02668,-0.09771 -0.0741,-0.20726 -0.02379,-0.34348c0.17762,-0.1185 0.38495,-0.00012 0.58331,-0.10678c0.11555,0.23093 0.13635,0.43524 0.12457,0.64846z" fill="#c3dadb"/><path d="M171.72194,281.55474c-0.34949,-0.25454 -0.69898,-0.50909 -1.00113,-0.84658c0.09176,-0.11255 0.20725,-0.07409 0.31092,-0.0149c0.28135,0.13317 0.55086,0.28705 0.79963,0.42911c0.18659,0.10655 0.15702,0.25461 -0.10943,0.43236z" fill="#b1c6c7"/><path d="M179.67525,280.62543c-0.14218,-0.13617 -0.13334,-0.29607 -0.18966,-0.43818c-0.12445,-0.2635 -0.03864,-0.46192 0.20708,-0.65151c0.21921,0.29013 0.26374,0.64545 0.31122,0.94746c-0.1036,0.13328 -0.18057,0.1718 -0.32865,0.14224z" fill="#bbd2d3"/><path d="M173.10093,278.65833c-0.44125,-0.142 -0.71083,-0.48837 -1.01296,-0.82584c0.36126,0.04134 0.67224,0.21892 0.97433,0.36392c0.19842,0.08581 0.20438,0.17168 0.03864,0.46192z" fill="#bad1d2"/><path d="M177.87437,278.96479c0.11249,-0.10072 0.26351,-0.12444 0.43524,-0.13635c0.234,0.21608 0.37917,0.49143 0.45922,0.78456c-0.06214,0.15696 -0.148,0.16291 -0.27533,0.14518c-0.21032,-0.25755 -0.42065,-0.5151 -0.61912,-0.79339z" fill="#bdd4d4"/><path d="M167.43061,279.48921c-0.24872,0.05042 -0.46487,0.09194 -0.72542,0.16309c-0.11255,-0.09176 -0.20143,-0.22498 -0.15708,-0.44708c0.18653,-0.08593 0.39378,-0.16003 0.61288,-0.25485c0.1185,0.17762 0.22812,0.3227 0.26962,0.53885z" fill="#c1d9d9"/><path d="M179.49113,278.92581c-0.08581,0.19842 -0.15683,0.32282 -0.34336,0.40874c-0.11555,-0.23093 -0.24295,-0.44113 -0.34961,-0.63949c0.04435,-0.2221 0.21608,-0.234 0.30784,-0.34655c0.04146,0.02368 0.09476,0.02662 0.10365,0.05919c0.10667,0.19836 0.18369,0.35232 0.28147,0.51812z" fill="#c2dada"/><path d="M174.77111,288.49171c-0.02079,-0.20431 -0.04453,-0.35532 -0.05643,-0.52706c0.22799,-0.06226 0.44119,-0.05047 0.66624,-0.05942c0.07704,0.15396 0.10078,0.30496 0.01791,0.45009c-0.0444,0.02963 -0.08882,0.05925 -0.14211,0.0563c-0.13027,0.03557 -0.28129,0.0593 -0.4856,0.0801z" fill="#bbd2d3"/><path d="M176.9293,286.97495c-0.07704,-0.15396 -0.08893,-0.3257 -0.02681,-0.48266c0.22799,-0.06226 0.42341,-0.11561 0.63956,-0.15714c0.00607,0.47082 -0.00577,0.49155 -0.61276,0.6398z" fill="#b5cbcc"/><path d="M173.08643,289.17923c-0.2635,0.12445 -0.52411,0.00313 -0.74916,0.01208c-0.09777,-0.1658 -0.03563,-0.32275 -0.04754,-0.49449c0.31092,-0.0149 0.54191,0.06202 0.73444,0.25443c0.0622,0.03551 0.0563,0.14211 0.06226,0.22799z" fill="#b6cccd"/><path d="M171.5969,279.36651c0.30503,0.09169 0.59821,0.20413 0.84404,0.39949c0.09183,0.07991 0.13924,0.18947 0.08004,0.29312c-0.02368,0.04146 -0.11249,0.10072 -0.13322,0.08888c-0.32282,-0.15683 -0.55092,-0.47954 -0.79086,-0.78149z" fill="#a7bbbb"/><path d="M179.06039,284.01315c-0.14813,-0.22204 -0.16892,-0.42635 -0.17787,-0.65139c0.15691,-0.13034 0.31086,-0.20738 0.54479,-0.18376c-0.01767,0.31981 -0.18046,0.55675 -0.36692,0.83515z" fill="#b7cece"/><path d="M170.55766,289.27477c-0.33164,0.00306 -0.5538,-0.23376 -0.82031,-0.24847c-0.07704,-0.15396 -0.00895,-0.22505 0.07692,-0.23099c0.22505,-0.00895 0.45897,0.01466 0.6663,0.13304c0.05036,0.05625 0.07108,0.06808 0.07709,0.34643z" fill="#b4cacb"/><path d="M175.89614,287.86953c0.18653,-0.08593 0.32864,-0.14223 0.47671,-0.11267c0.07109,0.06809 0.0563,0.14211 0.04152,0.21615c-0.05913,0.29613 -0.26344,0.31692 -0.52995,0.3022c0.01772,-0.12734 0.01472,-0.2665 0.01172,-0.40568z" fill="#b5cbcb"/><path d="M168.77366,284.79218c0.33164,-0.00306 0.58932,0.17155 0.83809,0.31362c0.04146,0.02368 0.05925,0.08882 0.0563,0.14211c-0.02368,0.04146 -0.10065,0.07999 -0.12138,0.06814c-0.32575,-0.10354 -0.57159,-0.29889 -0.77302,-0.52388z" fill="#99abac"/><path d="M168.91031,286.18978c0.00006,0.19247 -0.05913,0.29613 -0.18646,0.2784c-0.16879,-0.0414 -0.35244,-0.20125 -0.5746,-0.43807c0.29019,-0.02674 0.51823,0.10348 0.76106,0.15967z" fill="#93a5a6"/><path d="M179.9599,281.86014c-0.13334,-0.29607 -0.29925,-0.58325 0.07968,-0.86171c0.15407,0.30791 0.00018,0.57742 -0.07968,0.86171z" fill="#9aadad"/><path d="M176.02102,279.99585c-0.20136,-0.03251 -0.42346,-0.07686 -0.6041,-0.09753c-0.06814,-0.12138 -0.05336,-0.19542 0.03841,-0.30797c0.24577,0.00288 0.40574,0.20419 0.60416,0.29c-0.02368,0.04146 -0.03551,0.0622 -0.03846,0.1155z" fill="#c5dddd"/><path d="M170.36003,282.20661c0.37606,-0.03269 0.64556,0.12121 0.86773,0.35803c0.02074,0.01184 0.0178,0.06514 -0.00589,0.1066c-0.01477,0.07403 -0.10065,0.07999 -0.14211,0.0563c-0.23989,-0.10948 -0.45315,-0.31374 -0.71972,-0.52093z" fill="#aec2c3"/><path d="M173.53646,288.96885c0.24872,-0.05042 0.49155,0.00577 0.71365,0.05011c0.06814,0.12138 0.00006,0.19247 -0.10655,0.18659c-0.19247,0.00006 -0.36421,0.01196 -0.56558,-0.02055c-0.06514,0.01779 -0.09182,-0.07992 -0.04152,-0.21615z" fill="#9caeaf"/><path d="M172.68545,285.21144c0.0414,-0.16879 0.10948,-0.23989 0.21903,-0.28729c0.21915,0.09765 0.37023,0.26639 0.45916,0.59209c-0.27246,-0.1006 -0.45904,-0.20714 -0.6782,-0.30479z" fill="#b9cfd0"/><path d="M175.88431,278.40577c-0.06814,-0.12138 -0.04153,-0.21616 -0.0149,-0.31092c0.10065,-0.07999 0.20431,-0.02079 0.66635,0.32552c-0.26645,0.17775 -0.45897,-0.01466 -0.65145,-0.01461z" fill="#869797"/><path d="M169.69121,283.47418c0.29619,0.2516 0.69297,0.23076 0.77602,0.66304c-0.35833,-0.09464 -0.59526,-0.25744 -0.77602,-0.66304z" fill="#93a4a5"/><path d="M179.11868,281.0224c-0.09482,-0.21909 -0.22222,-0.42929 -0.30521,-0.66912c-0.02668,-0.09771 0.02067,-0.18064 0.18057,-0.1718c0.12445,0.2635 0.22817,0.51517 0.12463,0.84092z" fill="#9fb2b2"/><path d="M174.75446,282.59907c-0.19836,0.10667 -0.34348,0.02379 -0.50045,-0.03833c-0.0622,-0.03551 -0.06814,-0.12138 -0.03263,-0.18358c0.02368,-0.04146 0.10065,-0.07999 0.14211,-0.0563c0.1599,0.00883 0.26062,0.12132 0.39096,0.27822z" fill="#91a2a3"/><path d="M168.22664,287.33891c-0.27239,0.09188 -0.36126,-0.04134 -0.49456,-0.14494c0.2102,-0.12739 0.2102,-0.12739 0.49456,0.14494z" fill="#555f5f"/><path d="M174.91684,281.01483c0.10365,0.05919 0.24878,0.14206 0.35839,0.28712c-0.29312,0.08004 -0.37606,0.03269 -0.47382,-0.1331c-0.02963,-0.0444 0.00589,-0.1066 0.11543,-0.15401z" fill="#93a5a6"/><path d="M173.79546,283.89338c-0.11845,0.01484 -0.20136,-0.03252 -0.27246,-0.1006c-0.02963,-0.0444 -0.04742,-0.10954 -0.00301,-0.13916c0.0444,-0.02963 0.10954,-0.04742 0.15101,-0.02374c0.08294,0.04735 0.15401,0.11543 0.12445,0.2635z" fill="#636e6f"/></g></g></g></g></svg>