<svg version="1.1" xmlns="http://www.w3.org/2000/svg" xmlns:xlink="http://www.w3.org/1999/xlink" width="173.18857" height="223.91711" viewBox="0,0,173.18857,223.91711"><defs><radialGradient cx="239.85291" cy="176.0974" r="21.52948" gradientUnits="userSpaceOnUse" id="color-1"><stop offset="0" stop-color="#b97500"/><stop offset="1" stop-color="#6d4401"/></radialGradient></defs><g transform="translate(-151.52608,-61.9727)"><g data-paper-data="{&quot;isPaintingLayer&quot;:true}" fill-rule="nonzero" stroke-linejoin="miter" stroke-miterlimit="10" stroke-dasharray="" stroke-dashoffset="0" style="mix-blend-mode: normal"><g stroke="none" stroke-width="1" stroke-linecap="butt"><path d="M321.41015,217.10802c-0.37492,0.04377 -0.74985,0.08754 -1.13627,0.16306c-0.33306,0.07688 -0.59798,0.41184 -1.07415,0.23941c0.73508,-0.34424 1.31282,-0.79932 1.89054,-1.25441c0.28844,-0.00327 0.60864,0.00495 0.90447,0.13003c-0.02299,0.06349 -0.03449,0.09523 -0.04598,0.12697c-0.16557,0.20935 -0.34128,0.39707 -0.5386,0.59493z" fill="#c6dede"/><path d="M322.04407,214.46497c-0.36206,-0.04135 -0.71399,-0.06106 -1.07605,-0.1024c-0.01613,-0.20334 0.15682,-0.28434 0.25617,-0.40995c0.09934,-0.12561 0.23044,-0.23972 0.3514,-0.37546c0.31006,-0.0134 0.58428,0.12181 0.88147,0.19351c-0.03996,0.30869 -0.21567,0.49642 -0.413,0.69427z" fill="#c8e0e1"/><path d="M320.85439,209.22257c0.21346,0.00548 0.3938,0.05284 0.54103,0.14205c0.10262,0.16283 0.0134,0.31006 -0.00084,0.44855c-0.01424,0.13847 0.02489,0.27832 -0.09607,0.41406c-0.23645,0.05801 -0.50191,-0.0022 -0.81061,-0.04218c0.05748,-0.15872 0.11496,-0.31745 0.15081,-0.46604c0.0791,-0.16885 0.15819,-0.3377 0.21567,-0.49642z" fill="#c5ddde"/><path d="M317.76007,208.69452c0.02435,-0.11685 0.04735,-0.18033 0.07034,-0.24384c0.0676,-0.13711 0.15682,-0.28433 0.23592,-0.45318c0.37355,0.00959 0.71674,-0.04567 1.06594,0.08078c0.02763,0.1716 -0.05009,0.28707 -0.16094,0.44442c-0.36481,0.06539 -0.78297,0.12941 -1.21125,0.17182z" fill="#c7dfe0"/><path d="M322.46436,215.98165c-0.28707,-0.05009 -0.52079,-0.09882 -0.81798,-0.17053c0.22032,-0.26135 0.41901,-0.51256 0.64945,-0.75228c0.22359,0.0271 0.42556,0.06433 0.62614,0.15492c-0.09333,0.30733 -0.25891,0.51668 -0.45761,0.76789z" fill="#c2dada"/><path d="M321.91825,213.12675c0.12508,-0.29583 0.2373,-0.50655 0.33939,-0.73889c0.24657,-0.03639 0.47891,0.0657 0.71125,0.16779c-0.01698,0.2452 -0.0657,0.47891 -0.22116,0.70988c-0.28981,0.05664 -0.49916,-0.10894 -0.82948,-0.13878z" fill="#c6dedf"/><path d="M317.68351,207.51776c-0.27832,0.02489 -0.54788,0.12477 -0.85521,0.03144c0.0906,-0.2006 0.15956,-0.39107 0.22854,-0.58154c0.25944,-0.1215 0.52627,-0.11464 0.78022,-0.02268c0.01613,0.20334 -0.04134,0.36206 -0.15356,0.57277z" fill="#c3dadb"/><path d="M321.86439,218.13429c-0.31006,0.0134 -0.59851,0.01667 -0.90858,0.03006c0.35277,-0.42881 0.71294,-0.72929 1.28297,-0.469c-0.04736,0.18034 -0.21019,0.28296 -0.3744,0.43894z" fill="#bbd2d3"/><path d="M318.12844,220.96467c-0.10209,0.23234 -0.16093,0.44442 -0.26302,0.67678c-0.11822,0.02901 -0.29995,0.03501 -0.47154,0.06265c-0.07415,-0.43979 -0.05253,-0.44991 0.23866,-0.55991c0.15134,-0.07088 0.31281,-0.12014 0.49589,-0.1795z" fill="#b5cbcc"/><path d="M323.12738,211.37423c0.03639,0.24657 -0.01097,0.42693 -0.05831,0.60726c-0.22496,0.02627 -0.39244,-0.1062 -0.59302,-0.19679c0.03724,-0.20197 0.08458,-0.38231 0.12181,-0.58428c0.20471,-0.0695 0.33906,0.10482 0.52954,0.17379z" fill="#c0d7d8"/><path d="M322.9534,216.06898c0.13383,-0.22085 0.2994,-0.43019 0.43324,-0.65104c0.14859,0.03585 0.24246,0.12371 0.30321,0.25342c0.01751,0.14997 -0.07034,0.24384 -0.14807,0.35933c-0.06623,0.08374 -0.13246,0.16749 -0.1987,0.25122c-0.1601,-0.00411 -0.28707,-0.0501 -0.38969,-0.21293z" fill="#b6cccc"/><path d="M322.68817,217.24765c-0.21346,-0.00548 -0.38368,-0.03121 -0.56265,-0.13193c0.10209,-0.23234 0.29804,-0.37682 0.44062,-0.52268c0.19321,-0.03776 0.2972,0.07171 0.41269,0.14944c0.00876,0.07499 0.02901,0.11823 0.00738,0.12836c-0.09934,0.12561 -0.1987,0.25122 -0.29804,0.37682z" fill="#b7cdce"/><path d="M321.36545,219.26424c0.15682,-0.28433 0.3514,-0.37546 0.52574,-0.50982c0.18583,-0.16611 0.33306,-0.07688 0.51203,0.02383c-0.10209,0.23234 -0.27642,0.3667 -0.40888,0.53417c-0.23645,0.05801 -0.40256,-0.12782 -0.62888,-0.04819z" fill="#b6cccc"/><path d="M322.21173,210.43223c-0.18172,0.00602 -0.27694,-0.02847 -0.37081,-0.11632c-0.08237,-0.11959 -0.03639,-0.24657 -0.02215,-0.38505c0.02435,-0.11685 -0.02489,-0.27832 0.11632,-0.37081c0.18034,0.04736 0.3492,0.12645 0.48356,0.30079c-0.05884,0.21208 -0.13794,0.38093 -0.20692,0.57141z" fill="#bbd2d3"/><path d="M318.42343,221.53829c0.11632,-0.37081 0.11632,-0.37081 0.43324,-0.65104c0.22359,0.0271 0.32621,0.18994 0.48219,0.35415c-0.27231,0.2066 -0.60399,0.23013 -0.91543,0.29689z" fill="#adc2c3"/><path d="M323.20113,214.74033c-0.20197,-0.03724 -0.35057,-0.07308 -0.52954,-0.17379c0.0271,-0.22359 0.19131,-0.37957 0.30352,-0.59028c0.0851,0.01287 0.1486,0.03585 0.21209,0.05884c0.06349,0.02299 0.11548,0.07772 0.18909,0.12234c0.02627,0.22496 -0.05284,0.3938 -0.17517,0.58291z" fill="#bbd1d2"/><path d="M319.29457,207.58049c-0.35194,-0.01972 -0.69238,-0.07118 -1.02268,-0.10103c-0.04925,-0.16146 -0.02489,-0.27832 0.08595,-0.43568c0.33907,0.10483 0.67814,0.20966 0.98272,0.40972c-0.02299,0.06349 -0.03449,0.09523 -0.04598,0.12697z" fill="#acc1c2"/><path d="M323.62371,213.6725c-0.14997,0.01751 -0.26547,-0.06022 -0.39107,-0.15956c0.05884,-0.21208 0.1177,-0.42418 0.17654,-0.63627c0.21346,0.00548 0.29584,0.12509 0.3667,0.27642c-0.00411,0.1601 -0.07309,0.35056 -0.15219,0.51941z" fill="#b7cdcd"/><path d="M319.54823,208.51618c0.00411,-0.1601 0.03859,-0.25534 0.12645,-0.3492c0.28707,0.05009 0.59577,0.09007 0.91048,0.31174c-0.35742,0.19374 -0.66474,0.10041 -1.03692,0.03745z" fill="#b2c8c9"/><path d="M319.69805,218.06798c0.27094,-0.15324 0.50876,-0.26462 0.79857,-0.32125c0.07224,0.09798 0.02763,0.1716 -0.03724,0.20197c-0.14122,0.0925 -0.27231,0.2066 -0.41352,0.2991c-0.17296,0.08099 -0.2567,0.01477 -0.34782,-0.17982z" fill="#91a3a3"/><path d="M323.54113,212.31402c-0.02627,-0.22496 -0.00053,-0.39518 0.05832,-0.60726c0.2181,0.24056 0.26461,0.50876 0.3861,0.7682c-0.07499,0.00876 -0.11822,0.02901 -0.14997,0.01751c-0.10536,-0.05611 -0.1891,-0.12234 -0.29446,-0.17845z" fill="#a9bebf"/><path d="M321.28392,218.69611c-0.3243,0.15187 -0.54051,0.25313 -0.7567,0.35436c-0.04325,0.02024 -0.10673,-0.00275 -0.13711,-0.0676c-0.01013,-0.02162 -0.00876,-0.07499 0.00275,-0.10673c0.2392,-0.16474 0.47701,-0.27611 0.89106,-0.18004z" fill="#94a5a6"/><path d="M318.21661,220.02708c0.14723,0.08922 0.19922,0.14396 0.16337,0.29255c-0.16283,0.10262 -0.34729,0.21536 -0.59387,0.25175c0.05009,-0.28707 0.2663,-0.38833 0.4305,-0.54431z" fill="#abbfc0"/><path d="M322.65801,218.42168c-0.09387,-0.08785 -0.13573,-0.12097 -0.15599,-0.16421c0.19131,-0.37957 0.19131,-0.37957 0.52436,-0.45645c-0.02847,0.27694 -0.24467,0.3782 -0.36838,0.62066z" fill="#acc0c1"/><path d="M323.63406,214.93302c0.03585,-0.14859 0.07034,-0.24384 0.15819,-0.3377c0.10673,0.00275 0.18034,0.04736 0.25259,0.14533c0.03913,0.13985 -0.02847,0.27694 -0.09607,0.41406c-0.14997,0.01751 -0.23234,-0.10209 -0.31472,-0.22168z" fill="#aec2c3"/><path d="M323.11209,210.72236c-0.47891,-0.0657 -0.51066,-0.0772 -0.3396,-0.5c0.12424,0.1527 0.30321,0.25342 0.3396,0.5z" fill="#869696"/><path d="M321.5362,219.68515c-0.15819,0.3377 -0.21155,0.33632 -0.43841,0.02078c0.13108,-0.11411 0.27969,-0.07826 0.43841,-0.02078z" fill="#8b9b9c"/><path d="M315.06071,206.92707c-0.18583,0.16611 -0.36892,0.22548 -0.552,0.28486c-0.12561,-0.09934 -0.11275,-0.18446 -0.02626,-0.22495c0.17296,-0.08099 0.35605,-0.14037 0.57827,-0.05991z" fill="#9aacad"/><path d="M323.48262,217.0865c-0.04736,0.18034 -0.05147,0.34043 -0.23455,0.39981c-0.02162,0.01013 -0.05336,-0.00136 -0.06349,-0.02299c-0.04789,-0.21482 0.06158,-0.31883 0.29804,-0.37682z" fill="#5f6a6b"/><path d="M324.04789,213.79021c0.13573,0.12097 0.16473,0.23919 0.03228,0.40667c-0.16749,-0.13246 -0.14312,-0.24931 -0.03228,-0.40667z" fill="#4a5354"/><g><path d="M307.26473,213.97857c-0.0465,-0.2682 0.09607,-0.41406 0.29202,-0.55854c0.32567,-0.20524 0.68172,-0.34561 1.01752,-0.52923c0.03449,-0.09523 0.06897,-0.19047 0.08184,-0.27558c0.36679,-1.80619 1.40624,-3.18925 2.69827,-4.42699c0.27368,-0.25997 0.53724,-0.54156 0.88315,-0.70356c0.06486,-0.03038 0.14122,-0.0925 0.16421,-0.15599c0.12645,-0.3492 0.40752,-0.48081 0.70006,-0.64418c0.24931,-0.14312 0.51888,-0.24299 0.77833,-0.36449c0.15134,-0.07088 0.32294,-0.09851 0.49178,-0.01941c0.16885,0.0791 0.37219,0.06296 0.5539,0.05695c1.03966,-0.14418 2.08534,-0.10665 3.12692,0.091c0.58428,0.12181 1.11244,0.34897 1.65073,0.59775c1.58313,0.73487 2.82498,1.8668 3.80328,3.28034c0.43209,0.64122 0.76621,1.35468 1.01384,2.10864c0.18827,0.57088 0.20493,1.16939 0.18984,1.7564c-0.04797,1.86778 -0.72072,3.52726 -1.84802,5.00419c-0.21019,0.28296 -0.49398,0.52132 -0.7778,0.75967c-0.18583,0.16611 -0.33991,0.34371 -0.36838,0.62066c-0.01698,0.2452 -0.17106,0.42282 -0.36701,0.5673c-0.32567,0.20524 -0.67159,0.36724 -1.01752,0.52923c-0.1081,0.05062 -0.21482,0.04789 -0.32156,0.04514c-0.3938,-0.05284 -0.74848,0.03417 -1.10454,0.17455c-0.7452,0.32262 -1.54842,0.4088 -2.34152,0.51658c-0.29994,0.03502 -0.61001,0.04841 -0.9187,0.00845c-1.00107,-0.11116 -1.96902,-0.26418 -2.89837,-0.67252c-0.3243,0.15187 -0.68035,0.29225 -1.02627,0.45425c-0.12972,0.06075 -0.28106,0.13162 -0.42829,0.04239c-0.13711,-0.0676 -0.25669,0.01476 -0.38642,0.07552c-0.87492,0.38336 -1.73974,0.78836 -2.61466,1.17173c-1.93431,0.87948 -3.89024,1.76908 -5.84481,2.60533c-1.91132,0.816 -3.79227,1.69685 -5.68335,2.55608c-0.30268,0.14175 -0.60399,0.23013 -0.90667,0.37188c-1.47017,0.68848 -2.94034,1.37696 -4.42062,2.04382c-0.25944,0.1215 -0.49864,0.28624 -0.7972,0.26789c-0.10673,-0.00275 -0.20471,0.0695 -0.31281,0.12012c-1.081,0.50624 -2.19375,1.00098 -3.27476,1.50721c-0.04325,0.02024 -0.1081,0.05062 -0.15134,0.07088c-0.3358,0.18361 -0.57963,0.11327 -0.87272,-0.11853c-0.97312,-0.78327 -1.59896,-1.78192 -1.8775,-2.99591c-0.06677,-0.31144 -0.09029,-0.64312 -0.06044,-0.97343c0.01698,-0.2452 0.14945,-0.41268 0.35551,-0.53556c0.61823,-0.3686 1.22633,-0.75883 1.86618,-1.13756c0.45539,-0.26598 0.95266,-0.49885 1.37767,-0.8297c0.92639,-0.72381 1.9959,-1.1983 2.95267,-1.85724c0.54324,-0.35985 1.04462,-0.75282 1.59799,-1.09104c0.59661,-0.35847 1.15136,-0.75007 1.71621,-1.12004c1.03175,-0.6677 2.10537,-1.30229 3.127,-1.9916c1.32706,-0.9378 2.6946,-1.78911 4.06214,-2.64043c0.46689,-0.29772 0.93378,-0.59546 1.40067,-0.89319c0.73782,-0.45098 1.49727,-0.91206 2.23509,-1.36303c0.41215,-0.24574 0.78244,-0.52459 1.19459,-0.77032c0.42365,-0.27748 0.83443,-0.46985 1.28983,-0.73583zM307.82053,214.37733c-0.00822,0.32019 0.02679,0.62014 0.13679,0.91132c0.06866,0.65324 0.29879,1.25724 0.52892,1.86124c0.27939,0.76546 0.65536,1.51203 1.02122,2.237c0.41648,0.83306 1.0188,1.50001 1.65285,2.17846c0.08374,0.06623 0.16749,0.13246 0.29308,0.23181c0.17296,-0.08099 0.34593,-0.162 0.51888,-0.24299c0.04325,-0.02024 0.07636,-0.06212 0.1311,-0.11411c-0.07088,-0.15134 -0.16337,-0.29255 -0.27748,-0.42365c-0.18636,-0.22907 -0.31935,-0.45677 -0.50571,-0.68583c-0.43347,-0.58785 -0.68247,-1.28846 -1.05107,-1.90669c-0.18361,-0.3358 -0.41047,-0.65135 -0.55085,-1.00739c-0.2895,-0.78708 -0.68711,-1.52353 -0.89014,-2.35111c-0.04789,-0.21482 -0.10588,-0.45128 -0.15377,-0.66611c0.08922,-0.14723 -0.03501,-0.29995 -0.04239,-0.42829c0.00411,-0.1601 0.00823,-0.32018 -0.12477,-0.54788c-0.21019,0.28296 -0.52162,0.34973 -0.74057,0.55769c0.02901,0.11822 -0.06022,0.26546 0.0539,0.39655zM307.49043,215.58638c-0.03828,-0.58839 -0.07741,-0.72823 -0.25228,-0.98904c-0.24931,0.14312 -0.47701,0.27612 -0.72633,0.41922c-0.15134,0.07088 -0.21894,0.20797 -0.22305,0.36807c-0.00275,0.10673 0.04789,0.21482 0.04514,0.32156c0.00053,0.39518 0.10779,0.79309 0.2914,1.12889c-0.03724,0.20197 0.04378,0.37492 0.12477,0.54788c0.43399,0.98304 0.83624,1.95456 1.37833,2.88697c0.24574,0.41215 0.51309,0.81418 0.79194,1.18446c0.23835,0.2838 0.48683,0.58922 0.86777,0.72717c0.28106,-0.13162 0.56212,-0.26324 0.84318,-0.39487c-0.12424,-0.1527 -0.23835,-0.2838 -0.34234,-0.39328c-0.45645,-0.52436 -0.86966,-1.06898 -1.19639,-1.65409c-0.42935,-0.74795 -0.75059,-1.54652 -1.09346,-2.33498c-0.17212,-0.36755 -0.20439,-0.77421 -0.39814,-1.13163c0.06022,-0.26546 -0.01941,-0.49178 -0.11053,-0.68637zM284.68271,229.5361c0.01202,0.36344 0.13215,0.67624 0.29552,0.96879c-0.0115,0.03174 -0.01287,0.0851 -0.00275,0.10673c0.26461,0.50876 0.57247,0.99726 0.98979,1.38178c0.23972,0.23044 0.45782,0.471 0.79689,0.57583c1.21073,-0.56698 2.42146,-1.13397 3.69704,-1.73133c-0.48081,-0.40752 -0.83191,-0.87577 -1.16138,-1.35415c-0.2991,-0.41352 -0.43674,-0.87631 -0.69259,-1.31007c-0.08099,-0.17296 -0.13025,-0.33443 -0.21125,-0.50739c-0.0134,-0.31006 -0.08015,-0.6215 -0.2104,-0.95593c-0.6486,0.30375 -1.17296,0.76019 -1.75809,1.08693c-0.59661,0.35847 -1.18309,0.73858 -1.75809,1.08693c-0.06022,0.26546 -0.02247,0.45867 0.0153,0.65188zM288.77524,226.96052c-0.03724,0.20197 0.02215,0.38505 0.10315,0.55801c-0.00548,0.21346 0.10726,0.39792 0.17676,0.60262c0.26187,0.61549 0.63184,1.18035 1.03493,1.70334c0.24848,0.30542 0.5402,0.5906 0.89814,0.79202c0.08649,-0.04051 0.18308,-0.05938 0.26958,-0.09988c1.0594,-0.49611 2.09715,-0.9821 3.16666,-1.45659c1.13437,-0.50487 2.24713,-0.99961 3.38149,-1.50448c1.65325,-0.74786 3.295,-1.46397 4.94827,-2.21183c1.85796,-0.81736 3.66393,-1.68946 5.54213,-2.46358c0.3128,-0.12013 0.62699,-0.29361 0.95129,-0.44549c-0.19785,-0.19732 -0.42881,-0.35277 -0.58342,-0.57035c-0.54894,-0.66559 -0.9783,-1.41353 -1.3644,-2.18174c-0.32399,-0.69184 -0.62636,-1.39381 -0.92872,-2.09578c-0.08838,-0.30131 -0.18827,-0.57088 -0.27664,-0.87219c0.04873,-0.23371 -0.08563,-0.40804 -0.1234,-0.60125c-0.04789,-0.21482 -0.04239,-0.42829 -0.16525,-0.63437c-0.23645,0.05801 -0.38916,0.18225 -0.53038,0.27473c-1.16422,0.83518 -2.43105,1.50752 -3.62564,2.27785c-0.77094,0.49284 -1.54188,0.98568 -2.3027,1.50013c-1.03175,0.6677 -2.03176,1.34691 -3.04189,2.00448c-0.82567,0.54482 -1.65136,1.08967 -2.48715,1.61289c-0.89054,0.5752 -1.76959,1.11868 -2.67024,1.67226c-0.81418,0.51309 -1.64998,1.0363 -2.47567,1.58113c0.0695,0.20471 0.00053,0.39518 0.10315,0.55801zM321.12785,220.6145c-0.41732,-0.38452 -0.71642,-0.79804 -1.03715,-1.20144c-0.33085,-0.42502 -0.67318,-0.81829 -0.98241,-1.25344c-0.2991,-0.41352 -0.56508,-0.86892 -0.84256,-1.29257c-0.28761,-0.44527 -0.5752,-0.89054 -0.85132,-1.36754c-0.25586,-0.43377 -0.50022,-0.8993 -0.75608,-1.33306c-0.24436,-0.46551 -0.40225,-0.97152 -0.73309,-1.39655c-0.0829,-0.51477 -0.39213,-0.94992 -0.58313,-1.41406c-0.1795,-0.49589 -0.41237,-0.99315 -0.59187,-1.48904c-0.16939,-0.47427 -0.32726,-0.98029 -0.47502,-1.46469c-0.15789,-0.50602 -0.21916,-1.03091 -0.4419,-1.50656c-0.53913,0.19975 -0.69048,0.27062 -0.99864,0.62583c0.0134,0.31006 0.02679,0.62012 0.10369,0.95318c0.10726,0.39791 0.21453,0.79584 0.31028,1.22549c0.1929,0.80595 0.39729,1.58016 0.75166,2.33686c0.24299,0.51888 0.50761,1.02764 0.66412,1.58702c0.02901,0.11822 0.08976,0.24795 0.19374,0.35742c0.18636,0.22907 0.29636,0.52025 0.41785,0.77969c0.44549,0.95129 1.0207,1.84183 1.6074,2.70062c0.75007,1.15136 1.63123,2.18859 2.57725,3.19544c0.17623,0.20745 0.35246,0.4149 0.62804,0.49674c0.34454,-0.10863 0.65873,-0.28213 1.03913,-0.53935zM319.61025,210.67514c-0.36206,-0.04135 -0.68362,0.00379 -1.01531,0.02732c-0.28844,0.00327 -0.55801,0.10315 -0.77696,0.31113c-0.43651,0.36259 -0.92502,0.67044 -1.45403,0.89181c-0.04325,0.02024 -0.09798,0.07224 -0.11959,0.08237c-0.01424,0.13847 0.02626,0.22495 0.14175,0.30268c0.03174,0.0115 0.0851,0.01287 0.10673,0.00275c0.65735,-0.22875 1.33496,-0.41427 2.03282,-0.55655c0.09661,-0.01888 0.23645,-0.05801 0.30268,-0.14175c0.30542,-0.24848 0.61085,-0.49695 0.78191,-0.91975zM315.73813,210.90676c0.61412,-0.20851 1.22685,-0.36365 1.82811,-0.48704c0.19321,-0.03776 0.33443,-0.13025 0.47701,-0.27612c0.20882,-0.22959 0.35415,-0.48219 0.5211,-0.74489c0.06623,-0.08374 0.15408,-0.17761 0.05009,-0.28707c-0.41817,0.06402 -0.82483,0.0963 -1.22274,0.20355c-0.73593,0.79278 -0.73593,0.79278 -1.76357,1.30038c-0.03449,0.09523 -0.01561,0.19184 0.10999,0.29118zM316.08843,217.22766c-0.42966,0.09576 -0.8492,0.21315 -1.26874,0.33054c-0.09661,0.01888 -0.19321,0.03776 -0.26957,0.09987c-0.27505,0.31333 -0.56022,0.60505 -0.71978,0.99611c0.38093,0.13794 0.73562,0.05093 1.09904,0.03891c0.18172,-0.00602 0.30132,-0.08838 0.42228,-0.22412c0.26492,-0.33496 0.5501,-0.62668 0.86701,-0.9069c0.02162,-0.01013 0.02299,-0.06349 0.04598,-0.12697c-0.052,-0.05473 -0.11411,-0.13108 -0.17623,-0.20745zM321.70006,214.96879c-0.47754,-0.11907 -0.86259,-0.09691 -1.25777,-0.09639c-0.14997,0.01751 -0.24795,0.08976 -0.34593,0.162c-0.45814,0.37271 -0.94664,0.68057 -1.49727,0.91206c-0.06486,0.03038 -0.11959,0.08237 -0.18445,0.11274c0.08976,0.24795 0.13162,0.28106 0.30458,0.20006c0.56212,-0.26324 1.15325,-0.40826 1.75176,-0.42493c0.36344,-0.01202 0.61276,-0.15515 0.84318,-0.39487c0.11085,-0.15735 0.21019,-0.28296 0.38589,-0.47069zM316.91123,213.46806c0.05062,0.1081 0.14723,0.08922 0.23371,0.04873c0.60536,-0.2835 1.27011,-0.3839 1.93484,-0.48431c0.53639,-0.09302 0.99315,-0.41237 1.31693,-0.95942c-0.26546,-0.06022 -0.49178,0.01941 -0.73698,0.00243c-0.51203,-0.02383 -0.92281,0.16854 -1.31472,0.45751c-0.43515,0.30922 -0.86016,0.64007 -1.35606,0.81957c-0.05473,0.052 -0.06623,0.08374 -0.07772,0.11548zM320.96971,213.4655c-0.32019,-0.00822 -0.54377,-0.03533 -0.75724,-0.04082c-0.35194,-0.01972 -0.6215,0.08016 -0.88367,0.30838c-0.35004,0.3221 -0.76219,0.56783 -1.18446,0.79194c-0.14122,0.0925 -0.31417,0.1735 -0.46551,0.24436c0.02901,0.11822 0.10399,0.10948 0.14723,0.08922c0.67761,-0.18552 1.36534,-0.34941 2.07195,-0.41671c0.11822,-0.02901 0.21482,-0.04789 0.3128,-0.12013c0.25206,-0.24985 0.51424,-0.47807 0.75892,-0.85627zM316.94248,218.48848c-0.37028,0.27885 -0.78982,0.39623 -1.19923,0.53524c-0.1081,0.05062 -0.22495,0.02626 -0.3128,0.12013c-0.14258,0.14586 -0.36701,0.5673 -0.45022,0.89624c0.28707,0.05009 0.56676,-0.02817 0.84509,-0.05305c0.22496,-0.02627 0.38779,-0.12889 0.51013,-0.31799c0.22168,-0.31471 0.46361,-0.58617 0.77916,-0.81303c0.02162,-0.01013 0.04462,-0.07361 0.05611,-0.10536c-0.01888,-0.09661 -0.05938,-0.18308 -0.22823,-0.26219zM312.0529,211.76264c-0.24193,0.27146 -0.6196,0.42196 -0.80954,0.74817c0.0925,0.14122 0.23098,0.15545 0.35795,0.20143c0.24384,0.07034 0.45456,0.18256 0.743,0.17929c0.32841,-0.31197 0.78106,-0.47122 1.14122,-0.77169c0.01424,-0.13847 -0.03639,-0.24657 -0.13025,-0.33443c-0.42829,0.04239 -0.85521,0.03144 -1.30237,-0.02277zM314.689,214.74598c-0.23645,0.05801 -0.4729,0.11602 -0.67486,0.07878c-0.48904,-0.08732 -0.84646,0.10642 -1.133,0.4515c-0.09934,0.12561 -0.22907,0.18636 -0.29804,0.37682c0.31745,0.11496 0.62614,0.15492 0.93483,0.19489c0.0851,0.01287 0.1716,-0.02763 0.26958,-0.09988c0.2838,-0.23835 0.5561,-0.44496 0.83991,-0.68331c0.06486,-0.03038 0.13108,-0.11411 0.06159,-0.31882zM314.05114,213.38393c-0.51614,0.13626 -1.00929,0.20904 -1.48684,0.08997c-0.09523,-0.03449 -0.17159,0.02763 -0.25807,0.06813c-0.18445,0.11274 -0.35879,0.24711 -0.49262,0.46796c0.44442,0.16093 0.83823,0.21377 1.25366,0.25648c0.13847,0.01424 0.2567,-0.01477 0.37629,-0.09714c0.21757,-0.15461 0.44527,-0.28761 0.66284,-0.44222c0.02162,-0.01013 0.04462,-0.07361 0.05611,-0.10537c-0.03038,-0.06486 -0.06075,-0.12972 -0.11137,-0.23782zM321.41015,217.10802c0.17571,-0.18773 0.37303,-0.38558 0.54873,-0.5733c0.0115,-0.03174 0.02299,-0.06349 0.04599,-0.12698c-0.30595,-0.14669 -0.62614,-0.15492 -0.90447,-0.13003c-0.59935,0.46521 -1.15547,0.91017 -1.89054,1.25441c0.48767,0.14069 0.76271,-0.17265 1.07415,-0.23941c0.3763,-0.09713 0.75123,-0.14091 1.12615,-0.18467zM319.98739,210.12947c0.15819,-0.3377 0.33664,-0.63215 0.34623,-1.00571c-0.19184,-0.01561 -0.35056,-0.07309 -0.51066,-0.0772c-0.1601,-0.00411 -0.33032,-0.02984 -0.48165,0.04103c-0.16421,0.15599 -0.22305,0.36807 -0.32377,0.54705c-0.10072,0.17897 -0.24331,0.32484 -0.27041,0.54842c0.4168,-0.01066 0.80184,-0.03279 1.24026,-0.05358zM315.04691,209.54333c0.68911,-0.21726 1.25998,-0.40552 1.83086,-0.59378c0.04325,-0.02024 0.11822,-0.029 0.14122,-0.0925c0.16695,-0.26272 0.39739,-0.50244 0.41711,-0.85437c-0.34318,0.05527 -0.66474,0.10041 -0.97618,0.16717c-0.36564,0.51393 -0.83528,0.91839 -1.413,1.37348zM313.2297,217.09016c0.24246,0.12371 0.47891,0.0657 0.69238,0.07118c0.2452,0.01698 0.46003,-0.0309 0.65735,-0.22875c0.27368,-0.25997 0.54736,-0.51994 0.91352,-0.63869c-0.02763,-0.1716 -0.08976,-0.24795 -0.21947,-0.18719c-0.33443,0.13025 -0.69048,0.27062 -1.03228,0.27253c-0.49178,0.01941 -0.73508,0.34424 -1.0115,0.71095zM312.703,214.72702c-0.49916,-0.10894 -0.8916,-0.21514 -1.2739,-0.29972c-0.15134,0.07088 -0.20745,0.17623 -0.27368,0.25997c-0.05611,0.10536 -0.16557,0.20935 -0.13794,0.38093c0.28433,0.15682 0.60179,0.27178 0.93073,0.355c0.25068,-0.19649 0.46963,-0.40447 0.7548,-0.69618zM313.2332,218.61748c0.23319,-0.34645 0.43324,-0.65104 0.65492,-0.96575c-0.35194,-0.01972 -0.68225,-0.04957 -1.01257,-0.0794c-0.21019,0.28296 -0.41901,0.51256 -0.4921,0.86312c0.2857,0.10345 0.56265,0.13193 0.84973,0.18203zM321.16521,210.84323c-0.25122,-0.1987 -0.56265,-0.13193 -0.8396,-0.16041c-0.0851,-0.01287 -0.18308,0.05938 -0.2277,0.133c-0.15545,0.23098 -0.2994,0.43019 -0.43324,0.65104c-0.02162,0.01013 -0.00136,0.05336 0.01887,0.0966c0.37355,0.00959 0.7586,-0.01256 1.13216,-0.00296c0.16557,-0.20935 0.25753,-0.46331 0.3495,-0.71727zM322.04407,214.46497c0.19732,-0.19785 0.37303,-0.38558 0.413,-0.69427c-0.27557,-0.08183 -0.57141,-0.20692 -0.88147,-0.19351c-0.12097,0.13573 -0.26219,0.22823 -0.3514,0.37546c-0.09934,0.12561 -0.28244,0.18499 -0.25617,0.40995c0.36206,0.04135 0.72411,0.08268 1.07605,0.1024zM313.62479,219.17223c-0.15408,0.17761 -0.17107,0.42281 -0.20966,0.67814c0.34043,0.05147 0.63627,0.17654 0.97945,0.12128c0.09196,-0.25396 0.27916,-0.47343 0.34075,-0.79225c-0.37355,-0.00959 -0.73698,0.00243 -1.11053,-0.00716zM317.91614,219.66693c-0.39929,0.16063 -0.77969,0.41785 -1.19923,0.53524c-0.34454,0.10863 -0.44664,0.34096 -0.4981,0.6814c0.30869,0.03996 0.56676,-0.02817 0.85658,-0.0848c0.2143,-0.44305 0.57446,-0.74352 0.84075,-1.13185zM314.7826,208.19085c0.06212,0.07636 0.12697,0.04598 0.19184,0.01561c0.29118,-0.11 0.59387,-0.25175 0.89518,-0.34013c0.45127,-0.10589 0.56623,-0.42333 0.67243,-0.81577c-0.1716,0.02763 -0.29995,0.03501 -0.41817,0.06402c-0.28981,0.05664 -0.53776,0.14639 -0.68446,0.45234c-0.10072,0.17897 -0.27505,0.31333 -0.42776,0.43758c-0.09661,0.01888 -0.22496,0.02627 -0.22907,0.18636zM311.06827,211.01111c0.13711,0.0676 0.25396,0.09196 0.34918,0.12645c0.2742,0.1352 0.49916,0.10894 0.73836,-0.0558c0.19595,-0.14448 0.4439,-0.23424 0.64997,-0.3571c0.06486,-0.03038 0.13985,-0.03913 0.09059,-0.20059c-0.35331,0.03364 -0.72686,0.02406 -1.09904,-0.03891c-0.0851,-0.01287 -0.19321,0.03776 -0.27969,0.07826c-0.1527,0.12424 -0.2838,0.23835 -0.44938,0.4477zM312.62381,216.97847c0.17571,-0.18773 0.38314,-0.36396 0.50686,-0.60642c-0.33907,-0.10483 -0.64502,-0.25153 -0.99696,-0.27125c-0.15545,0.23098 -0.34128,0.39707 -0.35963,0.69564c0.27557,0.08183 0.53966,0.19542 0.84973,0.18203zM320.38627,212.89516c0.33907,0.10483 0.65926,0.11305 0.95919,0.07804c0.15545,-0.23098 0.2994,-0.43019 0.40287,-0.71589c-0.21071,-0.11221 -0.4343,-0.13931 -0.66939,-0.13467c-0.22032,0.26135 -0.45075,0.50107 -0.69268,0.77253zM310.72819,215.52001c-0.0906,0.2006 -0.16832,0.31608 -0.20417,0.46468c-0.03449,0.09523 -0.04736,0.18034 -0.06022,0.26546c0.20935,0.16557 0.45182,0.28928 0.72876,0.31776c0.16557,-0.20935 0.33116,-0.4187 0.38125,-0.70577c-0.2857,-0.10345 -0.52816,-0.22717 -0.84561,-0.34212zM312.61374,209.47014c-0.37081,-0.11632 -0.62477,-0.20828 -0.93209,-0.30162c-0.09661,0.01888 -0.23782,0.11137 -0.33717,0.23698c-0.10948,0.10399 -0.28106,0.13162 -0.32841,0.31197c0.15599,0.16421 0.32484,0.24331 0.52679,0.28053c0.3358,-0.18361 0.6601,-0.33549 1.07087,-0.52786zM320.85439,209.22257c-0.05748,0.15872 -0.11496,0.31745 -0.17243,0.47617c-0.05748,0.15872 -0.09333,0.30733 -0.15081,0.46604c0.30869,0.03996 0.55253,0.11031 0.81061,0.04218c0.09934,-0.12561 0.08183,-0.27557 0.09607,-0.41406c0.01424,-0.13847 0.09333,-0.30733 0.00084,-0.44854c-0.21208,-0.05884 -0.38093,-0.13794 -0.58428,-0.12181zM311.84381,218.24004c0.1352,-0.2742 0.34402,-0.50381 0.39548,-0.84424c-0.24384,-0.07034 -0.47754,-0.11907 -0.72138,-0.1894c-0.1352,0.2742 -0.26903,0.49505 -0.25565,0.80512c0.17897,0.10072 0.31471,0.22168 0.58154,0.22854zM317.76007,208.69452c0.44991,-0.05253 0.84646,-0.10642 1.243,-0.16032c0.08922,-0.14723 0.18857,-0.27283 0.16093,-0.44442c-0.3492,-0.12645 -0.70249,-0.0928 -1.06594,-0.08078c-0.08922,0.14723 -0.17845,0.29446 -0.23592,0.45318c-0.07636,0.06212 -0.07772,0.11548 -0.10209,0.23234zM311.16585,213.86517c0.17707,-0.24109 0.43651,-0.36259 0.52847,-0.61655c-0.32757,-0.13658 -0.6234,-0.26165 -0.96385,-0.31312c-0.08047,0.22221 -0.29667,0.32346 -0.32515,0.60042c0.20935,0.16557 0.46468,0.20417 0.76051,0.32926zM322.46436,215.98165c0.1987,-0.25122 0.38589,-0.47069 0.44611,-0.73614c-0.2006,-0.0906 -0.41268,-0.14945 -0.62614,-0.15492c-0.1987,0.25122 -0.40752,0.48081 -0.64945,0.75228c0.29857,0.01835 0.53227,0.06707 0.82948,0.13878zM310.64326,211.34195c-0.24056,0.2181 -0.44801,0.39434 -0.51972,0.69153c0.1891,0.12234 0.34645,0.23319 0.55991,0.23866c0.21894,-0.20797 0.44801,-0.39434 0.70006,-0.64418c-0.24246,-0.12371 -0.4748,-0.22579 -0.74026,-0.28602zM321.91825,213.12675c0.33032,0.02984 0.57141,0.20692 0.82948,0.13878c0.15545,-0.23098 0.20417,-0.46468 0.22116,-0.70988c-0.23234,-0.10209 -0.44305,-0.2143 -0.71125,-0.16779c-0.10209,0.23234 -0.21431,0.44306 -0.33939,0.73889zM312.8741,219.7083c0.08047,-0.22221 0.18118,-0.40119 0.17654,-0.63627c-0.30869,-0.03996 -0.57141,-0.20692 -0.89297,-0.16178c-0.0906,0.2006 -0.11632,0.37081 -0.04682,0.57552c0.25396,0.09196 0.51941,0.15219 0.76325,0.22253zM317.68351,207.51776c0.11221,-0.21071 0.14807,-0.35933 0.14205,-0.54103c-0.24384,-0.07034 -0.52078,-0.09882 -0.78022,0.02268c-0.06897,0.19047 -0.13794,0.38093 -0.22854,0.58154c0.31882,0.06159 0.58839,-0.03828 0.8667,-0.06318zM316.83588,221.80723c0.04736,-0.18034 0.08321,-0.32895 0.04408,-0.46879c-0.27694,-0.02847 -0.53365,-0.0137 -0.79173,0.05443c-0.0791,0.16885 -0.11496,0.31745 -0.08732,0.48904c0.28707,0.05009 0.55665,-0.04978 0.83496,-0.07467zM310.37511,216.79255c-0.1987,0.25122 -0.13932,0.4343 -0.02658,0.61877c0.07088,0.15134 0.18499,0.28244 0.38833,0.2663c0.11221,-0.21071 0.2028,-0.41131 0.21978,-0.65651c-0.2006,-0.0906 -0.39106,-0.15957 -0.58154,-0.22854zM321.86439,218.13429c0.16421,-0.15599 0.33717,-0.23698 0.3744,-0.43894c-0.57004,-0.26028 -0.9302,0.04019 -1.28297,0.469c0.31006,-0.0134 0.59851,-0.01667 0.90858,-0.03006zM309.93077,214.54902c0.17761,0.15408 0.34646,0.23318 0.60179,0.27178c0.03724,-0.20197 0.24331,-0.32484 0.24879,-0.53828c-0.08237,-0.11959 -0.1891,-0.12234 -0.29446,-0.17845c-0.12697,-0.04598 -0.22084,-0.13383 -0.37218,-0.06295c-0.08922,0.14723 -0.17845,0.29446 -0.18393,0.50792zM317.23057,213.92483c-0.01835,0.29857 0.08563,0.40804 0.29035,0.33854c0.29118,-0.11 0.56212,-0.26324 0.81143,-0.40636c0.08649,-0.04051 0.18445,-0.11274 0.16695,-0.26272c-0.43979,0.07415 -0.85932,0.19153 -1.26874,0.33054zM313.40796,220.9609c-0.10948,0.10399 -0.13383,0.22085 -0.09471,0.3607c0.29583,0.12508 0.59028,0.30352 0.95372,0.29149c0.00822,-0.32019 -0.12614,-0.49453 -0.41321,-0.54462c-0.12697,-0.04598 -0.25258,-0.14533 -0.4458,-0.10757zM318.80349,216.72067c0.14175,0.30268 0.21536,0.34729 0.40995,0.25617c0.29255,-0.16337 0.60674,-0.33685 0.85879,-0.5867c-0.47016,0.00929 -0.90858,0.03006 -1.26874,0.33054zM318.12844,220.96467c-0.18308,0.05938 -0.33443,0.13025 -0.49589,0.1795c-0.3128,0.12013 -0.3128,0.12013 -0.23866,0.55991c0.1716,-0.02763 0.37492,-0.04377 0.47154,-0.06265c0.09196,-0.25396 0.18256,-0.45455 0.26302,-0.67678zM323.12738,211.37423c-0.16885,-0.0791 -0.30321,-0.25342 -0.54103,-0.14205c-0.04736,0.18034 -0.06295,0.37218 -0.12181,0.58428c0.2006,0.0906 0.38969,0.21293 0.59302,0.19679c0.03724,-0.20197 0.1062,-0.39244 0.06981,-0.63901zM315.80285,220.4457c-0.33168,0.02352 -0.6735,0.02542 -1.00518,0.04894c-0.08785,0.09387 -0.14396,0.19922 -0.03996,0.30869c0.2857,0.10345 0.5944,0.14343 0.90584,0.07667c0.08922,-0.14723 0.13521,-0.27421 0.13932,-0.4343zM322.9534,216.06898c0.0925,0.14122 0.22959,0.20882 0.39981,0.23455c0.06623,-0.08374 0.13246,-0.16749 0.1987,-0.25122c0.07772,-0.11548 0.16557,-0.20935 0.14807,-0.35933c-0.06075,-0.12972 -0.15461,-0.21757 -0.30321,-0.25342c-0.14396,0.19922 -0.2994,0.43019 -0.44337,0.62942zM321.39123,211.60731c0.2006,0.0906 0.39244,0.1062 0.59577,0.09007c0.04873,-0.23371 0.10757,-0.4458 0.1448,-0.64777c-0.14586,-0.14258 -0.31608,-0.16832 -0.45593,-0.12919c-0.10209,0.23234 -0.20417,0.46468 -0.28464,0.68689zM322.68817,217.24765c0.09934,-0.12561 0.1987,-0.25122 0.28791,-0.39845c0.0115,-0.03174 -0.00876,-0.07499 -0.00738,-0.12836c-0.10536,-0.05611 -0.20935,-0.16557 -0.41269,-0.14944c-0.14258,0.14586 -0.33854,0.29035 -0.44062,0.52268c0.1891,0.12234 0.35933,0.14807 0.57277,0.15356zM321.36545,219.26424c0.24795,-0.08976 0.40256,0.12782 0.61876,0.02657c0.13246,-0.16749 0.31692,-0.28022 0.40888,-0.53417c-0.17897,-0.10072 -0.34782,-0.17982 -0.51203,-0.02383c-0.16421,0.15599 -0.36892,0.22548 -0.51561,0.53144zM314.90324,221.78963c0.19184,0.01561 0.3938,0.05284 0.56402,0.07857c0.03174,0.0115 0.06486,-0.03038 0.1081,-0.05062c-0.00739,-0.12835 0.05009,-0.28707 -0.10589,-0.45127c-0.22359,-0.0271 -0.46879,-0.04408 -0.72411,-0.08268c-0.01561,0.19184 0.02352,0.33168 0.15789,0.50602zM322.21173,210.43223c0.06897,-0.19047 0.15957,-0.39106 0.21705,-0.54979c-0.15599,-0.16421 -0.32484,-0.24331 -0.48356,-0.30079c-0.14122,0.0925 -0.09196,0.25396 -0.11632,0.37081c-0.02435,0.11685 -0.07034,0.24384 0.02215,0.38505c0.08374,0.06623 0.18909,0.12234 0.36068,0.09471zM309.80388,212.42043c-0.10072,0.17897 -0.16832,0.31608 -0.23592,0.45318c-0.03312,0.04187 -0.02435,0.11685 -0.03585,0.14859c0.07088,0.15134 0.20797,0.21894 0.3782,0.24467c0.12234,-0.1891 0.2548,-0.35657 0.33527,-0.5788c-0.12561,-0.09934 -0.26271,-0.16694 -0.44169,-0.26766zM318.42343,221.53829c0.32156,-0.04514 0.64312,-0.09029 0.91543,-0.29689c-0.15599,-0.16421 -0.25859,-0.32705 -0.48219,-0.35415c-0.31692,0.28022 -0.31692,0.28022 -0.43324,0.65104zM309.8002,215.0583c-0.23866,0.55991 -0.22854,0.58154 0.16991,0.86945c0.0906,-0.2006 0.14945,-0.41268 0.24003,-0.61328c-0.0925,-0.14122 -0.22959,-0.20882 -0.40995,-0.25617zM323.20113,214.74033c0.12234,-0.1891 0.20143,-0.35795 0.20692,-0.57141c-0.04187,-0.03312 -0.11548,-0.07772 -0.18909,-0.12234c-0.06349,-0.02299 -0.1486,-0.03585 -0.21209,-0.05884c-0.12234,0.1891 -0.27642,0.3667 -0.30352,0.59028c0.12561,0.09934 0.30595,0.14669 0.4978,0.1623zM310.21254,210.64736c0.07361,0.04462 0.17897,0.10071 0.25396,0.09196c0.2682,-0.0465 0.46415,-0.19099 0.6311,-0.45371c-0.14723,-0.08922 -0.27146,-0.24193 -0.43156,-0.24604c-0.17571,0.18773 -0.4034,0.32073 -0.4535,0.60779zM319.29457,207.58049c0.0115,-0.03174 0.02299,-0.06349 0.04598,-0.12697c-0.30458,-0.20006 -0.64365,-0.3049 -0.98272,-0.40972c-0.12097,0.13573 -0.14533,0.25259 -0.08595,0.43568c0.33032,0.02984 0.67075,0.08131 1.02268,0.10103zM319.09118,215.08334c-0.38505,0.02215 -0.7586,0.01256 -1.11603,0.20629c-0.02162,0.01013 -0.02435,0.11685 -0.00411,0.1601c0.05062,0.1081 0.17761,0.15408 0.2857,0.10345c0.31144,-0.06677 0.57225,-0.24162 0.83444,-0.46984zM323.62371,213.6725c0.0791,-0.16885 0.15819,-0.3377 0.17381,-0.52954c-0.07088,-0.15134 -0.16474,-0.2392 -0.3667,-0.27642c-0.05884,0.21208 -0.13932,0.4343 -0.17654,0.63627c0.10399,0.10948 0.20935,0.16557 0.36944,0.16968zM310.99324,218.50656c0.12013,0.3128 0.22001,0.58238 0.49284,0.77094c0.16421,-0.15599 0.17982,-0.34782 0.16368,-0.55116c-0.21071,-0.11221 -0.38969,-0.21293 -0.65651,-0.21978zM311.59136,208.52541c0.22085,0.13383 0.25258,0.14533 0.31745,0.11496c0.22632,-0.07963 0.37028,-0.27885 0.49262,-0.46796c0.04462,-0.07361 0.01561,-0.19184 -0.14448,-0.19595c-0.13383,0.22085 -0.45539,0.26598 -0.66558,0.54895zM319.54823,208.51618c0.34043,0.05147 0.66939,0.13467 1.04704,-0.01583c-0.29308,-0.23181 -0.6234,-0.26165 -0.91048,-0.31174c-0.09798,0.07224 -0.11085,0.15735 -0.13658,0.32757zM309.66425,213.69845c-0.11548,-0.07772 -0.20935,-0.16557 -0.32484,-0.24331c-0.14396,0.19922 -0.23455,0.39981 -0.05832,0.60726c0.052,0.05473 0.10399,0.10948 0.20059,0.09059c0.10948,-0.10399 0.14533,-0.25258 0.18256,-0.45455zM319.69805,218.06798c0.09112,0.19459 0.17486,0.26081 0.3377,0.15819c0.14122,-0.0925 0.28244,-0.18499 0.41352,-0.2991c0.05473,-0.052 0.09934,-0.12561 0.03722,-0.20197c-0.28981,0.05664 -0.52763,0.16801 -0.78845,0.34287zM316.28305,209.64983c-0.32156,0.04514 -0.62287,0.13352 -0.87356,0.33c-0.02162,0.01013 -0.02435,0.11685 -0.01424,0.13847c0.02024,0.04325 0.10536,0.05611 0.14859,0.03585c0.27094,-0.15324 0.55062,-0.2315 0.73919,-0.50433zM315.06199,208.95631c0.18583,-0.16611 0.42365,-0.27748 0.60072,-0.51857c-0.33168,0.02352 -0.58976,0.09165 -0.68911,0.21726c-0.10948,0.10399 -0.06897,0.19047 0.08838,0.30131zM312.23477,220.4822c0.18636,0.22907 0.3281,0.53175 0.65842,0.56159c-0.00929,-0.47016 -0.3396,-0.5 -0.65842,-0.56159zM316.02789,218.33683c0.02024,0.04325 0.052,0.05473 0.07224,0.09798c0.20608,-0.12286 0.44116,-0.12751 0.58511,-0.32674c-0.03913,-0.13985 -0.09112,-0.19459 -0.22959,-0.20882c-0.12097,0.13573 -0.26355,0.28159 -0.42776,0.43758zM317.48241,212.43609c-0.33306,0.07688 -0.59113,0.14502 -0.84044,0.28814c-0.04325,0.02024 -0.06623,0.08374 -0.03585,0.14859c0.01013,0.02162 0.052,0.05473 0.08374,0.06623c0.32156,-0.04514 0.581,-0.16664 0.79257,-0.50296zM310.12522,211.1364c-0.10399,-0.10948 -0.17761,-0.15408 -0.22221,-0.08047c-0.12097,0.13573 -0.23181,0.29308 -0.34265,0.45044c-0.05611,0.10536 -0.02573,0.17022 0.09112,0.19459c0.20745,-0.17623 0.37166,-0.33221 0.47375,-0.56455zM323.54113,212.31402c0.10536,0.05611 0.1891,0.12234 0.29446,0.17845c0.03174,0.0115 0.07499,-0.00876 0.14997,-0.01751c-0.1215,-0.25944 -0.168,-0.52763 -0.3861,-0.7682c-0.05884,0.21208 -0.09471,0.3607 -0.05832,0.60726zM313.68665,212.6056c-0.20608,0.12286 -0.39054,0.23561 -0.63985,0.37873c0.31745,0.11496 0.5424,0.08869 0.74848,-0.03417c0.01424,-0.13847 0.00548,-0.21346 -0.10863,-0.34454zM317.40631,219.14118c-0.11085,0.15735 -0.36892,0.22548 -0.38726,0.52405c0.54926,-0.17813 0.65736,-0.22876 0.64997,-0.3571c-0.05062,-0.1081 -0.12425,-0.15271 -0.26272,-0.16695zM316.83169,211.15914c-0.4458,-0.10757 -0.70524,0.01393 -0.98904,0.25228c0.40119,0.18118 0.62288,-0.13352 0.98904,-0.25228zM321.28392,218.69611c-0.41406,-0.09607 -0.65188,0.0153 -0.89106,0.18004c-0.02162,0.01013 -0.02299,0.06349 -0.00275,0.10673c0.03038,0.06486 0.09387,0.08785 0.13711,0.0676c0.22632,-0.07963 0.4324,-0.20249 0.7567,-0.35436zM318.21661,220.02708c-0.16421,0.15599 -0.37028,0.27885 -0.42037,0.56593c0.24657,-0.03639 0.43104,-0.14913 0.59387,-0.25175c0.00411,-0.1601 -0.05801,-0.23645 -0.1735,-0.31417zM322.65801,218.42168c0.12371,-0.24246 0.36153,-0.35384 0.34677,-0.61053c-0.33306,0.07688 -0.33306,0.07688 -0.52436,0.45645c0.04187,0.03312 0.08374,0.06623 0.17761,0.15408zM313.40416,220.27728c0.2066,0.27231 0.47206,0.33253 0.749,0.36101c0.09934,-0.12561 0.05884,-0.21208 -0.03639,-0.24657c-0.22359,-0.0271 -0.4573,-0.07584 -0.71263,-0.11442zM323.63406,214.93302c0.08237,0.11959 0.15462,0.21757 0.31472,0.22168c0.0676,-0.13711 0.1352,-0.2742 0.09607,-0.41406c-0.07224,-0.09798 -0.14586,-0.14258 -0.25259,-0.14533c-0.08785,0.09387 -0.12234,0.1891 -0.15819,0.3377zM314.62984,215.80179c0.20334,-0.01613 0.35331,-0.03364 0.46277,-0.13764c0.03312,-0.04187 0.03449,-0.09523 0.03585,-0.14859c-0.03038,-0.06486 -0.1141,-0.13109 -0.16885,-0.0791c-0.12972,0.06075 -0.28106,0.13162 -0.32978,0.36533zM323.11209,210.72236c-0.02627,-0.22496 -0.21536,-0.34729 -0.3396,-0.5c-0.15956,0.39107 -0.13931,0.4343 0.3396,0.5zM314.51662,207.73546c0.36481,-0.06539 0.36481,-0.06539 0.4034,-0.32073c-0.14997,0.01751 -0.32156,0.04514 -0.4034,0.32073zM315.83118,216.84725c0.02435,-0.11685 -0.00602,-0.18172 -0.05938,-0.18308c-0.22359,-0.0271 -0.27832,0.02489 -0.38178,0.3106c0.18172,-0.00602 0.31144,-0.06676 0.44116,-0.12751zM321.5362,219.68515c-0.15872,-0.05748 -0.30733,-0.09333 -0.43841,0.02078c0.22687,0.31555 0.28022,0.31693 0.43841,-0.02078zM315.06071,206.92707c-0.21208,-0.05884 -0.39518,0.00053 -0.55664,0.04978c-0.08649,0.04051 -0.12097,0.13573 0.02626,0.22495c0.16146,-0.04925 0.34454,-0.10863 0.53038,-0.27473zM323.48262,217.0865c-0.23645,0.05801 -0.31417,0.17348 -0.27642,0.3667c0,0 0.04187,0.03312 0.06349,0.02299c0.13985,-0.03913 0.16557,-0.20935 0.21293,-0.38969zM314.12445,214.27225c0.10399,0.10948 0.21071,0.11221 0.28707,0.05009c0.04325,-0.02024 0.06623,-0.08374 0.0676,-0.13711c0.00136,-0.05336 -0.07224,-0.09798 -0.11548,-0.07772c-0.07499,0.00876 -0.16146,0.04925 -0.2392,0.16474zM324.04789,213.79021c-0.11085,0.15735 -0.1352,0.2742 0.03228,0.40667c0.12234,-0.1891 0.12508,-0.29583 -0.03228,-0.40667z" fill="#000000"/><path d="M306.39267,217.57671c0.30238,0.70197 0.60474,1.40394 0.92872,2.09578c0.36449,0.77833 0.81546,1.51614 1.3644,2.18174c0.17623,0.20745 0.37546,0.3514 0.58343,0.57035c-0.34593,0.162 -0.63848,0.32536 -0.95129,0.44549c-1.85659,0.764 -3.68417,1.64622 -5.54213,2.46358c-1.66338,0.72623 -3.295,1.46397 -4.94827,2.21183c-1.13437,0.50487 -2.24713,0.99961 -3.38149,1.50448c-1.0695,0.47449 -2.09715,0.9821 -3.16666,1.45659c-0.08649,0.04051 -0.17296,0.08099 -0.26957,0.09987c-0.37957,-0.19131 -0.63954,-0.46499 -0.89814,-0.79202c-0.40309,-0.52299 -0.77305,-1.08786 -1.03493,-1.70334c-0.09112,-0.19459 -0.20386,-0.37903 -0.17676,-0.60262c0.13436,0.17433 0.17075,0.4209 0.39023,0.6081c0.27505,-0.31333 0.67296,-0.42059 1.00876,-0.60422c0.02162,-0.01013 0.04324,-0.02024 0.03312,-0.04187c0.50275,-0.44633 1.12973,-0.73994 1.68447,-1.13153c0.19595,-0.14448 0.36153,-0.35384 0.59798,-0.41184c0.45265,-0.15926 0.77231,-0.5462 1.22497,-0.70545c0.02162,-0.01013 0.05473,-0.052 0.09798,-0.07224c0.38041,-0.25722 0.72908,-0.52595 1.12973,-0.73994c0.47564,-0.22275 0.82705,-0.5982 1.32295,-0.7777c0.22032,-0.26135 0.52162,-0.34973 0.81418,-0.51309c0.04325,-0.02024 0.06486,-0.03038 0.1081,-0.05062c0.3514,-0.37546 0.84593,-0.5016 1.23783,-0.79057c0.39191,-0.28897 0.86618,-0.45836 1.2682,-0.72571c0.46689,-0.29772 0.88178,-0.65019 1.43103,-0.82833c0.04325,-0.02024 0.1081,-0.05062 0.14122,-0.0925c0.17707,-0.24109 0.46689,-0.29772 0.71621,-0.44085c0.12972,-0.06075 0.29118,-0.11 0.40066,-0.21399c0.15408,-0.17761 0.33717,-0.23698 0.53175,-0.3281c0.1081,-0.05062 0.22632,-0.07963 0.29256,-0.16336c0.22032,-0.26135 0.54324,-0.35985 0.82431,-0.49146c0.1081,-0.05062 0.22632,-0.07963 0.29255,-0.16337c0.18719,-0.21947 0.43515,-0.30922 0.67296,-0.42059c0.38916,-0.18225 0.70745,-0.51582 1.10674,-0.67646c0.07499,-0.00876 0.10948,-0.10399 0.16421,-0.15599z" fill="#87d7dc"/><path d="M306.39267,217.57671c-0.05473,0.052 -0.08922,0.14723 -0.15409,0.17761c-0.39929,0.16063 -0.72771,0.47259 -1.10674,0.67646c-0.23782,0.11137 -0.48576,0.20112 -0.67296,0.42059c-0.06623,0.08374 -0.18445,0.11274 -0.29256,0.16337c-0.28106,0.13162 -0.59387,0.25175 -0.8243,0.49147c-0.06623,0.08374 -0.19459,0.09112 -0.29256,0.16337c-0.19459,0.09112 -0.36755,0.17212 -0.53175,0.3281c-0.10948,0.10399 -0.27094,0.15324 -0.40066,0.21399c-0.24931,0.14312 -0.53913,0.19975 -0.71621,0.44085c-0.03312,0.04187 -0.09798,0.07224 -0.14122,0.0925c-0.52764,0.16801 -0.96415,0.53059 -1.43103,0.82833c-0.42365,0.27748 -0.89791,0.44687 -1.2682,0.72571c-0.39191,0.28897 -0.88643,0.41511 -1.23783,0.79057c-0.0115,0.03174 -0.06486,0.03038 -0.1081,0.05062c-0.28106,0.13162 -0.59387,0.25175 -0.81418,0.51309c-0.50602,0.15789 -0.85743,0.53334 -1.32295,0.7777c-0.41078,0.19238 -0.74931,0.48272 -1.12973,0.73994c-0.04325,0.02024 -0.05473,0.052 -0.09798,0.07224c-0.45265,0.15926 -0.77231,0.5462 -1.22497,0.70545c-0.24795,0.08976 -0.3919,0.28898 -0.59799,0.41185c-0.56487,0.36997 -1.18172,0.68521 -1.68447,1.13153c-0.02162,0.01013 -0.03312,0.04187 -0.03312,0.04187c-0.3358,0.18361 -0.73371,0.29088 -1.00876,0.60422c-0.20935,-0.16557 -0.22412,-0.42228 -0.39023,-0.6081c-0.08099,-0.17296 -0.162,-0.34593 -0.10315,-0.55801c0.12972,-0.06075 0.29118,-0.10999 0.40066,-0.21399c0.38314,-0.36396 0.84729,-0.55496 1.28107,-0.81082c0.43377,-0.25586 0.81693,-0.61982 1.32295,-0.7777c0.22032,-0.26135 0.52162,-0.34973 0.81418,-0.51309c0.04325,-0.02024 0.1081,-0.05062 0.14122,-0.0925c0.14396,-0.19922 0.38041,-0.25724 0.56486,-0.36998c0.1081,-0.05062 0.2162,-0.10124 0.29256,-0.16336c0.42502,-0.33085 0.88178,-0.65019 1.37904,-0.88306c0.06486,-0.03038 0.16146,-0.04925 0.18445,-0.11274c0.16557,-0.20935 0.39191,-0.28897 0.6081,-0.39023c0.24795,-0.08976 0.39328,-0.34234 0.66284,-0.44222c0.35605,-0.14037 0.62972,-0.40034 0.9554,-0.60558c0.45539,-0.26598 0.84866,-0.60833 1.34593,-0.84119c0.08649,-0.04051 0.2047,-0.0695 0.24931,-0.14312c0.13246,-0.16749 0.33717,-0.23698 0.52162,-0.34973c0.17296,-0.08099 0.3358,-0.18361 0.46688,-0.29773c0.24056,-0.2181 0.50137,-0.39296 0.80406,-0.53472c0.4439,-0.23424 0.82705,-0.5982 1.33307,-0.75608c0.04325,-0.02024 0.09798,-0.07224 0.14122,-0.0925c0.42365,-0.27748 0.83717,-0.57658 1.28107,-0.81082c0.47564,-0.22275 0.87029,-0.61844 1.36618,-0.79796c0.06486,-0.03038 0.10948,-0.10399 0.16421,-0.15599c0.26081,-0.17486 0.55337,-0.33822 0.86481,-0.40499c0.07224,0.09798 0.11274,0.18445 0.17486,0.26081c0.07688,0.33306 0.15515,0.61276 0.26515,0.90393z" fill="#b0eef2"/><path d="M321.12785,220.6145c-0.38041,0.25722 -0.69459,0.43072 -1.0594,0.49611c-0.25396,-0.09196 -0.43019,-0.2994 -0.62805,-0.49673c-0.9244,-1.01699 -1.82718,-2.04409 -2.57725,-3.19544c-0.56508,-0.86892 -1.14029,-1.75945 -1.6074,-2.70062c-0.1215,-0.25944 -0.2315,-0.55063 -0.41785,-0.77969c-0.07224,-0.09798 -0.133,-0.2277 -0.19374,-0.35742c-0.15651,-0.55938 -0.44274,-1.05801 -0.66412,-1.58702c-0.32262,-0.7452 -0.55876,-1.53092 -0.75166,-2.33686c-0.08563,-0.40804 -0.1929,-0.80595 -0.31029,-1.22549c-0.09851,-0.32293 -0.09029,-0.64312 -0.10368,-0.95319c0.31828,-0.33359 0.4595,-0.42607 0.99864,-0.62583c0.20112,0.48576 0.28402,1.00053 0.4419,1.50656c0.14776,0.4844 0.30564,0.99042 0.47502,1.46469c0.1795,0.49589 0.39075,1.00328 0.59187,1.48904c0.16939,0.47427 0.47861,0.90941 0.58313,1.41406c0.33085,0.42502 0.48873,0.93104 0.73309,1.39655c0.23424,0.4439 0.50022,0.89929 0.75608,1.33307c0.26598,0.45539 0.55358,0.90066 0.85132,1.36754c0.27748,0.42365 0.54346,0.87904 0.84256,1.29257c0.30922,0.43515 0.65157,0.82841 0.98241,1.25344c0.34096,0.44664 0.64007,0.86016 1.0574,1.24468z" fill="#d1eaeb"/><path d="M306.11603,216.70452c-0.06212,-0.07636 -0.10262,-0.16284 -0.17486,-0.26081c-0.31144,0.06677 -0.5925,0.19838 -0.86481,0.40499c-0.05473,0.052 -0.09934,0.12561 -0.16421,0.15599c-0.49589,0.1795 -0.90067,0.55359 -1.36618,0.79796c-0.45402,0.21262 -0.85743,0.53334 -1.28107,0.81082c-0.04325,0.02024 -0.09798,0.07224 -0.14122,0.0925c-0.50602,0.15789 -0.85743,0.53334 -1.33307,0.75608c-0.28106,0.13162 -0.5635,0.3166 -0.80406,0.53472c-0.1527,0.12424 -0.31555,0.22687 -0.46688,0.29773c-0.19459,0.09112 -0.37767,0.1505 -0.52162,0.34973c-0.04462,0.07361 -0.16283,0.10262 -0.24931,0.14312c-0.47564,0.22275 -0.89054,0.5752 -1.34593,0.84119c-0.32567,0.20524 -0.59935,0.46521 -0.9554,0.60558c-0.24795,0.08976 -0.39327,0.34233 -0.66284,0.44222c-0.22632,0.07963 -0.47428,0.16938 -0.6081,0.39023c-0.05473,0.052 -0.11959,0.08237 -0.18445,0.11274c-0.49726,0.23287 -0.9324,0.54209 -1.37904,0.88306c-0.09798,0.07224 -0.2162,0.10124 -0.29255,0.16337c-0.19459,0.09112 -0.42091,0.17075 -0.56486,0.36998c-0.03312,0.04187 -0.09798,0.07224 -0.14122,0.0925c-0.28106,0.13162 -0.59387,0.25175 -0.81418,0.51309c-0.50602,0.15789 -0.88917,0.52184 -1.32295,0.7777c-0.43377,0.25586 -0.91954,0.45699 -1.28107,0.81082c-0.10948,0.10399 -0.27094,0.15324 -0.40066,0.21399c-0.11274,-0.18445 -0.04377,-0.37492 -0.09302,-0.53639c0.85743,-0.53334 1.66147,-1.06805 2.47567,-1.58113c0.89054,-0.5752 1.76958,-1.11867 2.67024,-1.67226c0.8358,-0.52322 1.66147,-1.06806 2.48715,-1.61289c1.03175,-0.6677 2.03176,-1.34689 3.04189,-2.00448c0.77094,-0.49284 1.54189,-0.98569 2.3027,-1.50013c1.19459,-0.77032 2.45129,-1.46429 3.62564,-2.27784c0.16283,-0.10262 0.30543,-0.24847 0.53038,-0.27473c0.09112,0.19459 0.11738,0.41954 0.16526,0.63436c0.00739,0.12835 0.14175,0.30268 0.11464,0.52627z" fill="#87d7dc"/><path d="M288.56201,228.19393c0.25586,0.43377 0.41511,0.88643 0.69259,1.31007c0.32948,0.47838 0.68057,0.94664 1.16138,1.35415c-1.25396,0.58723 -2.48631,1.16434 -3.69704,1.73133c-0.3492,-0.12645 -0.5673,-0.36701 -0.79689,-0.57584c-0.42744,-0.40614 -0.70356,-0.88315 -0.98979,-1.38178c-0.01013,-0.02162 -0.00876,-0.07499 0.00275,-0.10673c0.22085,0.13383 0.36344,-0.01202 0.51614,-0.13626c0.38178,-0.3106 0.77369,-0.59957 1.21621,-0.78045c0.08649,-0.04051 0.17296,-0.08099 0.24931,-0.14312c0.35004,-0.3221 0.79257,-0.50296 1.17297,-0.76019c0.21757,-0.15461 0.37028,-0.27885 0.47237,-0.51119z" fill="#61afb4"/><path d="M308.83963,215.03363c0.22464,0.81745 0.60064,1.56403 0.89014,2.35111c0.14037,0.35605 0.34561,0.68172 0.55085,1.00739c0.34698,0.62836 0.6176,1.31883 1.05107,1.90669c0.16474,0.2392 0.32948,0.47838 0.50571,0.68583c0.11411,0.13108 0.2066,0.27231 0.27748,0.42365c-0.05473,0.052 -0.08785,0.09387 -0.13109,0.1141c-0.17296,0.08099 -0.34593,0.162 -0.51888,0.24299c-0.11548,-0.07772 -0.19922,-0.14396 -0.29308,-0.23181c-0.62393,-0.65683 -1.25799,-1.33528 -1.65285,-2.17846c-0.36586,-0.72497 -0.74185,-1.47154 -1.02122,-2.237c-0.23013,-0.60399 -0.48188,-1.19786 -0.52892,-1.86124c0.09387,0.08785 0.08976,0.24795 0.25997,0.27368c0.25807,-0.06813 0.5695,-0.1349 0.61085,-0.49695z" fill="#61aeb3"/><path d="M307.63408,216.23086c0.21536,0.34729 0.24764,0.75397 0.39814,1.13163c0.34287,0.78845 0.68574,1.5769 1.09346,2.33498c0.33685,0.60674 0.75007,1.15135 1.19639,1.65409c0.11411,0.13108 0.22823,0.26219 0.34234,0.39328c-0.30268,0.14175 -0.56212,0.26324 -0.84318,0.39487c-0.38093,-0.13794 -0.64091,-0.41163 -0.86777,-0.72717c-0.27885,-0.37028 -0.56783,-0.76219 -0.79194,-1.18446c-0.54209,-0.9324 -0.94434,-1.90394 -1.37833,-2.88697c-0.08099,-0.17296 -0.16199,-0.34592 -0.12477,-0.54789c0.1081,-0.05062 0.22632,-0.07963 0.29255,-0.16337c0.17571,-0.18773 0.44527,-0.28761 0.68309,-0.39898z" fill="#61aeb3"/><path d="M288.56201,228.19393c-0.0906,0.2006 -0.23319,0.34645 -0.43926,0.46932c-0.38041,0.25722 -0.82294,0.4381 -1.17296,0.76019c-0.07636,0.06212 -0.16283,0.10262 -0.24931,0.14312c-0.45402,0.21262 -0.8243,0.49147 -1.21621,0.78045c-0.13108,0.11411 -0.29529,0.27009 -0.51614,0.13626c-0.1735,-0.31417 -0.27201,-0.6371 -0.29552,-0.96879c0.27231,-0.2066 0.53449,-0.43483 0.85743,-0.53334c0.04325,-0.02024 0.09798,-0.07224 0.14122,-0.0925c0.40202,-0.26735 0.82567,-0.54483 1.23783,-0.79057c0.18445,-0.11274 0.35742,-0.19374 0.53175,-0.3281c0.20745,-0.17623 0.45676,-0.31935 0.7452,-0.32262c0.07224,0.09798 0.11274,0.18445 0.17486,0.26081c0.07088,0.15134 0.13025,0.33443 0.20112,0.48576z" fill="#87d7dc"/><path d="M319.61025,210.67514c-0.18118,0.40119 -0.47648,0.67128 -0.78191,0.91975c-0.07636,0.06212 -0.20608,0.12286 -0.30268,0.14175c-0.70797,0.12066 -1.37547,0.3278 -2.03282,0.55655c-0.02162,0.01013 -0.07499,0.00876 -0.10673,-0.00275c-0.10536,-0.05611 -0.15599,-0.16421 -0.14175,-0.30268c0.04325,-0.02024 0.07636,-0.06212 0.11959,-0.08237c0.52902,-0.22137 1.02764,-0.50761 1.45403,-0.89181c0.22907,-0.18636 0.46689,-0.29772 0.77696,-0.31113c0.34181,-0.00191 0.65324,-0.06866 1.01531,-0.02732z" fill="#cce5e6"/><path d="M315.73813,210.90676c-0.12561,-0.09934 -0.14448,-0.19595 -0.10999,-0.29118c1.01752,-0.52923 1.01752,-0.52923 1.76357,-1.30038c0.38779,-0.12889 0.82621,-0.14966 1.22274,-0.20355c0.11411,0.13108 -0.00548,0.21346 -0.05009,0.28707c-0.16695,0.26272 -0.31228,0.5153 -0.5211,0.74489c-0.14258,0.14586 -0.2838,0.23835 -0.47701,0.27612c-0.60125,0.1234 -1.21399,0.27854 -1.82811,0.48704z" fill="#cce5e6"/><path d="M288.35075,227.68654c-0.06212,-0.07636 -0.10262,-0.16284 -0.17486,-0.26081c-0.28844,0.00327 -0.53776,0.14638 -0.7452,0.32262c-0.17433,0.13436 -0.34729,0.21536 -0.53175,0.3281c-0.41215,0.24574 -0.8358,0.52322 -1.23783,0.79057c-0.04325,0.02024 -0.09798,0.07224 -0.14122,0.0925c-0.33443,0.13025 -0.57499,0.34835 -0.85743,0.53334c-0.03776,-0.19321 -0.06539,-0.36481 -0.01667,-0.59851c0.57499,-0.34835 1.15135,-0.75007 1.75809,-1.08693c0.57499,-0.34835 1.10948,-0.78319 1.75809,-1.08693c0.14037,0.35605 0.17539,0.65599 0.18879,0.96606z" fill="#60adb2"/><path d="M316.08843,217.22766c0.06212,0.07636 0.11411,0.13108 0.17623,0.20745c-0.02299,0.06349 -0.03449,0.09523 -0.04598,0.12697c-0.32704,0.2586 -0.60209,0.57194 -0.86701,0.9069c-0.12097,0.13573 -0.24056,0.2181 -0.42228,0.22412c-0.35331,0.03364 -0.70797,0.12066 -1.09904,-0.03891c0.15956,-0.39107 0.43461,-0.70441 0.71978,-0.99611c0.05473,-0.052 0.17296,-0.08099 0.26957,-0.09987c0.41954,-0.11738 0.83907,-0.23477 1.26874,-0.33054z" fill="#cce5e6"/><path d="M321.70006,214.96879c-0.17571,0.18773 -0.27505,0.31333 -0.39602,0.44907c-0.23044,0.23972 -0.47976,0.38284 -0.84318,0.39487c-0.61,0.04842 -1.21125,0.17182 -1.75176,0.42493c-0.17296,0.08099 -0.20471,0.0695 -0.30458,-0.20006c0.06486,-0.03038 0.11959,-0.08238 0.18446,-0.11275c0.55063,-0.2315 1.03913,-0.53935 1.49727,-0.91206c0.11959,-0.08237 0.21757,-0.15461 0.34593,-0.162c0.4053,0.02109 0.79035,-0.00106 1.2679,0.118z" fill="#cae2e3"/><path d="M316.91123,213.46806c0.0115,-0.03174 0.04462,-0.07361 0.06623,-0.08374c0.51751,-0.18963 0.95266,-0.49885 1.35606,-0.81957c0.39191,-0.28897 0.80269,-0.48134 1.31471,-0.45751c0.2452,0.01698 0.49315,-0.07277 0.73698,-0.00243c-0.29202,0.55854 -0.77042,0.88802 -1.31693,0.95942c-0.66474,0.10041 -1.31798,0.16906 -1.93484,0.48431c-0.07499,0.00876 -0.16146,0.04925 -0.22221,-0.08047z" fill="#c9e1e2"/><path d="M320.96971,213.4655c-0.24467,0.3782 -0.50686,0.60643 -0.79066,0.84478c-0.09798,0.07224 -0.20608,0.12286 -0.3128,0.12013c-0.69649,0.08891 -1.39434,0.23119 -2.07195,0.41671c-0.04325,0.02024 -0.11822,0.029 -0.14723,-0.08922c0.15134,-0.07088 0.3243,-0.15187 0.46551,-0.24436c0.42228,-0.22412 0.83444,-0.46984 1.18446,-0.79194c0.26219,-0.22823 0.55337,-0.33822 0.88369,-0.30838c0.2452,0.01698 0.46879,0.04408 0.78898,0.0523z" fill="#c9e1e2"/><path d="M316.94248,218.48848c0.16885,0.0791 0.21947,0.18719 0.27009,0.29529c-0.0115,0.03174 -0.04462,0.07361 -0.05611,0.10537c-0.32567,0.20524 -0.58922,0.48683 -0.77916,0.81303c-0.12234,0.1891 -0.28517,0.29172 -0.51013,0.31799c-0.27832,0.02489 -0.56814,0.08152 -0.84509,0.05305c0.08321,-0.32895 0.29751,-0.772 0.45022,-0.89624c0.08785,-0.09387 0.19459,-0.09112 0.3128,-0.12013c0.35742,-0.19374 0.78708,-0.2895 1.15737,-0.56835z" fill="#cae3e4"/><path d="M312.0529,211.76264c0.44716,0.0542 0.86396,0.04355 1.29226,0.00115c0.10399,0.10948 0.14448,0.19595 0.13025,0.33443c-0.33854,0.29035 -0.81281,0.45972 -1.14122,0.77169c-0.28844,0.00327 -0.49916,-0.10894 -0.74301,-0.17928c-0.12697,-0.04598 -0.26546,-0.06022 -0.35795,-0.20144c0.20006,-0.30458 0.55611,-0.44496 0.81966,-0.72655z" fill="#c8e0e1"/><path d="M314.689,214.74598c0.0695,0.20471 -0.00686,0.26683 -0.08321,0.32895c-0.2838,0.23835 -0.54599,0.46658 -0.83991,0.68331c-0.07636,0.06212 -0.16284,0.10262 -0.26957,0.09987c-0.30869,-0.03996 -0.62751,-0.10155 -0.93484,-0.19489c0.0791,-0.16885 0.19869,-0.25123 0.29804,-0.37682c0.29804,-0.37682 0.65546,-0.57056 1.133,-0.4515c0.23371,0.04873 0.47016,-0.00929 0.69649,-0.08891z" fill="#cbe4e5"/><path d="M314.05114,213.38393c0.05062,0.1081 0.08099,0.17296 0.11137,0.23782c-0.03312,0.04187 -0.03449,0.09523 -0.05611,0.10537c-0.21757,0.15461 -0.44527,0.28761 -0.66284,0.44222c-0.11959,0.08237 -0.23782,0.11137 -0.37629,0.09714c-0.41542,-0.04271 -0.81936,-0.11716 -1.25366,-0.25648c0.12371,-0.24246 0.30816,-0.35521 0.49262,-0.46796c0.08649,-0.04051 0.17296,-0.08099 0.25807,-0.06813c0.47754,0.11907 0.97069,0.0463 1.48684,-0.08997z" fill="#c8e0e1"/><path d="M307.63408,216.23086c-0.23782,0.11137 -0.50739,0.21125 -0.69459,0.43072c-0.06623,0.08374 -0.18445,0.11274 -0.29255,0.16337c-0.19374,-0.35742 -0.29088,-0.73371 -0.2914,-1.12889c0.32293,-0.09851 0.58511,-0.32673 0.82431,-0.49146c0.17897,0.10072 0.18499,0.28244 0.28897,0.39191c0.11274,0.18445 0.19238,0.41078 0.16526,0.63436z" fill="#85d5d9"/><path d="M319.98739,210.12947c-0.43841,0.02078 -0.82346,0.04292 -1.26189,0.06371c0.04873,-0.23371 0.19131,-0.37957 0.27041,-0.54842c0.10072,-0.17897 0.15957,-0.39106 0.32377,-0.54705c0.15134,-0.07088 0.32156,-0.04514 0.48165,-0.04103c0.1601,0.00411 0.33032,0.02984 0.51066,0.0772c0.01202,0.36344 -0.16642,0.65789 -0.32462,0.99559z" fill="#cae3e3"/><path d="M315.04691,209.54333c0.57772,-0.45509 1.04735,-0.85954 1.43463,-1.3836c0.32156,-0.04514 0.633,-0.1119 0.97618,-0.16717c-0.04135,0.36206 -0.25016,0.59165 -0.41711,0.85437c-0.03312,0.04187 -0.09798,0.07224 -0.14122,0.0925c-0.57088,0.18827 -1.14175,0.37651 -1.85247,0.6039z" fill="#cae3e4"/><path d="M313.2297,217.09016c0.24467,-0.3782 0.48798,-0.70303 1.0115,-0.71095c0.36344,-0.01202 0.69786,-0.14227 1.03228,-0.27253c0.12972,-0.06075 0.20196,0.03723 0.21947,0.18719c-0.36617,0.11875 -0.63984,0.37873 -0.91352,0.63869c-0.19732,0.19785 -0.41215,0.24573 -0.65735,0.22875c-0.21346,-0.00548 -0.42829,0.04239 -0.69238,-0.07118z" fill="#c8e0e1"/><path d="M308.83963,215.03363c-0.06295,0.37218 -0.35277,0.42883 -0.62234,0.5287c-0.17022,-0.02573 -0.18773,-0.17571 -0.25997,-0.27369c-0.11,-0.29118 -0.14501,-0.59112 -0.13679,-0.91132c0.24795,-0.08976 0.44527,-0.28761 0.7121,-0.28075c0.07224,0.09798 0.10262,0.16283 0.14312,0.24931c0.05801,0.23645 0.11602,0.4729 0.16389,0.68773z" fill="#85d4d9"/><path d="M312.703,214.72702c-0.26355,0.28159 -0.50412,0.4997 -0.73455,0.73941c-0.32895,-0.08321 -0.6464,-0.19816 -0.93073,-0.355c-0.02763,-0.1716 0.08184,-0.27558 0.13794,-0.38093c0.05611,-0.10536 0.11221,-0.21071 0.27368,-0.25997c0.34043,0.05147 0.75449,0.14754 1.25366,0.25648z" fill="#c7dfe0"/><path d="M313.2332,218.61748c-0.28707,-0.05009 -0.56403,-0.07856 -0.85985,-0.20364c0.07309,-0.35056 0.28191,-0.58017 0.4921,-0.86312c0.33032,0.02984 0.66063,0.05969 1.01257,0.0794c-0.20143,0.35795 -0.41163,0.64091 -0.6448,0.98736z" fill="#c8e0e1"/><path d="M321.16521,210.84323c-0.09196,0.25396 -0.18393,0.50792 -0.37112,0.72739c-0.36344,0.01202 -0.73698,0.00243 -1.13216,0.00296c-0.02024,-0.04325 -0.04051,-0.08649 -0.01888,-0.09661c0.13383,-0.22085 0.28928,-0.45182 0.43323,-0.65103c0.06623,-0.08374 0.14259,-0.14585 0.2277,-0.133c0.32019,0.00822 0.61,-0.04842 0.86122,0.15028z" fill="#c4dcdd"/><path d="M313.62479,219.17223c0.37355,0.00959 0.71536,0.0077 1.11053,0.00716c-0.07172,0.29719 -0.25891,0.51668 -0.34075,0.79225c-0.34318,0.05527 -0.63901,-0.06981 -0.97945,-0.12128c0.02847,-0.27694 0.05558,-0.50053 0.20966,-0.67814z" fill="#c6ddde"/><path d="M317.91614,219.66693c-0.2663,0.38833 -0.62645,0.68879 -0.81913,1.12173c-0.28981,0.05664 -0.54789,0.12477 -0.85658,0.0848c0.02984,-0.33032 0.15356,-0.57277 0.49809,-0.68141c0.41954,-0.11738 0.78845,-0.34287 1.17761,-0.52512z" fill="#b9cfd0"/><path d="M314.7826,208.19085c0.00411,-0.1601 0.14258,-0.14586 0.21894,-0.20797c0.17433,-0.13436 0.35879,-0.24711 0.42776,-0.43758c0.15682,-0.28433 0.40477,-0.37409 0.68446,-0.45234c0.11822,-0.02901 0.24657,-0.03639 0.41817,-0.06402c-0.1062,0.39244 -0.22116,0.70988 -0.67243,0.81577c-0.31144,0.06677 -0.60399,0.23013 -0.89518,0.34013c-0.06486,0.03038 -0.12972,0.06075 -0.18172,0.00602z" fill="#c0d8d8"/><path d="M311.06827,211.01111c0.14396,-0.19922 0.29667,-0.32346 0.46963,-0.40445c0.08649,-0.04051 0.19459,-0.09112 0.27969,-0.07826c0.37218,0.06295 0.73562,0.05093 1.09904,0.03891c0.07088,0.15134 -0.02573,0.17022 -0.0906,0.2006c-0.21621,0.10124 -0.45402,0.21262 -0.64997,0.35711c-0.26081,0.17486 -0.48577,0.20112 -0.73836,0.0558c-0.11548,-0.07772 -0.21071,-0.11221 -0.36944,-0.16968z" fill="#c1d9d9"/><path d="M312.62381,216.97847c-0.29857,-0.01835 -0.55253,-0.11031 -0.84973,-0.18203c0.01835,-0.29857 0.22579,-0.4748 0.35963,-0.69564c0.35194,0.01972 0.65789,0.16642 0.99696,0.27125c-0.14533,0.25259 -0.33116,0.4187 -0.50686,0.60642z" fill="#c3dbdc"/><path d="M320.38627,212.89516c0.24193,-0.27146 0.47237,-0.51119 0.69268,-0.77253c0.23509,-0.00464 0.44853,0.00084 0.66939,0.13467c-0.08183,0.27557 -0.24742,0.48492 -0.40287,0.71589c-0.32156,0.04514 -0.62012,0.02679 -0.95919,-0.07804z" fill="#c3dadb"/><path d="M310.72819,215.52001c0.29583,0.12508 0.55991,0.23866 0.82399,0.35225c-0.05009,0.28707 -0.21567,0.49642 -0.38125,0.70577c-0.26546,-0.06022 -0.49779,-0.1623 -0.72876,-0.31776c0.01287,-0.0851 0.03724,-0.20197 0.06022,-0.26546c0.0791,-0.16885 0.15682,-0.28433 0.22579,-0.4748z" fill="#c4dbdc"/><path d="M312.61374,209.47014c-0.41078,0.19238 -0.73508,0.34424 -1.081,0.50624c-0.20197,-0.03724 -0.37081,-0.11632 -0.52679,-0.28053c0.04736,-0.18034 0.21894,-0.20797 0.32841,-0.31197c0.10948,-0.10399 0.22907,-0.18636 0.33717,-0.23698c0.31745,0.11496 0.57141,0.20692 0.94222,0.32324z" fill="#c2d9da"/><path d="M311.84381,218.24004c-0.26683,-0.00686 -0.41268,-0.14945 -0.60315,-0.21841c-0.00327,-0.28844 0.12043,-0.5309 0.25565,-0.80512c0.24384,0.07034 0.48767,0.14069 0.72138,0.1894c-0.02984,0.33032 -0.23866,0.55991 -0.37386,0.83412z" fill="#c3dbdc"/><path d="M311.16585,213.86517c-0.2742,-0.1352 -0.55117,-0.16367 -0.77063,-0.35087c0.0386,-0.25533 0.2663,-0.38833 0.32515,-0.60042c0.37218,0.06295 0.6464,0.19816 0.96385,0.31312c-0.09333,0.30733 -0.33115,0.4187 -0.51835,0.63818z" fill="#c7dee0"/><path d="M307.49043,215.58638c-0.10399,-0.10948 -0.11,-0.29118 -0.28897,-0.39191c-0.26081,0.17486 -0.53313,0.38147 -0.82431,0.49146c-0.01888,-0.09661 -0.04788,-0.21483 -0.04514,-0.32156c0.00411,-0.1601 0.07172,-0.29719 0.22305,-0.36807c0.24931,-0.14312 0.47701,-0.27612 0.72633,-0.41922c0.13162,0.28106 0.17075,0.42091 0.20904,1.00929z" fill="#61acb1"/><path d="M310.64326,211.34195c0.28707,0.05009 0.4978,0.1623 0.76188,0.27588c-0.26219,0.22823 -0.48112,0.4362 -0.70006,0.64418c-0.23509,0.00464 -0.37081,-0.11632 -0.55991,-0.23866c0.06022,-0.26546 0.26766,-0.44169 0.4981,-0.6814z" fill="#c1d9d9"/><path d="M312.8741,219.7083c-0.26546,-0.06022 -0.51941,-0.15219 -0.76325,-0.22253c-0.0695,-0.20471 -0.04377,-0.37492 0.04682,-0.57552c0.32156,-0.04514 0.58428,0.12181 0.89297,0.16178c0.00464,0.23509 -0.09607,0.41406 -0.17654,0.63627z" fill="#c0d7d7"/><path d="M308.68587,214.36752c-0.04051,-0.08649 -0.10262,-0.16283 -0.14312,-0.24931c-0.26683,-0.00686 -0.46414,0.191 -0.7121,0.28075c-0.0925,-0.14122 -0.00327,-0.28844 -0.05253,-0.44991c0.24056,-0.2181 0.53038,-0.27473 0.74057,-0.55769c0.12286,0.20608 0.11875,0.36617 0.12477,0.54789c0.00739,0.12835 0.1215,0.25944 0.04239,0.42829z" fill="#5aa0a4"/><path d="M316.83588,221.80723c-0.27832,0.02489 -0.54789,0.12477 -0.82347,0.04294c-0.02763,-0.1716 0.01835,-0.29857 0.08732,-0.48904c0.25807,-0.06813 0.53639,-0.09302 0.79173,-0.05443c0.02763,0.1716 0.00327,0.28844 -0.05558,0.50053z" fill="#bdd3d4"/><path d="M310.37511,216.79255c0.2006,0.0906 0.39106,0.15957 0.58154,0.22854c-0.01698,0.2452 -0.10757,0.4458 -0.21978,0.65651c-0.20334,0.01613 -0.31745,-0.11496 -0.38833,-0.2663c-0.09112,-0.19459 -0.18224,-0.38916 0.02658,-0.61877z" fill="#bdd4d5"/><path d="M309.93077,214.54902c0.00548,-0.21346 0.09471,-0.3607 0.18393,-0.50792c0.15134,-0.07088 0.2452,0.01698 0.37218,0.06295c0.09523,0.03449 0.2121,0.05884 0.29446,0.17845c-0.00548,0.21346 -0.22168,0.31471 -0.24879,0.53828c-0.25533,-0.0386 -0.4343,-0.13932 -0.60179,-0.27178z" fill="#c3dadb"/><path d="M317.23057,213.92483c0.40941,-0.13901 0.81882,-0.27801 1.26874,-0.33054c0.03913,0.13985 -0.05884,0.21208 -0.16695,0.26272c-0.27094,0.15324 -0.55199,0.28487 -0.81143,0.40636c-0.19459,0.09112 -0.29857,-0.01835 -0.29035,-0.33854z" fill="#b1c6c7"/><path d="M313.40796,220.9609c0.19321,-0.03776 0.31882,0.06159 0.46742,0.09744c0.28707,0.05009 0.39981,0.23455 0.41321,0.54462c-0.36344,0.01202 -0.67951,-0.1563 -0.95372,-0.29149c-0.04925,-0.16146 -0.03639,-0.24657 0.07308,-0.35057z" fill="#bbd2d3"/><path d="M318.80349,216.72067c0.37028,-0.27885 0.80871,-0.29963 1.25861,-0.35215c-0.24193,0.27146 -0.56623,0.42333 -0.85879,0.5867c-0.18445,0.11274 -0.25807,0.06813 -0.39981,-0.23455z" fill="#bad1d2"/><path d="M315.80285,220.4457c0.01751,0.14997 -0.0501,0.28707 -0.13932,0.4343c-0.31144,0.06677 -0.62012,0.02679 -0.90584,-0.07667c-0.0925,-0.14122 -0.04789,-0.21482 0.03996,-0.30869c0.33168,-0.02352 0.66337,-0.04705 1.00518,-0.04894z" fill="#bdd4d4"/><path d="M321.39123,211.60731c0.10209,-0.23234 0.19268,-0.43294 0.28464,-0.68689c0.13985,-0.03913 0.29994,-0.03502 0.45593,0.12919c-0.03724,0.20197 -0.09607,0.41406 -0.1448,0.64777c-0.21346,-0.00548 -0.39518,0.00053 -0.59577,-0.09007z" fill="#c1d9d9"/><path d="M314.90324,221.78963c-0.11274,-0.18445 -0.1735,-0.31417 -0.13626,-0.51614c0.25533,0.0386 0.50053,0.05558 0.72411,0.08268c0.15599,0.16421 0.06677,0.31144 0.10589,0.45127c-0.04325,0.02024 -0.07636,0.06212 -0.1081,0.05062c-0.22359,-0.0271 -0.3938,-0.05284 -0.58565,-0.06844z" fill="#c2dada"/><path d="M309.80388,212.42043c0.17897,0.10072 0.31608,0.16832 0.46331,0.25753c-0.08047,0.22221 -0.21293,0.38969 -0.33527,0.57879c-0.17022,-0.02573 -0.30733,-0.09333 -0.3782,-0.24467c0.00136,-0.05336 0.00275,-0.10673 0.03585,-0.14859c0.04598,-0.12697 0.11359,-0.26408 0.2143,-0.44305z" fill="#bbd2d3"/><path d="M309.8002,215.0583c0.17022,0.02573 0.31745,0.11496 0.40995,0.25617c-0.08047,0.22221 -0.14945,0.41268 -0.24003,0.61328c-0.38833,-0.2663 -0.39845,-0.28791 -0.16991,-0.86945z" fill="#b5cbcc"/><path d="M310.21254,210.64736c0.05009,-0.28707 0.2994,-0.43019 0.42174,-0.61929c0.19184,0.01561 0.28433,0.15682 0.43156,0.24604c-0.16695,0.26272 -0.3629,0.4072 -0.6311,0.45371c-0.06486,0.03038 -0.14859,-0.03585 -0.22221,-0.08047z" fill="#b6cccd"/><path d="M319.09118,215.08334c-0.25068,0.19649 -0.5115,0.37135 -0.81281,0.45972c-0.11822,0.02901 -0.23509,0.00464 -0.2857,-0.10345c-0.02024,-0.04325 -0.01751,-0.14997 0.00411,-0.1601c0.31417,-0.1735 0.70935,-0.17402 1.0944,-0.19617z" fill="#a7bbbb"/><path d="M310.99324,218.50656c0.26683,0.00686 0.4458,0.10757 0.6349,0.22991c0.01613,0.20334 -0.00959,0.37356 -0.16368,0.55116c-0.25122,-0.1987 -0.35109,-0.46826 -0.47122,-0.78106z" fill="#b7cece"/><path d="M311.59136,208.52541c0.18857,-0.27283 0.51013,-0.31797 0.6757,-0.52733c0.17022,0.02573 0.1891,0.12234 0.14448,0.19595c-0.12234,0.1891 -0.27642,0.3667 -0.49262,0.46796c-0.07499,0.00876 -0.0966,0.01887 -0.32757,-0.13658z" fill="#b4cacb"/><path d="M309.66425,213.69845c-0.03724,0.20197 -0.07309,0.35056 -0.18256,0.45455c-0.09661,0.01888 -0.14859,-0.03585 -0.20059,-0.09059c-0.20797,-0.21894 -0.10726,-0.39791 0.05832,-0.60726c0.09387,0.08785 0.20935,0.16557 0.32484,0.24331z" fill="#b5cbcb"/><path d="M316.28305,209.64983c-0.18857,0.27283 -0.47974,0.38284 -0.73919,0.50433c-0.04325,0.02024 -0.10673,-0.00275 -0.14859,-0.03585c-0.02024,-0.04325 -0.00739,-0.12835 0.01424,-0.13847c0.27231,-0.2066 0.57361,-0.29499 0.87356,-0.33z" fill="#99abac"/><path d="M315.06199,208.95631c-0.15735,-0.11085 -0.20797,-0.21894 -0.12013,-0.3128c0.13108,-0.11411 0.36755,-0.17212 0.68911,-0.21726c-0.14533,0.25259 -0.38314,0.36396 -0.56898,0.53006z" fill="#93a5a6"/><path d="M312.23477,220.4822c0.31882,0.06159 0.64913,0.09144 0.65842,0.56159c-0.34043,-0.05147 -0.47207,-0.33252 -0.65842,-0.56159z" fill="#9aadad"/><path d="M316.02789,218.33683c0.14258,-0.14586 0.3068,-0.30183 0.42776,-0.43758c0.13847,0.01424 0.19047,0.06897 0.22959,0.20882c-0.14396,0.19922 -0.40066,0.21399 -0.58511,0.32674c-0.02024,-0.04325 -0.03038,-0.06486 -0.07224,-0.09798z" fill="#c5dddd"/><path d="M317.48241,212.43609c-0.18994,0.32621 -0.471,0.45782 -0.79257,0.50296c-0.02162,0.01013 -0.0635,-0.02298 -0.08374,-0.06623c-0.052,-0.05473 -0.00739,-0.12835 0.03585,-0.14859c0.2277,-0.133 0.51751,-0.18963 0.84044,-0.28814z" fill="#aec2c3"/><path d="M310.12522,211.1364c-0.10209,0.23234 -0.28791,0.39845 -0.45212,0.55443c-0.13847,-0.01424 -0.15735,-0.11085 -0.09112,-0.19459c0.11085,-0.15735 0.20006,-0.30458 0.34265,-0.45044c0.02299,-0.06349 0.11823,-0.02901 0.20059,0.09059z" fill="#9caeaf"/><path d="M313.68665,212.6056c0.11411,0.13108 0.133,0.2277 0.10863,0.34454c-0.20608,0.12286 -0.43104,0.14913 -0.74848,0.03417c0.2392,-0.16474 0.43377,-0.25586 0.63985,-0.37873z" fill="#b9cfd0"/><path d="M317.40631,219.14118c0.13847,0.01424 0.2006,0.0906 0.26272,0.16695c0.00739,0.12835 -0.10072,0.17897 -0.64997,0.3571c0.00822,-0.32019 0.27642,-0.3667 0.38726,-0.52405z" fill="#869797"/><path d="M316.83169,211.15914c-0.3763,0.09713 -0.58786,0.43346 -0.98904,0.25228c0.2838,-0.23835 0.55337,-0.33822 0.98904,-0.25228z" fill="#93a4a5"/><path d="M313.40416,220.27728c0.23371,0.04873 0.47891,0.0657 0.72275,0.13604c0.09523,0.03449 0.13573,0.12097 0.03639,0.24657c-0.28707,-0.05009 -0.55253,-0.11031 -0.75913,-0.38262z" fill="#9fb2b2"/><path d="M314.62984,215.80179c0.0271,-0.22359 0.17845,-0.29446 0.31966,-0.38696c0.06486,-0.03038 0.13847,0.01424 0.16885,0.0791c0.02024,0.04325 0.00739,0.12835 -0.03585,0.14859c-0.09934,0.12561 -0.24931,0.14312 -0.45265,0.15926z" fill="#91a2a3"/><path d="M314.51662,207.73546c0.08183,-0.27557 0.24193,-0.27146 0.4034,-0.32073c-0.01698,0.2452 -0.01698,0.2452 -0.4034,0.32073z" fill="#555f5f"/><path d="M315.83118,216.84725c-0.1081,0.05062 -0.25944,0.1215 -0.44116,0.12751c0.10345,-0.2857 0.18994,-0.32621 0.38178,-0.3106c0.05336,0.00136 0.08374,0.06623 0.05938,0.18308z" fill="#93a5a6"/><path d="M314.12445,214.27225c0.05611,-0.10536 0.14259,-0.14585 0.2392,-0.16474c0.05336,0.00136 0.11685,0.02435 0.11548,0.07772c-0.00136,0.05336 -0.02435,0.11685 -0.0676,0.13711c-0.08649,0.04051 -0.18308,0.05938 -0.28707,-0.05009z" fill="#636e6f"/></g></g><g data-paper-data="{&quot;index&quot;:null}" stroke-linecap="butt"><path d="M243.3061,151.90926c-0.03768,-2.1292 0.22618,-3.56602 0.75162,-4.52479c0.33927,-0.61907 1.33422,-1.31698 1.33422,-1.31698l21.91787,0.02303c0,0 0.63269,0.73323 0.93975,1.27335c0.51931,0.91346 0.82015,2.18613 0.85118,3.93946c0.15312,8.65182 -5.49708,15.80113 -12.62008,15.96846c-7.123,0.16732 -13.02144,-6.71071 -13.17456,-15.36252z" fill="#3c2222" stroke="none" stroke-width="0"/><path d="M246.33365,159.42416l21.28571,-1.57143c0,0 -4.09003,8.78511 -9.85714,9.28571c-8.20166,0.71192 -11.42857,-7.71428 -11.42857,-7.71428z" fill-opacity="0.08443" fill="#ffffff" stroke="none" stroke-width="0"/><path d="M261.04796,166.13844c0,0 -8.39008,2.96028 -14.28572,-5.14286c-3.39736,-4.66942 -2.57143,-14.57143 -2.57143,-14.57143l10.71428,-0.28571l6.14286,20z" fill-opacity="0.08443" fill="#ffffff" stroke="none" stroke-width="0"/><path d="M243.44899,151.76639c-0.03768,-2.12921 0.22618,-3.56603 0.75162,-4.52479c0.33927,-0.61907 1.33422,-1.31698 1.33422,-1.31698l21.91788,0.02303c0,0 0.63268,0.73323 0.93974,1.27334c0.51931,0.91346 0.82015,2.18614 0.85118,3.93946c0.15312,8.65181 -5.49708,15.80113 -12.62008,15.96846c-7.12299,0.16733 -13.02144,-6.71071 -13.17455,-15.36252z" fill="none" stroke="#00021d" stroke-width="3.5"/><path d="M255.78425,166.99562c-7.2828,0.12779 -11.47933,-7.6513 -12.10271,-13.66299c-0.44122,-4.25501 1.87335,-7.34868 1.87335,-7.34868h21.84107c0,0 1.98415,2.87446 1.85649,6.61844c-0.20725,6.07825 -3.71943,14.22216 -13.46821,14.39323z" fill="#71521d" stroke="none" stroke-width="0"/></g><g><g data-paper-data="{&quot;index&quot;:null}"><path d="M291.64286,218.04848c1.6694,-0.91679 3.777,-0.28648 4.70748,1.40784c0.93047,1.69431 0.33144,3.81102 -1.33796,4.72781c-1.6694,0.9168 -3.777,0.28649 -4.70748,-1.40783c-0.93048,-1.69432 1.33795,-4.72782 1.33795,-4.72782z" fill="#00021d" stroke="#00021d" stroke-width="12" stroke-linecap="butt"/><g><path d="M282.21605,224.57071l-4.86358,-7.33797l1.68889,-3.25575l-8.6991,-34.76384c0,0 -0.7469,-4.60568 2.05548,-6.17038c2.10076,-1.17294 4.71625,2.16681 4.71625,2.16681l18.58392,30.01991l2.85463,0.53155l4.27103,8.28843l-8.176,9.26498z" fill="#5c2a2a" stroke="none" stroke-width="0" stroke-linecap="butt"/><path d="M282.1775,224.22535l-4.50757,-7.79242l25.14892,-2.40237l-8.4548,8.89868z" fill-opacity="0.08443" fill="#ffffff" stroke="none" stroke-width="0" stroke-linecap="butt"/><path d="M282.00677,224.35157l-4.75697,-6.34256l1.53247,-4.61323l-7.79089,-33.97047c0,0 -1.68123,-4.42797 1.5234,-5.85926c3.57142,-1.5951 4.69865,2.18417 4.69865,2.18417l17.74146,47.386z" fill-opacity="0.08443" fill="#ffffff" stroke="none" stroke-width="0" stroke-linecap="butt"/><path d="M282.12975,224.76706l-5.03408,-7.64841l1.90927,-2.85446l-8.7854,-34.32745c0,0 -1.02445,-4.8429 2.19121,-6.56128c3.21322,-1.71708 5.58226,2.00758 5.58226,2.00758l17.66687,30.1307l3.16046,0.32164l3.91372,8.40456l-8.1953,9.22981z" fill="none" stroke="#00021d" stroke-width="3.5" stroke-linecap="butt"/><path d="M296.11567,205.04864l-7.24049,7.00975l-10.58217,2.22174" fill="none" stroke="#00021d" stroke-width="1.5" stroke-linecap="round"/><path d="M282.10131,224.73155l-4.56803,-7.24495l1.34352,-3.71084l-8.73618,-33.61433c0,0 -0.64723,-5.22163 1.99262,-6.678c3.16279,-1.74488 6.05125,2.16541 6.05125,2.16541l17.12359,29.72138l3.65558,0.92122l3.95945,8.31562l-7.87368,8.90915z" fill="#71521d" stroke="none" stroke-width="0" stroke-linecap="butt"/></g><g stroke-linecap="butt"><g><path d="M260.04748,151.34499c0,0 -1.61171,-4.13075 0.67453,-5.41201c1.71385,-0.96047 4.83276,2.10281 4.83276,2.10281l14.88329,31.40569c0,0 -8.10244,3.89882 -9.184,4.23163z" fill="#6a3c3c" stroke="none" stroke-width="0"/><path d="" fill-opacity="0.08443" fill="#ffffff" stroke="none" stroke-width="0"/><path d="M260.97208,151.40583c0,0 -2.3207,-4.07679 0.32143,-5.19916c-0.04668,0.08762 0.96362,0.3944 0.96362,0.3944l12.59719,35.58701c0,0 -2.57414,1.16749 -3.68223,1.51032z" fill="#71521d" stroke="none" stroke-width="0"/><path d="M271.21423,183.78788l-10.90506,-31.8164c0,0 -1.60554,-4.52378 1.02383,-5.92019c2.62738,-1.39534 4.24098,2.516 4.24098,2.516l14.98519,31.44059" fill="none" stroke="#00021d" stroke-width="3.5"/></g><path d="M272.05719,183.54225l-10.89034,-31.98746c0,0 -1.5645,-3.45978 1.06488,-4.85619c1.20825,-0.61599 2.59502,2.3877 2.59502,2.3877l14.98109,31.33417" fill="none" stroke="#71521d" stroke-width="1.75"/></g></g><path d="M289.54138,212.14364l-11.90164,2.32667" data-paper-data="{&quot;index&quot;:null}" fill="none" stroke="#000000" stroke-width="1.5" stroke-linecap="round"/></g><g data-paper-data="{&quot;index&quot;:null}"><path d="M176.83532,163.8356c-1.17962,4.35461 -11.96695,6.24923 -16.36084,3.50807c-0.90221,-0.56285 0.40332,-3.09218 0.40332,-3.09218c0,0 -0.94359,-2.00122 -0.81842,-2.42346c0.36137,-1.21902 2.92426,-3.08492 2.92426,-3.08492c0,0 -11.16632,-2.73003 -10.14104,-6.05176c0.40498,-1.31209 13.80711,2.42272 13.84585,1.5422c0.20565,-4.6736 4.8776,-8.95917 6.32597,-6.03433c-2.1801,6.96655 1.66494,8.50041 1.66494,8.50041c0,0 3.2563,3.07391 2.15594,7.13597z" fill="#161830" stroke="#00021d" stroke-width="2.5" stroke-linecap="butt"/><g><path d="M169.25232,161.44548l8.23158,-9.21563l8.73589,3.25945l0.86585,2.77159l32.00938,14.8982c0,0 3.62597,2.20159 2.71005,4.42646c-1.22182,2.96796 -5.88354,2.77171 -5.88354,2.77171l-35.54937,-4.52114l-3.03285,2.06255l-7.86228,-3.9604z" fill="#5c2a2a" stroke="none" stroke-width="0" stroke-linecap="butt"/><path d="M169.66844,161.6813l7.83485,-9.44908l0.59269,25.25645l-8.27139,-3.55306z" fill-opacity="0.08443" fill="#ffffff" stroke="none" stroke-width="0" stroke-linecap="butt"/><path d="M169.3929,161.11919l49.15353,12.00515c0,0 3.88616,0.67175 2.72521,4.40693c-1.04173,3.35158 -5.63763,2.20654 -5.63763,2.20654l-34.65404,-3.71327l-4.39928,2.06799l-6.86126,-3.97243z" fill-opacity="0.08443" fill="#ffffff" stroke="none" stroke-width="0" stroke-linecap="butt"/><path d="M169.11102,161.57182l8.19437,-9.23063l8.8089,2.89092l0.69363,3.10013l32.01081,13.97448c0,0 3.979,1.9113 2.65452,5.30524c-1.3255,3.39653 -6.25564,2.95278 -6.25564,2.95278l-35.12626,-4.65851l-2.60828,2.23385l-8.19073,-4.09292z" fill="none" stroke="#00021d" stroke-width="3.5" stroke-linecap="butt"/><path d="M180.1598,176.61505l0.95296,-10.77081l6.10301,-8.01964" fill="none" stroke="#00021d" stroke-width="1.5" stroke-linecap="round"/><path d="M169.00438,161.07023l7.91405,-8.8733l8.726,2.94684l1.34764,3.52077l31.54003,13.48349c0,0 4.22481,2.40509 2.86675,5.75224c-1.13352,2.79375 -6.39505,2.76941 -6.39505,2.76941l-34.41234,-4.69408l-3.52563,1.77349l-7.73491,-3.67794z" fill="#71521d" stroke="none" stroke-width="0" stroke-linecap="butt"/></g><g stroke-linecap="butt"><g><path d="M220.59532,179.28474c-0.2656,-0.13329 -0.96787,-0.58937 -1.85916,-1.18952c-0.59468,-2.17614 -1.92533,-4.16459 -3.91945,-5.55724c-0.42133,-0.29425 -0.85745,-0.55154 -1.30449,-0.77254l18.61321,-26.67949c0,0 3.58371,-2.50367 5.11456,-1.27229c2.0421,1.64264 -0.23228,5.44893 -0.23228,5.44893z" fill="#71521d" stroke="none" stroke-width="0"/><path d="" fill-opacity="0.08443" fill="#ffffff" stroke="none" stroke-width="0"/><path d="M220.67194,179.32325c-0.47816,-0.24088 -1.23522,-0.70682 -1.91182,-1.13874c-0.19295,-0.73248 -0.469,-1.44444 -0.82543,-2.12041l17.68064,-31.84618c0,0 1.04717,-0.13499 1.01568,-0.22914c2.41944,1.54497 -0.5452,5.18048 -0.5452,5.18048z" fill="#71521d" stroke="none" stroke-width="0"/><path d="M213.638,171.82869l18.38036,-26.22177c0,0 2.23986,-3.58961 4.59948,-1.77789c2.3614,1.81309 0.0279,6.008 0.0279,6.008l-16.03019,29.56748" fill="none" stroke="#00021d" stroke-width="3.5"/></g><path d="M214.38867,172.25479l18.28045,-26.01215c0,0 1.86566,-2.73213 2.95504,-1.9243c2.3614,1.81311 0.24483,4.96555 0.24483,4.96555l-16.04404,29.73862" fill="none" stroke="#71521d" stroke-width="1.75"/></g><path d="M180.83515,176.70184l0.12757,-10.31076l6.84605,-8.40612" fill="none" stroke="#00021d" stroke-width="1.5" stroke-linecap="round"/></g><path d="M237.13636,223.27016l-0.04233,52.56233l-3.27155,0.17628" data-paper-data="{&quot;index&quot;:null}" fill="none" stroke="#00021d" stroke-width="12" stroke-linecap="round"/><path d="M244.32201,141.23478v-3.1h6.9v3.1z" data-paper-data="{&quot;index&quot;:null}" fill="#b1a785" stroke="#00021d" stroke-width="1.5" stroke-linecap="butt"/><path d="M258.07759,222.70307l2.24986,56.21831l-4.02673,0.96843" data-paper-data="{&quot;index&quot;:null}" fill="none" stroke="#00021d" stroke-width="12" stroke-linecap="round"/><path d="M240.93039,144.80972l-1.98059,-1.64182l1.19027,-1.16369l-1.15023,-1.0814l1.94056,-0.56943h13.24523l2.07611,0.5587l-0.69556,1.09336l0.97141,1.16246l-2.35196,1.64182z" data-paper-data="{&quot;index&quot;:null}" fill="#71521d" stroke="none" stroke-width="0" stroke-linecap="butt"/><g data-paper-data="{&quot;index&quot;:null}"><path d="M256.16452,215.3115l-8.72956,2.81602l-10.49814,-3.11839" fill="none" stroke="#00021d" stroke-width="12" stroke-linecap="round"/><path d="M247.51877,220.79236l-20.03008,-6.18996v-10.83243l3.44603,-5.67413l2.1872,-52.9638l29.1552,-0.16667l1.06503,52.61219l1.75737,6.46318l-0.05175,9.53z" fill="#5c2a2a" stroke="none" stroke-width="0" stroke-linecap="butt"/><path d="M247.49729,163.10148l0.48452,-2.18033l-0.96903,-6.78325l1.69581,-6.78325" fill="none" stroke="#c2c2c2" stroke-width="3.5" stroke-linecap="round"/><path d="M236.44087,147.75174l1.69581,6.78324l-0.96903,6.78324l0.48452,2.18033" data-paper-data="{&quot;index&quot;:null}" fill="none" stroke="#c2c2c2" stroke-width="3.5" stroke-linecap="round"/><path d="M227.73098,213.93235l-0.221,-8.80345l3.01719,-6.96899l2.61091,-51.81776l24.39072,-0.72677l-20.10747,71.70858z" fill-opacity="0.08443" fill="#ffffff" stroke="none" stroke-width="0" stroke-linecap="butt"/><path d="M247.59618,220.47334l-19.86522,-6.78324l-0.05076,-9.94245l3.10417,-5.81397l-0.14631,-13.31464l34.92273,19.96462l-0.29821,9.10644z" fill-opacity="0.08443" fill="#ffffff" stroke="none" stroke-width="0" stroke-linecap="butt"/><path d="M247.81189,220.70491l-20.03009,-6.13063v-10.7286l3.44604,-5.61974l2.1872,-52.62123h28.82187l1.39836,52.10791l1.47165,6.25839l-0.19461,9.58151z" fill="none" stroke="#00021d" stroke-width="3.5" stroke-linecap="butt"/><g stroke-linecap="butt"><path d="M241.02361,213.8928l-13.15254,-4.56744l0.1984,-5.83413l3.75332,-7.08447l16.73672,0.12304l4.53286,7.99722v4.79834z" fill="#694646" stroke="none" stroke-width="0"/><path d="M240.20456,213.67569l-12.006,-4.44445l-0.2,-6.6741l25.22131,7.47411z" fill-opacity="0.14806" fill="#ffffff" stroke="none" stroke-width="0"/><path d="M240.53991,213.86192l-12.785,-4.4753l0.69736,-3.87531h24.17527l0.34868,4.3062z" fill-opacity="0.08443" fill="#ffffff" stroke="none" stroke-width="0"/><path d="M232.39224,210.99263l-3.33363,-0.77855l-1.0537,-6.0286l4.09766,-6.9714l5.77301,-0.22222z" fill-opacity="0.08443" fill="#ffffff" stroke="none" stroke-width="0"/><path d="M240.89802,213.3714l-12.75254,-3.96744l0.1984,-5.83412l3.75332,-7.08447l16.73673,0.12304l4.53287,7.99722v4.79834z" fill="none" stroke="#00021d" stroke-width="3.5"/></g><path d="M247.67894,220.98757l-19.93561,-5.97105l-0.32395,-10.4263l3.69094,-6.17511l2.37553,-53.23432l29.02113,0.03577l1.1553,52.44962l1.51762,6.01712l-0.16473,9.61483z" fill="#71521d" stroke="none" stroke-width="0" stroke-linecap="butt"/></g><path d="M253.62093,209.18618l-11.75,4l-12.75,-3.5l-1,-5.25l4,-7.5h16.5l4.25,6.75z" data-paper-data="{&quot;index&quot;:null}" fill="none" stroke="#000000" stroke-width="3" stroke-linecap="round"/><path d="M249.17432,146.26075c1.6602,0.5534 1.1068,2.2136 1.1068,2.2136l-0.7041,1.91732c-1.35819,1.80192 -0.36355,3.51179 -0.2105,5.65522c0.17308,2.42387 0.07367,4.97378 -0.26318,7.37154c0,0 -0.24748,1.7324 -1.97989,1.48492c-1.73241,-0.24748 -1.48493,-1.97989 -1.48493,-1.97989c0.68797,-4.72534 -1.49902,-10.40475 1.02632,-14.47324l0.2959,-1.08267c0,0 0.5534,-1.6602 2.21359,-1.1068z" data-paper-data="{&quot;index&quot;:null}" fill="#cccccc" stroke="none" stroke-width="0.5" stroke-linecap="butt"/><path d="M234.71075,147.36757c0.5534,-1.6602 2.21359,-1.1068 2.21359,-1.1068l1.92901,1.66271c0.25249,1.79913 1.28609,3.55609 1.50248,5.26803c0.27917,2.20862 -1.12725,3.74729 -1.5,5.70892c-0.23286,1.22545 1.0549,3.49388 1.24752,4.77305c0,0 0.24748,1.73241 -1.48493,1.97989c-1.7324,0.24749 -1.97989,-1.48492 -1.97989,-1.48492c-0.25926,-1.9515 -1.49151,-3.69444 -1.25248,-5.72695c0.16712,-1.42109 1.76779,-3.23051 1.5,-4.79108c-0.23657,-1.37859 -0.88482,-2.7316 -1.26981,-4.15625c-0.42419,-0.21153 -1.33665,-0.83317 -0.9055,-2.12661z" data-paper-data="{&quot;index&quot;:null}" fill="#cccccc" stroke="none" stroke-width="0.5" stroke-linecap="butt"/><path d="M243.89144,194.37259c-7.20447,0 -13.04485,-5.84038 -13.04485,-13.04485c0,-7.20447 5.84038,-13.04485 13.04485,-13.04485c7.20447,0 13.04486,5.84038 13.04486,13.04485c0,7.20447 -5.84039,13.04485 -13.04486,13.04485z" data-paper-data="{&quot;index&quot;:null}" fill="#000000" stroke="#000000" stroke-width="1.5" stroke-linecap="butt"/><path d="M256.46382,181.32775c0,6.94353 -5.62885,12.57239 -12.57239,12.57239c-6.94354,0 -12.57239,-5.62886 -12.57239,-12.5724c0,-6.94354 5.62886,-12.5724 12.5724,-12.5724c6.94355,0 12.5724,5.62886 12.5724,12.5724z" data-paper-data="{&quot;index&quot;:null}" fill="url(#color-1)" stroke="#6d4500" stroke-width="1.5" stroke-linecap="butt"/><path d="M247.18462,171.27399c0,-0.57838 0.18931,-1.20692 0.50935,-1.63826c0.1346,-0.18141 1.4001,0.32633 2.51555,0.98006c1.08378,0.63517 2.02065,1.46065 1.99767,1.52188c-0.3688,0.98302 -1.31722,1.72983 -2.42905,1.72983c-1.43235,0 -2.59352,-1.16115 -2.59352,-2.59352z" data-paper-data="{&quot;index&quot;:null}" fill="#000000" stroke="#6d4500" stroke-width="1.5" stroke-linecap="butt"/><path d="M242.64225,171.73905c1.51662,0 2.74609,1.14409 2.74609,2.55539c0,1.4113 -1.22946,2.55539 -2.74609,2.55539c-1.51662,0 -2.74608,-1.14409 -2.74608,-2.55539c0,-1.4113 1.22945,-2.55539 2.74608,-2.55539z" data-paper-data="{&quot;index&quot;:null}" fill="#000000" stroke="#6d4500" stroke-width="1.5" stroke-linecap="butt"/><path d="M249.39305,175.47676c1.53768,0 2.78422,1.19531 2.78422,2.66981c0,1.47449 -1.24653,2.6698 -2.78422,2.6698c-1.53769,0 -2.78423,-1.1953 -2.78423,-2.6698c0,-1.4745 1.24654,-2.66981 2.78423,-2.66981z" data-paper-data="{&quot;index&quot;:null}" fill="#000000" stroke="#6d4500" stroke-width="1.5" stroke-linecap="butt"/><g data-paper-data="{&quot;index&quot;:null}"><g data-paper-data="{&quot;index&quot;:null}" stroke-linecap="butt"><path d="M240.06898,135.80396c-13.82282,-3.6255 -22.08938,-17.77014 -18.46389,-31.59298c3.6255,-13.82282 17.77014,-22.08938 31.59298,-18.46389c13.82282,3.6255 22.08938,17.77014 18.46389,31.59298c-3.6255,13.82282 -17.77014,22.08938 -31.59298,18.46389z" fill="#fff1bf" stroke="none" stroke-width="0"/><path d="M269.47669,123.82771c0,0 -3.70889,-10.0963 -13.64017,-12.76546c-8.07541,-2.17037 -18.68425,3.36534 -25.16871,3.54771c-8.64161,0.24305 -9.8452,-2.36189 -9.8452,-2.36189l0.53685,-1.48377c0,0 -1.23556,-2.42148 0.7083,-7.81702c3.20618,-8.8994 14.82824,-21.08185 29.24312,-17.4096c30.97935,7.89215 18.16579,38.29003 18.16579,38.29003z" fill-opacity="0.28957" fill="#000000" stroke="none" stroke-width="0"/><path d="M240.09436,135.70722c-13.82282,-3.6255 -22.08938,-17.77014 -18.46389,-31.59298c3.6255,-13.82282 17.77014,-22.08938 31.59298,-18.46389c13.82282,3.6255 22.08938,17.77014 18.46389,31.59298c-3.6255,13.82282 -17.77014,22.08938 -31.59298,18.46389z" fill="none" stroke="#00021d" stroke-width="3.5"/></g><g data-paper-data="{&quot;index&quot;:null}" fill="none" stroke="#161830" stroke-width="3.5" stroke-linecap="round"><path d="M247.29264,112.12006l-3.37062,12.85105"/><path d="M229.99494,121.7613l3.37061,-12.85104"/></g><path d="M274.1289,121.25141c0,0 -1.65561,4.64358 -2.46574,3.28891c-0.78352,-1.3102 -1.45456,2.15395 -2.14174,-0.14412c-1.43124,-4.78645 -4.60453,-29.81276 -9.05095,-17.48552c1.48652,3.91194 -39.86486,-3.63835 -39.59254,9.29479c-25.47122,3.83819 -10.86631,-47.49775 -10.86631,-47.49775c0,0 4.79955,18.91684 34.03311,16.2936c-0.14265,-9.90032 20.07075,-5.33139 25.99648,6.07631c12.82781,-16.53663 4.08771,30.1738 4.08771,30.1738z" data-paper-data="{&quot;index&quot;:null}" fill="#fdfd96" stroke="#00021d" stroke-width="3.5" stroke-linecap="butt"/><path d="M247.43524,133.27254c-1.19469,0.26264 -2.40631,1.84046 -2.40631,1.84046c0,0 -0.19963,-2.49743 -1.36485,-3.29864c-0.59299,-0.40775 -2.20966,0.65317 -2.20966,0.65317l-6.50316,-4.81294l18.15467,0.06738l-1.514,2.95885c0,0 -1.25086,0.82987 -1.53998,1.39491c-0.28532,0.55765 -0.18353,1.97339 -0.18353,1.97339c0,0 -1.23848,-1.03921 -2.43319,-0.77657z" data-paper-data="{&quot;index&quot;:null}" fill="#ffffff" stroke="#161830" stroke-width="1.5" stroke-linecap="butt"/></g></g></g></svg>