<svg version="1.1" xmlns="http://www.w3.org/2000/svg" xmlns:xlink="http://www.w3.org/1999/xlink" width="115.86088" height="45.37416" viewBox="0,0,115.86088,45.37416"><g transform="translate(-322.06956,-165.04421)"><g data-paper-data="{&quot;isPaintingLayer&quot;:true}" fill-rule="nonzero" stroke-linecap="butt" stroke-miterlimit="10" stroke-dasharray="" stroke-dashoffset="0" style="mix-blend-mode: normal"><g stroke="none" stroke-width="1" stroke-linejoin="miter"><path d="M429.80935,169.78751l2.31,1.155c1.37156,0.68578 2.8514,1.80469 3.53718,2.63484c0.64969,0.79406 1.44375,2.27391 1.7325,3.24844c0.43313,1.44375 0.54141,3.97031 0.54141,13.17421c0,9.05953 -0.10828,11.76656 -0.54141,13.2464c-0.39703,1.44375 -1.01063,2.38219 -2.45437,3.82593c-1.22719,1.22719 -2.52656,2.09344 -3.68156,2.52656c-1.69641,0.5775 -5.05313,0.6136 -101.06245,0.6136l-2.31,-1.155c-1.37156,-0.68578 -2.8514,-1.80469 -3.53718,-2.63484c-0.64969,-0.79406 -1.44375,-2.23781 -1.7325,-3.24844c-0.43313,-1.44375 -0.54141,-3.97031 -0.54141,-13.17421c0,-9.05953 0.10828,-11.76656 0.54141,-13.2464c0.39703,-1.44375 1.01063,-2.38219 2.45437,-3.78984c1.08281,-1.08281 2.59875,-2.16562 3.50109,-2.52656c1.47984,-0.54141 5.775,-0.6136 101.24292,-0.64969z" fill="#000000"/><path d="M380,170.90641c37.64576,0 49.73717,0.10828 50.7117,0.43313c0.72188,0.25266 1.87687,0.86625 2.63484,1.40766c0.72188,0.5775 1.76859,1.76859 3.32062,4.43953v25.62655l-1.01063,1.69641c-0.54141,0.97453 -1.58813,2.16562 -2.31,2.70703c-0.75797,0.5775 -1.91297,1.19109 -2.63484,1.44375c-0.97453,0.32485 -13.06593,0.43313 -50.7117,0.43313c-37.64576,0 -49.73717,-0.10828 -50.7117,-0.43313c-0.72188,-0.25266 -1.87687,-0.86625 -2.63484,-1.44375c-0.72188,-0.54141 -1.76859,-1.7325 -3.32062,-4.40343v-25.62655l0.97453,-1.7325c0.5775,-0.93844 1.62422,-2.12953 2.34609,-2.70703c0.75797,-0.54141 1.91297,-1.155 2.63484,-1.40766c0.97453,-0.32485 13.06593,-0.43313 50.7117,-0.43313z" fill="#57ce61"/></g><text transform="translate(336.24422,199.07483) scale(1.89059,1.89059)" font-size="16" xml:space="preserve" fill="#ffffff" fill-rule="nonzero" stroke="#000000" stroke-width="2" stroke-linecap="butt" stroke-linejoin="round" stroke-miterlimit="10" stroke-dasharray="" stroke-dashoffset="0" font-family="Sans Serif" font-weight="400" text-anchor="start" style="mix-blend-mode: normal"><tspan x="0" dy="0">START</tspan></text><text transform="translate(336.24445,199.07478) scale(1.89058,1.89058)" font-size="16" xml:space="preserve" fill="#ffffff" fill-rule="nonzero" stroke="#000000" stroke-width="0" stroke-linecap="butt" stroke-linejoin="round" stroke-miterlimit="10" stroke-dasharray="" stroke-dashoffset="0" font-family="Sans Serif" font-weight="400" text-anchor="start" style="mix-blend-mode: normal"><tspan x="0" dy="0">START</tspan></text></g></g></svg>