<svg version="1.1" xmlns="http://www.w3.org/2000/svg" xmlns:xlink="http://www.w3.org/1999/xlink" width="145.81694" height="84.65144" viewBox="0,0,145.81694,84.65144"><g transform="translate(-157.55648,-178.69692)"><g data-paper-data="{&quot;isPaintingLayer&quot;:true}" fill-rule="nonzero" stroke-linejoin="miter" stroke-miterlimit="10" stroke-dasharray="" stroke-dashoffset="0" style="mix-blend-mode: normal"><g data-paper-data="{&quot;index&quot;:null}" stroke-linecap="butt"><g data-paper-data="{&quot;index&quot;:null}"><g data-paper-data="{&quot;index&quot;:null}"><path d="M183.1267,222.21302l4.85091,34.97178c0,0 0.11777,4.24038 -2.24812,4.67803c-3.15607,0.58382 -5.52032,-3.43868 -5.52032,-3.43868l-15.48859,-32.31566z" fill="#5c2a2a" stroke="none" stroke-width="0"/><path d="M175.64224,223.23429l12.06689,33.47084c0,0 1.54404,3.62897 -2.2235,4.68017c-3.38062,0.94323 -4.91215,-3.53871 -4.91215,-3.53871l-15.68147,-31.12528z" fill-opacity="0.08443" fill="#ffffff" stroke="none" stroke-width="0"/><path d="M182.91601,222.01838l5.62766,34.47184c0,0 0.55315,4.37945 -3.01646,5.10814c-3.57234,0.72925 -5.8743,-3.653 -5.8743,-3.653l-15.14363,-32.03477z" fill="none" stroke="#00021d" stroke-width="3.5"/><path d="M182.73681,222.35345l5.78468,33.81c0,0 0.27171,4.85384 -3.27681,5.52893c-2.96183,0.56349 -5.7959,-3.86961 -5.7959,-3.86961l-14.72645,-31.45434z" fill="#71521d" stroke="none" stroke-width="0"/></g><g data-paper-data="{&quot;index&quot;:null}"><g><path d="M186.87425,261.12942c-0.2027,-0.21728 -0.70267,-0.88901 -1.32981,-1.76152c0.033,-0.3732 0.04517,-0.7486 0.03617,-1.12433c0.15774,-0.38586 0.29312,-0.7859 0.40418,-1.19896c0.66517,-2.47372 0.34183,-4.98031 -0.72833,-7.10021l24.3153,-16.87429c0,0 4.23046,-1.10203 5.23789,0.58465c1.34388,2.25001 -2.11163,5.0285 -2.11163,5.0285z" fill="#71521d" stroke="none" stroke-width="0"/><path d="" fill-opacity="0.08443" fill="#ffffff" stroke="none" stroke-width="0"/><path d="M186.9327,261.19219c-0.36463,-0.39204 -0.91255,-1.09206 -1.39685,-1.73221c0.03944,-0.40351 0.0545,-0.80976 0.04476,-1.21641c0.15773,-0.38585 0.29311,-0.78588 0.40417,-1.19894c0.03155,-0.11729 0.06086,-0.23465 0.08798,-0.35204l27.073,-23.22341c0,0 1.0288,0.23737 1.032,0.13815c1.73163,2.28955 -2.31175,4.66802 -2.31175,4.66802z" fill="#71521d" stroke="none" stroke-width="0"/><path d="M185.32195,250.07638l23.9684,-16.555c0,0 3.34784,-2.58733 4.93066,-0.06844c1.58403,2.52079 -2.06199,5.64315 -2.06199,5.64315l-25.30735,22.15267" fill="none" stroke="#00021d" stroke-width="3.5"/></g><path d="M185.67163,250.88304l24.00791,-16.53938c0,0 2.69893,-1.91337 3.43963,-0.77728c1.58403,2.52081 -1.49626,4.74107 -1.49626,4.74107l-25.37982,22.30832" fill="none" stroke="#71521d" stroke-width="1.75"/></g><g><path d="M168.98999,207.64989l13.5821,2.00847l2.20781,10.85634l-10.59529,5.87782l-12.70997,-1.32404l-1.99264,-10.95255z" fill="#835c5c" stroke="#00021d" stroke-width="3.5"/><path d="M169.75928,210.03331l10.17422,1.38914l-7.36134,4.32429l-10.41214,-0.76638z" fill="#774d4d" stroke="#774d4d" stroke-width="1.5"/><path d="M168.99002,207.6498l13.5821,2.00848l2.20781,10.85635l-10.59528,5.87782l-12.70998,-1.32404l-1.99264,-10.95254z" fill="none" stroke="#00021d" stroke-width="3.5"/><path d="M169.04951,207.49417l13.58209,2.00846l2.20782,10.85635l-10.59528,5.87783l-12.70998,-1.32404l-1.99264,-10.95255z" fill="#71521d" stroke="none" stroke-width="0"/></g></g><path d="M169.24704,211.39918c-1.8474,-0.56889 -2.89058,-2.50566 -2.33005,-4.32587c0.56053,-1.82023 2.51252,-2.83461 4.35992,-2.26573c1.8474,0.5689 2.89059,2.50566 2.33006,4.32588c-0.56054,1.82022 -2.51253,2.83461 -4.35993,2.26573z" data-paper-data="{&quot;index&quot;:null}" fill="#00021d" stroke="#00021d" stroke-width="12"/></g><g data-paper-data="{&quot;index&quot;:null}" stroke-linecap="butt"><g data-paper-data="{&quot;index&quot;:null}"><g data-paper-data="{&quot;index&quot;:null}"><path d="M296.20932,223.09052l-15.48859,32.31566c0,0 -2.36426,4.02249 -5.52033,3.43867c-2.36589,-0.43764 -2.24811,-4.67803 -2.24811,-4.67803l4.85091,-34.97178z" fill="#5c2a2a" stroke="none" stroke-width="0"/><path d="M296.0379,223.70332l-15.68147,31.12528c0,0 -1.53154,4.48194 -4.91215,3.53871c-3.76754,-1.05119 -2.2235,-4.68016 -2.2235,-4.68016l12.06689,-33.47084z" fill-opacity="0.08443" fill="#ffffff" stroke="none" stroke-width="0"/><path d="M296.42062,222.89261l-15.14363,32.03477c0,0 -2.30196,4.38225 -5.8743,3.653c-3.56961,-0.72869 -3.01646,-5.10814 -3.01646,-5.10814l5.62766,-34.47184z" fill="none" stroke="#00021d" stroke-width="3.5"/><path d="M296.20756,223.35045l-14.72644,31.45434c0,0 -2.83408,4.43309 -5.7959,3.86961c-3.54851,-0.67509 -3.27681,-5.52893 -3.27681,-5.52893l5.78468,-33.80999z" fill="#71521d" stroke="none" stroke-width="0"/></g><g data-paper-data="{&quot;index&quot;:null}"><g><path d="M248.23187,235.66528c0,0 -3.45551,-2.77849 -2.11164,-5.0285c1.00744,-1.68667 5.2379,-0.58465 5.2379,-0.58465l24.31529,16.87429c-1.07016,2.1199 -1.39349,4.62649 -0.72832,7.10021c0.11107,0.41306 0.24644,0.8131 0.40418,1.19896c-0.009,0.37573 0.00317,0.75112 0.03617,1.12432c-0.62714,0.87251 -1.12711,1.54425 -1.32981,1.76153z" fill="#71521d" stroke="none" stroke-width="0"/><path d="" fill-opacity="0.08443" fill="#ffffff" stroke="none" stroke-width="0"/><path d="M249.06389,235.25738c0,0 -4.04338,-2.37846 -2.31175,-4.66802c0.00319,0.09922 1.032,-0.13815 1.032,-0.13815l27.073,23.2234c0.02712,0.11739 0.05644,0.23475 0.08798,0.35204c0.11106,0.41305 0.24643,0.81309 0.40416,1.19894c-0.00973,0.40665 0.00533,0.8129 0.04476,1.21641c-0.4843,0.64015 -1.03222,1.34017 -1.39684,1.73221z" fill="#71521d" stroke="none" stroke-width="0"/><path d="M274.07824,258.2308l-25.30735,-22.15267c0,0 -3.64602,-3.12236 -2.06199,-5.64315c1.58281,-2.51889 4.93066,0.06844 4.93066,0.06844l23.9684,16.555" fill="none" stroke="#00021d" stroke-width="3.5"/></g><path d="M274.68682,257.59779l-25.37983,-22.30832c0,0 -3.08029,-2.22027 -1.49626,-4.74108c0.7407,-1.13608 3.43962,0.77728 3.43962,0.77728l24.00791,16.53938" fill="none" stroke="#71521d" stroke-width="1.75"/></g><g><path d="M301.4479,211.09796l-1.99264,10.95254l-12.70997,1.32404l-10.59528,-5.87782l2.2078,-10.85634l13.5821,-2.00847z" fill="#835c5c" stroke="#00021d" stroke-width="3.5"/><path d="M298.76987,211.96238l-10.41214,0.76638l-7.36134,-4.32429l10.17422,-1.38914z" fill="#774d4d" stroke="#774d4d" stroke-width="1.5"/><path d="M301.44787,211.09789l-1.99264,10.95255l-12.70997,1.32404l-10.59529,-5.87782l2.20781,-10.85635l13.5821,-2.00847z" fill="none" stroke="#00021d" stroke-width="3.5"/><path d="M301.38837,210.94225l-1.99264,10.95255l-12.70997,1.32404l-10.59528,-5.87783l2.20781,-10.85635l13.58209,-2.00846z" fill="#71521d" stroke="none" stroke-width="0"/></g></g><path d="M291.68286,208.38121c-1.8474,0.56888 -3.79938,-0.44551 -4.35992,-2.26573c-0.56054,-1.82022 0.48266,-3.75699 2.33006,-4.32588c1.8474,-0.56888 3.79938,0.44551 4.35992,2.26573c0.56053,1.82021 -0.48265,3.75698 -2.33005,4.32587z" fill="#00021d" stroke="#00021d" stroke-width="12"/></g><g data-paper-data="{&quot;index&quot;:null}" stroke-linecap="butt"><g data-paper-data="{&quot;index&quot;:null}"><g data-paper-data="{&quot;index&quot;:null}"><path d="M282.3805,197.21464l8.1304,34.90121c0,0 0.67163,4.61725 -2.15593,6.13599c-2.11963,1.1385 -4.68024,-2.24351 -4.68024,-2.24351l-18.09139,-30.31928z" fill="#5c2a2a" stroke="none" stroke-width="0"/><path d="M282.63007,197.79997l7.23529,34.09314c0,0 1.60872,4.45483 -1.61885,5.83361c-3.59697,1.53659 -4.66236,-2.26058 -4.66236,-2.26058l-11.52261,-33.66209z" fill-opacity="0.08443" fill="#ffffff" stroke="none" stroke-width="0"/><path d="M282.42156,196.92803l8.22382,34.46629c0,0 0.94526,4.85897 -2.29803,6.52463c-3.24081,1.66439 -5.54874,-2.09845 -5.54874,-2.09845l-17.17264,-30.41511z" fill="none" stroke="#00021d" stroke-width="3.5"/><path d="M282.54173,197.41852l8.18624,33.75247c0,0 0.56191,5.2315 -2.10137,6.64459c-3.19083,1.69301 -6.01509,-2.26389 -6.01509,-2.26389l-16.63612,-29.99697z" fill="#71521d" stroke="none" stroke-width="0"/></g><g data-paper-data="{&quot;index&quot;:null}"><g><path d="M252.81458,237.03694c0,0 -4.43402,-0.00623 -4.79299,-2.60232c-0.26907,-1.94612 3.72088,-3.73262 3.72088,-3.73262l29.52616,-2.04478c0.49113,2.32335 1.80683,4.48125 3.87319,5.99515c0.34504,0.25279 0.70089,0.48022 1.06533,0.6826c0.22801,0.29878 0.47233,0.58405 0.73152,0.85457c0.05649,1.07303 0.08662,1.90986 0.06438,2.20618z" fill="#71521d" stroke="none" stroke-width="0"/><path d="" fill-opacity="0.08443" fill="#ffffff" stroke="none" stroke-width="0"/><path d="M253.20858,236.19824c0,0 -4.64244,0.67361 -4.72363,-2.19589c0.06456,0.07541 0.71875,-0.75334 0.71875,-0.75334l35.64931,1.18373c0.09459,0.07463 0.19086,0.14785 0.28884,0.21963c0.34504,0.25279 0.70089,0.48022 1.06531,0.68259c0.24678,0.32335 0.51265,0.63089 0.79582,0.92104c0.02258,0.8024 0.03298,1.69129 -0.00626,2.22525z" fill="#71521d" stroke="none" stroke-width="0"/><path d="M287.09533,238.4747l-33.60196,-1.45282c0,0 -4.79776,-0.15534 -5.13874,-3.11292c-0.34075,-2.95534 3.8897,-3.0309 3.8897,-3.0309l29.05579,-2.0769" fill="none" stroke="#00021d" stroke-width="3.5"/></g><path d="M287.17418,237.60016l-33.75588,-1.52893c0,0 -3.79208,0.19458 -4.13308,-2.76301c-0.13277,-1.34971 3.1698,-1.54518 3.1698,-1.54518l29.07684,-2.11381" fill="none" stroke="#71521d" stroke-width="1.75"/></g><g><path d="M278.96586,184.58116l5.29654,9.7916l-9.08805,8.98354l-11.94318,2.04185l-5.06849,-9.85114l9.34034,-10.06307z" fill="#835c5c" stroke="#00021d" stroke-width="3.5"/><path d="M277.41719,186.93076l-7.64412,7.11108l-8.44828,1.23098l7.06894,-7.44812z" fill="#774d4d" stroke="#774d4d" stroke-width="1.5"/><path d="M278.96579,184.58113l5.29654,9.7916l-9.08805,8.98354l-11.94318,2.04185l-5.06849,-9.85115l9.34034,-10.06307z" fill="none" stroke="#00021d" stroke-width="3.5"/><path d="M278.82203,184.49689l5.29654,9.79161l-9.08805,8.98354l-11.94319,2.04185l-5.06849,-9.85115l9.34035,-10.06305z" fill="#71521d" stroke="none" stroke-width="0"/></g></g><path d="M269.6478,188.56992c-1.08548,1.59946 -3.24295,2.02906 -4.81889,0.95957c-1.57593,-1.06949 -1.97355,-3.23311 -0.88808,-4.83257c1.08547,-1.59946 3.24294,-2.02907 4.81888,-0.95957c1.57592,1.06949 1.97355,3.2331 0.88808,4.83256z" fill="#00021d" stroke="#00021d" stroke-width="12"/></g><g data-paper-data="{&quot;index&quot;:null}" stroke-linecap="butt"><g data-paper-data="{&quot;index&quot;:null}"><g data-paper-data="{&quot;index&quot;:null}"><path d="M194.18416,207.54394l-17.0512,30.91623c0,0 -2.44428,3.46702 -4.60135,2.40117c-2.87751,-1.42183 -2.36309,-6.05924 -2.36309,-6.05924l6.94035,-35.15721z" fill="#5c2a2a" stroke="none" stroke-width="0"/><path d="M187.57774,203.88119l-10.37268,34.03403c0,0 -0.93581,3.83115 -4.5829,2.41762c-3.27254,-1.26837 -1.81606,-5.77525 -1.81606,-5.77525l6.07321,-34.31921z" fill-opacity="0.08443" fill="#ffffff" stroke="none" stroke-width="0"/><path d="M194.1319,207.26188l-16.12973,30.98081c0,0 -2.17879,3.83906 -5.47427,2.2857c-3.29799,-1.55454 -2.5183,-6.44282 -2.5183,-6.44282l7.0485,-34.72571z" fill="none" stroke="#00021d" stroke-width="3.5"/><path d="M193.78777,207.423l-15.60772,30.54468c0,0 -2.68824,4.05055 -5.93474,2.46688c-2.70974,-1.32182 -2.32583,-6.56939 -2.32583,-6.56939l7.03517,-34.01103z" fill="#71521d" stroke="none" stroke-width="0"/></g><g data-paper-data="{&quot;index&quot;:null}"><g><path d="M173.88763,240.95921c-0.03228,-0.29539 -0.0306,-1.13277 -0.01058,-2.20709c0.24987,-0.27918 0.48434,-0.57257 0.70208,-0.87892c0.35735,-0.21464 0.70528,-0.45403 1.04153,-0.71839c2.01375,-1.58321 3.2554,-3.78454 3.66734,-6.12324l29.57857,1.0408c0,0 4.04831,1.64996 3.84549,3.6041c-0.27059,2.60679 -4.70185,2.76361 -4.70185,2.76361z" fill="#71521d" stroke="none" stroke-width="0"/><path d="" fill-opacity="0.08443" fill="#ffffff" stroke="none" stroke-width="0"/><path d="M173.89687,241.04447c-0.05736,-0.53231 -0.07716,-1.42105 -0.08183,-2.22374c0.27315,-0.2996 0.52842,-0.616 0.76408,-0.94755c0.35734,-0.21464 0.70526,-0.45401 1.04151,-0.71837c0.09548,-0.07506 0.18922,-0.15152 0.28122,-0.22931l35.58853,-2.39382c0,0 0.68196,0.80606 0.74392,0.7285c0.01632,2.8706 -4.64632,2.35506 -4.64632,2.35506z" fill="#71521d" stroke="none" stroke-width="0"/><path d="M179.26139,231.17652l29.10957,1.08886c0,0 4.23057,-0.06816 3.9904,2.89704c-0.24033,2.96745 -5.03005,3.28565 -5.03005,3.28565l-33.53323,2.59322" fill="none" stroke="#00021d" stroke-width="3.5"/></g><path d="M179.0586,232.03196l29.13185,1.12503c0,0 3.3073,0.0832 3.22045,1.43663c-0.24036,2.96747 -4.03686,2.90179 -4.03686,2.90179l-33.68447,2.67451" fill="none" stroke="#71521d" stroke-width="1.75"/></g><g><path d="M191.57934,187.41568l9.67673,9.74004l-4.73099,10.0176l-12.00564,-1.63505l-9.38792,-8.66969l4.96094,-9.96585z" fill="#835c5c" stroke="#00021d" stroke-width="3.5"/><path d="M190.76865,189.78534l7.31782,7.20374l-8.48522,-0.94333l-7.88123,-6.84735z" fill="#774d4d" stroke="#774d4d" stroke-width="1.5"/><path d="M191.57941,187.41564l9.67672,9.74004l-4.73099,10.0176l-12.00564,-1.63504l-9.38792,-8.6697l4.96094,-9.96584z" fill="none" stroke="#00021d" stroke-width="3.5"/><path d="M191.72022,187.32659l9.67673,9.74002l-4.73098,10.01761l-12.00564,-1.63504l-9.38792,-8.66969l4.96094,-9.96585z" fill="#71521d" stroke="none" stroke-width="0"/></g></g><path d="M189.54063,190.57272c-1.13917,-1.56167 -0.81525,-3.73753 0.72344,-4.85993c1.5387,-1.1224 3.70952,-0.76632 4.84869,0.79535c1.13917,1.56167 0.81526,3.73754 -0.72344,4.85994c-1.53871,1.1224 -3.70953,0.76632 -4.8487,-0.79535z" data-paper-data="{&quot;index&quot;:null}" fill="#00021d" stroke="#00021d" stroke-width="12"/></g><path d="M203.33072,221.79912c0,-14.29037 0,14.29037 0,0z" fill="#fff1bf" stroke="none" stroke-width="0" stroke-linecap="butt"/><path d="M204.30319,222.77304c0,-14.29037 11.58463,-25.875 25.875,-25.875c9.33832,0 15.52123,3.6969 20.07111,11.11307c2.41277,3.93275 5.80389,9.80988 5.80389,14.76193c0,14.29037 -11.58463,25.875 -25.875,25.875c-14.29037,0 -25.875,-11.58463 -25.875,-25.875z" fill="#fff1bf" stroke="none" stroke-width="0" stroke-linecap="butt"/><path d="M204.30319,222.67307c0,-14.29037 11.58463,-25.875 25.875,-25.875c8.98375,0 25.875,8.00882 25.875,25.875c0,14.29037 -11.58463,25.875 -25.875,25.875c-14.29037,0 -25.875,-11.58463 -25.875,-25.875z" fill="#71521d" stroke="#00021d" stroke-width="3.5" stroke-linecap="butt"/><path d="M210.14048,222.50979c0,-10.89928 8.83561,-19.73489 19.73489,-19.73489c6.85192,0 19.73489,6.10834 19.73489,19.73489c0,10.89928 -8.83561,19.73489 -19.73489,19.73489c-10.89928,0 -19.73489,-8.83561 -19.73489,-19.73489z" fill="#ae7f2d" stroke="#00021d" stroke-width="3.5" stroke-linecap="butt"/><path d="M225.777,236.54543l7.92714,0.04636" fill="none" stroke="#161830" stroke-width="2.5" stroke-linecap="round"/><path d="M222.90512,216.54618v9.78572" fill="none" stroke="#161830" stroke-width="3.5" stroke-linecap="round"/><path d="M237.19087,216.97476v9.78571" fill="none" stroke="#161830" stroke-width="3.5" stroke-linecap="round"/><path d="M227.94087,215.81207l-1,3l-9.5,-5.25" fill="none" stroke="#161830" stroke-width="3.5" stroke-linecap="round"/><path d="M242.44087,213.31207l-9.5,5.25" data-paper-data="{&quot;index&quot;:null}" fill="none" stroke="#161830" stroke-width="3.5" stroke-linecap="round"/></g></g></svg>