<svg version="1.1" xmlns="http://www.w3.org/2000/svg" xmlns:xlink="http://www.w3.org/1999/xlink" width="503.77878" height="210.89617" viewBox="0,0,503.77878,210.89617"><defs><radialGradient cx="249.75914" cy="107.81181" r="79.78078" gradientUnits="userSpaceOnUse" id="color-1"><stop offset="0" stop-color="#b97500"/><stop offset="1" stop-color="#6d4401"/></radialGradient><radialGradient cx="411.73051" cy="111.42677" r="79.78079" gradientUnits="userSpaceOnUse" id="color-2"><stop offset="0" stop-color="#b97500"/><stop offset="1" stop-color="#6d4401"/></radialGradient></defs><g transform="translate(-128.11061,-77.10383)"><g data-paper-data="{&quot;isPaintingLayer&quot;:true}" fill-rule="nonzero" stroke-linecap="butt" stroke-linejoin="miter" stroke-miterlimit="10" stroke-dasharray="" stroke-dashoffset="0" style="mix-blend-mode: normal"><path d="M162.38939,92c2.5,0 6.4,0.6 8.7,1.5c2.4,0.8 5.9,2.7 7.9,4.2c2,1.6 4.3,4.1 5.1,5.8c0.9,1.7 1.5,4.6 1.5,6.5c0,2.5 -0.8,4.1 -2.6,5.7c-1.4,1.3 -3.7,2.3 -5.1,2.3c-1.5,0 -4.3,-1.6 -7,-4c-2.7,-2.4 -5.5,-4 -7,-4c-1.4,0 -3.7,0.6 -5.3,1.4c-1.5,0.7 -4.2,3 -6,5c-1.7,2 -3.9,6 -4.8,8.8c-1.2,4.2 -1.3,6.2 -0.5,9.5c0.6,2.4 2.3,5.7 3.8,7.4c1.7,1.8 4.4,3.3 6.8,3.9c2.2,0.5 7.2,0.6 11,0.4c4.7,-0.4 7.8,-0.1 9.4,0.8c1.4,0.7 3,2.6 3.6,4.3c0.8,1.9 0.9,4.1 0.4,6c-0.5,1.8 -2.1,3.8 -4.1,5c-2.8,1.7 -5.1,2 -14.8,2c-10.2,0 -12.1,-0.3 -16.5,-2.5c-2.8,-1.3 -6.8,-4.2 -9,-6.5c-2.2,-2.2 -5.1,-6.3 -6.4,-9c-1.3,-2.8 -2.7,-7.3 -3.1,-10c-0.4,-2.8 -0.4,-7.7 0.2,-11c0.5,-3.3 2.4,-8.7 4.1,-11.9c1.8,-3.3 5.3,-8 7.9,-10.5c2.5,-2.6 6.8,-5.7 9.5,-7c2.6,-1.3 5.5,-2.8 6.3,-3.2c0.8,-0.4 3.5,-0.8 6,-0.9zM328.58939,92c2.7,0 6.7,0.8 9,1.9c2.4,1 5.8,3.1 7.7,4.7c1.9,1.6 4,4.4 4.8,6.1c0.7,1.8 1.3,4.2 1.3,5.3c0,1.1 -1.3,3.3 -2.9,5c-1.8,1.8 -4,3 -5.5,3c-1.6,0 -4.2,-1.5 -6.9,-4c-2.3,-2.1 -5.2,-3.9 -6.5,-4c-1.2,0 -3.7,0.6 -5.5,1.3c-1.7,0.8 -4.5,2.9 -6.1,4.8c-1.5,1.9 -3.5,5 -4.2,6.9c-0.8,1.9 -1.4,5.7 -1.4,8.5c0,3.2 0.7,6.2 2,8.2c1.1,1.8 3.5,4.1 5.2,5c2.6,1.4 5.4,1.7 12.8,1.5c8.3,-0.3 9.9,0 12.2,1.8c1.6,1.1 3,3.3 3.3,5c0.3,1.7 -0.2,4.3 -1,6c-1,2 -2.93333,3.53333 -5.8,4.6c-3.1,1.2 -6.7,1.5 -14.2,1.2c-8.3,-0.4 -10.8,-0.9 -15,-3c-2.8,-1.4 -6.7,-4.3 -8.9,-6.5c-2.1,-2.1 -5.1,-6.3 -6.5,-9.3c-2.2,-4.7 -2.6,-6.8 -2.6,-15c0,-8.9 0.2,-9.9 3.5,-16.4c2.2,-4.3 5.5,-8.7 9,-11.9c3,-2.9 8.2,-6.4 11.5,-7.9c3.7,-1.7 7.8,-2.7 10.7,-2.8zM623.38939,95.4c2.7,0.3 5.3,1.3 6.5,2.6c1.2,1.2 2,3.4 2,5.5c0,2.4 -0.8,4.3 -2.5,6c-1.6,1.6 -4.5,2.8 -8,3.5c-3.1,0.6 -6.1,1.8 -6.8,2.8c-1,1.3 -1.1,5.6 -0.6,18.7c0.5,11.5 0.3,18.1 -0.4,20.5c-0.6,1.9 -2.1,4.4 -3.3,5.5c-1.2,1.2 -3.5,2 -5.5,2c-2.1,0 -4.2,-0.8 -5.6,-2.3c-2.2,-2.2 -2.3,-3 -3.3,-45.7l-6.5,-0.6c-5.3,-0.6 -6.9,-1.2 -8.8,-3.3c-1.2,-1.4 -2.2,-3.7 -2.2,-5.1c0,-1.4 1.1,-3.7 2.4,-5.3c2.4,-2.7 2.5,-2.7 19.6,-3.3c9.5,-0.4 17.5,-1 17.8,-1.4c0.4,-0.4 2.7,-0.4 5.2,-0.1zM450.08939,215.1c3.3,-0.1 4.9,0.5 6.8,2.4c1.4,1.4 2.5,3.6 2.5,5c0,1.4 -1.1,3.8 -2.5,5.5c-1.6,2 -4.3,3.5 -7.8,4.5c-2.8,0.8 -7.2,1.5 -9.7,1.5c-2.5,0 -5,0.4 -5.6,0.8c-0.6,0.4 -1.4,1.5 -1.7,2.4c-0.4,1.1 -0.1,2.4 0.8,3.3c1,1 3.6,1.5 8,1.5c5.6,0 6.8,0.3 9,2.5c1.4,1.4 2.5,3.6 2.5,5c0,1.4 -0.4,3.4 -1,4.5c-0.6,1.1 -2.6,2.7 -4.5,3.5c-1.9,0.8 -6.2,1.5 -9.5,1.5c-5.4,0 -6.1,0.2 -6.6,2.2c-0.3,1.3 -0.3,3.3 0,4.5c0.3,1.3 1.4,2.3 2.3,2.3c1,0 4,-0.7 6.8,-1.5c2.7,-0.9 6.7,-1.5 8.7,-1.5c2.8,0 4.4,0.7 6.3,2.7c1.5,1.6 2.6,4 2.5,5.5c0,1.6 -0.4,3.7 -1,4.8c-0.6,1.1 -2.7,2.8 -4.7,3.9c-2.1,1 -6.9,2.8 -10.8,4c-3.9,1.1 -8.8,2.1 -11,2.1c-2.2,-0.1 -6,-1.1 -8.4,-2.3c-3,-1.5 -5.1,-3.5 -6.5,-6.2c-1.8,-3.6 -2,-5.5 -1.9,-18c0.1,-7.7 0.9,-19.4 1.8,-26c0.9,-6.6 2.3,-13.1 3,-14.5c0.6,-1.4 2,-2.8 2.9,-3.3c0.9,-0.4 5.5,-0.8 10.4,-0.8c4.8,-0.1 10.1,-0.5 11.7,-0.9c1.6,-0.4 4.9,-0.8 7.2,-0.9zM502.18939,94c1.5,0 3.8,0.8 5.1,1.7c1.4,1 3,3.1 3.7,4.8c0.9,2 1.3,10.3 1.5,26c0.1,19.6 -0.1,23.5 -1.5,26.2c-0.9,1.8 -3.1,4.2 -4.8,5.3c-2,1.2 -5.1,2 -7.5,2c-3.8,0 -4.8,-0.5 -8.7,-4.8c-2.5,-2.6 -7.3,-8 -10.8,-12.1c-3.5,-4.1 -6.9,-7.6 -7.5,-7.8c-1,-0.2 -1.3,2.7 -1.3,12.4c0,9.1 -0.4,13.4 -1.3,14.8c-0.8,1.1 -2.6,2.3 -4,2.7c-1.5,0.5 -3.8,0.3 -5.2,-0.2c-1.4,-0.6 -3.3,-2.2 -4.2,-3.8c-1.2,-1.8 -2,-5.9 -2.4,-12.2c-0.4,-5.2 -1.2,-15.1 -1.9,-22c-0.9,-9.3 -0.9,-14 -0.1,-18.5c0.8,-4.2 2,-6.8 3.9,-8.8c1.8,-1.8 3.7,-2.7 5.7,-2.7c1.6,0 4.5,1.1 6.4,2.3c1.9,1.2 7,6.9 11.4,12.7c4.4,5.8 9.4,12 14.2,17.1l0.5,-15.1c0.5,-15.1 0.5,-15.2 3.3,-17.6c1.6,-1.3 4,-2.4 5.5,-2.4zM564.38939,94.1c0.3,-0.1 2,0.3 3.7,0.9c2.1,0.6 3.9,2.1 4.8,4c1.1,2.2 1.5,6.4 1.5,15.7c0,7.2 -0.7,16.8 -1.5,21.8c-0.9,4.9 -2.5,11 -3.6,13.5c-1.1,2.5 -3.2,6.2 -4.7,8.4c-1.5,2.1 -4.5,4.9 -6.7,6.2c-2.2,1.3 -6.5,2.7 -9.5,3c-3,0.3 -7.4,0.1 -9.8,-0.5c-2.3,-0.6 -5.6,-2.3 -7.3,-3.9c-1.8,-1.5 -4,-4.3 -4.9,-6.2c-1,-1.9 -2.5,-6.2 -3.4,-9.5c-0.8,-3.3 -2,-9.8 -2.5,-14.5c-0.7,-5.6 -0.8,-12.1 -0.1,-19c0.7,-7.7 1.4,-11.2 2.8,-13c1.3,-1.8 3,-2.6 5.8,-2.8c2.8,-0.2 4.5,0.3 6.1,1.8c2.2,1.9 2.3,2.8 2.3,15.5c0,8.3 0.6,16.5 1.6,21.2c0.8,4.3 2.2,8.8 3,10c0.8,1.3 2.3,2.3 3.4,2.3c1.1,0 2.9,-0.9 4,-2c1.1,-1.1 2.7,-4.6 3.6,-7.8c0.9,-3.1 2.2,-13.1 2.8,-22.2c0.8,-11.1 1.7,-17.2 2.6,-18.7c0.8,-1.2 2.4,-2.7 3.5,-3.2c1.1,-0.5 2.2,-1 2.5,-1zM407.58939,217.5l2.4,2.7c1.3,1.6 2.4,4 2.4,5.5c0.1,1.7 -1,3.9 -2.6,5.5c-2.6,2.7 -3,2.8 -13.8,2.8c-6.1,0 -11.8,0.4 -12.6,0.9c-1.1,0.7 -1.3,1.8 -0.7,4.3c0.4,1.8 1.3,3.9 2,4.6c0.7,0.7 2,1.3 2.9,1.2c1,0 3.7,0.8 5.9,1.7c2.5,1.1 4.7,2.9 5.5,4.5c0.8,1.6 1.2,3.8 0.9,5c-0.3,1.3 -1.3,3.1 -2.2,4.1c-1.1,1 -4.3,2 -13.3,3.2v5.7c0,3.2 -0.7,7.4 -1.5,9.3c-0.8,1.9 -2.7,4.3 -4.3,5.2c-2.3,1.4 -3.3,1.4 -6.5,0.5c-2,-0.7 -4.2,-2.2 -4.8,-3.5c-0.8,-1.4 -1.4,-10.7 -1.7,-24.7c-0.2,-12.4 -0.5,-24.8 -0.6,-27.7c-0.1,-4 0.4,-5.7 1.9,-7.3c1.1,-1.2 3.8,-2.5 6,-3c2.2,-0.5 10.9,-0.8 34.7,-0.5zM304.28939,218.3c2.4,0.1 4,1 5.5,3c1.9,2.6 2.1,4.4 2.4,23c0.3,14 0.7,20.4 1.5,20.9c0.7,0.5 3,0.5 5.2,0.2c2.2,-0.3 5.9,-0.1 8.2,0.5c2.9,0.8 4.9,2.1 6.3,4.1c1.1,1.6 2,3.7 2,4.5c0,0.8 -0.6,2.7 -1.4,4.2c-0.7,1.6 -2.6,3.3 -4.2,4c-1.6,0.7 -7,1.7 -11.9,2.2c-4.9,0.6 -10.7,1.1 -12.8,1.1c-2.9,0 -4.4,-0.7 -6.7,-3.3c-1.9,-2 -3.4,-5 -4,-8c-0.7,-3 -0.6,-12.6 0,-27.2c0.6,-13.1 1.5,-23.4 2.2,-24.8c0.6,-1.2 1.8,-2.8 2.7,-3.4c0.9,-0.7 3.1,-1.2 5,-1zM348.38939,219c2.33333,-0.06667 4.16667,0.63333 5.5,2.1c1.8,1.9 2,4 2.6,26.8c0.4,13.7 0.3,26.3 -0.2,28.3c-0.5,2.3 -2,4.6 -3.7,5.8c-1.5,1.2 -3.7,2.1 -5,2c-1.2,0 -3.1,-0.5 -4.2,-1c-1.1,-0.6 -2.7,-2.7 -3.6,-4.8c-1.3,-3.2 -1.5,-7 -0.9,-27.2c0.4,-13.2 1.2,-24.9 1.8,-26.7c0.6,-1.8 1.8,-3.7 2.7,-4.3c0.8,-0.5 3.1,-1 5,-1z" fill="#000000" stroke="none" stroke-width="1"/><g stroke-width="3.5"><path d="M186.454,127.19355c0,-26.69729 21.64247,-48.33972 48.33972,-48.33972c26.69725,0 48.33972,21.64243 48.33972,48.33972c0,26.69729 -21.64243,48.33972 -48.33972,48.33972c-26.69725,0 -48.33972,-21.64243 -48.33972,-48.33972z" fill="#000000" stroke="#000000"/><path d="M188.20478,127.19355c0,-25.73035 20.85857,-46.58896 46.58896,-46.58896c25.73035,0 46.58893,20.85861 46.58893,46.58896c0,25.73035 -20.85857,46.58896 -46.58893,46.58896c-25.73035,0 -46.58893,-20.85857 -46.58893,-46.58893z" fill="url(#color-1)" stroke="#6d4500"/><path d="M222.59038,89.93791c0,5.30783 -4.30289,9.61073 -9.61073,9.61073c-4.12007,0 -7.63459,-2.76743 -9.00123,-6.41016c-0.08512,-0.22688 3.38656,-3.28586 7.40266,-5.63957c4.13351,-2.4225 8.82299,-4.304 9.32177,-3.63178c1.18595,1.5984 1.8875,3.92757 1.8875,6.07078z" fill="#000000" stroke="#6d4500"/><path d="M249.59885,101.13065c0,5.22979 -4.55598,9.46936 -10.17602,9.46936c-5.62008,0 -10.17606,-4.2396 -10.17606,-9.46936c0,-5.22979 4.55598,-9.46936 10.17606,-9.46936c5.62008,0 10.17602,4.2396 10.17602,9.46936z" fill="#000000" stroke="#6d4500"/><path d="M224.72407,115.40526c0,5.46396 -4.61923,9.89339 -10.31736,9.89339c-5.69813,0 -10.31739,-4.42944 -10.31739,-9.89339c0,-5.46396 4.61927,-9.89336 10.31739,-9.89336c5.69813,0 10.31736,4.4294 10.31736,9.89336z" fill="#000000" stroke="#6d4500"/></g><g stroke-width="3.5"><path d="M348.42537,130.80851c0,-26.69728 21.64247,-48.33972 48.33972,-48.33972c26.69725,0 48.33972,21.64244 48.33972,48.33972c0,26.69729 -21.64243,48.33972 -48.33972,48.33972c-26.69725,0 -48.33972,-21.64243 -48.33972,-48.33972z" fill="#000000" stroke="#000000"/><path d="M350.17616,130.80851c0,-25.73036 20.85857,-46.58896 46.58896,-46.58896c25.73035,0 46.58893,20.85861 46.58893,46.58897c0,25.73036 -20.85858,46.58896 -46.58893,46.58896c-25.73036,0 -46.58893,-20.85857 -46.58893,-46.58893z" fill="url(#color-2)" stroke="#6d4500"/><path d="M384.56176,93.55287c0,5.30783 -4.30289,9.61073 -9.61073,9.61073c-4.12007,0 -7.63459,-2.76742 -9.00124,-6.41016c-0.08512,-0.22688 3.38656,-3.28587 7.40266,-5.63957c4.13351,-2.42251 8.82299,-4.30399 9.32176,-3.63178c1.18595,1.5984 1.8875,3.92757 1.8875,6.07078z" fill="#000000" stroke="#6d4500"/><path d="M411.57023,104.74561c0,5.22979 -4.55598,9.46935 -10.17602,9.46935c-5.62008,0 -10.17606,-4.2396 -10.17606,-9.46935c0,-5.22979 4.55598,-9.46936 10.17606,-9.46936c5.62009,0 10.17602,4.23961 10.17602,9.46936z" fill="#000000" stroke="#6d4500"/><path d="M386.69545,119.02022c0,5.46396 -4.61924,9.89339 -10.31736,9.89339c-5.69813,0 -10.31739,-4.42943 -10.31739,-9.89339c0,-5.46396 4.61926,-9.89336 10.31739,-9.89336c5.69813,0 10.31736,4.4294 10.31736,9.89336z" fill="#000000" stroke="#6d4500"/></g></g></g></svg>