<svg viewBox="0,0,174.28421,221.86999" height="221.86999" width="174.28421" xmlns:xlink="http://www.w3.org/1999/xlink" xmlns="http://www.w3.org/2000/svg" version="1.1"><g transform="translate(-238.96579,-115.18799)"><g style="mix-blend-mode: normal" stroke-dashoffset="0" stroke-dasharray="" stroke-miterlimit="10" stroke-linejoin="miter" stroke="#161830" fill-rule="nonzero" data-paper-data="{&quot;isPaintingLayer&quot;:true}"><path stroke-linecap="round" stroke-width="2.5" fill="none" d="M380.40001,322.39234c0,0 2.19675,-2.22971 5.2,-2.2c3.20329,0.03169 5,2.4 5,2.4"></path><path stroke-linecap="butt" stroke-width="2.5" fill="#161830" d="M384.40001,322.49234c0,-0.7732 0.6268,-1.4 1.4,-1.4c0.7732,0 1.4,0.6268 1.4,1.4c0,0.7732 -0.6268,1.4 -1.4,1.4c-0.7732,0 -1.4,-0.6268 -1.4,-1.4z"></path><path stroke-linecap="round" stroke-width="2.5" fill="none" d="M400.70001,322.69234c0,0 2.19674,-2.22971 5.2,-2.2c3.20329,0.03169 5,2.4 5,2.4"></path><path stroke-linecap="butt" stroke-width="2.5" fill="#161830" d="M404.70001,322.79233c0,-0.7732 0.6268,-1.4 1.4,-1.4c0.7732,0 1.4,0.6268 1.4,1.4c0,0.7732 -0.6268,1.4 -1.4,1.4c-0.7732,0 -1.4,-0.6268 -1.4,-1.4z"></path><path stroke-linecap="round" stroke-width="1.5" fill="none" d="M412.50001,328.39234c-3.95219,7.5024 -20.67619,13.39695 -33,-0.4"></path><path stroke-linecap="round" stroke-width="1.5" fill="none" d="M396.20001,325.09234l2.3,6.5l-1.9,0.7"></path><path stroke-linecap="round" stroke-width="1.5" fill="none" d="M245.96902,115.938c0,0 0.04203,1.98632 -0.93854,2.24211c-0.69243,0.18063 -1.63932,-0.4993 -2.38002,-1.99873c-0.03102,-0.0628 -0.02296,-0.08088 -0.02654,-0.07987c-0.00674,0.00191 -0.00145,0.07581 -0.00145,0.07581c0,0 0.18138,2.15889 -1.1909,2.08989c-1.37229,-0.06899 -1.71577,-1.71003 -1.71577,-1.71003"></path></g></g></svg>