<svg version="1.1" xmlns="http://www.w3.org/2000/svg" xmlns:xlink="http://www.w3.org/1999/xlink" width="126.69188" height="251.86766" viewBox="0,0,126.69188,251.86766"><defs><radialGradient cx="239.85292" cy="182.51336" r="21.52948" gradientUnits="userSpaceOnUse" id="color-1"><stop offset="0" stop-color="#b97500"/><stop offset="1" stop-color="#6d4401"/></radialGradient></defs><g transform="translate(-177.12721,-34.02217)"><g data-paper-data="{&quot;isPaintingLayer&quot;:true}" fill-rule="nonzero" stroke-linejoin="miter" stroke-miterlimit="10" stroke-dasharray="" stroke-dashoffset="0" style="mix-blend-mode: normal"><path d="M190.40063,158.98827c-1.68181,0.87262 -3.77279,0.29269 -4.67037,-1.29533c-0.89756,-1.58802 -0.26182,-3.58275 1.41999,-4.45538c1.68181,-0.87262 3.77279,-0.29269 4.67037,1.29533c0.89756,1.58802 0.26182,3.58275 -1.41999,4.45538z" data-paper-data="{&quot;index&quot;:null}" fill="#00021d" stroke="#00021d" stroke-width="12" stroke-linecap="butt"/><g data-paper-data="{&quot;index&quot;:null}"><path d="M187.62666,152.73922l11.58268,-4.24788l6.14396,6.44095l-0.54556,2.69435l21.11886,26.08176c0,0 2.14998,3.38605 0.29563,4.86585c-2.47368,1.97406 -6.47986,-0.16732 -6.47986,-0.16732l-29.1242,-18.86941l-3.63907,0.44593l-5.04537,-6.65909z" fill="#5c2a2a" stroke="none" stroke-width="0" stroke-linecap="butt"/><path d="M187.88134,153.11368l11.34392,-4.61211l-11.38754,21.45845l-5.59713,-6.49052z" fill-opacity="0.08443" fill="#ffffff" stroke="none" stroke-width="0" stroke-linecap="butt"/><path d="M187.90413,152.52487l37.55656,30.92178c0,0 3.10007,2.2118 0.31816,4.85588c-2.49622,2.37252 -5.99715,-0.53761 -5.99715,-0.53761l-28.71791,-17.81145l-4.84304,-0.12889l-4.15957,-6.24476z" fill-opacity="0.08443" fill="#ffffff" stroke="none" stroke-width="0" stroke-linecap="butt"/><path d="M187.44285,152.78541l11.55703,-4.27625l6.38192,6.16245l-0.85188,2.8972l21.55567,25.30674c0,0 2.59724,3.29199 -0.16755,5.58019c-2.76691,2.28996 -6.89239,-0.17305 -6.89239,-0.17305l-28.68743,-18.80535l-3.34656,0.76978l-5.27166,-6.90963z" fill="none" stroke="#00021d" stroke-width="3.5" stroke-linecap="butt"/><path d="M190.06424,170.10154l5.9164,-8.63988l9.14726,-4.14615" fill="none" stroke="#00021d" stroke-width="1.5" stroke-linecap="round"/><path d="M187.5856,152.31904l11.14208,-4.09507l6.28267,6.17425l-0.4752,3.5277l21.37324,24.69487c0,0 2.58055,3.81084 -0.19171,6.04553c-2.3139,1.86521 -6.92851,-0.38614 -6.92851,-0.38614l-28.04295,-18.53251l-3.93604,-0.00574l-5.06655,-6.36792z" fill="#71521d" stroke="none" stroke-width="0" stroke-linecap="butt"/></g><g data-paper-data="{&quot;index&quot;:null}" stroke-linecap="butt"><g><path d="M224.21569,188.88833c-0.2855,-0.06866 -1.0602,-0.34544 -2.04745,-0.71629c-0.99729,-1.87861 -2.67952,-3.43582 -4.89787,-4.31138c-0.46871,-0.18499 -0.94484,-0.33304 -1.42477,-0.44555l13.14068,-28.27644c0,0 3.03211,-3.02545 4.76604,-2.20423c2.31302,1.0955 0.81149,5.05245 0.81149,5.05245z" fill="#71521d" stroke="none" stroke-width="0"/><path d="" fill-opacity="0.08443" fill="#ffffff" stroke="none" stroke-width="0"/><path d="M224.2981,188.90821c-0.51419,-0.12446 -1.34441,-0.3992 -2.08935,-0.65898c-0.32861,-0.63381 -0.7347,-1.23192 -1.21264,-1.78071l11.24229,-32.83378c0,0 0.99975,-0.33602 0.95096,-0.41613c2.66391,0.92937 0.45386,4.86921 0.45386,4.86921z" fill="#71521d" stroke="none" stroke-width="0"/><path d="M215.98084,183.44776l12.99993,-27.80883c0,0 1.50903,-3.75093 4.16522,-2.5644c2.6582,1.18742 1.17288,5.51334 1.17288,5.51334l-10.0605,30.4064" fill="none" stroke="#00021d" stroke-width="3.5"/></g><path d="M216.79721,183.68718l12.94206,-27.59604c0,0 1.30608,-2.88747 2.52693,-2.36596c2.6582,1.18745 1.18655,4.51182 1.18655,4.51182l-10.04144,30.56642" fill="none" stroke="#71521d" stroke-width="1.75"/></g><path d="M190.61709,170.46078l4.97378,-8.60357l9.98279,-4.15562" data-paper-data="{&quot;index&quot;:null}" fill="none" stroke="#00021d" stroke-width="1.5" stroke-linecap="round"/><g stroke="none" stroke-width="1" stroke-linecap="butt"><path d="M193.74018,135.65003c-0.22043,0.29292 -0.44084,0.58586 -0.64565,0.90656c-0.16784,0.28371 -0.0999,0.67858 -0.54761,0.90969c0.24202,-0.73403 0.29646,-1.42497 0.3509,-2.11592c0.19194,-0.20657 0.41375,-0.42856 0.7051,-0.56104c0.03122,0.05554 0.04683,0.08331 0.06244,0.11107c0.04247,0.2468 0.0622,0.48742 0.07482,0.74961z" fill="#c6dede"/><path d="M192.22265,133.56706c-0.27438,0.2312 -0.52601,0.46859 -0.80039,0.6998c-0.16049,-0.11422 -0.10354,-0.28694 -0.12902,-0.43502c-0.02548,-0.14807 -0.02111,-0.31157 -0.03947,-0.48123c0.19906,-0.22816 0.48331,-0.33906 0.73632,-0.5055c0.20019,0.21912 0.21993,0.45974 0.23255,0.72194z" fill="#c8e0e1"/><path d="M187.56386,131.17086c0.14786,-0.14799 0.30422,-0.24661 0.46907,-0.29588c0.18895,0.02786 0.23717,0.18212 0.32946,0.2778c0.09229,0.09567 0.22155,0.15436 0.23991,0.32402c-0.11664,0.20352 -0.33981,0.35456 -0.57722,0.54877c-0.07805,-0.13886 -0.15611,-0.27771 -0.24128,-0.39497c-0.07094,-0.16045 -0.14187,-0.32089 -0.21993,-0.45974z" fill="#c5ddde"/><path d="M185.09038,133.03888c-0.06956,-0.08949 -0.10078,-0.14502 -0.13201,-0.20057c-0.05533,-0.13267 -0.10354,-0.28693 -0.17447,-0.44737c0.25876,-0.25898 0.44933,-0.5365 0.77766,-0.70599c0.14488,0.08645 0.17746,0.21293 0.21855,0.38878c-0.19769,0.29911 -0.43234,0.63522 -0.68973,0.96514z" fill="#c7dfe0"/><path d="M193.62176,134.20633c-0.23029,0.17261 -0.42361,0.30825 -0.67663,0.47468c-0.04384,-0.31775 -0.0948,-0.6139 -0.11591,-0.92547c0.17059,-0.1418 0.33407,-0.26202 0.53588,-0.34828c0.16323,0.25612 0.2057,0.50291 0.25665,0.79907z" fill="#c2dada"/><path d="M191.15324,132.82926c-0.13338,-0.27152 -0.21281,-0.48133 -0.31497,-0.69731c0.13937,-0.19735 0.37103,-0.29901 0.6027,-0.40069c0.16897,0.16358 0.3081,0.34257 0.37329,0.59555c-0.1536,0.24052 -0.41649,0.28666 -0.66102,0.50245z" fill="#c6dedf"/><path d="M184.17296,132.36591c-0.16921,0.21275 -0.27736,0.46565 -0.55312,0.6259c-0.08655,-0.18822 -0.18022,-0.35483 -0.27388,-0.52146c0.08542,-0.25907 0.27025,-0.44405 0.50902,-0.56731c0.16049,0.11422 0.23853,0.25307 0.31797,0.46288z" fill="#c3dadb"/><path d="M194.80134,135.96215c-0.19906,0.22816 -0.39102,0.43474 -0.59008,0.6629c-0.07781,-0.51518 -0.05621,-0.95629 0.51939,-1.19968c0.10078,0.14503 0.06657,0.32392 0.07069,0.53677z" fill="#bbd2d3"/><path d="M194.36655,140.36071c0.10216,0.21598 0.21856,0.38878 0.32072,0.60477c-0.05831,0.10177 -0.17634,0.23434 -0.27163,0.37311c-0.37354,-0.21922 -0.36642,-0.24079 -0.25115,-0.51528c0.04983,-0.15112 0.12238,-0.29607 0.20206,-0.4626z" fill="#b5cbcc"/><path d="M190.67852,130.88872c0.20594,0.12658 0.30673,0.27162 0.40751,0.41664c-0.13225,0.17576 -0.34256,0.21266 -0.54437,0.29893c-0.12351,-0.15122 -0.2243,-0.29624 -0.34782,-0.44746c0.0868,-0.18812 0.30559,-0.17566 0.48468,-0.26811z" fill="#c0d7d8"/><path d="M194.01553,133.9135c-0.07232,-0.23138 -0.11477,-0.47818 -0.1871,-0.70959c0.12651,-0.08321 0.25439,-0.09549 0.39077,-0.0584c0.12214,0.08026 0.13201,0.20057 0.16461,0.32707c0.01699,0.09872 0.03398,0.19743 0.05096,0.29616c-0.1109,0.11099 -0.23029,0.17261 -0.41924,0.14475z" fill="#b6cccc"/><path d="M194.70404,134.83002c-0.14786,0.14799 -0.28149,0.2528 -0.47619,0.31747c-0.10216,-0.21598 -0.07643,-0.44424 -0.08768,-0.63549c0.10241,-0.16035 0.25301,-0.16644 0.38802,-0.2003c0.06107,0.04014 0.10653,0.0525 0.09941,0.07409c0.02548,0.14807 0.05096,0.29616 0.07643,0.44424z" fill="#b7cdce"/><path d="M195.29653,137.0143c-0.10354,-0.28693 -0.03947,-0.48123 -0.02087,-0.68789c0.003,-0.23443 0.16784,-0.28371 0.36254,-0.34839c0.10216,0.21598 0.08355,0.42264 0.11752,0.62009c-0.11664,0.20352 -0.36529,0.20648 -0.4592,0.41619z" fill="#b6cccc"/><path d="M189.36846,130.9559c-0.11802,0.13259 -0.20755,0.1788 -0.33544,0.19108c-0.1435,-0.0155 -0.20594,-0.12658 -0.29823,-0.22226c-0.06956,-0.08949 -0.22155,-0.15436 -0.19445,-0.31166c0.15636,-0.09863 0.32833,-0.16948 0.54713,-0.15703c0.11639,0.1728 0.18733,0.33324 0.281,0.49987z" fill="#bbd2d3"/><path d="M194.98737,140.50601c-0.19445,-0.31166 -0.19445,-0.31166 -0.1871,-0.70959c0.17059,-0.1418 0.35955,-0.11394 0.58547,-0.12308c-0.03147,0.3208 -0.23765,0.57054 -0.39837,0.83266z" fill="#adc2c3"/><path d="M193.20488,132.91671c-0.16348,0.12021 -0.28999,0.20344 -0.48468,0.26811c-0.14624,-0.1574 -0.15037,-0.37024 -0.2298,-0.58004c0.06681,-0.0524 0.12651,-0.08322 0.1862,-0.11404c0.05969,-0.03081 0.135,-0.03386 0.21742,-0.05849c0.18322,0.1204 0.25414,0.28084 0.31085,0.48446z" fill="#bbd1d2"/><path d="M185.30467,131.2622c-0.25164,0.23739 -0.5189,0.447 -0.76342,0.6628c-0.15199,-0.06486 -0.22155,-0.15436 -0.26264,-0.3302c0.3056,-0.17566 0.61119,-0.35133 0.96362,-0.44368c0.03122,0.05554 0.04683,0.08331 0.06244,0.11107z" fill="#acc1c2"/><path d="M192.70394,131.95711c-0.08817,0.11717 -0.22317,0.15104 -0.3809,0.17871c-0.11639,-0.1728 -0.23279,-0.34562 -0.34919,-0.51841c0.14786,-0.14799 0.29137,-0.13249 0.45046,-0.08922c0.11502,0.10186 0.20868,0.26848 0.27963,0.42893z" fill="#b7cdcd"/><path d="M186.16402,131.66058c-0.11502,-0.10186 -0.16186,-0.18517 -0.17172,-0.30548c0.23029,-0.17261 0.4677,-0.36683 0.84286,-0.453c-0.09828,0.3732 -0.37403,0.53345 -0.67113,0.75847z" fill="#b2c8c9"/><path d="M193.29287,137.45744c0.06981,-0.28685 0.14811,-0.52433 0.30171,-0.76484c0.12076,0.00932 0.14488,0.08645 0.12351,0.15122c-0.02709,0.15731 -0.03147,0.3208 -0.05856,0.47809c-0.05695,0.17271 -0.1621,0.19117 -0.36667,0.13554z" fill="#91a3a3"/><path d="M191.64877,131.17612c-0.18322,-0.1204 -0.29112,-0.24384 -0.40751,-0.41665c0.32395,-0.006 0.55262,0.12677 0.82537,0.20095c-0.04408,0.05859 -0.05831,0.10177 -0.08817,0.11717c-0.11228,0.04004 -0.21743,0.05849 -0.3297,0.09854z" fill="#a9bebf"/><path d="M194.82359,136.721c-0.10677,0.32383 -0.17796,0.53973 -0.24914,0.75562c-0.01424,0.04319 -0.07393,0.074 -0.14212,0.05545c-0.02273,-0.00619 -0.06107,-0.04014 -0.07668,-0.06791c0.03996,-0.27143 0.11827,-0.50891 0.46793,-0.74316z" fill="#94a5a6"/><path d="M193.73612,139.71875c0.16485,-0.04926 0.24015,-0.05231 0.32533,0.06495c-0.03422,0.17889 -0.07555,0.37938 -0.21492,0.57672c-0.17746,-0.21293 -0.10629,-0.42883 -0.11041,-0.64168z" fill="#abbfc0"/><path d="M195.54753,135.57697c-0.12788,0.01228 -0.18046,0.02149 -0.22592,0.00914c-0.15037,-0.37024 -0.15037,-0.37024 0.01747,-0.65395c0.18458,0.19135 0.11341,0.40724 0.20845,0.64481z" fill="#acc0c1"/><path d="M193.63835,132.72878c-0.08517,-0.11726 -0.13201,-0.20057 -0.14187,-0.32089c0.07393,-0.074 0.15636,-0.09863 0.27712,-0.08931c0.12925,0.05867 0.18458,0.19135 0.23991,0.32402c-0.08817,0.11717 -0.23166,0.10168 -0.37516,0.08618z" fill="#aec2c3"/><path d="M190.18859,130.49671c-0.37103,0.29901 -0.40088,0.31443 -0.5967,-0.06818c0.19607,0.00627 0.39077,-0.0584 0.5967,0.06818z" fill="#869696"/><path d="M195.72128,137.15334c0.14188,0.32088 0.10491,0.35787 -0.28012,0.32374c0.00436,-0.16349 0.13088,-0.24671 0.28012,-0.32374z" fill="#8b9b9c"/><path d="M181.97111,133.86083c-0.003,0.23443 -0.08267,0.40097 -0.16235,0.56749c-0.15773,0.02768 -0.21169,-0.03405 -0.18321,-0.1204c0.05695,-0.17271 0.13662,-0.33925 0.34555,-0.4471z" fill="#9aacad"/><path d="M195.12078,134.16704c0.10078,0.14503 0.2158,0.24689 0.13613,0.41343c-0.00712,0.02159 -0.03696,0.037 -0.05969,0.03081c-0.19033,-0.09881 -0.19308,-0.24071 -0.07643,-0.44424z" fill="#5f6a6b"/><path d="M193.07635,131.72904c0.18046,-0.02149 0.28698,0.031 0.32096,0.22844c-0.21031,0.03691 -0.27987,-0.05258 -0.32096,-0.22844z" fill="#4a5354"/><g><path d="M181.90644,143.74724c-0.22867,-0.13277 -0.23991,-0.32402 -0.21419,-0.55228c0.06843,-0.35778 0.20505,-0.69703 0.29621,-1.04864c-0.04683,-0.08331 -0.09367,-0.16662 -0.14762,-0.22834c-1.08179,-1.37635 -1.39902,-2.96821 -1.43913,-4.6494c-0.00687,-0.35473 -0.03648,-0.71567 0.07741,-1.06109c0.02135,-0.06477 0.02709,-0.15731 -0.00413,-0.21285c-0.17172,-0.30548 -0.07918,-0.58614 -0.00226,-0.89456c0.06269,-0.26525 0.17084,-0.51813 0.25626,-0.77721c0.04983,-0.15112 0.14511,-0.28988 0.31708,-0.36074c0.17197,-0.07086 0.29711,-0.22503 0.41512,-0.3576c0.59444,-0.82638 1.32664,-1.54473 2.17387,-2.16122c0.48331,-0.33906 1.00633,-0.57322 1.55207,-0.8012c1.6074,-0.66853 3.27701,-0.84964 4.97621,-0.66982c0.76293,0.08986 1.513,0.29385 2.2346,0.58419c0.54688,0.2193 0.99847,0.57737 1.42022,0.95084c1.34193,1.18832 2.10962,2.69097 2.43672,4.40315c0.06657,0.32392 0.05072,0.67249 0.03486,1.02106c-0.003,0.23443 0.02386,0.45347 0.20845,0.64481c0.16897,0.16358 0.19583,0.3826 0.17011,0.61086c-0.06843,0.35778 -0.18232,0.70322 -0.29621,1.04864c-0.03559,0.10795 -0.10952,0.18194 -0.18345,0.25594c-0.30422,0.24661 -0.47918,0.55191 -0.6158,0.89116c-0.26475,0.72784 -0.74255,1.3507 -1.19763,1.97974c-0.17633,0.23434 -0.37541,0.46251 -0.61281,0.65671c-0.75631,0.64121 -1.5211,1.23307 -2.44775,1.63976c-0.10677,0.32383 -0.24339,0.66308 -0.35729,1.00851c-0.0427,0.12954 -0.09254,0.28066 -0.25739,0.32992c-0.14212,0.05545 -0.1621,0.19116 -0.2048,0.3207c-0.30746,0.85738 -0.59219,1.72096 -0.89964,2.57833c-0.65625,1.91524 -1.31961,3.85208 -2.02132,5.75497c-0.68747,1.85971 -1.30675,3.73795 -1.94877,5.61003c-0.09965,0.30225 -0.23765,0.57054 -0.3373,0.87278c-0.48404,1.46806 -0.96808,2.93612 -1.47484,4.39799c-0.08542,0.25907 -0.12538,0.53051 -0.34005,0.73089c-0.07393,0.074 -0.0868,0.18812 -0.12239,0.29606c-0.35591,1.07946 -0.74167,2.17432 -1.09758,3.25377c-0.01424,0.04319 -0.03559,0.10795 -0.04983,0.15112c-0.09116,0.3516 -0.30721,0.48105 -0.67525,0.54564c-1.232,0.20602 -2.38846,0.03266 -3.46935,-0.52007c-0.27413,-0.14512 -0.53402,-0.33343 -0.75694,-0.55873c-0.16897,-0.16358 -0.20294,-0.36102 -0.1545,-0.58309c0.14536,-0.66622 0.26799,-1.33862 0.42046,-2.02642c0.11115,-0.48732 0.27486,-0.98388 0.31782,-1.48973c0.09165,-1.10427 0.46317,-2.15595 0.62301,-3.24169c0.10128,-0.60763 0.14997,-1.20603 0.27398,-1.80749c0.13824,-0.64463 0.22391,-1.28003 0.33229,-1.90925c0.20392,-1.14431 0.46042,-2.29786 0.64162,-3.44835c0.20417,-1.52064 0.49925,-3.01656 0.79434,-4.51248c0.09553,-0.51509 0.19106,-1.03019 0.28659,-1.54528c0.16533,-0.80194 0.3378,-1.62546 0.50313,-2.42738c0.0969,-0.44414 0.14123,-0.87906 0.23814,-1.32321c0.08129,-0.47192 0.21654,-0.8821 0.32768,-1.36943zM182.57433,143.59953c0.23005,0.20371 0.47432,0.36425 0.76269,0.4662c0.5269,0.35502 1.12636,0.5651 1.72582,0.77518c0.75145,0.27494 1.55409,0.4697 2.33401,0.65828c0.89357,0.21949 1.79013,0.20455 2.71653,0.17419c0.10515,-0.01845 0.21031,-0.03691 0.36804,-0.06458c0.05695,-0.17271 0.11389,-0.34543 0.17084,-0.51813c0.01424,-0.04319 0.00574,-0.09254 0.00437,-0.1635c-0.15911,-0.04327 -0.32533,-0.06495 -0.49867,-0.06504c-0.29411,-0.00941 -0.55125,-0.05582 -0.84536,-0.06523c-0.72459,-0.0559 -1.40785,-0.3123 -2.11108,-0.43298c-0.37079,-0.07732 -0.75581,-0.11146 -1.11236,-0.23194c-0.77418,-0.28112 -1.58394,-0.45429 -2.32965,-0.82177c-0.19033,-0.09881 -0.40338,-0.2038 -0.59371,-0.30261c-0.04821,-0.15426 -0.24428,-0.16054 -0.34369,-0.23462c-0.11502,-0.10186 -0.23004,-0.20372 -0.48719,-0.25012c0.06657,0.32392 -0.09416,0.58604 -0.08866,0.86984c0.10653,0.05249 0.15473,0.20676 0.32808,0.20684zM183.24148,144.58082c-0.45871,-0.33648 -0.58797,-0.39515 -0.89769,-0.43233c-0.06269,0.26525 -0.11826,0.50891 -0.18095,0.77417c-0.04983,0.15112 0.0055,0.2838 0.12052,0.38564c0.07668,0.06791 0.19033,0.09881 0.26701,0.16672c0.29112,0.24384 0.65616,0.41371 1.02695,0.49102c0.12351,0.15122 0.30535,0.20067 0.48719,0.25012c1.01571,0.29976 2.00156,0.61491 3.05286,0.80672c0.46883,0.08044 0.94477,0.13932 1.4051,0.1704c0.36942,0.00637 0.76155,0.01891 1.11973,-0.16598c0.09254,-0.28066 0.18507,-0.56131 0.27761,-0.84197c-0.19607,-0.00627 -0.36942,-0.00637 -0.52003,-0.00028c-0.69337,-0.00037 -1.3725,-0.04392 -2.02316,-0.17382c-0.83961,-0.15776 -1.64363,-0.42348 -2.45477,-0.6676c-0.38641,-0.10509 -0.70735,-0.33352 -1.10088,-0.41703c-0.15473,-0.20676 -0.37491,-0.29016 -0.57948,-0.3458zM178.13736,169.37599c0.27551,0.21608 0.5866,0.3242 0.91192,0.38916c0.01561,0.02777 0.05395,0.06172 0.07668,0.06791c0.55262,0.12677 1.11948,0.21035 1.68359,0.15204c0.33108,-0.02758 0.65503,-0.03358 0.96062,-0.20925c0.39862,-1.20899 0.79724,-2.41799 1.21722,-3.69174c-0.62381,0.08912 -1.2049,0.04872 -1.77888,-0.01329c-0.50579,-0.04346 -0.93903,-0.23186 -1.43058,-0.31849c-0.18184,-0.04945 -0.33382,-0.11431 -0.51566,-0.16377c-0.23717,-0.18212 -0.51129,-0.32725 -0.84511,-0.44157c-0.21354,0.64768 -0.23103,1.30161 -0.38487,1.91848c-0.13824,0.64463 -0.25375,1.29544 -0.38487,1.91848c0.15473,0.20676 0.32234,0.29939 0.48993,0.39201zM178.99989,164.88204c0.12351,0.15122 0.29823,0.22226 0.48006,0.2717c0.15336,0.13581 0.36505,0.16984 0.56249,0.24708c0.6293,0.19467 1.2942,0.28139 1.9506,0.31876c0.39215,0.01255 0.79852,-0.01809 1.18791,-0.14744c0.02847,-0.08636 0.07968,-0.16654 0.10815,-0.2529c0.3488,-1.05786 0.69046,-2.09414 1.06199,-3.14583c0.39288,-1.11645 0.77864,-2.21132 1.17151,-3.32777c0.56372,-1.63459 1.14304,-3.24141 1.70675,-4.87599c0.6505,-1.82271 1.2257,-3.64238 1.92167,-5.45272c0.12238,-0.29606 0.20643,-0.62609 0.3132,-0.94993c-0.27849,0.01836 -0.5485,0.08608 -0.81276,0.06126c-0.8596,-0.02205 -1.69921,-0.17981 -2.52458,-0.38076c-0.72734,-0.19781 -1.44757,-0.41721 -2.16778,-0.63661c-0.28125,-0.12353 -0.54688,-0.2193 -0.82813,-0.34284c-0.13912,-0.17898 -0.35792,-0.19144 -0.52553,-0.28408c-0.19033,-0.09881 -0.34369,-0.23462 -0.5781,-0.27485c-0.11664,0.20352 -0.12812,0.3886 -0.15523,0.54591c-0.16995,1.34176 -0.52886,2.65564 -0.76699,3.97885c-0.15684,0.85129 -0.31369,1.70258 -0.44781,2.56006c-0.20392,1.14431 -0.37799,2.27322 -0.5748,3.39595c-0.15548,0.92224 -0.31094,1.84449 -0.48914,2.76054c-0.17683,0.98701 -0.36926,1.94625 -0.56881,2.92708c-0.17108,0.89448 -0.34928,1.81053 -0.50476,2.73278c0.19745,0.07722 0.29112,0.24384 0.48006,0.2717zM196.12992,138.01727c-0.56411,0.05831 -1.0699,0.01485 -1.58281,-0.007c-0.53564,-0.02804 -1.05567,-0.02832 -1.58419,-0.07796c-0.50579,-0.04346 -1.02007,-0.13627 -1.51874,-0.20131c-0.5214,-0.07123 -1.0428,-0.14246 -1.57981,-0.24144c-0.49155,-0.08663 -0.99872,-0.20104 -1.49027,-0.28767c-0.50716,-0.11439 -0.98586,-0.31516 -1.52149,-0.34321c-0.4346,-0.25935 -0.96314,-0.30898 -1.43333,-0.46038c-0.48581,-0.17917 -1.00859,-0.32135 -1.4944,-0.50052c-0.46309,-0.17298 -0.94177,-0.37375 -1.39774,-0.56833c-0.4787,-0.20075 -0.90618,-0.48169 -1.40623,-0.61768c-0.2163,0.50577 -0.26612,0.6569 -0.21242,1.09495c0.23717,0.18212 0.47432,0.36424 0.77118,0.51555c0.36504,0.16985 0.7301,0.33971 1.11075,0.53734c0.72297,0.36129 1.43033,0.69482 2.22586,0.91117c0.5455,0.14835 1.09813,0.27512 1.61516,0.50984c0.10653,0.05249 0.24291,0.08958 0.39352,0.08349c0.29411,0.00941 0.58247,0.11135 0.85522,0.18554c1.0001,0.27198 2.0429,0.41444 3.07008,0.52911c1.35253,0.17963 2.70941,0.19577 4.08766,0.14715c0.27138,0.00323 0.54275,0.00646 0.78866,-0.13839c0.15223,-0.31147 0.23627,-0.64149 0.30333,-1.07023zM187.7943,132.95085c-0.27438,0.2312 -0.45783,0.48714 -0.66401,0.7369c-0.19194,0.20657 -0.30009,0.45946 -0.2946,0.74327c-0.02734,0.53364 -0.12999,1.07032 -0.32356,1.58227c-0.01424,0.04319 -0.01286,0.11412 -0.01998,0.13572c0.09229,0.09567 0.18321,0.1204 0.31821,0.08653c0.02985,-0.01541 0.06681,-0.0524 0.07393,-0.074c0.27462,-0.60753 0.59469,-1.20271 0.96023,-1.78553c0.0512,-0.08017 0.11664,-0.20352 0.09965,-0.30225c0.02297,-0.37016 0.04595,-0.7403 -0.14987,-1.12291zM185.35569,135.83992c0.26038,-0.56437 0.5591,-1.09477 0.87343,-1.5974c0.10241,-0.16035 0.1295,-0.31766 0.11826,-0.50891c-0.02823,-0.28998 -0.11615,-0.54914 -0.19695,-0.82989c-0.01699,-0.09872 -0.02686,-0.21903 -0.17746,-0.21293c-0.23466,0.33611 -0.48492,0.64445 -0.67412,0.99291c0.08743,1.01183 0.08743,1.01183 -0.23151,2.05429c0.04683,0.08331 0.13063,0.12963 0.28836,0.10196zM190.24242,139.49788c-0.21905,0.36387 -0.41536,0.73393 -0.61168,1.104c-0.0512,0.08017 -0.10241,0.16035 -0.10815,0.25289c0.04521,0.38869 0.0677,0.77121 0.24792,1.12604c0.35817,-0.18489 0.53313,-0.49019 0.76916,-0.75534c0.11802,-0.13259 0.138,-0.2683 0.11963,-0.43797c-0.06795,-0.39488 -0.09043,-0.7774 -0.08307,-1.17531c0.00712,-0.02159 -0.03122,-0.05554 -0.06244,-0.11107c-0.0753,0.00305 -0.17334,-0.00009 -0.27138,-0.00323zM192.36154,134.12239c-0.40937,0.26506 -0.65252,0.55181 -0.91841,0.83239c-0.08817,0.11717 -0.10103,0.2313 -0.11389,0.34543c-0.03446,0.55523 -0.13711,1.09191 -0.3378,1.62546c-0.02135,0.06477 -0.01998,0.13572 -0.04134,0.20048c0.24291,0.08958 0.29548,0.08036 0.35243,-0.09235c0.18507,-0.56131 0.47667,-1.07014 0.86769,-1.50488c0.23603,-0.26516 0.29872,-0.53042 0.27761,-0.84197c-0.04109,-0.17585 -0.06657,-0.32392 -0.0863,-0.56455zM188.03064,136.59092c0.11364,0.03091 0.16485,-0.04926 0.19332,-0.13562c0.19931,-0.60449 0.57334,-1.13795 0.94737,-1.6714c0.29298,-0.43787 0.36578,-0.95914 0.18144,-1.52683c-0.22317,0.15103 -0.31708,0.36074 -0.49479,0.52414c-0.36254,0.34839 -0.49779,0.75857 -0.54924,1.21508c-0.06568,0.49969 -0.10864,1.00555 -0.31069,1.46816c0.00138,0.07095 0.01699,0.09872 0.0326,0.12649zM190.76336,133.71127c-0.22179,0.22199 -0.39238,0.36379 -0.54026,0.51176c-0.25164,0.23739 -0.35979,0.49028 -0.36852,0.81724c0.00113,0.44728 -0.09577,0.89143 -0.21541,1.32938c-0.02709,0.15731 -0.08404,0.33002 -0.13387,0.48113c0.10653,0.05249 0.15062,-0.00609 0.16485,-0.04926c0.32008,-0.59517 0.66288,-1.18417 1.08948,-1.72685c0.05831,-0.10177 0.10952,-0.18194 0.12238,-0.29606c-0.014,-0.33316 -0.00526,-0.66012 -0.11865,-1.06737zM191.74555,139.67143c-0.04433,0.43492 -0.24065,0.80498 -0.41423,1.18121c-0.03559,0.10795 -0.13225,0.17575 -0.12238,0.29606c0.01125,0.19126 0.17011,0.61086 0.35607,0.87315c0.23029,-0.17261 0.36117,-0.41932 0.53039,-0.63207c0.13225,-0.17576 0.16646,-0.35465 0.10976,-0.55828c-0.08218,-0.3517 -0.1189,-0.69103 -0.0732,-1.055c0.00712,-0.02159 -0.0241,-0.07713 -0.03971,-0.10491c-0.0838,-0.04631 -0.17472,-0.07105 -0.34668,-0.00018zM183.5023,138.98225c0.03672,0.33933 -0.10702,0.70017 0.00501,1.03646c0.16623,0.02167 0.27,-0.06773 0.38939,-0.12935c0.21605,-0.12945 0.4406,-0.20953 0.63255,-0.41609c-0.00825,-0.42569 0.17958,-0.8451 0.20118,-1.28621c-0.09229,-0.09567 -0.20594,-0.12658 -0.33382,-0.11431c-0.25739,0.32992 -0.55312,0.6259 -0.8943,0.90951zM187.47355,138.95658c-0.11664,0.20352 -0.23328,0.40706 -0.39676,0.52727c-0.39376,0.29284 -0.49205,0.66603 -0.43122,1.0825c0.02548,0.14807 -0.01723,0.27762 0.07643,0.44424c0.29848,-0.15408 0.53588,-0.34828 0.77329,-0.54249c0.06681,-0.0524 0.09529,-0.13876 0.10815,-0.2529c0.01586,-0.34857 0.04732,-0.66935 0.06317,-1.01792c0.02135,-0.06477 0.00436,-0.16349 -0.19307,-0.24071zM186.0416,138.56716c-0.24752,0.45023 -0.52626,0.84492 -0.93563,1.10999c-0.08954,0.04623 -0.09529,0.13875 -0.12376,0.22512c-0.04134,0.20048 -0.05994,0.40716 0.01238,0.63854c0.41786,-0.21571 0.72208,-0.46233 1.03342,-0.73053c0.10378,-0.0894 0.1621,-0.19117 0.18207,-0.32688c0.03285,-0.24985 0.08841,-0.49351 0.12125,-0.74335c0.00712,-0.02159 -0.0241,-0.07713 -0.03972,-0.1049c-0.06819,-0.01854 -0.13638,-0.03709 -0.25002,-0.068zM193.74018,135.65003c-0.01974,-0.24062 -0.03235,-0.50283 -0.05209,-0.74344c-0.01561,-0.02777 -0.03122,-0.05554 -0.06244,-0.11108c-0.31409,0.12631 -0.53588,0.34828 -0.7051,0.56104c-0.06156,0.71254 -0.10888,1.38189 -0.3509,2.11592c0.4321,-0.25888 0.38689,-0.64758 0.54761,-0.90969c0.18209,-0.32687 0.4025,-0.61982 0.62293,-0.91274zM187.64693,132.34618c-0.14188,-0.32088 -0.23829,-0.62941 -0.50667,-0.86707c-0.14075,0.1264 -0.28999,0.20343 -0.40088,0.31443c-0.1109,0.11099 -0.24453,0.2158 -0.29435,0.36692c0.00413,0.21285 0.12052,0.38564 0.18434,0.56769c0.06382,0.18203 0.07507,0.37329 0.22131,0.53069c0.273,-0.30216 0.51616,-0.5889 0.79626,-0.91265zM183.88677,135.48748c0.30446,-0.62296 0.55061,-1.14413 0.79675,-1.66531c0.01424,-0.04319 0.05833,-0.10176 0.02709,-0.15731c-0.08081,-0.28076 -0.10191,-0.59232 -0.34757,-0.8238c-0.19057,0.27752 -0.37403,0.53345 -0.53475,0.79557c0.13176,0.5769 0.11291,1.15991 0.05848,1.85085zM188.21504,141.44016c0.25439,-0.09549 0.37103,-0.29901 0.5189,-0.447c0.17771,-0.1634 0.28723,-0.34534 0.27462,-0.60753c-0.00687,-0.35473 -0.01375,-0.70949 0.14561,-1.04255c-0.14488,-0.08645 -0.24291,-0.08958 -0.28561,0.03995c-0.1295,0.31766 -0.26612,0.6569 -0.49504,0.90046c-0.31708,0.36074 -0.24202,0.73403 -0.15846,1.15667zM186.12143,140.35323c-0.41649,0.28666 -0.75905,0.49932 -1.07888,0.71816c-0.04983,0.15112 -0.01012,0.25603 0.00687,0.35473c0.03971,0.10491 0.04247,0.2468 0.18733,0.33324c0.30696,-0.10472 0.60545,-0.2588 0.88832,-0.44064c0.02435,-0.2992 0.01884,-0.583 -0.00364,-0.96551zM189.34115,142.3816c-0.09779,-0.37948 -0.1871,-0.70959 -0.26927,-1.06128c-0.25164,0.23739 -0.49617,0.45319 -0.7407,0.66899c0.06657,0.32392 0.0948,0.6139 0.30349,0.88238c0.26862,-0.13867 0.47619,-0.31747 0.70647,-0.49009zM188.96571,131.95203c-0.31547,0.05535 -0.47619,0.31747 -0.68375,0.49628c-0.06681,0.0524 -0.07968,0.16654 -0.05557,0.24366c0.0652,0.25298 0.11477,0.47818 0.1871,0.70959c-0.00712,0.02159 0.03834,0.03395 0.08379,0.04632c0.25876,-0.25898 0.50191,-0.54572 0.76067,-0.8047c-0.04247,-0.2468 -0.16736,-0.46897 -0.29225,-0.69112zM192.22265,133.56706c-0.01262,-0.2622 -0.03235,-0.50283 -0.23255,-0.72194c-0.24589,0.14485 -0.53726,0.27734 -0.73632,0.5055c0.01836,0.16967 -0.00874,0.32697 0.03947,0.48123c0.02548,0.14807 -0.0542,0.31462 0.12902,0.43502c0.27438,-0.2312 0.54874,-0.46241 0.80039,-0.6998zM190.01317,142.44673c0.02686,0.21903 0.19582,0.38261 0.35768,0.56777c0.26726,-0.20961 0.55861,-0.34211 0.74919,-0.61963c-0.12489,-0.22217 -0.16024,-0.49055 -0.35331,-0.73126c-0.25876,0.25898 -0.49479,0.52414 -0.75355,0.78311zM193.26867,139.70924c-0.15085,0.38242 -0.21792,0.81115 -0.41423,1.18121c-0.15223,0.31147 -0.05007,0.52746 0.16573,0.77435c0.23741,-0.19421 0.36117,-0.41932 0.51478,-0.65985c-0.18159,-0.42578 -0.15999,-0.86689 -0.26627,-1.29571zM182.71357,134.83907c0.09803,0.00314 0.11939,-0.06163 0.14075,-0.1264c0.11526,-0.27447 0.21492,-0.57672 0.35291,-0.84502c0.22616,-0.38546 0.07006,-0.66317 -0.14713,-0.98101c-0.09529,0.13876 -0.17634,0.23434 -0.23466,0.33611c-0.1536,0.24052 -0.25464,0.47183 -0.12837,0.76494c0.06382,0.18203 0.04521,0.38869 0.03373,0.57377c-0.0512,0.08017 -0.13225,0.17576 -0.01723,0.27762zM182.28591,139.21604c0.14212,-0.05545 0.23878,-0.12326 0.32832,-0.16948c0.28424,-0.11089 0.41649,-0.28666 0.45645,-0.5581c0.02573,-0.22826 0.12675,-0.45956 0.17521,-0.68163c0.02135,-0.06477 0.06544,-0.12335 -0.08655,-0.18821c-0.2133,0.27134 -0.47206,0.53032 -0.76916,0.75534c-0.06681,0.0524 -0.10241,0.16035 -0.13088,0.24671c-0.01149,0.18507 -0.01586,0.34857 0.02661,0.59536zM187.72461,141.80081c-0.01974,-0.24062 -0.00962,-0.49664 -0.10466,-0.73421c-0.3056,0.17566 -0.61968,0.30197 -0.87133,0.53936c0.0652,0.25298 0.0622,0.48742 0.26952,0.68495c0.24589,-0.14485 0.50741,-0.26193 0.70647,-0.49009zM189.9506,133.77254c0.3056,-0.17566 0.52739,-0.39765 0.70372,-0.63199c-0.0652,-0.25298 -0.11477,-0.47818 -0.25528,-0.72812c-0.22454,0.08008 -0.39513,0.22189 -0.55012,0.39146c0.04384,0.31775 0.06495,0.62931 0.10168,0.96865zM185.37426,142.24375c0.08655,0.18822 0.11915,0.31471 0.20432,0.43197c0.04683,0.08331 0.10078,0.14503 0.15473,0.20676c0.26288,-0.04613 0.51728,-0.14162 0.72484,-0.32042c-0.04247,-0.2468 -0.08492,-0.4936 -0.2624,-0.70654c-0.26862,0.13867 -0.52302,0.23415 -0.82149,0.38823zM182.19345,137.16774c-0.33544,0.19108 -0.57422,0.31434 -0.84997,0.47459c-0.0512,0.08017 -0.0783,0.23748 -0.05282,0.38556c0.00275,0.1419 -0.09254,0.28066 0.00825,0.42569c0.22592,-0.00914 0.39789,-0.07999 0.56136,-0.20021c0.09116,-0.3516 0.19793,-0.67544 0.33318,-1.08563zM187.56386,131.17086c0.07805,0.13886 0.15611,0.27771 0.23416,0.41656c0.07805,0.13886 0.16323,0.25612 0.24128,0.39497c0.23741,-0.19421 0.45346,-0.32365 0.57722,-0.54877c-0.02548,-0.14807 -0.14762,-0.22834 -0.23991,-0.32402c-0.09229,-0.09567 -0.16323,-0.25612 -0.32946,-0.27779c-0.1862,0.11403 -0.35817,0.18489 -0.48331,0.33906zM188.12726,143.13361c-0.11065,-0.26533 -0.13889,-0.55533 -0.35469,-0.80221c-0.21605,0.12945 -0.40937,0.26506 -0.62543,0.39451c0.11065,0.26533 0.18297,0.49674 0.42013,0.67886c0.1947,-0.06468 0.37516,-0.08617 0.55999,-0.27115zM185.09038,133.03888c0.2645,-0.35151 0.49205,-0.66603 0.71958,-0.98056c-0.04821,-0.15426 -0.07369,-0.30233 -0.21856,-0.38878c-0.32833,0.16948 -0.54162,0.44082 -0.77766,0.70599c0.04821,0.15426 0.09642,0.30852 0.17447,0.44737c-0.00574,0.09254 0.0326,0.12649 0.10216,0.21598zM184.45158,140.91068c-0.05808,-0.27457 0.02734,-0.53364 -0.09755,-0.7558c-0.32121,0.14789 -0.61256,0.28039 -0.87982,0.49c0.10928,0.1944 0.03809,0.41029 0.22268,0.60164c0.26288,-0.04613 0.46332,-0.20334 0.75469,-0.33583zM193.62176,134.20633c-0.05096,-0.29616 -0.0863,-0.56455 -0.24104,-0.7713c-0.20182,0.08626 -0.38802,0.20029 -0.53588,0.34828c0.05096,0.29616 0.07918,0.58614 0.11591,0.92547c0.21467,-0.20039 0.408,-0.33601 0.66102,-0.50245zM182.24295,139.7219c-0.00162,0.30538 -0.01173,0.56142 0.15861,0.79594c0.21743,-0.05849 0.40501,-0.10158 0.55287,-0.24957c-0.0055,-0.2838 0.01173,-0.56142 -0.00226,-0.89456c-0.25439,0.09549 -0.48605,0.19716 -0.70923,0.3482zM191.15324,132.82926c0.24453,-0.2158 0.53726,-0.27734 0.66102,-0.50245c-0.0652,-0.25298 -0.20432,-0.43197 -0.37329,-0.59555c-0.23166,0.10168 -0.4562,0.18175 -0.6027,0.40069c0.10216,0.21598 0.18159,0.42579 0.31497,0.69731zM189.90178,143.31038c-0.10928,-0.1944 -0.1731,-0.37643 -0.34919,-0.51841c-0.23741,0.19421 -0.53726,0.27734 -0.72071,0.53327c0.08655,0.18822 0.19445,0.31166 0.3919,0.38888c0.23878,-0.12326 0.46196,-0.27429 0.67801,-0.40374zM184.17296,132.36591c-0.07943,-0.2098 -0.16461,-0.32707 -0.30235,-0.4351c-0.21605,0.12945 -0.4236,0.30825 -0.50902,0.56731c0.09367,0.16662 0.18733,0.33324 0.27388,0.52146c0.26014,-0.18803 0.36829,-0.44092 0.5375,-0.65366zM194.11555,141.79804c-0.10078,-0.14503 -0.18596,-0.26229 -0.31522,-0.32098c-0.20755,0.1788 -0.36965,0.36997 -0.49342,0.5951c0.07094,0.16045 0.15611,0.27771 0.30099,0.36415c0.23029,-0.17261 0.33844,-0.42551 0.50766,-0.63826zM186.07264,143.28058c0.05096,0.29616 0.22567,0.3672 0.43736,0.40125c0.15911,0.04327 0.33245,0.04337 0.45758,-0.1108c-0.07943,-0.2098 -0.16598,-0.39801 -0.33495,-0.56159c-0.20182,0.08626 -0.3809,0.1787 -0.55999,0.27115zM194.80134,135.96215c-0.00413,-0.21285 0.05282,-0.38556 -0.07069,-0.53677c-0.5756,0.24339 -0.5972,0.68449 -0.51939,1.19968c0.19906,-0.22816 0.39102,-0.43474 0.59008,-0.6629zM184.12253,142.20916c0.23304,-0.03073 0.40501,-0.10159 0.60545,-0.2588c-0.12351,-0.15122 -0.07507,-0.37329 -0.22842,-0.50909c-0.1435,-0.0155 -0.21743,0.05849 -0.3297,0.09854c-0.11939,0.06163 -0.24727,0.0739 -0.2971,0.22502c0.04821,0.15426 0.09642,0.30852 0.24978,0.44433zM188.58188,136.64674c0.20731,0.19753 0.35792,0.19144 0.44472,0.00332c0.11526,-0.27447 0.18507,-0.56131 0.24776,-0.82657c0.02847,-0.08636 0.04134,-0.20048 -0.08081,-0.28076c-0.24178,0.3577 -0.43809,0.72776 -0.61168,1.104zM191.18312,143.70591c0.00275,0.1419 0.07232,0.23138 0.20157,0.29007c0.29136,-0.13249 0.62105,-0.23102 0.85709,-0.49619c-0.23005,-0.20371 -0.44885,-0.21617 -0.67913,-0.04355c-0.11939,0.06163 -0.27713,0.0893 -0.37953,0.24966zM191.69881,137.25916c0.31821,0.08653 0.40064,0.06191 0.4647,-0.1324c0.07692,-0.30843 0.16097,-0.63844 0.14698,-0.9716c-0.30996,0.33916 -0.59008,0.6629 -0.61168,1.104zM194.36655,140.36071c-0.07968,0.16654 -0.1295,0.31766 -0.20206,0.4626c-0.12238,0.29606 -0.12238,0.29606 0.25115,0.51528c0.09529,-0.13876 0.22043,-0.29292 0.27163,-0.37311c-0.12489,-0.22217 -0.21144,-0.41038 -0.32072,-0.60477zM190.67852,130.88872c-0.17197,0.07086 -0.39077,0.0584 -0.46907,0.29588c0.10078,0.14503 0.23141,0.27466 0.34782,0.44746c0.20182,-0.08626 0.41924,-0.14475 0.54437,-0.29893c-0.12351,-0.15122 -0.21718,-0.31784 -0.42312,-0.44442zM192.41772,141.68917c-0.20618,0.24975 -0.4351,0.49332 -0.64128,0.74307c0.00987,0.12031 0.04959,0.22521 0.20019,0.21912c0.26862,-0.13867 0.50604,-0.33288 0.66676,-0.59499c-0.04821,-0.15426 -0.11065,-0.26534 -0.22567,-0.3672zM194.01553,133.9135c0.16623,0.02167 0.30834,-0.03377 0.44197,-0.13857c-0.01699,-0.09872 -0.03398,-0.19743 -0.05096,-0.29616c-0.0326,-0.12649 -0.04247,-0.2468 -0.16461,-0.32707c-0.13638,-0.03709 -0.26426,-0.02482 -0.39077,0.0584c0.04959,0.22521 0.11477,0.47818 0.16436,0.7034zM189.6802,132.26396c0.20182,-0.08626 0.34256,-0.21266 0.4677,-0.36683c-0.13912,-0.17898 -0.25552,-0.35179 -0.37904,-0.50301c-0.20319,0.01531 -0.33682,0.12013 -0.40225,0.24348c0.10216,0.21598 0.20432,0.43197 0.3136,0.62636zM194.70404,134.83002c-0.02548,-0.14807 -0.05096,-0.29616 -0.09917,-0.45042c-0.01561,-0.02777 -0.06107,-0.04014 -0.09941,-0.07409c-0.11228,0.04004 -0.26288,0.04613 -0.38802,0.2003c0.01125,0.19126 -0.01448,0.41951 0.08768,0.63549c0.21743,-0.05849 0.35106,-0.16331 0.49892,-0.31129zM195.29653,137.0143c0.10103,-0.2313 0.36529,-0.20648 0.43647,-0.42237c-0.03398,-0.19743 0.00736,-0.39792 -0.11752,-0.62009c-0.1947,0.06468 -0.36667,0.13554 -0.36254,0.34839c0.00413,0.21285 -0.08267,0.40097 0.0436,0.69408zM192.80039,143.15769c0.14075,-0.1264 0.30422,-0.24661 0.43785,-0.35142c0.02985,-0.01541 0.02135,-0.06477 0.03559,-0.10795c-0.09941,-0.07409 -0.17746,-0.21293 -0.40338,-0.20379c-0.17059,0.1418 -0.3483,0.3052 -0.54874,0.46241c0.13063,0.12963 0.25989,0.18831 0.4787,0.20075zM189.36846,130.9559c-0.09367,-0.16662 -0.18021,-0.35484 -0.25827,-0.49369c-0.22592,0.00914 -0.39789,0.07999 -0.54713,0.15703c-0.02709,0.15731 0.12489,0.22217 0.19445,0.31166c0.06956,0.08949 0.13201,0.20057 0.29823,0.22226c0.10515,-0.01845 0.21742,-0.05849 0.31271,-0.19725zM182.47089,140.98366c0.06382,0.18203 0.11915,0.31471 0.17447,0.44737c0.00849,0.04936 0.06956,0.08949 0.08517,0.11726c0.15911,0.04327 0.30122,-0.01217 0.43485,-0.11699c-0.0567,-0.20362 -0.09068,-0.40106 -0.19996,-0.59545c-0.15773,0.02768 -0.29984,0.08313 -0.49455,0.1478zM194.98737,140.50601c0.18345,-0.25594 0.36691,-0.51186 0.39837,-0.83266c-0.22592,0.00914 -0.41487,-0.01874 -0.58547,0.12308c-0.00736,0.39792 -0.00736,0.39792 0.1871,0.70959zM184.40927,142.6165c0.25115,0.51528 0.27388,0.52146 0.75419,0.41684c-0.08655,-0.18822 -0.20294,-0.36102 -0.28949,-0.54923c-0.16623,-0.02167 -0.30834,0.03377 -0.4647,0.1324zM193.20488,132.91671c-0.0567,-0.20362 -0.12764,-0.36406 -0.281,-0.49987c-0.05258,0.00923 -0.135,0.03386 -0.21742,0.05849c-0.05969,0.03081 -0.12651,0.08322 -0.1862,0.11404c0.0567,0.20362 0.08355,0.42264 0.2298,0.58004c0.15773,-0.02768 0.31409,-0.12631 0.45483,-0.25271zM181.44167,139.59808c0.08242,-0.02463 0.19469,-0.06468 0.23878,-0.12326c0.14649,-0.21894 0.17222,-0.44718 0.09141,-0.72794c-0.16485,0.04926 -0.36092,0.04299 -0.47181,0.15399c0.01974,0.24062 -0.03583,0.48428 0.14163,0.69721zM185.30467,131.2622c-0.01561,-0.02777 -0.03122,-0.05554 -0.06244,-0.11107c-0.35243,0.09235 -0.65802,0.26802 -0.96362,0.44368c0.01836,0.16967 0.08793,0.25916 0.26264,0.3302c0.24453,-0.2158 0.51178,-0.42541 0.76342,-0.6628zM190.68796,136.04327c-0.24315,0.28674 -0.50191,0.54572 -0.6002,0.91892c-0.00712,0.02159 0.06956,0.08949 0.11502,0.10186c0.11364,0.03091 0.23304,-0.03073 0.26862,-0.13867c0.16072,-0.26211 0.2078,-0.55513 0.21655,-0.8821zM192.70394,131.95711c-0.07094,-0.16045 -0.14187,-0.32089 -0.2725,-0.4505c-0.15911,-0.04327 -0.28699,-0.031 -0.45046,0.08922c0.11639,0.1728 0.22567,0.3672 0.34919,0.51841c0.15062,-0.00609 0.26288,-0.04613 0.37378,-0.15713zM187.75025,143.9015c0.31109,0.10813 0.57673,0.20389 0.89931,0.12695c-0.00413,-0.21285 -0.13476,-0.34248 -0.29523,-0.45669c-0.22454,0.08008 -0.41924,0.14475 -0.60407,0.32974zM180.80947,137.30891c0.24727,-0.0739 0.27713,-0.0893 0.29848,-0.15408c0.09391,-0.20971 0.04433,-0.43492 -0.01238,-0.63854c-0.0241,-0.07713 -0.13063,-0.12963 -0.24153,-0.01863c0.07232,0.23138 -0.11115,0.48732 -0.04457,0.81125zM186.16402,131.66058c0.26726,-0.20961 0.55012,-0.39146 0.69385,-0.7523c-0.36804,0.06458 -0.61256,0.28039 -0.84286,0.453c-0.01286,0.11412 0.04109,0.17585 0.14899,0.29929zM183.31713,141.8725c-0.135,0.03386 -0.26288,0.04613 -0.39789,0.07999c0.04959,0.22521 0.13613,0.41343 0.40751,0.41665c0.0753,-0.00305 0.15062,-0.00609 0.20181,-0.08626c-0.00275,-0.1419 -0.08792,-0.25917 -0.21144,-0.41038zM193.29287,137.45744c0.20457,0.05563 0.30972,0.03718 0.34394,-0.14171c0.02709,-0.15731 0.0542,-0.31462 0.05856,-0.47809c-0.00138,-0.07095 -0.02548,-0.14807 -0.12352,-0.15122c-0.1536,0.24052 -0.2319,0.478 -0.27899,0.77103zM184.79805,134.67669c-0.18345,0.25594 -0.32144,0.52423 -0.3458,0.82343c-0.00712,0.02159 0.06956,0.08949 0.09229,0.09567c0.04546,0.01237 0.11228,-0.04004 0.12651,-0.08321c0.06981,-0.28685 0.20068,-0.53354 0.12699,-0.83588zM183.46502,135.11401c0.003,-0.23443 0.08129,-0.47192 0.02322,-0.74649c-0.20618,0.24975 -0.32994,0.47486 -0.30446,0.62296c0.00275,0.1419 0.09367,0.16662 0.28125,0.12353zM190.04041,144.24203c0.29411,0.00941 0.61231,0.09595 0.85684,-0.11985c-0.35219,-0.28398 -0.5967,-0.06818 -0.85684,0.11985zM191.01772,140.22629c0.04546,0.01237 0.0753,-0.00305 0.12076,0.00932c0.04846,-0.22207 0.20344,-0.39165 0.15385,-0.61687c-0.12925,-0.05867 -0.20457,-0.05563 -0.30834,0.03377c0.01836,0.16967 0.0296,0.36092 0.03373,0.57377zM187.65621,135.54809c-0.16784,0.28371 -0.2916,0.50882 -0.35429,0.77408c-0.01424,0.04319 0.01699,0.09872 0.08517,0.11726c0.02273,0.00619 0.0753,-0.00305 0.10515,-0.01845c0.18345,-0.25594 0.26887,-0.515 0.16396,-0.87288zM181.74266,139.96224c-0.15062,0.00609 -0.23304,0.03073 -0.20893,0.10785c0.01836,0.16967 0.05945,0.34552 0.10054,0.52137c0.03971,0.10491 0.1079,0.12345 0.20457,0.05563c0.01012,-0.25603 0.00599,-0.46888 -0.09617,-0.68486zM191.64877,131.17612c0.11228,-0.04004 0.21743,-0.05849 0.3297,-0.09854c0.02985,-0.01541 0.04408,-0.05859 0.08817,-0.11717c-0.27275,-0.07418 -0.50142,-0.20694 -0.82537,-0.20095c0.11639,0.1728 0.20157,0.29007 0.40751,0.41665zM185.22334,138.34462c-0.04846,0.22207 -0.08979,0.42256 -0.15248,0.68781c0.29848,-0.15408 0.43072,-0.32984 0.47918,-0.55191c-0.09229,-0.09567 -0.15336,-0.13581 -0.3267,-0.1359zM192.53833,139.74588c0.04109,0.17585 -0.08267,0.40097 0.12464,0.59849c0.23903,-0.4996 0.27461,-0.60754 0.17521,-0.68163c-0.11364,-0.03091 -0.19608,-0.00627 -0.29985,0.08313zM186.27821,135.22038c-0.37952,0.24966 -0.46494,0.50872 -0.4808,0.85729c0.40363,-0.17253 0.32145,-0.52423 0.4808,-0.85729zM194.82359,136.721c-0.34968,0.23425 -0.42798,0.47173 -0.46793,0.74316c-0.00712,0.02159 0.03122,0.05554 0.07668,0.06791c0.06819,0.01854 0.12788,-0.01228 0.14212,-0.05545c0.09391,-0.20971 0.14237,-0.43178 0.24914,-0.75562zM193.73612,139.71875c0.00413,0.21285 -0.04433,0.43492 0.13314,0.64786c0.13937,-0.19735 0.18071,-0.39783 0.21492,-0.57672c-0.11502,-0.10186 -0.21306,-0.105 -0.34806,-0.07113zM195.54753,135.57697c-0.09504,-0.23757 -0.01674,-0.47504 -0.21556,-0.62323c-0.16784,0.28371 -0.16784,0.28371 -0.01747,0.65395c0.05258,-0.00923 0.10515,-0.01845 0.23304,-0.03073zM190.67757,143.28612c0.33956,0.02177 0.56274,-0.12926 0.77029,-0.30806c-0.02548,-0.14807 -0.11639,-0.1728 -0.20594,-0.12658c-0.17059,0.1418 -0.36392,0.27743 -0.56435,0.43465zM193.63835,132.72878c0.1435,0.0155 0.26426,0.02481 0.37516,-0.08618c-0.05533,-0.13267 -0.11065,-0.26533 -0.23991,-0.32402c-0.12076,-0.00932 -0.20319,0.01531 -0.27712,0.08931c0.00987,0.12031 0.0567,0.20362 0.14187,0.32089zM188.21052,139.65104c0.12514,-0.15417 0.2133,-0.27134 0.21055,-0.41323c-0.00849,-0.04936 -0.04683,-0.08331 -0.08517,-0.11726c-0.06819,-0.01854 -0.17334,-0.0001 -0.17197,0.07086c-0.0427,0.12954 -0.09254,0.28066 0.04659,0.45964zM190.18859,130.49671c-0.18322,-0.1204 -0.40064,-0.06191 -0.5967,-0.06818c0.18022,0.35483 0.22567,0.36719 0.5967,0.06818zM182.19929,134.74626c0.19769,-0.29911 0.19769,-0.29911 0.03583,-0.48428c-0.08817,0.11717 -0.18345,0.25594 -0.03583,0.48428zM189.7892,139.44521c-0.06956,-0.08949 -0.13775,-0.10803 -0.17472,-0.07105c-0.17059,0.1418 -0.16921,0.21275 -0.02872,0.46269c0.11802,-0.13259 0.16073,-0.26212 0.20344,-0.39165zM195.72128,137.15334c-0.14924,0.07703 -0.27575,0.16026 -0.28012,0.32374c0.38502,0.03413 0.422,-0.00286 0.28012,-0.32374zM181.97111,133.86083c-0.1862,0.11403 -0.26588,0.28057 -0.33843,0.42551c-0.02847,0.08636 0.01836,0.16967 0.18321,0.1204c0.07256,-0.14494 0.15223,-0.31147 0.15523,-0.54591zM195.12078,134.16704c-0.11664,0.20352 -0.08404,0.33001 0.08355,0.42264c0,0 0.05257,-0.00923 0.05969,-0.03081c0.06544,-0.12335 -0.04247,-0.2468 -0.14325,-0.39183zM186.7446,139.06417c0.15062,-0.00609 0.22454,-0.08008 0.23029,-0.17261c0.01424,-0.04319 -0.01699,-0.09872 -0.05533,-0.13267c-0.03834,-0.03395 -0.12076,-0.00932 -0.135,0.03386c-0.04408,0.05859 -0.07256,0.14494 -0.03996,0.27143zM193.07635,131.72904c0.04109,0.17585 0.11065,0.26533 0.32096,0.22844c-0.0567,-0.20362 -0.13338,-0.27152 -0.32096,-0.22844z" fill="#000000"/><path d="M183.96623,146.58936c0.72023,0.2194 1.44045,0.4388 2.16778,0.63661c0.81826,0.22253 1.66499,0.35871 2.52458,0.38076c0.27138,0.00323 0.51153,-0.04908 0.81277,-0.06126c-0.11389,0.34543 -0.19082,0.65386 -0.3132,0.94993c-0.68884,1.78876 -1.27117,3.63001 -1.92167,5.45272c-0.58645,1.62841 -1.14304,3.24141 -1.70675,4.87599c-0.39288,1.11645 -0.77864,2.21132 -1.17151,3.32777c-0.37152,1.05168 -0.69046,2.09414 -1.06199,3.14583c-0.02847,0.08636 -0.05695,0.17271 -0.10815,0.25289c-0.39651,0.15094 -0.77305,0.16616 -1.18791,0.14744c-0.6564,-0.03737 -1.3213,-0.12409 -1.9506,-0.31876c-0.20457,-0.05563 -0.41625,-0.08968 -0.56249,-0.24708c0.2188,0.01246 0.42474,0.13904 0.71036,0.09909c-0.04521,-0.38869 0.14398,-0.73717 0.23514,-1.08877c0.00712,-0.02159 0.01424,-0.04318 -0.00849,-0.04935c0.01035,-0.63235 0.21678,-1.25845 0.30245,-1.89384c0.02573,-0.22826 -0.01674,-0.47504 0.0999,-0.67858c0.18782,-0.41942 0.1185,-0.88524 0.30633,-1.30466c0.00712,-0.02159 -0.00138,-0.07095 0.01286,-0.11412c0.06706,-0.42873 0.10427,-0.84206 0.21678,-1.25845c0.1566,-0.47496 0.11713,-0.9562 0.31919,-1.4188c-0.04384,-0.31775 0.09416,-0.58604 0.17108,-0.89448c0.01424,-0.04319 0.02135,-0.06477 0.03559,-0.10795c-0.03947,-0.48123 0.20093,-0.90988 0.25238,-1.36638c0.05145,-0.45651 0.24639,-0.89753 0.32056,-1.34785c0.09553,-0.51509 0.11576,-1.02714 0.35478,-1.52673c0.01424,-0.04319 0.03559,-0.10795 0.02709,-0.15731c-0.05808,-0.27457 0.09553,-0.51509 0.15822,-0.78034c0.0427,-0.12954 0.11526,-0.27447 0.11251,-0.41637c-0.02686,-0.21903 0.05282,-0.38556 0.11688,-0.57987c0.03559,-0.10795 0.09391,-0.20971 0.07693,-0.30842c-0.04384,-0.31775 0.10128,-0.60763 0.19382,-0.88829c0.03559,-0.10795 0.09391,-0.20971 0.07692,-0.30843c-0.03535,-0.26838 0.06568,-0.49969 0.14398,-0.73717c0.12812,-0.3886 0.09715,-0.82048 0.248,-1.20291c0.04408,-0.05859 -0.00275,-0.1419 -0.00413,-0.21285z" fill="#87d7dc"/><path d="M183.96623,146.58936c0.00138,0.07095 0.04821,0.15426 0.02685,0.21903c-0.15085,0.38242 -0.14261,0.80812 -0.248,1.20291c-0.0783,0.23747 -0.17933,0.46878 -0.14398,0.73717c0.01699,0.09872 -0.04134,0.20048 -0.07693,0.30843c-0.09254,0.28066 -0.21492,0.57672 -0.19381,0.88829c0.01699,0.09872 -0.06407,0.19431 -0.07693,0.30843c-0.06407,0.19431 -0.12101,0.36702 -0.11688,0.57987c0.00275,0.1419 -0.06981,0.28685 -0.11251,0.41637c-0.06269,0.26525 -0.2163,0.50577 -0.15822,0.78034c0.00849,0.04936 -0.01286,0.11412 -0.02709,0.15731c-0.23191,0.47801 -0.25925,1.01164 -0.35478,1.52673c-0.08129,0.47192 -0.27623,0.91293 -0.32056,1.34785c-0.05145,0.45651 -0.29185,0.88515 -0.25238,1.36638c0.01561,0.02777 -0.02135,0.06477 -0.03559,0.10795c-0.09254,0.28066 -0.21492,0.57672 -0.17108,0.89448c-0.22479,0.45642 -0.18532,0.93765 -0.31919,1.4188c-0.13524,0.41019 -0.14972,0.8297 -0.21678,1.25845c-0.01424,0.04319 0.00138,0.07095 -0.01286,0.11412c-0.18782,0.41942 -0.1185,0.88524 -0.30633,1.30466c-0.10103,0.2313 -0.05144,0.45651 -0.0999,0.67859c-0.1084,0.62922 -0.29209,1.26149 -0.30245,1.89384c-0.00712,0.02159 0.00849,0.04936 0.00849,0.04936c-0.09116,0.3516 -0.28036,0.70008 -0.23514,1.08877c-0.26288,0.04613 -0.46171,-0.10204 -0.71036,-0.09909c-0.18184,-0.04945 -0.36367,-0.09891 -0.48006,-0.2717c0.0427,-0.12954 0.11527,-0.27447 0.11251,-0.41637c-0.00962,-0.49664 0.16259,-0.94383 0.26661,-1.40957c0.10403,-0.46573 0.0944,-0.96238 0.31919,-1.4188c-0.04384,-0.31775 0.09416,-0.58604 0.17108,-0.89448c0.01424,-0.04319 0.03559,-0.10795 0.02709,-0.15731c-0.04959,-0.22521 0.06706,-0.42874 0.10839,-0.62922c0.03559,-0.10795 0.07118,-0.21589 0.07693,-0.30842c0.04295,-0.50587 0.11576,-1.02714 0.27947,-1.52369c0.02135,-0.06477 0.07256,-0.14494 0.04134,-0.20048c-0.04247,-0.2468 0.05145,-0.45651 0.12263,-0.6724c0.10103,-0.2313 0.01311,-0.49047 0.12125,-0.74335c0.13662,-0.33925 0.12975,-0.69398 0.19818,-1.05178c0.11115,-0.48732 0.12424,-0.97779 0.28797,-1.47433c0.02847,-0.08636 0.08679,-0.18812 0.06269,-0.26525c-0.03398,-0.19743 0.05282,-0.38556 0.09416,-0.58604c0.05695,-0.17271 0.09116,-0.3516 0.09553,-0.51509c0.00162,-0.30538 0.04869,-0.5984 0.14835,-0.90066c0.12675,-0.45956 0.11713,-0.9562 0.34192,-1.41262c0.01424,-0.04319 0.01286,-0.11412 0.02709,-0.15731c0.08129,-0.47192 0.13986,-0.95001 0.26661,-1.40957c0.1566,-0.47496 0.13137,-0.99936 0.33342,-1.46197c0.02135,-0.06477 -0.00275,-0.1419 -0.00413,-0.21285c0.04708,-0.29302 0.12401,-0.60144 0.28473,-0.86357c0.12076,0.00932 0.21168,0.03405 0.30972,0.03718c0.29686,0.15131 0.55538,0.26866 0.84374,0.37061z" fill="#b0eef2"/><path d="M196.12992,138.01727c-0.06706,0.42873 -0.1511,0.75875 -0.3488,1.05786c-0.23878,0.12326 -0.51016,0.12003 -0.78866,0.1384c-1.37113,0.02703 -2.73513,0.03248 -4.08766,-0.14715c-1.02007,-0.13627 -2.06288,-0.27872 -3.07008,-0.52911c-0.27275,-0.07418 -0.56112,-0.17613 -0.85522,-0.18554c-0.12076,-0.00932 -0.25714,-0.04641 -0.39352,-0.08349c-0.51704,-0.2347 -1.07677,-0.33989 -1.61516,-0.50983c-0.76568,-0.23176 -1.50289,-0.54987 -2.22586,-0.91117c-0.35792,-0.19144 -0.72297,-0.36129 -1.11075,-0.53733c-0.30397,-0.12972 -0.53402,-0.33343 -0.77119,-0.51556c-0.03098,-0.43188 -0.00388,-0.58918 0.21242,-1.09495c0.49293,0.15758 0.92753,0.41693 1.40623,0.61768c0.45597,0.19458 0.93465,0.39533 1.39774,0.56833c0.48581,0.17917 1.00147,0.34293 1.4944,0.50052c0.46309,0.17298 0.9916,0.22262 1.43333,0.46038c0.53564,0.02804 1.01433,0.22881 1.52149,0.34321c0.48444,0.10822 0.99872,0.20103 1.49028,0.28767c0.51428,0.09282 1.03568,0.16404 1.57981,0.24144c0.49867,0.06504 1.01295,0.15786 1.51874,0.20131c0.52852,0.04963 1.04854,0.04991 1.58419,0.07796c0.55836,0.03423 1.06415,0.07768 1.62827,0.01938z" fill="#d1eaeb"/><path d="M183.1381,146.24651c-0.09803,-0.00314 -0.18896,-0.02786 -0.30972,-0.03718c-0.16072,0.26211 -0.25326,0.54277 -0.28473,0.86357c0.00138,0.07095 0.02548,0.14807 0.00413,0.21285c-0.20206,0.4626 -0.19956,0.98084 -0.33342,1.46197c-0.14949,0.45337 -0.18532,0.93765 -0.26661,1.40957c-0.01424,0.04319 -0.01286,0.11412 -0.02709,0.15731c-0.22479,0.45642 -0.18532,0.93765 -0.34192,1.41262c-0.09254,0.28066 -0.14674,0.59527 -0.14835,0.90066c-0.01149,0.18507 -0.0457,0.36397 -0.09553,0.51509c-0.06407,0.19431 -0.14374,0.36083 -0.09416,0.58604c0.0241,0.07713 -0.03422,0.17889 -0.06269,0.26525c-0.1566,0.47496 -0.17683,0.98701 -0.28797,1.47433c-0.06843,0.35778 -0.06156,0.71254 -0.19818,1.05178c-0.10103,0.2313 -0.01311,0.49046 -0.12125,0.74335c-0.09391,0.20971 -0.19495,0.44102 -0.12263,0.6724c0.00138,0.07095 -0.01998,0.13572 -0.04134,0.20048c-0.16372,0.49656 -0.2294,0.99623 -0.27947,1.52369c-0.01286,0.11412 -0.07118,0.21589 -0.07692,0.30843c-0.06407,0.19431 -0.15797,0.40402 -0.10839,0.62922c0.00849,0.04936 -0.01286,0.11412 -0.02709,0.15731c-0.09254,0.28066 -0.21492,0.57672 -0.17108,0.89448c-0.22479,0.45642 -0.21517,0.95306 -0.31919,1.4188c-0.10403,0.46573 -0.28335,0.93451 -0.26661,1.40957c0.00275,0.1419 -0.06981,0.28685 -0.11251,0.41637c-0.21168,-0.03405 -0.30535,-0.20067 -0.45734,-0.26553c0.18532,-0.93765 0.33367,-1.8383 0.50476,-2.73278c0.17683,-0.98701 0.36927,-1.94624 0.56881,-2.92708c0.17821,-0.91606 0.33366,-1.8383 0.48914,-2.76054c0.20392,-1.14431 0.378,-2.27322 0.5748,-3.39595c0.15684,-0.85129 0.31369,-1.70259 0.44781,-2.56006c0.23814,-1.32321 0.57431,-2.64327 0.76699,-3.97885c0.03422,-0.17889 0.02298,-0.37016 0.15523,-0.54591c0.20457,0.05563 0.38777,0.17603 0.5781,0.27484c0.09941,0.07409 0.31821,0.08653 0.46446,0.24394z" fill="#87d7dc"/><path d="M179.76371,165.79552c0.49155,0.08663 0.93191,0.25344 1.43058,0.31849c0.57398,0.06199 1.15508,0.10241 1.77888,0.01329c-0.41285,1.25216 -0.8186,2.48275 -1.21722,3.69174c-0.32833,0.16948 -0.65228,0.17548 -0.96063,0.20925c-0.58684,0.05212 -1.12385,-0.04687 -1.68359,-0.15204c-0.02273,-0.00619 -0.06107,-0.04014 -0.07668,-0.06791c0.24727,-0.0739 0.23603,-0.26516 0.24752,-0.45023c0.02872,-0.46269 0.08016,-0.9192 0.24526,-1.3448c0.02847,-0.08636 0.05695,-0.17271 0.06269,-0.26525c-0.00113,-0.44728 0.16396,-0.87288 0.23103,-1.30162c0.03285,-0.24985 0.04433,-0.43492 -0.05783,-0.6509z" fill="#61afb4"/><path d="M183.74388,143.28243c0.75282,0.34589 1.55547,0.54065 2.32965,0.82177c0.35655,0.12049 0.73446,0.17621 1.11236,0.23194c0.69612,0.14227 1.38649,0.37707 2.11108,0.43298c0.28699,0.031 0.57398,0.06199 0.84536,0.06523c0.17334,0.00009 0.33956,0.02177 0.49867,0.06504c0.00138,0.07095 0.00987,0.12031 -0.00437,0.16349c-0.05695,0.17271 -0.11389,0.34543 -0.17084,0.51813c-0.135,0.03386 -0.24015,0.05231 -0.36804,0.06458c-0.90368,0.03654 -1.83008,0.06689 -2.71653,-0.17419c-0.77992,-0.18859 -1.58256,-0.38335 -2.33401,-0.65828c-0.59946,-0.21008 -1.20604,-0.39857 -1.72582,-0.77518c0.12788,-0.01228 0.24291,0.08958 0.37653,-0.01522c0.12376,-0.22512 0.28448,-0.48723 0.04595,-0.7403z" fill="#61aeb3"/><path d="M183.81247,144.87726c0.40064,0.06191 0.7216,0.29035 1.10088,0.41703c0.81114,0.24412 1.62228,0.48824 2.45477,0.6676c0.67339,0.13609 1.35252,0.17964 2.02316,0.17382c0.17334,0.00009 0.34668,0.00018 0.52003,0.00028c-0.09965,0.30225 -0.18507,0.56131 -0.27761,0.84197c-0.35817,0.18489 -0.73471,0.20011 -1.11973,0.16598c-0.46033,-0.03109 -0.94339,-0.06836 -1.4051,-0.1704c-1.05129,-0.19181 -2.03715,-0.50698 -3.05286,-0.80672c-0.18184,-0.04945 -0.36367,-0.09891 -0.48719,-0.25013c0.03559,-0.10795 0.09391,-0.20971 0.07692,-0.30843c-0.01974,-0.24062 0.08841,-0.49351 0.16671,-0.73098z" fill="#61aeb3"/><path d="M179.76371,165.79552c0.08655,0.18822 0.09779,0.37948 0.04934,0.60154c-0.06706,0.42873 -0.23216,0.85434 -0.23103,1.30161c-0.00574,0.09254 -0.03422,0.17889 -0.06269,0.26525c-0.14949,0.45337 -0.19381,0.88829 -0.24526,1.3448c-0.00436,0.16349 -0.00025,0.37633 -0.24752,0.45023c-0.34806,-0.07113 -0.65203,-0.20085 -0.91192,-0.38916c0.03147,-0.3208 0.0402,-0.64777 0.18532,-0.93765c0.01424,-0.04319 0.01286,-0.11412 0.02709,-0.15731c0.07417,-0.45032 0.15547,-0.92224 0.25238,-1.36638c0.04134,-0.20048 0.09828,-0.3732 0.11688,-0.57987c0.01012,-0.25603 0.0728,-0.52127 0.26475,-0.72784c0.12076,0.00932 0.21168,0.03405 0.30972,0.03718c0.15911,0.04327 0.33382,0.11431 0.49293,0.15758z" fill="#87d7dc"/><path d="M187.7943,132.95085c0.1731,0.37643 0.17285,0.75275 0.14987,1.12291c-0.00574,0.09254 -0.04846,0.22207 -0.09965,0.30225c-0.38826,0.57663 -0.68561,1.17799 -0.96023,1.78553c-0.00712,0.02159 -0.04408,0.05859 -0.07393,0.074c-0.11228,0.04004 -0.22592,0.00914 -0.31821,-0.08653c0.01424,-0.04319 0.00574,-0.09254 0.01998,-0.13572c0.19357,-0.51196 0.31894,-1.04246 0.32356,-1.58227c0.01723,-0.27762 0.09553,-0.51509 0.2946,-0.74327c0.22891,-0.24357 0.38964,-0.50568 0.66401,-0.7369z" fill="#cce5e6"/><path d="M185.35569,135.83992c-0.15773,0.02768 -0.24153,-0.01863 -0.28836,-0.10196c0.29621,-1.04864 0.29621,-1.04864 0.23151,-2.05429c0.16646,-0.35465 0.44658,-0.6784 0.67412,-0.99291c0.17334,0.00009 0.15336,0.13581 0.17746,0.21293c0.08081,0.28076 0.16873,0.5399 0.19695,0.82989c0.01125,0.19126 -0.01586,0.34857 -0.11826,0.50891c-0.31433,0.50264 -0.61305,1.03304 -0.87343,1.5974z" fill="#cce5e6"/><path d="M179.24805,165.63176c-0.09803,-0.00314 -0.18896,-0.02786 -0.30972,-0.03718c-0.19194,0.20657 -0.25463,0.47181 -0.26475,0.72784c-0.01861,0.20666 -0.07555,0.37938 -0.11688,0.57987c-0.0969,0.44414 -0.1782,0.91606 -0.25238,1.36638c-0.01424,0.04319 -0.01286,0.11412 -0.02709,0.15731c-0.1295,0.31766 -0.13113,0.62304 -0.18532,0.93765c-0.1676,-0.09263 -0.31247,-0.17908 -0.45159,-0.35806c0.13112,-0.62304 0.22391,-1.28002 0.38487,-1.91848c0.13112,-0.62304 0.17132,-1.2708 0.38487,-1.91848c0.35655,0.12049 0.60083,0.28103 0.838,0.46315z" fill="#60adb2"/><path d="M190.24242,139.49788c0.09803,0.00314 0.17334,0.00009 0.27138,0.00323c0.03122,0.05554 0.04683,0.08331 0.06244,0.11107c-0.03009,0.39173 0.01512,0.78043 0.08307,1.17531c0.01836,0.16967 -0.00162,0.30538 -0.11963,0.43797c-0.2133,0.27134 -0.38826,0.57663 -0.76916,0.75534c-0.18022,-0.35483 -0.22544,-0.74354 -0.24792,-1.12604c-0.00138,-0.07095 0.05695,-0.17271 0.10815,-0.25289c0.19632,-0.37006 0.39263,-0.74012 0.61168,-1.104z" fill="#cce5e6"/><path d="M192.36154,134.12239c0.01974,0.24062 0.04521,0.38869 0.06357,0.55837c0.02111,0.31157 -0.04158,0.57682 -0.27761,0.84197c-0.3754,0.46251 -0.68973,0.96514 -0.86769,1.50488c-0.05695,0.17271 -0.0868,0.18812 -0.35243,0.09235c0.02135,-0.06477 0.01997,-0.13571 0.04134,-0.20048c0.20069,-0.53355 0.30333,-1.07023 0.3378,-1.62546c0.01998,-0.13572 0.03285,-0.24985 0.11389,-0.34543c0.28861,-0.27439 0.53176,-0.56114 0.94114,-0.8262z" fill="#cae2e3"/><path d="M188.03064,136.59092c-0.01561,-0.02777 -0.0241,-0.07713 -0.01699,-0.09872c0.20918,-0.48418 0.27486,-0.98388 0.31069,-1.46816c0.05145,-0.45651 0.1867,-0.8667 0.54923,-1.21508c0.17771,-0.1634 0.27874,-0.3947 0.49479,-0.52414c0.21419,0.55228 0.13427,1.09514 -0.18144,1.52683c-0.37403,0.53345 -0.76367,1.03913 -0.94737,1.6714c-0.04408,0.05859 -0.07256,0.14494 -0.20893,0.10785z" fill="#c9e1e2"/><path d="M190.76336,133.71127c0.11341,0.40724 0.10467,0.73421 0.08881,1.08278c-0.01286,0.11412 -0.04846,0.22207 -0.12238,0.29606c-0.40388,0.54886 -0.76941,1.13168 -1.08948,1.72685c-0.01424,0.04319 -0.05833,0.10176 -0.16485,0.04926c0.04983,-0.15112 0.10677,-0.32383 0.13387,-0.48113c0.11963,-0.43797 0.21655,-0.8821 0.21541,-1.32938c0.00874,-0.32697 0.12401,-0.60144 0.36853,-0.81724c0.17771,-0.1634 0.3483,-0.3052 0.57009,-0.52719z" fill="#c9e1e2"/><path d="M191.74555,139.67143c0.17197,-0.07086 0.28561,-0.03995 0.39926,-0.00904c0.01561,0.02777 0.0241,0.07713 0.03972,0.1049c-0.06843,0.35778 -0.03883,0.71871 0.0732,1.055c0.0567,0.20362 0.02248,0.38252 -0.10976,0.55828c-0.16921,0.21275 -0.32282,0.45327 -0.53039,0.63207c-0.18596,-0.26229 -0.36755,-0.68808 -0.35607,-0.87315c-0.00987,-0.12031 0.06407,-0.19431 0.12238,-0.29606c0.09828,-0.3732 0.31733,-0.73708 0.36166,-1.172z" fill="#cae3e4"/><path d="M183.5023,138.98225c0.34118,-0.28361 0.61418,-0.58577 0.87157,-0.9157c0.15062,-0.00609 0.24153,0.01863 0.33382,0.11431c-0.01448,0.41951 -0.20943,0.86052 -0.20118,1.28621c-0.19194,0.20657 -0.41649,0.28666 -0.63255,0.4161c-0.11939,0.06163 -0.22317,0.15103 -0.3894,0.12935c-0.0893,-0.33011 0.04733,-0.66935 0.01772,-1.03027z" fill="#c8e0e1"/><path d="M187.47355,138.95658c0.19745,0.07722 0.19171,0.16976 0.18596,0.26229c-0.01586,0.34857 -0.02459,0.67554 -0.06317,1.01792c-0.00574,0.09254 -0.03421,0.1789 -0.10815,0.25289c-0.23741,0.19421 -0.49754,0.38224 -0.77328,0.5425c-0.07094,-0.16045 -0.05097,-0.29616 -0.07643,-0.44424c-0.07643,-0.44424 0.02185,-0.81743 0.43122,-1.0825c0.19332,-0.13562 0.30996,-0.33916 0.40388,-0.54886z" fill="#cbe4e5"/><path d="M186.0416,138.56716c0.11364,0.03091 0.18184,0.04945 0.25002,0.068c0.00849,0.04936 0.04683,0.08331 0.03972,0.1049c-0.03285,0.24985 -0.08841,0.49351 -0.12125,0.74335c-0.01998,0.13572 -0.0783,0.23748 -0.18207,0.32688c-0.31134,0.2682 -0.63829,0.50864 -1.03342,0.73053c-0.09504,-0.23757 -0.05371,-0.43806 -0.01238,-0.63854c0.02847,-0.08636 0.05695,-0.17271 0.12376,-0.22512c0.40937,-0.26506 0.68811,-0.65975 0.93563,-1.10999z" fill="#c8e0e1"/><path d="M183.81247,144.87726c-0.0783,0.23747 -0.18645,0.49037 -0.1511,0.75875c0.01699,0.09872 -0.04134,0.20048 -0.07692,0.30843c-0.39352,-0.08349 -0.73584,-0.24716 -1.02695,-0.49102c0.14511,-0.28988 0.15385,-0.61686 0.19382,-0.88829c0.1947,-0.06468 0.33245,0.04337 0.48306,0.03728c0.21168,0.03405 0.43186,0.11744 0.5781,0.27484z" fill="#85d5d9"/><path d="M187.64693,132.34618c-0.28012,0.32374 -0.52327,0.61049 -0.80338,0.93424c-0.13912,-0.17898 -0.15037,-0.37024 -0.22131,-0.53069c-0.06382,-0.18203 -0.18021,-0.35484 -0.18434,-0.56769c0.04983,-0.15112 0.18345,-0.25594 0.29435,-0.36692c0.1109,-0.11099 0.24453,-0.2158 0.40088,-0.31443c0.27551,0.21608 0.37192,0.5246 0.5138,0.84548z" fill="#cae3e3"/><path d="M183.88677,135.48748c0.05444,-0.69094 0.07329,-1.27393 -0.05135,-1.87244c0.18345,-0.25594 0.34418,-0.51805 0.53475,-0.79557c0.23854,0.25308 0.26676,0.54305 0.34757,0.8238c0.00849,0.04936 -0.01286,0.11412 -0.02709,0.15731c-0.24614,0.52118 -0.49229,1.04237 -0.80387,1.68691z" fill="#cae3e4"/><path d="M188.21504,141.44016c-0.11341,-0.40724 -0.18846,-0.78053 0.15846,-1.15667c0.23603,-0.26516 0.36554,-0.58281 0.49504,-0.90046c0.0427,-0.12954 0.16347,-0.12021 0.28561,-0.03995c-0.15935,0.33306 -0.15247,0.6878 -0.14561,1.04255c0.01262,0.2622 -0.0969,0.44414 -0.27462,0.60753c-0.14786,0.14799 -0.25739,0.32992 -0.5189,0.447z" fill="#c8e0e1"/><path d="M183.74388,143.28243c0.23141,0.27466 0.07781,0.51519 -0.03034,0.76808c-0.13363,0.10481 -0.25577,0.02454 -0.37654,0.01523c-0.28836,-0.10195 -0.53264,-0.26249 -0.76269,-0.4662c0.10103,-0.2313 0.08841,-0.49351 0.27325,-0.67849c0.12076,0.00932 0.18895,0.02786 0.27987,0.05258c0.21306,0.105 0.42611,0.20998 0.61644,0.3088z" fill="#85d4d9"/><path d="M186.12143,140.35323c0.0296,0.36092 0.02799,0.66631 0.04909,0.97787c-0.28287,0.18185 -0.58134,0.33593 -0.88832,0.44064c-0.14488,-0.08645 -0.14762,-0.22834 -0.18733,-0.33324c-0.03971,-0.10491 -0.07943,-0.2098 -0.00687,-0.35473c0.26726,-0.20961 0.61693,-0.44387 1.03343,-0.73053z" fill="#c7dfe0"/><path d="M189.34115,142.3816c-0.23029,0.17261 -0.43785,0.35142 -0.7292,0.48391c-0.20868,-0.26848 -0.23692,-0.55846 -0.30349,-0.88238c0.24453,-0.2158 0.48905,-0.4316 0.7407,-0.66899c0.12764,0.36406 0.19421,0.688 0.292,1.06746z" fill="#c8e0e1"/><path d="M188.96571,131.95203c0.12489,0.22217 0.24978,0.44433 0.28513,0.71272c-0.23603,0.26516 -0.49479,0.52414 -0.76067,0.8047c-0.04546,-0.01237 -0.09092,-0.02472 -0.0838,-0.04631c-0.07232,-0.23138 -0.13751,-0.48437 -0.18709,-0.70958c-0.01699,-0.09872 -0.01124,-0.19126 0.05557,-0.24366c0.22179,-0.22199 0.3754,-0.46251 0.69086,-0.51786z" fill="#c4dcdd"/><path d="M190.01317,142.44673c0.25876,-0.25898 0.48767,-0.50254 0.75355,-0.78311c0.17034,0.23452 0.2057,0.50291 0.35331,0.73126c-0.19057,0.27752 -0.48193,0.41 -0.74919,0.61963c-0.18458,-0.19135 -0.33083,-0.34875 -0.35768,-0.56777z" fill="#c6ddde"/><path d="M193.26867,139.70924c0.10629,0.42883 0.08469,0.86993 0.2734,1.27413c-0.1536,0.24052 -0.27737,0.46565 -0.51478,0.65985c-0.22293,-0.22531 -0.31797,-0.46288 -0.16574,-0.77435c0.19632,-0.37006 0.27899,-0.77103 0.40711,-1.15963z" fill="#b9cfd0"/><path d="M182.71357,134.83907c-0.11502,-0.10186 -0.01125,-0.19126 -0.0055,-0.2838c0.01861,-0.20666 0.05994,-0.40716 -0.03373,-0.57377c-0.10354,-0.28693 -0.00251,-0.51823 0.12837,-0.76494c0.05831,-0.10177 0.13937,-0.19735 0.23466,-0.33611c0.21718,0.31784 0.37329,0.59555 0.14713,0.98101c-0.16072,0.26211 -0.23765,0.57054 -0.35291,0.84502c-0.02135,0.06477 -0.0427,0.12954 -0.11802,0.13259z" fill="#c0d8d8"/><path d="M182.28591,139.21604c-0.04959,-0.22521 -0.03809,-0.41029 0.01885,-0.58299c0.02847,-0.08636 0.06407,-0.19431 0.13088,-0.24671c0.2971,-0.22502 0.53313,-0.49019 0.76916,-0.75534c0.15911,0.04327 0.1079,0.12345 0.08655,0.18822c-0.07119,0.21589 -0.14949,0.45337 -0.1752,0.68163c-0.04708,0.29302 -0.17934,0.46878 -0.45645,0.5581c-0.135,0.03386 -0.22454,0.08008 -0.37378,0.15713z" fill="#c1d9d9"/><path d="M187.72461,141.80081c-0.21467,0.20039 -0.45346,0.32365 -0.70647,0.49009c-0.20731,-0.19753 -0.1972,-0.45355 -0.26952,-0.68495c0.25164,-0.23739 0.56573,-0.36369 0.87133,-0.53936c0.08793,0.25916 0.08492,0.4936 0.10466,0.73421z" fill="#c3dbdc"/><path d="M189.9506,133.77254c-0.03672,-0.33933 -0.05783,-0.6509 -0.10168,-0.96865c0.15498,-0.16957 0.30284,-0.31755 0.55012,-0.39146c0.14762,0.22834 0.19008,0.47515 0.25528,0.72812c-0.18345,0.25594 -0.39813,0.45632 -0.70372,0.63199z" fill="#c3dadb"/><path d="M185.37426,142.24375c0.29136,-0.13249 0.55287,-0.24957 0.81438,-0.36664c0.17746,0.21293 0.21993,0.45974 0.2624,0.70654c-0.22317,0.15103 -0.45482,0.2527 -0.72484,0.32042c-0.05395,-0.06172 -0.12351,-0.15122 -0.15473,-0.20676c-0.07094,-0.16045 -0.10354,-0.28693 -0.1972,-0.45355z" fill="#c4dbdc"/><path d="M182.19345,137.16774c-0.13524,0.41019 -0.24202,0.73403 -0.35591,1.07946c-0.16348,0.12021 -0.33544,0.19108 -0.56136,0.20021c-0.10078,-0.14503 -0.0055,-0.2838 -0.00825,-0.42569c-0.00275,-0.1419 0.01724,-0.27762 0.05282,-0.38556c0.29848,-0.15408 0.53726,-0.27734 0.8727,-0.46841z" fill="#c2d9da"/><path d="M188.12726,143.13361c-0.18483,0.18499 -0.38802,0.20029 -0.5671,0.29274c-0.21443,-0.17593 -0.30947,-0.41351 -0.42013,-0.67886c0.21605,-0.12945 0.4321,-0.25888 0.62543,-0.39451c0.22293,0.22531 0.25115,0.51528 0.36181,0.78061z" fill="#c3dbdc"/><path d="M184.45158,140.91068c-0.28424,0.11089 -0.4918,0.2897 -0.77741,0.32965c-0.16185,-0.18517 -0.10629,-0.42883 -0.22268,-0.60164c0.2971,-0.22502 0.58134,-0.33593 0.87982,-0.49c0.16323,0.25612 0.08493,0.49359 0.12028,0.76199z" fill="#c7dee0"/><path d="M183.24148,144.58082c-0.15062,0.00609 -0.28836,-0.10195 -0.48306,-0.03728c-0.04708,0.29302 -0.07854,0.61382 -0.19382,0.88829c-0.0838,-0.04631 -0.19033,-0.09882 -0.26701,-0.16672c-0.11502,-0.10186 -0.17034,-0.23452 -0.12052,-0.38564c0.06269,-0.26525 0.11826,-0.50891 0.18095,-0.77417c0.29548,0.08036 0.42475,0.13903 0.88345,0.47552z" fill="#61acb1"/><path d="M182.24295,139.7219c0.23029,-0.17261 0.45483,-0.25271 0.71634,-0.36979c-0.00874,0.32697 -0.00324,0.61077 0.00226,0.89456c-0.15498,0.16957 -0.33544,0.19108 -0.55287,0.24957c-0.15473,-0.20676 -0.14463,-0.46278 -0.16573,-0.77435z" fill="#c1d9d9"/><path d="M189.90178,143.31038c-0.22317,0.15103 -0.46196,0.27429 -0.67801,0.40374c-0.19745,-0.07722 -0.30535,-0.20067 -0.3919,-0.38888c0.18345,-0.25594 0.48331,-0.33906 0.72071,-0.53327c0.17609,0.14198 0.23991,0.32402 0.34919,0.51841z" fill="#c0d7d7"/><path d="M183.15017,142.97982c-0.09092,-0.02472 -0.18895,-0.02786 -0.27987,-0.05258c-0.18483,0.18499 -0.17221,0.44718 -0.27325,0.67849c-0.16623,-0.02167 -0.21443,-0.17593 -0.36642,-0.24079c0.00162,-0.30538 0.15523,-0.54591 0.08866,-0.86984c0.23441,0.04023 0.34943,0.14208 0.48719,0.25013c0.09941,0.07409 0.27275,0.07418 0.34369,0.23462z" fill="#5aa0a4"/><path d="M194.11555,141.79804c-0.16921,0.21275 -0.27737,0.46565 -0.52326,0.6105c-0.14488,-0.08645 -0.20731,-0.19753 -0.30099,-0.36415c0.12376,-0.22512 0.29298,-0.43787 0.49342,-0.5951c0.14488,0.08645 0.21443,0.17593 0.33083,0.34875z" fill="#bdd3d4"/><path d="M186.07264,143.28058c0.20182,-0.08626 0.3809,-0.1787 0.55999,-0.27115c0.16897,0.16358 0.25552,0.35179 0.33495,0.56159c-0.12514,0.15417 -0.29848,0.15408 -0.45758,0.1108c-0.20457,-0.05563 -0.40913,-0.11128 -0.43736,-0.40125z" fill="#bdd4d5"/><path d="M184.12253,142.20916c-0.15336,-0.13581 -0.20157,-0.29007 -0.24978,-0.44433c0.04983,-0.15112 0.17771,-0.1634 0.2971,-0.22502c0.08954,-0.04623 0.18621,-0.11404 0.3297,-0.09854c0.15336,0.13581 0.08218,0.3517 0.22842,0.50909c-0.20044,0.15721 -0.39514,0.22189 -0.60545,0.2588z" fill="#c3dadb"/><path d="M188.58188,136.64674c0.17358,-0.37625 0.34717,-0.75248 0.61168,-1.104c0.12925,0.05867 0.11639,0.1728 0.08081,0.28076c-0.06981,0.28685 -0.16234,0.56749 -0.24776,0.82657c-0.06407,0.19431 -0.21467,0.20039 -0.44472,-0.00332z" fill="#b1c6c7"/><path d="M191.18312,143.70591c0.10241,-0.16035 0.26014,-0.18803 0.38664,-0.27125c0.23029,-0.17261 0.44197,-0.13857 0.67913,0.04355c-0.23603,0.26516 -0.57285,0.38528 -0.85709,0.49619c-0.15199,-0.06486 -0.20594,-0.12658 -0.20869,-0.26848z" fill="#bbd2d3"/><path d="M191.69881,137.25916c0.04433,-0.43492 0.32445,-0.75867 0.58895,-1.11018c0.03672,0.33933 -0.07006,0.66317 -0.14698,0.9716c-0.04134,0.20048 -0.12376,0.22512 -0.44197,0.13857z" fill="#bad1d2"/><path d="M192.41772,141.68917c0.12214,0.08026 0.17746,0.21294 0.22567,0.3672c-0.16072,0.26211 -0.39813,0.45632 -0.66676,0.59499c-0.16623,-0.02167 -0.19033,-0.09881 -0.20019,-0.21912c0.20618,-0.24975 0.41237,-0.49951 0.64128,-0.74307z" fill="#bdd4d4"/><path d="M189.6802,132.26396c-0.10216,-0.21598 -0.18871,-0.4042 -0.3136,-0.62636c0.06544,-0.12335 0.17633,-0.23434 0.40225,-0.24348c0.12351,0.15122 0.23991,0.32402 0.37904,0.50301c-0.14786,0.14799 -0.26588,0.28057 -0.4677,0.36683z" fill="#c1d9d9"/><path d="M192.80039,143.15769c-0.21168,-0.03405 -0.34806,-0.07113 -0.47158,-0.22235c0.20044,-0.15721 0.37815,-0.3206 0.54874,-0.46241c0.22592,-0.00914 0.27413,0.14512 0.40338,0.20379c-0.01424,0.04319 -0.00574,0.09254 -0.03559,0.10795c-0.17059,0.1418 -0.30422,0.24661 -0.44497,0.37301z" fill="#c2dada"/><path d="M182.47089,140.98366c0.1947,-0.06468 0.33682,-0.12013 0.50167,-0.16939c0.10928,0.1944 0.14325,0.39183 0.19995,0.59546c-0.13363,0.10481 -0.27575,0.16026 -0.43485,0.11699c-0.03834,-0.03395 -0.07668,-0.06791 -0.08517,-0.11726c-0.06244,-0.11107 -0.11777,-0.24376 -0.18159,-0.42578z" fill="#bbd2d3"/><path d="M184.40927,142.6165c0.13363,-0.10481 0.29848,-0.15408 0.4647,-0.1324c0.10928,0.1944 0.20294,0.36102 0.28949,0.54923c-0.45758,0.1108 -0.48031,0.10462 -0.75419,-0.41684z" fill="#b5cbcc"/><path d="M181.44167,139.59808c-0.17746,-0.21293 -0.11477,-0.47818 -0.17147,-0.68181c0.14075,-0.1264 0.30696,-0.10472 0.47181,-0.15399c0.08081,0.28076 0.05508,0.509 -0.09141,0.72794c-0.02135,0.06477 -0.12651,0.08321 -0.20893,0.10785z" fill="#b6cccd"/><path d="M190.68796,136.04327c-0.02435,0.2992 -0.07142,0.59223 -0.20943,0.86052c-0.05831,0.10177 -0.15498,0.16957 -0.26862,0.13867c-0.04546,-0.01237 -0.12214,-0.08026 -0.11502,-0.10186c0.08404,-0.33002 0.34993,-0.61058 0.59308,-0.89733z" fill="#a7bbbb"/><path d="M187.75025,143.9015c0.18483,-0.18499 0.37952,-0.24966 0.59695,-0.30815c0.16049,0.11422 0.26839,0.23767 0.29523,0.45669c-0.31547,0.05535 -0.58109,-0.04041 -0.89219,-0.14854z" fill="#b7cece"/><path d="M180.80947,137.30891c-0.07369,-0.30233 0.10977,-0.55827 0.0673,-0.80508c0.13363,-0.10481 0.21743,-0.05849 0.24153,0.01863c0.0567,0.20362 0.08355,0.42264 0.01238,0.63854c-0.04408,0.05859 -0.0512,0.08017 -0.32121,0.14789z" fill="#b4cacb"/><path d="M183.31713,141.8725c0.12351,0.15122 0.20868,0.26848 0.21144,0.41038c-0.0512,0.08017 -0.12651,0.08321 -0.20181,0.08626c-0.30122,0.01217 -0.36504,-0.16985 -0.40751,-0.41665c0.12788,-0.01228 0.26288,-0.04613 0.39789,-0.07999z" fill="#b5cbcb"/><path d="M184.79805,134.67669c0.07369,0.30233 -0.04157,0.57682 -0.12699,0.83588c-0.01424,0.04319 -0.07393,0.074 -0.12651,0.08321c-0.04546,-0.01237 -0.09941,-0.07409 -0.09229,-0.09567c0.03147,-0.3208 0.16946,-0.58909 0.3458,-0.82343z" fill="#99abac"/><path d="M183.46502,135.11401c-0.18758,0.04309 -0.30122,0.01217 -0.31109,-0.10813c0.00436,-0.16349 0.12101,-0.36702 0.30446,-0.62296c0.08793,0.25916 0.00962,0.49664 0.00663,0.73108z" fill="#93a5a6"/><path d="M190.04041,144.24203c0.26014,-0.18803 0.50466,-0.40383 0.85684,-0.11985c-0.26726,0.20961 -0.56274,0.12927 -0.85684,0.11985z" fill="#9aadad"/><path d="M191.01772,140.22629c-0.01125,-0.19126 -0.01536,-0.40411 -0.03373,-0.57377c0.10378,-0.0894 0.17909,-0.09245 0.30834,-0.03377c0.04959,0.22521 -0.11251,0.41637 -0.15385,0.61687c-0.04546,-0.01237 -0.06819,-0.01854 -0.12076,-0.00932z" fill="#c5dddd"/><path d="M187.65621,135.54809c0.11203,0.33629 0.01949,0.61695 -0.16396,0.87288c-0.00712,0.02159 -0.05969,0.03082 -0.10515,0.01845c-0.0753,0.00305 -0.09941,-0.07409 -0.08517,-0.11726c0.05557,-0.24366 0.20918,-0.48418 0.35429,-0.77408z" fill="#aec2c3"/><path d="M181.74266,139.96224c0.10216,0.21598 0.09917,0.45042 0.10329,0.66326c-0.10378,0.0894 -0.18758,0.04309 -0.20457,-0.05563c-0.04109,-0.17585 -0.0893,-0.33011 -0.10054,-0.52137c-0.03122,-0.05554 0.05832,-0.10177 0.20181,-0.08626z" fill="#9caeaf"/><path d="M185.22334,138.34462c0.17334,0.00009 0.25714,0.04641 0.3267,0.1359c-0.04846,0.22207 -0.18071,0.39783 -0.47918,0.55191c0.03996,-0.27143 0.10403,-0.46573 0.15248,-0.68781z" fill="#b9cfd0"/><path d="M192.53833,139.74588c0.10378,-0.0894 0.20182,-0.08626 0.29985,-0.08313c0.09941,0.07409 0.06382,0.18203 -0.17521,0.68163c-0.23005,-0.20371 -0.08355,-0.42264 -0.12464,-0.59849z" fill="#869797"/><path d="M186.27821,135.22038c-0.18209,0.32687 -0.07718,0.68477 -0.4808,0.85729c0.01586,-0.34857 0.12401,-0.60144 0.4808,-0.85729z" fill="#93a4a5"/><path d="M190.67757,143.28612c0.19332,-0.13562 0.37103,-0.29901 0.58708,-0.42846c0.08954,-0.04623 0.18046,-0.02149 0.20594,0.12658c-0.23029,0.17261 -0.45346,0.32365 -0.79302,0.30188z" fill="#9fb2b2"/><path d="M188.21052,139.65104c-0.14624,-0.1574 -0.09642,-0.30852 -0.06932,-0.46583c0.02135,-0.06477 0.10378,-0.0894 0.17197,-0.07086c0.04546,0.01237 0.09941,0.07409 0.08517,0.11726c0.02548,0.14807 -0.06269,0.26525 -0.18782,0.41942z" fill="#91a2a3"/><path d="M182.19929,134.74626c-0.14762,-0.22834 -0.03672,-0.33933 0.03583,-0.48428c0.16897,0.16358 0.16897,0.16358 -0.03583,0.48428z" fill="#555f5f"/><path d="M189.7892,139.44521c-0.03559,0.10795 -0.08542,0.25907 -0.20344,0.39165c-0.1405,-0.24993 -0.11203,-0.33629 0.02872,-0.46269c0.03696,-0.037 0.10515,-0.01845 0.17472,0.07105z" fill="#93a5a6"/><path d="M186.7446,139.06417c-0.03971,-0.10491 -0.01124,-0.19126 0.03996,-0.27143c0.03696,-0.037 0.09666,-0.06781 0.135,-0.03386c0.03834,0.03395 0.06956,0.08949 0.05533,0.13267c-0.02847,0.08636 -0.07968,0.16654 -0.23029,0.17261z" fill="#636e6f"/></g></g><g data-paper-data="{&quot;index&quot;:null}" stroke-linecap="butt"><path d="M243.30611,159.82041c-0.03768,-1.99758 0.22618,-3.34559 0.75162,-4.24509c0.33927,-0.5808 1.33422,-1.23557 1.33422,-1.23557l21.91787,0.02161c0,0 0.63269,0.68791 0.93975,1.19464c0.51931,0.85699 0.82015,2.05099 0.85118,3.69594c0.15312,8.11701 -5.49708,14.82438 -12.62008,14.98137c-7.123,0.15698 -13.02144,-6.29589 -13.17456,-14.41288z" fill="#3c2222" stroke="none" stroke-width="0"/><path d="M246.33366,166.87078l21.28571,-1.47429c0,0 -4.09003,8.24206 -9.85714,8.71171c-8.20166,0.66791 -11.42857,-7.23742 -11.42857,-7.23742z" fill-opacity="0.08443" fill="#ffffff" stroke="none" stroke-width="0"/><path d="M261.04796,173.17001c0,0 -8.39008,2.77729 -14.28572,-4.82495c-3.39736,-4.38078 -2.57143,-13.67069 -2.57143,-13.67069l10.71428,-0.26805l6.14286,18.7637z" fill-opacity="0.08443" fill="#ffffff" stroke="none" stroke-width="0"/><path d="M243.449,159.68637c-0.03768,-1.99759 0.22618,-3.3456 0.75162,-4.24509c0.33927,-0.5808 1.33422,-1.23557 1.33422,-1.23557l21.91788,0.02161c0,0 0.63268,0.68791 0.93974,1.19463c0.51931,0.85699 0.82015,2.051 0.85118,3.69594c0.15312,8.117 -5.49708,14.82438 -12.62008,14.98137c-7.12299,0.15699 -13.02144,-6.29589 -13.17455,-14.41288z" fill="none" stroke="#00021d" stroke-width="3.5"/><path d="M255.78426,173.97421c-7.2828,0.11989 -11.47933,-7.17833 -12.10271,-12.81841c-0.44122,-3.99199 1.87335,-6.89442 1.87335,-6.89442h21.84107c0,0 1.98415,2.69677 1.85649,6.20932c-0.20725,5.70252 -3.71943,13.34301 -13.46821,13.50351z" fill="#71521d" stroke="none" stroke-width="0"/></g><g data-paper-data="{&quot;index&quot;:null}"><path d="M279.69512,116.84208c-0.77109,-1.65015 0.0169,-3.59505 1.76002,-4.34409c1.74312,-0.74903 3.78128,-0.01856 4.55237,1.63158c0.77109,1.65015 -0.0169,3.59505 -1.76002,4.34409c-1.74312,0.74903 -3.78128,0.01856 -4.55237,-1.63158z" fill="#00021d" stroke="#00021d" stroke-width="12" stroke-linecap="butt"/><g><path d="M294.21279,112.98274l4.16849,7.20184l-1.97512,2.94069l5.48879,33.16946c0,0 0.32393,4.36761 -2.60453,5.6491c-2.19527,0.96065 -4.49208,-2.34375 -4.49208,-2.34375l-15.74787,-29.37606l-2.78985,-0.68733l-3.49296,-8.05373l8.97109,-8.14535z" fill="#5c2a2a" stroke="none" stroke-width="0" stroke-linecap="butt"/><path d="M294.21968,113.30908l3.77321,7.60435l-25.22233,0.58756l9.21499,-7.78346z" fill-opacity="0.08443" fill="#ffffff" stroke="none" stroke-width="0" stroke-linecap="butt"/><path d="M294.40094,113.20204l4.15301,6.26151l-1.943,4.22378l4.65792,32.3655c0,0 1.26903,4.26283 -2.04724,5.39263c-3.69583,1.25909 -4.47302,-2.35885 -4.47302,-2.35885l-13.33161,-45.60225z" fill-opacity="0.08443" fill="#ffffff" stroke="none" stroke-width="0" stroke-linecap="butt"/><path d="M294.3164,112.80438l4.30979,7.50419l-2.15774,2.54987l5.61425,32.766c0,0 0.57831,4.6084 -2.77502,6.00662c-3.35078,1.39716 -5.36759,-2.2518 -5.36759,-2.2518l-14.82604,-29.41922l-3.11301,-0.51077l-3.12715,-8.13898l8.98709,-8.11108z" fill="none" stroke="#00021d" stroke-width="3.5" stroke-linecap="butt"/><path d="M278.61871,130.36588l7.83598,-6.09283l10.72312,-1.38251" fill="none" stroke="#00021d" stroke-width="1.5" stroke-linecap="round"/><path d="M294.34145,112.83951l3.88311,7.09506l-1.67309,3.39023l5.63014,32.09418c0,0 0.16883,4.9385 -2.58819,6.1292c-3.30316,1.42659 -5.81952,-2.4308 -5.81952,-2.4308l-14.3231,-28.99948l-3.55077,-1.10572l-3.1807,-8.05861l8.63817,-7.83173z" fill="#71521d" stroke="none" stroke-width="0" stroke-linecap="butt"/></g><path d="M277.68149,131.22326l7.81448,-6.95956l10.75032,-1.30714" fill="none" stroke="#00021d" stroke-width="1.5" stroke-linecap="round"/><g stroke-linecap="butt"><g><path d="M266.0084,168.40417c0,0 -4.08412,1.02286 -4.91943,-1.41169c-0.62617,-1.82505 2.70047,-4.48359 2.70047,-4.48359l31.45852,-10.37407c0,0 2.36439,8.53966 2.50582,9.65374z" fill="#71521d" stroke="none" stroke-width="0"/><path d="" fill-opacity="0.08443" fill="#ffffff" stroke="none" stroke-width="0"/><path d="M266.20809,167.49933c0,0 -4.14384,1.73058 -4.77654,-1.03361c0.07412,0.05818 0.51536,-0.89742 0.51536,-0.89742l34.98595,-7.54018c0,0 0.6851,2.70323 0.83174,3.8449z" fill="#71521d" stroke="none" stroke-width="0"/><path d="M297.85414,161.84376l-31.22365,6.38827c0,0 -4.44803,0.96265 -5.33706,-1.82667c-0.88837,-2.78721 2.99238,-3.84217 2.99238,-3.84217l31.50668,-10.46992" fill="none" stroke="#00021d" stroke-width="3.5"/></g><path d="M297.75673,160.97733l-31.38017,6.35018c0,0 -3.45397,1.06866 -4.34302,-1.72066c-0.38469,-1.27823 2.61837,-2.23418 2.61837,-2.23418l31.40727,-10.4805" fill="none" stroke="#71521d" stroke-width="1.75"/></g></g><path d="M244.32202,149.80578v-2.90837h6.9v2.90837z" data-paper-data="{&quot;index&quot;:null}" fill="#b1a785" stroke="#00021d" stroke-width="1.5" stroke-linecap="butt"/><g data-paper-data="{&quot;index&quot;:null}" stroke-linecap="butt"><path d="M244.4564,145.1661c-13.86526,-3.36146 -22.76076,-16.71981 -19.86864,-29.83671c2.89212,-13.1169 16.47666,-21.02525 30.34193,-17.66379c13.86526,3.36146 22.76076,16.71981 19.86864,29.83671c-2.89212,13.1169 -16.47666,21.02525 -30.34193,17.66379z" fill="#fff1bf" stroke="none" stroke-width="0"/><path d="M272.96217,133.6612c0,0 -4.18006,-9.54675 -14.14507,-12.02283c-8.10284,-2.01337 -18.32507,3.28853 -24.73453,3.49595c-8.54167,0.27643 -9.86432,-2.1854 -9.86432,-2.1854l0.45663,-1.40879c0,0 -1.34504,-2.28782 0.30718,-7.41065c2.72516,-8.44956 13.61538,-20.05487 28.06905,-16.65227c31.06273,7.31263 19.91107,36.18397 19.91107,36.18397z" fill-opacity="0.28957" fill="#000000" stroke="none" stroke-width="0"/><path d="M244.47664,145.0743c-13.86526,-3.36146 -22.76076,-16.71981 -19.86864,-29.83671c2.89212,-13.1169 16.47666,-21.02525 30.34193,-17.66379c13.86526,3.36146 22.76076,16.71981 19.86864,29.83671c-2.89212,13.1169 -16.47666,21.02525 -30.34193,17.66379z" fill="none" stroke="#00021d" stroke-width="3.5"/></g><path d="M277.43735,131.19526c0,0 -1.40481,4.40877 -2.27499,3.12949c-0.8416,-1.23727 -1.33127,2.04869 -2.12727,-0.12513c-1.65793,-4.52767 -6.0602,-28.22391 -9.84028,-16.51973c1.66857,3.69874 -39.64369,-3.23459 -38.72239,9.0185c-25.01935,3.7728 -13.14965,-44.94753 -13.14965,-44.94753c0,0 5.70416,17.89865 34.50888,15.25696c-0.64013,-9.3801 19.59842,-5.15883 26.0389,5.61868c11.86429,-15.73745 5.5668,28.56877 5.5668,28.56877z" data-paper-data="{&quot;index&quot;:null}" fill="#fdfd96" stroke="#00021d" stroke-width="3.5" stroke-linecap="butt"/><g data-paper-data="{&quot;index&quot;:null}" fill="none" stroke="#161830" stroke-width="3.5" stroke-linecap="round"><path d="M250.41322,122.68633l-2.6888,12.19475"/><path d="M233.77691,131.91404l2.6888,-12.19475"/></g><path d="M237.13637,226.77013l-0.04233,49.31318l-3.27155,0.16538" data-paper-data="{&quot;index&quot;:null}" fill="none" stroke="#00021d" stroke-width="12" stroke-linecap="round"/><path d="M258.07759,226.23809l2.24986,52.74317l-4.02673,0.90857" data-paper-data="{&quot;index&quot;:null}" fill="none" stroke="#00021d" stroke-width="12" stroke-linecap="round"/><path d="M240.9304,153.15973l-1.98059,-1.54033l1.19027,-1.09176l-1.15023,-1.01455l1.94056,-0.53423h13.24523l2.07611,0.52416l-0.69556,1.02577l0.97141,1.0906l-2.35196,1.54033z" data-paper-data="{&quot;index&quot;:null}" fill="#71521d" stroke="none" stroke-width="0" stroke-linecap="butt"/><g data-paper-data="{&quot;index&quot;:null}"><path d="M256.16453,219.30343l-8.72956,2.64195l-10.49814,-2.92563" fill="none" stroke="#00021d" stroke-width="12" stroke-linecap="round"/><path d="M247.51878,224.44549l-20.03008,-5.80733v-10.16282l3.44603,-5.32338l2.1872,-49.68983l29.1552,-0.15637l1.06503,49.35996l1.75737,6.06366l-0.05175,8.9409z" fill="#5c2a2a" stroke="none" stroke-width="0" stroke-linecap="butt"/><path d="M247.4973,170.32078l0.48452,-2.04555l-0.96903,-6.36394l1.69581,-6.36394" fill="none" stroke="#c2c2c2" stroke-width="3.5" stroke-linecap="round"/><path d="M236.44088,155.91989l1.69581,6.36393l-0.96903,6.36393l0.48452,2.04555" data-paper-data="{&quot;index&quot;:null}" fill="none" stroke="#c2c2c2" stroke-width="3.5" stroke-linecap="round"/><path d="M227.73099,218.00953l-0.221,-8.25926l3.01719,-6.5382l2.61091,-48.61464l24.39072,-0.68184l-20.10747,67.2759z" fill-opacity="0.08443" fill="#ffffff" stroke="none" stroke-width="0" stroke-linecap="butt"/><path d="M247.59619,224.14619l-19.86522,-6.36393l-0.05076,-9.32786l3.10417,-5.45458l-0.14631,-12.49159l34.92273,18.7305l-0.29821,8.54352z" fill-opacity="0.08443" fill="#ffffff" stroke="none" stroke-width="0" stroke-linecap="butt"/><path d="M247.8119,224.36345l-20.03009,-5.75166v-10.06541l3.44604,-5.27235l2.1872,-49.36844h28.82187l1.39836,48.88685l1.47165,5.87153l-0.19461,8.98923z" fill="none" stroke="#00021d" stroke-width="3.5" stroke-linecap="butt"/><g stroke-linecap="butt"><path d="M241.02362,217.97243l-13.15254,-4.2851l0.1984,-5.47349l3.75332,-6.64654l16.73672,0.11543l4.53286,7.50287v4.50173z" fill="#694646" stroke="none" stroke-width="0"/><path d="M240.20457,217.76874l-12.006,-4.16972l-0.2,-6.26154l25.22131,7.0121z" fill-opacity="0.14806" fill="#ffffff" stroke="none" stroke-width="0"/><path d="M240.53992,217.94346l-12.785,-4.19866l0.69736,-3.63576h24.17527l0.34868,4.04001z" fill-opacity="0.08443" fill="#ffffff" stroke="none" stroke-width="0"/><path d="M232.39225,215.25153l-3.33363,-0.73042l-1.0537,-5.65594l4.09766,-6.54046l5.77301,-0.20848z" fill-opacity="0.08443" fill="#ffffff" stroke="none" stroke-width="0"/><path d="M240.89803,217.48326l-12.75254,-3.72219l0.1984,-5.47348l3.75332,-6.64654l16.73673,0.11543l4.53287,7.50287v4.50173z" fill="none" stroke="#00021d" stroke-width="3.5"/></g><path d="M247.67895,224.62863l-19.93561,-5.60195l-0.32395,-9.7818l3.69094,-5.79339l2.37553,-49.94363l29.02113,0.03356l1.1553,49.20744l1.51762,5.64517l-0.16473,9.02049z" fill="#71521d" stroke="none" stroke-width="0" stroke-linecap="butt"/></g><path d="M253.62094,213.55675l-11.75,3.75274l-12.75,-3.28365l-1,-4.92547l4,-7.03639h16.5l4.25,6.33275z" data-paper-data="{&quot;index&quot;:null}" fill="none" stroke="#000000" stroke-width="3" stroke-linecap="round"/><path d="M249.17433,154.52107c1.6602,0.51919 1.1068,2.07677 1.1068,2.07677l-0.7041,1.7988c-1.35819,1.69053 -0.36355,3.29471 -0.2105,5.30564c0.17308,2.27404 0.07367,4.66632 -0.26318,6.91587c0,0 -0.24748,1.62531 -1.97989,1.39313c-1.73241,-0.23218 -1.48493,-1.8575 -1.48493,-1.8575c0.68797,-4.43324 -1.49902,-9.76158 1.02632,-13.57857l0.2959,-1.01574c0,0 0.5534,-1.55757 2.21359,-1.03838z" data-paper-data="{&quot;index&quot;:null}" fill="#cccccc" stroke="none" stroke-width="0.5" stroke-linecap="butt"/><path d="M234.71076,155.55946c0.5534,-1.55757 2.21359,-1.03838 2.21359,-1.03838l1.92901,1.55993c0.25249,1.68792 1.28609,3.33627 1.50248,4.94239c0.27917,2.07209 -1.12725,3.51565 -1.5,5.35602c-0.23286,1.1497 1.0549,3.27791 1.24752,4.478c0,0 0.24748,1.62532 -1.48493,1.8575c-1.7324,0.23219 -1.97989,-1.39313 -1.97989,-1.39313c-0.25926,-1.83087 -1.49151,-3.46607 -1.25248,-5.37294c0.16712,-1.33325 1.76779,-3.03082 1.5,-4.49492c-0.23657,-1.29337 -0.88482,-2.56275 -1.26981,-3.89933c-0.42419,-0.19845 -1.33665,-0.78167 -0.9055,-1.99515z" data-paper-data="{&quot;index&quot;:null}" fill="#cccccc" stroke="none" stroke-width="0.5" stroke-linecap="butt"/><path d="M243.89145,199.65886c-7.20447,0 -13.04485,-5.47936 -13.04485,-12.23848c0,-6.75912 5.84038,-12.23848 13.04485,-12.23848c7.20447,0 13.04486,5.47936 13.04486,12.23848c0,6.75912 -5.84039,12.23848 -13.04486,12.23848z" data-paper-data="{&quot;index&quot;:null}" fill="#000000" stroke="#000000" stroke-width="1.5" stroke-linecap="butt"/><path d="M256.46383,187.42039c0,6.51431 -5.62885,11.79523 -12.57239,11.79523c-6.94354,0 -12.57239,-5.28091 -12.57239,-11.79524c0,-6.51432 5.62886,-11.79524 12.5724,-11.79524c6.94355,0 12.5724,5.28091 12.5724,11.79524z" data-paper-data="{&quot;index&quot;:null}" fill="url(#color-1)" stroke="#6d4500" stroke-width="1.5" stroke-linecap="butt"/><path d="M247.18463,177.98811c0,-0.54263 0.18931,-1.13231 0.50935,-1.53699c0.1346,-0.1702 1.4001,0.30616 2.51555,0.91948c1.08378,0.59591 2.02065,1.37036 1.99767,1.4278c-0.3688,0.92225 -1.31722,1.6229 -2.42905,1.6229c-1.43235,0 -2.59352,-1.08937 -2.59352,-2.4332z" data-paper-data="{&quot;index&quot;:null}" fill="#000000" stroke="#6d4500" stroke-width="1.5" stroke-linecap="butt"/><path d="M242.64226,178.42442c1.51662,0 2.74609,1.07337 2.74609,2.39743c0,1.32406 -1.22946,2.39743 -2.74609,2.39743c-1.51662,0 -2.74608,-1.07337 -2.74608,-2.39743c0,-1.32406 1.22945,-2.39743 2.74608,-2.39743z" data-paper-data="{&quot;index&quot;:null}" fill="#000000" stroke="#6d4500" stroke-width="1.5" stroke-linecap="butt"/><path d="M249.39306,181.93108c1.53768,0 2.78422,1.12142 2.78422,2.50478c0,1.38334 -1.24653,2.50477 -2.78422,2.50477c-1.53769,0 -2.78423,-1.12141 -2.78423,-2.50477c0,-1.38335 1.24654,-2.50478 2.78423,-2.50478z" data-paper-data="{&quot;index&quot;:null}" fill="#000000" stroke="#6d4500" stroke-width="1.5" stroke-linecap="butt"/><path d="M268.92654,81.44359c1.09414,-1.37966 3.09955,-1.6111 4.4792,-0.51697c1.37966,1.09414 1.6111,3.09955 0.51697,4.4792c-1.09414,1.37966 -3.09955,1.6111 -4.4792,0.51697c-1.37966,-1.09414 -1.6111,-3.09955 -0.51697,-4.4792z" fill-opacity="0.38344" fill="#ff0000" stroke="none" stroke-width="0.5" stroke-linecap="butt"/><path d="M298.26013,34.51756c2.82396,1.60866 1.2153,4.43261 1.2153,4.43261c-6.43463,11.29582 -14.14458,24.83045 -20.57921,36.12627c0,0 -1.60866,2.82396 -4.43261,1.2153c-2.82396,-1.60866 -1.2153,-4.43261 -1.2153,-4.43261c6.43463,-11.29582 12.86925,-22.59164 19.30388,-33.88746l1.27533,-2.23881c0,0 1.60866,-2.82396 4.43261,-1.2153z" fill-opacity="0.37727" fill="#ff0000" stroke="none" stroke-width="0.5" stroke-linecap="butt"/><path d="M240.4908,139.19224c0,-1.59083 4.68803,-0.91877 7.33942,-0.91877c0.30807,0 2.71818,0.29648 4.1971,1.18646c1.57006,0.94483 2.20789,2.49993 2.33958,2.99298c0.28124,1.05297 -13.8761,-1.66983 -13.8761,-3.26067z" fill="#ffffff" stroke="#161830" stroke-width="1" stroke-linecap="butt"/><g data-paper-data="{&quot;index&quot;:null}" fill="#ffffff" stroke="#ffffff" stroke-width="2" stroke-linecap="round"><path d="M250.41322,122.68633l-2.6888,12.19475"/><path d="M233.77691,131.91404l2.6888,-12.19475"/></g></g></g></svg>