<svg version="1.1" xmlns="http://www.w3.org/2000/svg" xmlns:xlink="http://www.w3.org/1999/xlink" width="120.7378" height="234.25363" viewBox="0,0,120.7378,234.25363"><defs><radialGradient cx="239.85291" cy="182.51335" r="21.52948" gradientUnits="userSpaceOnUse" id="color-1"><stop offset="0" stop-color="#b97500"/><stop offset="1" stop-color="#6d4401"/></radialGradient></defs><g transform="translate(-176.41517,-51.6362)"><g data-paper-data="{&quot;isPaintingLayer&quot;:true}" fill-rule="nonzero" stroke-linejoin="miter" stroke-miterlimit="10" stroke-dasharray="" stroke-dashoffset="0" style="mix-blend-mode: normal"><path d="M191.41581,151.1167c-1.82064,0.5246 -3.75662,-0.45547 -4.32414,-2.18907c-0.56751,-1.7336 0.44834,-3.56422 2.26898,-4.08883c1.82064,-0.5246 3.75662,0.45547 4.32414,2.18907c0.56751,1.7336 -0.44834,3.56422 -2.26898,4.08883z" data-paper-data="{&quot;index&quot;:null}" fill="#00021d" stroke="#00021d" stroke-width="12" stroke-linecap="butt"/><path d="M244.32201,149.80577v-2.90837h6.9v2.90837z" data-paper-data="{&quot;index&quot;:null}" fill="#b1a785" stroke="#00021d" stroke-width="1.5" stroke-linecap="butt"/><g data-paper-data="{&quot;index&quot;:null}" stroke-linecap="butt"><path d="M249.06147,146.09048c-14.09345,2.21802 -27.43498,-6.70268 -29.79914,-19.92494c-2.36416,-13.22226 7.14431,-25.73908 21.23776,-27.9571c14.09345,-2.21802 27.43498,6.70268 29.79914,19.92494c2.36416,13.22226 -7.14431,25.73908 -21.23776,27.9571z" fill="#fff1bf" stroke="none" stroke-width="0"/><path d="M270.96772,124.52529c0,0 -7.52426,-7.21102 -17.67637,-5.6725c-8.25498,1.25102 -15.65913,10.07046 -21.49802,12.72218c-7.78128,3.53386 -9.94756,1.76829 -9.94756,1.76829l-0.11909,-1.47615c0,0 -2.12016,-1.5963 -2.56083,-6.96091c-0.72683,-8.84835 4.87466,-23.74477 19.52724,-26.15065c31.49021,-5.17052 32.27463,25.76972 32.27463,25.76972z" fill-opacity="0.28957" fill="#000000" stroke="none" stroke-width="0"/><path d="M249.04492,145.99794c-14.09345,2.21802 -27.43498,-6.70268 -29.79914,-19.92494c-2.36416,-13.22226 7.14431,-25.73908 21.23776,-27.9571c14.09345,-2.21802 27.43498,6.70268 29.79914,19.92494c2.36416,13.22226 -7.14431,25.73908 -21.23776,27.9571z" fill="none" stroke="#00021d" stroke-width="3.5"/></g><path d="M274.15359,120.5305c0,0 0.39504,4.61028 -0.89951,3.763c-1.25204,-0.81946 -0.44293,2.40275 -2.01235,0.70098c-3.26882,-3.54448 -16.42936,-23.73586 -15.4274,-11.47728c2.96047,2.77496 -37.84858,12.22988 -32.29467,23.19076c-21.65475,13.08715 -29.39491,-36.45728 -29.39491,-36.45728c0,0 12.13738,14.33817 37.72171,0.84252c-4.19152,-8.41589 16.11705,-12.28626 26.201,-4.80639c4.91489,-19.08593 16.10613,24.24369 16.10613,24.24369z" data-paper-data="{&quot;index&quot;:null}" fill="#fdfd96" stroke="#00021d" stroke-width="3.5" stroke-linecap="butt"/><g data-paper-data="{&quot;index&quot;:null}" fill="none" stroke="#161830" stroke-width="3.5" stroke-linecap="round"><path d="M245.93344,123.04619l2.19795,12.2927"/><path d="M234.11339,137.9527l-2.19795,-12.2927"/></g><path d="M249.12727,137.28555c3.75983,-0.12697 3.63906,5.55923 3.63906,5.55923c0,0 -1.14017,-1.09524 -1.71958,-1.04824c-1.20739,0.09795 -1.56733,1.15923 -1.56733,1.15923c0,0 -1.35575,-1.05195 -1.98355,-1.01264c-1.05722,0.06619 -1.96092,1.14585 -1.96092,1.14585c0,0 -0.85474,-0.71912 -1.32939,-0.70881c-1.06332,0.0231 -2.14427,0.82611 -2.14427,0.82611c0,0 3.30614,-5.79376 7.06597,-5.92073z" data-paper-data="{&quot;index&quot;:null}" fill="#ffffff" stroke="#161830" stroke-width="1" stroke-linecap="butt"/><path d="M266.59222,115.35866c-1.02207,-1.50763 -0.5512,-3.55259 1.05172,-4.56757c1.60291,-1.01498 3.73087,-0.61563 4.75294,0.89199c1.02207,1.50763 0.5512,3.55259 -1.05172,4.56757c-1.60291,1.01498 -3.73087,0.61563 -4.75294,-0.89199z" fill="#00021d" stroke="#00021d" stroke-width="12" stroke-linecap="butt"/><g><path d="M280.31799,109.25452l5.25378,6.45296l-1.4858,3.21576l10.65941,31.886c0,0 1.00978,4.2616 -1.67949,5.98959c-2.01597,1.29536 -4.80591,-1.60474 -4.80591,-1.60474l-20.19047,-26.51968l-2.8634,-0.23801l-4.72129,-7.40086l7.5718,-9.46018z" fill="#5c2a2a" stroke="none" stroke-width="0" stroke-linecap="butt"/><path d="M280.37635,109.57568l4.92704,6.91285l-24.81286,4.56436l7.8698,-9.14136z" fill-opacity="0.08443" fill="#ffffff" stroke="none" stroke-width="0" stroke-linecap="butt"/><path d="M280.53843,109.44136l5.08995,5.52688l-1.25141,4.47767l9.71197,31.22338c0,0 1.92646,4.00885 -1.16971,5.64831c-3.45054,1.82708 -4.78947,-1.62267 -4.78947,-1.62267l-20.36767,-42.92383z" fill-opacity="0.08443" fill="#ffffff" stroke="none" stroke-width="0" stroke-linecap="butt"/><path d="M280.39213,109.06202l5.44106,6.72919l-1.72787,2.8587l10.71956,31.46779c0,0 1.299,4.45919 -1.79136,6.36956c-3.08801,1.90892 -5.6559,-1.37565 -5.6559,-1.37565l-19.28703,-26.70791l-3.15461,-0.01262l-4.37354,-7.54282l7.59301,-9.42887z" fill="none" stroke="#00021d" stroke-width="3.5" stroke-linecap="butt"/><path d="M267.66558,128.88269l6.77516,-7.25412l10.37011,-3.059" fill="none" stroke="#00021d" stroke-width="1.5" stroke-linecap="round"/><path d="M280.4224,109.09277l4.95511,6.3926l-1.11656,3.61195l10.62913,30.80189c0,0 0.94681,4.84982 -1.58751,6.46108c-3.03634,1.93045 -6.13043,-1.48102 -6.13043,-1.48102l-18.7241,-26.37288l-3.68085,-0.53095l-4.41372,-7.455l7.2926,-9.09791z" fill="#71521d" stroke="none" stroke-width="0" stroke-linecap="butt"/></g><path d="M267.30401,129.49083l6.98114,-7.79521l10.53477,-2.50931" fill="none" stroke="#00021d" stroke-width="1.5" stroke-linecap="round"/><g stroke-linecap="butt"><g><path d="M261.2222,168.43538c0,0 -3.87127,1.65516 -5.08066,-0.61688c-0.90659,-1.70322 1.95833,-4.85387 1.95833,-4.85387l29.42485,-15.21309c0,0 3.68365,8.05896 3.99929,9.13671z" fill="#71521d" stroke="none" stroke-width="0"/><path d="" fill-opacity="0.08443" fill="#ffffff" stroke="none" stroke-width="0"/><path d="M261.27645,167.51036c0,0 -3.81845,2.36342 -4.87984,-0.26612c0.08238,0.04574 0.36713,-0.96756 0.36713,-0.96756l33.35564,-12.97198c0,0 1.10351,2.56107 1.42865,3.66524z" fill="#71521d" stroke="none" stroke-width="0"/><path d="M291.63183,156.9269l-29.82253,11.24023c0,0 -4.24012,1.65319 -5.5586,-0.96068c-1.31749,-2.61189 2.34789,-4.26662 2.34789,-4.26662l29.45726,-15.31534" fill="none" stroke="#00021d" stroke-width="3.5"/></g><path d="M291.39878,156.08673l-29.98311,11.22734c0,0 -3.24179,1.60084 -4.56029,-1.01302c-0.58177,-1.20141 2.23258,-2.61973 2.23258,-2.61973l29.35743,-15.31009" fill="none" stroke="#71521d" stroke-width="1.75"/></g><g data-paper-data="{&quot;index&quot;:null}" stroke-linecap="butt"><path d="M243.3061,159.8204c-0.03768,-1.99758 0.22618,-3.34559 0.75162,-4.24509c0.33927,-0.5808 1.33422,-1.23557 1.33422,-1.23557l21.91787,0.02161c0,0 0.63269,0.68791 0.93975,1.19464c0.51931,0.85699 0.82015,2.05099 0.85118,3.69594c0.15312,8.11701 -5.49708,14.82438 -12.62008,14.98137c-7.123,0.15698 -13.02144,-6.29589 -13.17456,-14.41288z" fill="#3c2222" stroke="none" stroke-width="0"/><path d="M246.33365,166.87077l21.28571,-1.47429c0,0 -4.09003,8.24206 -9.85714,8.71171c-8.20166,0.66791 -11.42857,-7.23742 -11.42857,-7.23742z" fill-opacity="0.08443" fill="#ffffff" stroke="none" stroke-width="0"/><path d="M261.04796,173.17c0,0 -8.39008,2.77729 -14.28572,-4.82495c-3.39736,-4.38078 -2.57143,-13.67069 -2.57143,-13.67069l10.71428,-0.26805l6.14286,18.7637z" fill-opacity="0.08443" fill="#ffffff" stroke="none" stroke-width="0"/><path d="M243.44899,159.68636c-0.03768,-1.99759 0.22618,-3.3456 0.75162,-4.24509c0.33927,-0.5808 1.33422,-1.23557 1.33422,-1.23557l21.91788,0.02161c0,0 0.63268,0.68791 0.93974,1.19463c0.51931,0.85699 0.82015,2.051 0.85118,3.69594c0.15312,8.117 -5.49708,14.82438 -12.62008,14.98137c-7.12299,0.15699 -13.02144,-6.29589 -13.17455,-14.41288z" fill="none" stroke="#00021d" stroke-width="3.5"/><path d="M255.78425,173.9742c-7.2828,0.11989 -11.47933,-7.17833 -12.10271,-12.81841c-0.44122,-3.99199 1.87335,-6.89442 1.87335,-6.89442h21.84107c0,0 1.98415,2.69677 1.85649,6.20932c-0.20725,5.70252 -3.71943,13.34301 -13.46821,13.50351z" fill="#71521d" stroke="none" stroke-width="0"/></g><g data-paper-data="{&quot;index&quot;:null}"><path d="M189.92581,144.44397l12.19212,-1.8855l4.75633,7.52405l-1.0651,2.53431l15.57337,29.72768c0,0 1.44161,3.74293 -0.66768,4.82888c-2.81378,1.44867 -6.32023,-1.4392 -6.32023,-1.4392l-24.84147,-24.2317l-3.65567,-0.27891l-3.63629,-7.52174z" fill="#5c2a2a" stroke="none" stroke-width="0" stroke-linecap="butt"/><path d="M190.10182,144.86122l12.02971,-2.28959l-15.38761,18.79794l-4.21044,-7.46505z" fill-opacity="0.08443" fill="#ffffff" stroke="none" stroke-width="0" stroke-linecap="butt"/><path d="M190.24003,144.28841l30.7372,37.70777c0,0 2.6042,2.7786 -0.64363,4.82354c-2.91429,1.83491 -5.77409,-1.70726 -5.77409,-1.70726l-24.65132,-23.11447l-4.72298,-1.07942l-2.84935,-6.9412z" fill-opacity="0.08443" fill="#ffffff" stroke="none" stroke-width="0" stroke-linecap="butt"/><path d="M189.7365,144.45308l12.17256,-1.91836l5.04444,7.29783l-1.40535,2.67291l16.15415,29.05377c0,0 1.89864,3.73872 -1.26238,5.43811c-3.16344,1.70069 -6.72356,-1.526 -6.72356,-1.526l-24.42584,-24.08294l-3.4326,0.09617l-3.80886,-7.81191z" fill="none" stroke="#00021d" stroke-width="3.5" stroke-linecap="butt"/><path d="M188.89905,161.94647l7.50093,-7.30667l9.7843,-2.26502" fill="none" stroke="#00021d" stroke-width="1.5" stroke-linecap="round"/><path d="M189.96824,144.02392l11.73007,-1.82238l4.94481,7.28987l-1.16011,3.36521l16.0957,28.41796c0,0 1.78017,4.24414 -1.37764,5.88959c-2.6357,1.37339 -6.71704,-1.74203 -6.71704,-1.74203l-23.84766,-23.68861l-3.85795,-0.78019l-3.71436,-7.24043z" fill="#71521d" stroke="none" stroke-width="0" stroke-linecap="butt"/></g><g data-paper-data="{&quot;index&quot;:null}" stroke-linecap="butt"><g><path d="M218.68573,187.08646c-0.26641,-0.1235 -0.97149,-0.54732 -1.86646,-1.1052c-0.6081,-2.03813 -1.951,-3.89593 -3.95368,-5.19091c-0.42314,-0.27361 -0.86083,-0.51246 -1.30923,-0.71721l18.44816,-25.13762c0,0 3.56819,-2.36961 5.10661,-1.22324c2.05221,1.52925 -0.19863,5.11335 -0.19863,5.11335z" fill="#71521d" stroke="none" stroke-width="0"/><path d="" fill-opacity="0.08443" fill="#ffffff" stroke="none" stroke-width="0"/><path d="M218.76262,187.12217c-0.47964,-0.22321 -1.23956,-0.65596 -1.91882,-1.05725c-0.19746,-0.68608 -0.47791,-1.35241 -0.83851,-1.98452l17.48371,-29.97943c0,0 1.04632,-0.13271 1.01425,-0.22086c2.42893,1.43542 -0.51321,4.86331 -0.51321,4.86331z" fill="#71521d" stroke="none" stroke-width="0"/><path d="M211.68253,180.13176l18.21814,-24.70685c0,0 2.21766,-3.38063 4.58841,-1.6946c2.37255,1.6873 0.06499,5.63634 0.06499,5.63634l-15.84735,27.83207" fill="none" stroke="#00021d" stroke-width="3.5"/></g><path d="M212.43582,180.52715l18.11953,-24.50961c0,0 1.84876,-2.57399 2.94311,-1.82243c2.37255,1.68733 0.27548,4.65709 0.27548,4.65709l-15.86015,27.99271" fill="none" stroke="#71521d" stroke-width="1.75"/></g><path d="M189.3704,162.40748l6.56959,-7.45657l10.60536,-2.10988" data-paper-data="{&quot;index&quot;:null}" fill="none" stroke="#00021d" stroke-width="1.5" stroke-linecap="round"/><path d="M237.13636,226.77012l-0.04233,49.31318l-3.27155,0.16538" data-paper-data="{&quot;index&quot;:null}" fill="none" stroke="#00021d" stroke-width="12" stroke-linecap="round"/><path d="M258.07759,226.23808l2.24986,52.74317l-4.02673,0.90857" data-paper-data="{&quot;index&quot;:null}" fill="none" stroke="#00021d" stroke-width="12" stroke-linecap="round"/><path d="M240.93039,153.15972l-1.98059,-1.54033l1.19027,-1.09176l-1.15023,-1.01455l1.94056,-0.53423h13.24523l2.07611,0.52416l-0.69556,1.02577l0.97141,1.0906l-2.35196,1.54033z" data-paper-data="{&quot;index&quot;:null}" fill="#71521d" stroke="none" stroke-width="0" stroke-linecap="butt"/><g data-paper-data="{&quot;index&quot;:null}"><path d="M256.16452,219.30342l-8.72956,2.64195l-10.49814,-2.92563" fill="none" stroke="#00021d" stroke-width="12" stroke-linecap="round"/><path d="M247.51877,224.44548l-20.03008,-5.80733v-10.16282l3.44603,-5.32338l2.1872,-49.68983l29.1552,-0.15637l1.06503,49.35996l1.75737,6.06366l-0.05175,8.9409z" fill="#5c2a2a" stroke="none" stroke-width="0" stroke-linecap="butt"/><path d="M247.49729,170.32077l0.48452,-2.04555l-0.96903,-6.36394l1.69581,-6.36394" fill="none" stroke="#c2c2c2" stroke-width="3.5" stroke-linecap="round"/><path d="M236.44087,155.91988l1.69581,6.36393l-0.96903,6.36393l0.48452,2.04555" data-paper-data="{&quot;index&quot;:null}" fill="none" stroke="#c2c2c2" stroke-width="3.5" stroke-linecap="round"/><path d="M227.73098,218.00952l-0.221,-8.25926l3.01719,-6.5382l2.61091,-48.61464l24.39072,-0.68184l-20.10747,67.2759z" fill-opacity="0.08443" fill="#ffffff" stroke="none" stroke-width="0" stroke-linecap="butt"/><path d="M247.59618,224.14618l-19.86522,-6.36393l-0.05076,-9.32786l3.10417,-5.45458l-0.14631,-12.49159l34.92273,18.7305l-0.29821,8.54352z" fill-opacity="0.08443" fill="#ffffff" stroke="none" stroke-width="0" stroke-linecap="butt"/><path d="M247.81189,224.36344l-20.03009,-5.75166v-10.06541l3.44604,-5.27235l2.1872,-49.36844h28.82187l1.39836,48.88685l1.47165,5.87153l-0.19461,8.98923z" fill="none" stroke="#00021d" stroke-width="3.5" stroke-linecap="butt"/><g stroke-linecap="butt"><path d="M241.02361,217.97242l-13.15254,-4.2851l0.1984,-5.47349l3.75332,-6.64654l16.73672,0.11543l4.53286,7.50287v4.50173z" fill="#694646" stroke="none" stroke-width="0"/><path d="M240.20456,217.76873l-12.006,-4.16972l-0.2,-6.26154l25.22131,7.0121z" fill-opacity="0.14806" fill="#ffffff" stroke="none" stroke-width="0"/><path d="M240.53991,217.94345l-12.785,-4.19866l0.69736,-3.63576h24.17527l0.34868,4.04001z" fill-opacity="0.08443" fill="#ffffff" stroke="none" stroke-width="0"/><path d="M232.39224,215.25152l-3.33363,-0.73042l-1.0537,-5.65594l4.09766,-6.54046l5.77301,-0.20848z" fill-opacity="0.08443" fill="#ffffff" stroke="none" stroke-width="0"/><path d="M240.89802,217.48325l-12.75254,-3.72219l0.1984,-5.47348l3.75332,-6.64654l16.73673,0.11543l4.53287,7.50287v4.50173z" fill="none" stroke="#00021d" stroke-width="3.5"/></g><path d="M247.67894,224.62862l-19.93561,-5.60195l-0.32395,-9.7818l3.69094,-5.79339l2.37553,-49.94363l29.02113,0.03356l1.1553,49.20744l1.51762,5.64517l-0.16473,9.02049z" fill="#71521d" stroke="none" stroke-width="0" stroke-linecap="butt"/></g><path d="M253.62093,213.55674l-11.75,3.75274l-12.75,-3.28365l-1,-4.92547l4,-7.03639h16.5l4.25,6.33275z" data-paper-data="{&quot;index&quot;:null}" fill="none" stroke="#000000" stroke-width="3" stroke-linecap="round"/><path d="M249.17432,154.52106c1.6602,0.51919 1.1068,2.07677 1.1068,2.07677l-0.7041,1.7988c-1.35819,1.69053 -0.36355,3.29471 -0.2105,5.30564c0.17308,2.27404 0.07367,4.66632 -0.26318,6.91587c0,0 -0.24748,1.62531 -1.97989,1.39313c-1.73241,-0.23218 -1.48493,-1.8575 -1.48493,-1.8575c0.68797,-4.43324 -1.49902,-9.76158 1.02632,-13.57857l0.2959,-1.01574c0,0 0.5534,-1.55757 2.21359,-1.03838z" data-paper-data="{&quot;index&quot;:null}" fill="#cccccc" stroke="none" stroke-width="0.5" stroke-linecap="butt"/><path d="M234.71075,155.55946c0.5534,-1.55757 2.21359,-1.03838 2.21359,-1.03838l1.92901,1.55993c0.25249,1.68792 1.28609,3.33627 1.50248,4.94239c0.27917,2.07209 -1.12725,3.51565 -1.5,5.35602c-0.23286,1.1497 1.0549,3.27791 1.24752,4.478c0,0 0.24748,1.62532 -1.48493,1.8575c-1.7324,0.23219 -1.97989,-1.39313 -1.97989,-1.39313c-0.25926,-1.83087 -1.49151,-3.46607 -1.25248,-5.37294c0.16712,-1.33325 1.76779,-3.03082 1.5,-4.49492c-0.23657,-1.29337 -0.88482,-2.56275 -1.26981,-3.89933c-0.42419,-0.19845 -1.33665,-0.78167 -0.9055,-1.99515z" data-paper-data="{&quot;index&quot;:null}" fill="#cccccc" stroke="none" stroke-width="0.5" stroke-linecap="butt"/><path d="M243.89144,199.65885c-7.20447,0 -13.04485,-5.47936 -13.04485,-12.23848c0,-6.75912 5.84038,-12.23848 13.04485,-12.23848c7.20447,0 13.04486,5.47936 13.04486,12.23848c0,6.75912 -5.84039,12.23848 -13.04486,12.23848z" data-paper-data="{&quot;index&quot;:null}" fill="#000000" stroke="#000000" stroke-width="1.5" stroke-linecap="butt"/><path d="M256.46382,187.42038c0,6.51431 -5.62885,11.79523 -12.57239,11.79523c-6.94354,0 -12.57239,-5.28091 -12.57239,-11.79524c0,-6.51432 5.62886,-11.79524 12.5724,-11.79524c6.94355,0 12.5724,5.28091 12.5724,11.79524z" data-paper-data="{&quot;index&quot;:null}" fill="url(#color-1)" stroke="#6d4500" stroke-width="1.5" stroke-linecap="butt"/><path d="M247.18462,177.9881c0,-0.54263 0.18931,-1.13231 0.50935,-1.53699c0.1346,-0.1702 1.4001,0.30616 2.51555,0.91948c1.08378,0.59591 2.02065,1.37036 1.99767,1.4278c-0.3688,0.92225 -1.31722,1.6229 -2.42905,1.6229c-1.43235,0 -2.59352,-1.08937 -2.59352,-2.4332z" data-paper-data="{&quot;index&quot;:null}" fill="#000000" stroke="#6d4500" stroke-width="1.5" stroke-linecap="butt"/><path d="M242.64225,178.42441c1.51662,0 2.74609,1.07337 2.74609,2.39743c0,1.32406 -1.22946,2.39743 -2.74609,2.39743c-1.51662,0 -2.74608,-1.07337 -2.74608,-2.39743c0,-1.32406 1.22945,-2.39743 2.74608,-2.39743z" data-paper-data="{&quot;index&quot;:null}" fill="#000000" stroke="#6d4500" stroke-width="1.5" stroke-linecap="butt"/><path d="M249.39305,181.93107c1.53768,0 2.78422,1.12142 2.78422,2.50478c0,1.38334 -1.24653,2.50477 -2.78422,2.50477c-1.53769,0 -2.78423,-1.12141 -2.78423,-2.50477c0,-1.38335 1.24654,-2.50478 2.78423,-2.50478z" data-paper-data="{&quot;index&quot;:null}" fill="#000000" stroke="#6d4500" stroke-width="1.5" stroke-linecap="butt"/><g stroke="none" stroke-width="1" stroke-linecap="butt"><path d="M199.28271,128.89199c-0.27376,0.24382 -0.54751,0.48765 -0.81142,0.76178c-0.22039,0.24513 -0.23148,0.64565 -0.71592,0.78414c0.38173,-0.67205 0.57108,-1.33877 0.76042,-2.00549c0.22884,-0.16476 0.48999,-0.33876 0.80172,-0.41132c0.01968,0.0606 0.02952,0.0909 0.03936,0.12119c-0.00693,0.25033 -0.03493,0.49013 -0.07416,0.74968z" fill="#c6dede"/><path d="M198.20476,126.55112c-0.31451,0.17269 -0.60794,0.35592 -0.92245,0.52861c-0.13487,-0.14357 -0.04505,-0.3017 -0.04089,-0.4519c0.00416,-0.15019 0.04062,-0.30963 0.056,-0.47959c0.24007,-0.18453 0.54058,-0.23732 0.8214,-0.35072c0.15316,0.25423 0.12516,0.49403 0.08593,0.75359z" fill="#c8e0e1"/><path d="M194.1086,123.28499c0.17409,-0.116 0.3468,-0.18192 0.51812,-0.19779c0.17977,0.0645 0.19669,0.22523 0.26835,0.3372c0.07166,0.11196 0.18684,0.19494 0.17146,0.3649c-0.15441,0.17659 -0.40294,0.28076 -0.67392,0.42445c-0.0492,-0.1515 -0.09841,-0.303 -0.15884,-0.43473c-0.03798,-0.17127 -0.07595,-0.34253 -0.12516,-0.49403z" fill="#c5ddde"/><path d="M191.31589,124.62973c-0.05059,-0.10143 -0.07027,-0.16202 -0.08996,-0.22263c-0.02814,-0.14096 -0.04505,-0.30169 -0.08302,-0.47296c0.30466,-0.203 0.54612,-0.43759 0.90138,-0.53915c0.12503,0.11327 0.13209,0.24369 0.13777,0.42419c-0.25269,0.25436 -0.54889,0.53772 -0.86617,0.81054z" fill="#c7dfe0"/><path d="M199.45071,127.45322c-0.25975,0.12392 -0.47599,0.21886 -0.75681,0.33225c0.01955,-0.32016 0.02786,-0.62055 0.06848,-0.93018c0.19516,-0.10546 0.3791,-0.19116 0.59394,-0.23602c0.10964,0.28323 0.10271,0.53356 0.09439,0.83395z" fill="#c2dada"/><path d="M197.30145,125.6173c-0.07734,-0.29246 -0.11393,-0.5138 -0.17159,-0.74566c0.17548,-0.16606 0.42262,-0.22015 0.66976,-0.27425c0.13348,0.19363 0.23466,0.3965 0.2488,0.65736c-0.19793,0.20559 -0.46476,0.19909 -0.74697,0.36255z" fill="#c6dedf"/><path d="M190.54884,123.78939c-0.20777,0.17529 -0.36357,0.40196 -0.66547,0.50482c-0.04782,-0.20157 -0.10687,-0.38336 -0.16591,-0.56516c0.13473,-0.23719 0.35235,-0.38219 0.61071,-0.45605c0.13487,0.14357 0.18407,0.29506 0.22066,0.5164z" fill="#c3dadb"/><path d="M200.2617,129.40683c-0.24007,0.18453 -0.46892,0.34929 -0.70899,0.53382c0.02509,-0.52042 0.13307,-0.94865 0.74531,-1.07401c0.07027,0.16203 0.00152,0.33069 -0.03632,0.54019z" fill="#bbd2d3"/><path d="M198.96984,133.63382c0.05766,0.23186 0.13778,0.42419 0.19544,0.65606c-0.0772,0.0883 -0.21901,0.19506 -0.33974,0.31236c-0.3231,-0.28844 -0.31187,-0.30819 -0.14484,-0.55463c0.07859,-0.13836 0.17825,-0.2662 0.28914,-0.41379z" fill="#b5cbcc"/><path d="M197.21788,123.62129c0.177,0.16463 0.24728,0.32667 0.31755,0.48869c-0.16425,0.1463 -0.37771,0.14109 -0.59255,0.18596c-0.09134,-0.17257 -0.16162,-0.33459 -0.25296,-0.50716c0.12212,-0.16736 0.33418,-0.11209 0.52796,-0.16749z" fill="#c0d7d8"/><path d="M199.8944,127.2436c-0.02537,-0.24109 -0.01843,-0.49142 -0.0438,-0.73253c0.14041,-0.05669 0.26821,-0.04356 0.39462,0.01964c0.10396,0.10273 0.08996,0.22263 0.09703,0.35307c-0.00277,0.10013 -0.00554,0.20026 -0.00832,0.3004c-0.13057,0.087 -0.25976,0.12392 -0.43953,0.05942z" fill="#b6cccc"/><path d="M200.38909,128.27769c-0.17409,0.116 -0.32573,0.19246 -0.52935,0.21756c-0.05766,-0.23186 0.01248,-0.45059 0.03909,-0.64032c0.13196,-0.13706 0.28082,-0.1134 0.41985,-0.12003c0.05198,0.05137 0.09412,0.07244 0.08289,0.0922c-0.00416,0.15019 -0.00832,0.3004 -0.01248,0.45059z" fill="#b7cdce"/><path d="M200.54016,130.53585c-0.04505,-0.30169 0.056,-0.47959 0.11491,-0.67855c0.04907,-0.22926 0.22039,-0.24513 0.42401,-0.27023c0.05766,0.23186 -0.00125,0.43082 -0.0068,0.63109c-0.15441,0.17659 -0.39878,0.13056 -0.53212,0.31769z" fill="#b6cccc"/><path d="M195.92022,123.42935c-0.1418,0.10677 -0.23868,0.13446 -0.36648,0.12133c-0.13764,-0.04344 -0.177,-0.16463 -0.24866,-0.2766c-0.05059,-0.10143 -0.18684,-0.19494 -0.12932,-0.34383c0.17271,-0.06593 0.35526,-0.10156 0.56733,-0.04629c0.08011,0.19233 0.11809,0.36359 0.17714,0.54539z" fill="#bbd2d3"/><path d="M199.54992,133.89845c-0.12932,-0.34383 -0.12932,-0.34383 -0.0438,-0.73253c0.19516,-0.10546 0.37494,-0.04096 0.59824,-0.00546c-0.09398,0.30833 -0.34528,0.51262 -0.55444,0.73798z" fill="#adc2c3"/><path d="M199.29576,126.10678c-0.18394,0.08569 -0.32435,0.1424 -0.52796,0.16749c-0.11241,-0.1831 -0.07457,-0.39259 -0.11116,-0.61392c0.07582,-0.03823 0.14041,-0.0567 0.205,-0.07517c0.06459,-0.01846 0.13902,-0.00663 0.22468,-0.01456c0.15594,0.1541 0.19391,0.32536 0.20944,0.53616z" fill="#bbd1d2"/><path d="M191.87561,122.92996c-0.29344,0.18323 -0.59672,0.33615 -0.87892,0.49961c-0.13625,-0.0935 -0.18684,-0.19494 -0.19253,-0.37543c0.33419,-0.11209 0.66838,-0.22419 1.03209,-0.24538c0.01968,0.0606 0.02952,0.0909 0.03936,0.12119z" fill="#acc1c2"/><path d="M198.99345,125.06736c-0.1095,0.09753 -0.24853,0.10417 -0.40862,0.10026c-0.08011,-0.19233 -0.16023,-0.38467 -0.24035,-0.57699c0.17409,-0.116 0.31174,-0.07256 0.45921,0.00117c0.09273,0.1225 0.15177,0.3043 0.18975,0.47557z" fill="#b7cdcd"/><path d="M192.63976,123.48966c-0.09273,-0.1225 -0.12226,-0.2134 -0.10825,-0.3333c0.25975,-0.12392 0.53074,-0.26762 0.91552,-0.27828c-0.1698,0.34656 -0.47169,0.44942 -0.80726,0.61157z" fill="#b2c8c9"/><path d="M198.48847,130.57603c0.12489,-0.2675 0.24839,-0.48493 0.44632,-0.69051c0.11657,0.0329 0.12503,0.11327 0.09134,0.17257c-0.05752,0.1489 -0.09398,0.30833 -0.1515,0.45722c-0.08982,0.15813 -0.19655,0.15553 -0.38617,0.06073z" fill="#91a3a3"/><path d="M198.1126,124.094c-0.15594,-0.1541 -0.23744,-0.29636 -0.31755,-0.4887c0.3188,0.05787 0.51687,0.23304 0.76969,0.35944c-0.05475,0.04877 -0.0772,0.0883 -0.1095,0.09753c-0.11796,0.01716 -0.22469,0.01456 -0.34264,0.03173z" fill="#a9bebf"/><path d="M200.13418,130.15522c-0.16841,0.29649 -0.28069,0.49416 -0.39296,0.69182c-0.02246,0.03954 -0.08705,0.058 -0.15025,0.0264c-0.02107,-0.01054 -0.05198,-0.05137 -0.06182,-0.08167c0.09259,-0.25826 0.2161,-0.47569 0.60503,-0.63655z" fill="#94a5a6"/><path d="M198.47806,132.88035c0.17132,-0.01586 0.24575,-0.00403 0.30619,0.1277c-0.06875,0.16866 -0.14873,0.35709 -0.32421,0.52315c-0.13209,-0.24369 -0.01982,-0.44136 0.01802,-0.65086z" fill="#abbfc0"/><path d="M201.0691,129.17602c-0.1278,-0.01313 -0.18116,-0.01444 -0.2233,-0.0355c-0.07457,-0.39259 -0.07457,-0.39259 0.14582,-0.63772c0.14332,0.22393 0.03105,0.42159 0.07748,0.67322z" fill="#acc0c1"/><path d="M199.75774,126.00782c-0.06043,-0.13173 -0.08996,-0.22263 -0.07595,-0.34253c0.08705,-0.058 0.17271,-0.06593 0.28928,-0.03303c0.11518,0.08296 0.14332,0.22393 0.17146,0.3649c-0.1095,0.09753 -0.24714,0.0541 -0.38478,0.01067z" fill="#aec2c3"/><path d="M196.81467,123.14053c-0.42262,0.22015 -0.45492,0.22939 -0.57162,-0.18427c0.191,0.04473 0.39462,0.01964 0.57162,0.18427z" fill="#869696"/><path d="M200.92924,130.75576c0.07596,0.34253 0.03243,0.37152 -0.33835,0.26229c0.03645,-0.15943 0.17687,-0.21613 0.33835,-0.26229z" fill="#8b9b9c"/><path d="M188.09586,124.82178c-0.04907,0.22926 -0.15996,0.37686 -0.27085,0.52445c-0.16009,-0.0039 -0.20085,-0.07504 -0.15593,-0.1541c0.08982,-0.15813 0.20071,-0.30573 0.42678,-0.37036z" fill="#9aacad"/><path d="M200.92815,127.70968c0.07027,0.16203 0.163,0.28453 0.05211,0.43213c-0.01123,0.01977 -0.04352,0.029 -0.06459,0.01846c-0.16716,-0.13433 -0.14194,-0.274 0.01248,-0.45059z" fill="#5f6a6b"/><path d="M199.40346,124.91704c0.18116,0.01444 0.27527,0.08687 0.26973,0.28713c-0.21346,-0.0052 -0.26405,-0.10663 -0.26973,-0.28713z" fill="#4a5354"/><g><path d="M186.08694,134.50215c-0.19807,-0.17517 -0.17146,-0.3649 -0.10132,-0.58363c0.1375,-0.33732 0.33821,-0.64305 0.49678,-0.96984c-0.02952,-0.0909 -0.05905,-0.1818 -0.0998,-0.25293c-0.78979,-1.56232 -0.78756,-3.18548 -0.49605,-4.84169c0.06307,-0.34915 0.10507,-0.70885 0.28471,-1.02511c0.03368,-0.0593 0.05752,-0.1489 0.03784,-0.2095c-0.10825,-0.3333 0.03771,-0.59026 0.17382,-0.87751c0.11366,-0.24773 0.26946,-0.47438 0.40419,-0.71159c0.07859,-0.13836 0.19932,-0.25566 0.38187,-0.29129c0.18255,-0.03563 0.33558,-0.16216 0.47737,-0.26892c0.74544,-0.69324 1.60468,-1.25346 2.55666,-1.69117c0.54058,-0.23732 1.09945,-0.36398 1.67939,-0.48011c1.70753,-0.33914 3.38013,-0.18815 5.01072,0.32253c0.73033,0.23824 1.42559,0.58584 2.07594,1.01251c0.49303,0.32263 0.86533,0.76257 1.20534,1.21173c1.08184,1.42916 1.53882,3.0535 1.52259,4.79657c0.00152,0.33069 -0.08261,0.66932 -0.16675,1.00795c-0.04907,0.22926 -0.06584,0.4493 0.07748,0.67322c0.13348,0.19363 0.11671,0.41366 0.04657,0.63239c-0.1375,0.33732 -0.31714,0.65359 -0.49678,0.96984c-0.05614,0.09883 -0.14318,0.15683 -0.23023,0.21483c-0.3468,0.18192 -0.57842,0.44682 -0.77913,0.75255c-0.4028,0.66151 -0.99383,1.17816 -1.5638,1.70535c-0.219,0.19506 -0.45908,0.37959 -0.73006,0.52328c-0.8677,0.47984 -1.73401,0.90963 -2.72257,1.12601c-0.16841,0.29649 -0.36912,0.60222 -0.54876,0.91848c-0.06736,0.1186 -0.14596,0.25696 -0.31728,0.27282c-0.15025,0.0264 -0.19655,0.15552 -0.26391,0.27413c-0.47017,0.78011 -0.91927,1.57077 -1.38943,2.35088c-1.02031,1.74865 -2.05185,3.51708 -3.1143,5.24467c-1.03999,1.68806 -2.01678,3.40771 -3.01464,5.11684c-0.15718,0.27673 -0.34528,0.51262 -0.50246,0.78934c-0.76347,1.3441 -1.52694,2.6882 -2.31147,4.02176c-0.13473,0.23719 -0.22732,0.49546 -0.47723,0.64968c-0.08705,0.058 -0.12212,0.16736 -0.17826,0.26619c-0.56137,0.98831 -1.15504,1.98585 -1.71642,2.97416c-0.02246,0.03954 -0.05614,0.09883 -0.07859,0.13836c-0.15857,0.32679 -0.39587,0.41119 -0.76942,0.40209c-1.24845,-0.04045 -2.34818,-0.43799 -3.29917,-1.19262c-0.24021,-0.19623 -0.45796,-0.432 -0.63219,-0.69676c-0.13348,-0.19363 -0.12793,-0.3939 -0.03673,-0.60209c0.27362,-0.62459 0.52617,-1.25971 0.81101,-1.90406c0.20487,-0.45592 0.4631,-0.91055 0.60476,-1.39806c0.30716,-1.06464 0.87838,-2.02265 1.24875,-3.0557c0.21887,-0.57582 0.38437,-1.15294 0.62431,-1.71823c0.26239,-0.60482 0.47142,-1.21094 0.70151,-1.80653c0.42512,-1.08181 0.9036,-2.16232 1.30766,-3.25466c0.49942,-1.45073 1.08311,-2.85933 1.6668,-4.26793c0.19503,-0.48622 0.39005,-0.97245 0.58508,-1.45867c0.31991,-0.75372 0.65106,-1.5272 0.97097,-2.28091c0.18241,-0.41639 0.31146,-0.83408 0.49387,-1.25047c0.17257,-0.44669 0.38589,-0.82224 0.59076,-1.27817zM186.77084,134.48876c0.18546,0.245 0.39337,0.45047 0.65603,0.60717c0.44673,0.45176 0.99313,0.7757 1.53953,1.09964c0.68265,0.41744 1.43127,0.76634 2.15883,1.10471c0.8329,0.39104 1.71487,0.55282 2.62913,0.70536c0.10673,0.0026 0.21346,0.0052 0.37355,0.00911c0.08982,-0.15813 0.17964,-0.31626 0.26946,-0.47438c0.02246,-0.03954 0.02384,-0.0896 0.03646,-0.15944c-0.14748,-0.07373 -0.30619,-0.1277 -0.47612,-0.1619c-0.28651,-0.0671 -0.52949,-0.16321 -0.81599,-0.23031c-0.69942,-0.1974 -1.31886,-0.58324 -1.9846,-0.83995c-0.34832,-0.14877 -0.7191,-0.25801 -1.04497,-0.4463c-0.70372,-0.42797 -1.46357,-0.75711 -2.12238,-1.26414c-0.16716,-0.13433 -0.35539,-0.2792 -0.52255,-0.41353c-0.01691,-0.16073 -0.20791,-0.20547 -0.2908,-0.29767c-0.09273,-0.1225 -0.18545,-0.245 -0.42844,-0.3411c0.00152,0.33069 -0.20764,0.55605 -0.2581,0.83538c0.09412,0.07243 0.11102,0.23317 0.28096,0.26736zM187.23184,135.58215c-0.38353,-0.42017 -0.49871,-0.50313 -0.79506,-0.60053c-0.11366,0.24773 -0.21609,0.47569 -0.32976,0.72342c-0.07859,0.13836 -0.05046,0.27933 0.04227,0.40182c0.06182,0.08167 0.16716,0.13433 0.22898,0.216c0.23744,0.29636 0.56192,0.53474 0.91024,0.68351c0.09134,0.17257 0.25989,0.25683 0.42844,0.3411c0.93686,0.49378 1.84142,0.99677 2.83441,1.39171c0.44383,0.17113 0.89888,0.32251 1.34409,0.44357c0.36094,0.07894 0.74294,0.1684 1.1305,0.05761c0.14596,-0.25696 0.29191,-0.51392 0.43787,-0.77088c-0.191,-0.04473 -0.36094,-0.07894 -0.50981,-0.10261c-0.67974,-0.13681 -1.33702,-0.31315 -1.94939,-0.56855c-0.79215,-0.3199 -1.52816,-0.73864 -2.2754,-1.13761c-0.35817,-0.17907 -0.62789,-0.4662 -0.99729,-0.62551c-0.11102,-0.23317 -0.31048,-0.35826 -0.5001,-0.45307zM177.34817,158.88806c0.2276,0.26607 0.51133,0.4333 0.81751,0.561c0.00984,0.0303 0.04075,0.07113 0.06182,0.08167c0.51687,0.23304 1.0562,0.42654 1.62075,0.48038c0.33003,0.03811 0.64883,0.09598 0.98301,-0.01612c0.62874,-1.10691 1.25748,-2.21382 1.9199,-3.38002c-0.62915,-0.03538 -1.19093,-0.18934 -1.74148,-0.36309c-0.48735,-0.14214 -0.87504,-0.41211 -1.33993,-0.59378c-0.16855,-0.08427 -0.3048,-0.17777 -0.47335,-0.26204c-0.19669,-0.22523 -0.43689,-0.42147 -0.74169,-0.59924c-0.33682,0.59299 -0.48265,1.2307 -0.75488,1.80523c-0.26239,0.60482 -0.50371,1.22018 -0.75488,1.80523c0.11102,0.23317 0.25712,0.35697 0.40321,0.48076zM179.07818,154.65172c0.09134,0.17257 0.24866,0.2766 0.41721,0.36086c0.12364,0.16333 0.32449,0.23836 0.50287,0.35294c0.57869,0.3147 1.21352,0.53057 1.84973,0.69638c0.38201,0.08947 0.78647,0.1394 1.1937,0.08921c0.04491,-0.07907 0.11089,-0.1476 0.1558,-0.22667c0.55015,-0.96854 1.08906,-1.91732 1.66028,-2.87533c0.6049,-1.01731 1.19857,-2.01486 1.80346,-3.03216c0.87436,-1.4917 1.75855,-2.95309 2.63291,-4.44478c0.99647,-1.65906 1.91851,-3.32996 2.95712,-4.96794c0.17825,-0.26619 0.3256,-0.57322 0.49401,-0.86972c-0.27666,-0.0368 -0.55471,-0.02354 -0.80892,-0.09988c-0.83845,-0.19078 -1.6306,-0.51068 -2.40029,-0.87012c-0.67419,-0.33707 -1.33716,-0.69391 -2.00012,-1.05075c-0.25144,-0.17646 -0.49303,-0.32263 -0.74447,-0.4991c-0.10118,-0.20286 -0.31325,-0.25813 -0.45935,-0.38194c-0.16716,-0.13433 -0.2908,-0.29767 -0.51271,-0.38324c-0.15441,0.17659 -0.20209,0.35579 -0.25962,0.50469c-0.43067,1.28208 -1.04111,2.49964 -1.53498,3.75012c-0.3213,0.80378 -0.6426,1.60756 -0.94284,2.42188c-0.42512,1.08181 -0.81794,2.15439 -1.23184,3.21643c-0.33392,0.87361 -0.66783,1.74723 -1.02281,2.61031c-0.3676,0.93291 -0.74504,1.83553 -1.1337,2.75791c-0.34376,0.84332 -0.69874,1.70639 -1.03266,2.58001c0.17839,0.11457 0.23744,0.29636 0.41721,0.36086zM201.15988,131.68321c-0.56455,-0.05384 -1.0519,-0.19598 -1.55048,-0.31834c-0.51965,-0.1329 -1.02945,-0.23551 -1.53787,-0.38818c-0.48735,-0.14214 -0.97331,-0.33434 -1.44943,-0.49624c-0.49719,-0.17244 -0.99438,-0.34488 -1.50141,-0.54761c-0.46489,-0.18167 -0.93963,-0.39364 -1.40452,-0.57531c-0.47473,-0.21196 -0.90456,-0.503 -1.4242,-0.63591c-0.37507,-0.3398 -0.8835,-0.49247 -1.31471,-0.73344c-0.44105,-0.27127 -0.92563,-0.51354 -1.36668,-0.78481c-0.41999,-0.26073 -0.84981,-0.55177 -1.25857,-0.83227c-0.42983,-0.29103 -0.79367,-0.6506 -1.25718,-0.88233c-0.3116,0.45332 -0.39019,0.59169 -0.42374,1.03174c0.19669,0.22523 0.39337,0.45046 0.65465,0.65723c0.32448,0.23836 0.64897,0.47674 0.98329,0.74541c0.63774,0.4965 1.26563,0.9627 2.00303,1.33137c0.50564,0.2528 1.02252,0.48584 1.48325,0.81771c0.09412,0.07243 0.22053,0.13563 0.36939,0.1593c0.28651,0.0671 0.54917,0.2238 0.80199,0.35021c0.92702,0.46347 1.9214,0.80835 2.90593,1.12292c1.29073,0.44228 2.61791,0.72512 3.97877,0.94867c0.26544,0.05657 0.53087,0.11314 0.80047,0.01951c0.21055,-0.27542 0.35789,-0.58245 0.50801,-0.98961zM193.98426,125.07552c-0.31451,0.17269 -0.54474,0.38752 -0.79604,0.59182c-0.22884,0.16476 -0.38464,0.39142 -0.4351,0.67076c-0.13182,0.51782 -0.33807,1.02381 -0.6286,1.48766c-0.02246,0.03954 -0.03507,0.10936 -0.0463,0.12913c0.07166,0.11196 0.15593,0.1541 0.29496,0.14746c0.0323,-0.00923 0.07582,-0.03823 0.08705,-0.058c0.3888,-0.54161 0.81974,-1.06217 1.29282,-1.56166c0.06598,-0.06853 0.15441,-0.17659 0.15718,-0.27673c0.09536,-0.3584 0.19073,-0.71678 0.07403,-1.13045zM191.0248,127.42821c0.36635,-0.50209 0.7636,-0.96334 1.1707,-1.39429c0.13196,-0.13706 0.18948,-0.28596 0.21609,-0.47569c0.02939,-0.28986 -0.00582,-0.56126 -0.02979,-0.85242c0.00277,-0.10013 0.01677,-0.22003 -0.13209,-0.24369c-0.29621,0.28336 -0.60226,0.53642 -0.85633,0.84084c-0.11339,1.00925 -0.11339,1.00925 -0.63124,1.96856c0.02952,0.0909 0.10257,0.1528 0.26266,0.15671zM195.09614,131.97629c-0.28637,0.31365 -0.55167,0.63784 -0.81697,0.96204c-0.06598,0.06853 -0.13196,0.13706 -0.1558,0.22666c-0.03216,0.38999 -0.08539,0.76945 0.02148,1.15281c0.38755,-0.11079 0.61917,-0.37569 0.90276,-0.58921c0.1418,-0.10677 0.1881,-0.2359 0.20348,-0.40586c0.01109,-0.40053 0.06432,-0.77999 0.14984,-1.16868c0.01123,-0.01977 -0.01968,-0.0606 -0.03936,-0.12119c-0.07443,-0.01183 -0.16993,-0.0342 -0.26544,-0.05657zM198.23165,127.12292c-0.45353,0.17932 -0.74835,0.41261 -1.06425,0.63538c-0.1095,0.09753 -0.14457,0.2069 -0.17964,0.31626c-0.14305,0.53759 -0.3493,1.04358 -0.65106,1.5272c-0.03368,0.0593 -0.0463,0.12913 -0.07998,0.18843c0.22053,0.13563 0.27389,0.13694 0.36371,-0.02119c0.29191,-0.51392 0.67794,-0.95541 1.14686,-1.3047c0.2836,-0.21353 0.39726,-0.46126 0.43787,-0.77088c-0.00568,-0.1805 -0.00152,-0.33069 0.02648,-0.57049zM193.49966,128.69092c0.10534,0.05267 0.17132,-0.01586 0.21623,-0.09493c0.31437,-0.55345 0.78606,-1.00287 1.25775,-1.45229c0.37342,-0.37165 0.54737,-0.86841 0.47835,-1.46127c-0.24853,0.10416 -0.38187,0.29129 -0.58826,0.41652c-0.42401,0.27023 -0.63733,0.64578 -0.77761,1.08324c-0.16273,0.47699 -0.30439,0.96451 -0.59353,1.37831c-0.01261,0.06983 -0.00277,0.10013 0.00707,0.13043zM196.74562,126.40534c-0.26114,0.174 -0.4563,0.27946 -0.6304,0.39544c-0.29344,0.18323 -0.44923,0.40989 -0.52214,0.72874c-0.08691,0.43876 -0.26932,0.85515 -0.4728,1.261c-0.05752,0.1489 -0.14734,0.30703 -0.22593,0.44538c0.09412,0.07243 0.14887,0.02367 0.17132,-0.01586c0.43094,-0.52055 0.88295,-1.03057 1.408,-1.47869c0.0772,-0.0883 0.14318,-0.15683 0.17825,-0.26619c0.05184,-0.3294 0.12475,-0.64825 0.09371,-1.06985zM196.53573,132.44224c-0.12905,0.41769 -0.39435,0.74188 -0.63858,1.0766c-0.05614,0.09883 -0.16425,0.14629 -0.17825,0.26619c-0.02661,0.18973 0.04657,0.63239 0.17728,0.92615c0.25975,-0.12392 0.43662,-0.34005 0.6444,-0.51534c0.16425,-0.1463 0.233,-0.31496 0.21748,-0.52576c-0.01136,-0.36099 0.01941,-0.70092 0.13584,-1.04878c0.01123,-0.01977 -0.00845,-0.08036 -0.01829,-0.11067c-0.07305,-0.0619 -0.15732,-0.10404 -0.33987,-0.0684zM188.58928,130.14437c-0.03077,0.33992 -0.24271,0.66542 -0.19905,1.01718c0.15871,0.05396 0.27805,-0.01327 0.40723,-0.05019c0.2373,-0.0844 0.47322,-0.11873 0.70206,-0.28348c0.07568,-0.41899 0.34237,-0.79324 0.45035,-1.22147c-0.07166,-0.11196 -0.177,-0.16463 -0.3048,-0.17777c-0.31728,0.27282 -0.66547,0.50482 -1.05579,0.71574zM192.48793,130.9007c-0.15441,0.17659 -0.30882,0.35319 -0.49276,0.43888c-0.44369,0.20963 -0.61349,0.55618 -0.63581,0.97647c-0.00416,0.15019 -0.07152,0.2688 -0.01248,0.45059c0.32296,-0.09233 0.59394,-0.23602 0.86492,-0.37971c0.07582,-0.03823 0.12073,-0.1173 0.1558,-0.22667c0.08414,-0.33863 0.17811,-0.64695 0.26225,-0.98558c0.03368,-0.0593 0.03645,-0.15943 -0.14193,-0.274zM191.16062,130.2371c-0.33128,0.39272 -0.68224,0.72484 -1.13577,0.90417c-0.09689,0.0277 -0.12073,0.11729 -0.16564,0.19636c-0.07998,0.18843 -0.13889,0.3874 -0.11352,0.62849c0.45214,-0.12926 0.79894,-0.31119 1.15697,-0.51288c0.11934,-0.06723 0.19655,-0.15553 0.24284,-0.28466c0.08137,-0.2385 0.1838,-0.46646 0.26516,-0.70495c0.01123,-0.01977 -0.00845,-0.08036 -0.0183,-0.11067c-0.06321,-0.0316 -0.12641,-0.0632 -0.23175,-0.11587zM199.28271,128.89199c0.028,-0.2398 0.06723,-0.49936 0.09523,-0.73915c-0.00984,-0.0303 -0.01968,-0.0606 -0.03936,-0.1212c-0.3328,0.06203 -0.59394,0.23602 -0.80172,0.41132c-0.20057,0.68649 -0.37869,1.33344 -0.76042,2.00549c0.4746,-0.16879 0.50676,-0.55878 0.71592,-0.78414c0.24285,-0.28465 0.5166,-0.52849 0.79036,-0.77231zM193.95876,124.45367c-0.07596,-0.34253 -0.10977,-0.66399 -0.32614,-0.94982c-0.16287,0.09623 -0.32435,0.14239 -0.45492,0.22939c-0.13057,0.087 -0.28221,0.16346 -0.3608,0.30182c-0.03784,0.2095 0.04227,0.40182 0.06902,0.59286c0.02675,0.19103 0.00014,0.38076 0.11255,0.56386c0.32712,-0.24253 0.62195,-0.47581 0.96029,-0.73811zM189.65396,126.7936c0.4211,-0.55086 0.76499,-1.01341 1.10888,-1.47596c0.02246,-0.03954 0.07721,-0.08829 0.05752,-0.1489c-0.02398,-0.29117 0.01664,-0.60079 -0.17866,-0.87609c-0.24146,0.23459 -0.47169,0.44942 -0.68085,0.67478c0.01566,0.59155 -0.11755,1.15945 -0.30689,1.82617zM192.72619,133.48163c0.26821,-0.04356 0.42262,-0.22015 0.59672,-0.33615c0.20639,-0.12523 0.34957,-0.28206 0.3888,-0.54161c0.06307,-0.34915 0.12614,-0.69832 0.34792,-0.99351c-0.12503,-0.11327 -0.22053,-0.13563 -0.28789,-0.01704c-0.18948,0.28596 -0.39019,0.59169 -0.66256,0.78544c-0.38187,0.29129 -0.38173,0.67205 -0.38298,1.10287zM190.88741,132.00396c-0.46476,0.19909 -0.84247,0.34019 -1.19911,0.49181c-0.07859,0.13836 -0.0603,0.24903 -0.06307,0.34915c0.01829,0.11067 -0.00693,0.25033 0.11809,0.36359c0.32157,-0.04227 0.64454,-0.13459 0.95766,-0.25721c0.08275,-0.28856 0.1332,-0.56789 0.18643,-0.94735zM193.64502,134.62626c-0.0212,-0.3913 -0.0438,-0.73253 -0.05516,-1.09352c-0.29344,0.18323 -0.57565,0.34669 -0.85786,0.51015c0.00152,0.33069 -0.02786,0.62055 0.12391,0.92485c0.29066,-0.0831 0.52935,-0.21756 0.7891,-0.34148zM195.32932,124.32675c-0.32019,-0.00781 -0.52935,0.21756 -0.76804,0.35202c-0.07582,0.03823 -0.11089,0.1476 -0.10243,0.22796c0.01414,0.26086 0.01843,0.49142 0.0438,0.73253c-0.01123,0.01977 0.03091,0.04083 0.07304,0.0619c0.30466,-0.203 0.59949,-0.43628 0.90415,-0.63928c0.00693,-0.25033 -0.0718,-0.49273 -0.15053,-0.73512zM198.20476,126.55112c0.03923,-0.25956 0.06723,-0.49936 -0.08593,-0.75359c-0.26959,0.09363 -0.58133,0.16619 -0.8214,0.35072c-0.01539,0.16996 -0.07291,0.31886 -0.056,0.47959c-0.00416,0.15019 -0.11505,0.2978 0.04089,0.4519c0.31451,-0.17269 0.62901,-0.34538 0.92245,-0.52861zM194.29108,134.82236c-0.01677,0.22003 0.1167,0.41366 0.23896,0.62706c0.30328,-0.15292 0.61501,-0.22549 0.85647,-0.46008c-0.07873,-0.2424 -0.06057,-0.51249 -0.2025,-0.78649c-0.30466,0.203 -0.58826,0.41652 -0.89292,0.61951zM198.02162,132.77904c-0.22316,0.34526 -0.37328,0.75241 -0.63858,1.0766c-0.21055,0.27542 -0.15289,0.50729 0.01011,0.79182c0.27098,-0.14369 0.43662,-0.34005 0.63456,-0.54565c-0.09425,-0.45319 0.01373,-0.88142 -0.00609,-1.32277zM188.6313,125.927c0.0955,0.02237 0.12918,-0.03693 0.16287,-0.09623c0.16702,-0.24642 0.32421,-0.52315 0.5123,-0.75905c0.29759,-0.33342 0.19919,-0.63642 0.0488,-0.99078c-0.12073,0.1173 -0.21901,0.19506 -0.29621,0.28336c-0.19793,0.20559 -0.34251,0.41249 -0.27639,0.72472c0.02675,0.19103 -0.03216,0.38999 -0.07984,0.56919c-0.06598,0.06853 -0.16425,0.1463 -0.07152,0.2688zM187.35067,130.13422c0.15025,-0.0264 0.25837,-0.07386 0.35525,-0.10156c0.3005,-0.05279 0.46476,-0.19909 0.55735,-0.45736c0.07014,-0.21873 0.21471,-0.42563 0.30592,-0.63382c0.03368,-0.0593 0.08843,-0.10806 -0.04782,-0.20156c-0.26253,0.22406 -0.56719,0.42705 -0.90276,0.58921c-0.07582,0.03823 -0.13196,0.13706 -0.17687,0.21613c-0.04768,0.17919 -0.08414,0.33863 -0.09107,0.58895zM192.17438,133.73872c0.028,-0.2398 0.0883,-0.48882 0.04187,-0.74045c-0.33419,0.11209 -0.66699,0.17412 -0.96043,0.35735c0.01414,0.26086 -0.03493,0.49013 0.12946,0.72459c0.26959,-0.09363 0.54903,-0.15696 0.7891,-0.34148zM195.9367,126.30547c0.33419,-0.11209 0.59533,-0.28609 0.81433,-0.48115c-0.01414,-0.26086 -0.01843,-0.49142 -0.107,-0.76412c-0.23591,0.03433 -0.43107,0.13979 -0.6164,0.27555c-0.01955,0.32016 -0.06016,0.62979 -0.09093,0.96972zM189.78282,133.71048c0.04782,0.20157 0.05489,0.332 0.11532,0.46373c0.02952,0.0909 0.07027,0.16203 0.11102,0.23317c0.26682,0.0065 0.53503,-0.03706 0.77372,-0.17152c0.00693,-0.25033 0.01387,-0.50066 -0.11823,-0.74436c-0.29066,0.0831 -0.55887,0.12665 -0.88183,0.21898zM187.6631,128.10778c-0.36648,0.12133 -0.62485,0.19519 -0.92674,0.29805c-0.06598,0.06853 -0.1235,0.21743 -0.12766,0.36763c-0.02523,0.13967 -0.14596,0.25696 -0.07568,0.41899c0.2233,0.0355 0.40585,-0.00013 0.58978,-0.08583c0.15857,-0.32679 0.32698,-0.62328 0.5403,-0.99884zM194.1086,123.28499c0.0492,0.1515 0.09841,0.303 0.14761,0.45449c0.0492,0.1515 0.10964,0.28323 0.15884,0.43473c0.27098,-0.14369 0.50828,-0.22809 0.67392,-0.42445c0.00416,-0.15019 -0.0998,-0.25293 -0.17146,-0.3649c-0.07166,-0.11196 -0.10964,-0.28323 -0.26835,-0.33719c-0.205,0.07516 -0.38755,0.11079 -0.54058,0.23732zM192.30688,135.12469c-0.05627,-0.28192 -0.02689,-0.5718 -0.18989,-0.85632c-0.2373,0.0844 -0.45353,0.17932 -0.69083,0.26372c0.05627,0.28192 0.08164,0.52303 0.27832,0.74826c0.20362,-0.0251 0.38478,-0.01066 0.6024,-0.15565zM191.31589,124.62973c0.3285,-0.29259 0.61349,-0.55618 0.89847,-0.81978c-0.01691,-0.16073 -0.01275,-0.31092 -0.13778,-0.42419c-0.35526,0.10156 -0.61778,0.32562 -0.90138,0.53915c0.01691,0.16073 0.03382,0.32146 0.08302,0.47296c-0.02384,0.0896 0.00707,0.13043 0.05766,0.23186zM189.14051,132.2219c-0.00291,-0.28063 0.13182,-0.51782 0.05309,-0.76022c-0.34403,0.08179 -0.65576,0.15436 -0.95904,0.30728c0.06889,0.2121 -0.04339,0.40976 0.09993,0.6337c0.26682,0.0065 0.49428,-0.10819 0.80602,-0.18075zM199.45071,127.45322c0.00832,-0.3004 0.02648,-0.57049 -0.08455,-0.80365c-0.21485,0.04486 -0.41985,0.12002 -0.59394,0.23602c-0.00832,0.3004 -0.03771,0.59026 -0.06848,0.93018c0.24991,-0.15423 0.46614,-0.24915 0.74697,-0.36255zM187.20901,130.62174c-0.06168,0.29909 -0.12198,0.54813 -0.00112,0.81159c0.22469,-0.01456 0.41708,-0.01989 0.59117,-0.13589c0.05046,-0.27933 0.12198,-0.54813 0.17382,-0.87751c-0.26821,0.04356 -0.51535,0.09766 -0.76388,0.20182zM197.30145,125.6173c0.28221,-0.16346 0.58133,-0.16619 0.74697,-0.36255c-0.01414,-0.26086 -0.11532,-0.46373 -0.2488,-0.65736c-0.24714,0.0541 -0.48305,0.08842 -0.66976,0.27425c0.05766,0.23186 0.09425,0.4532 0.17159,0.74566zM194.01191,135.64721c-0.06889,-0.2121 -0.09564,-0.40313 -0.24035,-0.57699c-0.27098,0.14369 -0.58133,0.16619 -0.81156,0.38102c0.04782,0.20157 0.12932,0.34383 0.30771,0.4584c0.25837,-0.07386 0.5069,-0.17802 0.7442,-0.26242zM190.54884,123.78939c-0.03659,-0.22133 -0.09703,-0.35307 -0.21082,-0.48609c-0.2373,0.0844 -0.47598,0.21886 -0.61071,0.45605c0.05905,0.1818 0.11809,0.36359 0.16591,0.56516c0.29205,-0.13316 0.44785,-0.35982 0.65562,-0.53511zM198.4409,134.99365c-0.07027,-0.16203 -0.13071,-0.29376 -0.24589,-0.37673c-0.23868,0.13446 -0.43523,0.28999 -0.60088,0.48636c0.03798,0.17127 0.09841,0.303 0.22344,0.41626c0.25975,-0.12392 0.41556,-0.35059 0.62333,-0.52588zM190.26351,134.86447c-0.00832,0.3004 0.149,0.40443 0.34985,0.47947c0.14748,0.07373 0.31742,0.10794 0.47044,-0.01859c-0.03659,-0.22133 -0.08441,-0.42289 -0.21789,-0.61652c-0.21485,0.04486 -0.40862,0.10025 -0.6024,0.15565zM200.2617,129.40683c0.03784,-0.2095 0.12766,-0.36763 0.03632,-0.54019c-0.61224,0.12536 -0.72022,0.55359 -0.74531,1.07401c0.24007,-0.18453 0.46892,-0.34929 0.70899,-0.53382zM188.56237,133.43024c0.23453,0.01573 0.41708,-0.0199 0.64454,-0.13459c-0.09134,-0.17257 -0.00014,-0.38076 -0.12377,-0.54409c-0.13764,-0.04344 -0.22469,0.01456 -0.34264,0.03173c-0.12918,0.03693 -0.25698,0.02379 -0.33557,0.16216c0.01691,0.16073 0.03382,0.32146 0.15746,0.4848zM194.02914,128.85413c0.16439,0.23446 0.31325,0.25813 0.43537,0.09077c0.16702,-0.24642 0.29191,-0.51392 0.40557,-0.76165c0.04491,-0.07907 0.07998,-0.18843 -0.02398,-0.29117c-0.30744,0.30313 -0.57274,0.62732 -0.81697,0.96204zM195.19036,136.28715c-0.02523,0.13967 0.02537,0.24109 0.14055,0.32407c0.31173,-0.07256 0.65437,-0.10429 0.93797,-0.31782c-0.18546,-0.245 -0.39753,-0.30027 -0.65728,-0.17634c-0.12918,0.03693 -0.28928,0.03302 -0.42124,0.17009zM196.9646,130.06794c0.29496,0.14746 0.38062,0.13954 0.48167,-0.03836c0.13611,-0.28726 0.28346,-0.59428 0.3353,-0.92368c-0.37064,0.27153 -0.70899,0.53382 -0.81697,0.96204zM198.96984,133.63382c-0.11089,0.1476 -0.18948,0.28596 -0.28914,0.41379c-0.17825,0.26619 -0.17825,0.26619 0.14484,0.55463c0.12073,-0.1173 0.27376,-0.24382 0.33974,-0.31236c-0.07873,-0.2424 -0.12655,-0.44396 -0.19544,-0.65606zM197.21788,123.62129c-0.18255,0.03563 -0.39462,-0.01964 -0.51812,0.19779c0.07027,0.16203 0.17284,0.31483 0.25296,0.50716c0.21485,-0.04486 0.43953,-0.05942 0.59255,-0.18596c-0.09134,-0.17257 -0.15039,-0.35436 -0.32739,-0.51899zM196.79769,134.5528c-0.2513,0.20429 -0.52367,0.39805 -0.77497,0.60234c-0.014,0.1199 0.0043,0.23056 0.15316,0.25423c0.29066,-0.0831 0.56165,-0.22679 0.77081,-0.45215c-0.01691,-0.16073 -0.05627,-0.28193 -0.149,-0.40443zM199.8944,127.2436c0.15871,0.05396 0.30896,0.02757 0.4606,-0.04889c0.00277,-0.10013 0.00554,-0.20026 0.00832,-0.3004c-0.00707,-0.13043 0.00693,-0.25033 -0.09703,-0.35307c-0.12641,-0.0632 -0.25421,-0.07634 -0.39462,-0.01964c0.0043,0.23056 0.01843,0.49142 0.02273,0.72199zM195.96845,124.77318c0.21485,-0.04486 0.37771,-0.14109 0.53074,-0.26762c-0.10118,-0.20286 -0.1813,-0.39519 -0.27264,-0.56776c-0.20223,-0.02497 -0.35387,0.0515 -0.4423,0.15956c0.05766,0.23186 0.11532,0.46373 0.18421,0.67582zM200.38909,128.27769c0.00416,-0.15019 0.00832,-0.3004 -0.00859,-0.46113c-0.00984,-0.0303 -0.05198,-0.05137 -0.08289,-0.0922c-0.11796,0.01716 -0.26682,-0.0065 -0.41985,0.12003c-0.02661,0.18973 -0.09675,0.40846 -0.03909,0.64032c0.22469,-0.01456 0.37633,-0.09103 0.55042,-0.20702zM200.54016,130.53585c0.14457,-0.2069 0.39878,-0.13056 0.51105,-0.32822c0.00554,-0.20026 0.08552,-0.38869 0.0068,-0.63109c-0.20362,0.0251 -0.38617,0.06073 -0.42401,0.27023c-0.03784,0.2095 -0.15996,0.37686 -0.09384,0.68909zM196.88389,136.06791c0.16287,-0.09623 0.3468,-0.18192 0.49844,-0.25839c0.0323,-0.00923 0.03368,-0.0593 0.05614,-0.09883c-0.08289,-0.0922 -0.13209,-0.24369 -0.35539,-0.27919c-0.19516,0.10546 -0.40155,0.23069 -0.62901,0.34538c0.10257,0.1528 0.21775,0.23577 0.42983,0.29103zM195.92022,123.42935c-0.05905,-0.1818 -0.10686,-0.38336 -0.15607,-0.53486c-0.2233,-0.0355 -0.40585,0.00013 -0.56733,0.04629c-0.05752,0.1489 0.07873,0.2424 0.12932,0.34383c0.05059,0.10143 0.08996,0.22263 0.24866,0.2766c0.10673,0.0026 0.22468,-0.01456 0.34541,-0.13186zM187.18419,131.90368c0.02675,0.19103 0.05489,0.332 0.08302,0.47296c-0.00139,0.05007 0.05059,0.10143 0.06043,0.13173c0.14748,0.07373 0.29773,0.04734 0.44937,-0.02913c-0.01552,-0.2108 -0.00998,-0.41106 -0.07887,-0.62316c-0.16009,-0.0039 -0.31034,0.0225 -0.51396,0.04759zM199.54992,133.89845c0.23023,-0.21483 0.46046,-0.42965 0.55444,-0.73798c-0.2233,-0.0355 -0.40307,-0.10001 -0.59824,0.00546c-0.08552,0.38869 -0.08552,0.38869 0.0438,0.73253zM188.76335,133.88604c0.14484,0.55463 0.16591,0.56516 0.65742,0.5571c-0.04782,-0.20157 -0.12793,-0.3939 -0.17575,-0.59546c-0.15871,-0.05396 -0.30896,-0.02757 -0.48167,0.03836zM199.29576,126.10678c-0.01552,-0.2108 -0.0535,-0.38206 -0.17714,-0.54539c-0.05337,-0.0013 -0.13902,0.00663 -0.22468,0.01456c-0.06459,0.01846 -0.14041,0.0567 -0.205,0.07517c0.01552,0.2108 -0.00125,0.43082 0.11116,0.61392c0.16009,0.0039 0.3328,-0.06203 0.49567,-0.15826zM186.44776,130.34266c0.08566,-0.00793 0.20361,-0.0251 0.25837,-0.07386c0.18671,-0.18583 0.25685,-0.40455 0.23287,-0.69572c-0.17132,0.01586 -0.36232,-0.02887 -0.49289,0.05813c-0.028,0.2398 -0.13043,0.46776 0.00166,0.71145zM191.87561,122.92996c-0.00984,-0.0303 -0.01968,-0.0606 -0.03936,-0.12119c-0.36371,0.02119 -0.6979,0.13329 -1.03209,0.24538c-0.01539,0.16996 0.03521,0.2714 0.19253,0.37543c0.28221,-0.16346 0.58549,-0.31638 0.87892,-0.49961zM196.21279,128.6769c-0.29482,0.23329 -0.59949,0.43628 -0.76929,0.78284c-0.01123,0.01977 0.05059,0.10143 0.09273,0.1225c0.10534,0.05267 0.23453,0.01573 0.29066,-0.0831c0.20916,-0.22536 0.31298,-0.50338 0.3859,-0.82224zM198.99345,125.06736c-0.03798,-0.17127 -0.07595,-0.34253 -0.17852,-0.49532c-0.14748,-0.07373 -0.27528,-0.08687 -0.45921,-0.00117c0.08011,0.19233 0.149,0.40443 0.24035,0.57699c0.14887,0.02367 0.26682,0.0065 0.39739,-0.0805zM191.78613,135.80338c0.28373,0.16723 0.52533,0.3134 0.85674,0.30144c0.03784,-0.2095 -0.06473,-0.3623 -0.19959,-0.50586c-0.23591,0.03433 -0.43953,0.05942 -0.65715,0.20442zM186.2784,127.97384c0.25698,-0.0238 0.28928,-0.03302 0.32296,-0.09233c0.13334,-0.18713 0.12905,-0.41769 0.11352,-0.62849c-0.00845,-0.08036 -0.10257,-0.1528 -0.23314,-0.0658c0.02537,0.24109 -0.20487,0.45592 -0.20334,0.78662zM192.63976,123.48966c0.30328,-0.15292 0.6164,-0.27555 0.82833,-0.60105c-0.37355,-0.00911 -0.65576,0.15436 -0.91552,0.27828c-0.03507,0.10936 0.00568,0.1805 0.08718,0.32276zM187.83897,132.94167c-0.13902,0.00663 -0.26682,-0.0065 -0.40585,0.00013c0.0043,0.23056 0.05211,0.43213 0.31755,0.4887c0.07443,0.01183 0.14887,0.02367 0.21484,-0.04486c0.02523,-0.13967 -0.0352,-0.2714 -0.12655,-0.44396zM198.48847,130.57603c0.18962,0.0948 0.29635,0.0974 0.3651,-0.07126c0.05752,-0.1489 0.11505,-0.2978 0.1515,-0.45722c0.01261,-0.06983 0.00416,-0.15019 -0.09135,-0.17257c-0.19793,0.20559 -0.32143,0.42302 -0.42526,0.70105zM190.70697,126.17799c-0.23023,0.21483 -0.41832,0.45072 -0.50108,0.73928c-0.01123,0.01977 0.05059,0.10143 0.07166,0.11196c0.04214,0.02107 0.11796,-0.01716 0.14041,-0.05669c0.12489,-0.2675 0.30175,-0.48362 0.289,-0.79455zM189.31395,126.34444c0.04907,-0.22926 0.17257,-0.44669 0.16966,-0.72732c-0.2513,0.20429 -0.41694,0.40065 -0.4211,0.55086c-0.02523,0.13967 0.05905,0.1818 0.25144,0.17646zM193.9645,136.58792c0.28651,0.0671 0.58146,0.21457 0.86367,0.05111c-0.28942,-0.34773 -0.57162,-0.18427 -0.86367,-0.05111zM195.71294,132.84302c0.04214,0.02107 0.07443,0.01183 0.11657,0.0329c0.09121,-0.20819 0.27653,-0.34396 0.27223,-0.57453c-0.11518,-0.08296 -0.18962,-0.0948 -0.30896,-0.02757c-0.01539,0.16996 -0.042,0.35969 -0.07984,0.56919zM193.33777,127.5948c-0.22039,0.24513 -0.38603,0.44149 -0.49969,0.68922c-0.02246,0.03954 -0.00277,0.10013 0.06043,0.13173c0.02107,0.01054 0.07443,0.01183 0.10673,0.0026c0.23023,-0.21483 0.36496,-0.45202 0.33253,-0.82355zM186.6712,130.75893c-0.14887,-0.02367 -0.23453,-0.01573 -0.22607,0.06463c-0.01539,0.16996 -0.00971,0.35046 -0.00402,0.53096c0.01829,0.11067 0.0815,0.14227 0.18962,0.0948c0.0603,-0.24903 0.09814,-0.45853 0.04048,-0.69039zM198.1126,124.094c0.11796,-0.01716 0.22469,-0.01456 0.34264,-0.03173c0.0323,-0.00923 0.05475,-0.04877 0.1095,-0.09753c-0.25282,-0.1264 -0.45089,-0.30157 -0.76969,-0.35944c0.08011,0.19233 0.14055,0.32407 0.31755,0.4887zM190.40215,129.85789c-0.09121,0.20819 -0.17119,0.39663 -0.28485,0.64435c0.32296,-0.09233 0.48721,-0.23863 0.57842,-0.44682c-0.07166,-0.11196 -0.12364,-0.16333 -0.29357,-0.19753zM197.29835,132.67124c0.00568,0.1805 -0.15996,0.37686 0.00443,0.61132c0.33267,-0.44279 0.3888,-0.54162 0.30592,-0.63382c-0.10534,-0.05267 -0.19101,-0.04473 -0.31035,0.0225zM192.0512,127.00233c-0.42123,0.17009 -0.55596,0.40728 -0.6401,0.74591c0.42969,-0.08973 0.41833,-0.45072 0.6401,-0.74591zM200.13418,130.15522c-0.38894,0.16086 -0.51244,0.37829 -0.60503,0.63655c-0.01123,0.01977 0.01968,0.0606 0.06182,0.08167c0.06321,0.0316 0.1278,0.01313 0.15025,-0.0264c0.13334,-0.18713 0.22455,-0.39532 0.39296,-0.69182zM198.47806,132.88035c-0.03784,0.2095 -0.12905,0.41769 0.00305,0.66139c0.17548,-0.16606 0.25546,-0.35449 0.32421,-0.52315c-0.09273,-0.1225 -0.18823,-0.14487 -0.32726,-0.13823zM201.0691,129.17602c-0.04643,-0.25163 0.07707,-0.46905 -0.0887,-0.65346c-0.22039,0.24513 -0.22039,0.24513 -0.14582,0.63772c0.05337,0.0013 0.10673,0.0026 0.23453,0.01573zM194.77731,135.77609c0.32864,0.08817 0.57717,-0.01599 0.81585,-0.15045c0.00416,-0.15019 -0.08011,-0.19233 -0.177,-0.16463c-0.19516,0.10546 -0.4114,0.20039 -0.63885,0.31509zM199.75774,126.00782c0.13764,0.04344 0.25421,0.07633 0.38478,-0.01067c-0.02814,-0.14096 -0.05627,-0.28192 -0.17146,-0.3649c-0.11657,-0.0329 -0.20223,-0.02497 -0.28928,0.03303c-0.014,0.1199 0.01552,0.2108 0.07595,0.34253zM193.07383,131.7266c0.15303,-0.12653 0.26253,-0.22406 0.28775,-0.36372c0.00139,-0.05007 -0.02952,-0.0909 -0.06043,-0.13173c-0.06321,-0.0316 -0.16993,-0.03421 -0.18255,0.03563c-0.06736,0.1186 -0.14596,0.25696 -0.04477,0.45982zM196.81467,123.14053c-0.15594,-0.1541 -0.38062,-0.13954 -0.57162,-0.18427c0.10687,0.38336 0.149,0.40442 0.57162,0.18427zM188.14534,125.7348c0.25269,-0.25436 0.25269,-0.25436 0.13043,-0.46776c-0.1095,0.09753 -0.23023,0.21483 -0.13043,0.46776zM194.66215,131.83546c-0.05059,-0.10143 -0.1138,-0.13303 -0.15732,-0.10404c-0.19516,0.10546 -0.20777,0.17529 -0.11921,0.44799c0.1418,-0.10677 0.20917,-0.22536 0.27653,-0.34396zM200.92924,130.75576c-0.16148,0.04616 -0.30189,0.10286 -0.33835,0.26229c0.37078,0.10923 0.41431,0.08024 0.33835,-0.26229zM188.09586,124.82178c-0.205,0.07516 -0.31589,0.22276 -0.41555,0.35059c-0.04491,0.07907 -0.01539,0.16996 0.15593,0.1541c0.09966,-0.12783 0.21055,-0.27542 0.25962,-0.50469zM200.92815,127.70968c-0.15441,0.17659 -0.14734,0.30702 -0.00125,0.43082c0,0 0.05336,0.0013 0.06459,-0.01846c0.08843,-0.10806 0.00693,-0.25033 -0.06334,-0.41236zM191.75206,130.86273c0.14887,0.02367 0.23591,-0.03433 0.25975,-0.12392c0.02246,-0.03954 0.00277,-0.10013 -0.02814,-0.14096c-0.03091,-0.04083 -0.11657,-0.0329 -0.13902,0.00663c-0.05475,0.04877 -0.09966,0.12783 -0.09259,0.25826zM199.40346,124.91704c0.00568,0.1805 0.05627,0.28192 0.26973,0.28713c-0.01552,-0.2108 -0.07734,-0.29246 -0.26973,-0.28713z" fill="#000000"/><path d="M187.54717,137.69403c0.66297,0.35684 1.32593,0.71368 2.00012,1.05075c0.75847,0.3792 1.56184,0.67934 2.40029,0.87012c0.26544,0.05657 0.51119,0.05254 0.80893,0.09988c-0.17964,0.31626 -0.31576,0.60352 -0.49401,0.86972c-1.02738,1.61823 -1.96065,3.30888 -2.95712,4.96794c-0.89543,1.48116 -1.75855,2.95309 -2.63291,4.44478c-0.6049,1.01731 -1.19857,2.01486 -1.80346,3.03216c-0.57121,0.95801 -1.08906,1.91732 -1.66028,2.87533c-0.04491,0.07907 -0.08982,0.15813 -0.1558,0.22666c-0.41846,0.06996 -0.79063,0.01079 -1.1937,-0.08921c-0.63621,-0.16581 -1.27104,-0.38168 -1.84973,-0.69638c-0.18962,-0.0948 -0.39046,-0.16984 -0.50287,-0.35294c0.21207,0.05527 0.38907,0.2199 0.67697,0.23694c0.03216,-0.38999 0.28623,-0.69442 0.4448,-1.02121c0.01123,-0.01977 0.02246,-0.03953 0.00139,-0.05006c0.13459,-0.61795 0.46019,-1.19118 0.66922,-1.79729c0.07014,-0.21873 0.07707,-0.46905 0.23148,-0.64565c0.26668,-0.37426 0.29039,-0.84461 0.55708,-1.21887c0.01123,-0.01977 0.01261,-0.06983 0.03507,-0.10936c0.15012,-0.40715 0.26794,-0.80508 0.46019,-1.19118c0.247,-0.43486 0.30301,-0.91445 0.59215,-1.32824c0.01955,-0.32016 0.20764,-0.55605 0.34376,-0.84332c0.02246,-0.03954 0.03368,-0.0593 0.05614,-0.09883c0.056,-0.47959 0.37605,-0.85255 0.51633,-1.29c0.14028,-0.43746 0.41819,-0.83149 0.57953,-1.25841c0.19503,-0.48622 0.31562,-0.98428 0.64828,-1.42706c0.02246,-0.03954 0.05614,-0.09883 0.05752,-0.1489c-0.00291,-0.28063 0.19503,-0.48622 0.30869,-0.73395c0.06736,-0.1186 0.16702,-0.24642 0.19225,-0.38609c0.01677,-0.22003 0.12766,-0.36763 0.22871,-0.54553c0.05614,-0.09883 0.13334,-0.18713 0.13612,-0.28725c0.01955,-0.32016 0.21887,-0.57582 0.36483,-0.83278c0.05614,-0.09883 0.13334,-0.18713 0.13611,-0.28726c0.01816,-0.27009 0.16273,-0.47699 0.28623,-0.69442c0.20209,-0.35579 0.25671,-0.78532 0.47987,-1.13058c0.05475,-0.04877 0.02523,-0.13967 0.03784,-0.2095z" fill="#87d7dc"/><path d="M187.54717,137.69403c-0.01261,0.06983 0.01691,0.16073 -0.01678,0.22003c-0.22316,0.34526 -0.29885,0.76425 -0.47987,1.13058c-0.1235,0.21742 -0.26807,0.42432 -0.28623,0.69442c-0.00277,0.10013 -0.07998,0.18843 -0.13612,0.28726c-0.14596,0.25696 -0.32421,0.52315 -0.36482,0.83278c-0.00277,0.10013 -0.10105,0.1779 -0.13612,0.28726c-0.10105,0.1779 -0.19087,0.33603 -0.22871,0.54553c-0.02523,0.13967 -0.12489,0.2675 -0.19225,0.38609c-0.11366,0.24773 -0.3116,0.45332 -0.30869,0.73395c-0.00139,0.05007 -0.03507,0.10936 -0.05752,0.1489c-0.32144,0.42303 -0.45326,0.94084 -0.64828,1.42706c-0.17257,0.44669 -0.45048,0.84072 -0.57953,1.25841c-0.14028,0.43746 -0.46033,0.81041 -0.51633,1.29c0.00984,0.0303 -0.03368,0.0593 -0.05614,0.09883c-0.14596,0.25696 -0.32421,0.52315 -0.34376,0.84332c-0.31021,0.40326 -0.36621,0.88285 -0.59215,1.32824c-0.21332,0.37556 -0.31007,0.78401 -0.46019,1.19118c-0.02246,0.03954 -0.01261,0.06983 -0.03507,0.10936c-0.26668,0.37426 -0.29039,0.84461 -0.55708,1.21887c-0.14457,0.2069 -0.14027,0.43746 -0.23148,0.64566c-0.2301,0.59559 -0.53462,1.17934 -0.66922,1.79729c-0.01123,0.01977 -0.00139,0.05007 -0.00139,0.05007c-0.15857,0.32679 -0.41264,0.63122 -0.4448,1.02121c-0.26682,-0.0065 -0.4326,-0.1909 -0.67697,-0.23694c-0.16855,-0.08427 -0.3371,-0.16854 -0.41721,-0.36086c0.06736,-0.1186 0.16703,-0.24642 0.19225,-0.38609c0.0883,-0.48882 0.34514,-0.89338 0.53878,-1.32954c0.19364,-0.43615 0.28194,-0.92498 0.59215,-1.32824c0.01955,-0.32016 0.20764,-0.55605 0.34376,-0.84332c0.02246,-0.03954 0.05614,-0.09883 0.05752,-0.1489c-0.0043,-0.23056 0.15012,-0.40716 0.23009,-0.59559c0.05614,-0.09883 0.11227,-0.19766 0.13612,-0.28725c0.14166,-0.48753 0.31562,-0.98428 0.57385,-1.4389c0.03368,-0.0593 0.09966,-0.12783 0.07998,-0.18843c0.00693,-0.25033 0.14028,-0.43746 0.25255,-0.63512c0.14457,-0.2069 0.10937,-0.4783 0.26516,-0.70495c0.20071,-0.30573 0.26378,-0.65488 0.40128,-0.99221c0.20487,-0.45592 0.31423,-0.93422 0.57247,-1.38883c0.04491,-0.07907 0.12211,-0.16736 0.11366,-0.24773c0.00554,-0.20026 0.12766,-0.36763 0.20764,-0.55605c0.08982,-0.15813 0.15857,-0.32679 0.19502,-0.48622c0.06168,-0.29909 0.1655,-0.57712 0.32269,-0.85385c0.21471,-0.42563 0.30301,-0.91445 0.61322,-1.31771c0.02246,-0.03954 0.03507,-0.10936 0.05752,-0.1489c0.17257,-0.44669 0.32407,-0.90391 0.53878,-1.32954c0.247,-0.43486 0.32546,-0.95397 0.6146,-1.36777c0.03368,-0.0593 0.02523,-0.13967 0.03784,-0.2095c0.10382,-0.27803 0.23994,-0.56528 0.4491,-0.79065c0.11657,0.0329 0.20084,0.07504 0.29635,0.0974c0.26128,0.20677 0.49165,0.3727 0.75431,0.5294z" fill="#b0eef2"/><path d="M201.15988,131.68321c-0.15012,0.40715 -0.29746,0.71418 -0.55015,0.96854c-0.25837,0.07386 -0.5238,0.01729 -0.80047,-0.0195c-1.34964,-0.24332 -2.68804,-0.50639 -3.97877,-0.94867c-0.97331,-0.33434 -1.96769,-0.67922 -2.90593,-1.12292c-0.25282,-0.1264 -0.51549,-0.28311 -0.80199,-0.35021c-0.11657,-0.0329 -0.24298,-0.0961 -0.36939,-0.1593c-0.46074,-0.33186 -0.98883,-0.54514 -1.48325,-0.8177c-0.7051,-0.3779 -1.3653,-0.83487 -2.00303,-1.33137c-0.31325,-0.25813 -0.63774,-0.4965 -0.98329,-0.7454c-0.2725,-0.187 -0.45796,-0.432 -0.65465,-0.65724c0.05461,-0.42953 0.11214,-0.57842 0.42374,-1.03174c0.45228,0.2515 0.82735,0.5913 1.25718,0.88233c0.40876,0.2805 0.83858,0.57153 1.25857,0.83227c0.44105,0.27127 0.9144,0.5333 1.36668,0.78481c0.41999,0.26073 0.9284,0.4134 1.31471,0.73344c0.51965,0.1329 0.94947,0.42394 1.4242,0.63591c0.45367,0.20144 0.93963,0.39363 1.40453,0.57531c0.48596,0.19221 0.98315,0.36464 1.50141,0.54761c0.47612,0.1619 0.96208,0.35411 1.44943,0.49624c0.50842,0.15267 1.01822,0.25527 1.53787,0.38818c0.54071,0.14344 1.02806,0.28557 1.59262,0.33942z" fill="#d1eaeb"/><path d="M186.8027,137.19492c-0.0955,-0.02237 -0.17978,-0.0645 -0.29635,-0.0974c-0.20916,0.22536 -0.35512,0.48232 -0.4491,0.79065c-0.01261,0.06983 -0.00416,0.15019 -0.03784,0.2095c-0.28914,0.41379 -0.38867,0.92239 -0.6146,1.36777c-0.23578,0.41509 -0.36621,0.88285 -0.53878,1.32954c-0.02246,0.03954 -0.03507,0.10936 -0.05752,0.1489c-0.31021,0.40326 -0.36621,0.88285 -0.61322,1.31771c-0.14596,0.25696 -0.26101,0.55475 -0.32269,0.85385c-0.04768,0.17919 -0.11643,0.34786 -0.19502,0.48622c-0.10105,0.1779 -0.21194,0.32549 -0.20764,0.55605c0.00845,0.08036 -0.06875,0.16866 -0.11366,0.24773c-0.247,0.43486 -0.3676,0.93291 -0.57247,1.38883c-0.1375,0.33732 -0.20057,0.68649 -0.40128,0.99221c-0.14457,0.2069 -0.10937,0.47829 -0.26516,0.70495c-0.13334,0.18713 -0.27792,0.39403 -0.25255,0.63512c-0.01261,0.06983 -0.0463,0.12913 -0.07998,0.18843c-0.25823,0.45463 -0.42096,0.93161 -0.57385,1.4389c-0.03507,0.10936 -0.11227,0.19766 -0.13611,0.28726c-0.10105,0.1779 -0.23439,0.36503 -0.23009,0.59559c-0.00139,0.05007 -0.03507,0.10936 -0.05752,0.1489c-0.14596,0.25696 -0.32421,0.52315 -0.34376,0.84332c-0.31021,0.40326 -0.39851,0.89208 -0.59215,1.32824c-0.19364,0.43615 -0.46171,0.86048 -0.53878,1.32954c-0.02523,0.13967 -0.12489,0.2675 -0.19225,0.38609c-0.20084,-0.07504 -0.25989,-0.25684 -0.39614,-0.35034c0.36621,-0.88285 0.6889,-1.73669 1.03266,-2.58001c0.3676,-0.93291 0.74504,-1.83552 1.1337,-2.75791c0.35499,-0.86308 0.68889,-1.73669 1.02281,-2.61031c0.42512,-1.08181 0.81795,-2.15438 1.23184,-3.21643c0.3213,-0.80378 0.6426,-1.60757 0.94284,-2.42188c0.49387,-1.25047 1.08324,-2.47857 1.53498,-3.75011c0.06875,-0.16866 0.09537,-0.3584 0.25962,-0.50469c0.18962,0.0948 0.34555,0.2489 0.51271,0.38323c0.08289,0.0922 0.29496,0.14746 0.40737,0.33057z" fill="#87d7dc"/><path d="M179.6473,155.69764c0.46489,0.18167 0.86381,0.43187 1.33993,0.59378c0.55056,0.17373 1.11234,0.32771 1.74148,0.36309c-0.65119,1.14643 -1.29116,2.27311 -1.9199,3.38002c-0.35526,0.10156 -0.67406,0.04369 -0.98302,0.01612c-0.58562,-0.06438 -1.09265,-0.26711 -1.62075,-0.48038c-0.02107,-0.01054 -0.05198,-0.05137 -0.06182,-0.08167c0.25698,-0.0238 0.2836,-0.21353 0.33128,-0.39272c0.11921,-0.44799 0.25948,-0.88545 0.5051,-1.27024c0.04491,-0.07907 0.08982,-0.15813 0.11366,-0.24773c0.08691,-0.43876 0.33253,-0.82355 0.48265,-1.23071c0.08137,-0.2385 0.12905,-0.41769 0.07139,-0.64955z" fill="#61afb4"/><path d="M187.97992,134.40801c0.67003,0.48727 1.41866,0.83617 2.12238,1.26414c0.32587,0.1883 0.68542,0.3173 1.04497,0.4463c0.65451,0.27647 1.28518,0.64254 1.9846,0.83995c0.27528,0.08687 0.55056,0.17373 0.81599,0.23031c0.16993,0.0342 0.32864,0.08817 0.47612,0.1619c-0.01261,0.06983 -0.014,0.1199 -0.03646,0.15943c-0.08982,0.15813 -0.17964,0.31626 -0.26946,0.47438c-0.13902,0.00663 -0.24575,0.00403 -0.37355,-0.00911c-0.8932,-0.14201 -1.80746,-0.29455 -2.62913,-0.70536c-0.72756,-0.33838 -1.47618,-0.68728 -2.15883,-1.10471c-0.5464,-0.32394 -1.10402,-0.62811 -1.53953,-1.09964c0.1278,0.01313 0.22053,0.13563 0.37216,0.05917c0.16564,-0.19636 0.3748,-0.42172 0.19073,-0.71678z" fill="#61aeb3"/><path d="M187.73333,135.98515c0.38062,0.13954 0.65035,0.42667 0.99729,0.62551c0.74724,0.39897 1.49448,0.79794 2.2754,1.13761c0.63344,0.26594 1.29072,0.44228 1.94939,0.56855c0.16993,0.0342 0.33987,0.0684 0.50981,0.10261c-0.15718,0.27673 -0.29191,0.51392 -0.43787,0.77088c-0.38755,0.11079 -0.75972,0.05162 -1.1305,-0.05761c-0.44521,-0.12107 -0.91149,-0.25267 -1.34409,-0.44357c-0.99299,-0.39494 -1.89755,-0.89795 -2.83441,-1.39171c-0.16855,-0.08427 -0.33709,-0.16854 -0.42844,-0.34111c0.05614,-0.09883 0.13334,-0.18713 0.13611,-0.28726c0.028,-0.2398 0.1838,-0.46646 0.3073,-0.68388z" fill="#61aeb3"/><path d="M179.6473,155.69764c0.04782,0.20157 0.0212,0.3913 -0.07,0.59949c-0.15012,0.40715 -0.39574,0.79195 -0.48265,1.2307c-0.02384,0.0896 -0.06875,0.16866 -0.11366,0.24773c-0.23578,0.41509 -0.36482,0.83278 -0.5051,1.27024c-0.03645,0.15943 -0.0743,0.36892 -0.33128,0.39272c-0.32726,-0.13823 -0.59976,-0.32523 -0.81751,-0.561c0.09398,-0.30833 0.16689,-0.62719 0.36621,-0.88285c0.02246,-0.03954 0.03507,-0.10936 0.05752,-0.1489c0.16134,-0.42692 0.33391,-0.87361 0.51633,-1.29c0.07998,-0.18843 0.1698,-0.34656 0.22871,-0.54553c0.0603,-0.24903 0.17396,-0.49675 0.4028,-0.66151c0.11657,0.0329 0.20084,0.07504 0.29635,0.0974c0.14748,0.07373 0.3048,0.17777 0.45228,0.2515z" fill="#87d7dc"/><path d="M193.98426,125.07552c0.09564,0.40313 0.02134,0.77205 -0.07403,1.13045c-0.02384,0.0896 -0.09121,0.20819 -0.15718,0.27673c-0.49414,0.48895 -0.90402,1.02004 -1.29282,1.56166c-0.01123,0.01977 -0.05475,0.04877 -0.08705,0.058c-0.11796,0.01716 -0.2233,-0.0355 -0.29496,-0.14746c0.02246,-0.03954 0.02384,-0.0896 0.0463,-0.12913c0.29053,-0.46386 0.51785,-0.95931 0.6286,-1.48766c0.07152,-0.2688 0.19503,-0.48622 0.4351,-0.67076c0.27237,-0.19376 0.48153,-0.41912 0.79604,-0.59182z" fill="#cce5e6"/><path d="M191.0248,127.42821c-0.16009,-0.0039 -0.23314,-0.0658 -0.26266,-0.15671c0.49678,-0.96984 0.49678,-0.96984 0.63124,-1.96856c0.233,-0.31496 0.57135,-0.57725 0.85633,-0.84084c0.16993,0.0342 0.12364,0.16333 0.13209,0.24369c0.02398,0.29117 0.05918,0.56255 0.02979,0.85242c-0.02661,0.18973 -0.08414,0.33863 -0.21609,0.47569c-0.4071,0.43096 -0.80435,0.8922 -1.1707,1.39429z" fill="#cce5e6"/><path d="M179.17395,155.43561c-0.0955,-0.02237 -0.17978,-0.0645 -0.29635,-0.0974c-0.22884,0.16476 -0.3425,0.41248 -0.4028,0.66151c-0.05891,0.19896 -0.14873,0.35709 -0.22871,0.54553c-0.18241,0.41639 -0.35498,0.86308 -0.51633,1.29c-0.02246,0.03954 -0.03507,0.10936 -0.05752,0.1489c-0.18948,0.28596 -0.25117,0.58505 -0.36621,0.88285c-0.14609,-0.1238 -0.27112,-0.23707 -0.3723,-0.43993c0.25116,-0.58505 0.47142,-1.21093 0.75488,-1.80523c0.25116,-0.58505 0.41805,-1.21224 0.75488,-1.80523c0.32587,0.1883 0.53378,0.39377 0.73047,0.619z" fill="#60adb2"/><path d="M195.09614,131.97629c0.0955,0.02237 0.16993,0.0342 0.26544,0.05657c0.01968,0.0606 0.02952,0.0909 0.03936,0.12119c-0.10659,0.37815 -0.13875,0.76815 -0.14984,1.16868c-0.01539,0.16996 -0.06168,0.29909 -0.20348,0.40586c-0.26253,0.22406 -0.49414,0.48895 -0.90276,0.58921c-0.10687,-0.38336 -0.07471,-0.77336 -0.02148,-1.15281c0.01261,-0.06983 0.08982,-0.15813 0.1558,-0.22666c0.2653,-0.32419 0.5306,-0.64838 0.81697,-0.96204z" fill="#cce5e6"/><path d="M198.23165,127.12292c-0.028,0.2398 -0.03216,0.38999 -0.04755,0.55996c-0.04062,0.30963 -0.15428,0.55736 -0.43787,0.77088c-0.45907,0.37959 -0.86617,0.81054 -1.14686,1.3047c-0.08982,0.15813 -0.12212,0.16736 -0.36371,0.02119c0.03368,-0.0593 0.04629,-0.12913 0.07998,-0.18843c0.30176,-0.48362 0.50801,-0.98961 0.65106,-1.5272c0.0463,-0.12913 0.08137,-0.2385 0.17964,-0.31626c0.33696,-0.21223 0.63179,-0.44552 1.08532,-0.62484z" fill="#cae2e3"/><path d="M193.49966,128.69092c-0.00984,-0.0303 -0.00845,-0.08036 0.00277,-0.10013c0.30037,-0.43355 0.4631,-0.91055 0.59353,-1.37831c0.14028,-0.43746 0.3536,-0.81301 0.7776,-1.08324c0.20639,-0.12523 0.35096,-0.33213 0.58826,-0.41652c0.10132,0.58363 -0.08386,1.10015 -0.47835,1.46127c-0.47169,0.44942 -0.95322,0.86853 -1.25775,1.45229c-0.05475,0.04877 -0.09966,0.12783 -0.22607,0.06463z" fill="#c9e1e2"/><path d="M196.74562,126.40534c0.03105,0.42159 -0.04186,0.74045 -0.126,1.07908c-0.03507,0.10936 -0.09121,0.20819 -0.17825,0.26619c-0.50399,0.45865 -0.97706,0.95814 -1.408,1.47869c-0.02246,0.03954 -0.07721,0.08829 -0.17132,0.01586c0.07859,-0.13836 0.16841,-0.29649 0.22593,-0.44538c0.20348,-0.40586 0.3859,-0.82224 0.4728,-1.261c0.07291,-0.31886 0.23994,-0.56528 0.52215,-0.72874c0.20639,-0.12523 0.40155,-0.23069 0.66269,-0.40469z" fill="#c9e1e2"/><path d="M196.53573,132.44224c0.18255,-0.03563 0.28789,0.01704 0.39323,0.06971c0.00984,0.0303 0.00845,0.08036 0.0183,0.11067c-0.1375,0.33732 -0.1795,0.69702 -0.13584,1.04878c0.01552,0.2108 -0.05323,0.37946 -0.21748,0.52576c-0.20777,0.17529 -0.40571,0.38088 -0.6444,0.51534c-0.13071,-0.29376 -0.22496,-0.74695 -0.17728,-0.92615c0.014,-0.1199 0.10105,-0.1779 0.17825,-0.26619c0.1698,-0.34656 0.45617,-0.66022 0.58522,-1.07791z" fill="#cae3e4"/><path d="M188.58928,130.14437c0.39032,-0.21092 0.71744,-0.45345 1.03472,-0.72628c0.14887,0.02367 0.23314,0.0658 0.3048,0.17777c-0.09675,0.40846 -0.37467,0.80248 -0.45035,1.22147c-0.22884,0.16476 -0.46476,0.19909 -0.70206,0.28349c-0.12918,0.03693 -0.24853,0.10416 -0.40724,0.05019c-0.02259,-0.34123 0.17812,-0.64695 0.22012,-1.00664z" fill="#c8e0e1"/><path d="M192.48793,130.9007c0.17839,0.11457 0.15455,0.20417 0.13071,0.29376c-0.08414,0.33863 -0.15705,0.65749 -0.26225,0.98558c-0.02384,0.0896 -0.06875,0.16867 -0.1558,0.22666c-0.27098,0.14369 -0.56303,0.27686 -0.86492,0.37972c-0.03798,-0.17127 0.00831,-0.3004 0.01248,-0.45059c0.01248,-0.45059 0.18228,-0.79715 0.63581,-0.97647c0.21623,-0.09493 0.37064,-0.27153 0.50399,-0.45865z" fill="#cbe4e5"/><path d="M191.16062,130.2371c0.10534,0.05267 0.16855,0.08427 0.23175,0.11587c-0.00139,0.05007 0.02952,0.0909 0.0183,0.11067c-0.08137,0.2385 -0.1838,0.46646 -0.26516,0.70495c-0.0463,0.12913 -0.1235,0.21743 -0.24284,0.28466c-0.35803,0.20169 -0.7259,0.37309 -1.15697,0.51288c-0.04643,-0.25163 0.03354,-0.44006 0.11352,-0.62849c0.04491,-0.07907 0.08982,-0.15813 0.16564,-0.19636c0.45353,-0.17932 0.80449,-0.51144 1.13577,-0.90417z" fill="#c8e0e1"/><path d="M187.73333,135.98515c-0.1235,0.21742 -0.2793,0.44409 -0.29746,0.71418c-0.00277,0.10013 -0.07998,0.18843 -0.13611,0.28726c-0.36939,-0.1593 -0.67281,-0.38713 -0.91024,-0.68351c0.19932,-0.25566 0.27223,-0.57452 0.36483,-0.83278c0.20362,-0.0251 0.31742,0.10794 0.46628,0.13161c0.20084,0.07504 0.4003,0.20013 0.51271,0.38323z" fill="#85d5d9"/><path d="M193.95876,124.45367c-0.33835,0.26229 -0.63317,0.49558 -0.97152,0.75788c-0.10118,-0.20286 -0.07457,-0.39259 -0.11255,-0.56386c-0.02675,-0.19103 -0.10686,-0.38336 -0.06902,-0.59286c0.07859,-0.13836 0.23023,-0.21483 0.3608,-0.30182c0.13057,-0.087 0.28221,-0.16346 0.45492,-0.22939c0.2276,0.26607 0.26141,0.58753 0.33737,0.93006z" fill="#cae3e3"/><path d="M189.65396,126.7936c0.18934,-0.66672 0.32255,-1.2346 0.31812,-1.84593c0.23023,-0.21483 0.4394,-0.44019 0.68085,-0.67478c0.18407,0.29507 0.15468,0.58493 0.17866,0.87609c-0.00139,0.05007 -0.03507,0.10936 -0.05752,0.1489c-0.34389,0.46255 -0.68779,0.92511 -1.12011,1.49573z" fill="#cae3e4"/><path d="M192.72619,133.48163c-0.03105,-0.42159 -0.03118,-0.80235 0.38298,-1.10287c0.2836,-0.21353 0.47308,-0.49948 0.66256,-0.78544c0.06736,-0.1186 0.18393,-0.08569 0.28789,0.01704c-0.22178,0.29519 -0.28484,0.64435 -0.34792,0.99351c-0.03923,0.25956 -0.18241,0.41639 -0.3888,0.54161c-0.17409,0.116 -0.31728,0.27282 -0.59672,0.33615z" fill="#c8e0e1"/><path d="M187.97992,134.40801c0.17284,0.31483 -0.02509,0.52043 -0.18089,0.74709c-0.15164,0.07646 -0.2556,-0.02627 -0.37217,-0.05917c-0.26266,-0.1567 -0.47057,-0.36217 -0.65603,-0.60717c0.14457,-0.2069 0.1838,-0.46646 0.40142,-0.61145c0.11657,0.0329 0.17977,0.0645 0.26405,0.10663c0.18823,0.14487 0.37646,0.28973 0.54362,0.42407z" fill="#85d4d9"/><path d="M190.88741,132.00396c-0.042,0.35969 -0.10368,0.65879 -0.1443,0.96841c-0.31312,0.12263 -0.63608,0.21496 -0.95766,0.25721c-0.12503,-0.11327 -0.0998,-0.25293 -0.11809,-0.36359c-0.01829,-0.11067 -0.03659,-0.22133 0.06307,-0.34915c0.30328,-0.15292 0.69222,-0.31379 1.15698,-0.51288z" fill="#c7dfe0"/><path d="M193.64502,134.62626c-0.25975,0.12392 -0.49844,0.25839 -0.81017,0.33095c-0.15177,-0.3043 -0.12239,-0.59416 -0.12391,-0.92485c0.28221,-0.16346 0.56442,-0.32692 0.85786,-0.51015c0.0535,0.38206 0.05502,0.71276 0.07623,1.10405z" fill="#c8e0e1"/><path d="M195.32932,124.32675c0.07873,0.2424 0.15746,0.4848 0.1393,0.75489c-0.2836,0.21353 -0.58826,0.41652 -0.90415,0.63928c-0.04214,-0.02107 -0.08428,-0.04213 -0.07305,-0.0619c-0.02537,-0.24109 -0.0395,-0.50196 -0.0438,-0.73252c0.00277,-0.10013 0.02662,-0.18973 0.10243,-0.22796c0.26114,-0.174 0.45907,-0.37959 0.77926,-0.37178z" fill="#c4dcdd"/><path d="M194.29108,134.82236c0.30466,-0.203 0.57703,-0.39675 0.89292,-0.61951c0.12086,0.26346 0.10271,0.53356 0.2025,0.78649c-0.24146,0.23459 -0.55319,0.30715 -0.85647,0.46008c-0.14332,-0.22393 -0.25573,-0.40703 -0.23896,-0.62706z" fill="#c6ddde"/><path d="M198.02162,132.77904c0.01982,0.44136 -0.08816,0.86958 0.01732,1.30302c-0.19793,0.20559 -0.36358,0.40196 -0.63456,0.54565c-0.17423,-0.26477 -0.22066,-0.5164 -0.01012,-0.79182c0.2653,-0.32419 0.42526,-0.70105 0.62735,-1.05684z" fill="#b9cfd0"/><path d="M188.6313,125.927c-0.09273,-0.1225 0.02661,-0.18973 0.05046,-0.27933c0.05891,-0.19896 0.13889,-0.3874 0.07984,-0.56919c-0.04505,-0.30169 0.09952,-0.50859 0.27639,-0.72472c0.0772,-0.0883 0.17548,-0.16606 0.29621,-0.28336c0.15039,0.35436 0.2488,0.65736 -0.0488,0.99078c-0.20916,0.22536 -0.34528,0.51262 -0.5123,0.75905c-0.03368,0.0593 -0.06736,0.1186 -0.1418,0.10677z" fill="#c0d8d8"/><path d="M187.35067,130.13422c-0.0043,-0.23056 0.04339,-0.40976 0.13321,-0.56788c0.04491,-0.07907 0.10105,-0.1779 0.17687,-0.21613c0.33557,-0.16216 0.61917,-0.37569 0.90276,-0.58921c0.14748,0.07373 0.0815,0.14227 0.04782,0.20157c-0.11228,0.19766 -0.23578,0.41509 -0.30591,0.63382c-0.10382,0.27803 -0.26808,0.42432 -0.55735,0.45736c-0.13902,0.00663 -0.23591,0.03433 -0.39739,0.0805z" fill="#c1d9d9"/><path d="M192.17438,133.73872c-0.24991,0.15423 -0.50828,0.22809 -0.7891,0.34148c-0.16439,-0.23446 -0.10409,-0.48349 -0.12946,-0.72459c0.29344,-0.18323 0.62624,-0.24525 0.96043,-0.35735c0.03521,0.2714 -0.01387,0.50066 -0.04187,0.74045z" fill="#c3dbdc"/><path d="M195.9367,126.30547c0.03077,-0.33992 0.07139,-0.64955 0.09093,-0.96972c0.18532,-0.13576 0.35941,-0.25175 0.6164,-0.27555c0.0998,0.25293 0.09286,0.50326 0.107,0.76412c-0.23023,0.21483 -0.48014,0.36905 -0.81433,0.48115z" fill="#c3dadb"/><path d="M189.78282,133.71048c0.31173,-0.07256 0.59117,-0.13589 0.87061,-0.19921c0.13209,0.24369 0.12516,0.49403 0.11823,0.74436c-0.24853,0.10416 -0.49566,0.15826 -0.77372,0.17152c-0.04075,-0.07113 -0.09134,-0.17257 -0.11102,-0.23317c-0.03798,-0.17127 -0.04505,-0.30169 -0.10409,-0.48349z" fill="#c4dbdc"/><path d="M187.6631,128.10778c-0.21332,0.37556 -0.38173,0.67205 -0.56137,0.98831c-0.18394,0.08569 -0.36648,0.12133 -0.58978,0.08583c-0.07027,-0.16203 0.05046,-0.27933 0.07568,-0.41899c0.02523,-0.13967 0.07153,-0.2688 0.12766,-0.36763c0.32296,-0.09233 0.58133,-0.16619 0.94781,-0.28752z" fill="#c2d9da"/><path d="M192.30688,135.12469c-0.21762,0.145 -0.41985,0.12002 -0.61362,0.17542c-0.17562,-0.21469 -0.22205,-0.46632 -0.27832,-0.74826c0.2373,-0.0844 0.4746,-0.16879 0.69083,-0.26372c0.17423,0.26477 0.14484,0.55463 0.20112,0.83655z" fill="#c3dbdc"/><path d="M189.14051,132.2219c-0.3005,0.05279 -0.53919,0.18726 -0.82708,0.17022c-0.12225,-0.2134 -0.01982,-0.44136 -0.09993,-0.6337c0.33557,-0.16216 0.63608,-0.21496 0.95904,-0.30728c0.10964,0.28323 -0.01386,0.50065 -0.03202,0.77076z" fill="#c7dee0"/><path d="M187.23184,135.58215c-0.14887,-0.02367 -0.26266,-0.1567 -0.46628,-0.13161c-0.10382,0.27803 -0.1978,0.58636 -0.36483,0.83278c-0.07305,-0.0619 -0.16716,-0.13434 -0.22898,-0.216c-0.09273,-0.1225 -0.12086,-0.26346 -0.04227,-0.40182c0.11366,-0.24773 0.21609,-0.47569 0.32976,-0.72342c0.27389,0.13694 0.38908,0.2199 0.7726,0.64007z" fill="#61acb1"/><path d="M187.20901,130.62174c0.25975,-0.12392 0.49567,-0.15826 0.7751,-0.22159c-0.07291,0.31886 -0.12337,0.59819 -0.17382,0.87751c-0.18532,0.13576 -0.36648,0.12133 -0.59117,0.13589c-0.11102,-0.23317 -0.05073,-0.48219 -0.01011,-0.79182z" fill="#c1d9d9"/><path d="M194.01191,135.64721c-0.24853,0.10416 -0.5069,0.17802 -0.7442,0.26242c-0.17839,-0.11457 -0.25989,-0.25684 -0.30771,-0.4584c0.23023,-0.21483 0.54058,-0.23732 0.81156,-0.38102c0.14471,0.17386 0.17146,0.3649 0.24035,0.57699z" fill="#c0d7d7"/><path d="M187.45737,133.99448c-0.08428,-0.04213 -0.17977,-0.0645 -0.26405,-0.10663c-0.21762,0.145 -0.25684,0.40455 -0.40142,0.61145c-0.15871,-0.05396 -0.17562,-0.21469 -0.31187,-0.30819c0.06168,-0.29909 0.25962,-0.50469 0.2581,-0.83538c0.22191,0.08557 0.31464,0.20807 0.42844,0.34111c0.08289,0.0922 0.25282,0.1264 0.2908,0.29767z" fill="#5aa0a4"/><path d="M198.4409,134.99365c-0.20777,0.17529 -0.36358,0.40196 -0.63317,0.49559c-0.12503,-0.11327 -0.16439,-0.23446 -0.22344,-0.41626c0.16564,-0.19636 0.37342,-0.37165 0.60088,-0.48636c0.12503,0.11327 0.17562,0.21469 0.25573,0.40703z" fill="#bdd3d4"/><path d="M190.26351,134.86447c0.21485,-0.04486 0.40862,-0.10025 0.6024,-0.15565c0.13348,0.19363 0.1813,0.39519 0.21789,0.61652c-0.15303,0.12653 -0.32296,0.09233 -0.47044,0.01859c-0.18962,-0.0948 -0.37923,-0.18961 -0.34985,-0.47947z" fill="#bdd4d5"/><path d="M188.56237,133.43024c-0.12364,-0.16333 -0.14055,-0.32407 -0.15746,-0.4848c0.07859,-0.13836 0.20639,-0.12523 0.33557,-0.16216c0.09689,-0.0277 0.20501,-0.07517 0.34264,-0.03173c0.12364,0.16333 0.01136,0.36099 0.12377,0.54409c-0.22746,0.11469 -0.43108,0.13979 -0.64454,0.13459z" fill="#c3dadb"/><path d="M194.02914,128.85413c0.24423,-0.33473 0.48846,-0.66945 0.81697,-0.96204c0.11518,0.08296 0.08011,0.19233 0.02398,0.29117c-0.12489,0.2675 -0.27084,0.52445 -0.40557,0.76165c-0.10105,0.1779 -0.24991,0.15423 -0.43537,-0.09077z" fill="#b1c6c7"/><path d="M195.19036,136.28715c0.13196,-0.13706 0.29205,-0.13316 0.43246,-0.18986c0.25975,-0.12392 0.4606,-0.04889 0.65728,0.17634c-0.2836,0.21353 -0.63747,0.26502 -0.93797,0.31782c-0.13625,-0.0935 -0.177,-0.16463 -0.15178,-0.3043z" fill="#bbd2d3"/><path d="M196.9646,130.06794c0.12905,-0.41769 0.4674,-0.67999 0.7959,-0.97257c-0.03077,0.33992 -0.19919,0.63642 -0.3353,0.92368c-0.07998,0.18843 -0.16564,0.19636 -0.4606,0.04889z" fill="#bad1d2"/><path d="M196.79769,134.5528c0.10396,0.10273 0.13209,0.2437 0.149,0.40443c-0.20916,0.22536 -0.48014,0.36905 -0.77081,0.45215c-0.15871,-0.05396 -0.16716,-0.13433 -0.15316,-0.25423c0.2513,-0.20429 0.5026,-0.40859 0.77497,-0.60234z" fill="#bdd4d4"/><path d="M195.96845,124.77318c-0.05766,-0.23186 -0.10548,-0.43343 -0.18421,-0.67582c0.08843,-0.10806 0.219,-0.19506 0.4423,-0.15956c0.09134,0.17257 0.17146,0.3649 0.27264,0.56776c-0.17409,0.116 -0.31589,0.22276 -0.53074,0.26762z" fill="#c1d9d9"/><path d="M196.88389,136.06791c-0.20084,-0.07504 -0.32726,-0.13823 -0.4186,-0.3108c0.22746,-0.11469 0.43385,-0.23992 0.62901,-0.34538c0.2233,0.0355 0.24021,0.19623 0.35539,0.27919c-0.02246,0.03954 -0.02384,0.0896 -0.05614,0.09883c-0.19516,0.10546 -0.3468,0.18192 -0.50967,0.27815z" fill="#c2dada"/><path d="M187.18419,131.90368c0.20362,-0.0251 0.35387,-0.0515 0.52519,-0.06736c0.06889,0.2121 0.06334,0.41236 0.07886,0.62316c-0.15164,0.07646 -0.30189,0.10286 -0.44937,0.02913c-0.03091,-0.04083 -0.06182,-0.08167 -0.06043,-0.13173c-0.03936,-0.12119 -0.0675,-0.26217 -0.09425,-0.45319z" fill="#bbd2d3"/><path d="M188.76335,133.88604c0.15164,-0.07646 0.32296,-0.09233 0.48167,-0.03836c0.06889,0.2121 0.12793,0.3939 0.17575,0.59546c-0.47044,0.01859 -0.49151,0.00806 -0.65742,-0.5571z" fill="#b5cbcc"/><path d="M186.44776,130.34266c-0.13209,-0.24369 -0.01843,-0.49142 -0.03395,-0.70222c0.16287,-0.09623 0.32157,-0.04227 0.49289,-0.05813c0.02398,0.29117 -0.04616,0.50989 -0.23287,0.69572c-0.03368,0.0593 -0.14041,0.05669 -0.22607,0.06463z" fill="#b6cccd"/><path d="M196.21279,128.6769c-0.08275,0.28856 -0.18657,0.56659 -0.37467,0.80248c-0.0772,0.0883 -0.18532,0.13576 -0.29066,0.0831c-0.04214,-0.02107 -0.10396,-0.10273 -0.09273,-0.1225c0.14734,-0.30703 0.46324,-0.52978 0.75806,-0.76307z" fill="#a7bbbb"/><path d="M191.78613,135.80338c0.21762,-0.145 0.42123,-0.17009 0.64592,-0.18465c0.13487,0.14357 0.21637,0.28584 0.19959,0.50586c-0.32019,-0.00781 -0.56178,-0.15397 -0.84551,-0.32121z" fill="#b7cece"/><path d="M186.2784,127.97384c-0.01275,-0.31092 0.21748,-0.52575 0.22441,-0.77609c0.15164,-0.07646 0.22469,-0.01456 0.23314,0.0658c0.01552,0.2108 -0.00125,0.43082 -0.11352,0.62849c-0.05475,0.04877 -0.06598,0.06853 -0.34403,0.08179z" fill="#b4cacb"/><path d="M187.83897,132.94167c0.09134,0.17257 0.15177,0.3043 0.12655,0.44396c-0.06598,0.06853 -0.14041,0.05669 -0.21484,0.04486c-0.29773,-0.04734 -0.32448,-0.23836 -0.31755,-0.4887c0.1278,0.01313 0.26682,0.0065 0.40585,-0.00013z" fill="#b5cbcb"/><path d="M190.70697,126.17799c0.01275,0.31092 -0.15427,0.55736 -0.289,0.79455c-0.02246,0.03954 -0.08705,0.058 -0.14041,0.05669c-0.04214,-0.02107 -0.08289,-0.0922 -0.07166,-0.11196c0.09398,-0.30833 0.28207,-0.54422 0.50108,-0.73928z" fill="#99abac"/><path d="M189.31395,126.34444c-0.19239,0.00533 -0.29773,-0.04734 -0.28373,-0.16723c0.03645,-0.15943 0.19087,-0.33603 0.4211,-0.55086c0.03521,0.2714 -0.0883,0.48882 -0.13737,0.71809z" fill="#93a5a6"/><path d="M193.9645,136.58792c0.29205,-0.13316 0.57426,-0.29662 0.86367,0.05111c-0.30328,0.15292 -0.57717,0.016 -0.86367,-0.05111z" fill="#9aadad"/><path d="M195.71294,132.84302c0.02661,-0.18973 0.06446,-0.39923 0.07984,-0.56919c0.11934,-0.06723 0.19378,-0.0554 0.30896,0.02757c0.0043,0.23056 -0.19225,0.38609 -0.27223,0.57453c-0.04214,-0.02107 -0.06321,-0.0316 -0.11657,-0.0329z" fill="#c5dddd"/><path d="M193.33777,127.5948c0.04366,0.35176 -0.1023,0.60872 -0.33253,0.82355c-0.01123,0.01977 -0.06459,0.01847 -0.10673,-0.0026c-0.07443,-0.01183 -0.08289,-0.0922 -0.06043,-0.13173c0.10243,-0.22796 0.30037,-0.43355 0.49969,-0.68922z" fill="#aec2c3"/><path d="M186.6712,130.75893c0.05766,0.23186 0.00859,0.46113 -0.02925,0.67062c-0.11934,0.06723 -0.19239,0.00533 -0.18962,-0.0948c-0.00568,-0.1805 -0.02259,-0.34123 0.00402,-0.53096c-0.01968,-0.0606 0.07721,-0.0883 0.21484,-0.04486z" fill="#9caeaf"/><path d="M190.40215,129.85789c0.16993,0.0342 0.24298,0.0961 0.29357,0.19753c-0.09121,0.20819 -0.25546,0.35449 -0.57842,0.44682c0.09259,-0.25826 0.19364,-0.43615 0.28485,-0.64435z" fill="#b9cfd0"/><path d="M197.29835,132.67124c0.11934,-0.06723 0.21485,-0.04486 0.31035,-0.0225c0.08289,0.0922 0.02675,0.19103 -0.30592,0.63382c-0.18546,-0.245 0.00125,-0.43082 -0.00443,-0.61132z" fill="#869797"/><path d="M192.0512,127.00233c-0.24285,0.28465 -0.21042,0.65619 -0.6401,0.74591c0.08414,-0.33863 0.23994,-0.56528 0.6401,-0.74591z" fill="#93a4a5"/><path d="M194.77731,135.77609c0.21623,-0.09493 0.42262,-0.22015 0.65992,-0.30455c0.09689,-0.0277 0.18116,0.01444 0.177,0.16463c-0.25975,0.12392 -0.50828,0.22809 -0.83692,0.13992z" fill="#9fb2b2"/><path d="M193.07383,131.7266c-0.11241,-0.1831 -0.03382,-0.32146 0.0237,-0.47036c0.03368,-0.0593 0.11934,-0.06723 0.18255,-0.03563c0.04214,0.02107 0.08289,0.0922 0.06043,0.13173c-0.00416,0.15019 -0.11366,0.24773 -0.26668,0.37426z" fill="#91a2a3"/><path d="M188.14534,125.7348c-0.0998,-0.25293 0.03077,-0.33992 0.13043,-0.46776c0.13348,0.19363 0.13348,0.19363 -0.13043,0.46776z" fill="#555f5f"/><path d="M194.66215,131.83546c-0.05614,0.09883 -0.13473,0.23719 -0.27653,0.34396c-0.08857,-0.27269 -0.04366,-0.35176 0.11921,-0.44799c0.04352,-0.029 0.10673,0.0026 0.15732,0.10404z" fill="#93a5a6"/><path d="M191.75206,130.86273c-0.01829,-0.11067 0.02662,-0.18973 0.09259,-0.25826c0.04352,-0.029 0.10811,-0.04746 0.13902,-0.00663c0.03091,0.04083 0.05059,0.10143 0.02814,0.14096c-0.04491,0.07907 -0.11089,0.1476 -0.25975,0.12392z" fill="#636e6f"/></g></g><path d="M272.20968,94.21589c1.39012,-1.08082 3.39321,-0.83007 4.47402,0.56004c1.08082,1.39012 0.83007,3.39321 -0.56004,4.47402c-1.39012,1.08082 -3.39321,0.83007 -4.47402,-0.56004c-1.08082,-1.39012 -0.83007,-3.39321 0.56004,-4.47402z" fill-opacity="0.38344" fill="#ff0000" stroke="none" stroke-width="0.5" stroke-linecap="butt"/><path d="M271.29198,54.41967c0.39601,-3.16361 3.55963,-2.7676 3.55963,-2.7676l0.73108,0.11633c4.99567,0.00107 10.78689,-0.48667 15.36377,1.97889c7.33993,3.95402 7.87496,15.16523 3.15495,21.25438c-2.39068,3.08415 -5.01154,2.83883 -8.38093,2.87608c-0.36548,0.00405 -0.76719,-0.38276 -1.07943,-0.19276c-0.3167,0.19272 -0.16895,0.73055 -0.34263,1.0581c-1.98037,3.73491 -2.15629,4.3202 -2.64791,8.2476c0,0 -0.39601,3.16361 -3.55963,2.7676c-3.16361,-0.39601 -2.7676,-3.55963 -2.7676,-3.55963c0.56468,-4.51103 0.89355,-6.68896 3.55146,-10.8089c0.72612,-1.12554 1.32781,-2.47378 2.4745,-3.166c1.27193,-0.76783 7.04163,0.16735 7.81419,-1.25662c1.82543,-3.36459 2.89977,-9.55989 -1.48635,-11.74515c-3.46208,-1.72488 -8.35894,-1.07648 -12.09551,-1.07698l-1.52198,-0.1657c0,0 -3.16361,-0.39601 -2.7676,-3.55963z" fill-opacity="0.38344" fill="#ff0000" stroke="none" stroke-width="0.5" stroke-linecap="butt"/></g></g></svg>