<svg version="1.1" xmlns="http://www.w3.org/2000/svg" xmlns:xlink="http://www.w3.org/1999/xlink" width="143.14083" height="216.97106" viewBox="0,0,143.14083,216.97106"><defs><radialGradient cx="239.85291" cy="176.0974" r="21.52948" gradientUnits="userSpaceOnUse" id="color-1"><stop offset="0" stop-color="#b97500"/><stop offset="1" stop-color="#6d4401"/></radialGradient></defs><g transform="translate(-201.08773,-68.91876)"><g data-paper-data="{&quot;isPaintingLayer&quot;:true}" fill-rule="nonzero" stroke-linejoin="miter" stroke-miterlimit="10" stroke-dasharray="" stroke-dashoffset="0" style="mix-blend-mode: normal"><path d="M237.13636,223.27016l-0.04233,52.56233l-3.27155,0.17628" data-paper-data="{&quot;index&quot;:null}" fill="none" stroke="#00021d" stroke-width="12" stroke-linecap="round"/><g stroke="none" stroke-width="1" stroke-linecap="butt"><path d="M206.92969,222.76168c0.32257,0.19604 0.64515,0.39208 0.99631,0.57015c0.30992,0.14418 0.72481,0.04295 0.99427,0.47174c-0.79135,-0.18057 -1.52679,-0.17697 -2.26222,-0.17336c-0.22947,-0.17479 -0.47692,-0.37818 -0.63328,-0.65873c0.05717,-0.03593 0.08576,-0.05389 0.11434,-0.07185c0.2593,-0.06327 0.5133,-0.10326 0.79057,-0.13794z" fill="#c6dede"/><path d="M204.80449,224.45611c0.26009,0.25525 0.52549,0.48721 0.78558,0.74245c-0.11232,0.17027 -0.29852,0.12779 -0.4541,0.16575c-0.15558,0.03796 -0.32913,0.04733 -0.50799,0.07999c-0.25275,-0.1801 -0.38584,-0.45535 -0.57611,-0.69465c0.22134,-0.21885 0.47534,-0.25884 0.75261,-0.29352z" fill="#c8e0e1"/><path d="M202.5189,229.32173c-0.16496,-0.13558 -0.27805,-0.28383 -0.33929,-0.44472c0.01921,-0.19151 0.1801,-0.25275 0.27649,-0.3532c0.09638,-0.10044 0.15152,-0.23478 0.33038,-0.26744c0.22213,0.09966 0.39444,0.31038 0.61329,0.53173c-0.14293,0.08982 -0.28586,0.17964 -0.40551,0.27477c-0.16621,0.08451 -0.33241,0.16902 -0.47534,0.25884z" fill="#c5ddde"/><path d="M204.6343,231.64094c-0.09106,0.07717 -0.14823,0.11309 -0.20541,0.14903c-0.13762,0.06655 -0.29851,0.12778 -0.46472,0.21229c-0.28868,-0.23727 -0.59329,-0.40473 -0.7909,-0.71918c0.08373,-0.15231 0.21603,-0.19557 0.4002,-0.25149c0.32789,0.17277 0.69701,0.37942 1.06082,0.60935z" fill="#c7dfe0"/><path d="M205.40572,223.00164c0.19557,0.21603 0.34992,0.39818 0.54018,0.63748c-0.33445,0.07061 -0.64561,0.14653 -0.97474,0.19386c-0.15965,-0.15886 -0.29603,-0.31242 -0.39849,-0.5072c0.26258,-0.18496 0.5219,-0.24823 0.83306,-0.32414z" fill="#c2dada"/><path d="M204.08079,225.58878c-0.28055,0.15637 -0.49862,0.25353 -0.722,0.37397c-0.21682,-0.12293 -0.33726,-0.34631 -0.4577,-0.56969c0.16417,-0.18292 0.34631,-0.33726 0.61093,-0.4238c0.26337,0.13355 0.32664,0.39286 0.56877,0.61952z" fill="#c6dedf"/><path d="M203.97104,232.61599c0.23478,0.15152 0.50877,0.23852 0.69373,0.50111c-0.1948,0.10248 -0.36631,0.21027 -0.53783,0.31805c-0.2793,-0.06373 -0.4855,-0.23322 -0.62921,-0.4619c0.11232,-0.17027 0.25524,-0.26009 0.47331,-0.35725z" fill="#c3dadb"/><path d="M207.20258,221.67307c0.25275,0.1801 0.48222,0.3549 0.73497,0.53501c-0.54188,0.12122 -1.01067,0.13669 -1.30013,-0.4191c0.14824,-0.11309 0.33975,-0.09388 0.56516,-0.11591z" fill="#bbd2d3"/><path d="M211.88916,221.73846c0.22338,-0.12044 0.4002,-0.2515 0.62359,-0.37195c0.11107,0.04982 0.25806,0.15684 0.41037,0.24056c-0.21197,0.3924 -0.23524,0.38709 -0.53251,0.29477c-0.16293,-0.03717 -0.32055,-0.09762 -0.50143,-0.16339z" fill="#b5cbcc"/><path d="M202.04961,226.22723c0.12293,-0.21682 0.27118,-0.32992 0.41941,-0.44301c0.19355,0.11762 0.24416,0.32507 0.34663,0.51985c-0.15356,0.13637 -0.30179,0.24947 -0.45535,0.38584c-0.20417,-0.07108 -0.20292,-0.29116 -0.31071,-0.46268z" fill="#c0d7d8"/><path d="M205.07378,222.63205c-0.24134,0.09186 -0.50064,0.15512 -0.74199,0.24698c-0.09513,-0.11965 -0.11513,-0.24665 -0.08327,-0.3863c0.07841,-0.12903 0.20541,-0.14903 0.33773,-0.1923c0.10372,-0.02531 0.20745,-0.05062 0.31117,-0.07592c0.12372,0.10169 0.19557,0.21604 0.17636,0.40755z" fill="#b6cccc"/><path d="M206.00774,221.86568c0.16496,0.13558 0.28337,0.26055 0.36257,0.45003c-0.22338,0.12044 -0.46675,0.11388 -0.66888,0.14122c-0.17558,-0.08904 -0.19027,-0.23931 -0.23354,-0.37162c0.03921,-0.06452 0.04983,-0.11107 0.07311,-0.10576c0.15558,-0.03796 0.31117,-0.07592 0.46675,-0.11388z" fill="#b7cdce"/><path d="M208.29088,221.08883c-0.29851,0.12778 -0.50799,0.07999 -0.72809,0.07874c-0.24869,0.01672 -0.30992,-0.14418 -0.38912,-0.33366c0.22338,-0.12044 0.44347,-0.11919 0.65092,-0.1698c0.22213,0.09966 0.23885,0.34834 0.46629,0.42472z" fill="#b6cccc"/><path d="M202.1924,227.53314c0.147,0.107 0.20088,0.19275 0.22088,0.31975c-0.00859,0.14496 -0.12293,0.21682 -0.21931,0.31726c-0.09106,0.07717 -0.15152,0.23478 -0.31975,0.22088c-0.11309,-0.14824 -0.19761,-0.31445 -0.19636,-0.53455c0.17682,-0.13106 0.34303,-0.21557 0.51455,-0.32336z" fill="#bbd2d3"/><path d="M212.00928,221.10472c-0.31975,0.22088 -0.31975,0.22088 -0.74199,0.24698c-0.15965,-0.15886 -0.14044,-0.35038 -0.16247,-0.57579c0.34178,0.00453 0.61781,0.18994 0.90445,0.32881z" fill="#adc2c3"/><path d="M204.06139,223.52745c0.13637,0.15356 0.23151,0.27321 0.31071,0.46268c-0.15886,0.15965 -0.38427,0.18168 -0.60233,0.27884c-0.0592,-0.06248 -0.09514,-0.11965 -0.13107,-0.17682c-0.03593,-0.05717 -0.04327,-0.1323 -0.07388,-0.21275c0.11762,-0.19355 0.28383,-0.27805 0.49659,-0.35195z" fill="#bbd1d2"/><path d="M202.73917,231.57582c0.2654,0.23197 0.50222,0.4819 0.74434,0.70855c-0.06045,0.15761 -0.15152,0.23478 -0.33569,0.29071c-0.20292,-0.29117 -0.40584,-0.58235 -0.523,-0.92741c0.05717,-0.03593 0.08576,-0.05389 0.11434,-0.07185z" fill="#acc1c2"/><path d="M203.07151,224.10966c0.12903,0.07841 0.17231,0.21073 0.21027,0.36631c-0.17682,0.13106 -0.35366,0.26212 -0.53048,0.39319c-0.16496,-0.13558 -0.15637,-0.28056 -0.11919,-0.44347c0.10169,-0.12372 0.27321,-0.2315 0.43942,-0.31601z" fill="#b7cdcd"/><path d="M203.11453,230.68198c-0.10169,0.12372 -0.18745,0.17762 -0.31445,0.19761c-0.19557,-0.21603 -0.41442,-0.43739 -0.52628,-0.80572c0.40099,0.06701 0.58594,0.32959 0.84072,0.60811z" fill="#b2c8c9"/><path d="M208.87013,223.05752c-0.30789,-0.04577 -0.56392,-0.10418 -0.82728,-0.23774c0.00328,-0.12169 0.08373,-0.15231 0.15356,-0.13637c0.16824,0.0139 0.34178,0.00453 0.51002,0.01842c0.1862,0.04249 0.21151,0.14621 0.16371,0.35569z" fill="#91a3a3"/><path d="M202.30125,225.23171c-0.11762,0.19355 -0.24259,0.31196 -0.41942,0.44301c-0.02406,-0.32382 0.10419,-0.56391 0.16792,-0.84321c0.06452,0.03921 0.11107,0.04982 0.12903,0.07841c0.04858,0.10904 0.07389,0.21276 0.12247,0.32179z" fill="#a9bebf"/><path d="M208.00581,221.58698c0.34913,0.07966 0.58189,0.13277 0.81463,0.18588c0.04655,0.01063 0.08248,0.0678 0.06655,0.13762c-0.00531,0.02328 -0.03921,0.06452 -0.0678,0.08248c-0.28993,-0.01718 -0.54595,-0.0756 -0.81338,-0.40597z" fill="#94a5a6"/><path d="M211.24308,222.4236c-0.06124,-0.16089 -0.06858,-0.23603 0.05107,-0.33116c0.19151,0.01921 0.4063,0.04373 0.62312,0.16667c-0.21603,0.19557 -0.44879,0.14247 -0.6742,0.1645z" fill="#abbfc0"/><path d="M206.75348,220.95841c0.02,0.127 0.03265,0.17886 0.02203,0.22541c-0.38427,0.18168 -0.38427,0.18168 -0.69419,0.0375c0.19275,-0.20088 0.42551,-0.14778 0.67216,-0.26291z" fill="#acc0c1"/><path d="M203.83848,223.10928c-0.11965,0.09513 -0.20541,0.14903 -0.33241,0.16902c-0.08248,-0.0678 -0.11309,-0.14824 -0.10982,-0.26993c0.05514,-0.13434 0.19275,-0.20088 0.33038,-0.26744c0.12903,0.07841 0.12044,0.22338 0.11186,0.36834z" fill="#aec2c3"/><path d="M201.66081,226.75069c0.33726,0.34631 0.35522,0.3749 -0.03967,0.60312c-0.00407,-0.19682 -0.08327,-0.3863 0.03967,-0.60312z" fill="#869696"/><path d="M208.41506,220.65191c0.33241,-0.16903 0.37364,-0.13512 0.3585,0.25321c-0.17354,0.00938 -0.26868,-0.11028 -0.3585,-0.25321z" fill="#8b9b9c"/><path d="M205.67609,234.69465c0.24869,-0.01672 0.42958,0.04905 0.61047,0.11481c0.03796,0.15558 -0.02452,0.21479 -0.11762,0.19354c-0.1862,-0.04249 -0.36709,-0.10825 -0.49285,-0.30835z" fill="#9aacad"/><path d="M205.28215,221.50422c0.14824,-0.11309 0.24993,-0.23681 0.43082,-0.17105c0.02328,0.00531 0.04124,0.03389 0.03593,0.05717c-0.09434,0.19885 -0.24462,0.21355 -0.46675,0.11388z" fill="#5f6a6b"/><path d="M202.80939,223.756c-0.03265,-0.17886 0.01718,-0.28992 0.22462,-0.34054c0.05062,0.20745 -0.04045,0.28461 -0.22462,0.34054z" fill="#4a5354"/><g><path d="M216.16004,233.92802c-0.12825,0.24009 -0.33038,0.26744 -0.57375,0.26088c-0.38302,-0.03842 -0.75012,-0.14667 -1.12783,-0.20837c-0.08576,0.05389 -0.17152,0.10779 -0.234,0.16699c-1.39993,1.19877 -3.07011,1.65022 -4.85011,1.83176c-0.37568,0.03671 -0.75668,0.0967 -1.12907,0.01173c-0.06983,-0.01593 -0.16824,-0.0139 -0.22541,0.02203c-0.31445,0.19761 -0.61703,0.12856 -0.94818,0.07749c-0.28461,-0.04045 -0.5586,-0.12746 -0.83791,-0.19119c-0.16293,-0.03717 -0.31524,-0.1209 -0.39974,-0.28711c-0.08451,-0.16621 -0.25478,-0.27852 -0.40177,-0.38552c-0.90851,-0.52563 -1.71003,-1.19825 -2.40986,-1.99461c-0.38584,-0.45535 -0.66265,-0.95927 -0.93415,-1.48647c-0.79652,-1.55302 -1.07975,-3.2093 -0.98198,-4.92557c0.05357,-0.77136 0.22883,-1.53944 0.49719,-2.28627c0.20259,-0.56595 0.5575,-1.04817 0.93037,-1.5018c1.18639,-1.44339 2.73738,-2.33832 4.53456,-2.80978c0.33975,-0.09388 0.71012,-0.10733 1.0805,-0.12076c0.24869,-0.01672 0.47941,-0.06202 0.67216,-0.26291c0.16417,-0.18292 0.3949,-0.22823 0.63827,-0.22167c0.38302,0.03842 0.75543,0.12339 1.12783,0.20837c0.11637,0.02656 0.19885,0.09434 0.28133,0.16214c0.27805,0.28383 0.61125,0.43332 0.97835,0.54157c0.78604,0.20384 1.47243,0.62981 2.16413,1.03252c0.25806,0.15683 0.51081,0.33694 0.72966,0.55828c0.72107,0.70325 1.39027,1.41915 1.87203,2.31265c0.34913,0.07966 0.71622,0.18791 1.08863,0.27288c0.13965,0.03186 0.30258,0.06904 0.36381,0.22994c0.06655,0.13762 0.2115,0.14621 0.35116,0.17807c0.92569,0.23571 1.85671,0.44815 2.7824,0.68385c2.06618,0.49594 4.15563,0.99719 6.21119,1.53968c2.00901,0.53186 4.03395,0.99391 6.05358,1.47923c0.32585,0.07435 0.61781,0.18994 0.94366,0.26429c1.58271,0.36114 3.16543,0.72228 4.74282,1.10669c0.2793,0.06373 0.56923,0.08091 0.79339,0.27897c0.08248,0.0678 0.20417,0.07108 0.32054,0.09763c1.16376,0.26554 2.34548,0.55967 3.50924,0.82522c0.04655,0.01063 0.11637,0.02656 0.16293,0.03717c0.37771,0.0617 0.52674,0.26711 0.61532,0.63014c0.28572,1.21608 0.16514,2.38844 -0.36174,3.51705c-0.13886,0.28665 -0.32428,0.56267 -0.55094,0.80479c-0.16417,0.18292 -0.37162,0.23353 -0.60968,0.20371c-0.71419,-0.0895 -1.43369,-0.15572 -2.17115,-0.25053c-0.52267,-0.07029 -1.05801,-0.19244 -1.59661,-0.1929c-1.17563,0.00111 -2.3108,-0.2824 -3.47049,-0.35112c-0.64967,-0.05029 -1.2867,-0.04872 -1.93106,-0.12229c-0.69091,-0.08419 -1.36918,-0.11652 -2.04212,-0.17212c-1.22421,-0.10793 -2.46107,-0.26771 -3.69059,-0.35237c-1.62317,-0.07653 -3.22509,-0.24615 -4.82701,-0.41577c-0.55126,-0.05233 -1.10253,-0.10465 -1.65379,-0.15697c-0.85915,-0.09808 -1.74157,-0.20149 -2.60072,-0.29958c-0.47613,-0.05966 -0.9396,-0.06747 -1.41572,-0.12714c-0.50471,-0.0417 -0.94694,-0.14261 -1.46962,-0.2129zM215.96696,233.27179c0.20338,-0.24744 0.36022,-0.5055 0.45253,-0.80276c0.34756,-0.55735 0.5375,-1.17517 0.72745,-1.79298c0.25039,-0.77543 0.413,-1.59536 0.5703,-2.39203c0.18385,-0.91304 0.11901,-1.80937 0.03621,-2.73428c-0.02531,-0.10372 -0.05062,-0.20745 -0.08857,-0.36303c-0.1862,-0.04249 -0.37241,-0.08497 -0.5586,-0.12746c-0.04655,-0.01063 -0.09841,0.00203 -0.17355,0.00937c-0.03717,0.16293 -0.05107,0.33116 -0.0417,0.50471c0.0061,0.29524 -0.02905,0.55658 -0.02295,0.85181c-0.01967,0.73012 -0.25414,1.43572 -0.34364,2.14991c-0.0617,0.37771 -0.07685,0.76605 -0.18509,1.13314c-0.25571,0.7987 -0.39503,1.62395 -0.74384,2.40141c-0.09434,0.19885 -0.19401,0.42098 -0.28836,0.61984c-0.16089,0.06124 -0.15684,0.25806 -0.22994,0.36381c-0.10169,0.12372 -0.20338,0.24743 -0.23852,0.50877c0.33975,-0.09388 0.6264,0.04498 0.92694,0.01562c0.04982,-0.11107 0.21073,-0.1723 0.20135,-0.34585zM216.97075,232.52135c-0.33163,0.48753 -0.38677,0.62187 -0.40925,0.93507c0.28461,0.04045 0.54595,0.07559 0.83056,0.11606c0.16293,0.03717 0.30054,-0.02937 0.40223,-0.15309c0.0678,-0.08248 0.09434,-0.19885 0.16214,-0.28133c0.24259,-0.31196 0.4027,-0.6917 0.4644,-1.06941c0.15356,-0.13637 0.19603,-0.32257 0.23852,-0.50877c0.26227,-1.04208 0.54249,-2.05556 0.68838,-3.12418c0.05966,-0.47613 0.09606,-0.95756 0.10386,-1.42103c-0.01344,-0.37037 -0.02157,-0.76401 -0.23714,-1.10705c-0.30258,-0.06904 -0.60515,-0.13808 -0.90773,-0.20712c0.00407,0.19682 0.01344,0.37037 0.02812,0.52065c0.0375,0.69419 0.02844,1.37776 -0.07371,2.04008c-0.12136,0.85384 -0.35911,1.68112 -0.57358,2.51372c-0.09029,0.39568 -0.31491,0.73621 -0.38192,1.13721c-0.21073,0.1723 -0.28711,0.39974 -0.33491,0.60922zM243.53458,235.5462c0.21401,-0.29399 0.31163,-0.61453 0.3627,-0.94569c0.02859,-0.01796 0.06248,-0.0592 0.0678,-0.08248c0.10419,-0.56391 0.16182,-1.13845 0.06918,-1.6983c-0.04733,-0.32913 -0.07139,-0.65295 -0.27431,-0.94412c-1.30341,-0.29741 -2.60683,-0.59482 -3.98006,-0.90816c0.12856,0.61703 0.11748,1.20218 0.08312,1.78203c-0.01842,0.51002 -0.19447,0.9596 -0.25945,1.45899c-0.04249,0.1862 -0.10294,0.34382 -0.14542,0.53002c-0.1801,0.25275 -0.31898,0.53939 -0.42192,0.88321c0.69826,0.15932 1.39244,0.12183 2.05478,0.22398c0.69091,0.08419 1.38714,0.1451 2.05478,0.22398c0.21073,-0.1723 0.29977,-0.34788 0.3888,-0.52346zM238.72349,235.0606c0.15356,-0.13637 0.21931,-0.31726 0.2618,-0.50346c0.13558,-0.16496 0.16011,-0.37975 0.23118,-0.58391c0.17198,-0.64639 0.22758,-1.31934 0.23132,-1.97963c-0.00813,-0.39365 -0.06281,-0.79792 -0.22121,-1.17687c-0.09311,-0.02124 -0.18089,-0.06576 -0.274,-0.08701c-1.14049,-0.26024 -2.25769,-0.51515 -3.39287,-0.79866c-1.205,-0.29944 -2.38673,-0.59357 -3.59172,-0.893c-1.7636,-0.4269 -3.49861,-0.87176 -5.26222,-1.29867c-1.96777,-0.49797 -3.9282,-0.92081 -5.88534,-1.46533c-0.32054,-0.09762 -0.67498,-0.15402 -1.02411,-0.23368c0.03468,0.27727 0.12122,0.54188 0.10935,0.80853c0.02359,0.86243 -0.09777,1.71627 -0.26569,2.55949c-0.16995,0.7448 -0.36317,1.4843 -0.5564,2.22379c-0.11559,0.29196 -0.20259,0.56595 -0.31819,0.85791c-0.18214,0.15433 -0.18339,0.37443 -0.27242,0.55002c-0.09434,0.19885 -0.22994,0.36381 -0.25978,0.60187c0.22213,0.09966 0.41895,0.09559 0.58719,0.1095c1.43166,0.05732 2.8441,0.30614 4.25983,0.43327c0.91101,0.08544 1.82202,0.17087 2.73834,0.23304c1.22421,0.10793 2.43046,0.18726 3.63139,0.28988c0.98614,0.0781 1.9723,0.15619 2.95313,0.25755c1.05597,0.09403 2.08337,0.20602 3.13402,0.32332c0.95756,0.09606 1.93839,0.19743 2.92455,0.27553c0.07108,-0.20417 0.24259,-0.31196 0.2618,-0.50346zM209.30857,220.17015c0.09263,0.55985 0.07421,1.06987 0.07906,1.58521c-0.00046,0.53861 0.02766,1.05925 0.00392,1.59255c-0.01842,0.51002 -0.08872,1.0327 -0.13042,1.53741c-0.04701,0.52799 -0.09403,1.05597 -0.16962,1.60192c-0.06498,0.4994 -0.15855,1.01677 -0.22352,1.51616c-0.09356,0.51736 -0.28022,1.01348 -0.28069,1.55209c-0.25118,0.45691 -0.27492,0.99022 -0.40971,1.47368c-0.16339,0.50143 -0.28554,1.03676 -0.44893,1.53819c-0.15807,0.47816 -0.34475,0.97428 -0.5261,1.44713c-0.18666,0.49613 -0.46112,0.94772 -0.57796,1.45978c0.54798,0.17401 0.71091,0.21119 1.17235,0.12059c0.1801,-0.25275 0.36021,-0.50549 0.50438,-0.81542c0.16011,-0.37974 0.32022,-0.7595 0.50892,-1.1572c0.34349,-0.75418 0.6584,-1.49039 0.84428,-2.30502c0.12746,-0.5586 0.23164,-1.12252 0.45221,-1.65988c0.04982,-0.11107 0.08169,-0.25072 0.06701,-0.40099c-0.0061,-0.29524 0.08622,-0.5925 0.14995,-0.8718c0.23368,-1.02411 0.32771,-2.08009 0.39315,-3.11809c0.11652,-1.36918 0.05949,-2.72897 -0.06737,-4.1047c-0.0114,-0.27196 -0.02281,-0.54392 -0.1898,-0.77792c-0.3385,-0.12621 -0.69295,-0.1826 -1.1511,-0.21368zM204.39324,228.94133c0.26009,0.25525 0.54142,0.41739 0.81745,0.6028c0.22947,0.17479 0.50346,0.2618 0.80402,0.23243c0.56719,-0.0175 1.14173,0.04013 1.69502,0.19087c0.04655,0.01063 0.12169,0.00328 0.14496,0.00859c0.09638,-0.10044 0.11762,-0.19354 0.07435,-0.32585c-0.01796,-0.02859 -0.0592,-0.06248 -0.08248,-0.0678c-0.65904,-0.22384 -1.30747,-0.49423 -1.94528,-0.81117c-0.08779,-0.04452 -0.22213,-0.09966 -0.32585,-0.07435c-0.39365,0.00813 -0.78729,0.01625 -1.18219,0.24447zM207.58914,231.13978c-0.6125,-0.21322 -1.19109,-0.46767 -1.74111,-0.7401c-0.17558,-0.08904 -0.34382,-0.10294 -0.54595,-0.07559c-0.30586,0.05264 -0.57579,0.16247 -0.86899,0.26696c-0.10372,0.02531 -0.23072,0.04531 -0.21603,0.19557c0.36913,0.20666 0.70966,0.43128 1.0894,0.59139c1.06785,-0.17262 1.06785,-0.17262 2.19036,0.05903c0.08576,-0.05389 0.13028,-0.14168 0.09232,-0.29726zM211.19985,225.93986c0.39771,0.1887 0.80073,0.35412 1.20376,0.51954c0.08779,0.04452 0.17558,0.08904 0.27399,0.08701c0.40958,-0.07795 0.81385,-0.13263 1.18015,-0.34289c-0.21557,-0.34303 -0.54877,-0.49252 -0.84275,-0.70652c-0.147,-0.107 -0.29196,-0.1156 -0.47082,-0.08294c-0.41489,0.10123 -0.81916,0.15591 -1.24139,0.182c-0.02328,-0.00531 -0.05717,0.03593 -0.11434,0.07185c0.00735,0.07513 0.00938,0.17354 0.0114,0.27196zM205.38559,224.27036c0.30336,0.38755 0.62062,0.60686 0.93258,0.84946c0.12903,0.07841 0.25072,0.08169 0.37241,0.08497c0.59047,-0.01219 1.16501,0.04544 1.74157,0.20149c0.06983,0.01593 0.14496,0.00859 0.21478,0.02452c0.08169,-0.25072 0.06904,-0.30258 -0.11716,-0.34506c-0.60515,-0.13808 -1.16048,-0.38723 -1.6427,-0.74213c-0.29399,-0.21401 -0.57861,-0.25446 -0.90773,-0.20712c-0.18417,0.05592 -0.33975,0.09388 -0.59375,0.13388zM208.2391,228.39862c0.02656,-0.11637 -0.06124,-0.16089 -0.15433,-0.18214c-0.65171,-0.1487 -1.23765,-0.4783 -1.82359,-0.80789c-0.48019,-0.25649 -1.03676,-0.28554 -1.62848,-0.05325c0.1723,0.21073 0.39974,0.28711 0.58266,0.45128c0.38912,0.33366 0.83135,0.43456 1.3181,0.44769c0.5333,0.02374 1.0719,0.0242 1.57334,0.18759c0.07513,-0.00735 0.10372,-0.02531 0.1323,-0.04327zM205.0371,225.90494c0.24744,0.20338 0.40708,0.36224 0.57204,0.49784c0.2654,0.23197 0.5394,0.31897 0.88648,0.30022c0.4741,-0.03875 0.95022,0.02092 1.42103,0.10386c0.16824,0.0139 0.35444,0.05638 0.51736,0.09356c0.04982,-0.11107 -0.01468,-0.15028 -0.06124,-0.16089c-0.64843,-0.27039 -1.29154,-0.56406 -1.89014,-0.94551c-0.11107,-0.04982 -0.19885,-0.09434 -0.32054,-0.09762c-0.35241,0.04203 -0.6995,0.06077 -1.12502,0.20855zM211.30169,224.42042c0.46347,0.00781 0.86649,0.17323 1.27482,0.31537c0.11637,0.02656 0.19354,0.11762 0.32054,0.09762c0.20213,-0.02734 0.63827,-0.22167 0.90616,-0.4299c-0.19557,-0.21603 -0.46426,-0.32631 -0.69904,-0.47784c-0.19355,-0.11762 -0.38506,-0.13683 -0.59782,-0.06294c-0.36834,0.11185 -0.72605,0.17715 -1.11439,0.162c-0.02328,-0.00531 -0.08045,0.03061 -0.10904,0.04858c-0.04452,0.08779 -0.06576,0.18089 0.01875,0.3471zM211.02154,232.73104c0.35771,-0.0653 0.74808,0.04826 1.09846,-0.09217c0.0139,-0.16824 -0.08655,-0.26462 -0.1584,-0.37896c-0.14903,-0.20541 -0.24619,-0.42349 -0.47566,-0.59828c-0.45082,0.04406 -0.9057,-0.10871 -1.37448,-0.09324c-0.09638,0.10044 -0.12293,0.21682 -0.10294,0.34382c0.36381,0.22994 0.69373,0.50111 1.01302,0.81883zM210.77734,228.75741c0.22213,0.09966 0.44426,0.19931 0.58063,0.35287c0.33195,0.36959 0.73294,0.4366 1.1711,0.34068c0.15558,-0.03796 0.29524,-0.0061 0.46675,-0.11388c-0.17964,-0.28586 -0.39849,-0.5072 -0.61734,-0.72855c-0.0592,-0.06248 -0.15231,-0.08373 -0.274,-0.08701c-0.37037,0.01344 -0.71215,0.00892 -1.08253,0.02235c-0.06983,-0.01593 -0.17354,0.00938 -0.24462,0.21354zM210.44276,230.22374c0.49081,0.20994 0.92445,0.45581 1.22781,0.84336c0.05389,0.08576 0.1523,0.08373 0.24541,0.10497c0.21478,0.02452 0.43489,0.02577 0.67623,-0.06609c-0.2515,-0.4002 -0.52956,-0.68403 -0.83089,-0.97317c-0.10044,-0.09638 -0.21151,-0.14621 -0.35647,-0.15479c-0.26665,-0.01187 -0.52799,-0.04701 -0.79464,-0.05888c-0.02328,-0.00531 -0.08045,0.03061 -0.10904,0.04859c-0.01593,0.06983 -0.03186,0.13965 -0.05842,0.25602zM206.92969,222.76168c-0.254,0.03999 -0.53127,0.07467 -0.78526,0.11466c-0.02859,0.01796 -0.05717,0.03593 -0.11435,0.07185c0.15106,0.30382 0.39849,0.5072 0.63328,0.65873c0.75871,0.00171 1.47087,-0.0072 2.26222,0.17336c-0.29805,-0.41083 -0.70763,-0.33287 -0.99427,-0.47174c-0.35647,-0.1548 -0.67905,-0.35084 -1.00162,-0.54688zM203.76029,229.13972c-0.33241,0.16903 -0.6542,0.29149 -0.89147,0.58017c0.14168,0.13028 0.2315,0.27321 0.35522,0.3749c0.12372,0.10169 0.24213,0.22666 0.40505,0.26383c0.22541,-0.02203 0.40223,-0.15309 0.59172,-0.23229c0.18948,-0.0792 0.39162,-0.10654 0.55048,-0.26619c-0.33523,-0.2479 -0.65248,-0.46722 -1.01099,-0.72043zM207.2958,232.64001c-0.67702,-0.25243 -1.24296,-0.45502 -1.80891,-0.65762c-0.04655,-0.01063 -0.11106,-0.04983 -0.16824,-0.0139c-0.29321,0.10451 -0.62234,0.15184 -0.8543,0.41724c0.30461,0.16745 0.58594,0.32959 0.87259,0.46846c0.60437,-0.18043 1.22343,-0.21058 1.95886,-0.21419zM213.36962,227.80622c-0.11513,-0.24665 -0.33726,-0.34631 -0.50222,-0.4819c-0.18292,-0.16417 -0.38177,-0.25852 -0.65904,-0.22384c-0.37568,0.03671 -0.75136,0.07342 -1.11314,-0.0581c-0.08373,0.15231 -0.08169,0.25072 0.05796,0.28258c0.34382,0.10294 0.71091,0.21119 0.98162,0.41988c0.39974,0.28711 0.79135,0.18057 1.23483,0.06137zM212.33179,229.99363c0.32664,0.39286 0.5708,0.71793 0.82026,1.01972c0.16293,0.03717 0.27196,-0.0114 0.37568,-0.03671c0.10904,-0.04858 0.2593,-0.06327 0.34303,-0.21557c-0.12778,-0.29851 -0.30743,-0.58438 -0.51565,-0.85228c-0.31851,0.00079 -0.61906,0.03016 -1.02332,0.08484zM214.30607,226.59966c-0.39693,0.12981 -0.74199,0.24698 -1.11033,0.35883c0.2654,0.23197 0.50753,0.45863 0.74966,0.68528c0.33975,-0.09388 0.64561,-0.14653 0.91882,-0.37803c-0.16168,-0.25727 -0.36257,-0.45003 -0.55814,-0.66607zM203.2704,227.85258c0.07592,0.31117 0.36257,0.45003 0.56345,0.6428c0.0592,0.06248 0.18089,0.06576 0.26134,0.03514c0.26462,-0.08655 0.50064,-0.15512 0.74199,-0.24698c0.02328,0.00531 0.03389,-0.04124 0.04452,-0.08778c-0.28868,-0.23727 -0.60594,-0.45659 -0.89462,-0.69387c-0.2593,0.06327 -0.48799,0.20699 -0.71668,0.3507zM204.80449,224.45611c-0.27727,0.03468 -0.53127,0.07467 -0.75261,0.29352c0.16699,0.23399 0.32336,0.51455 0.57611,0.69465c0.17886,-0.03265 0.3471,-0.01875 0.50799,-0.07999c0.15558,-0.03796 0.33648,0.0278 0.4541,-0.16575c-0.26009,-0.25525 -0.52018,-0.51048 -0.78558,-0.74245zM214.33841,225.92139c0.23072,-0.04531 0.3949,-0.22822 0.58235,-0.40584c-0.23681,-0.24993 -0.39319,-0.53048 -0.69779,-0.69794c-0.22869,0.14372 -0.51127,0.20167 -0.75589,0.41521c0.28868,0.23727 0.58266,0.45128 0.87134,0.68855zM211.25855,222.89238c0.41365,0.11887 0.8718,0.14995 1.27482,0.31537c0.3385,0.12621 0.56188,0.00578 0.81181,-0.23104c-0.21885,-0.22134 -0.46426,-0.32631 -0.72763,-0.45987c-0.44144,0.2176 -0.91022,0.23307 -1.35901,0.37554zM206.67254,233.86908c-0.00203,-0.09841 -0.07185,-0.11434 -0.14168,-0.13028c-0.29726,-0.09231 -0.62312,-0.16667 -0.91507,-0.28226c-0.42098,-0.194 -0.70684,-0.01437 -1.03191,0.22979c0.15231,0.08373 0.25806,0.15684 0.36913,0.20666c0.26337,0.13355 0.51409,0.21525 0.81791,0.06419c0.18948,-0.0792 0.40958,-0.07795 0.6064,-0.08202c0.08779,0.04452 0.19355,0.11762 0.29524,-0.0061zM211.33585,233.92916c-0.06655,-0.13762 -0.14372,-0.22869 -0.1976,-0.31444c-0.13309,-0.27523 -0.32664,-0.39286 -0.61657,-0.41004c-0.24337,-0.00656 -0.49409,-0.08825 -0.73215,-0.11809c-0.06983,-0.01593 -0.13434,-0.05514 -0.19479,0.10247c0.2993,0.19073 0.58798,0.428 0.84275,0.70652c0.0592,0.06248 0.17558,0.08904 0.26868,0.11028c0.19682,-0.00407 0.37037,-0.01344 0.62968,-0.07671zM213.77874,228.26688c-0.254,0.03999 -0.52595,0.0514 -0.77261,0.16652c0.20292,0.29117 0.35397,0.595 0.61938,0.82697c0.26462,-0.08655 0.5133,-0.10326 0.71137,-0.32742c-0.16699,-0.23399 -0.30539,-0.48596 -0.55814,-0.66607zM205.14646,226.71347c-0.20292,-0.29117 -0.45036,-0.49455 -0.70841,-0.65138c-0.26462,0.08655 -0.50064,0.15512 -0.75792,0.3168c0.09716,0.21806 0.25681,0.37692 0.44505,0.51783c0.33445,-0.07061 0.66358,-0.11795 1.02129,-0.18325zM214.37672,230.58267c0.1948,-0.10248 0.3271,-0.14575 0.44675,-0.24088c0.08576,-0.05389 0.14824,-0.11309 0.21073,-0.1723c-0.06327,-0.2593 -0.1784,-0.50596 -0.37928,-0.69872c-0.2593,0.06327 -0.51862,0.12653 -0.73465,0.32211c0.16168,0.25727 0.2768,0.50392 0.45645,0.78978zM209.16954,234.19397c0.22088,0.31975 0.3646,0.54844 0.54955,0.81103c0.08779,0.04452 0.25603,0.05842 0.41161,0.02046c0.15028,-0.01468 0.30258,0.06904 0.45082,-0.04406c-0.02203,-0.22541 -0.10654,-0.39162 -0.24291,-0.54516c-0.37771,-0.0617 -0.72684,-0.14136 -1.16906,-0.24226zM202.5189,229.32173c0.14293,-0.08982 0.28586,-0.17964 0.42879,-0.26946c0.14293,-0.08982 0.26258,-0.18496 0.40551,-0.27477c-0.21885,-0.22134 -0.36788,-0.42676 -0.61329,-0.53173c-0.15558,0.03796 -0.23399,0.16699 -0.33038,0.26744c-0.09638,0.10044 -0.26258,0.18496 -0.27648,0.35319c0.13106,0.17682 0.21557,0.34303 0.38584,0.45535zM215.16961,227.75169c-0.27523,0.13309 -0.5811,0.18574 -0.83102,0.42255c0.14903,0.20541 0.30336,0.38755 0.45239,0.59296c0.27523,-0.13309 0.51658,-0.22495 0.69669,-0.47769c-0.0792,-0.18948 -0.11185,-0.36834 -0.31805,-0.53783zM204.6343,231.64094c-0.38709,-0.23524 -0.73294,-0.4366 -1.07879,-0.63794c-0.16089,0.06124 -0.31647,0.09919 -0.4002,0.2515c0.19761,0.31445 0.4969,0.50517 0.7909,0.71918c0.16089,-0.06124 0.32179,-0.12247 0.46472,-0.21229c0.09841,-0.00203 0.1323,-0.04327 0.22338,-0.12044zM213.01397,231.61851c-0.28789,0.08123 -0.56719,0.0175 -0.79588,0.16122c0.17433,0.30914 0.3307,0.58968 0.56752,0.83962c0.2001,-0.12575 0.43286,-0.07264 0.62562,-0.27353c-0.06327,-0.2593 -0.24088,-0.44675 -0.39725,-0.72731zM205.40572,223.00164c-0.31117,0.07592 -0.59375,0.13388 -0.80447,0.30618c0.10248,0.1948 0.23353,0.37162 0.39849,0.5072c0.31117,-0.07592 0.61703,-0.12856 0.97474,-0.19386c-0.22416,-0.19807 -0.37849,-0.3802 -0.56877,-0.61952zM211.87445,233.92962c0.32382,-0.02406 0.59578,-0.03547 0.83509,-0.22573c-0.07389,-0.21276 -0.12981,-0.39693 -0.29477,-0.53251c-0.30054,0.02937 -0.59578,0.03547 -0.94818,0.07749c0.11513,0.24665 0.23557,0.47003 0.40787,0.68076zM204.08079,225.58878c-0.24213,-0.22666 -0.32336,-0.51455 -0.56877,-0.61952c-0.26462,0.08655 -0.44675,0.24088 -0.61093,0.4238c0.12044,0.22338 0.2176,0.44144 0.4577,0.56969c0.22338,-0.12044 0.44145,-0.2176 0.722,-0.37397zM215.26003,225.96029c-0.2001,0.12575 -0.38958,0.20495 -0.53048,0.39319c0.21885,0.22134 0.32336,0.51455 0.60469,0.67669c0.1948,-0.10248 0.31975,-0.22088 0.39083,-0.42505c-0.14372,-0.22869 -0.31601,-0.43942 -0.46504,-0.64483zM203.97104,232.61599c-0.21806,0.09716 -0.33773,0.1923 -0.44472,0.33929c0.14903,0.20541 0.34991,0.39817 0.62921,0.4619c0.17152,-0.10779 0.34303,-0.21557 0.53783,-0.31805c-0.21354,-0.24462 -0.48753,-0.33163 -0.72231,-0.48314zM213.42657,221.86888c-0.14824,0.11309 -0.2679,0.20823 -0.32303,0.34257c0.20088,0.19275 0.4124,0.33896 0.65781,0.44394c0.16621,-0.08451 0.28586,-0.17964 0.36959,-0.33195c-0.19557,-0.21603 -0.46957,-0.30305 -0.70435,-0.45456zM215.43768,229.7963c0.31117,-0.07592 0.37693,-0.25681 0.40146,-0.4716c0.03717,-0.16293 0.0278,-0.33648 -0.14247,-0.44879c-0.21806,0.09716 -0.41285,0.19964 -0.57702,0.38256c0.10248,0.1948 0.21026,0.36631 0.31805,0.53783zM207.20258,221.67307c-0.22541,0.02203 -0.41161,-0.02046 -0.56516,0.11591c0.28947,0.55579 0.75825,0.54032 1.30013,0.4191c-0.25275,-0.1801 -0.48222,-0.3549 -0.73497,-0.53501zM214.40845,231.83874c-0.04531,-0.23072 -0.12982,-0.39693 -0.30743,-0.58438c-0.15356,0.13637 -0.39162,0.10654 -0.5272,0.27149c-0.00859,0.14496 0.07389,0.21276 0.12247,0.32179c0.07185,0.11434 0.09185,0.24134 0.25478,0.27851c0.16089,-0.06124 0.32179,-0.12247 0.45738,-0.28743zM208.26815,227.84205c0.19807,-0.22416 0.18339,-0.37443 -0.02078,-0.44551c-0.29726,-0.09231 -0.60515,-0.13808 -0.88976,-0.17853c-0.09311,-0.02124 -0.21478,-0.02452 -0.29321,0.10451c0.3924,0.21197 0.79542,0.37739 1.20376,0.51954zM215.60931,224.64422c0.15028,-0.01468 0.24134,-0.09186 0.29649,-0.2262c-0.15637,-0.28055 -0.27884,-0.60233 -0.57283,-0.81634c-0.20338,0.24744 -0.20463,0.46754 -0.00906,0.68357c0.07185,0.11434 0.10981,0.26993 0.2854,0.35897zM208.74705,224.67007c0.07435,-0.32585 0.04373,-0.4063 -0.16575,-0.4541c-0.33116,-0.05107 -0.6856,-0.10747 -1.03801,-0.06544c0.37647,0.28179 0.73497,0.53501 1.20376,0.51954zM211.88916,221.73846c0.18089,0.06576 0.34382,0.10294 0.50143,0.16339c0.32054,0.09762 0.32054,0.09762 0.53251,-0.29477c-0.15231,-0.08373 -0.32257,-0.19604 -0.41037,-0.24056c-0.22869,0.14372 -0.42348,0.24619 -0.62359,0.37195zM202.04961,226.22723c0.08451,0.16621 0.08327,0.3863 0.33929,0.44472c0.14824,-0.11309 0.27851,-0.25478 0.45535,-0.38584c-0.10248,-0.1948 -0.17636,-0.40755 -0.34663,-0.51985c-0.15356,0.13637 -0.32507,0.24416 -0.448,0.46098zM213.40394,223.5778c0.27602,0.18542 0.54674,0.39411 0.82276,0.57953c0.127,-0.02 0.23603,-0.06858 0.22134,-0.21885c-0.16168,-0.25727 -0.38053,-0.47862 -0.66718,-0.61749c-0.16089,0.06124 -0.27524,0.13309 -0.37693,0.25681zM205.07378,222.63205c0.0139,-0.16824 -0.05264,-0.30586 -0.17105,-0.43082c-0.10372,0.02531 -0.20745,0.05062 -0.31117,0.07592c-0.1323,0.04327 -0.2593,0.06327 -0.33773,0.1923c-0.03186,0.13965 -0.01187,0.26665 0.08327,0.3863c0.23603,-0.06858 0.50064,-0.15512 0.73668,-0.2237zM203.56203,227.11105c-0.10248,-0.1948 -0.24416,-0.32507 -0.41442,-0.43739c-0.18214,0.15433 -0.35896,0.2854 -0.51252,0.42177c0.02734,0.20213 0.14575,0.3271 0.28009,0.38224c0.22338,-0.12044 0.44675,-0.24088 0.64685,-0.36663zM206.00774,221.86568c-0.15558,0.03796 -0.31117,0.07592 -0.47206,0.13716c-0.02859,0.01796 -0.03921,0.06452 -0.07311,0.10576c0.04858,0.10904 0.06327,0.2593 0.23354,0.37162c0.20213,-0.02734 0.44551,-0.02078 0.66888,-0.14122c-0.07389,-0.21276 -0.1923,-0.33773 -0.35725,-0.47331zM208.29088,221.08883c-0.25072,-0.08169 -0.23885,-0.34834 -0.4716,-0.40145c-0.20745,0.05062 -0.42223,0.02609 -0.65092,0.1698c0.0792,0.18948 0.16371,0.35569 0.38912,0.33366c0.22541,-0.02203 0.42958,0.04905 0.7334,-0.10202zM214.93978,223.07121c-0.14168,-0.13028 -0.27805,-0.28383 -0.39646,-0.40879c-0.01796,-0.02859 -0.06983,-0.01593 -0.11637,-0.02656c-0.0731,0.10576 -0.21603,0.19557 -0.194,0.42098c0.15965,0.15886 0.34257,0.32303 0.52018,0.51048c0.13028,-0.14168 0.18542,-0.27602 0.18666,-0.49613zM202.1924,227.53314c-0.17152,0.10779 -0.36631,0.21026 -0.50924,0.30008c0.02203,0.22541 0.10654,0.39162 0.19636,0.53455c0.16824,0.0139 0.22869,-0.14372 0.31975,-0.22088c0.09106,-0.07717 0.20541,-0.14903 0.21931,-0.31726c-0.02531,-0.10372 -0.07388,-0.21275 -0.22619,-0.29648zM213.19957,233.59532c0.18948,-0.0792 0.3271,-0.14575 0.46472,-0.21229c0.05187,-0.01265 0.09106,-0.07717 0.11965,-0.09513c0.03717,-0.16293 -0.02937,-0.30054 -0.14778,-0.42551c-0.21276,0.07389 -0.4202,0.1245 -0.62031,0.25026c0.03796,0.15558 0.10451,0.2932 0.18371,0.48268zM212.00928,221.10472c-0.28133,-0.16214 -0.56267,-0.32428 -0.90445,-0.32881c0.02203,0.22541 0.00281,0.41692 0.16247,0.57579c0.42223,-0.02609 0.42223,-0.02609 0.74199,-0.24698zM214.82459,231.51742c0.53251,-0.29477 0.53783,-0.31805 0.40067,-0.79011c-0.1948,0.10248 -0.37162,0.23353 -0.56641,0.33601c-0.0139,0.16824 0.05264,0.30586 0.16575,0.4541zM204.06139,223.52745c-0.21276,0.07389 -0.37896,0.1584 -0.51455,0.32336c0.01265,0.05187 0.04327,0.1323 0.07388,0.21275c0.03593,0.05717 0.09514,0.11965 0.13107,0.17682c0.21276,-0.07389 0.44347,-0.11919 0.60233,-0.27884c-0.03796,-0.15558 -0.15106,-0.30382 -0.29275,-0.4341zM211.78698,234.74223c-0.03061,-0.08045 -0.0792,-0.18947 -0.14372,-0.22869c-0.24009,-0.12825 -0.48347,-0.13481 -0.77667,-0.0303c0.06124,0.16089 0.0653,0.35771 0.18902,0.4594c0.254,-0.03999 0.51534,-0.00485 0.73137,-0.20042zM202.73917,231.57582c-0.02859,0.01796 -0.05717,0.03593 -0.11434,0.07185c0.11716,0.34506 0.32008,0.63624 0.523,0.92741c0.17886,-0.03265 0.26993,-0.10982 0.33569,-0.29071c-0.24213,-0.22666 -0.47894,-0.47659 -0.74434,-0.70855zM207.51333,225.78432c0.31726,0.21931 0.60594,0.45659 1.00693,0.52361c0.02328,0.00531 0.09106,-0.07717 0.10169,-0.12372c0.02656,-0.11637 -0.04531,-0.23072 -0.16168,-0.25727c-0.28665,-0.13886 -0.59984,-0.16136 -0.94694,-0.14262zM203.07151,224.10966c-0.16621,0.08451 -0.33241,0.16902 -0.46269,0.3107c-0.03717,0.16293 -0.01718,0.28993 0.11919,0.44347c0.17682,-0.13106 0.37693,-0.25681 0.53048,-0.39319c-0.01468,-0.15028 -0.06327,-0.2593 -0.18699,-0.36099zM216.00424,228.06456c0.09762,-0.32054 0.18463,-0.59454 0.08544,-0.91101c-0.22541,0.02203 -0.35569,0.16371 -0.468,0.33398c0.09716,0.21806 0.17636,0.40755 0.38256,0.57703zM209.39481,235.56766c-0.09186,-0.24134 -0.10981,-0.26993 -0.17964,-0.28586c-0.22744,-0.07638 -0.46347,-0.00781 -0.67623,0.06609c-0.08045,0.03061 -0.13028,0.14168 -0.00656,0.24337c0.24134,-0.09186 0.52267,0.07029 0.86243,-0.0236zM203.11453,230.68198c-0.23681,-0.24993 -0.44505,-0.51783 -0.83541,-0.63138c0.08857,0.36303 0.3307,0.58968 0.52628,0.80572c0.12169,0.00328 0.18417,-0.05592 0.30914,-0.17433zM214.09557,232.67337c0.04327,0.1323 0.06327,0.2593 0.10654,0.39162c0.23603,-0.06858 0.43082,-0.17105 0.41942,-0.44301c-0.00735,-0.07513 -0.01468,-0.15028 -0.10247,-0.19479c-0.15028,0.01468 -0.26993,0.10981 -0.42348,0.24619zM208.87013,223.05752c0.0478,-0.20948 0.02249,-0.3132 -0.16903,-0.33241c-0.16824,-0.0139 -0.33648,-0.0278 -0.51002,-0.01842c-0.07513,0.00735 -0.15558,0.03796 -0.15355,0.13638c0.26337,0.13355 0.51939,0.19197 0.8326,0.21447zM206.3865,231.79588c0.28133,0.16214 0.57329,0.27773 0.8918,0.27695c0.02328,0.00531 0.09106,-0.07717 0.09638,-0.10044c0.01063,-0.04655 -0.04858,-0.10904 -0.09513,-0.11965c-0.30789,-0.04577 -0.57657,-0.15604 -0.89304,-0.05685zM206.92293,233.09365c-0.24869,0.01672 -0.50471,-0.0417 -0.7926,0.03953c0.27602,0.18542 0.52143,0.29039 0.67702,0.25243c0.15028,-0.01468 0.17152,-0.10779 0.11559,-0.29196zM216.24009,225.74315c-0.0061,-0.29524 0.06826,-0.62108 -0.17387,-0.84774c-0.28179,0.37647 -0.03967,0.60312 0.17387,0.84774zM211.92966,225.10242c0.01063,-0.04655 -0.00735,-0.07513 0.00328,-0.12169c-0.23806,-0.02984 -0.4263,-0.17073 -0.66233,-0.10215c-0.05514,0.13434 -0.0478,0.20948 0.05264,0.30586c0.17886,-0.03265 0.38099,-0.05999 0.6064,-0.08202zM207.15408,228.86117c0.30992,0.14418 0.55533,0.24915 0.83994,0.2896c0.04655,0.01063 0.10372,-0.02531 0.11965,-0.09513c0.00531,-0.02328 -0.00735,-0.07513 -0.02531,-0.10372c-0.28133,-0.16214 -0.56063,-0.22587 -0.93429,-0.09075zM212.15657,234.41028c0.01468,0.15028 0.04531,0.23072 0.12575,0.2001c0.17886,-0.03265 0.36303,-0.08857 0.5472,-0.1445c0.10904,-0.04858 0.12497,-0.11841 0.0478,-0.20948c-0.27196,0.0114 -0.49737,0.03343 -0.72075,0.15387zM202.30125,225.23171c-0.04858,-0.10904 -0.07389,-0.21276 -0.12247,-0.32179c-0.01796,-0.02859 -0.06452,-0.03921 -0.12903,-0.07841c-0.06373,0.2793 -0.19198,0.51939 -0.16792,0.84321c0.17682,-0.13106 0.29649,-0.2262 0.41942,-0.44301zM210.25157,231.06165c0.23806,0.02984 0.45285,0.05436 0.73747,0.09481c-0.17964,-0.28586 -0.37319,-0.40348 -0.61125,-0.43332c-0.09638,0.10044 -0.13558,0.16496 -0.12621,0.3385zM211.33729,223.62048c0.18417,-0.05592 0.42958,0.04905 0.62764,-0.17511c-0.54267,-0.19729 -0.65905,-0.22384 -0.73215,-0.11809c-0.02656,0.11637 0.00407,0.19683 0.10451,0.29321zM206.88198,230.2683c0.2854,0.35896 0.5647,0.42269 0.93507,0.40925c-0.20495,-0.38958 -0.57329,-0.27774 -0.93507,-0.40925zM208.00581,221.58698c0.26744,0.33038 0.52346,0.3888 0.81338,0.40597c0.02328,0.00531 0.05717,-0.03593 0.0678,-0.08248c0.01593,-0.06983 -0.02,-0.127 -0.06655,-0.13762c-0.22744,-0.07638 -0.4655,-0.10622 -0.81463,-0.18588zM211.24308,222.4236c0.22541,-0.02203 0.46347,0.00781 0.67951,-0.18778c-0.21682,-0.12293 -0.43161,-0.14746 -0.62312,-0.16667c-0.10169,0.12372 -0.09966,0.22213 -0.05638,0.35444zM206.75348,220.95841c-0.24665,0.11513 -0.50268,0.05671 -0.64889,0.26821c0.30992,0.14418 0.30992,0.14418 0.69419,-0.0375c-0.01265,-0.05187 -0.02531,-0.10372 -0.04531,-0.23072zM215.19192,225.18565c0.00453,-0.34178 -0.16777,-0.55251 -0.36865,-0.74527c-0.15558,0.03796 -0.17682,0.13106 -0.12293,0.21682c0.15965,0.15886 0.31398,0.34101 0.4916,0.52845zM203.83848,223.10928c0.00859,-0.14496 0.01186,-0.26665 -0.11186,-0.36834c-0.13762,0.06655 -0.27523,0.13309 -0.33038,0.26744c-0.00328,0.12169 0.02734,0.20213 0.10982,0.26993c0.127,-0.02 0.21276,-0.07389 0.33241,-0.16902zM211.47324,227.9612c-0.17027,-0.11232 -0.2993,-0.19073 -0.44957,-0.17604c-0.05187,0.01265 -0.08576,0.05389 -0.11965,0.09513c-0.01593,0.06983 0.00937,0.17354 0.08451,0.16621c0.13965,0.03186 0.30258,0.06904 0.48471,-0.0853zM201.66081,226.75069c-0.11762,0.19355 -0.04373,0.4063 -0.03967,0.60312c0.36631,-0.21027 0.37692,-0.25681 0.03967,-0.60312zM206.60225,234.39175c-0.32789,-0.17277 -0.32789,-0.17277 -0.51534,0.00485c0.12903,0.07841 0.28133,0.16214 0.51534,-0.00485zM211.16878,226.39803c-0.09106,0.07717 -0.107,0.147 -0.06576,0.18089c0.15965,0.15886 0.23478,0.15152 0.49206,-0.01016c-0.147,-0.107 -0.28665,-0.13887 -0.4263,-0.17073zM208.41506,220.65191c0.08982,0.14293 0.18496,0.26258 0.3585,0.25321c0.01514,-0.38834 -0.02609,-0.42224 -0.3585,-0.25321zM205.67609,234.69465c0.13106,0.17682 0.31196,0.24259 0.46957,0.30304c0.09311,0.02124 0.17886,-0.03265 0.11762,-0.19354c-0.15761,-0.06045 -0.3385,-0.12621 -0.58719,-0.1095zM205.28215,221.50422c0.22213,0.09966 0.35443,0.05639 0.44347,-0.11919c0,0 -0.01265,-0.05186 -0.03593,-0.05717c-0.13434,-0.05514 -0.2593,0.06327 -0.40755,0.17636zM210.93121,229.47815c-0.01468,-0.15028 -0.09716,-0.21806 -0.19557,-0.21603c-0.04655,-0.01063 -0.10372,0.02531 -0.13762,0.06655c-0.03389,0.04124 -0.00328,0.12169 0.04327,0.1323c0.06452,0.03921 0.15761,0.06045 0.28993,0.01718zM202.80939,223.756c0.18417,-0.05592 0.27523,-0.13309 0.22462,-0.34054c-0.21276,0.07389 -0.28055,0.15637 -0.22462,0.34054z" fill="#000000"/><path d="M219.06035,231.62687c0.19322,-0.7395 0.38645,-1.47899 0.5564,-2.22379c0.19119,-0.83791 0.28928,-1.69705 0.26569,-2.55949c-0.0114,-0.27196 -0.07999,-0.50799 -0.10935,-0.80854c0.37241,0.08497 0.70357,0.13605 1.02411,0.23368c1.93387,0.53921 3.91757,0.96736 5.88534,1.46533c1.75829,0.45018 3.49861,0.87176 5.26222,1.29867c1.205,0.29944 2.38673,0.59357 3.59172,0.893c1.13517,0.2835 2.25769,0.51515 3.39287,0.79866c0.09311,0.02124 0.1862,0.04249 0.27399,0.08701c0.18168,0.38427 0.21839,0.75996 0.22121,1.17687c-0.00374,0.66029 -0.05935,1.33324 -0.23132,1.97963c-0.0478,0.20948 -0.07232,0.42426 -0.23118,0.58391c0.00125,-0.2201 0.12418,-0.43691 0.06622,-0.7195c-0.40958,0.07795 -0.78932,-0.08216 -1.16704,-0.14385c-0.02328,-0.00531 -0.04654,-0.01063 -0.05186,0.01265c-0.67092,0.04281 -1.3459,-0.11121 -2.02415,-0.14354c-0.24337,-0.00656 -0.50268,0.05671 -0.72481,-0.04295c-0.45488,-0.15276 -0.9449,-0.0442 -1.39979,-0.19697c-0.02328,-0.00531 -0.07513,0.00735 -0.12169,-0.00328c-0.45816,-0.03109 -0.89836,-0.03358 -1.3459,-0.11121c-0.51206,-0.11683 -1.02005,-0.03686 -1.52148,-0.20025c-0.33445,0.07061 -0.6264,-0.04498 -0.95756,-0.09606c-0.04655,-0.01063 -0.06983,-0.01593 -0.11637,-0.02656c-0.50799,0.07999 -0.97553,-0.12464 -1.46227,-0.13776c-0.48675,-0.01312 -0.96491,-0.17119 -1.44634,-0.20758c-0.55126,-0.05233 -1.09518,-0.02951 -1.63785,-0.22679c-0.04655,-0.01063 -0.11637,-0.02656 -0.16824,-0.0139c-0.28789,0.08123 -0.55126,-0.05233 -0.83588,-0.09278c-0.13965,-0.03186 -0.29726,-0.09231 -0.44754,-0.07763c-0.23072,0.04531 -0.41161,-0.02046 -0.62109,-0.06826c-0.11637,-0.02656 -0.22744,-0.07638 -0.33116,-0.05108c-0.33445,0.07061 -0.64967,-0.05029 -0.95225,-0.11934c-0.11637,-0.02656 -0.22744,-0.07638 -0.33116,-0.05107c-0.28258,0.05796 -0.5333,-0.02374 -0.78932,-0.08216c-0.41895,-0.09559 -0.87508,-0.02827 -1.28873,-0.14713c-0.06452,-0.03921 -0.15028,0.01468 -0.22541,0.02203z" fill="#87d7dc"/><path d="M219.06035,231.62687c0.07513,-0.00735 0.16089,-0.06124 0.23073,-0.0453c0.41365,0.11887 0.86447,0.07482 1.28873,0.14713c0.25602,0.05842 0.50674,0.14011 0.78932,0.08216c0.10372,-0.02531 0.21478,0.02452 0.33117,0.05108c0.30258,0.06904 0.62312,0.16667 0.95225,0.11933c0.10372,-0.02531 0.20948,0.0478 0.33117,0.05108c0.20948,0.0478 0.39568,0.09029 0.62109,0.06826c0.15028,-0.01468 0.30789,0.04577 0.44754,0.07763c0.28461,0.04045 0.54798,0.17401 0.83588,0.09278c0.05187,-0.01265 0.12169,0.00328 0.16824,0.0139c0.5194,0.19198 1.08659,0.17448 1.63785,0.22679c0.50471,0.0417 0.98287,0.19977 1.44634,0.20758c0.48675,0.01312 0.95428,0.21775 1.46227,0.13776c0.02859,-0.01796 0.06983,0.01593 0.11637,0.02656c0.30258,0.06904 0.62312,0.16667 0.95756,0.09606c0.49613,0.18666 1.00412,0.10668 1.52148,0.20025c0.44223,0.1009 0.88773,0.08012 1.3459,0.11121c0.04655,0.01063 0.07513,-0.00735 0.12169,0.00328c0.45488,0.15276 0.9449,0.0442 1.39979,0.19697c0.25072,0.08169 0.48675,0.01311 0.72482,0.04295c0.67295,0.05561 1.35324,0.18634 2.02415,0.14354c0.02328,0.00531 0.05187,-0.01265 0.05187,-0.01265c0.37771,0.0617 0.75746,0.2218 1.16704,0.14385c0.06327,0.2593 -0.08294,0.47082 -0.06622,0.7195c-0.04249,0.1862 -0.08497,0.37241 -0.2618,0.50346c-0.13965,-0.03186 -0.29726,-0.09232 -0.44754,-0.07763c-0.52595,0.0514 -1.00942,-0.0834 -1.50883,-0.14838c-0.4994,-0.06498 -1.02536,-0.01358 -1.52148,-0.20025c-0.33445,0.07061 -0.6264,-0.04498 -0.95756,-0.09606c-0.04655,-0.01063 -0.11637,-0.02656 -0.16824,-0.0139c-0.23603,0.06858 -0.45817,-0.03108 -0.67295,-0.0556c-0.11637,-0.02656 -0.23275,-0.05311 -0.33116,-0.05108c-0.53861,-0.00046 -1.09518,-0.02951 -1.63051,-0.15166c-0.06983,-0.01593 -0.15761,-0.06045 -0.21478,-0.02452c-0.2593,0.06327 -0.48675,-0.01312 -0.7195,-0.06622c-0.25072,-0.08169 -0.52065,0.02812 -0.79464,-0.05888c-0.36709,-0.10825 -0.74277,-0.07154 -1.1258,-0.10996c-0.52267,-0.07029 -1.04332,-0.04216 -1.57865,-0.16432c-0.09311,-0.02124 -0.20416,-0.07107 -0.28461,-0.04045c-0.20745,0.05062 -0.41161,-0.02046 -0.6264,-0.04498c-0.1862,-0.04249 -0.37771,-0.0617 -0.55126,-0.05232c-0.32382,0.02406 -0.63702,0.00157 -0.96288,-0.07278c-0.49409,-0.08825 -1.02005,-0.03686 -1.51617,-0.22352c-0.04655,-0.01063 -0.12169,-0.00328 -0.16824,-0.0139c-0.50471,-0.0417 -1.01473,-0.06013 -1.50883,-0.14838c-0.51206,-0.11683 -1.06659,-0.04748 -1.56803,-0.21086c-0.06983,-0.01593 -0.15028,0.01468 -0.22541,0.02203c-0.3132,-0.02249 -0.64436,-0.07357 -0.93101,-0.21244c0.00328,-0.12169 0.02452,-0.21478 0.02249,-0.3132c0.14418,-0.30992 0.25446,-0.57861 0.34677,-0.87587z" fill="#b0eef2"/><path d="M209.30857,220.17015c0.45816,0.03109 0.8126,0.08747 1.14049,0.26024c0.14372,0.22869 0.15512,0.50064 0.18981,0.77792c0.10358,1.37042 0.18389,2.73552 0.06737,4.1047c-0.08872,1.0327 -0.18274,2.08867 -0.39315,3.11809c-0.06373,0.2793 -0.15605,0.57657 -0.14995,0.8718c-0.00328,0.12169 -0.03514,0.26134 -0.06701,0.40099c-0.22056,0.53736 -0.30148,1.10658 -0.4522,1.65988c-0.20384,0.78604 -0.50079,1.55085 -0.84428,2.30502c-0.18339,0.37443 -0.34349,0.75418 -0.50891,1.1572c-0.1209,0.31523 -0.32428,0.56267 -0.50439,0.81542c-0.45613,0.06734 -0.62436,0.05343 -1.17235,-0.12059c0.14011,-0.50674 0.39129,-0.96365 0.57796,-1.45978c0.18135,-0.47285 0.36802,-0.96897 0.5261,-1.44713c0.16339,-0.50143 0.30881,-1.03145 0.44893,-1.53819c0.15807,-0.47816 0.18181,-1.01145 0.40971,-1.47368c0.00046,-0.53861 0.18713,-1.03473 0.28069,-1.55209c0.08825,-0.49409 0.15854,-1.01676 0.22352,-1.51617c0.07029,-0.52267 0.11731,-1.05066 0.16962,-1.60192c0.0417,-0.50471 0.11199,-1.02738 0.13042,-1.53741c0.02374,-0.5333 -0.00439,-1.05394 -0.00392,-1.59255c0.00578,-0.56188 0.0242,-1.0719 -0.06844,-1.63176z" fill="#d1eaeb"/><path d="M218.74216,232.48478c0.00203,0.09841 -0.01921,0.19152 -0.02249,0.3132c0.28665,0.13886 0.58922,0.20791 0.93101,0.21244c0.07513,-0.00735 0.15558,-0.03796 0.22541,-0.02203c0.50143,0.16339 1.05067,0.1173 1.56803,0.21086c0.48878,0.11153 1.00412,0.10668 1.50883,0.14838c0.04655,0.01063 0.12169,0.00328 0.16824,0.0139c0.49613,0.18666 1.00412,0.10668 1.51617,0.22352c0.30258,0.06904 0.63905,0.09685 0.96288,0.07278c0.19682,-0.00407 0.38834,0.01514 0.55126,0.05232c0.20948,0.0478 0.39037,0.11356 0.6264,0.04498c0.08045,-0.03061 0.19151,0.01921 0.28461,0.04045c0.51206,0.11683 1.05597,0.09403 1.57865,0.16432c0.38302,0.03842 0.75871,0.00171 1.1258,0.10996c0.25072,0.08169 0.52064,-0.02812 0.79464,0.05888c0.22744,0.07638 0.47816,0.15808 0.7195,0.06622c0.07513,-0.00735 0.14496,0.00859 0.21478,0.02452c0.53533,0.12215 1.06862,0.14589 1.63051,0.15166c0.12169,0.00328 0.23275,0.05311 0.33116,0.05107c0.20948,0.0478 0.43692,0.12418 0.67295,0.0556c0.05187,-0.01265 0.12169,0.00328 0.16824,0.0139c0.30258,0.06904 0.62312,0.16667 0.95756,0.09606c0.49613,0.18666 1.02208,0.13527 1.52148,0.20025c0.4994,0.06498 1.00615,0.20509 1.50883,0.14838c0.15028,-0.01468 0.30789,0.04577 0.44754,0.07763c-0.02452,0.21478 -0.19604,0.32257 -0.25649,0.48019c-1.00412,-0.10668 -1.96698,-0.17946 -2.92455,-0.27553c-1.05597,-0.09403 -2.08336,-0.20602 -3.13402,-0.32332c-0.98084,-0.10137 -1.96698,-0.17945 -2.95313,-0.25755c-1.22421,-0.10793 -2.43045,-0.18727 -3.63139,-0.28988c-0.91101,-0.08544 -1.82203,-0.17087 -2.73834,-0.23304c-1.41572,-0.12714 -2.83347,-0.35268 -4.25982,-0.43328c-0.19151,-0.01921 -0.39365,0.00812 -0.58719,-0.1095c0.0478,-0.20948 0.16542,-0.40302 0.25977,-0.60187c0.0731,-0.10576 0.07435,-0.32585 0.23322,-0.4855z" fill="#87d7dc"/><path d="M239.65011,234.21909c0.06498,-0.4994 0.21775,-0.95428 0.25945,-1.45899c0.03435,-0.57985 0.04544,-1.16501 -0.08312,-1.78203c1.34995,0.30803 2.67664,0.61075 3.98006,0.90816c0.19761,0.31445 0.22167,0.63827 0.27431,0.94413c0.08732,0.58312 0.01173,1.12907 -0.06918,1.6983c-0.00531,0.02328 -0.03921,0.06452 -0.0678,0.08248c-0.09186,-0.24134 -0.29399,-0.21401 -0.49081,-0.20994c-0.49206,0.01016 -0.97881,-0.00296 -1.439,-0.13245c-0.09311,-0.02124 -0.1862,-0.04249 -0.28461,-0.04045c-0.4741,0.03875 -0.93429,-0.09075 -1.39245,-0.12183c-0.26665,-0.01187 -0.46347,-0.00781 -0.68685,0.11263z" fill="#61afb4"/><path d="M215.5669,232.12757c0.32553,-0.78276 0.48813,-1.60271 0.74384,-2.40141c0.10825,-0.36709 0.14667,-0.75012 0.18509,-1.13314c0.11278,-0.70888 0.32397,-1.41979 0.34364,-2.14991c0.01718,-0.28993 0.03435,-0.57985 0.02295,-0.85181c-0.00938,-0.17354 0.00453,-0.34178 0.0417,-0.50471c0.07513,-0.00735 0.127,-0.02 0.17354,-0.00937c0.1862,0.04249 0.37241,0.08497 0.5586,0.12746c0.04327,0.1323 0.06858,0.23603 0.08857,0.36303c0.08811,0.90164 0.17091,1.82655 -0.03621,2.73428c-0.1573,0.79667 -0.3199,1.61661 -0.5703,2.39203c-0.18994,0.61781 -0.35661,1.24093 -0.72745,1.79298c-0.02,-0.127 0.08169,-0.25072 -0.03671,-0.37568c-0.24541,-0.10497 -0.53205,-0.24383 -0.78729,0.01625z" fill="#61aeb3"/><path d="M217.25379,231.92479c0.04373,-0.4063 0.26836,-0.74684 0.38192,-1.13721c0.21447,-0.8326 0.42893,-1.66519 0.57358,-2.51372c0.10747,-0.6856 0.11652,-1.36917 0.07371,-2.04008c-0.00938,-0.17354 -0.01875,-0.3471 -0.02812,-0.52065c0.32585,0.07435 0.60515,0.13808 0.90773,0.20712c0.21557,0.34303 0.25228,0.71872 0.23714,1.10705c-0.00781,0.46347 -0.02092,0.95022 -0.10386,1.42103c-0.14589,1.06862 -0.42612,2.08211 -0.68838,3.12418c-0.04249,0.1862 -0.08498,0.3724 -0.23853,0.50878c-0.11637,-0.02656 -0.22744,-0.07638 -0.33116,-0.05107c-0.254,0.03999 -0.52799,-0.04701 -0.78401,-0.10543z" fill="#61aeb3"/><path d="M239.65011,234.21909c0.1948,-0.10248 0.39693,-0.12981 0.63499,-0.09998c0.45816,0.03109 0.91836,0.16058 1.39244,0.12183c0.09841,-0.00203 0.19151,0.01921 0.28461,0.04045c0.48878,0.11153 0.95225,0.11933 1.439,0.13245c0.17354,-0.00938 0.39895,-0.0314 0.49081,0.20994c-0.05638,0.35444 -0.17728,0.66967 -0.3627,0.94569c-0.34178,-0.00453 -0.68888,0.01422 -1.00412,-0.10668c-0.04655,-0.01063 -0.12169,-0.00328 -0.16824,-0.0139c-0.48143,-0.03639 -0.98614,-0.07809 -1.46227,-0.13776c-0.21478,-0.02452 -0.40099,-0.06701 -0.62109,-0.06826c-0.27196,0.0114 -0.55657,-0.02905 -0.78604,-0.20384c0.00328,-0.12169 0.02452,-0.21478 0.02249,-0.3132c0.03717,-0.16293 0.10294,-0.34382 0.14011,-0.50674z" fill="#87d7dc"/><path d="M204.39324,228.94133c0.38958,-0.20495 0.78854,-0.23635 1.18219,-0.24447c0.09841,-0.00203 0.23806,0.02984 0.32585,0.07435c0.63249,0.34021 1.28624,0.58733 1.94528,0.81117c0.02328,0.00531 0.06452,0.03921 0.08248,0.0678c0.04858,0.10904 0.02203,0.22541 -0.07435,0.32585c-0.04655,-0.01063 -0.09841,0.00203 -0.14496,-0.00859c-0.5533,-0.15074 -1.12252,-0.23164 -1.69502,-0.19087c-0.29524,0.0061 -0.55126,-0.05233 -0.80402,-0.23243c-0.27072,-0.20869 -0.55735,-0.34756 -0.81745,-0.6028z" fill="#cce5e6"/><path d="M207.58914,231.13978c0.03796,0.15558 -0.00656,0.24337 -0.09232,0.29726c-1.12783,-0.20837 -1.12783,-0.20837 -2.19036,-0.05903c-0.38506,-0.13683 -0.74356,-0.39005 -1.0894,-0.59139c-0.00938,-0.17354 0.13558,-0.16496 0.21603,-0.19557c0.29321,-0.10451 0.56313,-0.21432 0.86899,-0.26696c0.20213,-0.02734 0.37037,-0.01344 0.54595,0.07559c0.55002,0.27242 1.12861,0.52688 1.74111,0.7401z" fill="#cce5e6"/><path d="M239.50469,234.74911c0.00203,0.09841 -0.01921,0.19152 -0.02249,0.3132c0.22947,0.17479 0.51408,0.21525 0.78604,0.20384c0.2201,0.00125 0.4063,0.04373 0.62109,0.06826c0.47613,0.05966 0.98084,0.10136 1.46227,0.13776c0.04655,0.01063 0.12169,0.00328 0.16824,0.0139c0.34382,0.10294 0.66764,0.07888 1.00412,0.10668c-0.08904,0.17558 -0.17277,0.32789 -0.3549,0.48222c-0.66764,-0.07888 -1.36917,-0.11652 -2.05478,-0.22398c-0.66764,-0.07888 -1.35652,-0.06465 -2.05478,-0.22398c0.10825,-0.36709 0.26508,-0.62515 0.44519,-0.8779z" fill="#60adb2"/><path d="M211.19985,225.93986c-0.00203,-0.09841 -0.00938,-0.17354 -0.0114,-0.27196c0.05717,-0.03593 0.08576,-0.05389 0.11434,-0.07185c0.41692,-0.00282 0.8265,-0.08077 1.24139,-0.182c0.17886,-0.03265 0.32382,-0.02406 0.47082,0.08294c0.2993,0.19073 0.63249,0.34021 0.84275,0.70652c-0.36631,0.21027 -0.77589,0.28822 -1.18015,0.34289c-0.07513,0.00735 -0.1862,-0.04249 -0.27399,-0.08701c-0.40302,-0.16542 -0.80604,-0.33084 -1.20376,-0.51954z" fill="#cce5e6"/><path d="M205.38559,224.27036c0.254,-0.03999 0.40958,-0.07795 0.58844,-0.1106c0.32913,-0.04733 0.61375,-0.00688 0.90773,0.20712c0.51081,0.33693 1.06082,0.60935 1.6427,0.74213c0.1862,0.04249 0.20417,0.07108 0.11716,0.34506c-0.06983,-0.01593 -0.14496,-0.00858 -0.21479,-0.02452c-0.57657,-0.15605 -1.1511,-0.21368 -1.74157,-0.20149c-0.14496,-0.00859 -0.26665,-0.01187 -0.37241,-0.08497c-0.30664,-0.26586 -0.6239,-0.48518 -0.92727,-0.87273z" fill="#cae2e3"/><path d="M208.2391,228.39862c-0.02859,0.01796 -0.08045,0.03061 -0.10372,0.02531c-0.52471,-0.1687 -1.05801,-0.19244 -1.57334,-0.18759c-0.48675,-0.01312 -0.92897,-0.11403 -1.31809,-0.44768c-0.18292,-0.16417 -0.43364,-0.24587 -0.58266,-0.45128c0.57375,-0.26088 1.15361,-0.22652 1.62848,0.05325c0.58594,0.32959 1.14329,0.67715 1.82359,0.80789c0.06452,0.03921 0.15761,0.06045 0.12575,0.2001z" fill="#c9e1e2"/><path d="M205.0371,225.90494c0.42551,-0.14778 0.77261,-0.16653 1.14298,-0.17997c0.12169,0.00328 0.23806,0.02984 0.32054,0.09762c0.60391,0.35818 1.24171,0.67512 1.89014,0.94551c0.04655,0.01063 0.11106,0.04983 0.06124,0.16089c-0.16293,-0.03717 -0.34913,-0.07966 -0.51736,-0.09356c-0.47082,-0.08294 -0.94694,-0.14262 -1.42103,-0.10386c-0.3471,0.01875 -0.64436,-0.07357 -0.88649,-0.30023c-0.18292,-0.16417 -0.34257,-0.32303 -0.59001,-0.52641z" fill="#c9e1e2"/><path d="M211.30169,224.42042c-0.08451,-0.16621 -0.05796,-0.28258 -0.0314,-0.39895c0.02859,-0.01796 0.08045,-0.03061 0.10904,-0.04859c0.38302,0.03842 0.76401,-0.02157 1.11439,-0.162c0.21276,-0.07389 0.40427,-0.05468 0.59782,0.06294c0.23478,0.15152 0.49815,0.28508 0.69904,0.47784c-0.2679,0.20823 -0.70934,0.42583 -0.90616,0.4299c-0.127,0.02 -0.20948,-0.0478 -0.32054,-0.09762c-0.40099,-0.06701 -0.7987,-0.25571 -1.26217,-0.26352z" fill="#cae3e4"/><path d="M211.02154,232.73104c-0.31929,-0.31772 -0.65452,-0.56562 -1.01834,-0.79556c-0.01468,-0.15028 0.00656,-0.24337 0.10294,-0.34382c0.44551,-0.02078 0.92366,0.1373 1.37448,0.09324c0.22947,0.17479 0.32664,0.39286 0.47567,0.59828c0.07185,0.11434 0.1723,0.21073 0.1584,0.37897c-0.34506,0.11716 -0.71216,0.00891 -1.09315,0.0689z" fill="#c8e0e1"/><path d="M210.77734,228.75741c0.07108,-0.20417 0.16949,-0.2062 0.2679,-0.20823c0.37037,-0.01344 0.71747,-0.03219 1.08253,-0.02235c0.09841,-0.00203 0.19152,0.01921 0.27399,0.08701c0.21885,0.22134 0.43239,0.46596 0.61735,0.72855c-0.16621,0.08451 -0.31117,0.07593 -0.46675,0.11388c-0.46675,0.11388 -0.86774,0.04687 -1.1711,-0.34068c-0.15433,-0.18214 -0.37647,-0.28179 -0.60391,-0.35818z" fill="#cbe4e5"/><path d="M210.44276,230.22374c0.02656,-0.11637 0.04249,-0.1862 0.05842,-0.25602c0.05187,-0.01265 0.08576,-0.05389 0.10904,-0.04859c0.26665,0.01187 0.52799,0.04701 0.79464,0.05888c0.14496,0.00859 0.25603,0.05842 0.35647,0.15479c0.30133,0.28914 0.57408,0.59624 0.83089,0.97317c-0.24665,0.11513 -0.46144,0.09061 -0.67623,0.06609c-0.09311,-0.02124 -0.1862,-0.04249 -0.24541,-0.10497c-0.30336,-0.38755 -0.73699,-0.63342 -1.22781,-0.84336z" fill="#c8e0e1"/><path d="M217.25379,231.92479c0.25602,0.05842 0.53002,0.14542 0.8126,0.08747c0.10372,-0.02531 0.21478,0.02452 0.33116,0.05107c-0.06701,0.40099 -0.2218,0.75746 -0.4644,1.06941c-0.31523,-0.1209 -0.66232,-0.10215 -0.95225,-0.11934c-0.0792,-0.18948 0.0278,-0.33648 0.01312,-0.48675c0.02452,-0.21478 0.1009,-0.44223 0.25977,-0.60187z" fill="#85d5d9"/><path d="M203.76029,229.13972c0.3585,0.25321 0.67576,0.47253 1.03427,0.72574c-0.18214,0.15433 -0.38427,0.18168 -0.55048,0.26619c-0.18948,0.0792 -0.36631,0.21026 -0.59172,0.23229c-0.16293,-0.03717 -0.28133,-0.16214 -0.40505,-0.26383c-0.12372,-0.10169 -0.24213,-0.22666 -0.35522,-0.3749c0.21401,-0.29399 0.53579,-0.41646 0.86821,-0.58548z" fill="#cae3e3"/><path d="M207.2958,232.64001c-0.73543,0.00361 -1.35448,0.03376 -1.98214,0.20887c-0.28133,-0.16214 -0.56798,-0.30101 -0.87259,-0.46846c0.25525,-0.26009 0.5611,-0.31273 0.8543,-0.41724c0.05187,-0.01265 0.12169,0.00328 0.16824,0.0139c0.56595,0.20259 1.13189,0.4052 1.83218,0.66293z" fill="#cae3e4"/><path d="M213.36962,227.80622c-0.42551,0.14778 -0.81713,0.25432 -1.23483,-0.06137c-0.29399,-0.21401 -0.6378,-0.31695 -0.98162,-0.41988c-0.13965,-0.03186 -0.13637,-0.15355 -0.05796,-0.28258c0.36178,0.13153 0.73746,0.0948 1.11314,0.0581c0.27727,-0.03468 0.47612,0.05967 0.65904,0.22384c0.16496,0.13558 0.36381,0.22994 0.50222,0.4819z" fill="#c8e0e1"/><path d="M215.5669,232.12757c0.27851,-0.25478 0.54189,-0.12123 0.81588,-0.03422c0.11841,0.12497 0.03999,0.254 0.03671,0.37569c-0.09231,0.29726 -0.24915,0.55532 -0.45253,0.80276c-0.25072,-0.08169 -0.52799,-0.04701 -0.73419,-0.2165c0.00328,-0.12169 0.01921,-0.19151 0.04045,-0.28461c0.09966,-0.22213 0.19931,-0.44426 0.29367,-0.64311z" fill="#85d4d9"/><path d="M212.33179,229.99363c0.38099,-0.05999 0.70482,-0.08405 1.03394,-0.13138c0.20823,0.2679 0.38788,0.55376 0.51565,0.85228c-0.08373,0.15231 -0.234,0.16699 -0.34303,0.21557c-0.10904,0.04858 -0.21806,0.09716 -0.37568,0.03671c-0.23681,-0.24993 -0.50425,-0.58031 -0.83089,-0.97318z" fill="#c7dfe0"/><path d="M214.30607,226.59966c0.19557,0.21603 0.39647,0.40879 0.55283,0.68934c-0.27321,0.2315 -0.57907,0.28415 -0.91882,0.37803c-0.24213,-0.22666 -0.48425,-0.45331 -0.74966,-0.68528c0.37896,-0.1584 0.71872,-0.25228 1.11564,-0.3821z" fill="#c8e0e1"/><path d="M203.2704,227.85258c0.22869,-0.14372 0.45738,-0.28743 0.73996,-0.34539c0.29399,0.21401 0.58266,0.45128 0.89462,0.69387c-0.01063,0.04655 -0.02124,0.09311 -0.04452,0.08779c-0.24134,0.09186 -0.50596,0.1784 -0.74198,0.24698c-0.10372,0.02531 -0.20213,0.02733 -0.26134,-0.03514c-0.24744,-0.20338 -0.51081,-0.33693 -0.58673,-0.6481z" fill="#c4dcdd"/><path d="M214.33841,225.92139c-0.28868,-0.23727 -0.55938,-0.44597 -0.87134,-0.68855c0.23931,-0.19026 0.5219,-0.24823 0.75589,-0.41521c0.30461,0.16745 0.46098,0.448 0.69779,0.69794c-0.19275,0.20088 -0.35162,0.36053 -0.58235,0.40584z" fill="#c6ddde"/><path d="M211.25855,222.89238c0.44879,-0.14247 0.91757,-0.15794 1.33574,-0.38086c0.26337,0.13355 0.50878,0.23853 0.72763,0.45987c-0.22666,0.24213 -0.47331,0.35725 -0.81181,0.23105c-0.40302,-0.16542 -0.8326,-0.21447 -1.25155,-0.31006z" fill="#b9cfd0"/><path d="M206.67254,233.86908c-0.10169,0.12372 -0.20213,0.02734 -0.30054,0.02937c-0.2201,-0.00125 -0.43489,-0.02577 -0.6064,0.08202c-0.29851,0.12778 -0.54923,0.04609 -0.81791,-0.06419c-0.11107,-0.04982 -0.21682,-0.12293 -0.36913,-0.20666c0.32507,-0.24416 0.61093,-0.4238 1.03191,-0.22979c0.28665,0.13886 0.61781,0.18994 0.91507,0.28226c0.06983,0.01593 0.13965,0.03186 0.147,0.107z" fill="#c0d8d8"/><path d="M211.33585,233.92916c-0.23603,0.06858 -0.43286,0.07264 -0.61905,0.03015c-0.09311,-0.02124 -0.20948,-0.0478 -0.26868,-0.11028c-0.25478,-0.27851 -0.54877,-0.49252 -0.84275,-0.70652c0.03717,-0.16293 0.12497,-0.11841 0.1948,-0.10248c0.23275,0.05312 0.48878,0.11153 0.73215,0.11808c0.3132,0.02249 0.50674,0.14012 0.61657,0.41004c0.04327,0.1323 0.09716,0.21806 0.18699,0.36099z" fill="#c1d9d9"/><path d="M213.77874,228.26688c0.22416,0.19807 0.36788,0.42676 0.55814,0.66607c-0.19807,0.22416 -0.47003,0.23557 -0.71137,0.32742c-0.2654,-0.23197 -0.41646,-0.53579 -0.61938,-0.82697c0.26993,-0.10982 0.51862,-0.12653 0.77261,-0.16652z" fill="#c3dbdc"/><path d="M205.14646,226.71347c-0.35771,0.0653 -0.68685,0.11263 -1.02129,0.18325c-0.18824,-0.1409 -0.35318,-0.27648 -0.44505,-0.51783c0.23399,-0.16699 0.49331,-0.23025 0.75792,-0.3168c0.28133,0.16214 0.50549,0.36021 0.70841,0.65138z" fill="#c3dadb"/><path d="M214.37672,230.58267c-0.15637,-0.28055 -0.29477,-0.53251 -0.43317,-0.78448c0.21603,-0.19557 0.47534,-0.25884 0.73465,-0.32211c0.1723,0.21073 0.29274,0.43409 0.37928,0.69872c-0.06248,0.0592 -0.15356,0.13637 -0.21073,0.1723c-0.16621,0.08451 -0.29851,0.12778 -0.47003,0.23557z" fill="#c4dbdc"/><path d="M209.16954,234.19397c0.44223,0.1009 0.79135,0.18057 1.16376,0.26554c0.13637,0.15356 0.22088,0.31975 0.24291,0.54516c-0.14824,0.11309 -0.30054,0.02937 -0.45082,0.04406c-0.15028,0.01468 -0.29524,0.00609 -0.41161,-0.02046c-0.17964,-0.28586 -0.32336,-0.51455 -0.54424,-0.8343z" fill="#c2d9da"/><path d="M215.16961,227.75169c0.2062,0.16949 0.23353,0.37162 0.34132,0.54313c-0.17479,0.22947 -0.42144,0.3446 -0.69669,0.47769c-0.14903,-0.20541 -0.29805,-0.41083 -0.45239,-0.59296c0.22666,-0.24213 0.53251,-0.29477 0.80775,-0.42787z" fill="#c3dbdc"/><path d="M213.01397,231.61851c0.13309,0.27523 0.33399,0.468 0.39194,0.75058c-0.18745,0.17761 -0.44879,0.14247 -0.62562,0.27353c-0.25478,-0.27851 -0.38788,-0.55376 -0.56752,-0.83962c0.26258,-0.18496 0.51861,-0.12654 0.8012,-0.1845z" fill="#c7dee0"/><path d="M216.97075,232.52135c0.01468,0.15028 -0.09231,0.29726 -0.01312,0.48675c0.3132,0.02249 0.65499,0.02702 0.95225,0.11934c-0.04452,0.08779 -0.09435,0.19885 -0.16214,0.28133c-0.10169,0.12372 -0.23931,0.19026 -0.40223,0.15309c-0.28461,-0.04045 -0.54595,-0.07559 -0.83056,-0.11606c0.06904,-0.30258 0.12418,-0.43692 0.45581,-0.92445z" fill="#61acb1"/><path d="M211.87445,233.92962c-0.19557,-0.21603 -0.29275,-0.4341 -0.43115,-0.68606c0.3471,-0.01875 0.64764,-0.04812 0.94818,-0.07749c0.18824,0.1409 0.22088,0.31975 0.29477,0.53251c-0.21073,0.1723 -0.48268,0.18371 -0.81181,0.23104z" fill="#c1d9d9"/><path d="M215.26003,225.96029c0.1723,0.21073 0.31601,0.43942 0.46504,0.64483c-0.07108,0.20417 -0.19604,0.32257 -0.39083,0.42505c-0.28133,-0.16214 -0.38584,-0.45535 -0.60469,-0.67669c0.1409,-0.18824 0.33038,-0.26744 0.53048,-0.39319z" fill="#c0d7d7"/><path d="M215.27854,232.7474c-0.02124,0.09311 -0.01921,0.19151 -0.04045,0.28461c0.2062,0.16949 0.48346,0.1348 0.73419,0.2165c-0.0139,0.16824 -0.17479,0.22947 -0.23524,0.38709c-0.32382,0.02406 -0.58719,-0.1095 -0.92694,-0.01562c0.02984,-0.23806 0.13153,-0.36178 0.23853,-0.50878c0.0731,-0.10576 0.06373,-0.2793 0.22994,-0.36381z" fill="#5aa0a4"/><path d="M213.42657,221.86888c0.23478,0.15152 0.50878,0.23853 0.67577,0.47252c-0.08373,0.15231 -0.19807,0.22416 -0.36959,0.33195c-0.24541,-0.10497 -0.48019,-0.25649 -0.65781,-0.44394c0.08373,-0.15231 0.17479,-0.22947 0.35162,-0.36053z" fill="#bdd3d4"/><path d="M215.43768,229.7963c-0.10248,-0.1948 -0.21026,-0.36631 -0.31805,-0.53783c0.16417,-0.18292 0.35896,-0.2854 0.57702,-0.38256c0.17027,0.11232 0.17964,0.28586 0.14247,0.44879c-0.0478,0.20948 -0.0956,0.41895 -0.40146,0.4716z" fill="#bdd4d5"/><path d="M214.40845,231.83874c-0.13558,0.16496 -0.29649,0.2262 -0.45738,0.28743c-0.16293,-0.03717 -0.18292,-0.16417 -0.25478,-0.27851c-0.05389,-0.08576 -0.13107,-0.17683 -0.12247,-0.32179c0.13558,-0.16496 0.36834,-0.11185 0.5272,-0.27149c0.17761,0.18745 0.25681,0.37693 0.30743,0.58438z" fill="#c3dadb"/><path d="M208.26815,227.84205c-0.40833,-0.14214 -0.81666,-0.28429 -1.20376,-0.51954c0.05514,-0.13434 0.17682,-0.13106 0.29321,-0.10451c0.30789,0.04577 0.61046,0.1148 0.88976,0.17853c0.20948,0.0478 0.22416,0.19807 0.02078,0.44551z" fill="#b1c6c7"/><path d="M215.60931,224.64422c-0.17558,-0.08904 -0.21354,-0.24462 -0.30868,-0.36427c-0.19557,-0.21603 -0.17105,-0.43082 0.00906,-0.68357c0.29399,0.21401 0.43973,0.54111 0.57283,0.81634c-0.06045,0.15761 -0.12293,0.21682 -0.27321,0.23151z" fill="#bbd2d3"/><path d="M208.74705,224.67007c-0.46347,-0.00781 -0.82198,-0.26102 -1.20906,-0.49626c0.35771,-0.0653 0.70684,0.01437 1.03801,0.06544c0.21478,0.02452 0.24541,0.10497 0.17105,0.43082z" fill="#bad1d2"/><path d="M213.40394,223.5778c0.07841,-0.12903 0.21604,-0.19557 0.37693,-0.25681c0.28665,0.13886 0.50549,0.36021 0.66718,0.61749c-0.0139,0.16824 -0.09434,0.19885 -0.22134,0.21885c-0.27602,-0.18542 -0.55205,-0.37083 -0.82276,-0.57953z" fill="#bdd4d4"/><path d="M203.56203,227.11105c-0.22338,0.12044 -0.41817,0.22292 -0.64685,0.36663c-0.13434,-0.05514 -0.25806,-0.15683 -0.28009,-0.38224c0.15356,-0.13637 0.33038,-0.26744 0.51252,-0.42177c0.16496,0.13558 0.31196,0.24259 0.41442,0.43739z" fill="#c1d9d9"/><path d="M214.93978,223.07121c-0.02452,0.21478 -0.05638,0.35444 -0.20994,0.49081c-0.17761,-0.18745 -0.36053,-0.35162 -0.52018,-0.51048c-0.02203,-0.22541 0.13886,-0.28665 0.194,-0.42098c0.04655,0.01063 0.09841,-0.00203 0.11637,0.02656c0.15965,0.15886 0.27805,0.28383 0.41974,0.41411z" fill="#c2dada"/><path d="M213.19957,233.59532c-0.0792,-0.18948 -0.14575,-0.3271 -0.20699,-0.48799c0.2001,-0.12575 0.40755,-0.17636 0.62031,-0.25025c0.11841,0.12497 0.18496,0.26258 0.14778,0.42551c-0.03389,0.04124 -0.0678,0.08248 -0.11965,0.09513c-0.11434,0.07185 -0.25197,0.1384 -0.44144,0.2176z" fill="#bbd2d3"/><path d="M214.82459,231.51742c-0.11841,-0.12497 -0.17964,-0.28586 -0.16575,-0.4541c0.2001,-0.12575 0.37162,-0.23353 0.56641,-0.33601c0.14247,0.44879 0.13716,0.47206 -0.40067,0.79011z" fill="#b5cbcc"/><path d="M211.78698,234.74223c-0.21603,0.19557 -0.50064,0.15512 -0.7134,0.22901c-0.14168,-0.13028 -0.12778,-0.29851 -0.18902,-0.4594c0.29321,-0.10451 0.53658,-0.09795 0.77667,0.0303c0.06983,0.01593 0.09513,0.11965 0.12575,0.2001z" fill="#b6cccd"/><path d="M207.51333,225.78432c0.31851,-0.00079 0.63171,0.0217 0.92366,0.1373c0.11107,0.04982 0.18824,0.1409 0.16168,0.25727c-0.01063,0.04655 -0.07841,0.12903 -0.10169,0.12372c-0.35444,-0.05638 -0.66639,-0.29898 -0.98365,-0.51829z" fill="#a7bbbb"/><path d="M216.00424,228.06456c-0.2062,-0.16949 -0.2854,-0.35896 -0.35929,-0.57172c0.11232,-0.17027 0.23728,-0.28868 0.468,-0.33398c0.07592,0.31117 -0.01109,0.58516 -0.10871,0.9057z" fill="#b7cece"/><path d="M209.39481,235.56766c-0.31647,0.09919 -0.59781,-0.06295 -0.85712,0.00033c-0.11841,-0.12497 -0.07389,-0.21276 0.00656,-0.24337c0.21276,-0.07389 0.44347,-0.11919 0.67623,-0.06609c0.06452,0.03921 0.08778,0.04452 0.17433,0.30914z" fill="#b4cacb"/><path d="M214.09557,232.67337c0.15356,-0.13637 0.27321,-0.2315 0.42348,-0.24619c0.08779,0.04452 0.09513,0.11965 0.10247,0.19479c0.02937,0.30054 -0.16011,0.37974 -0.41942,0.44301c-0.02,-0.127 -0.06327,-0.2593 -0.10654,-0.39162z" fill="#b5cbcb"/><path d="M206.3865,231.79588c0.31647,-0.09919 0.61374,-0.00689 0.89304,0.05685c0.04655,0.01063 0.08248,0.0678 0.09513,0.11965c-0.01063,0.04655 -0.0731,0.10576 -0.09638,0.10044c-0.34178,-0.00453 -0.63374,-0.12011 -0.8918,-0.27695z" fill="#99abac"/><path d="M206.92293,233.09365c0.05592,0.18417 0.02937,0.30054 -0.09762,0.32054c-0.17354,0.00938 -0.39568,-0.09029 -0.67702,-0.25243c0.26993,-0.10982 0.52595,-0.0514 0.77464,-0.06811z" fill="#93a5a6"/><path d="M216.24009,225.74315c-0.21354,-0.24462 -0.45566,-0.47128 -0.17387,-0.84774c0.23681,0.24993 0.16778,0.55251 0.17387,0.84774z" fill="#9aadad"/><path d="M211.92966,225.10242c-0.20213,0.02734 -0.42754,0.04936 -0.6064,0.08202c-0.10044,-0.09638 -0.10779,-0.17152 -0.05264,-0.30586c0.23603,-0.06858 0.44754,0.07763 0.66233,0.10215c-0.01063,0.04655 -0.01593,0.06983 -0.00328,0.12169z" fill="#c5dddd"/><path d="M207.15408,228.86117c0.35038,-0.14044 0.65295,-0.07139 0.93429,0.09075c0.02328,0.00531 0.03594,0.05717 0.02531,0.10372c0.00735,0.07513 -0.0731,0.10576 -0.11965,0.09513c-0.26134,-0.03514 -0.52471,-0.1687 -0.83994,-0.2896z" fill="#aec2c3"/><path d="M212.15657,234.41028c0.22338,-0.12044 0.47206,-0.13716 0.69747,-0.15919c0.10044,0.09638 0.05592,0.18417 -0.0478,0.20948c-0.18417,0.05592 -0.34506,0.11716 -0.5472,0.1445c-0.05717,0.03593 -0.11107,-0.04983 -0.10247,-0.19479z" fill="#9caeaf"/><path d="M210.25157,231.06165c-0.00938,-0.17354 0.03514,-0.26134 0.12621,-0.3385c0.23806,0.02984 0.43161,0.14746 0.61125,0.43332c-0.28993,-0.01718 -0.4994,-0.06498 -0.73747,-0.09481z" fill="#b9cfd0"/><path d="M211.33729,223.62048c-0.10044,-0.09638 -0.10248,-0.1948 -0.10451,-0.29321c0.0731,-0.10576 0.18948,-0.0792 0.73215,0.11809c-0.20338,0.24744 -0.44347,0.11919 -0.62764,0.17511z" fill="#869797"/><path d="M206.88198,230.2683c0.35647,0.1548 0.73012,0.01968 0.93507,0.40925c-0.37037,0.01344 -0.64436,-0.07357 -0.93507,-0.40925z" fill="#93a4a5"/><path d="M215.19192,225.18565c-0.15433,-0.18214 -0.33726,-0.34631 -0.48629,-0.55172c-0.05389,-0.08576 -0.03265,-0.17886 0.12293,-0.21682c0.19557,0.21603 0.36788,0.42676 0.36335,0.76854z" fill="#9fb2b2"/><path d="M211.47324,227.9612c-0.15886,0.15965 -0.32179,0.12247 -0.49003,0.10858c-0.06983,-0.01593 -0.10044,-0.09638 -0.08451,-0.16621c0.01063,-0.04655 0.0731,-0.10576 0.11965,-0.09513c0.15558,-0.03796 0.28461,0.04045 0.45488,0.15276z" fill="#91a2a3"/><path d="M206.60225,234.39175c-0.23399,0.16699 -0.35771,0.0653 -0.51534,0.00485c0.16417,-0.18292 0.16417,-0.18292 0.51534,-0.00485z" fill="#555f5f"/><path d="M211.16878,226.39803c0.11637,0.02656 0.2793,0.06373 0.4263,0.17073c-0.25727,0.16168 -0.35038,0.14044 -0.49206,0.01016c-0.04124,-0.03389 -0.02531,-0.10372 0.06576,-0.18089z" fill="#93a5a6"/><path d="M210.93121,229.47815c-0.10904,0.04858 -0.20213,0.02733 -0.28993,-0.01718c-0.04124,-0.03389 -0.07717,-0.09106 -0.04327,-0.1323c0.03389,-0.04124 0.09106,-0.07717 0.13762,-0.06655c0.09311,0.02124 0.18089,0.06576 0.19557,0.21603z" fill="#636e6f"/></g></g><g data-paper-data="{&quot;index&quot;:null}" stroke-linecap="butt"><path d="M243.3061,151.90926c-0.03768,-2.1292 0.22618,-3.56602 0.75162,-4.52479c0.33927,-0.61907 1.33422,-1.31698 1.33422,-1.31698l21.91787,0.02303c0,0 0.63269,0.73323 0.93975,1.27335c0.51931,0.91346 0.82015,2.18613 0.85118,3.93946c0.15312,8.65182 -5.49708,15.80113 -12.62008,15.96846c-7.123,0.16732 -13.02144,-6.71071 -13.17456,-15.36252z" fill="#3c2222" stroke="none" stroke-width="0"/><path d="M246.33365,159.42416l21.28571,-1.57143c0,0 -4.09003,8.78511 -9.85714,9.28571c-8.20166,0.71192 -11.42857,-7.71428 -11.42857,-7.71428z" fill-opacity="0.08443" fill="#ffffff" stroke="none" stroke-width="0"/><path d="M261.04796,166.13844c0,0 -8.39008,2.96028 -14.28572,-5.14286c-3.39736,-4.66942 -2.57143,-14.57143 -2.57143,-14.57143l10.71428,-0.28571l6.14286,20z" fill-opacity="0.08443" fill="#ffffff" stroke="none" stroke-width="0"/><path d="M243.44899,151.76639c-0.03768,-2.12921 0.22618,-3.56603 0.75162,-4.52479c0.33927,-0.61907 1.33422,-1.31698 1.33422,-1.31698l21.91788,0.02303c0,0 0.63268,0.73323 0.93974,1.27334c0.51931,0.91346 0.82015,2.18614 0.85118,3.93946c0.15312,8.65181 -5.49708,15.80113 -12.62008,15.96846c-7.12299,0.16733 -13.02144,-6.71071 -13.17455,-15.36252z" fill="none" stroke="#00021d" stroke-width="3.5"/><path d="M255.78425,166.99562c-7.2828,0.12779 -11.47933,-7.6513 -12.10271,-13.66299c-0.44122,-4.25501 1.87335,-7.34868 1.87335,-7.34868h21.84107c0,0 1.98415,2.87446 1.85649,6.61844c-0.20725,6.07825 -3.71943,14.22216 -13.46821,14.39323z" fill="#71521d" stroke="none" stroke-width="0"/></g><path d="M318.98586,166.13386c-1.10036,-4.06206 2.15594,-7.13597 2.15594,-7.13597c0,0 3.84504,-1.53386 1.66494,-8.50041c1.44837,-2.92484 6.12032,1.36073 6.32597,6.03433c0.03874,0.88052 13.44087,-2.85429 13.84585,-1.5422c1.02528,3.32173 -10.14104,6.05176 -10.14104,6.05176c0,0 2.56289,1.8659 2.92426,3.08492c0.12517,0.42224 -0.81842,2.42346 -0.81842,2.42346c0,0 1.30553,2.52933 0.40332,3.09218c-4.39389,2.74116 -15.18122,0.84654 -16.36084,-3.50807z" fill="#161830" stroke="#00021d" stroke-width="2.5" stroke-linecap="butt"/><g data-paper-data="{&quot;index&quot;:null}"><path d="M230.12023,223.83931c1.90124,-0.11263 3.53516,1.36032 3.64948,3.28994c0.11431,1.92961 -1.33428,3.58517 -3.23552,3.6978c-1.90124,0.11264 -3.53516,-1.36031 -3.64948,-3.28993c-0.11432,-1.92962 3.23552,-3.69781 3.23552,-3.69781z" fill="#00021d" stroke="#00021d" stroke-width="12" stroke-linecap="butt"/><g><path d="M218.80756,225.69073l-1.24836,-8.71446l2.92152,-2.21742l7.04345,-35.13671c0,0 1.29959,-4.48121 4.50217,-4.69351c2.40076,-0.15914 3.33204,3.97939 3.33204,3.97939l3.92069,35.08825l2.35116,1.70396l0.30557,9.31914l-11.35839,4.86557z" fill="#5c2a2a" stroke="none" stroke-width="0" stroke-linecap="butt"/><path d="M218.92078,225.36218l-0.7319,-8.97242l23.75077,8.6105l-11.45325,4.41512z" fill-opacity="0.08443" fill="#ffffff" stroke="none" stroke-width="0" stroke-linecap="butt"/><path d="M218.71243,225.40303l-1.57876,-7.76945l3.36213,-3.5109l7.52387,-34.03061c0,0 0.37928,-4.72119 3.88809,-4.64052c3.91041,0.08991 3.3087,3.98753 3.3087,3.98753l-4.285,50.41658z" fill-opacity="0.08443" fill="#ffffff" stroke="none" stroke-width="0" stroke-linecap="butt"/><path d="M218.64542,225.83112l-1.26931,-9.06802l2.9486,-1.7604l6.7784,-34.77945c0,0 1.15053,-4.8145 4.79237,-4.98848c3.63908,-0.17385 4.1827,4.20678 4.1827,4.20678l3.04468,34.79522l2.71745,1.64542l-0.06703,9.27089l-11.36075,4.82552z" fill="none" stroke="#00021d" stroke-width="3.5" stroke-linecap="butt"/><path d="M239.73403,214.01196l-9.54642,3.22911l-10.51293,-2.52916" fill="none" stroke="#00021d" stroke-width="1.5" stroke-linecap="round"/><path d="M218.63495,225.78685l-1.02122,-8.50372l2.80458,-2.77663l6.51717,-34.11408c0,0 1.65368,-4.99496 4.66299,-5.17907c3.60544,-0.22058 4.53875,4.55042 4.53875,4.55042l2.72932,34.19252l2.90774,2.39937l0.01241,9.21014l-10.93272,4.67369z" fill="#71521d" stroke="none" stroke-width="0" stroke-linecap="butt"/></g><g stroke-linecap="butt"><g><path d="M230.16993,150.0313c0,0 0.31468,-4.42286 2.92945,-4.60034c1.96012,-0.13304 3.46474,3.97152 3.46474,3.97152l-0.01673,34.75384c0,0 -8.99155,0.04902 -10.11136,-0.11395z" fill="#6a3c3c" stroke="none" stroke-width="0"/><path d="" fill-opacity="0.08443" fill="#ffffff" stroke="none" stroke-width="0"/><path d="M230.97919,150.48263c0,0 -0.349,-4.67804 2.51919,-4.55942c-0.07973,0.05915 0.70151,0.76941 0.70151,0.76941l-3.87458,37.55146c0,0 -2.8261,-0.04872 -3.97418,-0.21401z" fill="#71521d" stroke="none" stroke-width="0"/><path d="M226.35085,184.12899l3.78694,-33.4195c0,0 0.48874,-4.7753 3.46287,-4.90972c2.97188,-0.13431 2.75296,4.09113 2.75296,4.09113l0.06037,34.82905" fill="none" stroke="#00021d" stroke-width="3.5"/></g><path d="M227.21772,184.26844l3.87357,-33.56773c0,0 0.0697,-3.79643 3.04384,-3.93085c1.35566,-0.03856 1.32092,3.26962 1.32092,3.26962l0.10229,34.73115" fill="none" stroke="#71521d" stroke-width="1.75"/></g></g><path d="M244.32201,141.23478v-3.1h6.9v3.1z" data-paper-data="{&quot;index&quot;:null}" fill="#b1a785" stroke="#00021d" stroke-width="1.5" stroke-linecap="butt"/><path d="M258.07759,222.70307l2.24986,56.21831l-4.02673,0.96843" data-paper-data="{&quot;index&quot;:null}" fill="none" stroke="#00021d" stroke-width="12" stroke-linecap="round"/><path d="M240.93039,144.80972l-1.98059,-1.64182l1.19027,-1.16369l-1.15023,-1.0814l1.94056,-0.56943h13.24523l2.07611,0.5587l-0.69556,1.09336l0.97141,1.16246l-2.35196,1.64182z" data-paper-data="{&quot;index&quot;:null}" fill="#71521d" stroke="none" stroke-width="0" stroke-linecap="butt"/><g data-paper-data="{&quot;index&quot;:null}"><path d="M256.16452,215.3115l-8.72956,2.81602l-10.49814,-3.11839" fill="none" stroke="#00021d" stroke-width="12" stroke-linecap="round"/><path d="M247.51877,220.79236l-20.03008,-6.18996v-10.83243l3.44603,-5.67413l2.1872,-52.9638l29.1552,-0.16667l1.06503,52.61219l1.75737,6.46318l-0.05175,9.53z" fill="#5c2a2a" stroke="none" stroke-width="0" stroke-linecap="butt"/><path d="M247.49729,163.10148l0.48452,-2.18033l-0.96903,-6.78325l1.69581,-6.78325" fill="none" stroke="#c2c2c2" stroke-width="3.5" stroke-linecap="round"/><path d="M236.44087,147.75174l1.69581,6.78324l-0.96903,6.78324l0.48452,2.18033" data-paper-data="{&quot;index&quot;:null}" fill="none" stroke="#c2c2c2" stroke-width="3.5" stroke-linecap="round"/><path d="M227.73098,213.93235l-0.221,-8.80345l3.01719,-6.96899l2.61091,-51.81776l24.39072,-0.72677l-20.10747,71.70858z" fill-opacity="0.08443" fill="#ffffff" stroke="none" stroke-width="0" stroke-linecap="butt"/><path d="M247.59618,220.47334l-19.86522,-6.78324l-0.05076,-9.94245l3.10417,-5.81397l-0.14631,-13.31464l34.92273,19.96462l-0.29821,9.10644z" fill-opacity="0.08443" fill="#ffffff" stroke="none" stroke-width="0" stroke-linecap="butt"/><path d="M247.81189,220.70491l-20.03009,-6.13063v-10.7286l3.44604,-5.61974l2.1872,-52.62123h28.82187l1.39836,52.10791l1.47165,6.25839l-0.19461,9.58151z" fill="none" stroke="#00021d" stroke-width="3.5" stroke-linecap="butt"/><g stroke-linecap="butt"><path d="M241.02361,213.8928l-13.15254,-4.56744l0.1984,-5.83413l3.75332,-7.08447l16.73672,0.12304l4.53286,7.99722v4.79834z" fill="#694646" stroke="none" stroke-width="0"/><path d="M240.20456,213.67569l-12.006,-4.44445l-0.2,-6.6741l25.22131,7.47411z" fill-opacity="0.14806" fill="#ffffff" stroke="none" stroke-width="0"/><path d="M240.53991,213.86192l-12.785,-4.4753l0.69736,-3.87531h24.17527l0.34868,4.3062z" fill-opacity="0.08443" fill="#ffffff" stroke="none" stroke-width="0"/><path d="M232.39224,210.99263l-3.33363,-0.77855l-1.0537,-6.0286l4.09766,-6.9714l5.77301,-0.22222z" fill-opacity="0.08443" fill="#ffffff" stroke="none" stroke-width="0"/><path d="M240.89802,213.3714l-12.75254,-3.96744l0.1984,-5.83412l3.75332,-7.08447l16.73673,0.12304l4.53287,7.99722v4.79834z" fill="none" stroke="#00021d" stroke-width="3.5"/></g><path d="M247.67894,220.98757l-19.93561,-5.97105l-0.32395,-10.4263l3.69094,-6.17511l2.37553,-53.23432l29.02113,0.03577l1.1553,52.44962l1.51762,6.01712l-0.16473,9.61483z" fill="#71521d" stroke="none" stroke-width="0" stroke-linecap="butt"/></g><path d="M253.62093,209.18618l-11.75,4l-12.75,-3.5l-1,-5.25l4,-7.5h16.5l4.25,6.75z" data-paper-data="{&quot;index&quot;:null}" fill="none" stroke="#000000" stroke-width="3" stroke-linecap="round"/><path d="M249.17432,146.26075c1.6602,0.5534 1.1068,2.2136 1.1068,2.2136l-0.7041,1.91732c-1.35819,1.80192 -0.36355,3.51179 -0.2105,5.65522c0.17308,2.42387 0.07367,4.97378 -0.26318,7.37154c0,0 -0.24748,1.7324 -1.97989,1.48492c-1.73241,-0.24748 -1.48493,-1.97989 -1.48493,-1.97989c0.68797,-4.72534 -1.49902,-10.40475 1.02632,-14.47324l0.2959,-1.08267c0,0 0.5534,-1.6602 2.21359,-1.1068z" data-paper-data="{&quot;index&quot;:null}" fill="#cccccc" stroke="none" stroke-width="0.5" stroke-linecap="butt"/><path d="M234.71075,147.36757c0.5534,-1.6602 2.21359,-1.1068 2.21359,-1.1068l1.92901,1.66271c0.25249,1.79913 1.28609,3.55609 1.50248,5.26803c0.27917,2.20862 -1.12725,3.74729 -1.5,5.70892c-0.23286,1.22545 1.0549,3.49388 1.24752,4.77305c0,0 0.24748,1.73241 -1.48493,1.97989c-1.7324,0.24749 -1.97989,-1.48492 -1.97989,-1.48492c-0.25926,-1.9515 -1.49151,-3.69444 -1.25248,-5.72695c0.16712,-1.42109 1.76779,-3.23051 1.5,-4.79108c-0.23657,-1.37859 -0.88482,-2.7316 -1.26981,-4.15625c-0.42419,-0.21153 -1.33665,-0.83317 -0.9055,-2.12661z" data-paper-data="{&quot;index&quot;:null}" fill="#cccccc" stroke="none" stroke-width="0.5" stroke-linecap="butt"/><path d="M230.75295,217.60368l-11.75,-3" data-paper-data="{&quot;index&quot;:null}" fill="none" stroke="#000000" stroke-width="1.5" stroke-linecap="round"/><path d="M243.89144,194.37259c-7.20447,0 -13.04485,-5.84038 -13.04485,-13.04485c0,-7.20447 5.84038,-13.04485 13.04485,-13.04485c7.20447,0 13.04486,5.84038 13.04486,13.04485c0,7.20447 -5.84039,13.04485 -13.04486,13.04485z" data-paper-data="{&quot;index&quot;:null}" fill="#000000" stroke="#000000" stroke-width="1.5" stroke-linecap="butt"/><path d="M256.46382,181.32775c0,6.94353 -5.62885,12.57239 -12.57239,12.57239c-6.94354,0 -12.57239,-5.62886 -12.57239,-12.5724c0,-6.94354 5.62886,-12.5724 12.5724,-12.5724c6.94355,0 12.5724,5.62886 12.5724,12.5724z" data-paper-data="{&quot;index&quot;:null}" fill="url(#color-1)" stroke="#6d4500" stroke-width="1.5" stroke-linecap="butt"/><path d="M247.18462,171.27399c0,-0.57838 0.18931,-1.20692 0.50935,-1.63826c0.1346,-0.18141 1.4001,0.32633 2.51555,0.98006c1.08378,0.63517 2.02065,1.46065 1.99767,1.52188c-0.3688,0.98302 -1.31722,1.72983 -2.42905,1.72983c-1.43235,0 -2.59352,-1.16115 -2.59352,-2.59352z" data-paper-data="{&quot;index&quot;:null}" fill="#000000" stroke="#6d4500" stroke-width="1.5" stroke-linecap="butt"/><path d="M242.64225,171.73905c1.51662,0 2.74609,1.14409 2.74609,2.55539c0,1.4113 -1.22946,2.55539 -2.74609,2.55539c-1.51662,0 -2.74608,-1.14409 -2.74608,-2.55539c0,-1.4113 1.22945,-2.55539 2.74608,-2.55539z" data-paper-data="{&quot;index&quot;:null}" fill="#000000" stroke="#6d4500" stroke-width="1.5" stroke-linecap="butt"/><path d="M249.39305,175.47676c1.53768,0 2.78422,1.19531 2.78422,2.66981c0,1.47449 -1.24653,2.6698 -2.78422,2.6698c-1.53769,0 -2.78423,-1.1953 -2.78423,-2.6698c0,-1.4745 1.24654,-2.66981 2.78423,-2.66981z" data-paper-data="{&quot;index&quot;:null}" fill="#000000" stroke="#6d4500" stroke-width="1.5" stroke-linecap="butt"/><g data-paper-data="{&quot;index&quot;:null}"><g data-paper-data="{&quot;index&quot;:null}" stroke-linecap="butt"><path d="M223.23546,114.11598c-1.4473,-14.2169 8.90449,-26.91522 23.12138,-28.36253c14.2169,-1.4473 26.91522,8.90449 28.36253,23.12138c1.4473,14.2169 -8.90449,26.91522 -23.12138,28.36253c-14.2169,1.4473 -26.91522,-8.90449 -28.36253,-23.12138z" fill="#fff1bf" stroke="none" stroke-width="0"/><path d="M224.39261,120.86327c0,0 -7.9654,-32.01205 23.86111,-35.02528c14.80906,-1.40207 24.41033,12.42906 26.20368,21.71684c1.08729,5.63101 -0.5074,7.83263 -0.5074,7.83263l0.30127,1.54888c0,0 -1.59144,2.38781 -10.09184,0.81313c-6.3785,-1.1816 -16.00517,-8.28925 -24.31888,-7.39203c-10.22434,1.10342 -15.44794,10.50582 -15.44794,10.50582z" fill-opacity="0.28957" fill="#000000" stroke="none" stroke-width="0"/><path d="M223.22533,114.01648c-1.4473,-14.2169 8.90449,-26.91522 23.12138,-28.36253c14.2169,-1.4473 26.91522,8.90449 28.36253,23.12138c1.4473,14.2169 -8.90449,26.91522 -23.12138,28.36253c-14.2169,1.4473 -26.91522,-8.90449 -28.36253,-23.12138z" fill="none" stroke="#00021d" stroke-width="3.5"/></g><g data-paper-data="{&quot;index&quot;:null}" fill="none" stroke="#161830" stroke-width="3.5" stroke-linecap="round"><path d="M248.11857,112.72202l1.34556,13.21741"/><path d="M263.71983,124.91893l-1.34555,-13.2174"/></g><path d="M220.19406,117.59943c0,0 -1.42162,-47.49982 8.6985,-29.18054c7.61637,-10.35572 28.29287,-11.74822 26.62299,-1.9887c28.47773,7.1064 36.14109,-10.84229 36.14109,-10.84229c0,0 6.50174,52.97555 -18.07117,45.24981c2.26635,-12.73593 -39.75496,-11.66224 -37.68214,-15.29768c-2.48935,-12.86602 -9.48945,11.36999 -11.64271,15.87799c-1.03383,2.16438 -1.16184,-1.36184 -2.1383,-0.18836c-1.00961,1.21331 -1.92824,-3.63024 -1.92824,-3.63024z" data-paper-data="{&quot;index&quot;:null}" fill="#fdfd96" stroke="#00021d" stroke-width="3.5" stroke-linecap="butt"/><path d="M244.71105,133.59871c-1.13982,-0.44399 -2.52393,0.39149 -2.52393,0.39149c0,0 0.31921,-1.38304 0.12343,-1.97806c-0.1984,-0.60291 -1.30609,-1.616 -1.30609,-1.616l-1.03889,-3.15716l17.94728,2.73711l-7.16842,3.7509c0,0 -1.43343,-1.29786 -2.08228,-0.98658c-1.27498,0.61165 -1.8579,3.04829 -1.8579,3.04829c0,0 -0.95341,-1.746 -2.09321,-2.18999z" data-paper-data="{&quot;index&quot;:null}" fill="#ffffff" stroke="#161830" stroke-width="1.5" stroke-linecap="butt"/></g><g><path d="M326.34413,176.23653l-7.86228,3.9604l-3.03285,-2.06255l-35.54937,4.52114c0,0 -4.66172,0.19625 -5.88354,-2.77171c-0.91592,-2.22487 2.71005,-4.42646 2.71005,-4.42646l32.00938,-14.8982l0.86585,-2.77159l8.73589,-3.25945l8.23158,9.21563z" fill="#5c2a2a" stroke="none" stroke-width="0" stroke-linecap="butt"/><path d="M325.99657,176.23387l-8.27139,3.55306l0.59269,-25.25645l7.83485,9.44908z" fill-opacity="0.08443" fill="#ffffff" stroke="none" stroke-width="0" stroke-linecap="butt"/><path d="M326.10173,176.41836l-6.86126,3.97243l-4.39928,-2.06799l-34.65404,3.71327c0,0 -4.5959,1.14504 -5.63763,-2.20654c-1.16095,-3.73518 2.72521,-4.40693 2.72521,-4.40693l49.15353,-12.00515z" fill-opacity="0.08443" fill="#ffffff" stroke="none" stroke-width="0" stroke-linecap="butt"/><path d="M326.52882,176.34542l-8.19073,4.09292l-2.60828,-2.23385l-35.12626,4.65851c0,0 -4.93014,0.44375 -6.25564,-2.95278c-1.32448,-3.39394 2.65452,-5.30524 2.65452,-5.30524l32.01081,-13.97448l0.69363,-3.10013l8.8089,-2.89092l8.19437,9.23063z" fill="none" stroke="#00021d" stroke-width="3.5" stroke-linecap="butt"/><path d="M308.60539,160.12286l6.10301,8.01964l0.95296,10.77081" fill="none" stroke="#00021d" stroke-width="1.5" stroke-linecap="round"/><path d="M326.49024,176.36941l-7.73491,3.67794l-3.52563,-1.77349l-34.41234,4.69408c0,0 -5.26153,0.02434 -6.39505,-2.76941c-1.35806,-3.34715 2.86675,-5.75224 2.86675,-5.75224l31.54003,-13.48349l1.34764,-3.52077l8.726,-2.94684l7.91405,8.8733z" fill="#71521d" stroke="none" stroke-width="0" stroke-linecap="butt"/></g><g stroke-linecap="butt"><g><path d="M258.81345,151.56085c0,0 -2.27438,-3.80629 -0.23228,-5.44893c1.53085,-1.23138 5.11456,1.27229 5.11456,1.27229l18.61321,26.67949c-0.44704,0.221 -0.88316,0.47829 -1.30449,0.77254c-1.99412,1.39265 -3.32477,3.3811 -3.91945,5.55724c-0.89129,0.60015 -1.59356,1.05623 -1.85916,1.18952z" fill="#71521d" stroke="none" stroke-width="0"/><path d="" fill-opacity="0.08443" fill="#ffffff" stroke="none" stroke-width="0"/><path d="M259.73535,151.46752c0,0 -2.96464,-3.63551 -0.5452,-5.18048c-0.03149,0.09415 1.01568,0.22914 1.01568,0.22914l17.68064,31.84618c-0.35643,0.67597 -0.63248,1.38793 -0.82543,2.12041c-0.6766,0.43192 -1.43366,0.89786 -1.91182,1.13874z" fill="#71521d" stroke="none" stroke-width="0"/><path d="M275.20561,181.70277l-16.03019,-29.56748c0,0 -2.3335,-4.19491 0.0279,-6.008c2.35962,-1.81172 4.59948,1.77789 4.59948,1.77789l18.38036,26.22177" fill="none" stroke="#00021d" stroke-width="3.5"/></g><path d="M275.99621,181.32077l-16.04404,-29.73862c0,0 -2.11657,-3.15244 0.24483,-4.96555c1.08938,-0.80783 2.95504,1.9243 2.95504,1.9243l18.28045,26.01215" fill="none" stroke="#71521d" stroke-width="1.75"/></g><path d="M308.01239,160.28322l6.84605,8.40612l0.12757,10.31076" fill="none" stroke="#00021d" stroke-width="1.5" stroke-linecap="round"/></g></g></svg>