<svg version="1.1" xmlns="http://www.w3.org/2000/svg" xmlns:xlink="http://www.w3.org/1999/xlink" width="120.88416" height="202.30755" viewBox="0,0,120.88416,202.30755"><defs><radialGradient cx="239.85291" cy="179.82916" r="21.52948" gradientUnits="userSpaceOnUse" id="color-1"><stop offset="0" stop-color="#b97500"/><stop offset="1" stop-color="#6d4401"/></radialGradient></defs><g transform="translate(-176.41516,-83.58226)"><g data-paper-data="{&quot;isPaintingLayer&quot;:true}" fill-rule="nonzero" stroke-linejoin="miter" stroke-miterlimit="10" stroke-dasharray="" stroke-dashoffset="0" style="mix-blend-mode: normal"><g data-paper-data="{&quot;index&quot;:null}" stroke-linecap="butt"><path d="M243.3061,156.51069c-0.03768,-2.05265 0.22618,-3.43781 0.75162,-4.36211c0.33927,-0.59681 1.33422,-1.26963 1.33422,-1.26963l21.91787,0.0222c0,0 0.63269,0.70687 0.93975,1.22757c0.51931,0.88062 0.82015,2.10753 0.85118,3.79782c0.15312,8.34075 -5.49708,15.23301 -12.62008,15.39433c-7.123,0.1613 -13.02144,-6.46943 -13.17456,-14.81017z" fill="#3c2222" stroke="none" stroke-width="0"/><path d="M246.33365,163.75539l21.28571,-1.51493c0,0 -4.09003,8.46925 -9.85714,8.95185c-8.20166,0.68632 -11.42857,-7.43692 -11.42857,-7.43692z" fill-opacity="0.08443" fill="#ffffff" stroke="none" stroke-width="0"/><path d="M261.04796,170.22827c0,0 -8.39008,2.85385 -14.28572,-4.95795c-3.39736,-4.50154 -2.57143,-14.04753 -2.57143,-14.04753l10.71428,-0.27544l6.14286,19.28092z" fill-opacity="0.08443" fill="#ffffff" stroke="none" stroke-width="0"/><path d="M243.44899,156.37295c-0.03768,-2.05266 0.22618,-3.43782 0.75162,-4.36211c0.33927,-0.59681 1.33422,-1.26963 1.33422,-1.26963l21.91788,0.0222c0,0 0.63268,0.70687 0.93974,1.22756c0.51931,0.88062 0.82015,2.10754 0.85118,3.79782c0.15312,8.34074 -5.49708,15.23301 -12.62008,15.39433c-7.12299,0.16131 -13.02144,-6.46943 -13.17455,-14.81017z" fill="none" stroke="#00021d" stroke-width="3.5"/><path d="M255.78425,171.05463c-7.2828,0.1232 -11.47933,-7.3762 -12.10271,-13.17175c-0.44122,-4.10203 1.87335,-7.08446 1.87335,-7.08446h21.84107c0,0 1.98415,2.77111 1.85649,6.38048c-0.20725,5.85971 -3.71943,13.71082 -13.46821,13.87573z" fill="#71521d" stroke="none" stroke-width="0"/></g><path d="M287.89027,225.83686c0.48958,1.80275 -0.60716,3.64113 -2.44964,4.10616c-1.84247,0.46504 -3.73297,-0.61939 -4.22255,-2.42213c-0.48958,-1.80275 0.60716,-3.64113 2.44964,-4.10616c1.84247,-0.46504 3.73297,0.61939 4.22255,2.42213z" fill="#00021d" stroke="#00021d" stroke-width="12" stroke-linecap="butt"/><g><path d="M272.93587,227.29846l-2.92897,-8.0034l2.4313,-2.64736l0.03388,-34.54726c0,0 0.39785,-4.48171 3.49703,-5.28638c2.32325,-0.6032 4.04611,3.1338 4.04611,3.1338l10.70894,32.43374l2.63907,1.16756l2.12269,8.75287l-10.18713,6.74206z" fill="#5c2a2a" stroke="none" stroke-width="0" stroke-linecap="butt"/><path d="M272.98267,226.96651l-2.47294,-8.34469l24.97629,3.66145l-10.36827,6.33408z" fill-opacity="0.08443" fill="#ffffff" stroke="none" stroke-width="0" stroke-linecap="butt"/><path d="M272.78629,227.0444l-3.06814,-7.04767l2.61037,-3.95332l0.72141,-33.59213c0,0 -0.55161,-4.53503 2.90519,-5.12049c3.85244,-0.65245 4.02482,3.14591 4.02482,3.14591l5.66033,48.47295z" fill-opacity="0.08443" fill="#ffffff" stroke="none" stroke-width="0" stroke-linecap="butt"/><path d="M272.80436,227.46177l-3.01868,-8.33371l2.54726,-2.22039l-0.15615,-34.1595c0,0 0.18648,-4.76871 3.72393,-5.62c3.53476,-0.85064 4.92483,3.18838 4.92483,3.18838l9.79254,32.32191l2.98683,1.04314l1.74785,8.77753l-10.19728,6.70464z" fill="none" stroke="#00021d" stroke-width="3.5" stroke-linecap="butt"/><path d="M291.17335,212.3107l-8.7303,4.8532l-10.80457,-0.4085" fill="none" stroke="#00021d" stroke-width="1.5" stroke-linecap="round"/><path d="M272.78544,227.42192l-2.665,-7.847l2.20722,-3.15399l-0.28217,-33.4812c0,0 0.64461,-5.0342 3.55976,-5.77578c3.49262,-0.88849 5.34122,3.4461 5.34122,3.4461l9.36537,31.81158l3.32093,1.72006l1.81386,8.70511l-9.80722,6.48037z" fill="#71521d" stroke="none" stroke-width="0" stroke-linecap="butt"/></g><g stroke-linecap="butt"><g><path d="M259.60533,156.45884c0,0 -1.87508,-3.87358 0.32364,-5.24853c1.64826,-1.0307 4.95847,1.72211 4.95847,1.72211l16.88029,29.28678c0,0 -7.83376,4.25521 -8.89157,4.64271z" fill="#71521d" stroke="none" stroke-width="0"/><path d="" fill-opacity="0.08443" fill="#ffffff" stroke="none" stroke-width="0"/><path d="M260.53194,156.45982c0,0 -2.57913,-3.77754 -0.01499,-5.02178c-0.04092,0.08721 0.98707,0.31944 0.98707,0.31944l14.86897,33.45169c0,0 -2.49337,1.28341 -3.57701,1.68221z" fill="#71521d" stroke="none" stroke-width="0"/><path d="M272.84378,186.97482l-12.93688,-29.92956c0,0 -1.89432,-4.25209 0.63939,-5.75915c2.53179,-1.50593 4.3946,2.15646 4.3946,2.15646l16.98423,29.314" fill="none" stroke="#00021d" stroke-width="3.5"/></g><path d="M273.66916,186.68608l-12.93324,-30.09505c0,0 -1.78465,-3.23103 0.74906,-4.73811c1.16596,-0.66782 2.7438,2.1355 2.7438,2.1355l16.97325,29.21189" fill="none" stroke="#71521d" stroke-width="1.75"/></g><path d="M291.70955,211.83638l-9.09767,5.31302l-10.78587,-0.99784" fill="none" stroke="#00021d" stroke-width="1.5" stroke-linecap="round"/><path d="M244.32201,146.22v-2.98854h6.9v2.98854z" data-paper-data="{&quot;index&quot;:null}" fill="#b1a785" stroke="#00021d" stroke-width="1.5" stroke-linecap="butt"/><g data-paper-data="{&quot;index&quot;:null}" stroke-linecap="butt"><path d="M248.9343,142.37256c-14.2664,0.79761 -26.5023,-9.70519 -27.32966,-23.45865c-0.82735,-13.75346 10.06714,-25.54944 24.33354,-26.34704c14.2664,-0.79761 26.5023,9.70519 27.32966,23.45865c0.82735,13.75346 -10.06714,25.54944 -24.33354,26.34704z" fill="#fff1bf" stroke="none" stroke-width="0"/><path d="M273.19619,122.62481c0,0 -6.64962,-8.15025 -16.91949,-7.63619c-8.35073,0.418 -16.72736,8.65615 -22.83749,10.75673c-8.14275,2.79938 -10.09298,0.77009 -10.09298,0.77009l0.05163,-1.52036c0,0 -1.92388,-1.85157 -1.74406,-7.37768c0.29659,-9.11474 7.58107,-23.74859 22.42496,-24.67986c31.90136,-2.0014 29.11743,29.68726 29.11743,29.68726z" fill-opacity="0.28957" fill="#000000" stroke="none" stroke-width="0"/><path d="M248.92851,142.27631c-14.2664,0.79761 -26.5023,-9.70519 -27.32966,-23.45865c-0.82735,-13.75346 10.06714,-25.54944 24.33354,-26.34704c14.2664,-0.79761 26.5023,9.70519 27.32966,23.45865c0.82735,13.75346 -10.06714,25.54944 -24.33354,26.34704z" fill="none" stroke="#00021d" stroke-width="3.5"/></g><path d="M276.82353,118.87583c0,0 -0.13829,4.75077 -1.32767,3.75038c-1.15033,-0.96755 -0.71709,2.40839 -2.08131,0.50644c-2.84142,-3.96139 -13.59921,-25.95886 -14.01509,-13.33176c2.62351,3.14316 -39.03561,8.55048 -34.7767,20.32613c-23.03534,11.11324 -25.02357,-40.30511 -25.02357,-40.30511c0,0 10.41481,15.91156 37.40378,4.79038c-3.19762,-9.03389 17.43782,-10.87199 26.60118,-2.18044c7.08446,-18.98517 13.21939,26.44396 13.21939,26.44396z" data-paper-data="{&quot;index&quot;:null}" fill="#fdfd96" stroke="#00021d" stroke-width="3.5" stroke-linecap="butt"/><g stroke="none" stroke-width="1" stroke-linecap="butt"><path d="M199.28271,124.72974c-0.27376,0.25055 -0.54751,0.50109 -0.81142,0.78278c-0.22039,0.25189 -0.23148,0.66345 -0.71592,0.80576c0.38173,-0.69058 0.57108,-1.37567 0.76042,-2.06077c0.22884,-0.16931 0.48999,-0.3481 0.80172,-0.42266c0.01968,0.06227 0.02952,0.09341 0.03936,0.12454c-0.00693,0.25723 -0.03493,0.50364 -0.07416,0.77035z" fill="#c6dede"/><path d="M198.20476,122.32434c-0.31451,0.17745 -0.60794,0.36573 -0.92245,0.54318c-0.13487,-0.14753 -0.04505,-0.31002 -0.04089,-0.46435c0.00416,-0.15433 0.04062,-0.31816 0.056,-0.49281c0.24007,-0.18962 0.54058,-0.24387 0.8214,-0.36039c0.15316,0.26124 0.12516,0.50765 0.08593,0.77436z" fill="#c8e0e1"/><path d="M194.1086,118.96817c0.17409,-0.11919 0.3468,-0.18694 0.51812,-0.20324c0.17977,0.06628 0.19669,0.23144 0.26835,0.3465c0.07166,0.11505 0.18684,0.20031 0.17146,0.37496c-0.15441,0.18146 -0.40294,0.2885 -0.67392,0.43615c-0.0492,-0.15567 -0.09841,-0.31135 -0.15884,-0.44671c-0.03798,-0.17599 -0.07595,-0.35197 -0.12516,-0.50765z" fill="#c5ddde"/><path d="M191.31589,120.34998c-0.05059,-0.10422 -0.07027,-0.16649 -0.08996,-0.22877c-0.02814,-0.14485 -0.04505,-0.31001 -0.08302,-0.48599c0.30466,-0.20859 0.54612,-0.44965 0.90138,-0.55401c0.12503,0.11639 0.13209,0.25041 0.13777,0.43588c-0.25269,0.26137 -0.54889,0.55254 -0.86617,0.83289z" fill="#c7dfe0"/><path d="M199.45071,123.2513c-0.25975,0.12734 -0.47599,0.22489 -0.75681,0.34141c0.01955,-0.32899 0.02786,-0.63766 0.06848,-0.95582c0.19516,-0.10837 0.3791,-0.19643 0.59394,-0.24253c0.10964,0.29104 0.10271,0.54827 0.09439,0.85694z" fill="#c2dada"/><path d="M197.30145,121.36477c-0.07734,-0.30052 -0.11393,-0.52796 -0.17159,-0.76621c0.17548,-0.17064 0.42262,-0.22622 0.66976,-0.28181c0.13348,0.19897 0.23466,0.40743 0.2488,0.67548c-0.19793,0.21126 -0.46476,0.20458 -0.74697,0.37255z" fill="#c6dedf"/><path d="M190.54884,119.48648c-0.20777,0.18012 -0.36357,0.41304 -0.66547,0.51873c-0.04782,-0.20713 -0.10687,-0.39393 -0.16591,-0.58074c0.13473,-0.24373 0.35235,-0.39272 0.61071,-0.46862c0.13487,0.14753 0.18407,0.30319 0.22066,0.53063z" fill="#c3dadb"/><path d="M200.2617,125.25877c-0.24007,0.18962 -0.46892,0.35891 -0.70899,0.54853c0.02509,-0.53477 0.13307,-0.9748 0.74531,-1.10361c0.07027,0.1665 0.00152,0.33981 -0.03632,0.55508z" fill="#bbd2d3"/><path d="M198.96984,129.60226c0.05766,0.23825 0.13778,0.43588 0.19544,0.67415c-0.0772,0.09074 -0.21901,0.20043 -0.33974,0.32097c-0.3231,-0.29639 -0.31187,-0.31669 -0.14484,-0.56992c0.07859,-0.14218 0.17825,-0.27354 0.28914,-0.42519z" fill="#b5cbcc"/><path d="M197.21788,119.31375c0.177,0.16917 0.24728,0.33567 0.31755,0.50216c-0.16425,0.15033 -0.37771,0.14498 -0.59255,0.19108c-0.09134,-0.17733 -0.16162,-0.34382 -0.25296,-0.52114c0.12212,-0.17198 0.33418,-0.11518 0.52796,-0.17211z" fill="#c0d7d8"/><path d="M199.8944,123.03591c-0.02537,-0.24774 -0.01843,-0.50497 -0.0438,-0.75272c0.14041,-0.05826 0.26821,-0.04476 0.39462,0.02018c0.10396,0.10556 0.08996,0.22877 0.09703,0.3628c-0.00277,0.10289 -0.00554,0.20579 -0.00832,0.30868c-0.13057,0.0894 -0.25976,0.12734 -0.43953,0.06106z" fill="#b6cccc"/><path d="M200.38909,124.0985c-0.17409,0.11919 -0.32573,0.19776 -0.52935,0.22355c-0.05766,-0.23825 0.01248,-0.46301 0.03909,-0.65797c0.13196,-0.14084 0.28082,-0.11652 0.41985,-0.12334c0.05198,0.05278 0.09412,0.07443 0.08289,0.09475c-0.00416,0.15433 -0.00832,0.30868 -0.01248,0.46301z" fill="#b7cdce"/><path d="M200.54016,126.41891c-0.04505,-0.31001 0.056,-0.49281 0.11491,-0.69726c0.04907,-0.23558 0.22039,-0.25189 0.42401,-0.27767c0.05766,0.23825 -0.00125,0.4427 -0.0068,0.64848c-0.15441,0.18146 -0.39878,0.13416 -0.53212,0.32645z" fill="#b6cccc"/><path d="M195.92022,119.11651c-0.1418,0.10971 -0.23868,0.13817 -0.36648,0.12467c-0.13764,-0.04464 -0.177,-0.16917 -0.24866,-0.28422c-0.05059,-0.10422 -0.18684,-0.20031 -0.12932,-0.3533c0.17271,-0.06774 0.35526,-0.10436 0.56733,-0.04757c0.08011,0.19763 0.11809,0.37362 0.17714,0.56043z" fill="#bbd2d3"/><path d="M199.54992,129.87419c-0.12932,-0.3533 -0.12932,-0.3533 -0.0438,-0.75272c0.19516,-0.10837 0.37494,-0.04209 0.59824,-0.00561c-0.09398,0.31682 -0.34528,0.52675 -0.55444,0.75832z" fill="#adc2c3"/><path d="M199.29576,121.86774c-0.18394,0.08806 -0.32435,0.14632 -0.52796,0.17211c-0.11241,-0.18814 -0.07457,-0.40341 -0.11116,-0.63084c0.07582,-0.03928 0.14041,-0.05827 0.205,-0.07724c0.06459,-0.01897 0.13902,-0.00682 0.22468,-0.01496c0.15594,0.15834 0.19391,0.33433 0.20944,0.55094z" fill="#bbd1d2"/><path d="M191.87561,118.60336c-0.29344,0.18828 -0.59672,0.34542 -0.87892,0.51338c-0.13625,-0.09608 -0.18684,-0.20031 -0.19253,-0.38578c0.33419,-0.11518 0.66838,-0.23037 1.03209,-0.25215c0.01968,0.06227 0.02952,0.09341 0.03936,0.12454z" fill="#acc1c2"/><path d="M198.99345,120.79968c-0.1095,0.10022 -0.24853,0.10704 -0.40862,0.10303c-0.08011,-0.19763 -0.16023,-0.39527 -0.24035,-0.5929c0.17409,-0.11919 0.31174,-0.07456 0.45921,0.00121c0.09273,0.12588 0.15177,0.31269 0.18975,0.48867z" fill="#b7cdcd"/><path d="M192.63976,119.17849c-0.09273,-0.12588 -0.12226,-0.21928 -0.10825,-0.34249c0.25975,-0.12734 0.53074,-0.27499 0.91552,-0.28596c-0.1698,0.35611 -0.47169,0.46181 -0.80726,0.62843z" fill="#b2c8c9"/><path d="M198.48847,126.46019c0.12489,-0.27487 0.24839,-0.4983 0.44632,-0.70955c0.11657,0.03381 0.12503,0.11639 0.09134,0.17733c-0.05752,0.153 -0.09398,0.31682 -0.1515,0.46983c-0.08982,0.16249 -0.19655,0.15982 -0.38617,0.0624z" fill="#91a3a3"/><path d="M198.1126,119.79948c-0.15594,-0.15834 -0.23744,-0.30453 -0.31755,-0.50217c0.3188,0.05946 0.51687,0.23946 0.76969,0.36935c-0.05475,0.05011 -0.0772,0.09074 -0.1095,0.10022c-0.11796,0.01763 -0.22469,0.01496 -0.34264,0.0326z" fill="#a9bebf"/><path d="M200.13418,126.02779c-0.16841,0.30467 -0.28069,0.50778 -0.39296,0.71089c-0.02246,0.04062 -0.08705,0.0596 -0.15025,0.02713c-0.02107,-0.01083 -0.05198,-0.05278 -0.06182,-0.08392c0.09259,-0.26538 0.2161,-0.4888 0.60503,-0.6541z" fill="#94a5a6"/><path d="M198.47806,128.82803c0.17132,-0.0163 0.24575,-0.00415 0.30619,0.13122c-0.06875,0.17331 -0.14873,0.36694 -0.32421,0.53757c-0.13209,-0.25041 -0.01982,-0.45353 0.01802,-0.6688z" fill="#abbfc0"/><path d="M201.0691,125.02159c-0.1278,-0.0135 -0.18116,-0.01484 -0.2233,-0.03648c-0.07457,-0.40341 -0.07457,-0.40341 0.14582,-0.6553c0.14332,0.2301 0.03105,0.43321 0.07748,0.69178z" fill="#acc0c1"/><path d="M199.75774,121.76606c-0.06043,-0.13536 -0.08996,-0.22877 -0.07595,-0.35197c0.08705,-0.0596 0.17271,-0.06774 0.28928,-0.03394c0.11518,0.08525 0.14332,0.2301 0.17146,0.37496c-0.1095,0.10022 -0.24714,0.05559 -0.38478,0.01096z" fill="#aec2c3"/><path d="M196.81467,118.81973c-0.42262,0.22622 -0.45492,0.23571 -0.57162,-0.18935c0.191,0.04597 0.39462,0.02018 0.57162,0.18935z" fill="#869696"/><path d="M200.92924,126.64487c0.07596,0.35197 0.03243,0.38176 -0.33835,0.26952c0.03645,-0.16382 0.17687,-0.22209 0.33835,-0.26952z" fill="#8b9b9c"/><path d="M188.09586,120.54733c-0.04907,0.23558 -0.15996,0.38725 -0.27085,0.53891c-0.16009,-0.00401 -0.20085,-0.0771 -0.15593,-0.15834c0.08982,-0.16249 0.20071,-0.31415 0.42678,-0.38057z" fill="#9aacad"/><path d="M200.92815,123.51483c0.07027,0.1665 0.163,0.29238 0.05211,0.44404c-0.01123,0.02031 -0.04352,0.0298 -0.06459,0.01897c-0.16716,-0.13803 -0.14194,-0.28155 0.01248,-0.46301z" fill="#5f6a6b"/><path d="M199.40346,120.64521c0.18116,0.01484 0.27527,0.08926 0.26973,0.29505c-0.21346,-0.00534 -0.26405,-0.10957 -0.26973,-0.29505z" fill="#4a5354"/><g><path d="M186.08694,130.49454c-0.19807,-0.18 -0.17146,-0.37496 -0.10132,-0.59971c0.1375,-0.34662 0.33821,-0.66078 0.49678,-0.99657c-0.02952,-0.09341 -0.05905,-0.18681 -0.0998,-0.25991c-0.78979,-1.60539 -0.78756,-3.27329 -0.49605,-4.97515c0.06307,-0.35878 0.10507,-0.72839 0.28471,-1.05336c0.03368,-0.06094 0.05752,-0.153 0.03784,-0.21527c-0.10825,-0.34249 0.03771,-0.60653 0.17382,-0.9017c0.11366,-0.25456 0.26946,-0.48746 0.40419,-0.7312c0.07859,-0.14218 0.19932,-0.26271 0.38187,-0.29932c0.18255,-0.03661 0.33558,-0.16663 0.47737,-0.27633c0.74544,-0.71235 1.60468,-1.28801 2.55666,-1.73779c0.54058,-0.24387 1.09945,-0.37401 1.67939,-0.49334c1.70753,-0.34848 3.38013,-0.19334 5.01072,0.33142c0.73033,0.24481 1.42559,0.60199 2.07594,1.04042c0.49303,0.33153 0.86533,0.78359 1.20534,1.24513c1.08184,1.46855 1.53882,3.13767 1.52259,4.92879c0.00152,0.33981 -0.08261,0.68777 -0.16675,1.03573c-0.04907,0.23558 -0.06584,0.46168 0.07748,0.69178c0.13348,0.19897 0.11671,0.42507 0.04657,0.64982c-0.1375,0.34662 -0.31714,0.6716 -0.49678,0.99657c-0.05614,0.10155 -0.14318,0.16115 -0.23023,0.22075c-0.3468,0.18694 -0.57842,0.45914 -0.77913,0.77329c-0.4028,0.67975 -0.99383,1.21064 -1.5638,1.75236c-0.219,0.20043 -0.45908,0.39005 -0.73006,0.53771c-0.8677,0.49307 -1.73401,0.9347 -2.72257,1.15705c-0.16841,0.30467 -0.36912,0.61882 -0.54876,0.9438c-0.06736,0.12187 -0.14596,0.26404 -0.31728,0.28034c-0.15025,0.02713 -0.19655,0.15981 -0.26391,0.28168c-0.47017,0.80161 -0.91927,1.61406 -1.38943,2.41568c-1.02031,1.79686 -2.05185,3.61402 -3.1143,5.38924c-1.03999,1.73459 -2.01678,3.50165 -3.01464,5.25789c-0.15718,0.28435 -0.34528,0.52675 -0.50246,0.8111c-0.76347,1.38115 -1.52694,2.7623 -2.31147,4.13262c-0.13473,0.24373 -0.22732,0.50911 -0.47723,0.66759c-0.08705,0.0596 -0.12212,0.17198 -0.17826,0.27353c-0.56137,1.01555 -1.15504,2.04059 -1.71642,3.05614c-0.02246,0.04062 -0.05614,0.10155 -0.07859,0.14218c-0.15857,0.3358 -0.39587,0.42252 -0.76942,0.41317c-1.24845,-0.04156 -2.34818,-0.45006 -3.29917,-1.2255c-0.24021,-0.20164 -0.45796,-0.4439 -0.63219,-0.71597c-0.13348,-0.19897 -0.12793,-0.40475 -0.03673,-0.61869c0.27362,-0.6418 0.52617,-1.29443 0.81101,-1.95654c0.20487,-0.46849 0.4631,-0.93565 0.60476,-1.4366c0.30716,-1.09399 0.87838,-2.07841 1.24875,-3.13993c0.21887,-0.59169 0.38437,-1.18473 0.62431,-1.76559c0.26239,-0.62149 0.47142,-1.24432 0.70151,-1.85633c0.42512,-1.11163 0.9036,-2.22192 1.30766,-3.34437c0.49942,-1.49072 1.08311,-2.93815 1.6668,-4.38558c0.19503,-0.49963 0.39005,-0.99925 0.58508,-1.49888c0.31991,-0.7745 0.65106,-1.56929 0.97097,-2.34379c0.18241,-0.42787 0.31146,-0.85708 0.49387,-1.28494c0.17257,-0.459 0.38589,-0.84491 0.59076,-1.31341zM186.77084,130.48078c0.18546,0.25175 0.39337,0.46289 0.65603,0.6239c0.44673,0.46422 0.99313,0.79708 1.53953,1.12995c0.68265,0.42894 1.43127,0.78746 2.15883,1.13516c0.8329,0.40181 1.71487,0.56805 2.62913,0.7248c0.10673,0.00267 0.21346,0.00534 0.37355,0.00936c0.08982,-0.16249 0.17964,-0.32498 0.26946,-0.48746c0.02246,-0.04062 0.02384,-0.09207 0.03646,-0.16383c-0.14748,-0.07576 -0.30619,-0.13122 -0.47612,-0.16637c-0.28651,-0.06895 -0.52949,-0.16771 -0.81599,-0.23665c-0.69942,-0.20284 -1.31886,-0.59932 -1.9846,-0.8631c-0.34832,-0.15287 -0.7191,-0.26512 -1.04497,-0.45861c-0.70372,-0.43977 -1.46357,-0.77798 -2.12238,-1.29898c-0.16716,-0.13803 -0.35539,-0.2869 -0.52255,-0.42493c-0.01691,-0.16516 -0.20791,-0.21114 -0.2908,-0.30587c-0.09273,-0.12588 -0.18545,-0.25175 -0.42844,-0.3505c0.00152,0.33981 -0.20764,0.57138 -0.2581,0.85841c0.09412,0.07442 0.11102,0.23959 0.28096,0.27473zM187.23184,131.60431c-0.38353,-0.43175 -0.49871,-0.517 -0.79506,-0.61709c-0.11366,0.25456 -0.21609,0.4888 -0.32976,0.74336c-0.07859,0.14218 -0.05046,0.28703 0.04227,0.4129c0.06182,0.08392 0.16716,0.13803 0.22898,0.22195c0.23744,0.30453 0.56192,0.54948 0.91024,0.70235c0.09134,0.17733 0.25989,0.26391 0.42844,0.3505c0.93686,0.50739 1.84142,1.02425 2.83441,1.43008c0.44383,0.17585 0.89888,0.3314 1.34409,0.4558c0.36094,0.08111 0.74294,0.17305 1.1305,0.0592c0.14596,-0.26404 0.29191,-0.52809 0.43787,-0.79213c-0.191,-0.04597 -0.36094,-0.08111 -0.50981,-0.10544c-0.67974,-0.14058 -1.33702,-0.32178 -1.94939,-0.58422c-0.79215,-0.32872 -1.52816,-0.759 -2.2754,-1.16897c-0.35817,-0.18401 -0.62789,-0.47905 -0.99729,-0.64275c-0.11102,-0.23959 -0.31048,-0.36814 -0.5001,-0.46556zM177.34817,155.55265c0.2276,0.2734 0.51133,0.44524 0.81751,0.57646c0.00984,0.03114 0.04075,0.07309 0.06182,0.08392c0.51687,0.23946 1.0562,0.43829 1.62075,0.49362c0.33003,0.03916 0.64883,0.09862 0.98301,-0.01656c0.62874,-1.13742 1.25748,-2.27484 1.9199,-3.47319c-0.62915,-0.03635 -1.19093,-0.19456 -1.74148,-0.3731c-0.48735,-0.14605 -0.87504,-0.42347 -1.33993,-0.61014c-0.16855,-0.08659 -0.3048,-0.18267 -0.47335,-0.26926c-0.19669,-0.23144 -0.43689,-0.43309 -0.74169,-0.61576c-0.33682,0.60933 -0.48265,1.26463 -0.75488,1.85499c-0.26239,0.62149 -0.50371,1.25381 -0.75488,1.85499c0.11102,0.23959 0.25712,0.36681 0.40321,0.49402zM179.07818,151.19953c0.09134,0.17733 0.24866,0.28422 0.41721,0.37081c0.12364,0.16783 0.32449,0.24494 0.50287,0.36266c0.57869,0.32338 1.21352,0.5452 1.84973,0.71557c0.38201,0.09193 0.78647,0.14325 1.1937,0.09167c0.04491,-0.08125 0.11089,-0.15166 0.1558,-0.23291c0.55015,-0.99524 1.08906,-1.97017 1.66028,-2.95459c0.6049,-1.04535 1.19857,-2.07039 1.80346,-3.11574c0.87436,-1.53281 1.75855,-3.03449 2.63291,-4.5673c0.99647,-1.70479 1.91851,-3.42175 2.95712,-5.10488c0.17825,-0.27353 0.3256,-0.58902 0.49401,-0.89369c-0.27666,-0.03782 -0.55471,-0.02419 -0.80892,-0.10263c-0.83845,-0.19604 -1.6306,-0.52476 -2.40029,-0.8941c-0.67419,-0.34636 -1.33716,-0.71304 -2.00012,-1.07971c-0.25144,-0.18133 -0.49303,-0.33153 -0.74447,-0.51286c-0.10118,-0.20846 -0.31325,-0.26525 -0.45935,-0.39246c-0.16716,-0.13803 -0.2908,-0.30587 -0.51271,-0.3938c-0.15441,0.18146 -0.20209,0.3656 -0.25962,0.5186c-0.43067,1.31742 -1.04111,2.56855 -1.53498,3.85349c-0.3213,0.82594 -0.6426,1.65187 -0.94284,2.48864c-0.42512,1.11163 -0.81794,2.21378 -1.23184,3.30509c-0.33392,0.89769 -0.66783,1.79539 -1.02281,2.68226c-0.3676,0.95863 -0.74504,1.88613 -1.1337,2.83393c-0.34376,0.86656 -0.69874,1.75343 -1.03266,2.65113c0.17839,0.11773 0.23744,0.30453 0.41721,0.37081zM201.15988,127.59789c-0.56455,-0.05533 -1.0519,-0.20138 -1.55048,-0.32712c-0.51965,-0.13657 -1.02945,-0.242 -1.53787,-0.39888c-0.48735,-0.14605 -0.97331,-0.34356 -1.44943,-0.50992c-0.49719,-0.17719 -0.99438,-0.35438 -1.50141,-0.5627c-0.46489,-0.18668 -0.93963,-0.40449 -1.40452,-0.59117c-0.47473,-0.21781 -0.90456,-0.51686 -1.4242,-0.65344c-0.37507,-0.34917 -0.8835,-0.50605 -1.31471,-0.75365c-0.44105,-0.27874 -0.92563,-0.5277 -1.36668,-0.80644c-0.41999,-0.26792 -0.84981,-0.56698 -1.25857,-0.85521c-0.42983,-0.29906 -0.79367,-0.66854 -1.25718,-0.90666c-0.3116,0.46582 -0.39019,0.60799 -0.42374,1.06018c0.19669,0.23144 0.39337,0.46288 0.65465,0.67534c0.32448,0.24494 0.64897,0.48988 0.98329,0.76595c0.63774,0.51018 1.26563,0.98924 2.00303,1.36807c0.50564,0.25977 1.02252,0.49923 1.48325,0.84025c0.09412,0.07442 0.22053,0.13937 0.36939,0.16369c0.28651,0.06895 0.54917,0.22997 0.80199,0.35986c0.92702,0.47625 1.9214,0.83063 2.90593,1.15388c1.29073,0.45447 2.61791,0.74511 3.97877,0.97482c0.26544,0.05813 0.53087,0.11625 0.80047,0.02005c0.21055,-0.28301 0.35789,-0.59851 0.50801,-1.01689zM193.98426,120.80806c-0.31451,0.17745 -0.54474,0.3982 -0.79604,0.60813c-0.22884,0.16931 -0.38464,0.40221 -0.4351,0.68924c-0.13182,0.5321 -0.33807,1.05203 -0.6286,1.52867c-0.02246,0.04062 -0.03507,0.11238 -0.0463,0.13269c0.07166,0.11505 0.15593,0.15834 0.29496,0.15153c0.0323,-0.00949 0.07582,-0.03928 0.08705,-0.0596c0.3888,-0.55654 0.81974,-1.09144 1.29282,-1.6047c0.06598,-0.07042 0.15441,-0.18146 0.15718,-0.28435c0.09536,-0.36828 0.19073,-0.73654 0.07403,-1.16161zM191.0248,123.2256c0.36635,-0.51593 0.7636,-0.98989 1.1707,-1.43273c0.13196,-0.14084 0.18948,-0.29384 0.21609,-0.4888c0.02939,-0.29785 -0.00582,-0.57673 -0.02979,-0.87591c0.00277,-0.10289 0.01677,-0.2261 -0.13209,-0.25041c-0.29621,0.29117 -0.60226,0.5512 -0.85633,0.86402c-0.11339,1.03707 -0.11339,1.03707 -0.63124,2.02282c0.02952,0.09341 0.10257,0.15701 0.26266,0.16102zM195.09614,127.89905c-0.28637,0.3223 -0.55167,0.65543 -0.81697,0.98856c-0.06598,0.07042 -0.13196,0.14084 -0.1558,0.2329c-0.03216,0.40074 -0.08539,0.79066 0.02148,1.18459c0.38755,-0.11384 0.61917,-0.38604 0.90276,-0.60545c0.1418,-0.10971 0.1881,-0.2424 0.20348,-0.41705c0.01109,-0.41157 0.06432,-0.80149 0.14984,-1.20089c0.01123,-0.02031 -0.01968,-0.06227 -0.03936,-0.12454c-0.07443,-0.01216 -0.16993,-0.03514 -0.26544,-0.05813zM198.23165,122.91189c-0.45353,0.18427 -0.74835,0.42399 -1.06425,0.65289c-0.1095,0.10022 -0.14457,0.2126 -0.17964,0.32498c-0.14305,0.55241 -0.3493,1.07235 -0.65106,1.56929c-0.03368,0.06094 -0.0463,0.13269 -0.07998,0.19362c0.22053,0.13937 0.27389,0.14071 0.36371,-0.02178c0.29191,-0.52809 0.67794,-0.98175 1.14686,-1.34066c0.2836,-0.21942 0.39726,-0.47397 0.43787,-0.79213c-0.00568,-0.18547 -0.00152,-0.33981 0.02648,-0.58622zM193.49966,124.52312c0.10534,0.05412 0.17132,-0.0163 0.21623,-0.09754c0.31437,-0.56871 0.78606,-1.03052 1.25775,-1.49232c0.37342,-0.3819 0.54737,-0.89235 0.47835,-1.50155c-0.24853,0.10703 -0.38187,0.29932 -0.58826,0.428c-0.42401,0.27767 -0.63733,0.66358 -0.77761,1.1131c-0.16273,0.49014 -0.30439,0.9911 -0.59353,1.4163c-0.01261,0.07175 -0.00277,0.10289 0.00707,0.13402zM196.74562,122.17453c-0.26114,0.17879 -0.4563,0.28716 -0.6304,0.40635c-0.29344,0.18828 -0.44923,0.42119 -0.52214,0.74883c-0.08691,0.45086 -0.26932,0.87872 -0.4728,1.29576c-0.05752,0.153 -0.14734,0.31549 -0.22593,0.45766c0.09412,0.07442 0.14887,0.02432 0.17132,-0.0163c0.43094,-0.5349 0.88295,-1.05898 1.408,-1.51945c0.0772,-0.09074 0.14318,-0.16115 0.17825,-0.27353c0.05184,-0.33848 0.12475,-0.66612 0.09371,-1.09934zM196.53573,128.37784c-0.12905,0.4292 -0.39435,0.76233 -0.63858,1.10628c-0.05614,0.10155 -0.16425,0.15032 -0.17825,0.27353c-0.02661,0.19496 0.04657,0.64982 0.17728,0.95168c0.25975,-0.12734 0.43662,-0.34943 0.6444,-0.52955c0.16425,-0.15033 0.233,-0.32364 0.21748,-0.54025c-0.01136,-0.37095 0.01941,-0.72024 0.13584,-1.07769c0.01123,-0.02031 -0.00845,-0.08258 -0.01829,-0.11372c-0.07305,-0.06361 -0.15732,-0.1069 -0.33987,-0.07029zM188.58928,126.01663c-0.03077,0.34929 -0.24271,0.68376 -0.19905,1.04522c0.15871,0.05545 0.27805,-0.01363 0.40723,-0.05158c0.2373,-0.08673 0.47322,-0.122 0.70206,-0.2913c0.07568,-0.43054 0.34237,-0.81511 0.45035,-1.25514c-0.07166,-0.11505 -0.177,-0.16917 -0.3048,-0.18267c-0.31728,0.28034 -0.66547,0.51873 -1.05579,0.73547zM192.48793,126.79382c-0.15441,0.18146 -0.30882,0.36292 -0.49276,0.45098c-0.44369,0.21541 -0.61349,0.57152 -0.63581,1.00339c-0.00416,0.15433 -0.07152,0.27621 -0.01248,0.46301c0.32296,-0.09487 0.59394,-0.24253 0.86492,-0.39018c0.07582,-0.03928 0.12073,-0.12053 0.1558,-0.23291c0.08414,-0.34796 0.17811,-0.66479 0.26225,-1.01275c0.03368,-0.06094 0.03645,-0.16382 -0.14193,-0.28155zM191.16062,126.11192c-0.33128,0.40355 -0.68224,0.74482 -1.13577,0.92909c-0.09689,0.02846 -0.12073,0.12053 -0.16564,0.20177c-0.07998,0.19362 -0.13889,0.39807 -0.11352,0.64581c0.45214,-0.13283 0.79894,-0.31976 1.15697,-0.52701c0.11934,-0.06908 0.19655,-0.15982 0.24284,-0.29251c0.08137,-0.24507 0.1838,-0.47931 0.26516,-0.72438c0.01123,-0.02031 -0.00845,-0.08258 -0.0183,-0.11372c-0.06321,-0.03247 -0.12641,-0.06494 -0.23175,-0.11906zM199.28271,124.72974c0.028,-0.24641 0.06723,-0.51312 0.09523,-0.75952c-0.00984,-0.03114 -0.01968,-0.06227 -0.03936,-0.12455c-0.3328,0.06374 -0.59394,0.24253 -0.80172,0.42266c-0.20057,0.70541 -0.37869,1.3702 -0.76042,2.06077c0.4746,-0.17344 0.50676,-0.57419 0.71592,-0.80576c0.24285,-0.2925 0.5166,-0.54306 0.79036,-0.7936zM193.95876,120.16907c-0.07596,-0.35197 -0.10977,-0.68229 -0.32614,-0.976c-0.16287,0.09888 -0.32435,0.14631 -0.45492,0.23571c-0.13057,0.0894 -0.28221,0.16797 -0.3608,0.31014c-0.03784,0.21527 0.04227,0.4129 0.06902,0.6092c0.02675,0.1963 0.00014,0.39126 0.11255,0.5794c0.32712,-0.24922 0.62195,-0.48893 0.96029,-0.75845zM189.65396,122.5735c0.4211,-0.56604 0.76499,-1.04134 1.10888,-1.51665c0.02246,-0.04062 0.07721,-0.09073 0.05752,-0.153c-0.02398,-0.29919 0.01664,-0.61736 -0.17866,-0.90024c-0.24146,0.24106 -0.47169,0.46181 -0.68085,0.69338c0.01566,0.60786 -0.11755,1.19141 -0.30689,1.87651zM192.72619,129.44589c0.26821,-0.04476 0.42262,-0.22622 0.59672,-0.34542c0.20639,-0.12868 0.34957,-0.28983 0.3888,-0.55654c0.06307,-0.35878 0.12614,-0.71757 0.34792,-1.0209c-0.12503,-0.11639 -0.22053,-0.13937 -0.28789,-0.01751c-0.18948,0.29384 -0.39019,0.60799 -0.66256,0.80709c-0.38187,0.29932 -0.38173,0.69058 -0.38298,1.13327zM190.88741,127.92749c-0.46476,0.20458 -0.84247,0.34956 -1.19911,0.50536c-0.07859,0.14218 -0.0603,0.2559 -0.06307,0.35878c0.01829,0.11372 -0.00693,0.25723 0.11809,0.37362c0.32157,-0.04343 0.64454,-0.1383 0.95766,-0.2643c0.08275,-0.29651 0.1332,-0.58355 0.18643,-0.97346zM193.64502,130.62206c-0.0212,-0.40208 -0.0438,-0.75272 -0.05516,-1.12366c-0.29344,0.18828 -0.57565,0.35624 -0.85786,0.52421c0.00152,0.33981 -0.02786,0.63766 0.12391,0.95035c0.29066,-0.08539 0.52935,-0.22355 0.7891,-0.35089zM195.32932,120.03865c-0.32019,-0.00802 -0.52935,0.22355 -0.76804,0.36172c-0.07582,0.03928 -0.11089,0.15166 -0.10243,0.23424c0.01414,0.26805 0.01843,0.50497 0.0438,0.75272c-0.01123,0.02031 0.03091,0.04196 0.07304,0.06361c0.30466,-0.20859 0.59949,-0.44831 0.90415,-0.6569c0.00693,-0.25723 -0.0718,-0.50631 -0.15053,-0.75539zM198.20476,122.32434c0.03923,-0.26671 0.06723,-0.51312 -0.08593,-0.77436c-0.26959,0.09621 -0.58133,0.17077 -0.8214,0.36039c-0.01539,0.17465 -0.07291,0.32765 -0.056,0.49281c-0.00416,0.15433 -0.11505,0.30601 0.04089,0.46435c0.31451,-0.17745 0.62901,-0.3549 0.92245,-0.54318zM194.29108,130.82358c-0.01677,0.2261 0.1167,0.42507 0.23896,0.64435c0.30328,-0.15714 0.61501,-0.23171 0.85647,-0.47276c-0.07873,-0.24908 -0.06057,-0.52662 -0.2025,-0.80817c-0.30466,0.20859 -0.58826,0.428 -0.89292,0.63659zM198.02162,128.72393c-0.22316,0.35478 -0.37328,0.77316 -0.63858,1.10628c-0.21055,0.28301 -0.15289,0.52127 0.01011,0.81365c0.27098,-0.14765 0.43662,-0.34943 0.63456,-0.56069c-0.09425,-0.46568 0.01373,-0.90571 -0.00609,-1.35924zM188.6313,121.68301c0.0955,0.02298 0.12918,-0.03794 0.16287,-0.09888c0.16702,-0.25322 0.32421,-0.53757 0.5123,-0.77997c0.29759,-0.34261 0.19919,-0.65396 0.0488,-1.01809c-0.12073,0.12053 -0.21901,0.20043 -0.29621,0.29117c-0.19793,0.21126 -0.34251,0.42386 -0.27639,0.7447c0.02675,0.1963 -0.03216,0.40074 -0.07984,0.58488c-0.06598,0.07042 -0.16425,0.15033 -0.07152,0.27621zM187.35067,126.0062c0.15025,-0.02713 0.25837,-0.0759 0.35525,-0.10436c0.3005,-0.05425 0.46476,-0.20458 0.55735,-0.46996c0.07014,-0.22476 0.21471,-0.43736 0.30592,-0.65129c0.03368,-0.06094 0.08843,-0.11104 -0.04782,-0.20712c-0.26253,0.23023 -0.56719,0.43882 -0.90276,0.60545c-0.07582,0.03928 -0.13196,0.14084 -0.17687,0.22209c-0.04768,0.18413 -0.08414,0.34796 -0.09107,0.60519zM192.17438,129.71006c0.028,-0.24641 0.0883,-0.5023 0.04187,-0.76086c-0.33419,0.11518 -0.66699,0.17892 -0.96043,0.3672c0.01414,0.26805 -0.03493,0.50364 0.12946,0.74456c0.26959,-0.09621 0.54903,-0.16128 0.7891,-0.35089zM195.9367,122.07191c0.33419,-0.11518 0.59533,-0.29398 0.81433,-0.49441c-0.01414,-0.26805 -0.01843,-0.50497 -0.107,-0.78519c-0.23591,0.03527 -0.43107,0.14364 -0.6164,0.28315c-0.01955,0.32899 -0.06016,0.64715 -0.09093,0.99645zM189.78282,129.68105c0.04782,0.20713 0.05489,0.34115 0.11532,0.47651c0.02952,0.09341 0.07027,0.1665 0.11102,0.23959c0.26682,0.00668 0.53503,-0.03808 0.77372,-0.17625c0.00693,-0.25723 0.01387,-0.51446 -0.11823,-0.76487c-0.29066,0.08539 -0.55887,0.13015 -0.88183,0.22502zM187.6631,123.92391c-0.36648,0.12467 -0.62485,0.20057 -0.92674,0.30627c-0.06598,0.07042 -0.1235,0.22343 -0.12766,0.37776c-0.02523,0.14352 -0.14596,0.26404 -0.07568,0.43054c0.2233,0.03648 0.40585,-0.00013 0.58978,-0.08819c0.15857,-0.3358 0.32698,-0.64046 0.5403,-1.02637zM194.1086,118.96817c0.0492,0.15567 0.09841,0.31135 0.14761,0.46702c0.0492,0.15567 0.10964,0.29104 0.15884,0.44671c0.27098,-0.14765 0.50828,-0.23438 0.67392,-0.43615c0.00416,-0.15433 -0.0998,-0.2599 -0.17146,-0.37496c-0.07166,-0.11505 -0.10964,-0.29104 -0.26835,-0.34649c-0.205,0.07723 -0.38755,0.11384 -0.54058,0.24387zM192.30688,131.13424c-0.05627,-0.2897 -0.02689,-0.58756 -0.18989,-0.87992c-0.2373,0.08673 -0.45353,0.18427 -0.69083,0.27099c0.05627,0.2897 0.08164,0.53745 0.27832,0.76888c0.20362,-0.02579 0.38478,-0.01095 0.6024,-0.15994zM191.31589,120.34998c0.3285,-0.30066 0.61349,-0.57152 0.89847,-0.84237c-0.01691,-0.16516 -0.01275,-0.31949 -0.13778,-0.43588c-0.35526,0.10436 -0.61778,0.33459 -0.90138,0.55401c0.01691,0.16516 0.03382,0.33032 0.08302,0.48599c-0.02384,0.09207 0.00707,0.13402 0.05766,0.23825zM189.14051,128.15143c-0.00291,-0.28837 0.13182,-0.5321 0.05309,-0.78118c-0.34403,0.08405 -0.65576,0.15861 -0.95904,0.31575c0.06889,0.21794 -0.04339,0.42106 0.09993,0.65116c0.26682,0.00668 0.49428,-0.11117 0.80602,-0.18573zM199.45071,123.2513c0.00832,-0.30868 0.02648,-0.58622 -0.08455,-0.8258c-0.21485,0.0461 -0.41985,0.12333 -0.59394,0.24253c-0.00832,0.30868 -0.03771,0.60653 -0.06848,0.95582c0.24991,-0.15848 0.46614,-0.25602 0.74697,-0.37255zM187.20901,126.50716c-0.06168,0.30734 -0.12198,0.56323 -0.00112,0.83396c0.22469,-0.01496 0.41708,-0.02044 0.59117,-0.13963c0.05046,-0.28703 0.12198,-0.56323 0.17382,-0.9017c-0.26821,0.04476 -0.51535,0.10035 -0.76388,0.20739zM197.30145,121.36477c0.28221,-0.16797 0.58133,-0.17077 0.74697,-0.37255c-0.01414,-0.26805 -0.11532,-0.47651 -0.2488,-0.67548c-0.24714,0.05559 -0.48305,0.09086 -0.66976,0.28181c0.05766,0.23825 0.09425,0.46569 0.17159,0.76621zM194.01191,131.67116c-0.06889,-0.21794 -0.09564,-0.41424 -0.24035,-0.5929c-0.27098,0.14765 -0.58133,0.17077 -0.81156,0.39152c0.04782,0.20713 0.12932,0.3533 0.30771,0.47103c0.25837,-0.0759 0.5069,-0.18293 0.7442,-0.26965zM190.54884,119.48648c-0.03659,-0.22743 -0.09703,-0.3628 -0.21082,-0.49949c-0.2373,0.08673 -0.47598,0.22489 -0.61071,0.46862c0.05905,0.18681 0.11809,0.37362 0.16591,0.58074c0.29205,-0.13683 0.44785,-0.36974 0.65562,-0.54986zM198.4409,130.99958c-0.07027,-0.1665 -0.13071,-0.30186 -0.24589,-0.38711c-0.23868,0.13817 -0.43523,0.29799 -0.60088,0.49976c0.03798,0.17599 0.09841,0.31135 0.22344,0.42774c0.25975,-0.12734 0.41556,-0.36025 0.62333,-0.54038zM190.26351,130.86684c-0.00832,0.30868 0.149,0.41558 0.34985,0.49269c0.14748,0.07576 0.31742,0.11091 0.47044,-0.01911c-0.03659,-0.22743 -0.08441,-0.43454 -0.21789,-0.63351c-0.21485,0.0461 -0.40862,0.10302 -0.6024,0.15994zM200.2617,125.25877c0.03784,-0.21527 0.12766,-0.37776 0.03632,-0.55508c-0.61224,0.12882 -0.72022,0.56884 -0.74531,1.10361c0.24007,-0.18962 0.46892,-0.35891 0.70899,-0.54853zM188.56237,129.39308c0.23453,0.01617 0.41708,-0.02045 0.64454,-0.1383c-0.09134,-0.17733 -0.00014,-0.39126 -0.12377,-0.55909c-0.13764,-0.04464 -0.22469,0.01496 -0.34264,0.0326c-0.12918,0.03794 -0.25698,0.02445 -0.33557,0.16663c0.01691,0.16516 0.03382,0.33032 0.15746,0.49816zM194.02914,124.69083c0.16439,0.24092 0.31325,0.26525 0.43537,0.09327c0.16702,-0.25322 0.29191,-0.52809 0.40557,-0.78264c0.04491,-0.08125 0.07998,-0.19362 -0.02398,-0.29919c-0.30744,0.31148 -0.57274,0.64461 -0.81697,0.98856zM195.19036,132.32874c-0.02523,0.14352 0.02537,0.24774 0.14055,0.333c0.31173,-0.07456 0.65437,-0.10716 0.93797,-0.32658c-0.18546,-0.25175 -0.39753,-0.30854 -0.65728,-0.1812c-0.12918,0.03794 -0.28928,0.03393 -0.42124,0.17478zM196.9646,125.9381c0.29496,0.15153 0.38062,0.14338 0.48167,-0.03942c0.13611,-0.29518 0.28346,-0.61067 0.3353,-0.94914c-0.37064,0.27901 -0.70899,0.54853 -0.81697,0.98856zM198.96984,129.60226c-0.11089,0.15166 -0.18948,0.29384 -0.28914,0.42519c-0.17825,0.27353 -0.17825,0.27353 0.14484,0.56992c0.12073,-0.12053 0.27376,-0.25055 0.33974,-0.32097c-0.07873,-0.24908 -0.12655,-0.4562 -0.19544,-0.67415zM197.21788,119.31375c-0.18255,0.03661 -0.39462,-0.02018 -0.51812,0.20324c0.07027,0.1665 0.17284,0.3235 0.25296,0.52114c0.21485,-0.0461 0.43953,-0.06106 0.59255,-0.19108c-0.09134,-0.17733 -0.15039,-0.36413 -0.32739,-0.5333zM196.79769,130.54659c-0.2513,0.20992 -0.52367,0.40903 -0.77497,0.61895c-0.014,0.12321 0.0043,0.23691 0.15316,0.26124c0.29066,-0.08539 0.56165,-0.23304 0.77081,-0.46461c-0.01691,-0.16516 -0.05627,-0.28971 -0.149,-0.41558zM199.8944,123.03591c0.15871,0.05545 0.30896,0.02833 0.4606,-0.05024c0.00277,-0.10289 0.00554,-0.20579 0.00832,-0.30868c-0.00707,-0.13402 0.00693,-0.25723 -0.09703,-0.3628c-0.12641,-0.06494 -0.25421,-0.07844 -0.39462,-0.02018c0.0043,0.23691 0.01843,0.50497 0.02273,0.74189zM195.96845,120.49739c0.21485,-0.0461 0.37771,-0.14498 0.53074,-0.27499c-0.10118,-0.20846 -0.1813,-0.40609 -0.27264,-0.58341c-0.20223,-0.02565 -0.35387,0.05292 -0.4423,0.16396c0.05766,0.23825 0.11532,0.47651 0.18421,0.69445zM200.38909,124.0985c0.00416,-0.15433 0.00832,-0.30868 -0.00859,-0.47384c-0.00984,-0.03114 -0.05198,-0.05278 -0.08289,-0.09475c-0.11796,0.01763 -0.26682,-0.00668 -0.41985,0.12334c-0.02661,0.19496 -0.09675,0.41972 -0.03909,0.65797c0.22469,-0.01496 0.37633,-0.09354 0.55042,-0.21273zM200.54016,126.41891c0.14457,-0.2126 0.39878,-0.13416 0.51105,-0.33727c0.00554,-0.20579 0.08552,-0.3994 0.0068,-0.64848c-0.20362,0.02579 -0.38617,0.0624 -0.42401,0.27767c-0.03784,0.21527 -0.15996,0.38725 -0.09384,0.70808zM196.88389,132.10345c0.16287,-0.09888 0.3468,-0.18694 0.49844,-0.26551c0.0323,-0.00949 0.03368,-0.06094 0.05614,-0.10155c-0.08289,-0.09474 -0.13209,-0.25041 -0.35539,-0.28689c-0.19516,0.10837 -0.40155,0.23705 -0.62901,0.3549c0.10257,0.15701 0.21775,0.24226 0.42983,0.29906zM195.92022,119.11651c-0.05905,-0.18681 -0.10686,-0.39393 -0.15607,-0.5496c-0.2233,-0.03648 -0.40585,0.00013 -0.56733,0.04757c-0.05752,0.153 0.07873,0.24908 0.12932,0.3533c0.05059,0.10422 0.08996,0.22877 0.24866,0.28422c0.10673,0.00267 0.22468,-0.01496 0.34541,-0.1355zM187.18419,127.82444c0.02675,0.1963 0.05489,0.34115 0.08302,0.48599c-0.00139,0.05145 0.05059,0.10422 0.06043,0.13536c0.14748,0.07576 0.29773,0.04865 0.44937,-0.02993c-0.01552,-0.21661 -0.00998,-0.42239 -0.07887,-0.64034c-0.16009,-0.00401 -0.31034,0.02312 -0.51396,0.04891zM199.54992,129.87419c0.23023,-0.22075 0.46046,-0.44149 0.55444,-0.75832c-0.2233,-0.03648 -0.40307,-0.10277 -0.59824,0.00561c-0.08552,0.3994 -0.08552,0.3994 0.0438,0.75272zM188.76335,129.86144c0.14484,0.56992 0.16591,0.58074 0.65742,0.57246c-0.04782,-0.20713 -0.12793,-0.40475 -0.17575,-0.61187c-0.15871,-0.05545 -0.30896,-0.02833 -0.48167,0.03942zM199.29576,121.86774c-0.01552,-0.21661 -0.0535,-0.39259 -0.17714,-0.56043c-0.05337,-0.00134 -0.13902,0.00682 -0.22468,0.01496c-0.06459,0.01897 -0.14041,0.05827 -0.205,0.07724c0.01552,0.21661 -0.00125,0.4427 0.11116,0.63084c0.16009,0.00401 0.3328,-0.06374 0.49567,-0.16262zM186.44776,126.22039c0.08566,-0.00815 0.20361,-0.02579 0.25837,-0.0759c0.18671,-0.19095 0.25685,-0.41571 0.23287,-0.7149c-0.17132,0.0163 -0.36232,-0.02966 -0.49289,0.05973c-0.028,0.24641 -0.13043,0.48065 0.00166,0.73106zM191.87561,118.60336c-0.00984,-0.03114 -0.01968,-0.06227 -0.03936,-0.12454c-0.36371,0.02178 -0.6979,0.13696 -1.03209,0.25215c-0.01539,0.17465 0.03521,0.27888 0.19253,0.38578c0.28221,-0.16797 0.58549,-0.32511 0.87892,-0.51338zM196.21279,124.50871c-0.29482,0.23972 -0.59949,0.44831 -0.76929,0.80442c-0.01123,0.02031 0.05059,0.10422 0.09273,0.12588c0.10534,0.05412 0.23453,0.01617 0.29066,-0.08539c0.20916,-0.23157 0.31298,-0.51726 0.3859,-0.84491zM198.99345,120.79968c-0.03798,-0.17599 -0.07595,-0.35197 -0.17852,-0.50898c-0.14748,-0.07576 -0.27528,-0.08926 -0.45921,-0.00121c0.08011,0.19763 0.149,0.41558 0.24035,0.5929c0.14887,0.02432 0.26682,0.00668 0.39739,-0.08272zM191.78613,131.83163c0.28373,0.17184 0.52533,0.32204 0.85674,0.30975c0.03784,-0.21527 -0.06473,-0.37229 -0.19959,-0.5198c-0.23591,0.03527 -0.43953,0.06106 -0.65715,0.21006zM186.2784,123.78627c0.25698,-0.02446 0.28928,-0.03393 0.32296,-0.09487c0.13334,-0.19229 0.12905,-0.4292 0.11352,-0.64581c-0.00845,-0.08258 -0.10257,-0.15701 -0.23314,-0.06762c0.02537,0.24774 -0.20487,0.46849 -0.20334,0.8083zM192.63976,119.17849c0.30328,-0.15714 0.6164,-0.28315 0.82833,-0.61762c-0.37355,-0.00936 -0.65576,0.15861 -0.91552,0.28596c-0.03507,0.11238 0.00568,0.18547 0.08718,0.33166zM187.83897,128.89104c-0.13902,0.00682 -0.26682,-0.00668 -0.40585,0.00013c0.0043,0.23691 0.05211,0.44404 0.31755,0.50217c0.07443,0.01216 0.14887,0.02432 0.21484,-0.0461c0.02523,-0.14352 -0.0352,-0.27888 -0.12655,-0.4562zM198.48847,126.46019c0.18962,0.09742 0.29635,0.10009 0.3651,-0.07323c0.05752,-0.153 0.11505,-0.30601 0.1515,-0.46983c0.01261,-0.07175 0.00416,-0.15433 -0.09135,-0.17733c-0.19793,0.21126 -0.32143,0.43468 -0.42526,0.72037zM190.70697,121.94092c-0.23023,0.22075 -0.41832,0.46315 -0.50108,0.75966c-0.01123,0.02031 0.05059,0.10422 0.07166,0.11505c0.04214,0.02165 0.11796,-0.01763 0.14041,-0.05826c0.12489,-0.27487 0.30175,-0.49696 0.289,-0.81645zM189.31395,122.11196c0.04907,-0.23558 0.17257,-0.459 0.16966,-0.74737c-0.2513,0.20992 -0.41694,0.4117 -0.4211,0.56604c-0.02523,0.14352 0.05905,0.18681 0.25144,0.18133zM193.9645,132.6378c0.28651,0.06895 0.58146,0.22049 0.86367,0.05252c-0.28942,-0.35731 -0.57162,-0.18935 -0.86367,-0.05252zM195.71294,128.78967c0.04214,0.02165 0.07443,0.01216 0.11657,0.03381c0.09121,-0.21393 0.27653,-0.35344 0.27223,-0.59036c-0.11518,-0.08525 -0.18962,-0.09742 -0.30896,-0.02833c-0.01539,0.17465 -0.042,0.36961 -0.07984,0.58488zM193.33777,123.39679c-0.22039,0.25189 -0.38603,0.45366 -0.49969,0.70822c-0.02246,0.04062 -0.00277,0.10289 0.06043,0.13536c0.02107,0.01083 0.07443,0.01216 0.10673,0.00267c0.23023,-0.22075 0.36496,-0.46448 0.33253,-0.84625zM186.6712,126.64813c-0.14887,-0.02432 -0.23453,-0.01617 -0.22607,0.06641c-0.01539,0.17465 -0.00971,0.36012 -0.00402,0.54559c0.01829,0.11372 0.0815,0.14619 0.18962,0.09742c0.0603,-0.2559 0.09814,-0.47117 0.04048,-0.70942zM198.1126,119.79948c0.11796,-0.01763 0.22469,-0.01496 0.34264,-0.0326c0.0323,-0.00949 0.05475,-0.05011 0.1095,-0.10022c-0.25282,-0.12989 -0.45089,-0.30988 -0.76969,-0.36935c0.08011,0.19763 0.14055,0.333 0.31755,0.50217zM190.40215,125.72226c-0.09121,0.21393 -0.17119,0.40756 -0.28485,0.66212c0.32296,-0.09487 0.48721,-0.24521 0.57842,-0.45914c-0.07166,-0.11505 -0.12364,-0.16783 -0.29357,-0.20298zM197.29835,128.61315c0.00568,0.18547 -0.15996,0.38725 0.00443,0.62817c0.33267,-0.45499 0.3888,-0.55655 0.30592,-0.65129c-0.10534,-0.05412 -0.19101,-0.04597 -0.31035,0.02312zM192.0512,122.78798c-0.42123,0.17478 -0.55596,0.41851 -0.6401,0.76647c0.42969,-0.0922 0.41833,-0.46315 0.6401,-0.76647zM200.13418,126.02779c-0.38894,0.1653 -0.51244,0.38871 -0.60503,0.6541c-0.01123,0.02031 0.01968,0.06227 0.06182,0.08392c0.06321,0.03247 0.1278,0.0135 0.15025,-0.02713c0.13334,-0.19229 0.22455,-0.40622 0.39296,-0.71089zM198.47806,128.82803c-0.03784,0.21527 -0.12905,0.4292 0.00305,0.67962c0.17548,-0.17064 0.25546,-0.36426 0.32421,-0.53757c-0.09273,-0.12588 -0.18823,-0.14886 -0.32726,-0.14204zM201.0691,125.02159c-0.04643,-0.25857 0.07707,-0.48198 -0.0887,-0.67147c-0.22039,0.25189 -0.22039,0.25189 -0.14582,0.6553c0.05337,0.00134 0.10673,0.00267 0.23453,0.01617zM194.77731,131.80359c0.32864,0.0906 0.57717,-0.01643 0.81585,-0.15459c0.00416,-0.15433 -0.08011,-0.19763 -0.177,-0.16917c-0.19516,0.10837 -0.4114,0.20591 -0.63885,0.32377zM199.75774,121.76606c0.13764,0.04464 0.25421,0.07843 0.38478,-0.01096c-0.02814,-0.14485 -0.05627,-0.2897 -0.17146,-0.37496c-0.11657,-0.03381 -0.20223,-0.02565 -0.28928,0.03394c-0.014,0.12321 0.01552,0.21661 0.07595,0.35197zM193.07383,127.64248c0.15303,-0.13002 0.26253,-0.23023 0.28775,-0.37375c0.00139,-0.05145 -0.02952,-0.09341 -0.06043,-0.13536c-0.06321,-0.03247 -0.16993,-0.03515 -0.18255,0.03661c-0.06736,0.12187 -0.14596,0.26404 -0.04477,0.4725zM196.81467,118.81973c-0.15594,-0.15834 -0.38062,-0.14338 -0.57162,-0.18935c0.10687,0.39393 0.149,0.41557 0.57162,0.18935zM188.14534,121.48551c0.25269,-0.26137 0.25269,-0.26137 0.13043,-0.48065c-0.1095,0.10022 -0.23023,0.22075 -0.13043,0.48065zM194.66215,127.75433c-0.05059,-0.10422 -0.1138,-0.1367 -0.15732,-0.1069c-0.19516,0.10837 -0.20777,0.18012 -0.11921,0.46034c0.1418,-0.10971 0.20917,-0.23157 0.27653,-0.35344zM200.92924,126.64487c-0.16148,0.04743 -0.30189,0.1057 -0.33835,0.26952c0.37078,0.11224 0.41431,0.08245 0.33835,-0.26952zM188.09586,120.54733c-0.205,0.07723 -0.31589,0.2289 -0.41555,0.36025c-0.04491,0.08125 -0.01539,0.17465 0.15593,0.15834c0.09966,-0.13135 0.21055,-0.28301 0.25962,-0.5186zM200.92815,123.51483c-0.15441,0.18146 -0.14734,0.31548 -0.00125,0.4427c0,0 0.05336,0.00134 0.06459,-0.01897c0.08843,-0.11104 0.00693,-0.25723 -0.06334,-0.42373zM191.75206,126.75479c0.14887,0.02432 0.23591,-0.03527 0.25975,-0.12734c0.02246,-0.04062 0.00277,-0.10289 -0.02814,-0.14485c-0.03091,-0.04196 -0.11657,-0.03381 -0.13902,0.00682c-0.05475,0.05011 -0.09966,0.13135 -0.09259,0.26538zM199.40346,120.64521c0.00568,0.18547 0.05627,0.2897 0.26973,0.29505c-0.01552,-0.21661 -0.07734,-0.30052 -0.26973,-0.29505z" fill="#000000"/><path d="M187.54717,133.7744c0.66297,0.36667 1.32593,0.73335 2.00012,1.07971c0.75847,0.38966 1.56184,0.69807 2.40029,0.8941c0.26544,0.05813 0.51119,0.05399 0.80893,0.10263c-0.17964,0.32498 -0.31576,0.62016 -0.49401,0.89369c-1.02738,1.66283 -1.96065,3.40009 -2.95712,5.10488c-0.89543,1.52199 -1.75855,3.03449 -2.63291,4.5673c-0.6049,1.04535 -1.19857,2.07039 -1.80346,3.11574c-0.57121,0.98442 -1.08906,1.97017 -1.66028,2.95459c-0.04491,0.08125 -0.08982,0.16249 -0.1558,0.2329c-0.41846,0.07189 -0.79063,0.01109 -1.1937,-0.09167c-0.63621,-0.17038 -1.27104,-0.3922 -1.84973,-0.71557c-0.18962,-0.09742 -0.39046,-0.17452 -0.50287,-0.36266c0.21207,0.05679 0.38907,0.22596 0.67697,0.24347c0.03216,-0.40074 0.28623,-0.71356 0.4448,-1.04936c0.01123,-0.02031 0.02246,-0.04062 0.00139,-0.05144c0.13459,-0.63499 0.46019,-1.22401 0.66922,-1.84683c0.07014,-0.22476 0.07707,-0.48198 0.23148,-0.66345c0.26668,-0.38458 0.29039,-0.86789 0.55708,-1.25247c0.01123,-0.02031 0.01261,-0.07175 0.03507,-0.11238c0.15012,-0.41838 0.26794,-0.82728 0.46019,-1.22401c0.247,-0.44684 0.30301,-0.93966 0.59215,-1.36485c0.01955,-0.32899 0.20764,-0.57138 0.34376,-0.86656c0.02246,-0.04062 0.03368,-0.06094 0.05614,-0.10155c0.056,-0.49281 0.37605,-0.87605 0.51633,-1.32556c0.14028,-0.44952 0.41819,-0.8544 0.57953,-1.29309c0.19503,-0.49963 0.31562,-1.01141 0.64828,-1.4664c0.02246,-0.04062 0.05614,-0.10155 0.05752,-0.153c-0.00291,-0.28837 0.19503,-0.49963 0.30869,-0.75418c0.06736,-0.12187 0.16702,-0.25322 0.19225,-0.39673c0.01677,-0.2261 0.12766,-0.37776 0.22871,-0.56056c0.05614,-0.10155 0.13334,-0.19229 0.13612,-0.29517c0.01955,-0.32899 0.21887,-0.59169 0.36483,-0.85574c0.05614,-0.10155 0.13334,-0.19229 0.13611,-0.29518c0.01816,-0.27754 0.16273,-0.49014 0.28623,-0.71356c0.20209,-0.3656 0.25671,-0.80696 0.47987,-1.16174c0.05475,-0.05011 0.02523,-0.14352 0.03784,-0.21527z" fill="#87d7dc"/><path d="M187.54717,133.7744c-0.01261,0.07175 0.01691,0.16516 -0.01678,0.2261c-0.22316,0.35478 -0.29885,0.78532 -0.47987,1.16174c-0.1235,0.22342 -0.26807,0.43602 -0.28623,0.71356c-0.00277,0.10289 -0.07998,0.19362 -0.13612,0.29518c-0.14596,0.26404 -0.32421,0.53757 -0.36482,0.85574c-0.00277,0.10289 -0.10105,0.1828 -0.13612,0.29518c-0.10105,0.1828 -0.19087,0.34529 -0.22871,0.56056c-0.02523,0.14352 -0.12489,0.27487 -0.19225,0.39673c-0.11366,0.25456 -0.3116,0.46582 -0.30869,0.75418c-0.00139,0.05145 -0.03507,0.11238 -0.05752,0.153c-0.32144,0.43469 -0.45326,0.96677 -0.64828,1.4664c-0.17257,0.459 -0.45048,0.86389 -0.57953,1.29309c-0.14028,0.44952 -0.46033,0.83275 -0.51633,1.32556c0.00984,0.03114 -0.03368,0.06094 -0.05614,0.10155c-0.14596,0.26404 -0.32421,0.53757 -0.34376,0.86656c-0.31021,0.41438 -0.36621,0.90719 -0.59215,1.36485c-0.21332,0.38591 -0.31007,0.80562 -0.46019,1.22401c-0.02246,0.04062 -0.01261,0.07175 -0.03507,0.11238c-0.26668,0.38458 -0.29039,0.86789 -0.55708,1.25247c-0.14457,0.2126 -0.14027,0.44952 -0.23148,0.66346c-0.2301,0.61201 -0.53462,1.21184 -0.66922,1.84683c-0.01123,0.02031 -0.00139,0.05145 -0.00139,0.05145c-0.15857,0.3358 -0.41264,0.64862 -0.4448,1.04936c-0.26682,-0.00668 -0.4326,-0.19616 -0.67697,-0.24347c-0.16855,-0.08659 -0.3371,-0.17318 -0.41721,-0.37081c0.06736,-0.12187 0.16703,-0.25322 0.19225,-0.39673c0.0883,-0.5023 0.34514,-0.918 0.53878,-1.36619c0.19364,-0.44818 0.28194,-0.95048 0.59215,-1.36485c0.01955,-0.32899 0.20764,-0.57138 0.34376,-0.86656c0.02246,-0.04062 0.05614,-0.10155 0.05752,-0.153c-0.0043,-0.23691 0.15012,-0.41839 0.23009,-0.61201c0.05614,-0.10155 0.11227,-0.20311 0.13612,-0.29517c0.14166,-0.50097 0.31562,-1.01141 0.57385,-1.47857c0.03368,-0.06094 0.09966,-0.13135 0.07998,-0.19362c0.00693,-0.25723 0.14028,-0.44952 0.25255,-0.65263c0.14457,-0.2126 0.10937,-0.49148 0.26516,-0.72438c0.20071,-0.31415 0.26378,-0.67293 0.40128,-1.01957c0.20487,-0.46849 0.31423,-0.95997 0.57247,-1.42712c0.04491,-0.08125 0.12211,-0.17198 0.11366,-0.25456c0.00554,-0.20579 0.12766,-0.37776 0.20764,-0.57138c0.08982,-0.16249 0.15857,-0.3358 0.19502,-0.49963c0.06168,-0.30734 0.1655,-0.59303 0.32269,-0.87739c0.21471,-0.43736 0.30301,-0.93966 0.61322,-1.35403c0.02246,-0.04062 0.03507,-0.11238 0.05752,-0.153c0.17257,-0.459 0.32407,-0.92883 0.53878,-1.36619c0.247,-0.44684 0.32546,-0.98027 0.6146,-1.40547c0.03368,-0.06094 0.02523,-0.14352 0.03784,-0.21527c0.10382,-0.2857 0.23994,-0.58087 0.4491,-0.81244c0.11657,0.03381 0.20084,0.0771 0.29635,0.10009c0.26128,0.21247 0.49165,0.38298 0.75431,0.54399z" fill="#b0eef2"/><path d="M201.15988,127.59789c-0.15012,0.41838 -0.29746,0.73387 -0.55015,0.99524c-0.25837,0.0759 -0.5238,0.01777 -0.80047,-0.02004c-1.34964,-0.25003 -2.68804,-0.52035 -3.97877,-0.97482c-0.97331,-0.34356 -1.96769,-0.69794 -2.90593,-1.15388c-0.25282,-0.12989 -0.51549,-0.29091 -0.80199,-0.35986c-0.11657,-0.03381 -0.24298,-0.09875 -0.36939,-0.16369c-0.46074,-0.34101 -0.98883,-0.56017 -1.48325,-0.84024c-0.7051,-0.38832 -1.3653,-0.85789 -2.00303,-1.36807c-0.31325,-0.26525 -0.63774,-0.51018 -0.98329,-0.76594c-0.2725,-0.19215 -0.45796,-0.4439 -0.65465,-0.67535c0.05461,-0.44137 0.11214,-0.59436 0.42374,-1.06018c0.45228,0.25843 0.82735,0.6076 1.25718,0.90666c0.40876,0.28823 0.83858,0.58729 1.25857,0.85521c0.44105,0.27874 0.9144,0.548 1.36668,0.80644c0.41999,0.26792 0.9284,0.4248 1.31471,0.75365c0.51965,0.13657 0.94947,0.43562 1.4242,0.65344c0.45367,0.20699 0.93963,0.40448 1.40453,0.59117c0.48596,0.1975 0.98315,0.3747 1.50141,0.5627c0.47612,0.16637 0.96208,0.36387 1.44943,0.50992c0.50842,0.15688 1.01822,0.26231 1.53787,0.39888c0.54071,0.14739 1.02806,0.29345 1.59262,0.34877z" fill="#d1eaeb"/><path d="M186.8027,133.26153c-0.0955,-0.02298 -0.17978,-0.06628 -0.29635,-0.10009c-0.20916,0.23157 -0.35512,0.49562 -0.4491,0.81244c-0.01261,0.07175 -0.00416,0.15433 -0.03784,0.21527c-0.28914,0.42519 -0.38867,0.94781 -0.6146,1.40547c-0.23578,0.42653 -0.36621,0.90719 -0.53878,1.36619c-0.02246,0.04062 -0.03507,0.11238 -0.05752,0.153c-0.31021,0.41438 -0.36621,0.90719 -0.61322,1.35403c-0.14596,0.26404 -0.26101,0.57004 -0.32269,0.87739c-0.04768,0.18413 -0.11643,0.35745 -0.19502,0.49963c-0.10105,0.1828 -0.21194,0.33447 -0.20764,0.57138c0.00845,0.08258 -0.06875,0.17331 -0.11366,0.25456c-0.247,0.44684 -0.3676,0.95863 -0.57247,1.42712c-0.1375,0.34662 -0.20057,0.70541 -0.40128,1.01957c-0.14457,0.2126 -0.10937,0.49147 -0.26516,0.72438c-0.13334,0.19229 -0.27792,0.40489 -0.25255,0.65263c-0.01261,0.07175 -0.0463,0.13269 -0.07998,0.19362c-0.25823,0.46716 -0.42096,0.95729 -0.57385,1.47857c-0.03507,0.11238 -0.11227,0.20311 -0.13611,0.29518c-0.10105,0.1828 -0.23439,0.37509 -0.23009,0.61201c-0.00139,0.05145 -0.03507,0.11238 -0.05752,0.153c-0.14596,0.26404 -0.32421,0.53757 -0.34376,0.86656c-0.31021,0.41438 -0.39851,0.91667 -0.59215,1.36485c-0.19364,0.44818 -0.46171,0.8842 -0.53878,1.36619c-0.02523,0.14352 -0.12489,0.27487 -0.19225,0.39673c-0.20084,-0.0771 -0.25989,-0.26392 -0.39614,-0.35999c0.36621,-0.90719 0.6889,-1.78456 1.03266,-2.65113c0.3676,-0.95863 0.74504,-1.88612 1.1337,-2.83393c0.35499,-0.88687 0.68889,-1.78456 1.02281,-2.68226c0.42512,-1.11163 0.81795,-2.21377 1.23184,-3.30509c0.3213,-0.82594 0.6426,-1.65188 0.94284,-2.48864c0.49387,-1.28494 1.08324,-2.54689 1.53498,-3.85348c0.06875,-0.17331 0.09537,-0.36828 0.25962,-0.5186c0.18962,0.09742 0.34555,0.25576 0.51271,0.39379c0.08289,0.09474 0.29496,0.15153 0.40737,0.33968z" fill="#87d7dc"/><path d="M179.6473,152.27428c0.46489,0.18668 0.86381,0.44378 1.33993,0.61014c0.55056,0.17852 1.11234,0.33674 1.74148,0.3731c-0.65119,1.17804 -1.29116,2.33577 -1.9199,3.47319c-0.35526,0.10436 -0.67406,0.0449 -0.98302,0.01656c-0.58562,-0.06615 -1.09265,-0.27447 -1.62075,-0.49362c-0.02107,-0.01083 -0.05198,-0.05278 -0.06182,-0.08392c0.25698,-0.02446 0.2836,-0.21942 0.33128,-0.40355c0.11921,-0.46034 0.25948,-0.90986 0.5051,-1.30525c0.04491,-0.08125 0.08982,-0.16249 0.11366,-0.25456c0.08691,-0.45086 0.33253,-0.84625 0.48265,-1.26464c0.08137,-0.24507 0.12905,-0.4292 0.07139,-0.66746z" fill="#61afb4"/><path d="M187.97992,130.39781c0.67003,0.5007 1.41866,0.85922 2.12238,1.29898c0.32587,0.19349 0.68542,0.32605 1.04497,0.45861c0.65451,0.28409 1.28518,0.66026 1.9846,0.8631c0.27528,0.08926 0.55056,0.17852 0.81599,0.23665c0.16993,0.03514 0.32864,0.0906 0.47612,0.16637c-0.01261,0.07175 -0.014,0.12321 -0.03646,0.16382c-0.08982,0.16249 -0.17964,0.32498 -0.26946,0.48746c-0.13902,0.00682 -0.24575,0.00415 -0.37355,-0.00936c-0.8932,-0.14593 -1.80746,-0.30267 -2.62913,-0.7248c-0.72756,-0.3477 -1.47618,-0.70622 -2.15883,-1.13516c-0.5464,-0.33287 -1.10402,-0.64542 -1.53953,-1.12995c0.1278,0.0135 0.22053,0.13937 0.37216,0.0608c0.16564,-0.20177 0.3748,-0.43335 0.19073,-0.73654z" fill="#61aeb3"/><path d="M187.73333,132.01841c0.38062,0.14338 0.65035,0.43843 0.99729,0.64275c0.74724,0.40997 1.49448,0.81993 2.2754,1.16897c0.63344,0.27327 1.29072,0.45447 1.94939,0.58422c0.16993,0.03514 0.33987,0.07029 0.50981,0.10544c-0.15718,0.28435 -0.29191,0.52809 -0.43787,0.79213c-0.38755,0.11384 -0.75972,0.05304 -1.1305,-0.0592c-0.44521,-0.12441 -0.91149,-0.25964 -1.34409,-0.4558c-0.99299,-0.40582 -1.89755,-0.9227 -2.83441,-1.43008c-0.16855,-0.08659 -0.33709,-0.17318 -0.42844,-0.35051c0.05614,-0.10155 0.13334,-0.19229 0.13611,-0.29518c0.028,-0.24641 0.1838,-0.47931 0.3073,-0.70273z" fill="#61aeb3"/><path d="M179.6473,152.27428c0.04782,0.20713 0.0212,0.40208 -0.07,0.61602c-0.15012,0.41838 -0.39574,0.81378 -0.48265,1.26463c-0.02384,0.09207 -0.06875,0.17331 -0.11366,0.25456c-0.23578,0.42653 -0.36482,0.85574 -0.5051,1.30525c-0.03645,0.16382 -0.0743,0.37909 -0.33128,0.40355c-0.32726,-0.14204 -0.59976,-0.3342 -0.81751,-0.57646c0.09398,-0.31682 0.16689,-0.64447 0.36621,-0.90719c0.02246,-0.04062 0.03507,-0.11238 0.05752,-0.153c0.16134,-0.43869 0.33391,-0.89769 0.51633,-1.32556c0.07998,-0.19362 0.1698,-0.35611 0.22871,-0.56056c0.0603,-0.2559 0.17396,-0.51044 0.4028,-0.67975c0.11657,0.03381 0.20084,0.0771 0.29635,0.10009c0.14748,0.07576 0.3048,0.18267 0.45228,0.25843z" fill="#87d7dc"/><path d="M193.98426,120.80806c0.09564,0.41424 0.02134,0.79333 -0.07403,1.16161c-0.02384,0.09207 -0.09121,0.21393 -0.15718,0.28435c-0.49414,0.50243 -0.90402,1.04816 -1.29282,1.6047c-0.01123,0.02031 -0.05475,0.05011 -0.08705,0.0596c-0.11796,0.01763 -0.2233,-0.03648 -0.29496,-0.15153c0.02246,-0.04062 0.02384,-0.09207 0.0463,-0.13269c0.29053,-0.47664 0.51785,-0.98576 0.6286,-1.52867c0.07152,-0.27621 0.19503,-0.49963 0.4351,-0.68924c0.27237,-0.1991 0.48153,-0.43067 0.79604,-0.60813z" fill="#cce5e6"/><path d="M191.0248,123.2256c-0.16009,-0.00401 -0.23314,-0.06762 -0.26266,-0.16102c0.49678,-0.99657 0.49678,-0.99657 0.63124,-2.02282c0.233,-0.32364 0.57135,-0.59316 0.85633,-0.86402c0.16993,0.03514 0.12364,0.16783 0.13209,0.25041c0.02398,0.29919 0.05918,0.57806 0.02979,0.87591c-0.02661,0.19496 -0.08414,0.34796 -0.21609,0.4888c-0.4071,0.44283 -0.80435,0.9168 -1.1707,1.43273z" fill="#cce5e6"/><path d="M179.17395,152.00502c-0.0955,-0.02298 -0.17978,-0.06628 -0.29635,-0.10009c-0.22884,0.16931 -0.3425,0.42385 -0.4028,0.67975c-0.05891,0.20445 -0.14873,0.36694 -0.22871,0.56056c-0.18241,0.42787 -0.35498,0.88687 -0.51633,1.32556c-0.02246,0.04062 -0.03507,0.11238 -0.05752,0.153c-0.18948,0.29384 -0.25117,0.60118 -0.36621,0.90719c-0.14609,-0.12722 -0.27112,-0.2436 -0.3723,-0.45206c0.25116,-0.60118 0.47142,-1.24431 0.75488,-1.85499c0.25116,-0.60118 0.41805,-1.24565 0.75488,-1.85499c0.32587,0.19349 0.53378,0.40462 0.73047,0.63607z" fill="#60adb2"/><path d="M195.09614,127.89905c0.0955,0.02298 0.16993,0.03514 0.26544,0.05813c0.01968,0.06227 0.02952,0.09341 0.03936,0.12454c-0.10659,0.38858 -0.13875,0.78932 -0.14984,1.20089c-0.01539,0.17465 -0.06168,0.30734 -0.20348,0.41705c-0.26253,0.23023 -0.49414,0.50243 -0.90276,0.60545c-0.10687,-0.39393 -0.07471,-0.79467 -0.02148,-1.18459c0.01261,-0.07175 0.08982,-0.16249 0.1558,-0.2329c0.2653,-0.33313 0.5306,-0.66625 0.81697,-0.98856z" fill="#cce5e6"/><path d="M198.23165,122.91189c-0.028,0.24641 -0.03216,0.40074 -0.04755,0.57539c-0.04062,0.31816 -0.15428,0.57272 -0.43787,0.79213c-0.45907,0.39005 -0.86617,0.83289 -1.14686,1.34066c-0.08982,0.16249 -0.12212,0.17198 -0.36371,0.02178c0.03368,-0.06094 0.04629,-0.13269 0.07998,-0.19363c0.30176,-0.49696 0.50801,-1.01689 0.65106,-1.56929c0.0463,-0.13269 0.08137,-0.24507 0.17964,-0.32498c0.33696,-0.21808 0.63179,-0.4578 1.08532,-0.64206z" fill="#cae2e3"/><path d="M193.49966,124.52312c-0.00984,-0.03114 -0.00845,-0.08258 0.00277,-0.10289c0.30037,-0.4455 0.4631,-0.93565 0.59353,-1.4163c0.14028,-0.44952 0.3536,-0.83542 0.7776,-1.1131c0.20639,-0.12868 0.35096,-0.34128 0.58826,-0.428c0.10132,0.59971 -0.08386,1.13048 -0.47835,1.50155c-0.47169,0.46181 -0.95322,0.89248 -1.25775,1.49232c-0.05475,0.05011 -0.09966,0.13135 -0.22607,0.06641z" fill="#c9e1e2"/><path d="M196.74562,122.17453c0.03105,0.43321 -0.04186,0.76086 -0.126,1.10883c-0.03507,0.11238 -0.09121,0.21393 -0.17825,0.27353c-0.50399,0.47129 -0.97706,0.98455 -1.408,1.51945c-0.02246,0.04062 -0.07721,0.09073 -0.17132,0.0163c0.07859,-0.14218 0.16841,-0.30467 0.22593,-0.45766c0.20348,-0.41705 0.3859,-0.84491 0.4728,-1.29576c0.07291,-0.32765 0.23994,-0.58087 0.52215,-0.74883c0.20639,-0.12868 0.40155,-0.23705 0.66269,-0.41584z" fill="#c9e1e2"/><path d="M196.53573,128.37784c0.18255,-0.03661 0.28789,0.01751 0.39323,0.07163c0.00984,0.03114 0.00845,0.08258 0.0183,0.11372c-0.1375,0.34662 -0.1795,0.71623 -0.13584,1.07769c0.01552,0.21661 -0.05323,0.38992 -0.21748,0.54025c-0.20777,0.18012 -0.40571,0.39138 -0.6444,0.52955c-0.13071,-0.30186 -0.22496,-0.76754 -0.17728,-0.95168c0.014,-0.12321 0.10105,-0.1828 0.17825,-0.27353c0.1698,-0.35611 0.45617,-0.67842 0.58522,-1.10762z" fill="#cae3e4"/><path d="M188.58928,126.01663c0.39032,-0.21674 0.71744,-0.46595 1.03472,-0.7463c0.14887,0.02432 0.23314,0.06762 0.3048,0.18267c-0.09675,0.41972 -0.37467,0.8246 -0.45035,1.25514c-0.22884,0.16931 -0.46476,0.20458 -0.70206,0.29131c-0.12918,0.03794 -0.24853,0.10703 -0.40724,0.05158c-0.02259,-0.35063 0.17812,-0.66479 0.22012,-1.03439z" fill="#c8e0e1"/><path d="M192.48793,126.79382c0.17839,0.11773 0.15455,0.2098 0.13071,0.30186c-0.08414,0.34796 -0.15705,0.67561 -0.26225,1.01275c-0.02384,0.09207 -0.06875,0.17332 -0.1558,0.2329c-0.27098,0.14765 -0.56303,0.28449 -0.86492,0.39019c-0.03798,-0.17599 0.00831,-0.30868 0.01248,-0.46301c0.01248,-0.46301 0.18228,-0.81912 0.63581,-1.00339c0.21623,-0.09754 0.37064,-0.27901 0.50399,-0.47129z" fill="#cbe4e5"/><path d="M191.16062,126.11192c0.10534,0.05412 0.16855,0.08659 0.23175,0.11906c-0.00139,0.05145 0.02952,0.09341 0.0183,0.11372c-0.08137,0.24507 -0.1838,0.47931 -0.26516,0.72438c-0.0463,0.13269 -0.1235,0.22343 -0.24284,0.29251c-0.35803,0.20725 -0.7259,0.38337 -1.15697,0.52701c-0.04643,-0.25857 0.03354,-0.45219 0.11352,-0.64581c0.04491,-0.08125 0.08982,-0.16249 0.16564,-0.20177c0.45353,-0.18427 0.80449,-0.52554 1.13577,-0.92909z" fill="#c8e0e1"/><path d="M187.73333,132.01841c-0.1235,0.22342 -0.2793,0.45633 -0.29746,0.73387c-0.00277,0.10289 -0.07998,0.19362 -0.13611,0.29518c-0.36939,-0.16369 -0.67281,-0.3978 -0.91024,-0.70235c0.19932,-0.2627 0.27223,-0.59035 0.36483,-0.85574c0.20362,-0.02579 0.31742,0.11091 0.46628,0.13524c0.20084,0.0771 0.4003,0.20565 0.51271,0.39379z" fill="#85d5d9"/><path d="M193.95876,120.16907c-0.33835,0.26952 -0.63317,0.50924 -0.97152,0.77877c-0.10118,-0.20846 -0.07457,-0.40341 -0.11255,-0.5794c-0.02675,-0.1963 -0.10686,-0.39393 -0.06902,-0.6092c0.07859,-0.14218 0.23023,-0.22075 0.3608,-0.31014c0.13057,-0.0894 0.28221,-0.16797 0.45492,-0.23571c0.2276,0.2734 0.26141,0.60372 0.33737,0.9557z" fill="#cae3e3"/><path d="M189.65396,122.5735c0.18934,-0.6851 0.32255,-1.26864 0.31812,-1.89682c0.23023,-0.22075 0.4394,-0.45232 0.68085,-0.69338c0.18407,0.3032 0.15468,0.60105 0.17866,0.90024c-0.00139,0.05145 -0.03507,0.11238 -0.05752,0.153c-0.34389,0.4753 -0.68779,0.95061 -1.12011,1.53696z" fill="#cae3e4"/><path d="M192.72619,129.44589c-0.03105,-0.43321 -0.03118,-0.82447 0.38298,-1.13327c0.2836,-0.21942 0.47308,-0.51325 0.66256,-0.80709c0.06736,-0.12187 0.18393,-0.08806 0.28789,0.01751c-0.22178,0.30333 -0.28484,0.66212 -0.34792,1.0209c-0.03923,0.26671 -0.18241,0.42786 -0.3888,0.55654c-0.17409,0.11919 -0.31728,0.28034 -0.59672,0.34542z" fill="#c8e0e1"/><path d="M187.97992,130.39781c0.17284,0.3235 -0.02509,0.53478 -0.18089,0.76768c-0.15164,0.07857 -0.2556,-0.02699 -0.37217,-0.0608c-0.26266,-0.16101 -0.47057,-0.37215 -0.65603,-0.6239c0.14457,-0.2126 0.1838,-0.47931 0.40142,-0.62831c0.11657,0.03381 0.17977,0.06628 0.26405,0.10957c0.18823,0.14886 0.37646,0.29772 0.54362,0.43576z" fill="#85d4d9"/><path d="M190.88741,127.92749c-0.042,0.36961 -0.10368,0.67695 -0.1443,0.99511c-0.31312,0.12601 -0.63608,0.22088 -0.95766,0.2643c-0.12503,-0.11639 -0.0998,-0.25991 -0.11809,-0.37362c-0.01829,-0.11372 -0.03659,-0.22743 0.06307,-0.35878c0.30328,-0.15714 0.69222,-0.32243 1.15698,-0.52701z" fill="#c7dfe0"/><path d="M193.64502,130.62206c-0.25975,0.12734 -0.49844,0.26552 -0.81017,0.34008c-0.15177,-0.31269 -0.12239,-0.61054 -0.12391,-0.95035c0.28221,-0.16797 0.56442,-0.33593 0.85786,-0.52421c0.0535,0.39259 0.05502,0.7324 0.07623,1.13448z" fill="#c8e0e1"/><path d="M195.32932,120.03865c0.07873,0.24908 0.15746,0.49816 0.1393,0.7757c-0.2836,0.21942 -0.58826,0.428 -0.90415,0.6569c-0.04214,-0.02165 -0.08428,-0.0433 -0.07305,-0.06361c-0.02537,-0.24774 -0.0395,-0.51579 -0.0438,-0.75271c0.00277,-0.10289 0.02662,-0.19496 0.10243,-0.23424c0.26114,-0.17879 0.45907,-0.39005 0.77926,-0.38203z" fill="#c4dcdd"/><path d="M194.29108,130.82358c0.30466,-0.20859 0.57703,-0.40769 0.89292,-0.63659c0.12086,0.27072 0.10271,0.54827 0.2025,0.80817c-0.24146,0.24106 -0.55319,0.31562 -0.85647,0.47276c-0.14332,-0.2301 -0.25573,-0.41825 -0.23896,-0.64435z" fill="#c6ddde"/><path d="M198.02162,128.72393c0.01982,0.45353 -0.08816,0.89355 0.01732,1.33893c-0.19793,0.21126 -0.36358,0.41304 -0.63456,0.56069c-0.17423,-0.27206 -0.22066,-0.53063 -0.01012,-0.81365c0.2653,-0.33313 0.42526,-0.72037 0.62735,-1.08597z" fill="#b9cfd0"/><path d="M188.6313,121.68301c-0.09273,-0.12588 0.02661,-0.19496 0.05046,-0.28703c0.05891,-0.20445 0.13889,-0.39807 0.07984,-0.58488c-0.04505,-0.31001 0.09952,-0.52261 0.27639,-0.7447c0.0772,-0.09074 0.17548,-0.17064 0.29621,-0.29117c0.15039,0.36413 0.2488,0.67548 -0.0488,1.01809c-0.20916,0.23157 -0.34528,0.52675 -0.5123,0.77997c-0.03368,0.06094 -0.06736,0.12187 -0.1418,0.10971z" fill="#c0d8d8"/><path d="M187.35067,126.0062c-0.0043,-0.23691 0.04339,-0.42106 0.13321,-0.58354c0.04491,-0.08125 0.10105,-0.1828 0.17687,-0.22209c0.33557,-0.16663 0.61917,-0.38604 0.90276,-0.60545c0.14748,0.07576 0.0815,0.14619 0.04782,0.20713c-0.11228,0.20311 -0.23578,0.42653 -0.30591,0.65129c-0.10382,0.2857 -0.26808,0.43602 -0.55735,0.46996c-0.13902,0.00682 -0.23591,0.03527 -0.39739,0.08272z" fill="#c1d9d9"/><path d="M192.17438,129.71006c-0.24991,0.15848 -0.50828,0.23438 -0.7891,0.35089c-0.16439,-0.24092 -0.10409,-0.49682 -0.12946,-0.74456c0.29344,-0.18828 0.62624,-0.25201 0.96043,-0.3672c0.03521,0.27888 -0.01387,0.51446 -0.04187,0.76086z" fill="#c3dbdc"/><path d="M195.9367,122.07191c0.03077,-0.34929 0.07139,-0.66746 0.09093,-0.99645c0.18532,-0.13951 0.35941,-0.25869 0.6164,-0.28315c0.0998,0.2599 0.09286,0.51713 0.107,0.78519c-0.23023,0.22075 -0.48014,0.37923 -0.81433,0.49441z" fill="#c3dadb"/><path d="M189.78282,129.68105c0.31173,-0.07456 0.59117,-0.13963 0.87061,-0.20471c0.13209,0.25041 0.12516,0.50765 0.11823,0.76487c-0.24853,0.10703 -0.49566,0.16262 -0.77372,0.17625c-0.04075,-0.07309 -0.09134,-0.17733 -0.11102,-0.23959c-0.03798,-0.17599 -0.04505,-0.31001 -0.10409,-0.49682z" fill="#c4dbdc"/><path d="M187.6631,123.92391c-0.21332,0.38591 -0.38173,0.69058 -0.56137,1.01555c-0.18394,0.08806 -0.36648,0.12467 -0.58978,0.08819c-0.07027,-0.1665 0.05046,-0.28703 0.07568,-0.43054c0.02523,-0.14352 0.07153,-0.27621 0.12766,-0.37776c0.32296,-0.09487 0.58133,-0.17077 0.94781,-0.29544z" fill="#c2d9da"/><path d="M192.30688,131.13424c-0.21762,0.14899 -0.41985,0.12333 -0.61362,0.18026c-0.17562,-0.22061 -0.22205,-0.47918 -0.27832,-0.76888c0.2373,-0.08673 0.4746,-0.17344 0.69083,-0.27099c0.17423,0.27206 0.14484,0.56992 0.20112,0.85961z" fill="#c3dbdc"/><path d="M189.14051,128.15143c-0.3005,0.05425 -0.53919,0.19242 -0.82708,0.17492c-0.12225,-0.21928 -0.01982,-0.45353 -0.09993,-0.65116c0.33557,-0.16663 0.63608,-0.22088 0.95904,-0.31575c0.10964,0.29104 -0.01386,0.51445 -0.03202,0.792z" fill="#c7dee0"/><path d="M187.23184,131.60431c-0.14887,-0.02432 -0.26266,-0.16101 -0.46628,-0.13524c-0.10382,0.2857 -0.1978,0.60252 -0.36483,0.85574c-0.07305,-0.06361 -0.16716,-0.13804 -0.22898,-0.22195c-0.09273,-0.12588 -0.12086,-0.27072 -0.04227,-0.4129c0.11366,-0.25456 0.21609,-0.4888 0.32976,-0.74336c0.27389,0.14071 0.38908,0.22596 0.7726,0.65771z" fill="#61acb1"/><path d="M187.20901,126.50716c0.25975,-0.12734 0.49567,-0.16262 0.7751,-0.2277c-0.07291,0.32765 -0.12337,0.61468 -0.17382,0.9017c-0.18532,0.13951 -0.36648,0.12467 -0.59117,0.13963c-0.11102,-0.23959 -0.05073,-0.49548 -0.01011,-0.81365z" fill="#c1d9d9"/><path d="M194.01191,131.67116c-0.24853,0.10703 -0.5069,0.18293 -0.7442,0.26965c-0.17839,-0.11773 -0.25989,-0.26392 -0.30771,-0.47103c0.23023,-0.22075 0.54058,-0.24387 0.81156,-0.39152c0.14471,0.17866 0.17146,0.37496 0.24035,0.5929z" fill="#c0d7d7"/><path d="M187.45737,129.97287c-0.08428,-0.0433 -0.17977,-0.06628 -0.26405,-0.10957c-0.21762,0.14899 -0.25684,0.41571 -0.40142,0.62831c-0.15871,-0.05545 -0.17562,-0.22061 -0.31187,-0.31669c0.06168,-0.30734 0.25962,-0.5186 0.2581,-0.85841c0.22191,0.08793 0.31464,0.21381 0.42844,0.35051c0.08289,0.09474 0.25282,0.12989 0.2908,0.30587z" fill="#5aa0a4"/><path d="M198.4409,130.99958c-0.20777,0.18012 -0.36358,0.41304 -0.63317,0.50925c-0.12503,-0.11639 -0.16439,-0.24092 -0.22344,-0.42774c0.16564,-0.20177 0.37342,-0.3819 0.60088,-0.49976c0.12503,0.11639 0.17562,0.22061 0.25573,0.41825z" fill="#bdd3d4"/><path d="M190.26351,130.86684c0.21485,-0.0461 0.40862,-0.10302 0.6024,-0.15994c0.13348,0.19897 0.1813,0.40609 0.21789,0.63351c-0.15303,0.13002 -0.32296,0.09487 -0.47044,0.01911c-0.18962,-0.09742 -0.37923,-0.19483 -0.34985,-0.49269z" fill="#bdd4d5"/><path d="M188.56237,129.39308c-0.12364,-0.16783 -0.14055,-0.333 -0.15746,-0.49816c0.07859,-0.14218 0.20639,-0.12868 0.33557,-0.16663c0.09689,-0.02846 0.20501,-0.07724 0.34264,-0.0326c0.12364,0.16783 0.01136,0.37095 0.12377,0.55909c-0.22746,0.11785 -0.43108,0.14364 -0.64454,0.1383z" fill="#c3dadb"/><path d="M194.02914,124.69083c0.24423,-0.34395 0.48846,-0.6879 0.81697,-0.98856c0.11518,0.08525 0.08011,0.19763 0.02398,0.29919c-0.12489,0.27487 -0.27084,0.53891 -0.40557,0.78264c-0.10105,0.1828 -0.24991,0.15848 -0.43537,-0.09327z" fill="#b1c6c7"/><path d="M195.19036,132.32874c0.13196,-0.14084 0.29205,-0.13683 0.43246,-0.19509c0.25975,-0.12734 0.4606,-0.05024 0.65728,0.1812c-0.2836,0.21942 -0.63747,0.27232 -0.93797,0.32658c-0.13625,-0.09608 -0.177,-0.16917 -0.15178,-0.31269z" fill="#bbd2d3"/><path d="M196.9646,125.9381c0.12905,-0.4292 0.4674,-0.69873 0.7959,-0.99938c-0.03077,0.34929 -0.19919,0.65396 -0.3353,0.94914c-0.07998,0.19362 -0.16564,0.20177 -0.4606,0.05024z" fill="#bad1d2"/><path d="M196.79769,130.54659c0.10396,0.10556 0.13209,0.25042 0.149,0.41558c-0.20916,0.23157 -0.48014,0.37923 -0.77081,0.46461c-0.15871,-0.05545 -0.16716,-0.13803 -0.15316,-0.26124c0.2513,-0.20992 0.5026,-0.41985 0.77497,-0.61895z" fill="#bdd4d4"/><path d="M195.96845,120.49739c-0.05766,-0.23825 -0.10548,-0.44538 -0.18421,-0.69445c0.08843,-0.11104 0.219,-0.20043 0.4423,-0.16396c0.09134,0.17733 0.17146,0.37496 0.27264,0.58341c-0.17409,0.11919 -0.31589,0.2289 -0.53074,0.27499z" fill="#c1d9d9"/><path d="M196.88389,132.10345c-0.20084,-0.0771 -0.32726,-0.14204 -0.4186,-0.31937c0.22746,-0.11785 0.43385,-0.24654 0.62901,-0.3549c0.2233,0.03648 0.24021,0.20164 0.35539,0.28689c-0.02246,0.04062 -0.02384,0.09207 -0.05614,0.10155c-0.19516,0.10837 -0.3468,0.18694 -0.50967,0.28582z" fill="#c2dada"/><path d="M187.18419,127.82444c0.20362,-0.02579 0.35387,-0.05292 0.52519,-0.06922c0.06889,0.21794 0.06334,0.42373 0.07886,0.64034c-0.15164,0.07857 -0.30189,0.1057 -0.44937,0.02993c-0.03091,-0.04196 -0.06182,-0.08392 -0.06043,-0.13536c-0.03936,-0.12454 -0.0675,-0.26939 -0.09425,-0.46568z" fill="#bbd2d3"/><path d="M188.76335,129.86144c0.15164,-0.07857 0.32296,-0.09487 0.48167,-0.03942c0.06889,0.21794 0.12793,0.40475 0.17575,0.61187c-0.47044,0.01911 -0.49151,0.00828 -0.65742,-0.57246z" fill="#b5cbcc"/><path d="M186.44776,126.22039c-0.13209,-0.25041 -0.01843,-0.50497 -0.03395,-0.72158c0.16287,-0.09888 0.32157,-0.04343 0.49289,-0.05973c0.02398,0.29919 -0.04616,0.52395 -0.23287,0.7149c-0.03368,0.06094 -0.14041,0.05826 -0.22607,0.06641z" fill="#b6cccd"/><path d="M196.21279,124.50871c-0.08275,0.29651 -0.18657,0.58221 -0.37467,0.8246c-0.0772,0.09074 -0.18532,0.13951 -0.29066,0.08539c-0.04214,-0.02165 -0.10396,-0.10556 -0.09273,-0.12588c0.14734,-0.31549 0.46324,-0.54439 0.75806,-0.78411z" fill="#a7bbbb"/><path d="M191.78613,131.83163c0.21762,-0.14899 0.42123,-0.17478 0.64592,-0.18974c0.13487,0.14753 0.21637,0.29372 0.19959,0.5198c-0.32019,-0.00802 -0.56178,-0.15822 -0.84551,-0.33006z" fill="#b7cece"/><path d="M186.2784,123.78627c-0.01275,-0.31949 0.21748,-0.54024 0.22441,-0.79748c0.15164,-0.07857 0.22469,-0.01496 0.23314,0.06762c0.01552,0.21661 -0.00125,0.4427 -0.11352,0.64581c-0.05475,0.05011 -0.06598,0.07041 -0.34403,0.08405z" fill="#b4cacb"/><path d="M187.83897,128.89104c0.09134,0.17733 0.15177,0.31269 0.12655,0.4562c-0.06598,0.07042 -0.14041,0.05826 -0.21484,0.0461c-0.29773,-0.04865 -0.32448,-0.24494 -0.31755,-0.50217c0.1278,0.0135 0.26682,0.00668 0.40585,-0.00013z" fill="#b5cbcb"/><path d="M190.70697,121.94092c0.01275,0.31949 -0.15427,0.57272 -0.289,0.81645c-0.02246,0.04062 -0.08705,0.0596 -0.14041,0.05826c-0.04214,-0.02165 -0.08289,-0.09474 -0.07166,-0.11505c0.09398,-0.31682 0.28207,-0.55922 0.50108,-0.75966z" fill="#99abac"/><path d="M189.31395,122.11196c-0.19239,0.00548 -0.29773,-0.04865 -0.28373,-0.17184c0.03645,-0.16382 0.19087,-0.34529 0.4211,-0.56604c0.03521,0.27888 -0.0883,0.5023 -0.13737,0.73788z" fill="#93a5a6"/><path d="M193.9645,132.6378c0.29205,-0.13683 0.57426,-0.30479 0.86367,0.05252c-0.30328,0.15714 -0.57717,0.01644 -0.86367,-0.05252z" fill="#9aadad"/><path d="M195.71294,128.78967c0.02661,-0.19496 0.06446,-0.41023 0.07984,-0.58488c0.11934,-0.06908 0.19378,-0.05693 0.30896,0.02833c0.0043,0.23691 -0.19225,0.39673 -0.27223,0.59036c-0.04214,-0.02165 -0.06321,-0.03247 -0.11657,-0.03381z" fill="#c5dddd"/><path d="M193.33777,123.39679c0.04366,0.36146 -0.1023,0.6255 -0.33253,0.84625c-0.01123,0.02031 -0.06459,0.01898 -0.10673,-0.00267c-0.07443,-0.01216 -0.08289,-0.09474 -0.06043,-0.13536c0.10243,-0.23424 0.30037,-0.4455 0.49969,-0.70822z" fill="#aec2c3"/><path d="M186.6712,126.64813c0.05766,0.23825 0.00859,0.47384 -0.02925,0.68911c-0.11934,0.06908 -0.19239,0.00548 -0.18962,-0.09742c-0.00568,-0.18547 -0.02259,-0.35063 0.00402,-0.54559c-0.01968,-0.06227 0.07721,-0.09074 0.21484,-0.0461z" fill="#9caeaf"/><path d="M190.40215,125.72226c0.16993,0.03514 0.24298,0.09875 0.29357,0.20298c-0.09121,0.21393 -0.25546,0.36426 -0.57842,0.45914c0.09259,-0.26538 0.19364,-0.44818 0.28485,-0.66212z" fill="#b9cfd0"/><path d="M197.29835,128.61315c0.11934,-0.06908 0.21485,-0.0461 0.31035,-0.02312c0.08289,0.09474 0.02675,0.1963 -0.30592,0.65129c-0.18546,-0.25175 0.00125,-0.4427 -0.00443,-0.62817z" fill="#869797"/><path d="M192.0512,122.78798c-0.24285,0.2925 -0.21042,0.67427 -0.6401,0.76647c0.08414,-0.34796 0.23994,-0.58087 0.6401,-0.76647z" fill="#93a4a5"/><path d="M194.77731,131.80359c0.21623,-0.09754 0.42262,-0.22622 0.65992,-0.31295c0.09689,-0.02846 0.18116,0.01484 0.177,0.16917c-0.25975,0.12734 -0.50828,0.23438 -0.83692,0.14378z" fill="#9fb2b2"/><path d="M193.07383,127.64248c-0.11241,-0.18814 -0.03382,-0.33032 0.0237,-0.48332c0.03368,-0.06094 0.11934,-0.06908 0.18255,-0.03661c0.04214,0.02165 0.08289,0.09474 0.06043,0.13536c-0.00416,0.15433 -0.11366,0.25456 -0.26668,0.38458z" fill="#91a2a3"/><path d="M188.14534,121.48551c-0.0998,-0.2599 0.03077,-0.34929 0.13043,-0.48065c0.13348,0.19897 0.13348,0.19897 -0.13043,0.48065z" fill="#555f5f"/><path d="M194.66215,127.75433c-0.05614,0.10155 -0.13473,0.24373 -0.27653,0.35344c-0.08857,-0.28021 -0.04366,-0.36146 0.11921,-0.46034c0.04352,-0.0298 0.10673,0.00267 0.15732,0.1069z" fill="#93a5a6"/><path d="M191.75206,126.75479c-0.01829,-0.11372 0.02662,-0.19496 0.09259,-0.26538c0.04352,-0.0298 0.10811,-0.04877 0.13902,-0.00682c0.03091,0.04196 0.05059,0.10422 0.02814,0.14485c-0.04491,0.08125 -0.11089,0.15166 -0.25975,0.12734z" fill="#636e6f"/></g></g><path d="M191.41581,147.56707c-1.82064,0.53907 -3.75662,-0.46803 -4.32414,-2.24941c-0.56751,-1.78138 0.44834,-3.66247 2.26898,-4.20153c1.82064,-0.53907 3.75662,0.46803 4.32414,2.24941c0.56751,1.78138 -0.44834,3.66247 -2.26898,4.20153z" data-paper-data="{&quot;index&quot;:null}" fill="#00021d" stroke="#00021d" stroke-width="12" stroke-linecap="butt"/><g data-paper-data="{&quot;index&quot;:null}"><path d="M189.92581,140.71041l12.19212,-1.93747l4.75633,7.73146l-1.0651,2.60417l15.57337,30.54713c0,0 1.44161,3.8461 -0.66768,4.96199c-2.81378,1.4886 -6.32023,-1.47888 -6.32023,-1.47888l-24.84147,-24.89965l-3.65567,-0.2866l-3.63629,-7.72907z" fill="#5c2a2a" stroke="none" stroke-width="0" stroke-linecap="butt"/><path d="M190.10182,141.13916l12.02971,-2.35271l-15.38761,19.31611l-4.21044,-7.67083z" fill-opacity="0.08443" fill="#ffffff" stroke="none" stroke-width="0" stroke-linecap="butt"/><path d="M190.24003,140.55056l30.7372,38.74718c0,0 2.6042,2.8552 -0.64363,4.9565c-2.91429,1.88549 -5.77409,-1.75432 -5.77409,-1.75432l-24.65132,-23.75162l-4.72298,-1.10917l-2.84935,-7.13253z" fill-opacity="0.08443" fill="#ffffff" stroke="none" stroke-width="0" stroke-linecap="butt"/><path d="M189.7365,140.71977l12.17256,-1.97124l5.04444,7.499l-1.40535,2.74659l16.15415,29.85464c0,0 1.89864,3.84178 -1.26238,5.58802c-3.16344,1.74756 -6.72356,-1.56807 -6.72356,-1.56807l-24.42584,-24.74679l-3.4326,0.09882l-3.80886,-8.02724z" fill="none" stroke="#00021d" stroke-width="3.5" stroke-linecap="butt"/><path d="M188.89905,158.69536l7.50093,-7.50808l9.7843,-2.32746" fill="none" stroke="#00021d" stroke-width="1.5" stroke-linecap="round"/><path d="M189.96824,140.27877l11.73007,-1.87261l4.94481,7.49081l-1.16011,3.45797l16.0957,29.2013c0,0 1.78017,4.36113 -1.37764,6.05193c-2.6357,1.41125 -6.71704,-1.79005 -6.71704,-1.79005l-23.84766,-24.34159l-3.85795,-0.80169l-3.71436,-7.44001z" fill="#71521d" stroke="none" stroke-width="0" stroke-linecap="butt"/></g><g data-paper-data="{&quot;index&quot;:null}" stroke-linecap="butt"><g><path d="M218.68573,184.52834c-0.26641,-0.12691 -0.97149,-0.56241 -1.86646,-1.13567c-0.6081,-2.09431 -1.951,-4.00332 -3.95368,-5.334c-0.42314,-0.28115 -0.86083,-0.52659 -1.30923,-0.73698l18.44816,-25.83054c0,0 3.56819,-2.43493 5.10661,-1.25696c2.05221,1.5714 -0.19863,5.2543 -0.19863,5.2543z" fill="#71521d" stroke="none" stroke-width="0"/><path d="" fill-opacity="0.08443" fill="#ffffff" stroke="none" stroke-width="0"/><path d="M218.76262,184.56503c-0.47964,-0.22937 -1.23956,-0.67404 -1.91882,-1.08639c-0.19746,-0.70499 -0.47791,-1.38969 -0.83851,-2.03923l17.48371,-30.80582c0,0 1.04632,-0.13636 1.01425,-0.22695c2.42893,1.47499 -0.51321,4.99736 -0.51321,4.99736z" fill="#71521d" stroke="none" stroke-width="0"/><path d="M211.68253,177.38192l18.21814,-25.3879c0,0 2.21766,-3.47381 4.58841,-1.74131c2.37255,1.73381 0.06499,5.79171 0.06499,5.79171l-15.84735,28.59926" fill="none" stroke="#00021d" stroke-width="3.5"/></g><path d="M212.43582,177.78822l18.11953,-25.18522c0,0 1.84876,-2.64495 2.94311,-1.87267c2.37255,1.73384 0.27548,4.78547 0.27548,4.78547l-15.86015,28.76433" fill="none" stroke="#71521d" stroke-width="1.75"/></g><path d="M189.3704,159.16908l6.56959,-7.66211l10.60536,-2.16804" data-paper-data="{&quot;index&quot;:null}" fill="none" stroke="#00021d" stroke-width="1.5" stroke-linecap="round"/><path d="M237.13636,225.30587l-0.04233,50.6725l-3.27155,0.16994" data-paper-data="{&quot;index&quot;:null}" fill="none" stroke="#00021d" stroke-width="12" stroke-linecap="round"/><path d="M258.07759,224.75917l2.24986,54.19703l-4.02673,0.93361" data-paper-data="{&quot;index&quot;:null}" fill="none" stroke="#00021d" stroke-width="12" stroke-linecap="round"/><path d="M240.93039,149.6664l-1.98059,-1.58279l1.19027,-1.12185l-1.15023,-1.04252l1.94056,-0.54896h13.24523l2.07611,0.53861l-0.69556,1.05405l0.97141,1.12066l-2.35196,1.58279z" data-paper-data="{&quot;index&quot;:null}" fill="#71521d" stroke="none" stroke-width="0" stroke-linecap="butt"/><g data-paper-data="{&quot;index&quot;:null}" fill="none" stroke="#161830" stroke-width="3.5" stroke-linecap="round"><path d="M249.24805,131.2924l-0.76919,-12.78656"/><path d="M235.01108,132.50219l-0.76919,-12.78655"/></g><g data-paper-data="{&quot;index&quot;:null}"><path d="M256.16452,217.63336l-8.72956,2.71477l-10.49814,-3.00627" fill="none" stroke="#00021d" stroke-width="12" stroke-linecap="round"/><path d="M247.51877,222.91716l-20.03008,-5.96741v-10.44296l3.44603,-5.47012l2.1872,-51.05954l29.1552,-0.16068l1.06503,50.72057l1.75737,6.2308l-0.05175,9.18736z" fill="#5c2a2a" stroke="none" stroke-width="0" stroke-linecap="butt"/><path d="M247.49729,167.3005l0.48452,-2.10194l-0.96903,-6.53936l1.69581,-6.53936" fill="none" stroke="#c2c2c2" stroke-width="3.5" stroke-linecap="round"/><path d="M236.44087,152.50265l1.69581,6.53935l-0.96903,6.53935l0.48452,2.10194" data-paper-data="{&quot;index&quot;:null}" fill="none" stroke="#c2c2c2" stroke-width="3.5" stroke-linecap="round"/><path d="M227.73098,216.30379l-0.221,-8.48693l3.01719,-6.71843l2.61091,-49.9547l24.39072,-0.70064l-20.10747,69.13036z" fill-opacity="0.08443" fill="#ffffff" stroke="none" stroke-width="0" stroke-linecap="butt"/><path d="M247.59618,222.60961l-19.86522,-6.53935l-0.05076,-9.58498l3.10417,-5.60493l-0.14631,-12.83592l34.92273,19.24681l-0.29821,8.77903z" fill-opacity="0.08443" fill="#ffffff" stroke="none" stroke-width="0" stroke-linecap="butt"/><path d="M247.81189,222.83285l-20.03009,-5.91021v-10.34286l3.44604,-5.41769l2.1872,-50.72928h28.82187l1.39836,50.23442l1.47165,6.03338l-0.19461,9.23702z" fill="none" stroke="#00021d" stroke-width="3.5" stroke-linecap="butt"/><g stroke-linecap="butt"><path d="M241.02361,216.26566l-13.15254,-4.40322l0.1984,-5.62437l3.75332,-6.82975l16.73672,0.11862l4.53286,7.70969v4.62582z" fill="#694646" stroke="none" stroke-width="0"/><path d="M240.20456,216.05636l-12.006,-4.28465l-0.2,-6.43414l25.22131,7.20539z" fill-opacity="0.14806" fill="#ffffff" stroke="none" stroke-width="0"/><path d="M240.53991,216.2359l-12.785,-4.31439l0.69736,-3.73598h24.17527l0.34868,4.15137z" fill-opacity="0.08443" fill="#ffffff" stroke="none" stroke-width="0"/><path d="M232.39224,213.46977l-3.33363,-0.75056l-1.0537,-5.81185l4.09766,-6.72075l5.77301,-0.21423z" fill-opacity="0.08443" fill="#ffffff" stroke="none" stroke-width="0"/><path d="M240.89802,215.76301l-12.75254,-3.82479l0.1984,-5.62436l3.75332,-6.82975l16.73673,0.11862l4.53287,7.70969v4.62582z" fill="none" stroke="#00021d" stroke-width="3.5"/></g><path d="M247.67894,223.10535l-19.93561,-5.75637l-0.32395,-10.05143l3.69094,-5.95309l2.37553,-51.32033l29.02113,0.03448l1.1553,50.56384l1.51762,5.80078l-0.16473,9.26914z" fill="#71521d" stroke="none" stroke-width="0" stroke-linecap="butt"/></g><path d="M252.45511,137.92898l4.03144,-0.90276" data-paper-data="{&quot;index&quot;:null}" fill="none" stroke="#161830" stroke-width="1.5" stroke-linecap="round"/><path d="M253.62093,211.72827l-11.75,3.85618l-12.75,-3.37416l-1,-5.06124l4,-7.23034h16.5l4.25,6.50731z" data-paper-data="{&quot;index&quot;:null}" fill="none" stroke="#000000" stroke-width="3" stroke-linecap="round"/><path d="M249.17432,151.06526c1.6602,0.5335 1.1068,2.13401 1.1068,2.13401l-0.7041,1.84838c-1.35819,1.73713 -0.36355,3.38553 -0.2105,5.45189c0.17308,2.33672 0.07367,4.79495 -0.26318,7.1065c0,0 -0.24748,1.67011 -1.97989,1.43153c-1.73241,-0.23858 -1.48493,-1.9087 -1.48493,-1.9087c0.68797,-4.55544 -1.49902,-10.03066 1.02632,-13.95287l0.2959,-1.04374c0,0 0.5534,-1.60051 2.21359,-1.06701z" data-paper-data="{&quot;index&quot;:null}" fill="#cccccc" stroke="none" stroke-width="0.5" stroke-linecap="butt"/><path d="M234.71075,152.13229c0.5534,-1.60051 2.21359,-1.06701 2.21359,-1.06701l1.92901,1.60293c0.25249,1.73444 1.28609,3.42823 1.50248,5.07862c0.27917,2.12921 -1.12725,3.61256 -1.5,5.50366c-0.23286,1.18139 1.0549,3.36826 1.24752,4.60144c0,0 0.24748,1.67012 -1.48493,1.9087c-1.7324,0.23859 -1.97989,-1.43153 -1.97989,-1.43153c-0.25926,-1.88134 -1.49151,-3.56161 -1.25248,-5.52104c0.16712,-1.37 1.76779,-3.11436 1.5,-4.61882c-0.23657,-1.32902 -0.88482,-2.63339 -1.26981,-4.00682c-0.42419,-0.20392 -1.33665,-0.80321 -0.9055,-2.05015z" data-paper-data="{&quot;index&quot;:null}" fill="#cccccc" stroke="none" stroke-width="0.5" stroke-linecap="butt"/><path d="M243.89144,197.44729c-7.20447,0 -13.04485,-5.63039 -13.04485,-12.57583c0,-6.94544 5.84038,-12.57583 13.04485,-12.57583c7.20447,0 13.04486,5.63039 13.04486,12.57583c0,6.94544 -5.84039,12.57583 -13.04486,12.57583z" data-paper-data="{&quot;index&quot;:null}" fill="#000000" stroke="#000000" stroke-width="1.5" stroke-linecap="butt"/><path d="M256.46382,184.87146c0,6.69388 -5.62885,12.12036 -12.57239,12.12036c-6.94354,0 -12.57239,-5.42648 -12.57239,-12.12037c0,-6.69389 5.62886,-12.12037 12.5724,-12.12037c6.94355,0 12.5724,5.42648 12.5724,12.12037z" data-paper-data="{&quot;index&quot;:null}" fill="url(#color-1)" stroke="#6d4500" stroke-width="1.5" stroke-linecap="butt"/><path d="M247.18462,175.17917c0,-0.55758 0.18931,-1.16353 0.50935,-1.57936c0.1346,-0.17489 1.4001,0.3146 2.51555,0.94482c1.08378,0.61233 2.02065,1.40813 1.99767,1.46716c-0.3688,0.94768 -1.31722,1.66764 -2.42905,1.66764c-1.43235,0 -2.59352,-1.1194 -2.59352,-2.50027z" data-paper-data="{&quot;index&quot;:null}" fill="#000000" stroke="#6d4500" stroke-width="1.5" stroke-linecap="butt"/><path d="M242.64225,175.62751c1.51662,0 2.74609,1.10296 2.74609,2.46351c0,1.36056 -1.22946,2.46351 -2.74609,2.46351c-1.51662,0 -2.74608,-1.10296 -2.74608,-2.46351c0,-1.36056 1.22945,-2.46351 2.74608,-2.46351z" data-paper-data="{&quot;index&quot;:null}" fill="#000000" stroke="#6d4500" stroke-width="1.5" stroke-linecap="butt"/><path d="M249.39305,179.23084c1.53768,0 2.78422,1.15233 2.78422,2.57382c0,1.42148 -1.24653,2.57381 -2.78422,2.57381c-1.53769,0 -2.78423,-1.15232 -2.78423,-2.57381c0,-1.42149 1.24654,-2.57382 2.78423,-2.57382z" data-paper-data="{&quot;index&quot;:null}" fill="#000000" stroke="#6d4500" stroke-width="1.5" stroke-linecap="butt"/></g></g></svg>