<svg version="1.1" xmlns="http://www.w3.org/2000/svg" xmlns:xlink="http://www.w3.org/1999/xlink" width="129.06907" height="186.56414" viewBox="0,0,129.06907,186.56414"><g transform="translate(-323.58461,-60.12643)"><g data-paper-data="{&quot;isPaintingLayer&quot;:true}" fill-rule="nonzero" stroke-linejoin="miter" stroke-miterlimit="10" stroke-dasharray="" stroke-dashoffset="0" style="mix-blend-mode: normal"><g data-paper-data="{&quot;index&quot;:null}"><path d="M393.90439,172.43672l-2.13408,8.13364l2.67733,25.65817l-7.34827,25.27777" fill="#a7a7a7" stroke="#000000" stroke-width="10.5" stroke-linecap="round"/><path d="M433.30977,231.76366l-5.41161,-25.76189l4.61399,-25.38148l-1.51161,-8.27199" data-paper-data="{&quot;index&quot;:null}" fill="#a7a7a7" stroke="#000000" stroke-width="10.5" stroke-linecap="round"/><g fill="none" stroke="none" stroke-width="1" stroke-linecap="butt" font-family="sans-serif" font-weight="normal" font-size="12" text-anchor="start"/><path d="M377.19333,65.37799c56.44839,-0.24433 72.79791,28.31039 69.88935,63.47667c-2.90859,35.16627 -3.05631,112.37661 -3.05631,112.37661l-109.1778,-4.27745c0,0 -6.4333,-67.86569 -5.99228,-95.59644c0.44102,-27.73074 -5.7845,-75.74514 48.33701,-75.9794z" fill="#a7a7a7" stroke="#000000" stroke-width="10.5" stroke-linecap="butt"/></g><path d="M379.07592,132.75668c-1.94723,3.89446 -5.84169,1.94723 -5.84169,1.94723l-1.58229,-0.97296c-3.61208,-3.44158 -7.6499,-4.7029 -11.65067,-8.04268c-0.99255,-1.314 -3.43389,-4.17076 -5.15017,-7.10426c-0.00817,4.57587 0.0594,9.15401 0.0594,13.72698c0,0 0,4.35414 -4.35414,4.35414c-4.35414,0 -4.35414,-4.35414 -4.35414,-4.35414c0,-12.21435 -5.36265,-41.03981 11.62567,-43.66105c10.50118,-1.6203 24.58051,9.05314 22.58349,20.40391c-1.32042,7.50509 -7.38907,11.04702 -14.19426,10.49429c0.03942,0.05597 0.07941,0.11132 0.12004,0.16598c3.69198,3.19465 7.41139,4.26162 11.17259,7.57323l-0.38107,-0.37235c0,0 3.89446,1.94723 1.94723,5.84169zM354.98355,110.20194c4.27331,-2.48413 13.01208,1.70798 16.61632,0.05897c1.51218,-0.69185 0.46412,-3.46329 -0.2077,-4.98448c-2.13821,-4.84148 -7.08415,-8.04834 -12.49141,-7.98457c-4.99209,0.05888 -3.49267,4.92582 -3.69841,8.26318c-0.09543,1.54799 -0.1665,3.09705 -0.21879,4.64689z" fill="#000000" stroke="none" stroke-width="0.5" stroke-linecap="butt"/><path d="M389.89646,95.5238c4.35414,0 4.35414,4.35414 4.35414,4.35414v0.30031c0,10.97832 0.19191,21.96299 -0.3048,32.93107c0,0 -0.19771,4.34965 -4.54736,4.15193c-4.34965,-0.19771 -4.15193,-4.54736 -4.15193,-4.54736c0.4944,-10.83555 0.29581,-21.68969 0.29581,-32.53564v-0.30031c0,0 0,-4.35414 4.35414,-4.35414z" fill="#000000" stroke="none" stroke-width="0.5" stroke-linecap="butt"/><path d="M408.78649,124.83783c-0.04267,3.30222 -0.1212,6.60106 -0.1212,9.8756c0,0 0,4.35414 -4.35414,4.35414c-4.35414,0 -4.35414,-4.35414 -4.35414,-4.35414c0,-10.14731 -1.54455,-20.92312 -1.19207,-30.94965c0.09915,-2.82032 -0.74194,-6.5653 1.4516,-8.34081c2.3968,-1.94003 6.24239,-1.01841 9.24524,-0.3175c10.46903,2.44361 28.46807,22.4433 12.36416,29.64966c-0.55142,0.24675 -9.27022,0.19805 -10.60775,0.19805h-1.50153c0,0 -0.38696,0 -0.93017,-0.11536zM408.74563,116.3691c0.56455,-0.12419 0.97102,-0.12419 0.97102,-0.12419h1.50153c1.50153,0 3.00352,-0.03711 4.50459,0c1.52184,0.03762 5.07747,1.78043 4.5534,0.35117c-0.99786,-2.72137 -4.44507,-8.20474 -6.93999,-9.98322c-1.62682,-1.15966 -3.61616,-1.70587 -5.39737,-2.61282c0.31155,1.87284 0.25755,4.47583 0.40685,5.97892c0.21059,2.12012 0.33347,4.25207 0.39997,6.39014z" fill="#000000" stroke="none" stroke-width="0.5" stroke-linecap="butt"/><path d="M414.73442,166.18001c0.99537,-0.1739 2.10589,-0.21633 2.92887,-0.32073c0.18304,-0.18625 1.0381,-0.95157 2.01096,-0.11174c1.09864,0.94842 0.15022,2.04706 0.15022,2.04706l-1.12734,0.83775c-1.87303,0.37461 -3.65365,0.7255 -5.47613,0.96859l0.03774,0.09435l-1.47097,0.58839c-0.17488,0.07469 -0.36741,0.11603 -0.56959,0.11603c-0.80157,0 -1.45138,-0.6498 -1.45138,-1.45138c0,-0.27917 0.07882,-0.53993 0.21542,-0.76124l1.04616,-1.7639l0.00623,0.0037l0.00661,-0.02494c0.66987,-1.04633 5.21907,-6.80195 4.71163,-8.00797c-0.81467,-1.93622 -4.1944,0.2938 -6.29503,0.2938c-5.80554,0 -11.61108,-0.00015 -17.41661,-0.00042c-3.94916,-0.00019 -12.29865,1.47408 -15.57971,-1.13141c-0.79972,-0.63506 0.56993,-2.55759 -0.32684,-3.0461c-0.89067,-0.48519 -4.85858,0.35242 -6.10332,0.45466c-7.78004,0.63905 -13.56486,2.28087 -20.23815,6.22418c0,0 -1.24953,0.73836 -1.98789,-0.51117c-0.73836,-1.24953 0.51117,-1.98789 0.51117,-1.98789c7.03866,-4.15921 13.28281,-5.94891 21.47792,-6.61819c1.77065,-0.14461 6.55336,-1.05566 8.03754,0.08357c0.96947,0.74415 -0.196,2.97081 0.87439,3.56063c2.69556,1.48534 10.22343,0.06883 13.33502,0.06897c6.77307,0.00032 13.54617,-0.00537 20.31924,0.00042c0.97681,0.00084 4.97322,-0.27485 5.73456,0.89442c1.58956,2.44123 -1.36739,6.71817 -3.36072,9.50059z" fill="#000000" stroke="none" stroke-width="0.5" stroke-linecap="butt"/><path d="M431.28853,183.9626c0.00101,1.45138 -1.45037,1.45239 -1.45037,1.45239l-0.0303,0.00002c-14.66106,0.01017 -30.18819,5.34756 -44.62522,2.78689c-0.05225,-1.65317 0.91745,-3.49974 0.14069,-4.96c-0.60632,-1.13984 -2.52595,0.56789 -3.81121,0.69013c-1.8044,0.17162 -3.61779,0.28119 -5.43033,0.28175c-8.124,0.00247 -23.77449,-0.99034 -30.32455,4.48685c0,0 -1.13334,0.90667 -2.04001,-0.22667c-0.90667,-1.13334 0.22667,-2.04001 0.22667,-2.04001c8.4642,-6.55793 24.3898,-4.59585 34.47206,-5.1213c3.97619,-0.20723 12.44682,-2.46351 8.98698,5.01941c13.61652,-2.41191 28.55576,-3.81008 42.40291,-3.8198l0.0303,-0.00002c0,0 1.45138,-0.00101 1.45239,1.45037z" fill="#000000" stroke="none" stroke-width="0.5" stroke-linecap="butt"/><path d="M435.72564,204.24731c0.43742,1.38389 -0.94647,1.82132 -0.94647,1.82132l-0.45772,0.14468c-9.96556,3.11772 -26.7931,3.07648 -37.05834,1.06451c-1.57515,-0.45846 -3.02814,-1.82662 -3.58803,-3.36864c-0.28599,-0.78765 -1.63973,0.4251 -2.47769,0.4251c-1.92175,0 -3.84402,-0.04543 -5.76525,-0.00056c-8.22982,0.1922 -23.07385,-0.76213 -30.22506,3.69771c0,0 -1.24455,0.74673 -1.99128,-0.49782c-0.74673,-1.24455 0.49782,-1.99128 0.49782,-1.99128c7.98172,-4.65329 22.58942,-3.89768 31.63798,-4.11025c1.68604,-0.03961 8.98169,-0.9743 10.37604,0.42454c0.78259,0.78511 0.99682,2.53827 2.10475,2.57481c9.65259,1.97636 26.23288,2.01334 35.61422,-0.98591l0.45772,-0.14468c0,0 1.38389,-0.43742 1.82132,0.94647z" fill="#000000" stroke="none" stroke-width="0.5" stroke-linecap="butt"/></g></g></svg>