<svg version="1.1" xmlns="http://www.w3.org/2000/svg" xmlns:xlink="http://www.w3.org/1999/xlink" width="153.56004" height="128.24802" viewBox="0,0,153.56004,128.24802"><g transform="translate(-278.74335,-125.00267)"><g data-paper-data="{&quot;isPaintingLayer&quot;:true}" fill-rule="nonzero" stroke-linecap="butt" stroke-linejoin="miter" stroke-miterlimit="10" stroke-dasharray="" stroke-dashoffset="0" style="mix-blend-mode: normal"><path d="" fill="#878787" stroke="none" stroke-width="0"/><path d="" fill="#bfbfbf" stroke="none" stroke-width="0"/><path d="" data-paper-data="{&quot;index&quot;:null}" fill="#878787" stroke="none" stroke-width="0"/><path d="" data-paper-data="{&quot;index&quot;:null}" fill="#bfbfbf" stroke="none" stroke-width="0"/><path d="M282.61212,226.75173l43.79433,-98.7702l102.03148,12.57922l-43.32843,109.48584z" fill="#ffffff" stroke="#00021d" stroke-width="5.5"/><path d="M392.01355,161.65404c-2,1.5 -3.5,-0.5 -3.5,-0.5l0.36563,-0.35961c-4.06761,-1.16759 -8.25584,-2.12813 -12.49954,-2.43733c-4.7514,-0.3462 -9.62953,0.22941 -14.37432,-0.4146c-2.05747,-0.27926 -4.21549,-0.40859 -6.09274,-1.29578c-0.71065,-0.33586 -0.35579,-1.79469 -1.08214,-2.09508c-1.98433,-0.82065 -4.2858,0.33772 -6.43312,0.33772c-4.66248,0 -9.26497,-0.05129 -13.91438,0.3085c0,0 -2.49264,0.19174 -2.68437,-2.3009c-0.19174,-2.49264 2.30089,-2.68438 2.30089,-2.68438c4.77797,-0.36543 9.50705,-0.32322 14.29787,-0.32322c1.89487,0 7.86736,-0.06465 8.94276,0.33773c0.85507,0.31994 0.63716,1.90102 1.4447,2.32691c1.11525,0.58816 2.50186,0.3263 3.75938,0.41763c9.47765,0.68836 18.47089,0.38727 27.70863,3.01519l2.26076,2.16724c0,0 1.5,2 -0.5,3.5z" fill="#00021d" stroke="none" stroke-width="0.5"/><path d="M375.20708,179.26218c-2.23607,1.11803 -3.3541,-1.11803 -3.3541,-1.11803l0.15245,0.01802c-0.27544,-0.42086 -0.33503,-1.15483 -0.82634,-1.26261c-0.61136,-0.13411 -1.12899,0.57617 -1.74271,0.69904c-1.12637,0.22552 -2.32103,0.03592 -3.42971,0.33657c-1.62776,0.44141 -3.05345,1.51245 -4.70198,1.86852c-1.60643,0.34697 -9.27616,0.49285 -10.92334,0.15455c-2.1735,-0.4464 -4.69927,-0.65957 -6.27483,-2.22195c-1.27557,-1.26491 -1.11976,-3.45027 -1.25186,-5.24181c-0.03566,-0.4837 1.24,-1.09549 0.77452,-1.23175c-0.6814,-0.19947 -1.24153,0.73577 -1.93404,0.89232c-4.76427,1.07704 -9.60328,1.36205 -14.37816,2.55858c0,0 -2.42536,0.60634 -3.0317,-1.81902c-0.60634,-2.42535 1.81902,-3.0317 1.81902,-3.0317c4.83234,-1.20537 10.1069,-2.58687 15.12248,-2.68588c1.95087,-0.03851 4.2693,-0.7113 5.83633,0.45138c1.21011,0.89787 0.60129,2.95681 0.77452,4.45365c0.08963,0.77442 -0.57301,1.82296 0.01157,2.33874c0.84298,0.74377 2.19927,0.49779 3.31883,0.59971c1.39188,0.12671 7.63988,0.22281 9.0569,-0.09885c2.83044,-0.6425 5.52985,-1.8944 8.4094,-2.25831c1.31715,-0.16646 2.66566,-0.9274 3.9427,-0.56439c1.24898,0.35503 1.97595,1.68511 2.96393,2.52767l0.78416,1.28145c0,0 1.11803,2.23606 -1.11804,3.3541z" fill="#00021d" stroke="none" stroke-width="0.5"/><path d="M393.01205,201.89214c0.0866,2.4985 -2.4119,2.5851 -2.4119,2.5851l-2.10579,0.06576c-7.91831,0.87975 -15.80144,2.21154 -23.79956,1.71788c-2.11798,-0.13073 -9.10492,-0.85225 -10.89004,-1.85127c-1.27433,-0.71317 -2.02502,-2.14465 -2.74162,-3.41705c-0.38662,-0.68649 0.1961,-1.91819 -0.48559,-2.31321c-0.80691,-0.46758 -1.83339,0.37829 -2.76456,0.42983c-3.32824,0.18425 -6.66667,0 -10,0c-9.2809,0 -18.56181,0 -27.84271,0c0,0 -2.5,0 -2.5,-2.5c0,-2.5 2.5,-2.5 2.5,-2.5c10.94757,0 21.89514,0 32.84271,0c1.246,0 9.60989,-0.12829 10.56771,0.42983c1.8523,1.07933 1.14319,4.74267 3.08992,5.64056c0.74253,0.34248 8.26681,1.07459 8.53069,1.09071c7.70335,0.47055 15.31361,-0.84917 22.9409,-1.69671l2.48475,-0.09334c0,0 2.49849,-0.0866 2.58509,2.4119z" fill="#00021d" stroke="none" stroke-width="0.5"/><path d="M361.47988,225.52254c-1.11804,2.23607 -3.35411,1.11804 -3.35411,1.11804l-1.39512,-0.90566c-0.80863,-1.05084 -2.00654,-1.90507 -2.56715,-3.08117c-0.74235,0.18786 -1.58013,0.10292 -2.34672,0.21951c-3.42259,0.52054 -6.91032,0.65212 -10.37094,0.55621c-1.85107,-0.05131 -3.75986,0.37993 -5.55483,-0.07523c-4.29995,-1.09035 -5.69802,-4.72422 -9.45088,-6.09389c-2.38815,-0.87159 -5.46498,-0.46323 -7.94174,-0.46323c0,0 -2.5,0 -2.5,-2.5c0,-2.5 2.5,-2.5 2.5,-2.5c3.2108,0 6.65859,-0.34429 9.74621,0.8002c3.40628,1.26262 5.27035,5.08741 8.86876,5.90864c1.44479,0.32973 2.96343,-0.09973 4.44517,-0.07523c4.23989,0.07011 7.86275,-0.48054 12.04579,-0.87859c1.70535,-0.16228 3.69402,-1.28996 5.12714,-0.35148c1.05289,0.68949 -0.30121,2.58141 0.09983,3.77437c0.23551,0.70057 1.10818,0.97825 1.66227,1.46737l-0.13169,-0.27395c0,0 2.23607,1.11803 1.11803,3.3541z" fill="#00021d" stroke="none" stroke-width="0.5"/><path d="M381.19859,221.7188c0.79057,2.37171 -1.58114,3.16228 -1.58114,3.16228l-2.9343,0.97616c-5.57191,1.39373 -10.90884,2.92816 -16.62313,1.95451c0,0 -2.45967,-0.44721 -2.01246,-2.90689c0.44721,-2.45967 2.90689,-2.01246 2.90689,-2.01246c4.79155,0.94305 9.62794,-0.66075 14.33076,-1.83576l2.7511,-0.91898c0,0 2.37171,-0.79057 3.16228,1.58114z" fill="#00021d" stroke="none" stroke-width="0.5"/></g></g></svg>