<svg version="1.1" xmlns="http://www.w3.org/2000/svg" xmlns:xlink="http://www.w3.org/1999/xlink" width="367.54368" height="324.12954" viewBox="0,0,367.54368,324.12954"><g transform="translate(-203.76321,-30.8588)"><g data-paper-data="{&quot;isPaintingLayer&quot;:true}" fill-rule="nonzero" stroke="none" stroke-width="0" stroke-linecap="butt" stroke-linejoin="miter" stroke-miterlimit="10" stroke-dasharray="" stroke-dashoffset="0" style="mix-blend-mode: normal"><path d="M232.27613,326.56928c0.70319,-0.56531 0.47445,-15.149 -4.82951,-25.95204c-2.75962,-5.62075 -11.27065,-7.15381 -12.42101,-11.67917c-3.57887,-14.07874 -11.64091,-93.8023 -11.24858,-160.43119c0.29932,-50.83442 8.52999,-94.04654 9.63422,-94.66781c6.43623,-3.62113 316.68369,-6.7703 326.8504,8.54246c3.5164,5.29628 7.31329,10.25269 10.09886,19.20665c0.97915,3.14741 7.90992,-1.31102 8.78352,2.21077c0.9095,3.66651 -1.18073,10.47109 1.45886,13.27701c2.70902,2.87972 10.14401,1.7716 10.67502,6.44822c0.665,5.85668 -10.33842,13.29694 -10.17306,19.83462c1.24981,49.41244 0.43523,127.24773 -13.12976,173.92162c-3.17339,10.91888 -15.02144,56.37273 -20.62937,64.11361c-2.26019,3.11984 -13.85482,12.1959 -31.24248,13.10455c-78.55156,4.10498 -275.33482,-18.67816 -263.82711,-27.92929z" fill="#000000"/><path d="M237.92117,258.15126c-8.28969,-8.97416 -7.6746,-69.34333 -8.01816,-86.45436c-0.26588,-13.24267 -3.82385,-89.15169 8.6184,-102.62127c7.09644,-7.68239 80.55816,1.58942 103.28385,2.80752c33.04389,1.77116 115.67847,9.6178 123.60691,18.20088c8.07833,8.74535 1.98604,181.42983 -8.40336,192.67707c-4.07445,4.41087 -5.81833,-4.26708 -12.15772,-2.82943c-28.42377,6.44596 -170.00826,-20.04845 -186.60273,-21.34064c-8.28852,-0.64542 -15.6598,4.61299 -20.32718,-0.43977z" fill="#333333"/></g></g></svg>