<svg version="1.1" xmlns="http://www.w3.org/2000/svg" xmlns:xlink="http://www.w3.org/1999/xlink" width="367.54368" height="324.12953" viewBox="0,0,367.54368,324.12953"><g transform="translate(-203.7632,-30.8588)"><g data-paper-data="{&quot;isPaintingLayer&quot;:true}" fill-rule="nonzero" stroke="none" stroke-linecap="butt" stroke-linejoin="miter" stroke-miterlimit="10" stroke-dasharray="" stroke-dashoffset="0" style="mix-blend-mode: normal"><path d="M232.27613,326.56928c0.70319,-0.56531 0.47445,-15.149 -4.82951,-25.95204c-2.75962,-5.62075 -11.27065,-7.15381 -12.42101,-11.67917c-3.57887,-14.07874 -11.64091,-93.8023 -11.24858,-160.43119c0.29932,-50.83442 8.52999,-94.04654 9.63422,-94.66781c6.43623,-3.62113 316.68369,-6.7703 326.8504,8.54246c3.5164,5.29628 7.31329,10.25269 10.09886,19.20665c0.97915,3.14741 7.90992,-1.31102 8.78352,2.21077c0.9095,3.66651 -1.18073,10.47109 1.45886,13.27701c2.70902,2.87972 10.14401,1.7716 10.67502,6.44822c0.665,5.85668 -10.33842,13.29694 -10.17306,19.83462c1.24981,49.41244 0.43523,127.24773 -13.12976,173.92162c-3.17339,10.91888 -15.02144,56.37273 -20.62937,64.11361c-2.26019,3.11984 -13.85482,12.1959 -31.24248,13.10455c-78.55156,4.10498 -275.33482,-18.67816 -263.82711,-27.92929z" fill="#000000" stroke-width="0"/><path d="M237.92117,257.55102c-8.28969,-8.97416 -7.6746,-69.34333 -8.01816,-86.45436c-0.26588,-13.24267 -3.82385,-89.15169 8.6184,-102.62127c7.09644,-7.68239 80.55816,1.58942 103.28385,2.80752c33.04389,1.77116 115.67847,9.6178 123.60691,18.20088c8.07833,8.74535 1.98604,181.42983 -8.40336,192.67707c-4.07445,4.41087 -5.81833,-4.26708 -12.15772,-2.82943c-28.42377,6.44596 -170.00826,-20.04845 -186.60273,-21.34064c-8.28852,-0.64542 -15.6598,4.61299 -20.32718,-0.43977z" fill="#38dbff" stroke-width="0"/><path d="M247.39713,162.18593c-3.38559,-6.01872 0.00287,-17.9856 2.26254,-23.10643c2.20399,-4.99465 5.57672,-9.32719 8.98369,-13.57938c7.06768,-8.82106 11.33284,-13.40323 22.49511,-14.55384c14.9341,-1.53941 15.4269,22.40748 21.27005,30.08458c1.9359,2.54351 7.0585,1.68625 9.02847,1.72815c8.43102,0.17929 26.39747,-0.05722 33.15073,-1.13904c10.26765,-1.64479 20.25751,-4.70702 30.39679,-7.01464c13.12893,-2.98803 40.65331,-6.53803 54.43063,-9.08881c6.79847,-1.25869 20.20414,-5.82339 22.20502,6.18191c2.01696,12.10176 -11.92159,11.7783 -18.72839,13.00589c-17.92484,3.2327 -36.01025,5.55473 -53.89772,8.98823c-10.36011,1.98862 -20.54341,4.80911 -30.83726,7.1163c-7.49511,1.67989 -16.21733,1.17994 -23.53226,1.38297c-1.51413,0.04202 -21.72536,0.39536 -24.57672,-0.49835c-8.70058,-2.72705 -14.41116,-8.67583 -17.79229,-17.05517c-1.44596,-3.58345 -2.83871,-7.1885 -4.20168,-10.80433c-0.07948,-0.21085 0.01168,-0.82058 -0.14633,-0.65994c-4.03735,4.10459 -7.94905,8.48086 -10.50404,13.73527c-1.09788,2.25781 -1.31431,4.85479 -1.72507,7.33156c-0.08864,0.53444 -0.07429,1.27747 -0.04755,2.1011c0.03145,0.31874 0.04755,0.64198 0.04755,0.96898c0,0.13304 -0.00266,0.26546 -0.00795,0.39721c-0.20838,5.20061 -4.49032,9.35279 -9.74206,9.35279c-3.17293,0 -5.99187,-1.51563 -7.77233,-3.8624c-0.29059,-0.30017 -0.54643,-0.63485 -0.75892,-1.0126z" fill="#ffffff" stroke-width="0.5"/><path d="M392.92928,222.13686c0,0.47334 -0.03373,0.93881 -0.09892,1.39411c0.243,0.86527 0.327,1.81616 -0.33017,2.96622c-0.34913,0.61098 -0.8733,1.05649 -1.47534,1.42947c-1.46123,1.97677 -3.65171,3.38171 -6.17411,3.81748c-0.19502,0.10162 -0.37348,0.17366 -0.52618,0.20347c-0.90961,0.17757 -1.83369,0.01938 -2.76058,-0.19394c-0.43009,-0.07171 -0.85065,-0.17157 -1.25973,-0.29763c-0.84747,-0.18805 -1.69288,-0.31598 -2.52732,-0.16942c-3.03841,0.53366 -5.98012,1.53529 -9.01106,2.10985c-18.2824,3.46568 -38.30607,5.484 -56.75678,3.65702c-5.59716,-0.55423 -10.5845,-1.78805 -14.87076,-5.46198c-5.39107,-4.62091 -2.71884,-18.42703 -6.12977,-24.31449c-0.08514,-0.14696 -2.39488,0.00964 -3.03712,-0.04838c-5.64842,-0.51029 -11.41616,-0.43333 -16.91757,-1.81159c-0.48915,-0.05396 -0.96741,-0.14409 -1.43202,-0.26768c-4.16686,-1.1084 -7.23697,-4.9072 -7.23697,-9.42307c0,-3.61416 1.96646,-6.76902 4.8878,-8.45301c0.32738,-0.2466 0.68613,-0.45502 1.08302,-0.61703c0.91506,-0.37352 1.84505,-0.56058 2.78225,-0.62962c0.32778,-0.03329 0.66036,-0.05034 0.99693,-0.05034c0.3924,0 0.77939,0.02318 1.15967,0.06825c1.58598,0.11992 3.17561,0.42563 4.73217,0.59235c9.92874,1.06346 22.63387,-1.48703 29.33293,7.68012c2.83932,3.88539 2.8415,9.96936 3.75248,14.5213c0.58621,2.92917 -0.73398,7.30325 1.87169,8.76414c7.31867,4.10329 16.78884,0.56628 25.17071,0.18657c12.1114,-0.54868 24.27711,-3.11081 36.05741,-5.71129c4.79548,-1.05859 14.88265,-0.95161 17.74323,4.60872c0.32133,0.6246 0.3802,1.31912 0.35947,2.03578c0.3974,1.0627 0.61467,2.21329 0.61467,3.41464z" fill="#ffffff" stroke-width="0.5"/><path d="M330.28506,185.39432c7.20794,-4.05454 16.51909,-0.83436 24.7802,-1.21875c5.44711,-0.25346 10.88812,-0.81888 16.27217,-1.68332c2.91728,-0.46839 9.72832,-2.8824 14.24281,-3.11859c4.16345,-0.21784 6.28318,0.7828 10.22004,1.32938c9.9111,1.37602 15.78021,1.29162 26.16259,1.07158c3.99005,-0.08456 7.98141,-0.24678 11.95929,-0.56949c6.87406,-0.55767 17.48893,-5.49313 20.93174,4.83531c4.32511,12.97533 -11.63362,13.67579 -18.76538,14.54841c-7.59454,0.92925 -23.34124,1.25413 -30.42427,0.64185c-4.20501,-0.3635 -8.41039,-0.7324 -12.60504,-1.20048c-2.09096,-0.23333 -4.15642,-1.60857 -6.33426,-1.15656c-9.96279,2.06774 -20.02538,3.773 -30.15345,4.75017c-7.10417,0.68542 -14.28179,0.37937 -21.41143,0.05175c-0.19252,-0.00885 -0.39375,-0.01396 -0.60048,-0.01819c-5.1051,-0.31018 -9.14952,-4.54869 -9.14952,-9.73181c0,-3.17293 1.51563,-5.99187 3.86241,-7.77233c0.30017,-0.29059 0.63485,-0.54644 1.01259,-0.75892z" fill="#ffffff" stroke-width="0.5"/></g></g></svg>