<svg version="1.1" xmlns="http://www.w3.org/2000/svg" xmlns:xlink="http://www.w3.org/1999/xlink" width="120.87281" height="211.92436" viewBox="0,0,120.87281,211.92436"><defs><radialGradient cx="239.85291" cy="176.0974" r="21.52948" gradientUnits="userSpaceOnUse" id="color-1"><stop offset="0" stop-color="#b97500"/><stop offset="1" stop-color="#6d4401"/></radialGradient></defs><g transform="translate(-176.41516,-73.96544)"><g data-paper-data="{&quot;isPaintingLayer&quot;:true}" fill-rule="nonzero" stroke-linejoin="miter" stroke-miterlimit="10" stroke-dasharray="" stroke-dashoffset="0" style="mix-blend-mode: normal"><g data-paper-data="{&quot;index&quot;:null}" stroke-linecap="butt"><path d="M243.3061,151.90926c-0.03768,-2.1292 0.22618,-3.56602 0.75162,-4.52479c0.33927,-0.61907 1.33422,-1.31698 1.33422,-1.31698l21.91787,0.02303c0,0 0.63269,0.73323 0.93975,1.27335c0.51931,0.91346 0.82015,2.18613 0.85118,3.93946c0.15312,8.65182 -5.49708,15.80113 -12.62008,15.96846c-7.123,0.16732 -13.02144,-6.71071 -13.17456,-15.36252z" fill="#3c2222" stroke="none" stroke-width="0"/><path d="M246.33365,159.42416l21.28571,-1.57143c0,0 -4.09003,8.78511 -9.85714,9.28571c-8.20166,0.71192 -11.42857,-7.71428 -11.42857,-7.71428z" fill-opacity="0.08443" fill="#ffffff" stroke="none" stroke-width="0"/><path d="M261.04796,166.13844c0,0 -8.39008,2.96028 -14.28572,-5.14286c-3.39736,-4.66942 -2.57143,-14.57143 -2.57143,-14.57143l10.71428,-0.28571l6.14286,20z" fill-opacity="0.08443" fill="#ffffff" stroke="none" stroke-width="0"/><path d="M243.44899,151.76639c-0.03768,-2.12921 0.22618,-3.56603 0.75162,-4.52479c0.33927,-0.61907 1.33422,-1.31698 1.33422,-1.31698l21.91788,0.02303c0,0 0.63268,0.73323 0.93974,1.27334c0.51931,0.91346 0.82015,2.18614 0.85118,3.93946c0.15312,8.65181 -5.49708,15.80113 -12.62008,15.96846c-7.12299,0.16733 -13.02144,-6.71071 -13.17455,-15.36252z" fill="none" stroke="#00021d" stroke-width="3.5"/><path d="M255.78425,166.99562c-7.2828,0.12779 -11.47933,-7.6513 -12.10271,-13.66299c-0.44122,-4.25501 1.87335,-7.34868 1.87335,-7.34868h21.84107c0,0 1.98415,2.87446 1.85649,6.61844c-0.20725,6.07825 -3.71943,14.22216 -13.46821,14.39323z" fill="#71521d" stroke="none" stroke-width="0"/></g><path d="M287.89027,223.82095c0.48958,1.86998 -0.60716,3.77693 -2.44964,4.2593c-1.84247,0.48238 -3.73297,-0.64249 -4.22255,-2.51246c-0.48958,-1.86998 0.60716,-3.77693 2.44964,-4.2593c1.84247,-0.48238 3.73297,0.64249 4.22255,2.51246z" fill="#00021d" stroke="#00021d" stroke-width="12" stroke-linecap="butt"/><g><path d="M272.93587,225.33706l-2.92897,-8.30189l2.4313,-2.74609l0.03388,-35.8357c0,0 0.39785,-4.64886 3.49703,-5.48354c2.32325,-0.6257 4.04611,3.25068 4.04611,3.25068l10.70894,33.64336l2.63907,1.2111l2.12269,9.07931l-10.18713,6.99351z" fill="#5c2a2a" stroke="none" stroke-width="0" stroke-linecap="butt"/><path d="M272.98267,224.99273l-2.47294,-8.6559l24.97629,3.798l-10.36827,6.57031z" fill-opacity="0.08443" fill="#ffffff" stroke="none" stroke-width="0" stroke-linecap="butt"/><path d="M272.78629,225.07353l-3.06814,-7.31051l2.61037,-4.10076l0.72141,-34.84495c0,0 -0.55161,-4.70416 2.90519,-5.31146c3.85244,-0.67678 4.02482,3.26324 4.02482,3.26324l5.66033,50.28075z" fill-opacity="0.08443" fill="#ffffff" stroke="none" stroke-width="0" stroke-linecap="butt"/><path d="M272.80436,225.50646l-3.01868,-8.64452l2.54726,-2.3032l-0.15615,-35.43348c0,0 0.18648,-4.94656 3.72393,-5.8296c3.53476,-0.88236 4.92483,3.30729 4.92483,3.30729l9.79254,33.52736l2.98683,1.08204l1.74785,9.10489l-10.19728,6.95469z" fill="none" stroke="#00021d" stroke-width="3.5" stroke-linecap="butt"/><path d="M291.17335,209.79034l-8.7303,5.0342l-10.80457,-0.42374" fill="none" stroke="#00021d" stroke-width="1.5" stroke-linecap="round"/><path d="M272.78544,225.46513l-2.665,-8.13965l2.20722,-3.27162l-0.28217,-34.72988c0,0 0.64461,-5.22195 3.55976,-5.99119c3.49262,-0.92163 5.34122,3.57462 5.34122,3.57462l9.36537,32.99799l3.32093,1.78421l1.81386,9.02977l-9.80722,6.72206z" fill="#71521d" stroke="none" stroke-width="0" stroke-linecap="butt"/></g><g stroke-linecap="butt"><g><path d="M259.60533,151.85548c0,0 -1.87508,-4.01805 0.32364,-5.44427c1.64826,-1.06914 4.95847,1.78634 4.95847,1.78634l16.88029,30.37903c0,0 -7.83376,4.41391 -8.89157,4.81586z" fill="#71521d" stroke="none" stroke-width="0"/><path d="" fill-opacity="0.08443" fill="#ffffff" stroke="none" stroke-width="0"/><path d="M260.53194,151.8565c0,0 -2.57913,-3.91842 -0.01499,-5.20907c-0.04092,0.09046 0.98707,0.33135 0.98707,0.33135l14.86897,34.69927c0,0 -2.49337,1.33127 -3.57701,1.74495z" fill="#71521d" stroke="none" stroke-width="0"/><path d="M272.84378,183.50955l-12.93688,-31.04578c0,0 -1.89432,-4.41067 0.63939,-5.97394c2.53179,-1.56209 4.3946,2.23688 4.3946,2.23688l16.98423,30.40726" fill="none" stroke="#00021d" stroke-width="3.5"/></g><path d="M273.66916,183.21005l-12.93324,-31.21744c0,0 -1.78465,-3.35153 0.74906,-4.91482c1.16596,-0.69273 2.7438,2.21514 2.7438,2.21514l16.97325,30.30135" fill="none" stroke="#71521d" stroke-width="1.75"/></g><path d="M291.70955,209.29833l-9.09767,5.51117l-10.78587,-1.03505" fill="none" stroke="#00021d" stroke-width="1.5" stroke-linecap="round"/><path d="M244.32201,141.23478v-3.1h6.9v3.1z" data-paper-data="{&quot;index&quot;:null}" fill="#b1a785" stroke="#00021d" stroke-width="1.5" stroke-linecap="butt"/><g data-paper-data="{&quot;index&quot;:null}" stroke-linecap="butt"><path d="M247.62194,137.78002c-14.29037,0 -25.875,-11.58463 -25.875,-25.875c0,-14.29037 11.58463,-25.875 25.875,-25.875c14.29037,0 25.875,11.58463 25.875,25.875c0,14.29037 -11.58463,25.875 -25.875,25.875z" fill="#fff1bf" stroke="none" stroke-width="0"/><path d="M273.02909,118.7348c0,0 -6.149,-8.82502 -16.43252,-8.88726c-8.36183,-0.05061 -17.21915,7.99547 -23.44518,9.81699c-8.29721,2.42748 -10.1223,0.21313 -10.1223,0.21313l0.14285,-1.57143c0,0 -1.80946,-2.02879 -1.29807,-7.74097c0.84348,-9.42164 8.99458,-24.15406 23.8695,-24.25904c31.96804,-0.2256 27.28572,32.42857 27.28572,32.42857z" fill-opacity="0.28957" fill="#000000" stroke="none" stroke-width="0"/><path d="M247.62194,137.68001c-14.29037,0 -25.875,-11.58463 -25.875,-25.875c0,-14.29037 11.58463,-25.875 25.875,-25.875c14.29037,0 25.875,11.58463 25.875,25.875c0,14.29037 -11.58463,25.875 -25.875,25.875z" fill="none" stroke="#00021d" stroke-width="3.5"/></g><path d="M276.87549,115.06253c0,0 -0.42337,4.91168 -1.55067,3.80686c-1.09029,-1.06855 -0.86052,2.4525 -2.10823,0.40395c-2.59875,-4.26674 -12.01744,-27.66917 -13.19094,-14.61719c2.43035,3.40681 -39.48363,6.59449 -35.93906,19.0354c-23.66411,10.17472 -22.56107,-43.18692 -22.56107,-43.18692c0,0 9.44177,17.08027 37.05335,7.12623c-2.64972,-9.54022 18.06149,-10.24896 26.68751,-0.71786c8.21273,-19.25003 11.60912,28.14953 11.60912,28.14953z" data-paper-data="{&quot;index&quot;:null}" fill="#fdfd96" stroke="#00021d" stroke-width="3.5" stroke-linecap="butt"/><g stroke="none" stroke-width="1" stroke-linecap="butt"><path d="M199.28271,118.94304c-0.27376,0.25989 -0.54751,0.51978 -0.81142,0.81197c-0.22039,0.26128 -0.23148,0.68819 -0.71592,0.83581c0.38173,-0.71633 0.57108,-1.42698 0.76042,-2.13763c0.22884,-0.17562 0.48999,-0.36108 0.80172,-0.43842c0.01968,0.06459 0.02952,0.09689 0.03936,0.12918c-0.00693,0.26682 -0.03493,0.52242 -0.07416,0.79908z" fill="#c6dede"/><path d="M198.20476,116.44793c-0.31451,0.18407 -0.60794,0.37937 -0.92245,0.56344c-0.13487,-0.15303 -0.04505,-0.32158 -0.04089,-0.48167c0.00416,-0.16009 0.04062,-0.33003 0.056,-0.51119c0.24007,-0.19669 0.54058,-0.25296 0.8214,-0.37383c0.15316,0.27098 0.12516,0.52658 0.08593,0.80324z" fill="#c8e0e1"/><path d="M194.1086,112.9666c0.17409,-0.12364 0.3468,-0.19391 0.51812,-0.21082c0.17977,0.06875 0.19669,0.24007 0.26835,0.35942c0.07166,0.11934 0.18684,0.20778 0.17146,0.38894c-0.15441,0.18823 -0.40294,0.29926 -0.67392,0.45242c-0.0492,-0.16148 -0.09841,-0.32296 -0.15884,-0.46337c-0.03798,-0.18255 -0.07595,-0.3651 -0.12516,-0.52658z" fill="#c5ddde"/><path d="M191.31589,114.39994c-0.05059,-0.10811 -0.07027,-0.1727 -0.08996,-0.2373c-0.02814,-0.15025 -0.04505,-0.32157 -0.08302,-0.50412c0.30466,-0.21637 0.54612,-0.46642 0.90138,-0.57467c0.12503,0.12073 0.13209,0.25975 0.13777,0.45214c-0.25269,0.27112 -0.54889,0.57315 -0.86617,0.86395z" fill="#c7dfe0"/><path d="M199.45071,117.40947c-0.25975,0.13209 -0.47599,0.23328 -0.75681,0.35414c0.01955,-0.34126 0.02786,-0.66144 0.06848,-0.99147c0.19516,-0.11241 0.3791,-0.20376 0.59394,-0.25157c0.10964,0.30189 0.10271,0.56872 0.09439,0.8889z" fill="#c2dada"/><path d="M197.30145,115.45258c-0.07734,-0.31173 -0.11393,-0.54765 -0.17159,-0.79479c0.17548,-0.177 0.42262,-0.23466 0.66976,-0.29232c0.13348,0.20639 0.23466,0.42262 0.2488,0.70067c-0.19793,0.21914 -0.46476,0.21221 -0.74697,0.38644z" fill="#c6dedf"/><path d="M190.54884,113.50424c-0.20777,0.18684 -0.36357,0.42844 -0.66547,0.53808c-0.04782,-0.21485 -0.10687,-0.40862 -0.16591,-0.6024c0.13473,-0.25282 0.35235,-0.40737 0.61071,-0.4861c0.13487,0.15303 0.18407,0.3145 0.22066,0.55042z" fill="#c3dadb"/><path d="M200.2617,119.4918c-0.24007,0.19669 -0.46892,0.3723 -0.70899,0.56899c0.02509,-0.55471 0.13307,-1.01115 0.74531,-1.14477c0.07027,0.17271 0.00152,0.35248 -0.03632,0.57578z" fill="#bbd2d3"/><path d="M198.96984,123.99729c0.05766,0.24714 0.13778,0.45214 0.19544,0.69929c-0.0772,0.09412 -0.21901,0.20791 -0.33974,0.33294c-0.3231,-0.30744 -0.31187,-0.3285 -0.14484,-0.59117c0.07859,-0.14748 0.17825,-0.28374 0.28914,-0.44105z" fill="#b5cbcc"/><path d="M197.21788,113.32506c0.177,0.17548 0.24728,0.34819 0.31755,0.52089c-0.16425,0.15594 -0.37771,0.15039 -0.59255,0.19821c-0.09134,-0.18394 -0.16162,-0.35664 -0.25296,-0.54058c0.12212,-0.17839 0.33418,-0.11948 0.52796,-0.17853z" fill="#c0d7d8"/><path d="M199.8944,117.18604c-0.02537,-0.25698 -0.01843,-0.5238 -0.0438,-0.78079c0.14041,-0.06043 0.26821,-0.04643 0.39462,0.02093c0.10396,0.1095 0.08996,0.2373 0.09703,0.37633c-0.00277,0.10673 -0.00554,0.21346 -0.00832,0.32019c-0.13057,0.09273 -0.25976,0.13209 -0.43953,0.06334z" fill="#b6cccc"/><path d="M200.38909,118.28826c-0.17409,0.12364 -0.32573,0.20514 -0.52935,0.23189c-0.05766,-0.24714 0.01248,-0.48028 0.03909,-0.68251c0.13196,-0.14609 0.28082,-0.12087 0.41985,-0.12794c0.05198,0.05475 0.09412,0.07721 0.08289,0.09828c-0.00416,0.16009 -0.00832,0.32019 -0.01248,0.48028z" fill="#b7cdce"/><path d="M200.54016,120.69521c-0.04505,-0.32157 0.056,-0.51119 0.11491,-0.72326c0.04907,-0.24437 0.22039,-0.26128 0.42401,-0.28803c0.05766,0.24714 -0.00125,0.45921 -0.0068,0.67267c-0.15441,0.18823 -0.39878,0.13916 -0.53212,0.33862z" fill="#b6cccc"/><path d="M195.92022,113.12047c-0.1418,0.1138 -0.23868,0.14332 -0.36648,0.12932c-0.13764,-0.0463 -0.177,-0.17548 -0.24866,-0.29482c-0.05059,-0.10811 -0.18684,-0.20778 -0.12932,-0.36648c0.17271,-0.07027 0.35526,-0.10825 0.56733,-0.04934c0.08011,0.205 0.11809,0.38755 0.17714,0.58133z" fill="#bbd2d3"/><path d="M199.54992,124.27936c-0.12932,-0.36648 -0.12932,-0.36648 -0.0438,-0.78079c0.19516,-0.11241 0.37494,-0.04366 0.59824,-0.00582c-0.09398,0.32864 -0.34528,0.5464 -0.55444,0.7866z" fill="#adc2c3"/><path d="M199.29576,115.97431c-0.18394,0.09134 -0.32435,0.15178 -0.52796,0.17853c-0.11241,-0.19516 -0.07457,-0.41846 -0.11116,-0.65437c0.07582,-0.04075 0.14041,-0.06044 0.205,-0.08012c0.06459,-0.01968 0.13902,-0.00707 0.22468,-0.01552c0.15594,0.16425 0.19391,0.3468 0.20944,0.57149z" fill="#bbd1d2"/><path d="M191.87561,112.58818c-0.29344,0.1953 -0.59672,0.3583 -0.87892,0.53253c-0.13625,-0.09966 -0.18684,-0.20778 -0.19253,-0.40017c0.33419,-0.11948 0.66838,-0.23896 1.03209,-0.26155c0.01968,0.06459 0.02952,0.09689 0.03936,0.12918z" fill="#acc1c2"/><path d="M198.99345,114.86641c-0.1095,0.10396 -0.24853,0.11103 -0.40862,0.10687c-0.08011,-0.205 -0.16023,-0.41001 -0.24035,-0.61501c0.17409,-0.12364 0.31174,-0.07734 0.45921,0.00125c0.09273,0.13057 0.15177,0.32435 0.18975,0.5069z" fill="#b7cdcd"/><path d="M192.63976,113.18476c-0.09273,-0.13057 -0.12226,-0.22746 -0.10825,-0.35526c0.25975,-0.13209 0.53074,-0.28525 0.91552,-0.29662c-0.1698,0.36939 -0.47169,0.47903 -0.80726,0.65187z" fill="#b2c8c9"/><path d="M198.48847,120.73803c0.12489,-0.28512 0.24839,-0.51688 0.44632,-0.73601c0.11657,0.03507 0.12503,0.12073 0.09134,0.18394c-0.05752,0.15871 -0.09398,0.32864 -0.1515,0.48735c-0.08982,0.16855 -0.19655,0.16578 -0.38617,0.06473z" fill="#91a3a3"/><path d="M198.1126,113.82891c-0.15594,-0.16425 -0.23744,-0.31589 -0.31755,-0.5209c0.3188,0.06168 0.51687,0.24839 0.76969,0.38312c-0.05475,0.05198 -0.0772,0.09412 -0.1095,0.10396c-0.11796,0.01829 -0.22469,0.01552 -0.34264,0.03382z" fill="#a9bebf"/><path d="M200.13418,120.2895c-0.16841,0.31603 -0.28069,0.52672 -0.39296,0.7374c-0.02246,0.04214 -0.08705,0.06182 -0.15025,0.02814c-0.02107,-0.01123 -0.05198,-0.05475 -0.06182,-0.08705c0.09259,-0.27528 0.2161,-0.50703 0.60503,-0.67849z" fill="#94a5a6"/><path d="M198.47806,123.19418c0.17132,-0.01691 0.24575,-0.0043 0.30619,0.13611c-0.06875,0.17977 -0.14873,0.38062 -0.32421,0.55762c-0.13209,-0.25975 -0.01982,-0.47044 0.01802,-0.69374z" fill="#abbfc0"/><path d="M201.0691,119.24578c-0.1278,-0.014 -0.18116,-0.01539 -0.2233,-0.03784c-0.07457,-0.41846 -0.07457,-0.41846 0.14582,-0.67974c0.14332,0.23868 0.03105,0.44937 0.07748,0.71758z" fill="#acc0c1"/><path d="M199.75774,115.86883c-0.06043,-0.14041 -0.08996,-0.2373 -0.07595,-0.3651c0.08705,-0.06182 0.17271,-0.07027 0.28928,-0.03521c0.11518,0.08843 0.14332,0.23868 0.17146,0.38894c-0.1095,0.10396 -0.24714,0.05766 -0.38478,0.01137z" fill="#aec2c3"/><path d="M196.81467,112.81262c-0.42262,0.23466 -0.45492,0.2445 -0.57162,-0.19641c0.191,0.04768 0.39462,0.02093 0.57162,0.19641z" fill="#869696"/><path d="M200.92924,120.9296c0.07596,0.3651 0.03243,0.396 -0.33835,0.27957c0.03645,-0.16993 0.17687,-0.23037 0.33835,-0.27957z" fill="#8b9b9c"/><path d="M188.09586,114.60465c-0.04907,0.24437 -0.15996,0.40169 -0.27085,0.55901c-0.16009,-0.00416 -0.20085,-0.07998 -0.15593,-0.16425c0.08982,-0.16855 0.20071,-0.32587 0.42678,-0.39476z" fill="#9aacad"/><path d="M200.92815,117.68282c0.07027,0.17271 0.163,0.30328 0.05211,0.4606c-0.01123,0.02107 -0.04352,0.03091 -0.06459,0.01968c-0.16716,-0.14318 -0.14194,-0.29205 0.01248,-0.48028z" fill="#5f6a6b"/><path d="M199.40346,114.70618c0.18116,0.01539 0.27527,0.09259 0.26973,0.30605c-0.21346,-0.00554 -0.26405,-0.11366 -0.26973,-0.30605z" fill="#4a5354"/><g><path d="M186.08694,124.92284c-0.19807,-0.18671 -0.17146,-0.38894 -0.10132,-0.62208c0.1375,-0.35955 0.33821,-0.68542 0.49678,-1.03374c-0.02952,-0.09689 -0.05905,-0.19378 -0.0998,-0.2696c-0.78979,-1.66526 -0.78756,-3.39537 -0.49605,-5.1607c0.06307,-0.37216 0.10507,-0.75556 0.28471,-1.09265c0.03368,-0.06321 0.05752,-0.15871 0.03784,-0.2233c-0.10825,-0.35526 0.03771,-0.62915 0.17382,-0.93533c0.11366,-0.26405 0.26946,-0.50564 0.40419,-0.75847c0.07859,-0.14748 0.19932,-0.27251 0.38187,-0.31048c0.18255,-0.03798 0.33558,-0.17284 0.47737,-0.28664c0.74544,-0.73892 1.60468,-1.33605 2.55666,-1.8026c0.54058,-0.25296 1.09945,-0.38796 1.67939,-0.51174c1.70753,-0.36148 3.38013,-0.20055 5.01072,0.34378c0.73033,0.25394 1.42559,0.62444 2.07594,1.07922c0.49303,0.34389 0.86533,0.81281 1.20534,1.29157c1.08184,1.52332 1.53882,3.25469 1.52259,5.11261c0.00152,0.35248 -0.08261,0.71342 -0.16675,1.07436c-0.04907,0.24437 -0.06584,0.4789 0.07748,0.71758c0.13348,0.20639 0.11671,0.44092 0.04657,0.67406c-0.1375,0.35955 -0.31714,0.69665 -0.49678,1.03374c-0.05614,0.10534 -0.14318,0.16716 -0.23023,0.22898c-0.3468,0.19391 -0.57842,0.47626 -0.77913,0.80213c-0.4028,0.7051 -0.99383,1.25579 -1.5638,1.81771c-0.219,0.20791 -0.45908,0.4046 -0.73006,0.55776c-0.8677,0.51146 -1.73401,0.96956 -2.72257,1.2002c-0.16841,0.31603 -0.36912,0.6419 -0.54876,0.979c-0.06736,0.12641 -0.14596,0.27389 -0.31728,0.2908c-0.15025,0.02814 -0.19655,0.16577 -0.26391,0.29219c-0.47017,0.83151 -0.91927,1.67426 -1.38943,2.50577c-1.02031,1.86387 -2.05185,3.74881 -3.1143,5.59023c-1.03999,1.79928 -2.01678,3.63224 -3.01464,5.45398c-0.15718,0.29496 -0.34528,0.5464 -0.50246,0.84135c-0.76347,1.43266 -1.52694,2.86532 -2.31147,4.28675c-0.13473,0.25282 -0.22732,0.5281 -0.47723,0.69249c-0.08705,0.06182 -0.12212,0.17839 -0.17826,0.28373c-0.56137,1.05343 -1.15504,2.11669 -1.71642,3.17012c-0.02246,0.04214 -0.05614,0.10534 -0.07859,0.14748c-0.15857,0.34832 -0.39587,0.43828 -0.76942,0.42858c-1.24845,-0.04311 -2.34818,-0.46685 -3.29917,-1.2712c-0.24021,-0.20916 -0.45796,-0.46046 -0.63219,-0.74267c-0.13348,-0.20639 -0.12793,-0.41985 -0.03673,-0.64176c0.27362,-0.66574 0.52617,-1.34271 0.81101,-2.02951c0.20487,-0.48596 0.4631,-0.97054 0.60476,-1.49018c0.30716,-1.13479 0.87838,-2.15592 1.24875,-3.25703c0.21887,-0.61376 0.38437,-1.22891 0.62431,-1.83144c0.26239,-0.64467 0.47142,-1.29073 0.70151,-1.92556c0.42512,-1.15309 0.9036,-2.30479 1.30766,-3.4691c0.49942,-1.54632 1.08311,-3.04773 1.6668,-4.54914c0.19503,-0.51826 0.39005,-1.03652 0.58508,-1.55478c0.31991,-0.80338 0.65106,-1.62782 0.97097,-2.4312c0.18241,-0.44383 0.31146,-0.88904 0.49387,-1.33286c0.17257,-0.47612 0.38589,-0.87642 0.59076,-1.36239zM186.77084,124.90857c0.18546,0.26114 0.39337,0.48015 0.65603,0.64717c0.44673,0.48153 0.99313,0.82681 1.53953,1.17209c0.68265,0.44494 1.43127,0.81683 2.15883,1.1775c0.8329,0.4168 1.71487,0.58924 2.62913,0.75183c0.10673,0.00277 0.21346,0.00554 0.37355,0.00971c0.08982,-0.16855 0.17964,-0.3371 0.26946,-0.50564c0.02246,-0.04214 0.02384,-0.0955 0.03646,-0.16994c-0.14748,-0.07859 -0.30619,-0.13611 -0.47612,-0.17257c-0.28651,-0.07152 -0.52949,-0.17396 -0.81599,-0.24548c-0.69942,-0.21041 -1.31886,-0.62167 -1.9846,-0.89529c-0.34832,-0.15857 -0.7191,-0.27501 -1.04497,-0.47571c-0.70372,-0.45617 -1.46357,-0.80699 -2.12238,-1.34743c-0.16716,-0.14318 -0.35539,-0.2976 -0.52255,-0.44078c-0.01691,-0.17132 -0.20791,-0.21901 -0.2908,-0.31728c-0.09273,-0.13057 -0.18545,-0.26114 -0.42844,-0.36357c0.00152,0.35248 -0.20764,0.59269 -0.2581,0.89042c0.09412,0.0772 0.11102,0.24853 0.28096,0.28498zM187.23184,126.074c-0.38353,-0.44785 -0.49871,-0.53628 -0.79506,-0.6401c-0.11366,0.26405 -0.21609,0.50703 -0.32976,0.77108c-0.07859,0.14748 -0.05046,0.29773 0.04227,0.4283c0.06182,0.08705 0.16716,0.14318 0.22898,0.23023c0.23744,0.31589 0.56192,0.56997 0.91024,0.72854c0.09134,0.18394 0.25989,0.27375 0.42844,0.36357c0.93686,0.52631 1.84142,1.06245 2.83441,1.48341c0.44383,0.18241 0.89888,0.34376 1.34409,0.4728c0.36094,0.08414 0.74294,0.1795 1.1305,0.06141c0.14596,-0.27389 0.29191,-0.54778 0.43787,-0.82167c-0.191,-0.04768 -0.36094,-0.08414 -0.50981,-0.10937c-0.67974,-0.14582 -1.33702,-0.33378 -1.94939,-0.60601c-0.79215,-0.34098 -1.52816,-0.78731 -2.2754,-1.21257c-0.35817,-0.19087 -0.62789,-0.49692 -0.99729,-0.66672c-0.11102,-0.24853 -0.31048,-0.38187 -0.5001,-0.48292zM177.34817,150.91549c0.2276,0.2836 0.51133,0.46185 0.81751,0.59796c0.00984,0.0323 0.04075,0.07582 0.06182,0.08705c0.51687,0.24839 1.0562,0.45464 1.62075,0.51203c0.33003,0.04062 0.64883,0.1023 0.98301,-0.01718c0.62874,-1.17984 1.25748,-2.35968 1.9199,-3.60272c-0.62915,-0.03771 -1.19093,-0.20182 -1.74148,-0.38701c-0.48735,-0.1515 -0.87504,-0.43926 -1.33993,-0.6329c-0.16855,-0.08982 -0.3048,-0.18948 -0.47335,-0.2793c-0.19669,-0.24007 -0.43689,-0.44924 -0.74169,-0.63872c-0.33682,0.63206 -0.48265,1.31179 -0.75488,1.92417c-0.26239,0.64467 -0.50371,1.30057 -0.75488,1.92417c0.11102,0.24853 0.25712,0.38049 0.40321,0.51244zM179.07818,146.40002c0.09134,0.18394 0.24866,0.29482 0.41721,0.38464c0.12364,0.17409 0.32449,0.25407 0.50287,0.37619c0.57869,0.33544 1.21352,0.56553 1.84973,0.74226c0.38201,0.09536 0.78647,0.14859 1.1937,0.09509c0.04491,-0.08428 0.11089,-0.15732 0.1558,-0.2416c0.55015,-1.03236 1.08906,-2.04365 1.66028,-3.06478c0.6049,-1.08434 1.19857,-2.14761 1.80346,-3.23194c0.87436,-1.58998 1.75855,-3.14766 2.63291,-4.73764c0.99647,-1.76837 1.91851,-3.54936 2.95712,-5.29527c0.17825,-0.28373 0.3256,-0.61099 0.49401,-0.92702c-0.27666,-0.03923 -0.55471,-0.02509 -0.80892,-0.10646c-0.83845,-0.20335 -1.6306,-0.54433 -2.40029,-0.92745c-0.67419,-0.35928 -1.33716,-0.73963 -2.00012,-1.11998c-0.25144,-0.18809 -0.49303,-0.34389 -0.74447,-0.53199c-0.10118,-0.21623 -0.31325,-0.27514 -0.45935,-0.4071c-0.16716,-0.14318 -0.2908,-0.31728 -0.51271,-0.40849c-0.15441,0.18823 -0.20209,0.37923 -0.25962,0.53794c-0.43067,1.36655 -1.04111,2.66434 -1.53498,3.99721c-0.3213,0.85674 -0.6426,1.71348 -0.94284,2.58145c-0.42512,1.15309 -0.81794,2.29634 -1.23184,3.42835c-0.33392,0.93117 -0.66783,1.86235 -1.02281,2.7823c-0.3676,0.99438 -0.74504,1.95647 -1.1337,2.93962c-0.34376,0.89888 -0.69874,1.81882 -1.03266,2.75c0.17839,0.12212 0.23744,0.31589 0.41721,0.38464zM201.15988,121.91816c-0.56455,-0.05739 -1.0519,-0.20889 -1.55048,-0.33932c-0.51965,-0.14166 -1.02945,-0.25103 -1.53787,-0.41376c-0.48735,-0.1515 -0.97331,-0.35637 -1.44943,-0.52894c-0.49719,-0.1838 -0.99438,-0.3676 -1.50141,-0.58369c-0.46489,-0.19364 -0.93963,-0.41958 -1.40452,-0.61322c-0.47473,-0.22593 -0.90456,-0.53614 -1.4242,-0.67781c-0.37507,-0.36219 -0.8835,-0.52492 -1.31471,-0.78176c-0.44105,-0.28914 -0.92563,-0.54738 -1.36668,-0.83652c-0.41999,-0.27791 -0.84981,-0.58813 -1.25857,-0.88711c-0.42983,-0.31021 -0.79367,-0.69347 -1.25718,-0.94047c-0.3116,0.48319 -0.39019,0.63067 -0.42374,1.09972c0.19669,0.24007 0.39337,0.48014 0.65465,0.70053c0.32448,0.25407 0.64897,0.50815 0.98329,0.79452c0.63774,0.52921 1.26563,1.02613 2.00303,1.41909c0.50564,0.26946 1.02252,0.51785 1.48325,0.87159c0.09412,0.0772 0.22053,0.14457 0.36939,0.1698c0.28651,0.07152 0.54917,0.23855 0.80199,0.37328c0.92702,0.49401 1.9214,0.86161 2.90593,1.19691c1.29073,0.47142 2.61791,0.7729 3.97877,1.01118c0.26544,0.0603 0.53087,0.12059 0.80047,0.0208c0.21055,-0.29357 0.35789,-0.62083 0.50801,-1.05481zM193.98426,114.87511c-0.31451,0.18407 -0.54474,0.41305 -0.79604,0.63081c-0.22884,0.17562 -0.38464,0.41721 -0.4351,0.71495c-0.13182,0.55194 -0.33807,1.09127 -0.6286,1.58568c-0.02246,0.04214 -0.03507,0.11657 -0.0463,0.13764c0.07166,0.11934 0.15593,0.16425 0.29496,0.15718c0.0323,-0.00984 0.07582,-0.04075 0.08705,-0.06182c0.3888,-0.5773 0.81974,-1.13215 1.29282,-1.66455c0.06598,-0.07305 0.15441,-0.18823 0.15718,-0.29496c0.09536,-0.38201 0.19073,-0.76401 0.07403,-1.20493zM191.0248,117.38281c0.36635,-0.53517 0.7636,-1.02681 1.1707,-1.48616c0.13196,-0.14609 0.18948,-0.3048 0.21609,-0.50703c0.02939,-0.30896 -0.00582,-0.59824 -0.02979,-0.90858c0.00277,-0.10673 0.01677,-0.23453 -0.13209,-0.25975c-0.29621,0.30203 -0.60226,0.57176 -0.85633,0.89624c-0.11339,1.07575 -0.11339,1.07575 -0.63124,2.09826c0.02952,0.09689 0.10257,0.16287 0.26266,0.16703zM195.09614,122.23055c-0.28637,0.33432 -0.55167,0.67987 -0.81697,1.02543c-0.06598,0.07305 -0.13196,0.14609 -0.1558,0.24159c-0.03216,0.41569 -0.08539,0.82015 0.02148,1.22877c0.38755,-0.11809 0.61917,-0.40044 0.90276,-0.62803c0.1418,-0.1138 0.1881,-0.25144 0.20348,-0.4326c0.01109,-0.42692 0.06432,-0.83138 0.14984,-1.24568c0.01123,-0.02107 -0.01968,-0.06459 -0.03936,-0.12918c-0.07443,-0.01261 -0.16993,-0.03645 -0.26544,-0.0603zM198.23165,117.0574c-0.45353,0.19114 -0.74835,0.4398 -1.06425,0.67724c-0.1095,0.10396 -0.14457,0.22053 -0.17964,0.3371c-0.14305,0.57301 -0.3493,1.11234 -0.65106,1.62782c-0.03368,0.06321 -0.0463,0.13764 -0.07998,0.20084c0.22053,0.14457 0.27389,0.14596 0.36371,-0.02259c0.29191,-0.54778 0.67794,-1.01836 1.14686,-1.39066c0.2836,-0.2276 0.39726,-0.49165 0.43787,-0.82167c-0.00568,-0.19239 -0.00152,-0.35248 0.02648,-0.60808zM193.49966,118.72872c0.10534,0.05614 0.17132,-0.01691 0.21623,-0.10118c0.31437,-0.58992 0.78606,-1.06895 1.25775,-1.54798c0.37342,-0.39614 0.54737,-0.92563 0.47835,-1.55755c-0.24853,0.11102 -0.38187,0.31048 -0.58826,0.44396c-0.42401,0.28803 -0.63733,0.68833 -0.77761,1.15461c-0.16273,0.50842 -0.30439,1.02806 -0.59353,1.46912c-0.01261,0.07443 -0.00277,0.10673 0.00707,0.13902zM196.74562,116.29254c-0.26114,0.18546 -0.4563,0.29787 -0.6304,0.4215c-0.29344,0.1953 -0.44923,0.4369 -0.52214,0.77676c-0.08691,0.46767 -0.26932,0.91149 -0.4728,1.34409c-0.05752,0.15871 -0.14734,0.32726 -0.22593,0.47473c0.09412,0.0772 0.14887,0.02523 0.17132,-0.01691c0.43094,-0.55485 0.88295,-1.09847 1.408,-1.57612c0.0772,-0.09412 0.14318,-0.16716 0.17825,-0.28373c0.05184,-0.3511 0.12475,-0.69096 0.09371,-1.14034zM196.53573,122.7272c-0.12905,0.44521 -0.39435,0.79076 -0.63858,1.14754c-0.05614,0.10534 -0.16425,0.15593 -0.17825,0.28373c-0.02661,0.20223 0.04657,0.67406 0.17728,0.98717c0.25975,-0.13209 0.43662,-0.36246 0.6444,-0.5493c0.16425,-0.15594 0.233,-0.33571 0.21748,-0.5604c-0.01136,-0.38478 0.01941,-0.7471 0.13584,-1.11788c0.01123,-0.02107 -0.00845,-0.08566 -0.01829,-0.11796c-0.07305,-0.06598 -0.15732,-0.11089 -0.33987,-0.07291zM188.58928,120.27793c-0.03077,0.36232 -0.24271,0.70926 -0.19905,1.0842c0.15871,0.05752 0.27805,-0.01414 0.40723,-0.0535c0.2373,-0.08996 0.47322,-0.12655 0.70206,-0.30216c0.07568,-0.4466 0.34237,-0.84551 0.45035,-1.30195c-0.07166,-0.11934 -0.177,-0.17548 -0.3048,-0.18948c-0.31728,0.2908 -0.66547,0.53808 -1.05579,0.7629zM192.48793,121.0841c-0.15441,0.18823 -0.30882,0.37646 -0.49276,0.4678c-0.44369,0.22344 -0.61349,0.59283 -0.63581,1.04081c-0.00416,0.16009 -0.07152,0.28651 -0.01248,0.48028c0.32296,-0.09841 0.59394,-0.25157 0.86492,-0.40473c0.07582,-0.04075 0.12073,-0.12503 0.1558,-0.2416c0.08414,-0.36094 0.17811,-0.68958 0.26225,-1.05052c0.03368,-0.06321 0.03645,-0.16993 -0.14193,-0.29205zM191.16062,120.37677c-0.33128,0.4186 -0.68224,0.7726 -1.13577,0.96374c-0.09689,0.02952 -0.12073,0.12502 -0.16564,0.2093c-0.07998,0.20084 -0.13889,0.41292 -0.11352,0.6699c0.45214,-0.13778 0.79894,-0.33169 1.15697,-0.54667c0.11934,-0.07166 0.19655,-0.16578 0.24284,-0.30342c0.08137,-0.25421 0.1838,-0.49719 0.26516,-0.7514c0.01123,-0.02107 -0.00845,-0.08566 -0.0183,-0.11796c-0.06321,-0.03368 -0.12641,-0.06736 -0.23175,-0.1235zM199.28271,118.94304c0.028,-0.2556 0.06723,-0.53226 0.09523,-0.78785c-0.00984,-0.0323 -0.01968,-0.06459 -0.03936,-0.12919c-0.3328,0.06612 -0.59394,0.25157 -0.80172,0.43842c-0.20057,0.73172 -0.37869,1.4213 -0.76042,2.13763c0.4746,-0.17991 0.50676,-0.5956 0.71592,-0.83581c0.24285,-0.30341 0.5166,-0.56331 0.79036,-0.8232zM193.95876,114.21228c-0.07596,-0.3651 -0.10977,-0.70774 -0.32614,-1.0124c-0.16287,0.10257 -0.32435,0.15177 -0.45492,0.2445c-0.13057,0.09273 -0.28221,0.17423 -0.3608,0.32171c-0.03784,0.2233 0.04227,0.4283 0.06902,0.63192c0.02675,0.20362 0.00014,0.40585 0.11255,0.60101c0.32712,-0.25851 0.62195,-0.50716 0.96029,-0.78674zM189.65396,116.70639c0.4211,-0.58715 0.76499,-1.08018 1.10888,-1.57321c0.02246,-0.04214 0.07721,-0.09411 0.05752,-0.15871c-0.02398,-0.31035 0.01664,-0.64038 -0.17866,-0.93381c-0.24146,0.25005 -0.47169,0.47903 -0.68085,0.71924c0.01566,0.63053 -0.11755,1.23584 -0.30689,1.94649zM192.72619,123.83508c0.26821,-0.04643 0.42262,-0.23466 0.59672,-0.3583c0.20639,-0.13348 0.34957,-0.30064 0.3888,-0.5773c0.06307,-0.37216 0.12614,-0.74433 0.34792,-1.05897c-0.12503,-0.12073 -0.22053,-0.14457 -0.28789,-0.01816c-0.18948,0.3048 -0.39019,0.63067 -0.66256,0.83719c-0.38187,0.31048 -0.38173,0.71633 -0.38298,1.17554zM190.88741,122.26005c-0.46476,0.21221 -0.84247,0.3626 -1.19911,0.52421c-0.07859,0.14748 -0.0603,0.26544 -0.06307,0.37216c0.01829,0.11796 -0.00693,0.26682 0.11809,0.38755c0.32157,-0.04505 0.64454,-0.14346 0.95766,-0.27416c0.08275,-0.30757 0.1332,-0.60531 0.18643,-1.00977zM193.64502,125.05512c-0.0212,-0.41708 -0.0438,-0.78079 -0.05516,-1.16557c-0.29344,0.1953 -0.57565,0.36953 -0.85786,0.54376c0.00152,0.35248 -0.02786,0.66144 0.12391,0.98579c0.29066,-0.08857 0.52935,-0.23189 0.7891,-0.36398zM195.32932,114.077c-0.32019,-0.00832 -0.52935,0.23189 -0.76804,0.37521c-0.07582,0.04075 -0.11089,0.15732 -0.10243,0.24298c0.01414,0.27805 0.01843,0.5238 0.0438,0.78079c-0.01123,0.02107 0.03091,0.04352 0.07304,0.06598c0.30466,-0.21637 0.59949,-0.46503 0.90415,-0.6814c0.00693,-0.26682 -0.0718,-0.52519 -0.15053,-0.78356zM198.20476,116.44793c0.03923,-0.27666 0.06723,-0.53226 -0.08593,-0.80324c-0.26959,0.0998 -0.58133,0.17714 -0.8214,0.37383c-0.01539,0.18116 -0.07291,0.33987 -0.056,0.51119c-0.00416,0.16009 -0.11505,0.31742 0.04089,0.48167c0.31451,-0.18407 0.62901,-0.36814 0.92245,-0.56344zM194.29108,125.26415c-0.01677,0.23453 0.1167,0.44092 0.23896,0.66838c0.30328,-0.163 0.61501,-0.24035 0.85647,-0.49039c-0.07873,-0.25837 -0.06057,-0.54626 -0.2025,-0.83831c-0.30466,0.21637 -0.58826,0.44396 -0.89292,0.66033zM198.02162,123.0862c-0.22316,0.36801 -0.37328,0.80199 -0.63858,1.14754c-0.21055,0.29357 -0.15289,0.54071 0.01011,0.84399c0.27098,-0.15316 0.43662,-0.36246 0.63456,-0.5816c-0.09425,-0.48305 0.01373,-0.93949 -0.00609,-1.40993zM188.6313,115.78269c0.0955,0.02384 0.12918,-0.03936 0.16287,-0.10257c0.16702,-0.26266 0.32421,-0.55762 0.5123,-0.80906c0.29759,-0.35539 0.19919,-0.67835 0.0488,-1.05606c-0.12073,0.12503 -0.21901,0.20791 -0.29621,0.30203c-0.19793,0.21914 -0.34251,0.43967 -0.27639,0.77247c0.02675,0.20362 -0.03216,0.41569 -0.07984,0.60669c-0.06598,0.07305 -0.16425,0.15594 -0.07152,0.28651zM187.35067,120.26711c0.15025,-0.02814 0.25837,-0.07873 0.35525,-0.10825c0.3005,-0.05627 0.46476,-0.21221 0.55735,-0.48749c0.07014,-0.23314 0.21471,-0.45367 0.30592,-0.67558c0.03368,-0.06321 0.08843,-0.11518 -0.04782,-0.21484c-0.26253,0.23882 -0.56719,0.45519 -0.90276,0.62803c-0.07582,0.04075 -0.13196,0.14609 -0.17687,0.23037c-0.04768,0.191 -0.08414,0.36094 -0.09107,0.62776zM192.17438,124.10911c0.028,-0.2556 0.0883,-0.52103 0.04187,-0.78924c-0.33419,0.11948 -0.66699,0.18559 -0.96043,0.38089c0.01414,0.27805 -0.03493,0.52242 0.12946,0.77233c0.26959,-0.0998 0.54903,-0.1673 0.7891,-0.36398zM195.9367,116.18609c0.33419,-0.11948 0.59533,-0.30494 0.81433,-0.51285c-0.01414,-0.27805 -0.01843,-0.5238 -0.107,-0.81447c-0.23591,0.03659 -0.43107,0.149 -0.6164,0.29371c-0.01955,0.34126 -0.06016,0.67129 -0.09093,1.03361zM189.78282,124.07901c0.04782,0.21485 0.05489,0.35387 0.11532,0.49428c0.02952,0.09689 0.07027,0.17271 0.11102,0.24853c0.26682,0.00693 0.53503,-0.0395 0.77372,-0.18282c0.00693,-0.26682 0.01387,-0.53365 -0.11823,-0.7934c-0.29066,0.08857 -0.55887,0.135 -0.88183,0.23341zM187.6631,118.10716c-0.36648,0.12932 -0.62485,0.20805 -0.92674,0.31769c-0.06598,0.07305 -0.1235,0.23176 -0.12766,0.39185c-0.02523,0.14887 -0.14596,0.27389 -0.07568,0.4466c0.2233,0.03784 0.40585,-0.00014 0.58978,-0.09148c0.15857,-0.34832 0.32698,-0.66435 0.5403,-1.06465zM194.1086,112.9666c0.0492,0.16148 0.09841,0.32296 0.14761,0.48444c0.0492,0.16148 0.10964,0.30189 0.15884,0.46337c0.27098,-0.15316 0.50828,-0.24312 0.67392,-0.45242c0.00416,-0.16009 -0.0998,-0.26959 -0.17146,-0.38894c-0.07166,-0.11934 -0.10964,-0.30189 -0.26835,-0.35941c-0.205,0.08011 -0.38755,0.11809 -0.54058,0.25296zM192.30688,125.5864c-0.05627,-0.3005 -0.02689,-0.60947 -0.18989,-0.91274c-0.2373,0.08996 -0.45353,0.19114 -0.69083,0.2811c0.05627,0.3005 0.08164,0.55749 0.27832,0.79756c0.20362,-0.02675 0.38478,-0.01136 0.6024,-0.16591zM191.31589,114.39994c0.3285,-0.31187 0.61349,-0.59283 0.89847,-0.87379c-0.01691,-0.17132 -0.01275,-0.33141 -0.13778,-0.45214c-0.35526,0.10825 -0.61778,0.34707 -0.90138,0.57467c0.01691,0.17132 0.03382,0.34264 0.08302,0.50412c-0.02384,0.0955 0.00707,0.13902 0.05766,0.24714zM189.14051,122.49235c-0.00291,-0.29912 0.13182,-0.55194 0.05309,-0.81031c-0.34403,0.08718 -0.65576,0.16453 -0.95904,0.32753c0.06889,0.22607 -0.04339,0.43676 0.09993,0.67545c0.26682,0.00693 0.49428,-0.11532 0.80602,-0.19266zM199.45071,117.40947c0.00832,-0.32019 0.02648,-0.60808 -0.08455,-0.8566c-0.21485,0.04782 -0.41985,0.12793 -0.59394,0.25157c-0.00832,0.32019 -0.03771,0.62915 -0.06848,0.99147c0.24991,-0.16439 0.46614,-0.26557 0.74697,-0.38644zM187.20901,120.78675c-0.06168,0.3188 -0.12198,0.58424 -0.00112,0.86506c0.22469,-0.01552 0.41708,-0.0212 0.59117,-0.14484c0.05046,-0.29773 0.12198,-0.58424 0.17382,-0.93533c-0.26821,0.04643 -0.51535,0.10409 -0.76388,0.21512zM197.30145,115.45258c0.28221,-0.17423 0.58133,-0.17714 0.74697,-0.38644c-0.01414,-0.27805 -0.11532,-0.49428 -0.2488,-0.70067c-0.24714,0.05766 -0.48305,0.09425 -0.66976,0.29232c0.05766,0.24714 0.09425,0.48306 0.17159,0.79479zM194.01191,126.14334c-0.06889,-0.22607 -0.09564,-0.42969 -0.24035,-0.61501c-0.27098,0.15316 -0.58133,0.17714 -0.81156,0.40612c0.04782,0.21485 0.12932,0.36648 0.30771,0.4886c0.25837,-0.07873 0.5069,-0.18975 0.7442,-0.27971zM190.54884,113.50424c-0.03659,-0.23591 -0.09703,-0.37633 -0.21082,-0.51812c-0.2373,0.08996 -0.47598,0.23328 -0.61071,0.4861c0.05905,0.19378 0.11809,0.38755 0.16591,0.6024c0.29205,-0.14193 0.44785,-0.38353 0.65562,-0.57037zM198.4409,125.44672c-0.07027,-0.17271 -0.13071,-0.31312 -0.24589,-0.40155c-0.23868,0.14332 -0.43523,0.3091 -0.60088,0.5184c0.03798,0.18255 0.09841,0.32296 0.22344,0.44369c0.25975,-0.13209 0.41556,-0.37369 0.62333,-0.56053zM190.26351,125.30903c-0.00832,0.32019 0.149,0.43108 0.34985,0.51106c0.14748,0.07859 0.31742,0.11505 0.47044,-0.01982c-0.03659,-0.23591 -0.08441,-0.45075 -0.21789,-0.65714c-0.21485,0.04782 -0.40862,0.10686 -0.6024,0.16591zM200.2617,119.4918c0.03784,-0.2233 0.12766,-0.39185 0.03632,-0.57578c-0.61224,0.13362 -0.72022,0.59006 -0.74531,1.14477c0.24007,-0.19669 0.46892,-0.3723 0.70899,-0.56899zM188.56237,123.7803c0.23453,0.01677 0.41708,-0.02121 0.64454,-0.14346c-0.09134,-0.18394 -0.00014,-0.40585 -0.12377,-0.57994c-0.13764,-0.0463 -0.22469,0.01552 -0.34264,0.03382c-0.12918,0.03936 -0.25698,0.02536 -0.33557,0.17284c0.01691,0.17132 0.03382,0.34264 0.15746,0.51674zM194.02914,118.90268c0.16439,0.24991 0.31325,0.27514 0.43537,0.09675c0.16702,-0.26266 0.29191,-0.54778 0.40557,-0.81183c0.04491,-0.08428 0.07998,-0.20084 -0.02398,-0.31035c-0.30744,0.3231 -0.57274,0.66865 -0.81697,1.02543zM195.19036,126.82545c-0.02523,0.14887 0.02537,0.25698 0.14055,0.34542c0.31173,-0.07734 0.65437,-0.11116 0.93797,-0.33876c-0.18546,-0.26114 -0.39753,-0.32005 -0.65728,-0.18796c-0.12918,0.03936 -0.28928,0.0352 -0.42124,0.1813zM196.9646,120.19647c0.29496,0.15718 0.38062,0.14873 0.48167,-0.04089c0.13611,-0.30619 0.28346,-0.63344 0.3353,-0.98454c-0.37064,0.28942 -0.70899,0.56899 -0.81697,1.02543zM198.96984,123.99729c-0.11089,0.15732 -0.18948,0.3048 -0.28914,0.44105c-0.17825,0.28373 -0.17825,0.28373 0.14484,0.59117c0.12073,-0.12503 0.27376,-0.25989 0.33974,-0.33294c-0.07873,-0.25837 -0.12655,-0.47321 -0.19544,-0.69929zM197.21788,113.32506c-0.18255,0.03798 -0.39462,-0.02093 -0.51812,0.21082c0.07027,0.17271 0.17284,0.33557 0.25296,0.54058c0.21485,-0.04782 0.43953,-0.06334 0.59255,-0.19821c-0.09134,-0.18394 -0.15039,-0.37771 -0.32739,-0.55319zM196.79769,124.97683c-0.2513,0.21775 -0.52367,0.42428 -0.77497,0.64203c-0.014,0.1278 0.0043,0.24575 0.15316,0.27098c0.29066,-0.08857 0.56165,-0.24173 0.77081,-0.48194c-0.01691,-0.17132 -0.05627,-0.30051 -0.149,-0.43108zM199.8944,117.18604c0.15871,0.05752 0.30896,0.02939 0.4606,-0.05211c0.00277,-0.10673 0.00554,-0.21346 0.00832,-0.32019c-0.00707,-0.13902 0.00693,-0.26682 -0.09703,-0.37633c-0.12641,-0.06736 -0.25421,-0.08137 -0.39462,-0.02093c0.0043,0.24575 0.01843,0.5238 0.02273,0.76956zM195.96845,114.55285c0.21485,-0.04782 0.37771,-0.15039 0.53074,-0.28525c-0.10118,-0.21623 -0.1813,-0.42123 -0.27264,-0.60517c-0.20223,-0.02661 -0.35387,0.05489 -0.4423,0.17007c0.05766,0.24714 0.11532,0.49428 0.18421,0.72035zM200.38909,118.28826c0.00416,-0.16009 0.00832,-0.32019 -0.00859,-0.49151c-0.00984,-0.0323 -0.05198,-0.05475 -0.08289,-0.09828c-0.11796,0.01829 -0.26682,-0.00693 -0.41985,0.12794c-0.02661,0.20223 -0.09675,0.43537 -0.03909,0.68251c0.22469,-0.01552 0.37633,-0.09703 0.55042,-0.22066zM200.54016,120.69521c0.14457,-0.22053 0.39878,-0.13916 0.51105,-0.34985c0.00554,-0.21346 0.08552,-0.4143 0.0068,-0.67267c-0.20362,0.02675 -0.38617,0.06473 -0.42401,0.28803c-0.03784,0.2233 -0.15996,0.40169 -0.09384,0.73449zM196.88389,126.59176c0.16287,-0.10257 0.3468,-0.19391 0.49844,-0.27541c0.0323,-0.00984 0.03368,-0.06321 0.05614,-0.10534c-0.08289,-0.09827 -0.13209,-0.25975 -0.35539,-0.29759c-0.19516,0.11241 -0.40155,0.24589 -0.62901,0.36814c0.10257,0.16287 0.21775,0.2513 0.42983,0.31021zM195.92022,113.12047c-0.05905,-0.19378 -0.10686,-0.40862 -0.15607,-0.5701c-0.2233,-0.03784 -0.40585,0.00014 -0.56733,0.04934c-0.05752,0.15871 0.07873,0.25837 0.12932,0.36648c0.05059,0.10811 0.08996,0.2373 0.24866,0.29482c0.10673,0.00277 0.22468,-0.01552 0.34541,-0.14055zM187.18419,122.15316c0.02675,0.20362 0.05489,0.35387 0.08302,0.50412c-0.00139,0.05337 0.05059,0.10811 0.06043,0.14041c0.14748,0.07859 0.29773,0.05046 0.44937,-0.03105c-0.01552,-0.22469 -0.00998,-0.43814 -0.07887,-0.66422c-0.16009,-0.00416 -0.31034,0.02398 -0.51396,0.05073zM199.54992,124.27936c0.23023,-0.22898 0.46046,-0.45796 0.55444,-0.7866c-0.2233,-0.03784 -0.40307,-0.1066 -0.59824,0.00582c-0.08552,0.4143 -0.08552,0.4143 0.0438,0.78079zM188.76335,124.26613c0.14484,0.59117 0.16591,0.6024 0.65742,0.59381c-0.04782,-0.21485 -0.12793,-0.41985 -0.17575,-0.63469c-0.15871,-0.05752 -0.30896,-0.02939 -0.48167,0.04089zM199.29576,115.97431c-0.01552,-0.22469 -0.0535,-0.40723 -0.17714,-0.58133c-0.05337,-0.00139 -0.13902,0.00707 -0.22468,0.01552c-0.06459,0.01968 -0.14041,0.06044 -0.205,0.08012c0.01552,0.22469 -0.00125,0.45921 0.11116,0.65437c0.16009,0.00416 0.3328,-0.06612 0.49567,-0.16869zM186.44776,120.48929c0.08566,-0.00845 0.20361,-0.02675 0.25837,-0.07873c0.18671,-0.19807 0.25685,-0.43121 0.23287,-0.74156c-0.17132,0.01691 -0.36232,-0.03077 -0.49289,0.06196c-0.028,0.2556 -0.13043,0.49858 0.00166,0.75833zM191.87561,112.58818c-0.00984,-0.0323 -0.01968,-0.06459 -0.03936,-0.12918c-0.36371,0.02259 -0.6979,0.14207 -1.03209,0.26155c-0.01539,0.18116 0.03521,0.28928 0.19253,0.40017c0.28221,-0.17423 0.58549,-0.33723 0.87892,-0.53253zM196.21279,118.71377c-0.29482,0.24866 -0.59949,0.46503 -0.76929,0.83442c-0.01123,0.02107 0.05059,0.10811 0.09273,0.13057c0.10534,0.05614 0.23453,0.01677 0.29066,-0.08857c0.20916,-0.24021 0.31298,-0.53655 0.3859,-0.87642zM198.99345,114.86641c-0.03798,-0.18255 -0.07595,-0.3651 -0.17852,-0.52796c-0.14748,-0.07859 -0.27528,-0.09259 -0.45921,-0.00125c0.08011,0.205 0.149,0.43108 0.24035,0.61501c0.14887,0.02523 0.26682,0.00693 0.39739,-0.0858zM191.78613,126.3098c0.28373,0.17825 0.52533,0.33405 0.85674,0.3213c0.03784,-0.2233 -0.06473,-0.38617 -0.19959,-0.53919c-0.23591,0.03659 -0.43953,0.06334 -0.65715,0.21789zM186.2784,117.96439c0.25698,-0.02537 0.28928,-0.0352 0.32296,-0.09841c0.13334,-0.19946 0.12905,-0.44521 0.11352,-0.6699c-0.00845,-0.08566 -0.10257,-0.16287 -0.23314,-0.07014c0.02537,0.25698 -0.20487,0.48596 -0.20334,0.83845zM192.63976,113.18476c0.30328,-0.163 0.6164,-0.29371 0.82833,-0.64065c-0.37355,-0.00971 -0.65576,0.16453 -0.91552,0.29662c-0.03507,0.11657 0.00568,0.19239 0.08718,0.34403zM187.83897,123.25954c-0.13902,0.00707 -0.26682,-0.00693 -0.40585,0.00014c0.0043,0.24575 0.05211,0.4606 0.31755,0.5209c0.07443,0.01261 0.14887,0.02523 0.21484,-0.04782c0.02523,-0.14887 -0.0352,-0.28928 -0.12655,-0.47321zM198.48847,120.73803c0.18962,0.10105 0.29635,0.10382 0.3651,-0.07596c0.05752,-0.15871 0.11505,-0.31742 0.1515,-0.48735c0.01261,-0.07443 0.00416,-0.16009 -0.09135,-0.18394c-0.19793,0.21914 -0.32143,0.45089 -0.42526,0.74724zM190.70697,116.05022c-0.23023,0.22898 -0.41832,0.48042 -0.50108,0.78799c-0.01123,0.02107 0.05059,0.10811 0.07166,0.11934c0.04214,0.02246 0.11796,-0.01829 0.14041,-0.06043c0.12489,-0.28512 0.30175,-0.51549 0.289,-0.8469zM189.31395,116.22763c0.04907,-0.24437 0.17257,-0.47612 0.16966,-0.77524c-0.2513,0.21775 -0.41694,0.42705 -0.4211,0.58715c-0.02523,0.14887 0.05905,0.19378 0.25144,0.18809zM193.9645,127.14604c0.28651,0.07152 0.58146,0.22871 0.86367,0.05448c-0.28942,-0.37064 -0.57162,-0.19641 -0.86367,-0.05448zM195.71294,123.15439c0.04214,0.02246 0.07443,0.01261 0.11657,0.03507c0.09121,-0.22191 0.27653,-0.36662 0.27223,-0.61238c-0.11518,-0.08843 -0.18962,-0.10105 -0.30896,-0.02939c-0.01539,0.18116 -0.042,0.38339 -0.07984,0.60669zM193.33777,117.56038c-0.22039,0.26128 -0.38603,0.47058 -0.49969,0.73463c-0.02246,0.04214 -0.00277,0.10673 0.06043,0.14041c0.02107,0.01123 0.07443,0.01261 0.10673,0.00277c0.23023,-0.22898 0.36496,-0.4818 0.33253,-0.87781zM186.6712,120.93298c-0.14887,-0.02523 -0.23453,-0.01677 -0.22607,0.06889c-0.01539,0.18116 -0.00971,0.37355 -0.00402,0.56594c0.01829,0.11796 0.0815,0.15164 0.18962,0.10105c0.0603,-0.26544 0.09814,-0.48874 0.04048,-0.73588zM198.1126,113.82891c0.11796,-0.01829 0.22469,-0.01552 0.34264,-0.03382c0.0323,-0.00984 0.05475,-0.05198 0.1095,-0.10396c-0.25282,-0.13473 -0.45089,-0.32144 -0.76969,-0.38312c0.08011,0.205 0.14055,0.34542 0.31755,0.5209zM190.40215,119.97258c-0.09121,0.22191 -0.17119,0.42276 -0.28485,0.68681c0.32296,-0.09841 0.48721,-0.25435 0.57842,-0.47626c-0.07166,-0.11934 -0.12364,-0.17409 -0.29357,-0.21055zM197.29835,122.97129c0.00568,0.19239 -0.15996,0.40169 0.00443,0.6516c0.33267,-0.47196 0.3888,-0.57731 0.30592,-0.67558c-0.10534,-0.05614 -0.19101,-0.04768 -0.31035,0.02398zM192.0512,116.92887c-0.42123,0.1813 -0.55596,0.43412 -0.6401,0.79506c0.42969,-0.09564 0.41833,-0.48042 0.6401,-0.79506zM200.13418,120.2895c-0.38894,0.17146 -0.51244,0.40321 -0.60503,0.67849c-0.01123,0.02107 0.01968,0.06459 0.06182,0.08705c0.06321,0.03368 0.1278,0.014 0.15025,-0.02814c0.13334,-0.19946 0.22455,-0.42137 0.39296,-0.7374zM198.47806,123.19418c-0.03784,0.2233 -0.12905,0.44521 0.00305,0.70497c0.17548,-0.177 0.25546,-0.37785 0.32421,-0.55762c-0.09273,-0.13057 -0.18823,-0.15441 -0.32726,-0.14734zM201.0691,119.24578c-0.04643,-0.26821 0.07707,-0.49996 -0.0887,-0.69651c-0.22039,0.26128 -0.22039,0.26128 -0.14582,0.67974c0.05337,0.00139 0.10673,0.00277 0.23453,0.01677zM194.77731,126.28071c0.32864,0.09398 0.57717,-0.01704 0.81585,-0.16036c0.00416,-0.16009 -0.08011,-0.205 -0.177,-0.17548c-0.19516,0.11241 -0.4114,0.21359 -0.63885,0.33585zM199.75774,115.86883c0.13764,0.0463 0.25421,0.08136 0.38478,-0.01137c-0.02814,-0.15025 -0.05627,-0.3005 -0.17146,-0.38894c-0.11657,-0.03507 -0.20223,-0.02661 -0.28928,0.03521c-0.014,0.1278 0.01552,0.22469 0.07595,0.3651zM193.07383,121.96441c0.15303,-0.13487 0.26253,-0.23882 0.28775,-0.38769c0.00139,-0.05337 -0.02952,-0.09689 -0.06043,-0.14041c-0.06321,-0.03368 -0.16993,-0.03646 -0.18255,0.03798c-0.06736,0.12641 -0.14596,0.27389 -0.04477,0.49012zM196.81467,112.81262c-0.15594,-0.16425 -0.38062,-0.14873 -0.57162,-0.19641c0.10687,0.40862 0.149,0.43107 0.57162,0.19641zM188.14534,115.57782c0.25269,-0.27112 0.25269,-0.27112 0.13043,-0.49858c-0.1095,0.10396 -0.23023,0.22898 -0.13043,0.49858zM194.66215,122.08044c-0.05059,-0.10811 -0.1138,-0.1418 -0.15732,-0.11089c-0.19516,0.11241 -0.20777,0.18684 -0.11921,0.47751c0.1418,-0.1138 0.20917,-0.24021 0.27653,-0.36662zM200.92924,120.9296c-0.16148,0.0492 -0.30189,0.10964 -0.33835,0.27957c0.37078,0.11643 0.41431,0.08553 0.33835,-0.27957zM188.09586,114.60465c-0.205,0.08011 -0.31589,0.23744 -0.41555,0.37369c-0.04491,0.08428 -0.01539,0.18116 0.15593,0.16425c0.09966,-0.13625 0.21055,-0.29357 0.25962,-0.53794zM200.92815,117.68282c-0.15441,0.18823 -0.14734,0.32725 -0.00125,0.45921c0,0 0.05336,0.00139 0.06459,-0.01968c0.08843,-0.11518 0.00693,-0.26682 -0.06334,-0.43953zM191.75206,121.04362c0.14887,0.02523 0.23591,-0.03659 0.25975,-0.13209c0.02246,-0.04214 0.00277,-0.10673 -0.02814,-0.15025c-0.03091,-0.04352 -0.11657,-0.03507 -0.13902,0.00707c-0.05475,0.05198 -0.09966,0.13625 -0.09259,0.27528zM199.40346,114.70618c0.00568,0.19239 0.05627,0.3005 0.26973,0.30605c-0.01552,-0.22469 -0.07734,-0.31173 -0.26973,-0.30605z" fill="#000000"/><path d="M187.54717,128.32502c0.66297,0.38035 1.32593,0.7607 2.00012,1.11998c0.75847,0.40419 1.56184,0.7241 2.40029,0.92745c0.26544,0.0603 0.51119,0.056 0.80893,0.10646c-0.17964,0.3371 -0.31576,0.64329 -0.49401,0.92702c-1.02738,1.72485 -1.96065,3.5269 -2.95712,5.29527c-0.89543,1.57875 -1.75855,3.14766 -2.63291,4.73764c-0.6049,1.08434 -1.19857,2.14761 -1.80346,3.23194c-0.57121,1.02113 -1.08906,2.04365 -1.66028,3.06478c-0.04491,0.08428 -0.08982,0.16855 -0.1558,0.24159c-0.41846,0.07457 -0.79063,0.0115 -1.1937,-0.09509c-0.63621,-0.17673 -1.27104,-0.40683 -1.84973,-0.74226c-0.18962,-0.10105 -0.39046,-0.18103 -0.50287,-0.37619c0.21207,0.05891 0.38907,0.23439 0.67697,0.25255c0.03216,-0.41569 0.28623,-0.74017 0.4448,-1.0885c0.01123,-0.02107 0.02246,-0.04213 0.00139,-0.05336c0.13459,-0.65867 0.46019,-1.26966 0.66922,-1.91571c0.07014,-0.23314 0.07707,-0.49996 0.23148,-0.68819c0.26668,-0.39892 0.29039,-0.90026 0.55708,-1.29918c0.01123,-0.02107 0.01261,-0.07443 0.03507,-0.11657c0.15012,-0.43398 0.26794,-0.85813 0.46019,-1.26966c0.247,-0.46351 0.30301,-0.9747 0.59215,-1.41575c0.01955,-0.34126 0.20764,-0.59269 0.34376,-0.89888c0.02246,-0.04214 0.03368,-0.06321 0.05614,-0.10534c0.056,-0.51119 0.37605,-0.90872 0.51633,-1.375c0.14028,-0.46628 0.41819,-0.88627 0.57953,-1.34132c0.19503,-0.51826 0.31562,-1.04913 0.64828,-1.52109c0.02246,-0.04214 0.05614,-0.10534 0.05752,-0.15871c-0.00291,-0.29912 0.19503,-0.51826 0.30869,-0.78231c0.06736,-0.12641 0.16702,-0.26266 0.19225,-0.41153c0.01677,-0.23453 0.12766,-0.39185 0.22871,-0.58147c0.05614,-0.10534 0.13334,-0.19946 0.13612,-0.30618c0.01955,-0.34126 0.21887,-0.61376 0.36483,-0.88765c0.05614,-0.10534 0.13334,-0.19946 0.13611,-0.30619c0.01816,-0.28789 0.16273,-0.50842 0.28623,-0.74017c0.20209,-0.37923 0.25671,-0.83706 0.47987,-1.20507c0.05475,-0.05198 0.02523,-0.14887 0.03784,-0.2233z" fill="#87d7dc"/><path d="M187.54717,128.32502c-0.01261,0.07443 0.01691,0.17132 -0.01678,0.23453c-0.22316,0.36801 -0.29885,0.81461 -0.47987,1.20507c-0.1235,0.23175 -0.26807,0.45228 -0.28623,0.74017c-0.00277,0.10673 -0.07998,0.20084 -0.13612,0.30619c-0.14596,0.27389 -0.32421,0.55762 -0.36482,0.88765c-0.00277,0.10673 -0.10105,0.18962 -0.13612,0.30619c-0.10105,0.18962 -0.19087,0.35817 -0.22871,0.58147c-0.02523,0.14887 -0.12489,0.28512 -0.19225,0.41153c-0.11366,0.26405 -0.3116,0.48319 -0.30869,0.78231c-0.00139,0.05337 -0.03507,0.11657 -0.05752,0.15871c-0.32144,0.4509 -0.45326,1.00283 -0.64828,1.52109c-0.17257,0.47612 -0.45048,0.89611 -0.57953,1.34132c-0.14028,0.46628 -0.46033,0.86381 -0.51633,1.375c0.00984,0.0323 -0.03368,0.06321 -0.05614,0.10534c-0.14596,0.27389 -0.32421,0.55762 -0.34376,0.89888c-0.31021,0.42983 -0.36621,0.94102 -0.59215,1.41575c-0.21332,0.4003 -0.31007,0.83567 -0.46019,1.26966c-0.02246,0.04214 -0.01261,0.07443 -0.03507,0.11657c-0.26668,0.39892 -0.29039,0.90026 -0.55708,1.29918c-0.14457,0.22053 -0.14027,0.46628 -0.23148,0.6882c-0.2301,0.63483 -0.53462,1.25704 -0.66922,1.91571c-0.01123,0.02107 -0.00139,0.05337 -0.00139,0.05337c-0.15857,0.34832 -0.41264,0.67281 -0.4448,1.0885c-0.26682,-0.00693 -0.4326,-0.20348 -0.67697,-0.25255c-0.16855,-0.08982 -0.3371,-0.17964 -0.41721,-0.38464c0.06736,-0.12641 0.16703,-0.26266 0.19225,-0.41153c0.0883,-0.52103 0.34514,-0.95224 0.53878,-1.41714c0.19364,-0.46489 0.28194,-0.98593 0.59215,-1.41575c0.01955,-0.34126 0.20764,-0.59269 0.34376,-0.89888c0.02246,-0.04214 0.05614,-0.10534 0.05752,-0.15871c-0.0043,-0.24575 0.15012,-0.43399 0.23009,-0.63483c0.05614,-0.10534 0.11227,-0.21068 0.13612,-0.30618c0.14166,-0.51965 0.31562,-1.04913 0.57385,-1.53371c0.03368,-0.06321 0.09966,-0.13625 0.07998,-0.20084c0.00693,-0.26682 0.14028,-0.46628 0.25255,-0.67697c0.14457,-0.22053 0.10937,-0.50981 0.26516,-0.7514c0.20071,-0.32587 0.26378,-0.69803 0.40128,-1.05759c0.20487,-0.48596 0.31423,-0.99577 0.57247,-1.48034c0.04491,-0.08428 0.12211,-0.17839 0.11366,-0.26405c0.00554,-0.21346 0.12766,-0.39185 0.20764,-0.59269c0.08982,-0.16855 0.15857,-0.34832 0.19502,-0.51826c0.06168,-0.3188 0.1655,-0.61515 0.32269,-0.91011c0.21471,-0.45367 0.30301,-0.9747 0.61322,-1.40453c0.02246,-0.04214 0.03507,-0.11657 0.05752,-0.15871c0.17257,-0.47612 0.32407,-0.96347 0.53878,-1.41714c0.247,-0.46351 0.32546,-1.01683 0.6146,-1.45789c0.03368,-0.06321 0.02523,-0.14887 0.03784,-0.2233c0.10382,-0.29635 0.23994,-0.60253 0.4491,-0.84274c0.11657,0.03507 0.20084,0.07998 0.29635,0.10382c0.26128,0.22039 0.49165,0.39726 0.75431,0.56428z" fill="#b0eef2"/><path d="M201.15988,121.91816c-0.15012,0.43398 -0.29746,0.76124 -0.55015,1.03236c-0.25837,0.07873 -0.5238,0.01843 -0.80047,-0.02079c-1.34964,-0.25935 -2.68804,-0.53976 -3.97877,-1.01118c-0.97331,-0.35637 -1.96769,-0.72397 -2.90593,-1.19691c-0.25282,-0.13473 -0.51549,-0.30176 -0.80199,-0.37328c-0.11657,-0.03507 -0.24298,-0.10243 -0.36939,-0.1698c-0.46074,-0.35373 -0.98883,-0.58106 -1.48325,-0.87158c-0.7051,-0.4028 -1.3653,-0.88988 -2.00303,-1.41909c-0.31325,-0.27514 -0.63774,-0.52921 -0.98329,-0.79451c-0.2725,-0.19932 -0.45796,-0.46046 -0.65465,-0.70054c0.05461,-0.45783 0.11214,-0.61653 0.42374,-1.09972c0.45228,0.26807 0.82735,0.63026 1.25718,0.94047c0.40876,0.29898 0.83858,0.60919 1.25857,0.88711c0.44105,0.28914 0.9144,0.56844 1.36668,0.83652c0.41999,0.27791 0.9284,0.44064 1.31471,0.78176c0.51965,0.14166 0.94947,0.45187 1.4242,0.67781c0.45367,0.21471 0.93963,0.41957 1.40453,0.61322c0.48596,0.20487 0.98315,0.38867 1.50141,0.58369c0.47612,0.17257 0.96208,0.37744 1.44943,0.52894c0.50842,0.16273 1.01822,0.27209 1.53787,0.41376c0.54071,0.15289 1.02806,0.30439 1.59262,0.36178z" fill="#d1eaeb"/><path d="M186.8027,127.79303c-0.0955,-0.02384 -0.17978,-0.06875 -0.29635,-0.10382c-0.20916,0.24021 -0.35512,0.5141 -0.4491,0.84274c-0.01261,0.07443 -0.00416,0.16009 -0.03784,0.2233c-0.28914,0.44105 -0.38867,0.98316 -0.6146,1.45789c-0.23578,0.44244 -0.36621,0.94102 -0.53878,1.41714c-0.02246,0.04214 -0.03507,0.11657 -0.05752,0.15871c-0.31021,0.42983 -0.36621,0.94102 -0.61322,1.40453c-0.14596,0.27389 -0.26101,0.5913 -0.32269,0.91011c-0.04768,0.191 -0.11643,0.37078 -0.19502,0.51826c-0.10105,0.18962 -0.21194,0.34694 -0.20764,0.59269c0.00845,0.08566 -0.06875,0.17977 -0.11366,0.26405c-0.247,0.46351 -0.3676,0.99438 -0.57247,1.48034c-0.1375,0.35955 -0.20057,0.73172 -0.40128,1.05759c-0.14457,0.22053 -0.10937,0.5098 -0.26516,0.7514c-0.13334,0.19946 -0.27792,0.41999 -0.25255,0.67697c-0.01261,0.07443 -0.0463,0.13764 -0.07998,0.20084c-0.25823,0.48458 -0.42096,0.99299 -0.57385,1.53371c-0.03507,0.11657 -0.11227,0.21068 -0.13611,0.30619c-0.10105,0.18962 -0.23439,0.38908 -0.23009,0.63483c-0.00139,0.05337 -0.03507,0.11657 -0.05752,0.15871c-0.14596,0.27389 -0.32421,0.55762 -0.34376,0.89888c-0.31021,0.42983 -0.39851,0.95086 -0.59215,1.41575c-0.19364,0.46489 -0.46171,0.91718 -0.53878,1.41714c-0.02523,0.14887 -0.12489,0.28512 -0.19225,0.41153c-0.20084,-0.07998 -0.25989,-0.27376 -0.39614,-0.37342c0.36621,-0.94102 0.6889,-1.85112 1.03266,-2.75c0.3676,-0.99438 0.74504,-1.95646 1.1337,-2.93962c0.35499,-0.91995 0.68889,-1.85112 1.02281,-2.7823c0.42512,-1.15309 0.81795,-2.29633 1.23184,-3.42835c0.3213,-0.85674 0.6426,-1.71349 0.94284,-2.58145c0.49387,-1.33286 1.08324,-2.64188 1.53498,-3.9972c0.06875,-0.17977 0.09537,-0.38201 0.25962,-0.53794c0.18962,0.10105 0.34555,0.2653 0.51271,0.40848c0.08289,0.09827 0.29496,0.15718 0.40737,0.35235z" fill="#87d7dc"/><path d="M179.6473,147.51486c0.46489,0.19364 0.86381,0.46033 1.33993,0.6329c0.55056,0.18518 1.11234,0.3493 1.74148,0.38701c-0.65119,1.22197 -1.29116,2.42288 -1.9199,3.60272c-0.35526,0.10825 -0.67406,0.04657 -0.98302,0.01718c-0.58562,-0.06862 -1.09265,-0.28471 -1.62075,-0.51203c-0.02107,-0.01123 -0.05198,-0.05475 -0.06182,-0.08705c0.25698,-0.02537 0.2836,-0.2276 0.33128,-0.4186c0.11921,-0.47751 0.25948,-0.94379 0.5051,-1.35393c0.04491,-0.08428 0.08982,-0.16855 0.11366,-0.26405c0.08691,-0.46767 0.33253,-0.87781 0.48265,-1.3118c0.08137,-0.25421 0.12905,-0.44521 0.07139,-0.69235z" fill="#61afb4"/><path d="M187.97992,124.8225c0.67003,0.51937 1.41866,0.89126 2.12238,1.34743c0.32587,0.20071 0.68542,0.33821 1.04497,0.47571c0.65451,0.29469 1.28518,0.68488 1.9846,0.89529c0.27528,0.09259 0.55056,0.18518 0.81599,0.24548c0.16993,0.03645 0.32864,0.09398 0.47612,0.17257c-0.01261,0.07443 -0.014,0.1278 -0.03646,0.16993c-0.08982,0.16855 -0.17964,0.3371 -0.26946,0.50564c-0.13902,0.00707 -0.24575,0.0043 -0.37355,-0.00971c-0.8932,-0.15137 -1.80746,-0.31396 -2.62913,-0.75183c-0.72756,-0.36067 -1.47618,-0.73256 -2.15883,-1.1775c-0.5464,-0.34528 -1.10402,-0.66949 -1.53953,-1.17209c0.1278,0.014 0.22053,0.14457 0.37216,0.06307c0.16564,-0.2093 0.3748,-0.44951 0.19073,-0.76401z" fill="#61aeb3"/><path d="M187.73333,126.50355c0.38062,0.14873 0.65035,0.45478 0.99729,0.66672c0.74724,0.42526 1.49448,0.85051 2.2754,1.21257c0.63344,0.28346 1.29072,0.47142 1.94939,0.60601c0.16993,0.03645 0.33987,0.07291 0.50981,0.10937c-0.15718,0.29496 -0.29191,0.54778 -0.43787,0.82167c-0.38755,0.11809 -0.75972,0.05502 -1.1305,-0.06141c-0.44521,-0.12905 -0.91149,-0.26932 -1.34409,-0.4728c-0.99299,-0.42096 -1.89755,-0.95711 -2.83441,-1.48341c-0.16855,-0.08982 -0.33709,-0.17964 -0.42844,-0.36358c0.05614,-0.10534 0.13334,-0.19946 0.13611,-0.30619c0.028,-0.2556 0.1838,-0.49719 0.3073,-0.72894z" fill="#61aeb3"/><path d="M179.6473,147.51486c0.04782,0.21485 0.0212,0.41708 -0.07,0.63899c-0.15012,0.43398 -0.39574,0.84413 -0.48265,1.31179c-0.02384,0.0955 -0.06875,0.17977 -0.11366,0.26405c-0.23578,0.44244 -0.36482,0.88765 -0.5051,1.35393c-0.03645,0.16993 -0.0743,0.39323 -0.33128,0.4186c-0.32726,-0.14734 -0.59976,-0.34666 -0.81751,-0.59796c0.09398,-0.32864 0.16689,-0.66851 0.36621,-0.94102c0.02246,-0.04214 0.03507,-0.11657 0.05752,-0.15871c0.16134,-0.45505 0.33391,-0.93117 0.51633,-1.375c0.07998,-0.20084 0.1698,-0.36939 0.22871,-0.58147c0.0603,-0.26544 0.17396,-0.52948 0.4028,-0.7051c0.11657,0.03507 0.20084,0.07998 0.29635,0.10382c0.14748,0.07859 0.3048,0.18948 0.45228,0.26807z" fill="#87d7dc"/><path d="M193.98426,114.87511c0.09564,0.42969 0.02134,0.82292 -0.07403,1.20493c-0.02384,0.0955 -0.09121,0.22191 -0.15718,0.29496c-0.49414,0.52117 -0.90402,1.08725 -1.29282,1.66455c-0.01123,0.02107 -0.05475,0.05198 -0.08705,0.06182c-0.11796,0.01829 -0.2233,-0.03784 -0.29496,-0.15718c0.02246,-0.04214 0.02384,-0.0955 0.0463,-0.13764c0.29053,-0.49442 0.51785,-1.02252 0.6286,-1.58568c0.07152,-0.28651 0.19503,-0.51826 0.4351,-0.71495c0.27237,-0.20653 0.48153,-0.44673 0.79604,-0.63081z" fill="#cce5e6"/><path d="M191.0248,117.38281c-0.16009,-0.00416 -0.23314,-0.07014 -0.26266,-0.16703c0.49678,-1.03374 0.49678,-1.03374 0.63124,-2.09826c0.233,-0.33571 0.57135,-0.61528 0.85633,-0.89624c0.16993,0.03645 0.12364,0.17409 0.13209,0.25975c0.02398,0.31035 0.05918,0.59962 0.02979,0.90858c-0.02661,0.20223 -0.08414,0.36094 -0.21609,0.50703c-0.4071,0.45935 -0.80435,0.95099 -1.1707,1.48616z" fill="#cce5e6"/><path d="M179.17395,147.23556c-0.0955,-0.02384 -0.17978,-0.06875 -0.29635,-0.10382c-0.22884,0.17562 -0.3425,0.43966 -0.4028,0.7051c-0.05891,0.21207 -0.14873,0.38062 -0.22871,0.58147c-0.18241,0.44383 -0.35498,0.91995 -0.51633,1.375c-0.02246,0.04214 -0.03507,0.11657 -0.05752,0.15871c-0.18948,0.3048 -0.25117,0.6236 -0.36621,0.94102c-0.14609,-0.13196 -0.27112,-0.25269 -0.3723,-0.46892c0.25116,-0.6236 0.47142,-1.29072 0.75488,-1.92417c0.25116,-0.6236 0.41805,-1.29211 0.75488,-1.92417c0.32587,0.20071 0.53378,0.41971 0.73047,0.65979z" fill="#60adb2"/><path d="M195.09614,122.23055c0.0955,0.02384 0.16993,0.03645 0.26544,0.0603c0.01968,0.06459 0.02952,0.09689 0.03936,0.12918c-0.10659,0.40307 -0.13875,0.81876 -0.14984,1.24568c-0.01539,0.18116 -0.06168,0.3188 -0.20348,0.4326c-0.26253,0.23882 -0.49414,0.52117 -0.90276,0.62803c-0.10687,-0.40862 -0.07471,-0.82431 -0.02148,-1.22877c0.01261,-0.07443 0.08982,-0.16855 0.1558,-0.24159c0.2653,-0.34555 0.5306,-0.6911 0.81697,-1.02543z" fill="#cce5e6"/><path d="M198.23165,117.0574c-0.028,0.2556 -0.03216,0.41569 -0.04755,0.59685c-0.04062,0.33003 -0.15428,0.59408 -0.43787,0.82167c-0.45907,0.4046 -0.86617,0.86395 -1.14686,1.39066c-0.08982,0.16855 -0.12212,0.17839 -0.36371,0.02259c0.03368,-0.06321 0.04629,-0.13764 0.07998,-0.20085c0.30176,-0.51549 0.50801,-1.05481 0.65106,-1.62782c0.0463,-0.13764 0.08137,-0.25421 0.17964,-0.3371c0.33696,-0.22621 0.63179,-0.47487 1.08532,-0.66601z" fill="#cae2e3"/><path d="M193.49966,118.72872c-0.00984,-0.0323 -0.00845,-0.08566 0.00277,-0.10673c0.30037,-0.46212 0.4631,-0.97054 0.59353,-1.46912c0.14028,-0.46628 0.3536,-0.86658 0.7776,-1.15461c0.20639,-0.13348 0.35096,-0.35401 0.58826,-0.44396c0.10132,0.62208 -0.08386,1.17264 -0.47835,1.55755c-0.47169,0.47903 -0.95322,0.92576 -1.25775,1.54798c-0.05475,0.05198 -0.09966,0.13625 -0.22607,0.06889z" fill="#c9e1e2"/><path d="M196.74562,116.29254c0.03105,0.44937 -0.04186,0.78924 -0.126,1.15018c-0.03507,0.11657 -0.09121,0.22191 -0.17825,0.28373c-0.50399,0.48887 -0.97706,1.02127 -1.408,1.57612c-0.02246,0.04214 -0.07721,0.09411 -0.17132,0.01691c0.07859,-0.14748 0.16841,-0.31603 0.22593,-0.47473c0.20348,-0.4326 0.3859,-0.87642 0.4728,-1.34409c0.07291,-0.33987 0.23994,-0.60253 0.52215,-0.77676c0.20639,-0.13348 0.40155,-0.24589 0.66269,-0.43135z" fill="#c9e1e2"/><path d="M196.53573,122.7272c0.18255,-0.03798 0.28789,0.01816 0.39323,0.0743c0.00984,0.0323 0.00845,0.08566 0.0183,0.11796c-0.1375,0.35955 -0.1795,0.74294 -0.13584,1.11788c0.01552,0.22469 -0.05323,0.40446 -0.21748,0.5604c-0.20777,0.18684 -0.40571,0.40598 -0.6444,0.5493c-0.13071,-0.31312 -0.22496,-0.79617 -0.17728,-0.98717c0.014,-0.1278 0.10105,-0.18962 0.17825,-0.28373c0.1698,-0.36939 0.45617,-0.70372 0.58522,-1.14893z" fill="#cae3e4"/><path d="M188.58928,120.27793c0.39032,-0.22482 0.71744,-0.48333 1.03472,-0.77413c0.14887,0.02523 0.23314,0.07014 0.3048,0.18948c-0.09675,0.43537 -0.37467,0.85535 -0.45035,1.30195c-0.22884,0.17562 -0.46476,0.21221 -0.70206,0.30217c-0.12918,0.03936 -0.24853,0.11102 -0.40724,0.0535c-0.02259,-0.36371 0.17812,-0.68958 0.22012,-1.07297z" fill="#c8e0e1"/><path d="M192.48793,121.0841c0.17839,0.12212 0.15455,0.21762 0.13071,0.31312c-0.08414,0.36094 -0.15705,0.70081 -0.26225,1.05052c-0.02384,0.0955 -0.06875,0.17978 -0.1558,0.24159c-0.27098,0.15316 -0.56303,0.2951 -0.86492,0.40474c-0.03798,-0.18255 0.00831,-0.32019 0.01248,-0.48028c0.01248,-0.48028 0.18228,-0.84967 0.63581,-1.04081c0.21623,-0.10118 0.37064,-0.28942 0.50399,-0.48887z" fill="#cbe4e5"/><path d="M191.16062,120.37677c0.10534,0.05614 0.16855,0.08982 0.23175,0.1235c-0.00139,0.05337 0.02952,0.09689 0.0183,0.11796c-0.08137,0.25421 -0.1838,0.49719 -0.26516,0.7514c-0.0463,0.13764 -0.1235,0.23176 -0.24284,0.30342c-0.35803,0.21498 -0.7259,0.39767 -1.15697,0.54667c-0.04643,-0.26821 0.03354,-0.46905 0.11352,-0.6699c0.04491,-0.08428 0.08982,-0.16855 0.16564,-0.2093c0.45353,-0.19114 0.80449,-0.54514 1.13577,-0.96374z" fill="#c8e0e1"/><path d="M187.73333,126.50355c-0.1235,0.23175 -0.2793,0.47335 -0.29746,0.76124c-0.00277,0.10673 -0.07998,0.20084 -0.13611,0.30619c-0.36939,-0.1698 -0.67281,-0.41264 -0.91024,-0.72854c0.19932,-0.2725 0.27223,-0.61237 0.36483,-0.88765c0.20362,-0.02675 0.31742,0.11505 0.46628,0.14028c0.20084,0.07998 0.4003,0.21332 0.51271,0.40848z" fill="#85d5d9"/><path d="M193.95876,114.21228c-0.33835,0.27957 -0.63317,0.52823 -0.97152,0.80781c-0.10118,-0.21623 -0.07457,-0.41846 -0.11255,-0.60101c-0.02675,-0.20362 -0.10686,-0.40862 -0.06902,-0.63192c0.07859,-0.14748 0.23023,-0.22898 0.3608,-0.32171c0.13057,-0.09273 0.28221,-0.17423 0.45492,-0.2445c0.2276,0.2836 0.26141,0.62624 0.33737,0.99134z" fill="#cae3e3"/><path d="M189.65396,116.70639c0.18934,-0.71065 0.32255,-1.31595 0.31812,-1.96756c0.23023,-0.22898 0.4394,-0.46919 0.68085,-0.71924c0.18407,0.31451 0.15468,0.62347 0.17866,0.93381c-0.00139,0.05337 -0.03507,0.11657 -0.05752,0.15871c-0.34389,0.49303 -0.68779,0.98606 -1.12011,1.59428z" fill="#cae3e4"/><path d="M192.72619,123.83508c-0.03105,-0.44937 -0.03118,-0.85522 0.38298,-1.17554c0.2836,-0.2276 0.47308,-0.53239 0.66256,-0.83719c0.06736,-0.12641 0.18393,-0.09134 0.28789,0.01816c-0.22178,0.31464 -0.28484,0.68681 -0.34792,1.05897c-0.03923,0.27666 -0.18241,0.44382 -0.3888,0.5773c-0.17409,0.12364 -0.31728,0.2908 -0.59672,0.3583z" fill="#c8e0e1"/><path d="M187.97992,124.8225c0.17284,0.33557 -0.02509,0.55472 -0.18089,0.79631c-0.15164,0.0815 -0.2556,-0.028 -0.37217,-0.06307c-0.26266,-0.16702 -0.47057,-0.38603 -0.65603,-0.64717c0.14457,-0.22053 0.1838,-0.49719 0.40142,-0.65174c0.11657,0.03507 0.17977,0.06875 0.26405,0.11366c0.18823,0.15441 0.37646,0.30882 0.54362,0.45201z" fill="#85d4d9"/><path d="M190.88741,122.26005c-0.042,0.38339 -0.10368,0.7022 -0.1443,1.03222c-0.31312,0.13071 -0.63608,0.22912 -0.95766,0.27416c-0.12503,-0.12073 -0.0998,-0.2696 -0.11809,-0.38755c-0.01829,-0.11796 -0.03659,-0.23591 0.06307,-0.37216c0.30328,-0.163 0.69222,-0.33446 1.15698,-0.54667z" fill="#c7dfe0"/><path d="M193.64502,125.05512c-0.25975,0.13209 -0.49844,0.27542 -0.81017,0.35276c-0.15177,-0.32435 -0.12239,-0.63331 -0.12391,-0.98579c0.28221,-0.17423 0.56442,-0.34846 0.85786,-0.54376c0.0535,0.40723 0.05502,0.75972 0.07623,1.17679z" fill="#c8e0e1"/><path d="M195.32932,114.077c0.07873,0.25837 0.15746,0.51674 0.1393,0.80463c-0.2836,0.2276 -0.58826,0.44396 -0.90415,0.6814c-0.04214,-0.02246 -0.08428,-0.04491 -0.07305,-0.06598c-0.02537,-0.25698 -0.0395,-0.53503 -0.0438,-0.78078c0.00277,-0.10673 0.02662,-0.20223 0.10243,-0.24298c0.26114,-0.18546 0.45907,-0.4046 0.77926,-0.39628z" fill="#c4dcdd"/><path d="M194.29108,125.26415c0.30466,-0.21637 0.57703,-0.42289 0.89292,-0.66033c0.12086,0.28082 0.10271,0.56872 0.2025,0.83831c-0.24146,0.25005 -0.55319,0.32739 -0.85647,0.49039c-0.14332,-0.23868 -0.25573,-0.43385 -0.23896,-0.66838z" fill="#c6ddde"/><path d="M198.02162,123.0862c0.01982,0.47044 -0.08816,0.92688 0.01732,1.38887c-0.19793,0.21914 -0.36358,0.42844 -0.63456,0.5816c-0.17423,-0.28221 -0.22066,-0.55042 -0.01012,-0.84399c0.2653,-0.34555 0.42526,-0.74724 0.62735,-1.12647z" fill="#b9cfd0"/><path d="M188.6313,115.78269c-0.09273,-0.13057 0.02661,-0.20223 0.05046,-0.29773c0.05891,-0.21207 0.13889,-0.41292 0.07984,-0.60669c-0.04505,-0.32157 0.09952,-0.5421 0.27639,-0.77247c0.0772,-0.09412 0.17548,-0.177 0.29621,-0.30203c0.15039,0.37771 0.2488,0.70067 -0.0488,1.05606c-0.20916,0.24021 -0.34528,0.5464 -0.5123,0.80906c-0.03368,0.06321 -0.06736,0.12641 -0.1418,0.1138z" fill="#c0d8d8"/><path d="M187.35067,120.26711c-0.0043,-0.24575 0.04339,-0.43676 0.13321,-0.6053c0.04491,-0.08428 0.10105,-0.18962 0.17687,-0.23037c0.33557,-0.17284 0.61917,-0.40044 0.90276,-0.62803c0.14748,0.07859 0.0815,0.15164 0.04782,0.21485c-0.11228,0.21068 -0.23578,0.44244 -0.30591,0.67558c-0.10382,0.29635 -0.26808,0.45228 -0.55735,0.48749c-0.13902,0.00707 -0.23591,0.03659 -0.39739,0.0858z" fill="#c1d9d9"/><path d="M192.17438,124.10911c-0.24991,0.16439 -0.50828,0.24312 -0.7891,0.36398c-0.16439,-0.24991 -0.10409,-0.51535 -0.12946,-0.77233c0.29344,-0.1953 0.62624,-0.26141 0.96043,-0.38089c0.03521,0.28928 -0.01387,0.53365 -0.04187,0.78924z" fill="#c3dbdc"/><path d="M195.9367,116.18609c0.03077,-0.36232 0.07139,-0.69235 0.09093,-1.03361c0.18532,-0.14471 0.35941,-0.26834 0.6164,-0.29371c0.0998,0.26959 0.09286,0.53642 0.107,0.81447c-0.23023,0.22898 -0.48014,0.39337 -0.81433,0.51285z" fill="#c3dadb"/><path d="M189.78282,124.07901c0.31173,-0.07734 0.59117,-0.14484 0.87061,-0.21234c0.13209,0.25975 0.12516,0.52658 0.11823,0.7934c-0.24853,0.11102 -0.49566,0.16869 -0.77372,0.18282c-0.04075,-0.07582 -0.09134,-0.18394 -0.11102,-0.24853c-0.03798,-0.18255 -0.04505,-0.32157 -0.10409,-0.51535z" fill="#c4dbdc"/><path d="M187.6631,118.10716c-0.21332,0.4003 -0.38173,0.71633 -0.56137,1.05343c-0.18394,0.09134 -0.36648,0.12932 -0.58978,0.09148c-0.07027,-0.17271 0.05046,-0.29773 0.07568,-0.4466c0.02523,-0.14887 0.07153,-0.28651 0.12766,-0.39185c0.32296,-0.09841 0.58133,-0.17714 0.94781,-0.30646z" fill="#c2d9da"/><path d="M192.30688,125.5864c-0.21762,0.15455 -0.41985,0.12793 -0.61362,0.18698c-0.17562,-0.22884 -0.22205,-0.49705 -0.27832,-0.79756c0.2373,-0.08996 0.4746,-0.17991 0.69083,-0.2811c0.17423,0.28221 0.14484,0.59117 0.20112,0.89167z" fill="#c3dbdc"/><path d="M189.14051,122.49235c-0.3005,0.05627 -0.53919,0.1996 -0.82708,0.18144c-0.12225,-0.22746 -0.01982,-0.47044 -0.09993,-0.67545c0.33557,-0.17284 0.63608,-0.22912 0.95904,-0.32753c0.10964,0.30189 -0.01386,0.53364 -0.03202,0.82154z" fill="#c7dee0"/><path d="M187.23184,126.074c-0.14887,-0.02523 -0.26266,-0.16702 -0.46628,-0.14028c-0.10382,0.29635 -0.1978,0.62499 -0.36483,0.88765c-0.07305,-0.06598 -0.16716,-0.14319 -0.22898,-0.23023c-0.09273,-0.13057 -0.12086,-0.28082 -0.04227,-0.4283c0.11366,-0.26405 0.21609,-0.50703 0.32976,-0.77108c0.27389,0.14596 0.38908,0.23439 0.7726,0.68224z" fill="#61acb1"/><path d="M187.20901,120.78675c0.25975,-0.13209 0.49567,-0.16869 0.7751,-0.23619c-0.07291,0.33987 -0.12337,0.6376 -0.17382,0.93533c-0.18532,0.14471 -0.36648,0.12932 -0.59117,0.14484c-0.11102,-0.24853 -0.05073,-0.51396 -0.01011,-0.84399z" fill="#c1d9d9"/><path d="M194.01191,126.14334c-0.24853,0.11102 -0.5069,0.18975 -0.7442,0.27971c-0.17839,-0.12212 -0.25989,-0.27376 -0.30771,-0.4886c0.23023,-0.22898 0.54058,-0.25296 0.81156,-0.40612c0.14471,0.18532 0.17146,0.38894 0.24035,0.61501z" fill="#c0d7d7"/><path d="M187.45737,124.38172c-0.08428,-0.04491 -0.17977,-0.06875 -0.26405,-0.11366c-0.21762,0.15455 -0.25684,0.43121 -0.40142,0.65174c-0.15871,-0.05752 -0.17562,-0.22884 -0.31187,-0.3285c0.06168,-0.3188 0.25962,-0.53794 0.2581,-0.89042c0.22191,0.09121 0.31464,0.22178 0.42844,0.36358c0.08289,0.09827 0.25282,0.13473 0.2908,0.31728z" fill="#5aa0a4"/><path d="M198.4409,125.44672c-0.20777,0.18684 -0.36358,0.42844 -0.63317,0.52824c-0.12503,-0.12073 -0.16439,-0.24991 -0.22344,-0.44369c0.16564,-0.2093 0.37342,-0.39614 0.60088,-0.5184c0.12503,0.12073 0.17562,0.22884 0.25573,0.43385z" fill="#bdd3d4"/><path d="M190.26351,125.30903c0.21485,-0.04782 0.40862,-0.10686 0.6024,-0.16591c0.13348,0.20639 0.1813,0.42123 0.21789,0.65714c-0.15303,0.13487 -0.32296,0.09841 -0.47044,0.01982c-0.18962,-0.10105 -0.37923,-0.2021 -0.34985,-0.51106z" fill="#bdd4d5"/><path d="M188.56237,123.7803c-0.12364,-0.17409 -0.14055,-0.34542 -0.15746,-0.51674c0.07859,-0.14748 0.20639,-0.13348 0.33557,-0.17284c0.09689,-0.02952 0.20501,-0.08012 0.34264,-0.03382c0.12364,0.17409 0.01136,0.38478 0.12377,0.57994c-0.22746,0.12225 -0.43108,0.149 -0.64454,0.14346z" fill="#c3dadb"/><path d="M194.02914,118.90268c0.24423,-0.35678 0.48846,-0.71356 0.81697,-1.02543c0.11518,0.08843 0.08011,0.205 0.02398,0.31035c-0.12489,0.28512 -0.27084,0.55901 -0.40557,0.81183c-0.10105,0.18962 -0.24991,0.16439 -0.43537,-0.09675z" fill="#b1c6c7"/><path d="M195.19036,126.82545c0.13196,-0.14609 0.29205,-0.14193 0.43246,-0.20237c0.25975,-0.13209 0.4606,-0.05211 0.65728,0.18796c-0.2836,0.2276 -0.63747,0.28248 -0.93797,0.33876c-0.13625,-0.09966 -0.177,-0.17548 -0.15178,-0.32435z" fill="#bbd2d3"/><path d="M196.9646,120.19647c0.12905,-0.44521 0.4674,-0.72479 0.7959,-1.03665c-0.03077,0.36232 -0.19919,0.67835 -0.3353,0.98454c-0.07998,0.20084 -0.16564,0.2093 -0.4606,0.05211z" fill="#bad1d2"/><path d="M196.79769,124.97683c0.10396,0.1095 0.13209,0.25976 0.149,0.43108c-0.20916,0.24021 -0.48014,0.39337 -0.77081,0.48194c-0.15871,-0.05752 -0.16716,-0.14318 -0.15316,-0.27098c0.2513,-0.21775 0.5026,-0.43551 0.77497,-0.64203z" fill="#bdd4d4"/><path d="M195.96845,114.55285c-0.05766,-0.24714 -0.10548,-0.46199 -0.18421,-0.72035c0.08843,-0.11518 0.219,-0.20791 0.4423,-0.17007c0.09134,0.18394 0.17146,0.38894 0.27264,0.60517c-0.17409,0.12364 -0.31589,0.23744 -0.53074,0.28525z" fill="#c1d9d9"/><path d="M196.88389,126.59176c-0.20084,-0.07998 -0.32726,-0.14734 -0.4186,-0.33128c0.22746,-0.12225 0.43385,-0.25573 0.62901,-0.36814c0.2233,0.03784 0.24021,0.20916 0.35539,0.29759c-0.02246,0.04214 -0.02384,0.0955 -0.05614,0.10534c-0.19516,0.11241 -0.3468,0.19391 -0.50967,0.29648z" fill="#c2dada"/><path d="M187.18419,122.15316c0.20362,-0.02675 0.35387,-0.05489 0.52519,-0.0718c0.06889,0.22607 0.06334,0.43953 0.07886,0.66422c-0.15164,0.0815 -0.30189,0.10964 -0.44937,0.03105c-0.03091,-0.04352 -0.06182,-0.08705 -0.06043,-0.14041c-0.03936,-0.12918 -0.0675,-0.27944 -0.09425,-0.48305z" fill="#bbd2d3"/><path d="M188.76335,124.26613c0.15164,-0.0815 0.32296,-0.09841 0.48167,-0.04089c0.06889,0.22607 0.12793,0.41985 0.17575,0.63469c-0.47044,0.01982 -0.49151,0.00859 -0.65742,-0.59381z" fill="#b5cbcc"/><path d="M186.44776,120.48929c-0.13209,-0.25975 -0.01843,-0.5238 -0.03395,-0.74849c0.16287,-0.10257 0.32157,-0.04505 0.49289,-0.06196c0.02398,0.31035 -0.04616,0.54349 -0.23287,0.74156c-0.03368,0.06321 -0.14041,0.06043 -0.22607,0.06889z" fill="#b6cccd"/><path d="M196.21279,118.71377c-0.08275,0.30757 -0.18657,0.60392 -0.37467,0.85535c-0.0772,0.09412 -0.18532,0.14471 -0.29066,0.08857c-0.04214,-0.02246 -0.10396,-0.1095 -0.09273,-0.13057c0.14734,-0.32726 0.46324,-0.56469 0.75806,-0.81335z" fill="#a7bbbb"/><path d="M191.78613,126.3098c0.21762,-0.15455 0.42123,-0.1813 0.64592,-0.19682c0.13487,0.15303 0.21637,0.30467 0.19959,0.53919c-0.32019,-0.00832 -0.56178,-0.16412 -0.84551,-0.34237z" fill="#b7cece"/><path d="M186.2784,117.96439c-0.01275,-0.33141 0.21748,-0.56039 0.22441,-0.82722c0.15164,-0.0815 0.22469,-0.01552 0.23314,0.07014c0.01552,0.22469 -0.00125,0.45921 -0.11352,0.6699c-0.05475,0.05198 -0.06598,0.07304 -0.34403,0.08718z" fill="#b4cacb"/><path d="M187.83897,123.25954c0.09134,0.18394 0.15177,0.32435 0.12655,0.47321c-0.06598,0.07305 -0.14041,0.06043 -0.21484,0.04782c-0.29773,-0.05046 -0.32448,-0.25407 -0.31755,-0.5209c0.1278,0.014 0.26682,0.00693 0.40585,-0.00014z" fill="#b5cbcb"/><path d="M190.70697,116.05022c0.01275,0.33141 -0.15427,0.59408 -0.289,0.8469c-0.02246,0.04214 -0.08705,0.06182 -0.14041,0.06043c-0.04214,-0.02246 -0.08289,-0.09827 -0.07166,-0.11934c0.09398,-0.32864 0.28207,-0.58008 0.50108,-0.78799z" fill="#99abac"/><path d="M189.31395,116.22763c-0.19239,0.00568 -0.29773,-0.05046 -0.28373,-0.17825c0.03645,-0.16993 0.19087,-0.35817 0.4211,-0.58715c0.03521,0.28928 -0.0883,0.52103 -0.13737,0.7654z" fill="#93a5a6"/><path d="M193.9645,127.14604c0.29205,-0.14193 0.57426,-0.31616 0.86367,0.05448c-0.30328,0.163 -0.57717,0.01705 -0.86367,-0.05448z" fill="#9aadad"/><path d="M195.71294,123.15439c0.02661,-0.20223 0.06446,-0.42553 0.07984,-0.60669c0.11934,-0.07166 0.19378,-0.05905 0.30896,0.02939c0.0043,0.24575 -0.19225,0.41153 -0.27223,0.61238c-0.04214,-0.02246 -0.06321,-0.03368 -0.11657,-0.03507z" fill="#c5dddd"/><path d="M193.33777,117.56038c0.04366,0.37494 -0.1023,0.64883 -0.33253,0.87781c-0.01123,0.02107 -0.06459,0.01969 -0.10673,-0.00277c-0.07443,-0.01261 -0.08289,-0.09827 -0.06043,-0.14041c0.10243,-0.24298 0.30037,-0.46212 0.49969,-0.73463z" fill="#aec2c3"/><path d="M186.6712,120.93298c0.05766,0.24714 0.00859,0.49151 -0.02925,0.71481c-0.11934,0.07166 -0.19239,0.00568 -0.18962,-0.10105c-0.00568,-0.19239 -0.02259,-0.36371 0.00402,-0.56594c-0.01968,-0.06459 0.07721,-0.09412 0.21484,-0.04782z" fill="#9caeaf"/><path d="M190.40215,119.97258c0.16993,0.03645 0.24298,0.10243 0.29357,0.21055c-0.09121,0.22191 -0.25546,0.37785 -0.57842,0.47626c0.09259,-0.27528 0.19364,-0.46489 0.28485,-0.68681z" fill="#b9cfd0"/><path d="M197.29835,122.97129c0.11934,-0.07166 0.21485,-0.04782 0.31035,-0.02398c0.08289,0.09827 0.02675,0.20362 -0.30592,0.67558c-0.18546,-0.26114 0.00125,-0.45921 -0.00443,-0.6516z" fill="#869797"/><path d="M192.0512,116.92887c-0.24285,0.30341 -0.21042,0.69942 -0.6401,0.79506c0.08414,-0.36094 0.23994,-0.60253 0.6401,-0.79506z" fill="#93a4a5"/><path d="M194.77731,126.28071c0.21623,-0.10118 0.42262,-0.23466 0.65992,-0.32462c0.09689,-0.02952 0.18116,0.01539 0.177,0.17548c-0.25975,0.13209 -0.50828,0.24312 -0.83692,0.14914z" fill="#9fb2b2"/><path d="M193.07383,121.96441c-0.11241,-0.19516 -0.03382,-0.34264 0.0237,-0.50135c0.03368,-0.06321 0.11934,-0.07166 0.18255,-0.03798c0.04214,0.02246 0.08289,0.09827 0.06043,0.14041c-0.00416,0.16009 -0.11366,0.26405 -0.26668,0.39892z" fill="#91a2a3"/><path d="M188.14534,115.57782c-0.0998,-0.26959 0.03077,-0.36232 0.13043,-0.49858c0.13348,0.20639 0.13348,0.20639 -0.13043,0.49858z" fill="#555f5f"/><path d="M194.66215,122.08044c-0.05614,0.10534 -0.13473,0.25282 -0.27653,0.36662c-0.08857,-0.29066 -0.04366,-0.37494 0.11921,-0.47751c0.04352,-0.03091 0.10673,0.00277 0.15732,0.11089z" fill="#93a5a6"/><path d="M191.75206,121.04362c-0.01829,-0.11796 0.02662,-0.20223 0.09259,-0.27528c0.04352,-0.03091 0.10811,-0.05059 0.13902,-0.00707c0.03091,0.04352 0.05059,0.10811 0.02814,0.15025c-0.04491,0.08428 -0.11089,0.15732 -0.25975,0.13209z" fill="#636e6f"/></g></g><path d="M191.41581,142.63209c-1.82064,0.55917 -3.75662,-0.48548 -4.32414,-2.3333c-0.56751,-1.84782 0.44834,-3.79906 2.26898,-4.35823c1.82064,-0.55917 3.75662,0.48548 4.32414,2.3333c0.56751,1.84782 -0.44834,3.79906 -2.26898,4.35823z" data-paper-data="{&quot;index&quot;:null}" fill="#00021d" stroke="#00021d" stroke-width="12" stroke-linecap="butt"/><g data-paper-data="{&quot;index&quot;:null}"><path d="M189.92581,135.51971l12.19212,-2.00973l4.75633,8.0198l-1.0651,2.70129l15.57337,31.68638c0,0 1.44161,3.98954 -0.66768,5.14705c-2.81378,1.54412 -6.32023,-1.53403 -6.32023,-1.53403l-24.84147,-25.82828l-3.65567,-0.29729l-3.63629,-8.01733z" fill="#5c2a2a" stroke="none" stroke-width="0" stroke-linecap="butt"/><path d="M190.10182,135.96445l12.02971,-2.44045l-15.38761,20.0365l-4.21044,-7.95691z" fill-opacity="0.08443" fill="#ffffff" stroke="none" stroke-width="0" stroke-linecap="butt"/><path d="M190.24003,135.3539l30.7372,40.19226c0,0 2.6042,2.96168 -0.64363,5.14135c-2.91429,1.95581 -5.77409,-1.81975 -5.77409,-1.81975l-24.65132,-24.63744l-4.72298,-1.15054l-2.84935,-7.39854z" fill-opacity="0.08443" fill="#ffffff" stroke="none" stroke-width="0" stroke-linecap="butt"/><path d="M189.7365,135.52942l12.17256,-2.04476l5.04444,7.77867l-1.40535,2.84902l16.15415,30.96807c0,0 1.89864,3.98506 -1.26238,5.79642c-3.16344,1.81274 -6.72356,-1.62655 -6.72356,-1.62655l-24.42584,-25.66972l-3.4326,0.10251l-3.80886,-8.32662z" fill="none" stroke="#00021d" stroke-width="3.5" stroke-linecap="butt"/><path d="M188.89905,154.17541l7.50093,-7.78809l9.7843,-2.41426" fill="none" stroke="#00021d" stroke-width="1.5" stroke-linecap="round"/><path d="M189.96824,135.07198l11.73007,-1.94245l4.94481,7.77018l-1.16011,3.58694l16.0957,30.29036c0,0 1.78017,4.52378 -1.37764,6.27764c-2.6357,1.46388 -6.71704,-1.85681 -6.71704,-1.85681l-23.84766,-25.24941l-3.85795,-0.83159l-3.71436,-7.71749z" fill="#71521d" stroke="none" stroke-width="0" stroke-linecap="butt"/></g><g data-paper-data="{&quot;index&quot;:null}" stroke-linecap="butt"><g><path d="M218.68573,180.97183c-0.26641,-0.13164 -0.97149,-0.58338 -1.86646,-1.17802c-0.6081,-2.17242 -1.951,-4.15262 -3.95368,-5.53293c-0.42314,-0.29164 -0.86083,-0.54623 -1.30923,-0.76447l18.44816,-26.79389c0,0 3.56819,-2.52574 5.10661,-1.30384c2.05221,1.63001 -0.19863,5.45026 -0.19863,5.45026z" fill="#71521d" stroke="none" stroke-width="0"/><path d="" fill-opacity="0.08443" fill="#ffffff" stroke="none" stroke-width="0"/><path d="M218.76262,181.00989c-0.47964,-0.23792 -1.23956,-0.69918 -1.91882,-1.12691c-0.19746,-0.73128 -0.47791,-1.44152 -0.83851,-2.11528l17.48371,-31.95472c0,0 1.04632,-0.14145 1.01425,-0.23541c2.42893,1.53 -0.51321,5.18374 -0.51321,5.18374z" fill="#71521d" stroke="none" stroke-width="0"/><path d="M211.68253,173.55889l18.21814,-26.33474c0,0 2.21766,-3.60337 4.58841,-1.80625c2.37255,1.79847 0.06499,6.00771 0.06499,6.00771l-15.84735,29.66587" fill="none" stroke="#00021d" stroke-width="3.5"/></g><path d="M212.43582,173.98034l18.11953,-26.1245c0,0 1.84876,-2.74359 2.94311,-1.94251c2.37255,1.7985 0.27548,4.96394 0.27548,4.96394l-15.86015,29.8371" fill="none" stroke="#71521d" stroke-width="1.75"/></g><path d="M189.3704,154.6668l6.56959,-7.94787l10.60536,-2.2489" data-paper-data="{&quot;index&quot;:null}" fill="none" stroke="#00021d" stroke-width="1.5" stroke-linecap="round"/><path d="M237.13636,223.27016l-0.04233,52.56233l-3.27155,0.17628" data-paper-data="{&quot;index&quot;:null}" fill="none" stroke="#00021d" stroke-width="12" stroke-linecap="round"/><path d="M258.07759,222.70307l2.24986,56.21831l-4.02673,0.96843" data-paper-data="{&quot;index&quot;:null}" fill="none" stroke="#00021d" stroke-width="12" stroke-linecap="round"/><path d="M240.93039,144.80972l-1.98059,-1.64182l1.19027,-1.16369l-1.15023,-1.0814l1.94056,-0.56943h13.24523l2.07611,0.5587l-0.69556,1.09336l0.97141,1.16246l-2.35196,1.64182z" data-paper-data="{&quot;index&quot;:null}" fill="#71521d" stroke="none" stroke-width="0" stroke-linecap="butt"/><g data-paper-data="{&quot;index&quot;:null}" fill="none" stroke="#161830" stroke-width="3.5" stroke-linecap="round"><path d="M248.60059,126.32407v-13.28572"/><path d="M234.31484,126.75261v-13.28571"/></g><g data-paper-data="{&quot;index&quot;:null}"><path d="M256.16452,215.3115l-8.72956,2.81602l-10.49814,-3.11839" fill="none" stroke="#00021d" stroke-width="12" stroke-linecap="round"/><path d="M247.51877,220.79236l-20.03008,-6.18996v-10.83243l3.44603,-5.67413l2.1872,-52.9638l29.1552,-0.16667l1.06503,52.61219l1.75737,6.46318l-0.05175,9.53z" fill="#5c2a2a" stroke="none" stroke-width="0" stroke-linecap="butt"/><path d="M247.49729,163.10148l0.48452,-2.18033l-0.96903,-6.78325l1.69581,-6.78325" fill="none" stroke="#c2c2c2" stroke-width="3.5" stroke-linecap="round"/><path d="M236.44087,147.75174l1.69581,6.78324l-0.96903,6.78324l0.48452,2.18033" data-paper-data="{&quot;index&quot;:null}" fill="none" stroke="#c2c2c2" stroke-width="3.5" stroke-linecap="round"/><path d="M227.73098,213.93235l-0.221,-8.80345l3.01719,-6.96899l2.61091,-51.81776l24.39072,-0.72677l-20.10747,71.70858z" fill-opacity="0.08443" fill="#ffffff" stroke="none" stroke-width="0" stroke-linecap="butt"/><path d="M247.59618,220.47334l-19.86522,-6.78324l-0.05076,-9.94245l3.10417,-5.81397l-0.14631,-13.31464l34.92273,19.96462l-0.29821,9.10644z" fill-opacity="0.08443" fill="#ffffff" stroke="none" stroke-width="0" stroke-linecap="butt"/><path d="M247.81189,220.70491l-20.03009,-6.13063v-10.7286l3.44604,-5.61974l2.1872,-52.62123h28.82187l1.39836,52.10791l1.47165,6.25839l-0.19461,9.58151z" fill="none" stroke="#00021d" stroke-width="3.5" stroke-linecap="butt"/><g stroke-linecap="butt"><path d="M241.02361,213.8928l-13.15254,-4.56744l0.1984,-5.83413l3.75332,-7.08447l16.73672,0.12304l4.53286,7.99722v4.79834z" fill="#694646" stroke="none" stroke-width="0"/><path d="M240.20456,213.67569l-12.006,-4.44445l-0.2,-6.6741l25.22131,7.47411z" fill-opacity="0.14806" fill="#ffffff" stroke="none" stroke-width="0"/><path d="M240.53991,213.86192l-12.785,-4.4753l0.69736,-3.87531h24.17527l0.34868,4.3062z" fill-opacity="0.08443" fill="#ffffff" stroke="none" stroke-width="0"/><path d="M232.39224,210.99263l-3.33363,-0.77855l-1.0537,-6.0286l4.09766,-6.9714l5.77301,-0.22222z" fill-opacity="0.08443" fill="#ffffff" stroke="none" stroke-width="0"/><path d="M240.89802,213.3714l-12.75254,-3.96744l0.1984,-5.83412l3.75332,-7.08447l16.73673,0.12304l4.53287,7.99722v4.79834z" fill="none" stroke="#00021d" stroke-width="3.5"/></g><path d="M247.67894,220.98757l-19.93561,-5.97105l-0.32395,-10.4263l3.69094,-6.17511l2.37553,-53.23432l29.02113,0.03577l1.1553,52.44962l1.51762,6.01712l-0.16473,9.61483z" fill="#71521d" stroke="none" stroke-width="0" stroke-linecap="butt"/></g><path d="M256.48655,131.69812l-4.03144,0.93643" data-paper-data="{&quot;index&quot;:null}" fill="none" stroke="#161830" stroke-width="1.5" stroke-linecap="round"/><path d="M253.62093,209.18618l-11.75,4l-12.75,-3.5l-1,-5.25l4,-7.5h16.5l4.25,6.75z" data-paper-data="{&quot;index&quot;:null}" fill="none" stroke="#000000" stroke-width="3" stroke-linecap="round"/><path d="M249.17432,146.26075c1.6602,0.5534 1.1068,2.2136 1.1068,2.2136l-0.7041,1.91732c-1.35819,1.80192 -0.36355,3.51179 -0.2105,5.65522c0.17308,2.42387 0.07367,4.97378 -0.26318,7.37154c0,0 -0.24748,1.7324 -1.97989,1.48492c-1.73241,-0.24748 -1.48493,-1.97989 -1.48493,-1.97989c0.68797,-4.72534 -1.49902,-10.40475 1.02632,-14.47324l0.2959,-1.08267c0,0 0.5534,-1.6602 2.21359,-1.1068z" data-paper-data="{&quot;index&quot;:null}" fill="#cccccc" stroke="none" stroke-width="0.5" stroke-linecap="butt"/><path d="M234.71075,147.36757c0.5534,-1.6602 2.21359,-1.1068 2.21359,-1.1068l1.92901,1.66271c0.25249,1.79913 1.28609,3.55609 1.50248,5.26803c0.27917,2.20862 -1.12725,3.74729 -1.5,5.70892c-0.23286,1.22545 1.0549,3.49388 1.24752,4.77305c0,0 0.24748,1.73241 -1.48493,1.97989c-1.7324,0.24749 -1.97989,-1.48492 -1.97989,-1.48492c-0.25926,-1.9515 -1.49151,-3.69444 -1.25248,-5.72695c0.16712,-1.42109 1.76779,-3.23051 1.5,-4.79108c-0.23657,-1.37859 -0.88482,-2.7316 -1.26981,-4.15625c-0.42419,-0.21153 -1.33665,-0.83317 -0.9055,-2.12661z" data-paper-data="{&quot;index&quot;:null}" fill="#cccccc" stroke="none" stroke-width="0.5" stroke-linecap="butt"/><path d="M243.89144,194.37259c-7.20447,0 -13.04485,-5.84038 -13.04485,-13.04485c0,-7.20447 5.84038,-13.04485 13.04485,-13.04485c7.20447,0 13.04486,5.84038 13.04486,13.04485c0,7.20447 -5.84039,13.04485 -13.04486,13.04485z" data-paper-data="{&quot;index&quot;:null}" fill="#000000" stroke="#000000" stroke-width="1.5" stroke-linecap="butt"/><path d="M256.46382,181.32775c0,6.94353 -5.62885,12.57239 -12.57239,12.57239c-6.94354,0 -12.57239,-5.62886 -12.57239,-12.5724c0,-6.94354 5.62886,-12.5724 12.5724,-12.5724c6.94355,0 12.5724,5.62886 12.5724,12.5724z" data-paper-data="{&quot;index&quot;:null}" fill="url(#color-1)" stroke="#6d4500" stroke-width="1.5" stroke-linecap="butt"/><path d="M247.18462,171.27399c0,-0.57838 0.18931,-1.20692 0.50935,-1.63826c0.1346,-0.18141 1.4001,0.32633 2.51555,0.98006c1.08378,0.63517 2.02065,1.46065 1.99767,1.52188c-0.3688,0.98302 -1.31722,1.72983 -2.42905,1.72983c-1.43235,0 -2.59352,-1.16115 -2.59352,-2.59352z" data-paper-data="{&quot;index&quot;:null}" fill="#000000" stroke="#6d4500" stroke-width="1.5" stroke-linecap="butt"/><path d="M242.64225,171.73905c1.51662,0 2.74609,1.14409 2.74609,2.55539c0,1.4113 -1.22946,2.55539 -2.74609,2.55539c-1.51662,0 -2.74608,-1.14409 -2.74608,-2.55539c0,-1.4113 1.22945,-2.55539 2.74608,-2.55539z" data-paper-data="{&quot;index&quot;:null}" fill="#000000" stroke="#6d4500" stroke-width="1.5" stroke-linecap="butt"/><path d="M249.39305,175.47676c1.53768,0 2.78422,1.19531 2.78422,2.66981c0,1.47449 -1.24653,2.6698 -2.78422,2.6698c-1.53769,0 -2.78423,-1.1953 -2.78423,-2.6698c0,-1.4745 1.24654,-2.66981 2.78423,-2.66981z" data-paper-data="{&quot;index&quot;:null}" fill="#000000" stroke="#6d4500" stroke-width="1.5" stroke-linecap="butt"/></g></g></svg>