<svg version="1.1" xmlns="http://www.w3.org/2000/svg" xmlns:xlink="http://www.w3.org/1999/xlink" width="67.79515" height="111.73022" viewBox="0,0,67.79515,111.73022"><g transform="translate(-360.39676,-121.59354)"><g data-paper-data="{&quot;isPaintingLayer&quot;:true}" fill-rule="nonzero" stroke-linejoin="miter" stroke-miterlimit="10" stroke-dasharray="" stroke-dashoffset="0" style="mix-blend-mode: normal"><g><path d="M390.45529,173.84256l2.53148,8.70819l-0.92234,8.83924l0.73519,2.80204" fill="#ff9f72" stroke="#000000" stroke-width="4.5" stroke-linecap="round"/><path d="M405.57924,194.22249l0.52075,-2.8497l-1.58952,-8.74392l1.8643,-8.87497" data-paper-data="{&quot;index&quot;:null}" fill="#ff9f72" stroke="#000000" stroke-width="4.5" stroke-linecap="round"/><g fill="none" stroke="none" stroke-width="1" stroke-linecap="butt" font-family="sans-serif" font-weight="normal" font-size="12" text-anchor="start"/><path d="M387.04265,231.07376c-18.64486,-0.0807 -16.50017,-16.62166 -16.6521,-26.1749c-0.15193,-9.55324 2.06434,-32.93297 2.06434,-32.93297l37.61175,-1.47358c0,0 0.05089,26.59896 1.0529,38.71374c1.002,12.11478 -4.63041,21.95188 -24.07688,21.86771z" fill="#ff9f72" stroke="#000000" stroke-width="4.5" stroke-linecap="butt"/></g><path d="M371.93072,227.42381v-43.24938h41.14606v43.24938z" fill="none" stroke="none" stroke-width="0" stroke-linecap="butt"/><path d="M365.74526,152.77693c0,-14.29037 11.58463,-25.875 25.875,-25.875c14.29037,0 25.875,11.58463 25.875,25.875c0,14.29037 -11.58463,25.875 -25.875,25.875c-14.29037,0 -25.875,-11.58463 -25.875,-25.875z" fill="#fff1bf" stroke="none" stroke-width="0" stroke-linecap="butt"/><path d="M366.21311,159.6067c0,0 -4.68232,-32.65417 27.28572,-32.42857c14.87492,0.10498 23.02602,14.8374 23.8695,24.25904c0.51139,5.71218 -1.29807,7.74097 -1.29807,7.74097l0.14285,1.57143c0,0 -1.82509,2.21435 -10.1223,-0.21313c-6.22603,-1.82152 -15.08335,-9.8676 -23.44518,-9.81699c-10.28352,0.06224 -16.43252,8.88726 -16.43252,8.88726z" fill-opacity="0.28957" fill="#000000" stroke="none" stroke-width="0" stroke-linecap="butt"/><path d="M365.74526,152.67692c0,-14.29037 11.58463,-25.875 25.875,-25.875c14.29037,0 25.875,11.58463 25.875,25.875c0,14.29037 -11.58463,25.875 -25.875,25.875c-14.29037,0 -25.875,-11.58463 -25.875,-25.875z" fill="none" stroke="#00021d" stroke-width="3.5" stroke-linecap="butt"/><path d="M375.74667,159.22066c0,0 2.19675,-2.22971 5.2,-2.2c3.20329,0.03169 5,2.4 5,2.4" fill="none" stroke="#161830" stroke-width="2.5" stroke-linecap="round"/><path d="M379.74667,159.32066c0,-0.7732 0.6268,-1.4 1.4,-1.4c0.7732,0 1.4,0.6268 1.4,1.4c0,0.7732 -0.6268,1.4 -1.4,1.4c-0.7732,0 -1.4,-0.6268 -1.4,-1.4z" fill="#161830" stroke="#161830" stroke-width="2.5" stroke-linecap="butt"/><path d="M396.04667,159.52066c0,0 2.19674,-2.22971 5.2,-2.2c3.20329,0.03169 5,2.4 5,2.4" fill="none" stroke="#161830" stroke-width="2.5" stroke-linecap="round"/><path d="M400.04667,159.62065c0,-0.7732 0.6268,-1.4 1.4,-1.4c0.7732,0 1.4,0.6268 1.4,1.4c0,0.7732 -0.6268,1.4 -1.4,1.4c-0.7732,0 -1.4,-0.6268 -1.4,-1.4z" fill="#161830" stroke="#161830" stroke-width="2.5" stroke-linecap="butt"/><path d="M407.84667,165.22066c-3.95219,7.5024 -20.67619,13.39695 -33,-0.4" fill="none" stroke="#161830" stroke-width="1.5" stroke-linecap="round"/><path d="M391.54667,161.92066l2.3,6.5l-1.9,0.7" fill="none" stroke="#161830" stroke-width="1.5" stroke-linecap="round"/><path d="M369.3614,127.00536c8.28494,-6.68376 32.89898,-2.34182 34.55813,-1.48438c23.56936,12.18053 31.64615,44.07063 9.53832,34.56505c2.24535,-7.88084 -19.38816,-19.63734 -34.50502,-18.46168c-6.14469,0.47788 -13.4618,11.65896 -16.80607,14.38875c-1.41634,1.1561 -1.47781,-4.55609 -1.47781,-4.55609c0,0 -1.38005,-16.32578 8.69245,-24.45165z" fill="#ff9f72" stroke="#00021d" stroke-width="3.5" stroke-linecap="butt"/></g></g></svg>