<svg version="1.1" xmlns="http://www.w3.org/2000/svg" xmlns:xlink="http://www.w3.org/1999/xlink" width="195.00074" height="192.97552" viewBox="0,0,195.00074,192.97552"><g transform="translate(-272.6461,-91.62289)"><g data-paper-data="{&quot;isPaintingLayer&quot;:true}" fill-rule="nonzero" stroke-linejoin="miter" stroke-miterlimit="10" stroke-dasharray="" stroke-dashoffset="0" style="mix-blend-mode: normal"><path d="M382.11784,229.11489c0,0 1.23049,21.06336 -2.76963,29.58769c-3.68659,7.85621 -20.36738,19.7177 -20.36738,19.7177l3.54534,0.17813" data-paper-data="{&quot;index&quot;:null}" fill="none" stroke="#00021d" stroke-width="12" stroke-linecap="round"/><path d="M362.66762,227.49848c0,0 -2.09551,20.99496 -7.38575,28.7846c-4.87561,7.17911 -23.21342,16.27131 -23.21342,16.27131l3.47327,0.73317" data-paper-data="{&quot;index&quot;:null}" fill="none" stroke="#00021d" stroke-width="12" stroke-linecap="round"/><path d="M292.99301,150.30999c-3.85073,2.35072 -10.86963,-3.2343 -14.97487,-7.72365c-0.0926,-0.35545 -5.18382,-4.81433 -3.92078,-6.23046c0.53057,-0.41734 4.59202,2.24974 6.29409,3.51467c0.60839,0.45215 0.72901,-0.23099 0.72901,-0.23099c0,0 -3.59043,-8.16113 -2.01071,-9.10525c0.83661,-0.48394 4.44636,4.60325 6.61593,6.32967c0.68457,0.54475 0.71138,0.22398 0.71138,0.22398c0,0 -3.40394,-10.78276 -0.37548,-12.48965c1.19624,-0.67422 5.61051,12.32844 6.24409,11.71575c0.05466,-4.33427 5.51121,-7.62991 4.74553,-2.07868c-1.27202,4.621 -0.7169,9.41082 -0.7169,9.41082c0,0 0.25073,4.47097 -3.34129,6.66378z" data-paper-data="{&quot;index&quot;:null}" fill="#161830" stroke="#00021d" stroke-width="2.5" stroke-linecap="butt"/><path d="M447.50119,150.30998c-3.59203,-2.19281 -3.34129,-6.66378 -3.34129,-6.66378c0,0 0.55512,-4.78982 -0.7169,-9.41082c-0.76568,-5.55123 4.69087,-2.25559 4.74553,2.07868c0.63357,0.61269 5.04785,-12.38997 6.24409,-11.71575c3.02847,1.70689 -0.37548,12.48965 -0.37548,12.48965c0,0 0.02681,0.32076 0.71138,-0.22399c2.16957,-1.72642 5.77932,-6.81361 6.61593,-6.32967c1.57972,0.94412 -2.01071,9.10526 -2.01071,9.10526c0,0 0.12061,0.68313 0.72901,0.23098c1.70208,-1.26494 5.76352,-3.93201 6.29409,-3.51467c1.26305,1.41613 -3.82818,5.87502 -3.92078,6.23047c-4.10524,4.48935 -11.12415,10.07436 -14.97487,7.72365z" data-paper-data="{&quot;index&quot;:null}" fill="#161830" stroke="#00021d" stroke-width="2.5" stroke-linecap="butt"/><g data-paper-data="{&quot;index&quot;:null}"><path d="M447.76179,142.25264c1.27716,-1.45098 3.47146,-1.60712 4.90111,-0.34874c1.42965,1.25838 1.55326,3.45475 0.2761,4.90573c-1.27716,1.45098 -3.47146,1.60712 -4.90111,0.34874c-1.42965,-1.25838 -1.55326,-3.45475 -0.2761,-4.90573z" fill="#00021d" stroke="#00021d" stroke-width="12" stroke-linecap="butt"/><g><path d="M457.37605,153.80699l-5.24788,7.06824l-3.63597,-0.48167l-29.73705,19.99765c0,0 -4.07757,2.26795 -6.50165,0.16427c-1.81717,-1.57698 0.4347,-5.17194 0.4347,-5.17194l21.91564,-27.68143l-0.47042,-2.86533l6.34317,-6.83403l11.49241,4.53995z" fill="#5c2a2a" stroke="none" stroke-width="0" stroke-linecap="butt"/><path d="M457.06428,153.96061l-5.7963,6.88789l-10.80765,-22.83494l11.24269,4.92664z" fill-opacity="0.08443" fill="#ffffff" stroke="none" stroke-width="0" stroke-linecap="butt"/><path d="M457.24106,154.07828l-4.34798,6.62964l-4.85945,0.12685l-29.29964,18.87385c0,0 -3.59285,3.08622 -6.0282,0.55891c-2.71408,-2.81659 0.457,-5.16129 0.457,-5.16129l38.53411,-32.792z" fill-opacity="0.08443" fill="#ffffff" stroke="none" stroke-width="0" stroke-linecap="butt"/><path d="M457.58997,153.82139l-5.48189,7.33409l-3.33348,-0.82533l-29.29731,19.93048c0,0 -4.20632,2.6096 -6.91543,0.16949c-2.70703,-2.43825 -0.00939,-5.93229 -0.00939,-5.93229l22.33157,-26.85664l-0.77179,-3.0816l6.57384,-6.53748l11.4659,4.57005z" fill="none" stroke="#00021d" stroke-width="3.5" stroke-linecap="butt"/><path d="M434.2917,147.37066l9.05348,4.42671l5.68642,9.1969" fill="none" stroke="#00021d" stroke-width="1.5" stroke-linecap="round"/><path d="M457.56626,153.86014l-5.26085,6.75867l-3.94656,-0.00217l-28.64339,19.64179c0,0 -4.69071,2.38358 -6.95769,0.39594c-2.71604,-2.38136 -0.0204,-6.42699 -0.0204,-6.42699l22.13127,-26.20657l-0.37619,-3.75106l6.47466,-6.55024l11.05502,4.37658z" fill="#a23a3a" stroke="none" stroke-width="0" stroke-linecap="butt"/></g><g stroke-linecap="butt"><g><path d="M385.95481,162.07063c0,0 -3.74096,-2.38031 -2.65351,-4.76484c0.8152,-1.78752 5.14143,-1.15895 5.14143,-1.15895l28.60861,15.48529c-0.30027,0.39816 -0.57449,0.82384 -0.81889,1.2759c-1.15678,2.13959 -1.45325,4.51376 -1.00781,6.72527c-0.52705,0.93637 -0.94986,1.65917 -1.12736,1.89749z" fill="#a23a3a" stroke="none" stroke-width="0"/><path d="" fill-opacity="0.08443" fill="#ffffff" stroke="none" stroke-width="0"/><path d="M386.73671,161.57341c0,0 -4.2811,-1.91787 -2.81263,-4.38448c0.01413,0.09827 1.01046,-0.25117 1.01046,-0.25117l30.09452,20.52081c-0.01507,0.76403 0.05784,1.52415 0.21423,2.2653c-0.41073,0.68967 -0.87808,1.44586 -1.19723,1.87575z" fill="#a23a3a" stroke="none" stroke-width="0"/><path d="M414.13294,181.64692l-27.59682,-19.22545c0,0 -3.96823,-2.70105 -2.67197,-5.38121c1.29527,-2.67813 4.90812,-0.47593 4.90812,-0.47593l28.19507,15.1808" fill="none" stroke="#00021d" stroke-width="3.5"/></g><path d="M414.66794,180.95068l-27.68603,-19.37216c0,0 -3.30643,-1.86688 -2.01019,-4.54706c0.61084,-1.21087 3.50439,0.39306 3.50439,0.39306l28.0117,15.03833" fill="none" stroke="#a23a3a" stroke-width="1.75"/></g><path d="M433.83378,147.78014l9.89094,4.43852l4.74235,9.15632" fill="none" stroke="#00021d" stroke-width="1.5" stroke-linecap="round"/></g><g stroke-linecap="butt"><path d="M376.69391,161.90928c-0.15312,8.65181 -6.05156,15.52984 -13.17456,15.36252c-7.123,-0.16733 -12.7732,-7.31664 -12.62008,-15.96846c0.03103,-1.75333 0.33187,-3.026 0.85118,-3.93946c0.30706,-0.54012 0.93975,-1.27335 0.93975,-1.27335l21.91787,-0.02303c0,0 0.99495,0.69791 1.33422,1.31698c0.52544,0.95877 0.7893,2.39559 0.75162,4.52479z" fill="#3c2222" stroke="none" stroke-width="0"/><path d="M362.23779,177.13846c-5.76711,-0.5006 -9.85714,-9.28571 -9.85714,-9.28571l21.28571,1.57143c0,0 -3.22691,8.4262 -11.42857,7.71428z" fill-opacity="0.08443" fill="#ffffff" stroke="none" stroke-width="0"/><path d="M358.95206,176.13846l6.14286,-20l10.71428,0.28571c0,0 0.82593,9.90201 -2.57143,14.57143c-5.89564,8.10314 -14.28572,5.14286 -14.28572,5.14286z" fill-opacity="0.08443" fill="#ffffff" stroke="none" stroke-width="0"/><path d="M376.55101,161.76639c-0.15311,8.65181 -6.05156,15.52985 -13.17455,15.36252c-7.123,-0.16733 -12.7732,-7.31665 -12.62008,-15.96846c0.03103,-1.75332 0.33187,-3.026 0.85118,-3.93946c0.30706,-0.54011 0.93974,-1.27334 0.93974,-1.27334l21.91788,-0.02303c0,0 0.99495,0.69791 1.33422,1.31698c0.52544,0.95876 0.7893,2.39558 0.75162,4.52479z" fill="none" stroke="#00021d" stroke-width="3.5"/><path d="M364.21577,176.99564c-9.74878,-0.17107 -13.26096,-8.31498 -13.46821,-14.39323c-0.12766,-3.74398 1.85649,-6.61844 1.85649,-6.61844h21.84107c0,0 2.31457,3.09367 1.87335,7.34868c-0.62338,6.01169 -4.81991,13.79078 -12.10271,13.66299z" fill="#a23a3a" stroke="none" stroke-width="0"/></g><path d="M368.778,151.23478v-3.1h6.9v3.1z" fill="#b1a785" stroke="#00021d" stroke-width="1.5" stroke-linecap="butt"/><path d="M365.82438,154.80973l-2.35196,-1.64182l0.97141,-1.16246l-0.69556,-1.09336l2.07611,-0.5587h13.24523l1.94056,0.56943l-1.15023,1.0814l1.19027,1.16369l-1.98059,1.64182z" fill="#71521d" stroke="none" stroke-width="0" stroke-linecap="butt"/><g stroke-linecap="butt"><path d="M346.50307,121.90503c0,-14.29037 11.58463,-25.875 25.875,-25.875c14.29037,0 25.875,11.58463 25.875,25.875c0,14.29037 -11.58463,25.875 -25.875,25.875c-14.29037,0 -25.875,-11.58463 -25.875,-25.875z" fill="#fff1bf" stroke="none" stroke-width="0"/><path d="M346.97092,128.7348c0,0 -4.68232,-32.65417 27.28572,-32.42857c14.87492,0.10498 23.02602,14.8374 23.8695,24.25904c0.51139,5.71218 -1.29807,7.74097 -1.29807,7.74097l0.14285,1.57143c0,0 -1.82509,2.21435 -10.1223,-0.21313c-6.22603,-1.82152 -15.08335,-9.8676 -23.44518,-9.81699c-10.28352,0.06224 -16.43252,8.88726 -16.43252,8.88726z" fill-opacity="0.28957" fill="#000000" stroke="none" stroke-width="0"/><path d="M346.50307,121.80502c0,-14.29037 11.58463,-25.875 25.875,-25.875c14.29037,0 25.875,11.58463 25.875,25.875c0,14.29037 -11.58463,25.875 -25.875,25.875c-14.29037,0 -25.875,-11.58463 -25.875,-25.875z" fill="none" stroke="#00021d" stroke-width="3.5"/></g><g fill="none" stroke="#161830" stroke-width="3.5" stroke-linecap="round"><path d="M371.39942,136.32408v-13.28572"/><path d="M385.68517,136.75262v-13.28571"/></g><g><path d="M383.06319,225.00914l-10.49814,3.11839l-8.72956,-2.81602" fill="none" stroke="#00021d" stroke-width="12" stroke-linecap="round"/><path d="M354.95224,223.57075l-0.05175,-9.53l1.75737,-6.46318l1.06503,-52.61219l29.1552,0.16667l2.1872,52.9638l3.44603,5.67413v10.83243l-20.03008,6.18996z" fill="#5c2a2a" stroke="none" stroke-width="0" stroke-linecap="butt"/><path d="M371.29142,157.35466l1.69581,6.78325l-0.96903,6.78325l0.48452,2.18033" fill="none" stroke="#c2c2c2" stroke-width="3.5" stroke-linecap="round"/><path d="M382.34784,173.49856l0.48452,-2.18033l-0.96903,-6.78324l1.69581,-6.78324" data-paper-data="{&quot;index&quot;:null}" fill="none" stroke="#c2c2c2" stroke-width="3.5" stroke-linecap="round"/><path d="M382.57868,227.32397l-20.10747,-71.70858l24.39072,0.72677l2.61091,51.81776l3.01719,6.96899l-0.221,8.80345z" fill-opacity="0.08443" fill="#ffffff" stroke="none" stroke-width="0" stroke-linecap="butt"/><path d="M354.73743,223.69011l-0.29821,-9.10644l34.92273,-19.96462l-0.14631,13.31464l3.10417,5.81397l-0.05076,9.94245l-19.86522,6.78324z" fill-opacity="0.08443" fill="#ffffff" stroke="none" stroke-width="0" stroke-linecap="butt"/><path d="M355.0877,223.55253l-0.19461,-9.58151l1.47165,-6.25839l1.39836,-52.10791h28.82187l2.1872,52.62123l3.44604,5.61974v10.7286l-20.03009,6.13063z" fill="none" stroke="#00021d" stroke-width="3.5" stroke-linecap="butt"/><g stroke-linecap="butt"><path d="M366.90764,219.32537v-4.79834l4.53286,-7.99722l16.73672,-0.12304l3.75332,7.08447l0.1984,5.83413l-13.15254,4.56744z" fill="#694646" stroke="none" stroke-width="0"/><path d="M366.78014,220.03126l25.22131,-7.47411l-0.2,6.6741l-12.006,4.44445z" fill-opacity="0.14806" fill="#ffffff" stroke="none" stroke-width="0"/><path d="M367.02379,219.81752l0.34868,-4.3062h24.17527l0.69736,3.87531l-12.785,4.4753z" fill-opacity="0.08443" fill="#ffffff" stroke="none" stroke-width="0"/><path d="M382.12443,206.99187l5.77301,0.22222l4.09766,6.9714l-1.0537,6.0286l-3.33363,0.77855z" fill-opacity="0.08443" fill="#ffffff" stroke="none" stroke-width="0"/><path d="M366.63321,219.40398v-4.79834l4.53287,-7.99722l16.73673,-0.12304l3.75332,7.08447l0.1984,5.83412l-12.75254,3.96744z" fill="none" stroke="#00021d" stroke-width="3.5"/></g><path d="M354.98484,223.29814l-0.16473,-9.61483l1.51762,-6.01712l1.1553,-52.44962l29.02113,-0.03577l2.37553,53.23432l3.69094,6.17511l-0.32395,10.4263l-19.93561,5.97105z" fill="#a23a3a" stroke="none" stroke-width="0" stroke-linecap="butt"/></g><path d="M363.51346,141.69813l4.03144,0.93643" fill="none" stroke="#161830" stroke-width="1.5" stroke-linecap="round"/><path d="M367.12908,213.68619l4.25,-6.75h16.5l4,7.5l-1,5.25l-12.75,3.5l-11.75,-4z" fill="none" stroke="#000000" stroke-width="3" stroke-linecap="round"/><g data-paper-data="{&quot;index&quot;:null}"><path d="M295.06255,147.15837c-1.42964,1.25838 -3.62395,1.10224 -4.9011,-0.34874c-1.27716,-1.45099 -1.15355,-3.64736 0.2761,-4.90573c1.42964,-1.25838 3.62395,-1.10224 4.9011,0.34874c1.27716,1.45099 1.15355,3.64736 -0.2761,4.90573z" fill="#00021d" stroke="#00021d" stroke-width="12" stroke-linecap="butt"/><g><path d="M291.13142,142.54268l11.49241,-4.53995l6.34317,6.83403l-0.47041,2.86534l21.91564,27.68143c0,0 2.25187,3.59497 0.4347,5.17195c-2.42408,2.10368 -6.50165,-0.16427 -6.50165,-0.16427l-29.73705,-19.99765l-3.63597,0.48167l-5.24788,-7.06823z" fill="#5c2a2a" stroke="none" stroke-width="0" stroke-linecap="butt"/><path d="M291.39741,142.94019l11.24269,-4.92664l-10.80765,22.83494l-5.7963,-6.88788z" fill-opacity="0.08443" fill="#ffffff" stroke="none" stroke-width="0" stroke-linecap="butt"/><path d="M291.40352,142.31423l38.53411,32.792c0,0 3.17108,2.34471 0.457,5.16129c-2.43535,2.52731 -6.0282,-0.55891 -6.0282,-0.55891l-29.29964,-18.87385l-4.85944,-0.12684l-4.34798,-6.62964z" fill-opacity="0.08443" fill="#ffffff" stroke="none" stroke-width="0" stroke-linecap="butt"/><path d="M290.94844,142.59216l11.4659,-4.57005l6.57384,6.53748l-0.77178,3.0816l22.33157,26.85664c0,0 2.69764,3.49404 -0.0094,5.93229c-2.7091,2.44011 -6.91543,-0.1695 -6.91543,-0.1695l-29.29731,-19.93048l-3.33347,0.82533l-5.48189,-7.33409z" fill="none" stroke="#00021d" stroke-width="3.5" stroke-linecap="butt"/><path d="M294.06883,160.99427l5.68642,-9.1969l9.05348,-4.42671" fill="none" stroke="#00021d" stroke-width="1.5" stroke-linecap="round"/><path d="M291.07831,142.09608l11.05501,-4.37658l6.47466,6.55024l-0.37619,3.75106l22.13128,26.20657c0,0 2.69564,4.04562 -0.0204,6.42699c-2.26698,1.98764 -6.9577,-0.39594 -6.9577,-0.39594l-28.64339,-19.64179l-3.94656,0.00217l-5.26086,-6.75866z" fill="#a23a3a" stroke="none" stroke-width="0" stroke-linecap="butt"/></g><g stroke-linecap="butt"><g><path d="M329.00316,181.53079c-0.1775,-0.23832 -0.60032,-0.96112 -1.12736,-1.89749c0.44544,-2.21151 0.14897,-4.58569 -1.00781,-6.72527c-0.24441,-0.45206 -0.51863,-0.87774 -0.81889,-1.2759l28.60861,-15.48529c0,0 4.32623,-0.62857 5.14143,1.15895c1.08744,2.38452 -2.65351,4.76484 -2.65351,4.76484z" fill="#a23a3a" stroke="none" stroke-width="0"/><path d="" fill-opacity="0.08443" fill="#ffffff" stroke="none" stroke-width="0"/><path d="M329.05436,181.59962c-0.31915,-0.42988 -0.7865,-1.18608 -1.19722,-1.87575c0.15639,-0.74115 0.2293,-1.50127 0.21423,-2.2653l30.09453,-20.52081c0,0 0.99634,0.34944 1.01046,0.25117c1.46847,2.46662 -2.81263,4.38448 -2.81263,4.38448z" fill="#a23a3a" stroke="none" stroke-width="0"/><path d="M326.1331,171.74512l28.19507,-15.18081c0,0 3.61284,-2.2022 4.90811,0.47594c1.29626,2.68015 -2.67197,5.38121 -2.67197,5.38121l-27.59682,19.22545" fill="none" stroke="#00021d" stroke-width="3.5"/></g><path d="M326.61262,172.46284l28.0117,-15.03833c0,0 2.89355,-1.60393 3.50439,-0.39306c1.29625,2.68017 -2.01018,4.54706 -2.01018,4.54706l-27.68603,19.37216" fill="none" stroke="#a23a3a" stroke-width="1.75"/></g><path d="M294.63336,161.37499l4.74235,-9.15632l9.89094,-4.43852" fill="none" stroke="#00021d" stroke-width="1.5" stroke-linecap="round"/></g><path d="M343.12452,125.06255c0,0 -1.8884,-18.43735 8.2858,-26.64704c9.57718,-7.72794 31.29564,-5.41055 30.01083,-0.78463c27.61158,9.95404 38.15639,46.23541 14.49228,36.06069c3.54457,-12.44091 -38.36941,-15.62859 -35.93906,-19.0354c-1.1735,-13.05198 -10.59219,10.35045 -13.19094,14.61719c-1.24771,2.04855 -1.01794,-1.4725 -2.10823,-0.40395c-1.1273,1.10482 -1.55067,-3.80686 -1.55067,-3.80686z" fill="#81584c" stroke="#00021d" stroke-width="3.5" stroke-linecap="butt"/></g></g></svg>