<svg version="1.1" xmlns="http://www.w3.org/2000/svg" xmlns:xlink="http://www.w3.org/1999/xlink" width="80.35817" height="211.92436" viewBox="0,0,80.35817,211.92436"><defs><radialGradient cx="240.14709" cy="176.0974" r="21.52948" gradientUnits="userSpaceOnUse" id="color-1"><stop offset="0" stop-color="#b97500"/><stop offset="1" stop-color="#6d4401"/></radialGradient></defs><g transform="translate(-199.86593,-73.96545)"><g data-paper-data="{&quot;isPaintingLayer&quot;:true}" fill-rule="nonzero" stroke-linejoin="miter" stroke-miterlimit="10" stroke-dasharray="" stroke-dashoffset="0" style="mix-blend-mode: normal"><path d="M246.17752,276.00877l-3.27155,-0.17628l-0.04233,-52.56233" fill="none" stroke="#00021d" stroke-width="12" stroke-linecap="round"/><g stroke-linecap="butt"><path d="M236.6939,151.90927c-0.15312,8.65181 -6.05156,15.52984 -13.17456,15.36252c-7.123,-0.16733 -12.7732,-7.31664 -12.62008,-15.96846c0.03103,-1.75333 0.33187,-3.026 0.85118,-3.93946c0.30706,-0.54012 0.93975,-1.27335 0.93975,-1.27335l21.91787,-0.02303c0,0 0.99495,0.69791 1.33422,1.31698c0.52544,0.95877 0.7893,2.39559 0.75162,4.52479z" fill="#3c2222" stroke="none" stroke-width="0"/><path d="M222.23778,167.13845c-5.76711,-0.5006 -9.85714,-9.28571 -9.85714,-9.28571l21.28571,1.57143c0,0 -3.22691,8.4262 -11.42857,7.71428z" fill-opacity="0.08443" fill="#ffffff" stroke="none" stroke-width="0"/><path d="M218.95205,166.13845l6.14286,-20l10.71428,0.28571c0,0 0.82593,9.90201 -2.57143,14.57143c-5.89564,8.10314 -14.28572,5.14286 -14.28572,5.14286z" fill-opacity="0.08443" fill="#ffffff" stroke="none" stroke-width="0"/><path d="M236.551,151.76639c-0.15311,8.65181 -6.05156,15.52985 -13.17455,15.36252c-7.123,-0.16733 -12.7732,-7.31665 -12.62008,-15.96846c0.03103,-1.75332 0.33187,-3.026 0.85118,-3.93946c0.30706,-0.54011 0.93974,-1.27334 0.93974,-1.27334l21.91788,-0.02303c0,0 0.99495,0.69791 1.33422,1.31698c0.52544,0.95876 0.7893,2.39558 0.75162,4.52479z" fill="none" stroke="#00021d" stroke-width="3.5"/><path d="M224.21576,166.99563c-9.74878,-0.17107 -13.26096,-8.31498 -13.46821,-14.39323c-0.12766,-3.74398 1.85649,-6.61844 1.85649,-6.61844h21.84107c0,0 2.31457,3.09367 1.87335,7.34868c-0.62338,6.01169 -4.81991,13.79078 -12.10271,13.66299z" fill="#71521d" stroke="none" stroke-width="0"/></g><g data-paper-data="{&quot;index&quot;:null}"><path d="M253.11529,227.53712c-0.11432,1.92962 -1.74824,3.40257 -3.64948,3.28993c-1.90124,-0.11263 -3.34983,-1.76819 -3.23552,-3.6978c0.11432,-1.92962 1.74824,-3.40257 3.64948,-3.28994c0,0 3.34984,1.76819 3.23552,3.69781z" fill="#00021d" stroke="#00021d" stroke-width="12" stroke-linecap="butt"/><g><path d="M249.42259,229.88494l-11.35839,-4.86557l0.30557,-9.31914l2.35116,-1.70396l3.92069,-35.08825c0,0 0.93128,-4.13853 3.33204,-3.97939c3.20258,0.2123 4.50217,4.69351 4.50217,4.69351l7.04345,35.13671l2.92152,2.21742l-1.24836,8.71446z" fill="#5c2a2a" stroke="none" stroke-width="0" stroke-linecap="butt"/><path d="M249.5136,229.41538l-11.45325,-4.41512l23.75077,-8.6105l-0.7319,8.97242z" fill-opacity="0.08443" fill="#ffffff" stroke="none" stroke-width="0" stroke-linecap="butt"/><path d="M249.06854,229.85566l-4.285,-50.41658c0,0 -0.60171,-3.89762 3.3087,-3.98753c3.50881,-0.08067 3.88809,4.64052 3.88809,4.64052l7.52387,34.03061l3.36213,3.5109l-1.57876,7.76945z" fill-opacity="0.08443" fill="#ffffff" stroke="none" stroke-width="0" stroke-linecap="butt"/><path d="M249.58747,229.9786l-11.36075,-4.82552l-0.06703,-9.27089l2.71745,-1.64542l3.04468,-34.79522c0,0 0.54362,-4.38063 4.1827,-4.20678c3.64184,0.17398 4.79237,4.98848 4.79237,4.98848l6.7784,34.77945l2.9486,1.7604l-1.26931,9.06802z" fill="none" stroke="#00021d" stroke-width="3.5" stroke-linecap="butt"/><path d="M260.32532,214.71191l-10.51293,2.52916l-9.54642,-3.22911" fill="none" stroke="#00021d" stroke-width="1.5" stroke-linecap="round"/><path d="M249.14603,230.23949l-10.93272,-4.67369l0.01241,-9.21014l2.90774,-2.39937l2.72932,-34.19252c0,0 0.93331,-4.771 4.53875,-4.55042c3.00931,0.18411 4.66299,5.17907 4.66299,5.17907l6.51717,34.11408l2.80458,2.77663l-1.02122,8.50372z" fill="#71521d" stroke="none" stroke-width="0" stroke-linecap="butt"/></g><g stroke-linecap="butt"><g><path d="M253.56397,184.04237c-1.11981,0.16297 -10.11136,0.11395 -10.11136,0.11395l-0.01673,-34.75384c0,0 1.50462,-4.10456 3.46474,-3.97152c2.61477,0.17748 2.92945,4.60034 2.92945,4.60034z" fill="#6a3c3c" stroke="none" stroke-width="0"/><path d="" fill-opacity="0.08443" fill="#ffffff" stroke="none" stroke-width="0"/><path d="M253.64887,184.03008c-1.14808,0.16529 -3.97418,0.21401 -3.97418,0.21401l-3.87458,-37.55146c0,0 0.78124,-0.71026 0.70151,-0.76941c2.86819,-0.11862 2.51919,4.55942 2.51919,4.55942z" fill="#71521d" stroke="none" stroke-width="0"/><path d="M243.58601,184.71995l0.06037,-34.82905c0,0 -0.21892,-4.22544 2.75296,-4.09113c2.97413,0.13442 3.46287,4.90972 3.46287,4.90972l3.78694,33.4195" fill="none" stroke="#00021d" stroke-width="3.5"/></g><path d="M244.44166,184.77063l0.10229,-34.73115c0,0 -0.03474,-3.30818 1.32092,-3.26962c2.97414,0.13442 3.04384,3.93085 3.04384,3.93085l3.87357,33.56773" fill="none" stroke="#71521d" stroke-width="1.75"/></g></g><path d="M228.77799,141.23478v-3.1h6.9v3.1z" fill="#b1a785" stroke="#00021d" stroke-width="1.5" stroke-linecap="butt"/><path d="M223.69928,279.88981l-4.02673,-0.96843l2.24986,-56.21831" fill="none" stroke="#00021d" stroke-width="12" stroke-linecap="round"/><path d="M225.82437,144.80973l-2.35196,-1.64182l0.97141,-1.16246l-0.69556,-1.09336l2.07611,-0.5587h13.24523l1.94056,0.56943l-1.15023,1.0814l1.19027,1.16369l-1.98059,1.64182z" fill="#71521d" stroke="none" stroke-width="0" stroke-linecap="butt"/><g stroke-linecap="butt"><path d="M206.50306,111.90502c0,-14.29037 11.58463,-25.875 25.875,-25.875c14.29037,0 25.875,11.58463 25.875,25.875c0,14.29037 -11.58463,25.875 -25.875,25.875c-14.29037,0 -25.875,-11.58463 -25.875,-25.875z" fill="#fff1bf" stroke="none" stroke-width="0"/><path d="M206.97091,118.73479c0,0 -4.68232,-32.65417 27.28572,-32.42857c14.87492,0.10498 23.02602,14.8374 23.8695,24.25904c0.51139,5.71218 -1.29807,7.74097 -1.29807,7.74097l0.14285,1.57143c0,0 -1.82509,2.21435 -10.1223,-0.21313c-6.22603,-1.82152 -15.08335,-9.8676 -23.44518,-9.81699c-10.28352,0.06224 -16.43252,8.88726 -16.43252,8.88726z" fill-opacity="0.28957" fill="#000000" stroke="none" stroke-width="0"/><path d="M206.50306,111.80501c0,-14.29037 11.58463,-25.875 25.875,-25.875c14.29037,0 25.875,11.58463 25.875,25.875c0,14.29037 -11.58463,25.875 -25.875,25.875c-14.29037,0 -25.875,-11.58463 -25.875,-25.875z" fill="none" stroke="#00021d" stroke-width="3.5"/></g><g fill="none" stroke="#161830" stroke-width="3.5" stroke-linecap="round"><path d="M231.39941,126.32407v-13.28572"/><path d="M245.68516,113.4669v13.28571"/></g><g><path d="M243.06318,215.00913l-10.49814,3.11839l-8.72956,-2.81602" fill="none" stroke="#00021d" stroke-width="12" stroke-linecap="round"/><path d="M214.95223,213.57074l-0.05175,-9.53l1.75737,-6.46318l1.06503,-52.61219l29.1552,0.16667l2.1872,52.9638l3.44603,5.67413v10.83243l-20.03008,6.18996z" fill="#5c2a2a" stroke="none" stroke-width="0" stroke-linecap="butt"/><path d="M231.29141,147.35465l1.69581,6.78325l-0.96903,6.78325l0.48452,2.18033" fill="none" stroke="#c2c2c2" stroke-width="3.5" stroke-linecap="round"/><path d="M242.34783,163.49855l0.48452,-2.18033l-0.96903,-6.78324l1.69581,-6.78324" data-paper-data="{&quot;index&quot;:null}" fill="none" stroke="#c2c2c2" stroke-width="3.5" stroke-linecap="round"/><path d="M242.57867,217.32396l-20.10747,-71.70858l24.39072,0.72677l2.61091,51.81776l3.01719,6.96899l-0.221,8.80345z" fill-opacity="0.08443" fill="#ffffff" stroke="none" stroke-width="0" stroke-linecap="butt"/><path d="M214.73742,213.6901l-0.29821,-9.10644l34.92273,-19.96462l-0.14631,13.31464l3.10417,5.81397l-0.05076,9.94245l-19.86522,6.78324z" fill-opacity="0.08443" fill="#ffffff" stroke="none" stroke-width="0" stroke-linecap="butt"/><path d="M215.08769,213.55252l-0.19461,-9.58151l1.47165,-6.25839l1.39836,-52.10791h28.82187l2.1872,52.62123l3.44604,5.61974v10.7286l-20.03009,6.13063z" fill="none" stroke="#00021d" stroke-width="3.5" stroke-linecap="butt"/><g stroke-linecap="butt"><path d="M226.90763,209.32536v-4.79834l4.53286,-7.99722l16.73672,-0.12304l3.75332,7.08447l0.1984,5.83413l-13.15254,4.56744z" fill="#694646" stroke="none" stroke-width="0"/><path d="M226.78013,210.03125l25.22131,-7.47411l-0.2,6.6741l-12.006,4.44445z" fill-opacity="0.14806" fill="#ffffff" stroke="none" stroke-width="0"/><path d="M227.02378,209.81751l0.34868,-4.3062h24.17527l0.69736,3.87531l-12.785,4.4753z" fill-opacity="0.08443" fill="#ffffff" stroke="none" stroke-width="0"/><path d="M242.12442,196.99186l5.77301,0.22222l4.09766,6.9714l-1.0537,6.0286l-3.33363,0.77855z" fill-opacity="0.08443" fill="#ffffff" stroke="none" stroke-width="0"/><path d="M226.6332,209.40397v-4.79834l4.53287,-7.99722l16.73673,-0.12304l3.75332,7.08447l0.1984,5.83412l-12.75254,3.96744z" fill="none" stroke="#00021d" stroke-width="3.5"/></g><path d="M214.98483,213.29813l-0.16473,-9.61483l1.51762,-6.01712l1.1553,-52.44962l29.02113,-0.03577l2.37553,53.23432l3.69094,6.17511l-0.32395,10.4263l-19.93561,5.97105z" fill="#71521d" stroke="none" stroke-width="0" stroke-linecap="butt"/></g><path d="M218.15358,227.5578c0.11431,1.92962 -1.33428,3.58518 -3.23552,3.69781c-1.90124,0.11263 -3.53516,-1.36032 -3.64948,-3.28994c-0.11431,-1.92962 1.33428,-3.58518 3.23552,-3.69781c1.90124,-0.11263 3.53516,1.36032 3.64948,3.28994z" fill="#00021d" stroke="#00021d" stroke-width="12" stroke-linecap="butt"/><g><path d="M203.1914,226.11927l-1.24836,-8.71446l2.92152,-2.21742l7.04345,-35.13671c0,0 1.29958,-4.48121 4.50216,-4.6935c2.40076,-0.15914 3.33204,3.97938 3.33204,3.97938l3.92069,35.08825l2.35116,1.70396l0.30557,9.31914l-11.35839,4.86557z" fill="#5c2a2a" stroke="none" stroke-width="0" stroke-linecap="butt"/><path d="M203.30466,225.79074l-0.73189,-8.97242l23.75077,8.61051l-11.45324,4.41512z" fill-opacity="0.08443" fill="#ffffff" stroke="none" stroke-width="0" stroke-linecap="butt"/><path d="M203.09627,225.83157l-1.57877,-7.76946l3.36213,-3.51089l7.52388,-34.03061c0,0 0.37928,-4.72118 3.88809,-4.64052c3.9104,0.08991 3.3087,3.98753 3.3087,3.98753l-4.28501,50.41658z" fill-opacity="0.08443" fill="#ffffff" stroke="none" stroke-width="0" stroke-linecap="butt"/><path d="M203.02931,226.25967l-1.26931,-9.06802l2.9486,-1.7604l6.7784,-34.77944c0,0 1.15053,-4.81451 4.79237,-4.98849c3.63908,-0.17384 4.1827,4.20679 4.1827,4.20679l3.04468,34.79522l2.71745,1.64542l-0.06703,9.2709l-11.36075,4.82552z" fill="none" stroke="#00021d" stroke-width="3.5" stroke-linecap="butt"/><path d="M224.11787,214.44051l-9.54642,3.22911l-10.51293,-2.52916" fill="none" stroke="#00021d" stroke-width="1.5" stroke-linecap="round"/><path d="M203.01882,226.21544l-1.02122,-8.50372l2.80457,-2.77663l6.51718,-34.11408c0,0 1.65368,-4.99496 4.66299,-5.17907c3.60543,-0.22059 4.53875,4.55041 4.53875,4.55041l2.72932,34.19252l2.90774,2.39938l0.0124,9.21014l-10.93272,4.67369z" fill="#71521d" stroke="none" stroke-width="0" stroke-linecap="butt"/></g><g stroke-linecap="butt"><g><path d="M214.55377,150.45986c0,0 0.31469,-4.42285 2.92945,-4.60034c1.96013,-0.13304 3.46474,3.97152 3.46474,3.97152l-0.01672,34.75384c0,0 -8.99155,0.04903 -10.11136,-0.11395z" fill="#71521d" stroke="none" stroke-width="0"/><path d="" fill-opacity="0.08443" fill="#ffffff" stroke="none" stroke-width="0"/><path d="M215.36303,150.91118c0,0 -0.349,-4.67805 2.51919,-4.55942c-0.07973,0.05916 0.70151,0.76941 0.70151,0.76941l-3.87459,37.55147c0,0 -2.82609,-0.04872 -3.97417,-0.21401z" fill="#71521d" stroke="none" stroke-width="0"/><path d="M210.7347,184.55757l3.78694,-33.41949c0,0 0.48874,-4.77531 3.46287,-4.90972c2.97188,-0.13431 2.75296,4.09113 2.75296,4.09113l0.06038,34.82904" fill="none" stroke="#00021d" stroke-width="3.5"/></g><path d="M211.60159,184.69703l3.87357,-33.56773c0,0 0.0697,-3.79643 3.04384,-3.93085c1.35567,-0.03856 1.32092,3.26962 1.32092,3.26962l0.10228,34.73115" fill="none" stroke="#71521d" stroke-width="1.75"/></g><path d="M223.51345,131.69812l4.03144,0.93643" fill="none" stroke="#161830" stroke-width="1.5" stroke-linecap="round"/><path d="M227.12907,203.68618l4.25,-6.75h16.5l4,7.5l-1,5.25l-12.75,3.5l-11.75,-4z" fill="none" stroke="#000000" stroke-width="3" stroke-linecap="round"/><path d="M230.82567,146.26076c1.66019,-0.5534 2.21359,1.1068 2.21359,1.1068l0.2959,1.08267c2.52534,4.06849 0.33835,9.7479 1.02632,14.47324c0,0 0.24748,1.73241 -1.48493,1.97989c-1.73241,0.24748 -1.97989,-1.48492 -1.97989,-1.48492c-0.33685,-2.39776 -0.43626,-4.94767 -0.26318,-7.37154c0.15305,-2.14343 1.14769,-3.8533 -0.2105,-5.65522l-0.7041,-1.91732c0,0 -0.5534,-1.6602 1.1068,-2.2136z" fill="#cccccc" stroke="none" stroke-width="0.5" stroke-linecap="butt"/><path d="M245.28926,147.36756c0.43115,1.29344 -0.48131,1.91508 -0.9055,2.12661c-0.38499,1.42465 -1.03324,2.77766 -1.26981,4.15625c-0.26779,1.56057 1.33288,3.36999 1.5,4.79108c0.23903,2.03251 -0.99322,3.77545 -1.25248,5.72695c0,0 -0.24749,1.73241 -1.97989,1.48492c-1.73241,-0.24748 -1.48493,-1.97989 -1.48493,-1.97989c0.19262,-1.27917 1.48038,-3.5476 1.24752,-4.77305c-0.37275,-1.96163 -1.77917,-3.5003 -1.5,-5.70892c0.21639,-1.71194 1.24999,-3.4689 1.50248,-5.26803l1.92901,-1.66271c0,0 1.66019,-0.5534 2.21359,1.1068z" fill="#cccccc" stroke="none" stroke-width="0.5" stroke-linecap="butt"/><path d="M224.16266,214.38325l-9,3.75l-10.5,-2.75" fill="none" stroke="#000000" stroke-width="1.5" stroke-linecap="round"/><path d="M260.99705,214.60368l-11.75,3" fill="none" stroke="#000000" stroke-width="1.5" stroke-linecap="round"/><path d="M223.0637,181.32774c0,-7.20447 5.84039,-13.04485 13.04486,-13.04485c7.20447,0 13.04485,5.84038 13.04485,13.04485c0,7.20447 -5.84038,13.04485 -13.04485,13.04485c-7.20447,0 -13.04486,-5.84038 -13.04486,-13.04485z" fill="#000000" stroke="#000000" stroke-width="1.5" stroke-linecap="butt"/><path d="M223.53616,181.32774c0,-6.94354 5.62885,-12.5724 12.5724,-12.5724c6.94354,0 12.5724,5.62886 12.5724,12.5724c0,6.94354 -5.62885,12.5724 -12.57239,12.5724c-6.94354,0 -12.57239,-5.62886 -12.57239,-12.57239z" fill="url(#color-1)" stroke="#6d4500" stroke-width="1.5" stroke-linecap="butt"/><path d="M232.81538,171.27398c0,1.43237 -1.16117,2.59352 -2.59352,2.59352c-1.11183,0 -2.06025,-0.74681 -2.42905,-1.72983c-0.02298,-0.06123 0.91389,-0.88671 1.99767,-1.52188c1.11545,-0.65373 2.38095,-1.16147 2.51555,-0.98006c0.32004,0.43134 0.50935,1.05988 0.50935,1.63826z" fill="#000000" stroke="#6d4500" stroke-width="1.5" stroke-linecap="butt"/><path d="M240.10383,174.29444c0,1.4113 -1.22946,2.55539 -2.74608,2.55539c-1.51663,0 -2.74609,-1.14409 -2.74609,-2.55539c0,-1.4113 1.22947,-2.55539 2.74609,-2.55539c1.51663,0 2.74608,1.14409 2.74608,2.55539z" fill="#000000" stroke="#6d4500" stroke-width="1.5" stroke-linecap="butt"/><path d="M233.39118,178.14657c0,1.4745 -1.24654,2.6698 -2.78423,2.6698c-1.53769,0 -2.78422,-1.19531 -2.78422,-2.6698c0,-1.4745 1.24654,-2.66981 2.78422,-2.66981c1.53769,0 2.78423,1.19531 2.78423,2.66981z" fill="#000000" stroke="#6d4500" stroke-width="1.5" stroke-linecap="butt"/><path d="M203.1245,115.06253c0,0 3.39639,-47.39956 11.60912,-28.14953c8.62602,-9.5311 29.33723,-8.82236 26.68751,0.71786c27.61158,9.95404 37.05335,-7.12623 37.05335,-7.12623c0,0 1.10304,53.36164 -22.56107,43.18692c3.54457,-12.44091 -38.36941,-15.62859 -35.93906,-19.0354c-1.1735,-13.05198 -10.59219,10.35045 -13.19094,14.61719c-1.24771,2.04855 -1.01794,-1.4725 -2.10823,-0.40395c-1.1273,1.10482 -1.55067,-3.80686 -1.55067,-3.80686z" fill="#fdfd96" stroke="#00021d" stroke-width="3.5" stroke-linecap="butt"/></g></g></svg>