<svg version="1.1" xmlns="http://www.w3.org/2000/svg" xmlns:xlink="http://www.w3.org/1999/xlink" width="1033.5" height="629.5" viewBox="0,0,1033.5,629.5"><g transform="translate(84.45001,91.11668)"><g data-paper-data="{&quot;isPaintingLayer&quot;:true}" fill-rule="nonzero" stroke-linecap="butt" stroke-linejoin="miter" stroke-miterlimit="10" stroke-dasharray="" stroke-dashoffset="0" style="mix-blend-mode: normal"><path d="M-81.70001,535.63332v-624h1028v624z" fill="#95d6ff" stroke="#00021d" stroke-width="5.5"/><path d="M102.93594,158.02271c0.85771,-0.74938 1.79988,-1.45256 2.83482,-2.10319c5.31608,-3.34204 13.7172,-2.68829 19.97367,-2.68829c2.002,0 4.06041,-0.47188 6.00601,0c5.37447,1.30352 12.08943,1.10992 15.73093,5.27208c3.4456,3.93825 4.76499,9.91576 5.19259,16.1496c0.13743,0.20501 0.26896,0.4145 0.39421,0.62868c1.06994,1.82969 1.90335,6.11532 2.35722,10.67343c0.51325,0.11595 1.02815,0.22246 1.54655,0.30925c0.52099,0 1.04197,0 1.56296,0c0.99186,-0.19031 2.11655,-0.54392 1.74408,0h3.003v0c9.94113,0 18,8.05887 18,18c0,9.94113 -8.05887,18 -18,18h-3.003c-1.37433,0.90237 -3.18118,0.48571 -4.90037,0.14552c-5.00527,0.23323 -10.60374,0.59273 -15.45833,-0.15841c-0.83787,0.37372 -1.68427,0.71781 -2.53278,1.03287c-5.83677,2.1673 -17.34634,0.13599 -26.15286,-2.52148c-12.18042,0 -24.36083,0 -36.54125,0c0,0 -18,0 -18,-18c0,-18 18,-18 18,-18c5.00759,0 10.03559,-0.05975 15.0736,-0.13419c-0.07765,-1.47227 -0.07036,-2.94987 -0.04057,-4.38833c0.09817,-4.74032 0.29124,-9.87689 2.68829,-13.96766c1.96002,-3.34495 5.93338,-6.27124 10.52124,-8.24986z" fill="#daf1ff" stroke="none" stroke-width="0.5"/><path d="M605.07843,144.42424c2.96524,-0.66699 5.62992,-0.58739 8.15536,-0.02981c0.92338,-5.60994 3.41174,-11.04455 7.82662,-15.81336c1.73869,-1.87807 4.24763,-2.48322 6.91869,-2.82044c0.6518,-1.57389 1.2546,-3.17254 1.94131,-4.72879c5.74414,-1.75736 11.35285,-4.04159 17.23243,-5.27208c5.95733,-1.24676 17.32906,3.82682 20.41935,5.97586c5.02786,3.49646 9.14203,8.24405 12.91038,13.07149c1.44345,1.84912 1.77832,4.32692 2.60359,6.53645c1.19643,1.89141 2.22429,3.919 3.00996,6.00358c3.90553,0.03695 6.78751,0.09289 7.48355,0.17658c3.1428,0.3779 5.90668,2.37404 9.00901,3.003c1.73893,0.35255 3.64802,-0.68568 5.32202,-0.09756c6.23062,2.18897 13.38458,3.5604 17.99441,8.28922c4.44054,4.55517 3.89011,15.12182 3.8123,21.58793c-0.02689,2.23489 0.58665,4.58841 -0.13486,6.7038c-2.13188,6.25038 -2.78565,14.34434 -8.28922,17.99441c-7.48237,4.96244 -38.49523,3.8123 -47.11346,3.8123c-4.731,0 -45.4451,0.00962 -46.23714,-0.03952c-7.75848,-0.48137 -15.38503,-2.27612 -23.11955,-3.05262c-7.82149,-0.78523 -15.74965,-0.48112 -23.526,-1.63031c-6.17482,-0.91252 -12.07261,-5.31952 -18.22843,-4.28656c0,0 -18,0 -18,-18c0,-18 18,-18 18,-18c4.54385,0.11779 8.97081,1.21805 13.39711,2.37062c-0.88088,-2.12314 -1.36708,-4.45136 -1.36708,-6.89315c0,-9.94113 8.05887,-18 18,-18c2.13775,0 4.18845,0.37266 6.0907,1.05657l4.1059,1.36863c0.62698,-0.14633 1.18507,0.38579 1.78304,0.71375z" fill="#daf1ff" stroke="none" stroke-width="0.5"/><path d="M263.49168,92.15385c-0.74871,-3.74027 0.03353,-11.63434 0.03353,-15.03073c0,-3.70857 -0.19821,-14.16905 0.77234,-17.22813c1.07436,-3.38628 3.25592,-6.33534 5.25375,-9.27299c2.11773,-3.11395 3.97398,-6.65788 7.05402,-8.82462c10.03027,-7.05608 22.09265,-5.19678 33.44841,-5.19678c6.50651,0 13.01301,0 19.51952,0c12.80497,0 24.42931,-1.02333 36.53411,4.88126c10.66792,5.20369 17.96904,15.26625 21.40342,26.51674c0.328,1.07448 0.52156,8.69167 0.58939,15.1434c0.01055,0.00171 0.02109,0.00343 0.03163,0.00515c7.83892,1.28157 18.2473,-0.90689 23.23843,5.27208c13.95355,17.27437 2.26303,32.38345 -12.4889,37.11736c-3.28636,1.0546 -6.66241,1.83295 -10.05174,2.48471c-0.36716,0.0706 -0.70027,-0.42073 -1.06675,-0.34665c-0.21629,0.04372 -0.04339,0.53605 -0.25025,0.61285c-3.23813,1.20216 -6.66917,2.8304 -10.08923,2.41275c1.71668,0.31501 -4.03818,2.58884 -6.17703,2.9804c-7.93905,1.45339 -15.73404,0.03946 -23.53535,-1.25241c-5.10137,-0.84477 -10.13086,-2.11204 -15.24974,-2.84331c-1.90516,-0.27217 -3.87374,0.16125 -5.77128,-0.15969c-1.43756,-0.24315 -2.8099,-0.75846 -4.19286,-1.23541c-1.14553,-0.02294 -2.29047,-0.03673 -3.43437,-0.03366c-21.02066,0.05642 -42.04226,0 -63.06306,0c0,0 -18,0 -18,-18c0,-18 18,-18 18,-18c2.49732,0 4.99465,-0.00087 7.492,-0.00231z" fill="#daf1ff" stroke="none" stroke-width="0.5"/><path d="M-24.5,420.5l-11,-124c0,0 11.07689,-48.76083 39.13313,-49.61205c34.18781,-1.03725 278.82898,50.1081 389.02431,53.50589c44.80045,1.38139 186.55506,-62.0354 224.8057,-55.05552c130.34591,23.7852 171.03686,26.16168 171.03686,26.16168l6,175.5z" fill="#94ff9f" stroke="#94ff9f" stroke-width="12"/></g></g></svg>