<svg version="1.1" xmlns="http://www.w3.org/2000/svg" xmlns:xlink="http://www.w3.org/1999/xlink" width="142.84784" height="211.92437" viewBox="0,0,142.84784,211.92437"><defs><radialGradient cx="251.43773" cy="176.09741" r="21.52948" gradientUnits="userSpaceOnUse" id="color-1"><stop offset="0" stop-color="#b97500"/><stop offset="1" stop-color="#6d4401"/></radialGradient></defs><g transform="translate(-168.60162,-73.96545)"><g data-paper-data="{&quot;isPaintingLayer&quot;:true}" fill-rule="nonzero" stroke-linejoin="miter" stroke-miterlimit="10" stroke-dasharray="" stroke-dashoffset="0" style="mix-blend-mode: normal"><g><g data-paper-data="{&quot;index&quot;:null}"><path d="M298.7666,86.44065c1.23397,-1.48789 3.42272,-1.70846 4.88873,-0.49265c1.46602,1.21581 1.65414,3.40759 0.42019,4.89549c-1.23397,1.48789 -3.42272,1.70847 -4.88873,0.49265c0,0 -1.65415,-3.4076 -0.42019,-4.89549z" fill="#00021d" stroke="#00021d" stroke-width="12" stroke-linecap="butt"/><g><path d="M303.13269,86.73306l6.27736,10.64339l-5.76072,7.33171l-2.90364,-0.01762l-23.92326,25.96603c0,0 -3.19962,2.78517 -5.0408,1.23629c-2.4561,-2.06619 -0.8521,-6.44768 -0.8521,-6.44768l15.11333,-32.49286l-1.04305,-3.51629l6.16293,-6.28637z" fill="#5c2a2a" stroke="none" stroke-width="0" stroke-linecap="butt"/><path d="M302.78146,87.05773l6.62037,10.33639l-24.24148,-7.1127l5.89923,-6.79994z" fill-opacity="0.08443" fill="#ffffff" stroke="none" stroke-width="0" stroke-linecap="butt"/><path d="M303.40078,86.96616l-26.37852,43.17831c0,0 -1.82126,3.49807 -5.0268,1.25665c-2.87633,-2.01122 -0.38842,-6.04159 -0.38842,-6.04159l14.07153,-31.88547l-0.63285,-4.81973l5.87009,-5.32906z" fill-opacity="0.08443" fill="#ffffff" stroke="none" stroke-width="0" stroke-linecap="butt"/><path d="M303.05519,86.55999l6.30295,10.61249l-5.43179,7.51329l-3.16428,-0.28155l-23.04369,26.24816c0,0 -3.03037,3.20972 -5.8611,0.91624c-2.83288,-2.29522 -0.9115,-6.85718 -0.9115,-6.85718l15.11559,-32.04802l-1.33531,-3.16389l6.38903,-6.559z" fill="none" stroke="#00021d" stroke-width="3.5" stroke-linecap="butt"/><path d="M285.3653,92.51318l9.97145,4.18192l5.78499,8.25198" fill="none" stroke="#00021d" stroke-width="1.5" stroke-linecap="round"/><path d="M303.56544,86.61088l6.04774,10.23682l-5.45989,7.41731l-3.76381,0.21364l-22.43282,25.94891c0,0 -3.57551,3.29382 -6.35147,0.98257c-2.31698,-1.9291 -0.69443,-6.93426 -0.69443,-6.93426l14.93246,-31.35707l-0.61787,-3.89789l5.85512,-6.2509z" fill="#71521d" stroke="none" stroke-width="0" stroke-linecap="butt"/></g><g stroke-linecap="butt"><g><path d="M272.6679,121.23797c0.99915,0.53124 8.21859,5.8913 8.21859,5.8913l-20.55128,28.02632c0,0 -3.64171,2.41852 -5.14311,1.15142c-2.00285,-1.6903 0.3606,-5.44195 0.3606,-5.44195z" fill="#6a3c3c" stroke="none" stroke-width="0"/><path d="" fill-opacity="0.08443" fill="#ffffff" stroke="none" stroke-width="0"/><path d="M272.59219,121.19763c1.02332,0.5461 3.33038,2.1791 3.33038,2.1791l-19.09675,32.56438c0,0 -1.05007,0.11029 -1.02079,0.20515c-2.38235,-1.60156 0.66711,-5.16619 0.66711,-5.16619z" fill="#71521d" stroke="none" stroke-width="0"/><path d="M281.11246,126.59597l-20.65794,28.04133c0,0 -2.32382,3.53583 -4.6401,1.66902c-2.31802,-1.86823 0.11365,-6.00698 0.11365,-6.00698l16.72241,-29.18159" fill="none" stroke="#00021d" stroke-width="3.5"/></g><path d="M280.45268,126.0488l-20.6338,27.9376c0,0 -1.92953,2.68741 -2.99956,1.85414c-2.31803,-1.86824 -0.12777,-4.96993 -0.12777,-4.96993l16.74028,-29.35234" fill="none" stroke="#71521d" stroke-width="1.75"/></g></g><path d="M296.00706,96.73732l-11.24731,-4.53437" fill="none" stroke="#000000" stroke-width="1.5" stroke-linecap="round"/></g><path d="M257.46816,276.00877l-3.27155,-0.17628l-0.04233,-52.56233" fill="none" stroke="#00021d" stroke-width="12" stroke-linecap="round"/><g stroke-linecap="butt"><path d="M247.98454,151.90928c-0.15312,8.65181 -6.05156,15.52984 -13.17456,15.36252c-7.123,-0.16733 -12.7732,-7.31664 -12.62008,-15.96846c0.03103,-1.75333 0.33187,-3.026 0.85118,-3.93946c0.30706,-0.54012 0.93975,-1.27335 0.93975,-1.27335l21.91787,-0.02303c0,0 0.99495,0.69791 1.33422,1.31698c0.52544,0.95877 0.7893,2.39559 0.75162,4.52479z" fill="#3c2222" stroke="none" stroke-width="0"/><path d="M233.52842,167.13844c-5.76711,-0.5006 -9.85714,-9.28571 -9.85714,-9.28571l21.28571,1.57143c0,0 -3.22691,8.4262 -11.42857,7.71428z" fill-opacity="0.08443" fill="#ffffff" stroke="none" stroke-width="0"/><path d="M230.24269,166.13844l6.14286,-20l10.71428,0.28571c0,0 0.82593,9.90201 -2.57143,14.57143c-5.89564,8.10314 -14.28572,5.14286 -14.28572,5.14286z" fill-opacity="0.08443" fill="#ffffff" stroke="none" stroke-width="0"/><path d="M247.84164,151.76639c-0.15311,8.65181 -6.05156,15.52985 -13.17455,15.36252c-7.123,-0.16733 -12.7732,-7.31665 -12.62008,-15.96846c0.03103,-1.75332 0.33187,-3.026 0.85118,-3.93946c0.30706,-0.54011 0.93974,-1.27334 0.93974,-1.27334l21.91788,-0.02303c0,0 0.99495,0.69791 1.33422,1.31698c0.52544,0.95876 0.7893,2.39558 0.75162,4.52479z" fill="none" stroke="#00021d" stroke-width="3.5"/><path d="M235.5064,166.99562c-9.74878,-0.17107 -13.26096,-8.31498 -13.46821,-14.39323c-0.12766,-3.74398 1.85649,-6.61844 1.85649,-6.61844h21.84107c0,0 2.31457,3.09367 1.87335,7.34868c-0.62338,6.01169 -4.81991,13.79078 -12.10271,13.66299z" fill="#71521d" stroke="none" stroke-width="0"/></g><path d="M240.06863,141.23478v-3.1h6.9v3.1z" fill="#b1a785" stroke="#00021d" stroke-width="1.5" stroke-linecap="butt"/><path d="M234.98992,279.88982l-4.02673,-0.96843l2.24986,-56.21831" fill="none" stroke="#00021d" stroke-width="12" stroke-linecap="round"/><path d="M237.11501,144.80972l-2.35196,-1.64182l0.97141,-1.16246l-0.69556,-1.09336l2.07611,-0.5587h13.24523l1.94056,0.56943l-1.15023,1.0814l1.19027,1.16369l-1.98059,1.64182z" fill="#71521d" stroke="none" stroke-width="0" stroke-linecap="butt"/><g stroke-linecap="butt"><path d="M217.7937,111.90502c0,-14.29037 11.58463,-25.875 25.875,-25.875c14.29037,0 25.875,11.58463 25.875,25.875c0,14.29037 -11.58463,25.875 -25.875,25.875c-14.29037,0 -25.875,-11.58463 -25.875,-25.875z" fill="#fff1bf" stroke="none" stroke-width="0"/><path d="M218.26155,118.73479c0,0 -4.68232,-32.65417 27.28572,-32.42857c14.87492,0.10498 23.02602,14.8374 23.8695,24.25904c0.51139,5.71218 -1.29807,7.74097 -1.29807,7.74097l0.14285,1.57143c0,0 -1.82509,2.21435 -10.1223,-0.21313c-6.22603,-1.82152 -15.08335,-9.8676 -23.44518,-9.81699c-10.28352,0.06224 -16.43252,8.88726 -16.43252,8.88726z" fill-opacity="0.28957" fill="#000000" stroke="none" stroke-width="0"/><path d="M217.7937,111.80501c0,-14.29037 11.58463,-25.875 25.875,-25.875c14.29037,0 25.875,11.58463 25.875,25.875c0,14.29037 -11.58463,25.875 -25.875,25.875c-14.29037,0 -25.875,-11.58463 -25.875,-25.875z" fill="none" stroke="#00021d" stroke-width="3.5"/></g><g><path d="M254.35382,215.00913l-10.49814,3.11839l-8.72956,-2.81602" fill="none" stroke="#00021d" stroke-width="12" stroke-linecap="round"/><path d="M226.24287,213.57074l-0.05175,-9.53l1.75737,-6.46318l1.06503,-52.61219l29.1552,0.16667l2.1872,52.9638l3.44603,5.67413v10.83243l-20.03008,6.18996z" fill="#5c2a2a" stroke="none" stroke-width="0" stroke-linecap="butt"/><path d="M242.58205,147.35466l1.69581,6.78325l-0.96903,6.78325l0.48452,2.18033" fill="none" stroke="#c2c2c2" stroke-width="3.5" stroke-linecap="round"/><path d="M253.63847,163.49856l0.48452,-2.18033l-0.96903,-6.78324l1.69581,-6.78324" data-paper-data="{&quot;index&quot;:null}" fill="none" stroke="#c2c2c2" stroke-width="3.5" stroke-linecap="round"/><path d="M253.86931,217.32396l-20.10747,-71.70858l24.39072,0.72677l2.61091,51.81776l3.01719,6.96899l-0.221,8.80345z" fill-opacity="0.08443" fill="#ffffff" stroke="none" stroke-width="0" stroke-linecap="butt"/><path d="M226.02806,213.6901l-0.29821,-9.10644l34.92273,-19.96462l-0.14631,13.31464l3.10417,5.81397l-0.05076,9.94245l-19.86522,6.78324z" fill-opacity="0.08443" fill="#ffffff" stroke="none" stroke-width="0" stroke-linecap="butt"/><path d="M226.37833,213.55253l-0.19461,-9.58151l1.47165,-6.25839l1.39836,-52.10791h28.82187l2.1872,52.62123l3.44604,5.61974v10.7286l-20.03009,6.13063z" fill="none" stroke="#00021d" stroke-width="3.5" stroke-linecap="butt"/><g stroke-linecap="butt"><path d="M238.19827,209.32537v-4.79834l4.53286,-7.99722l16.73672,-0.12304l3.75332,7.08447l0.1984,5.83413l-13.15254,4.56744z" fill="#694646" stroke="none" stroke-width="0"/><path d="M238.07077,210.03125l25.22131,-7.47411l-0.2,6.6741l-12.006,4.44445z" fill-opacity="0.14806" fill="#ffffff" stroke="none" stroke-width="0"/><path d="M238.31442,209.81751l0.34868,-4.3062h24.17527l0.69736,3.87531l-12.785,4.4753z" fill-opacity="0.08443" fill="#ffffff" stroke="none" stroke-width="0"/><path d="M253.41506,196.99186l5.77301,0.22222l4.09766,6.9714l-1.0537,6.0286l-3.33363,0.77855z" fill-opacity="0.08443" fill="#ffffff" stroke="none" stroke-width="0"/><path d="M237.92384,209.40398v-4.79834l4.53287,-7.99722l16.73673,-0.12304l3.75332,7.08447l0.1984,5.83412l-12.75254,3.96744z" fill="none" stroke="#00021d" stroke-width="3.5"/></g><path d="M226.27547,213.29814l-0.16473,-9.61483l1.51762,-6.01712l1.1553,-52.44962l29.02113,-0.03577l2.37553,53.23432l3.69094,6.17511l-0.32395,10.4263l-19.93561,5.97105z" fill="#71521d" stroke="none" stroke-width="0" stroke-linecap="butt"/></g><path d="M238.41971,203.68618l4.25,-6.75h16.5l4,7.5l-1,5.25l-12.75,3.5l-11.75,-4z" fill="none" stroke="#000000" stroke-width="3" stroke-linecap="round"/><path d="M242.11631,146.26075c1.66019,-0.5534 2.21359,1.1068 2.21359,1.1068l0.2959,1.08267c2.52534,4.06849 0.33835,9.7479 1.02632,14.47324c0,0 0.24748,1.73241 -1.48493,1.97989c-1.73241,0.24748 -1.97989,-1.48492 -1.97989,-1.48492c-0.33685,-2.39776 -0.43626,-4.94767 -0.26318,-7.37154c0.15305,-2.14343 1.14769,-3.8533 -0.2105,-5.65522l-0.7041,-1.91732c0,0 -0.5534,-1.6602 1.1068,-2.2136z" fill="#cccccc" stroke="none" stroke-width="0.5" stroke-linecap="butt"/><path d="M256.5799,147.36756c0.43115,1.29344 -0.48131,1.91508 -0.9055,2.12661c-0.38499,1.42465 -1.03324,2.77766 -1.26981,4.15625c-0.26779,1.56057 1.33288,3.36999 1.5,4.79108c0.23903,2.03251 -0.99322,3.77545 -1.25248,5.72695c0,0 -0.24749,1.73241 -1.97989,1.48492c-1.73241,-0.24748 -1.48493,-1.97989 -1.48493,-1.97989c0.19262,-1.27917 1.48038,-3.5476 1.24752,-4.77305c-0.37275,-1.96163 -1.77917,-3.5003 -1.5,-5.70892c0.21639,-1.71194 1.24999,-3.4689 1.50248,-5.26803l1.92901,-1.66271c0,0 1.66019,-0.5534 2.21359,1.1068z" fill="#cccccc" stroke="none" stroke-width="0.5" stroke-linecap="butt"/><path d="M234.35434,181.32774c0,-7.20447 5.84039,-13.04485 13.04486,-13.04485c7.20447,0 13.04485,5.84038 13.04485,13.04485c0,7.20447 -5.84038,13.04485 -13.04485,13.04485c-7.20447,0 -13.04486,-5.84038 -13.04486,-13.04485z" fill="#000000" stroke="#000000" stroke-width="1.5" stroke-linecap="butt"/><path d="M234.8268,181.32774c0,-6.94354 5.62885,-12.5724 12.5724,-12.5724c6.94354,0 12.5724,5.62886 12.5724,12.5724c0,6.94354 -5.62885,12.5724 -12.57239,12.5724c-6.94354,0 -12.57239,-5.62886 -12.57239,-12.57239z" fill="url(#color-1)" stroke="#6d4500" stroke-width="1.5" stroke-linecap="butt"/><path d="M244.10602,171.27399c0,1.43237 -1.16117,2.59352 -2.59352,2.59352c-1.11183,0 -2.06025,-0.74681 -2.42905,-1.72983c-0.02298,-0.06123 0.91389,-0.88671 1.99767,-1.52188c1.11545,-0.65373 2.38095,-1.16147 2.51555,-0.98006c0.32004,0.43134 0.50935,1.05988 0.50935,1.63826z" fill="#000000" stroke="#6d4500" stroke-width="1.5" stroke-linecap="butt"/><path d="M251.39447,174.29444c0,1.4113 -1.22946,2.55539 -2.74608,2.55539c-1.51663,0 -2.74609,-1.14409 -2.74609,-2.55539c0,-1.4113 1.22947,-2.55539 2.74609,-2.55539c1.51663,0 2.74608,1.14409 2.74608,2.55539z" fill="#000000" stroke="#6d4500" stroke-width="1.5" stroke-linecap="butt"/><path d="M244.68182,178.14658c0,1.4745 -1.24654,2.6698 -2.78423,2.6698c-1.53769,0 -2.78422,-1.19531 -2.78422,-2.6698c0,-1.4745 1.24654,-2.66981 2.78422,-2.66981c1.53769,0 2.78423,1.19531 2.78423,2.66981z" fill="#000000" stroke="#6d4500" stroke-width="1.5" stroke-linecap="butt"/><path d="M175.29625,90.90935c-1.37658,-1.35703 -1.4086,-3.55664 -0.07152,-4.91297c1.33707,-1.35633 3.53691,-1.35577 4.91349,0.00126c1.37658,1.35703 1.4086,3.55664 0.07152,4.91297c-1.33707,1.35633 -3.53691,1.35577 -4.91349,-0.00126z" fill="#00021d" stroke="#00021d" stroke-width="12" stroke-linecap="butt"/><g><path d="M187.37486,81.96264l6.76074,5.6385l-0.68615,3.60298l18.28719,30.81845c0,0 2.03416,4.19909 -0.20299,6.50055c-1.67704,1.72525 -5.13916,-0.72594 -5.13916,-0.72594l-26.40021,-23.44325l-2.88732,0.30792l-6.46508,-6.71881l5.18142,-11.21783z" fill="#5c2a2a" stroke="none" stroke-width="0" stroke-linecap="butt"/><path d="M187.51063,82.28253l6.54972,6.17586l-23.4086,9.50145l5.55341,-10.94667z" fill-opacity="0.08443" fill="#ffffff" stroke="none" stroke-width="0" stroke-linecap="butt"/><path d="M187.63811,82.1127l6.37364,4.71527l-0.14766,4.85885l17.18987,30.3183c0,0 2.8785,3.76133 0.21775,6.05014c-2.96529,2.55076 -5.12728,-0.74762 -5.12728,-0.74762l-30.56457,-40.32369z" fill-opacity="0.08443" fill="#ffffff" stroke="none" stroke-width="0" stroke-linecap="butt"/><path d="M187.4013,81.74984l7.01297,5.88714l-1.01219,3.28157l18.24495,30.37561c0,0 2.368,4.34693 -0.22113,6.91397c-2.58717,2.56509 -5.92335,-0.32547 -5.92335,-0.32547l-25.55326,-23.81194l-3.12026,0.5966l-6.15598,-6.93239l5.20999,-11.18965z" fill="none" stroke="#00021d" stroke-width="3.5" stroke-linecap="butt"/><path d="M179.64576,104.64681l4.9307,-8.78917l9.50322,-5.15821" fill="none" stroke="#00021d" stroke-width="1.5" stroke-linecap="round"/><path d="M187.4387,81.77568l6.45092,5.63398l-0.22494,3.94014l17.99364,29.70645c0,0 2.11499,4.81779 0.00256,6.96895c-2.53088,2.57729 -6.41788,-0.34242 -6.41788,-0.34242l-24.91554,-23.57528l-3.76632,0.16385l-6.17432,-6.83408l4.99363,-10.79034z" fill="#71521d" stroke="none" stroke-width="0" stroke-linecap="butt"/></g><g stroke-linecap="butt"><g><path d="M229.57863,145.77714c0,0 2.72679,3.49646 0.90305,5.3786c-1.36716,1.41091 -5.23248,-0.63128 -5.23248,-0.63128l-23.25119,-25.83044c0,0 6.64716,-6.05521 7.58819,-6.68371z" fill="#71521d" stroke="none" stroke-width="0"/><path d="" fill-opacity="0.08443" fill="#ffffff" stroke="none" stroke-width="0"/><path d="M228.67532,145.98356c0,0 3.39068,3.24179 1.18044,5.07358c0.01963,-0.09732 -1.03619,-0.10203 -1.03619,-0.10203l-22.2578,-30.49124c0,0 2.13217,-1.85554 3.09574,-2.50125z" fill="#71521d" stroke="none" stroke-width="0"/><path d="M209.59148,117.88893l19.55704,27.36285c0,0 2.83342,3.87482 0.71385,5.9655c-2.11796,2.08911 -4.78375,-1.19659 -4.78375,-1.19659l-23.35881,-25.8347" fill="none" stroke="#00021d" stroke-width="3.5"/></g><path d="M208.8541,118.3656l19.59191,27.53097c0,0 2.48948,2.86709 0.36992,4.95779c-0.98134,0.93611 -3.16996,-1.54486 -3.16996,-1.54486l-23.32441,-25.73393" fill="none" stroke="#71521d" stroke-width="1.75"/></g><path d="M179.65082,104.71934l4.17608,-8.81038l9.64144,-4.98549" fill="none" stroke="#000000" stroke-width="1.5" stroke-linecap="round"/><g fill="none" stroke-linecap="round"><g stroke="#161830" stroke-width="5.5"><path d="M243.72093,110.9959v15.09201"/><path d="M255.84918,111.48269v15.09199"/></g><g stroke="#ffffff" stroke-width="3.5"><path d="M243.72093,110.9959v15.09201"/><path d="M255.84918,111.48269v15.09199"/></g></g><path d="M214.41514,115.06253c0,0 3.39639,-47.39956 11.60912,-28.14953c8.62602,-9.5311 29.33723,-8.82236 26.68751,0.71786c27.61158,9.95404 37.05335,-7.12623 37.05335,-7.12623c0,0 1.10304,53.36164 -22.56107,43.18692c3.54457,-12.44091 -38.36941,-15.62859 -35.93906,-19.0354c-1.1735,-13.05198 -10.59219,10.35045 -13.19094,14.61719c-1.24771,2.04855 -1.01794,-1.4725 -2.10823,-0.40395c-1.1273,1.10482 -1.55067,-3.80686 -1.55067,-3.80686z" fill="#fdfd96" stroke="#00021d" stroke-width="3.5" stroke-linecap="butt"/></g></g></svg>